<?xml version="1.0" encoding="utf-8"?>
<!-- Generator: Adobe Illustrator 25.3.1, SVG Export Plug-In . SVG Version: 6.00 Build 0)  -->
<svg version="1.1" id="Layer_1" xmlns="http://www.w3.org/2000/svg" xmlns:xlink="http://www.w3.org/1999/xlink" x="0px" y="0px"
	 viewBox="0 0 1250 100" style="enable-background:new 0 0 1250 100;" xml:space="preserve">
<style type="text/css">
	.st0{fill:#E6E6E6;}
</style>
<path class="st0" d="M541.9-275.5c-0.8-1-1.4-1.7-2-2.6c-0.1-1.1-0.1-2.2,0.1-3.2c0.4-2-0.5-3.7-1.9-5.7c0.8-0.7,1.1-1.8,1-3
	c-0.3-1.4,0.2-2.8,1.1-4c0.7-0.8,1.1-2,1.1-3.2c0-0.5,0.4-0.9,0.6-1.6l-1.7-1.4c0.4-0.8,0.7-1.6,1-2.5c0.2-0.8-1-1.7,0-2.6
	c-2-1.6-3.2-3.3-3-5.2c0.1-1,0.1-2,0.1-3l1.9-1.5c0.2-0.7,0.4-1.3,0.6-1.9c0.3-0.7,0.7-1.3,1.1-1.9c0.4-0.2,1.2-0.6,1.8-1.1
	c0.6-0.4,1.1-0.9,1.6-1.4c2.9-1.3,6.5-1.5,9.8-2.1c2,0.2,3.4-0.8,5.1-0.6c1.4-1.2,2.5-2.3,3.8-3.3s2.5-1.8,3.8-2.8l-0.7-0.8l3-3v-3
	c1-1.1,2.4-1.4,3.6-1c0.8,0.8,1.5,1.7,2.5,2.5c0.8,0.6,1.6,1.1,2.5,1.5c1.8,0,3.7,0.4,5.1,0c2-0.5,4.4-0.2,6.3-1
	c2.2-0.9,5-1,7.5-1.5c1.8-0.2,3.5-0.2,5.3,0l4.2-1.2l4.5,0.1l3.8-2c1.4-0.5,2.2,0.2,3.1,0.3c2.3,0.1,4.6-0.1,6.9-0.7
	c1.7-0.5,3.5-0.8,5.3-0.9c1.5-0.2,2.9-0.5,4.3-1l3.8,0.1l4.1,1.2l2.4-0.6c2-1.8,5-3,8-4.5c2.3,0,4.7-0.2,7.2,0.6
	c1,0.2,2.1,0.2,3.1,0.1c3.8,1.5,5.2,3.6,5.9,5.7c0.5,1.6,1.8,3,3,4.5c4.1,0.6,7.4,1.7,8.4,4.4c3.2,0.3,6.1,1.3,9.3,1l2.7,1.2
	c2.1,0,4.3,0.1,6.6,0.1c1.8-0.1,3.7,0.1,5.5,0.6c1,0.2,2,0.3,3,0.2c3.6,0.1,7.2,0.1,10.7,0.2c1.8,0,3.6-0.2,5.4-0.5
	c1.7-0.3,3.4-0.7,5-1.3c1.6-0.5,3.5-0.5,5-1.2c1.9-0.7,3.9-1.3,5.8-1.7l4.9-2.6l4.1,0.1c2.9-0.5,5.8-1.5,8.5-3
	c0.8,0.1,1.5,0.2,2,0.4c1.3,0.5,2.6,0.6,3.9,0.3c2.2-0.7,4.7-0.2,6.9-0.8c1.8-0.4,3.7-0.4,5.4,0.1c1.3,0.3,2.6,0.3,3.9,0
	c1-0.2,2-0.2,2.9,0c1.7,0.7,3.7,0.3,5.4,1c1.3,0.3,2.7,0.3,4,0.2l18.1,0.3c3.3,2.1,8.2,3.2,11.2,5.5c4.1,0.5,8.4-0.3,12.3,1l3.3-0.6
	c1,0.2,1.9,0.5,2.9,0.6s2,0.1,3,0.1c1.1-0.9,2.3-1.5,3.5-1.7l5.5,0.1l4-1.1c2.4,0.2,4.8-0.2,7.1-1.1c2.2,0,4.6,0,7,0.2
	c2.3,0.2,4.6,0,6.8-0.6c2.4-0.6,4.9-0.6,7.4-0.1c1.5,0.3,3,0.4,4.5,0.4l3.9-1c3.4-0.2,6.8,0.2,10.1,1.3l2.6-0.5
	c3.1,0.3,4.9,1.9,8.1,2.5l7.7,0.1l4.3,1.3c2.8-0.1,5.9,0.5,8.9-0.3c0.8-0.1,1.7-0.2,2.5-0.1c2,0.1,4,0,6-0.3c1-0.2,2-0.2,3,0
	c2.5,0.7,5,0.5,7.5,0.6c1.2,0.1,2.4,0.1,3.6,0.1c2.2,0.2,4.3,0.1,6.5-0.3c1.1-0.2,2.2-0.2,3.3-0.1l2.5-1c1.8,0.1,3.9-0.2,5.9,0.4
	c3.1-0.7,6.2-1.7,9.1-3l5.6-0.7c0.3,0,0.6,0.1,0.9,0.2c2.3,1.4,4.8,2.3,7.3,2.6c2.7,0.5,5.3,1.2,8,1.9c2.6,0.7,5.3,1.3,7.9,2.1
	c2.1,0.4,4.4-0.1,6.5,0.9c4-1.1,7.8-0.1,11.8,0.9c2.3-0.4,4.9-1.1,7.5,0.1l4.3-1l6,1.8l8.6,0.2l4.2-2.2l2.9-0.1l2.5-1.1l10.6,0.2
	l2.1-0.9c2-0.3,3.6-0.6,5.2-0.7c1.5-0.1,2.9-0.1,4.5-0.4c1.8-0.4,4,0,5.8-0.6c2.9-0.1,5.8,0.5,8.5,1.9c2.5,0.3,5.3,0,7.9,0.8
	c0.5,0.1,1,0.1,1.5,0.1c2.2,0,4.4-0.1,6.5,0.6c1.1,0.2,2.1,0.2,3.2,0.1c2.1-1,4.4-1.6,6.6-1.7c2,0,3.7-0.8,5.7-1.1
	c1.9-0.4,3.7-0.4,5.6-0.2l2,1.6c0.5,0,1,0,1.5,0c1.1-0.2,2.2-0.4,3.8-0.8c0.8-0.4,1.9-1,3.1-1.4c1.3-0.5,1.7-1.5,3-1.9
	c0.4-0.2,0.7-0.5,1.1-0.6c1.4-0.5,2.8-1,4.1-1.5c0.7,0,1.5,0.3,2,0.9c0.8,0.9,1.1,1.9,2.8,2.6l8.5,0.2l6,2.5l3.5,0.2l2.4,1.1
	c2.9,0.3,6.1-0.2,9,0.9c4-1,8.1-1.3,12.2-0.9c2.4,0.8,5.4,1.6,8,2.7c1.7,0.5,3.5,0.9,5.2,1c1,0.2,2,0.1,3-0.2
	c1.5-0.5,3.3-0.1,4.8-0.7c1.3-0.3,2.6-0.2,3.9,0.2c1.1,0.3,2.3,0.4,3.9,0.7l2.7,1.4l2.5,0.5c2.2,1.4,5,2.6,6.4,4.7
	c0.2,1.5-0.3,3.1,1,4.6l3.7,4.1c1.7,1.1,3.4,1.8,5.3,2.1c1.6,0.4,3.2,1,4.8,1.8l3.5,3.5c0,0.9,0,2,0,3.1c0,0.4,0.2,0.9-0.1,1.2
	c-1.5,1.5-0.9,3.1-1,4.7c-0.1,3.4-0.1,6.8-0.1,10.3l-3,3.5c0,1.8-0.1,3.7,0,5.6c0,0.9-0.3,1.8,0.8,2.6l0.1,4.5c-1.5,1.6-0.9,3.3-1,5
	c0,0.8,0,1.6,0,2.4c-0.1,1,0.2,2,0.8,2.6c0.5,0.6,0.3,1.4,0.4,2.2c0.6,1,2.2,2,1.9,3.3c0.9,0.8,1.2,2.2,0.9,3.5
	c-0.3,1.3,1.2,2.3,0.9,3.5s-1,2.3-0.9,3.5c0.2,1.8-1.1,3.3-1.4,5c-1.4,1.1-0.9,2.5-0.9,3.8s-0.3,2.3,0.6,3.5
	c0.8,1.1,0.8,2.3,1.2,3.5c0.5,1.4,0.1,3,0.1,4.6c-0.6,0.7-1.3,1.5-2,2.3c0,0.7,0,1.6,0,2.4c0.1,1.3,0,2.6-0.2,3.9
	c-0.3,1.2-1.1,2.4-1.7,3.7c-0.2,0.5-0.3,1-0.3,1.5c-0.1,1.2,0.1,2.4-0.9,3.5c-0.5,0.6-0.1,1.3,0.3,2s0.8,1.7,0.3,2.3
	c-1,1.4-0.7,2.7-0.8,4.1c-0.1,1.3-0.1,2.6-0.1,3.9c0.9,0.6,1.8,1.1,2.5,1.6c0.7,0.6,2,1.3,2.1,2c0.4,1.9,2.6,3.4,3.3,5.2
	c-0.4,0.8-0.8,1.5-1,2.2l3.1,3.1c0.3,1.5-0.1,3.1-1,4.1c-0.7,0.9-1.4,1.6-2.2,2.3c-0.9,0.8-1.1,1.6-0.6,2.6c1,1.8,1.3,3.5,0,5.2
	c-0.2,0.3-0.3,0.7-0.3,1.2c0,1.2-0.3,2.3-0.8,3.2c-0.5,0.8-0.2,1.8-0.2,2.7c0,1.4-0.4,2.8-1.1,3.8c-1.4,2-1.3,4-0.4,6.1
	c0.5,1.5,1.3,2.8,2.3,3.8c-0.1,1.7,0.4,3.3,1.2,4.6c1.1,1.6,1,3.1,0.2,4.6c-0.6,0.8-0.6,2.1,0,2.9c0.6,0.8,0.7,2.2,0.1,3
	c0,0.1-0.1,0.1-0.1,0.2c-0.3,0.5-0.5,1.1-0.5,1.7c-0.1,2-0.9,3.9-2.4,5.7c-0.2,0.3-0.7,0.5-0.6,0.8c0.3,1.7-1.7,3.2-1.2,4.8
	c-1.4,1.6-2.4,3.2-4.7,4.1c-1.1,1.8-1.7,3.5-1.6,5.3c0,0.5-0.5,0.9-0.6,1.4c-0.2,0.8-0.7,1.7-0.2,2.4c0.9,1.2,0.8,2.3,0.8,3.5
	c-2.8,2.8-4,5.8-2.5,9.3l-1.7,2.2c-0.1,2-0.1,4,0,6.1c0.2,2.4-0.3,4.8-1.5,6.7c-0.3,0.6,0.4,1.1-0.3,1.6c-0.7,0.5,0.1,0.9,0.4,1.4
	c0.1,0.2,0.2,0.4,0.2,0.6c-0.2,3.2,1.6,6.3,3.2,9.3c1.2,2.2,2.1,4.4,1.8,6.7c0,0.4,0,0.8,0,1.2l2,2.4c-0.2,1,0.4,2.2-0.7,3.3
	c-0.6,0.7-0.1,1.4,0.6,2c-0.4,0.9-1.4,1.7-0.3,2.8c0.5,0.5,0.2,1.2,0.3,1.8c0.2,1.8-0.6,3.6,0.9,5.3c-0.2,2.2,0.6,4.3,1.9,6.4
	c0.3,0.5,0.1,1.2,0.1,1.8c0,2,0,4-0.1,6l2,2.6c0.2,1.2-0.3,2.5,1,3.7c-0.1,1.3,0.4,2.5-0.6,3.8s-0.8,2.6,0.1,3.8
	c0.4,0.6,0.6,1.3,0.5,2c0,1.3-0.1,2.6,0,3.9c0.2,0.8,0.4,1.6,0.8,2.3l-1.7,1.4c-0.5,1.5,0.4,3-1.3,4.4c1.3,1.8,1.2,3.7,1.1,5.6
	c-0.1,0.8-0.1,1.6,0,2.4c0.2,0.9,0.6,1.7,1.1,2.3c0.6,0.6,0.9,1.6,0.8,2.6c0,1.7,0,3.4,0,4.9c0.8,1.8,3.4,2.5,4.2,4s1.8,2.8,2.9,4.4
	c0,2.3,0,4.9-0.1,7.5c0,0.5-0.5,0.9-0.6,1.4c-0.2,0.8-0.3,1.6-0.4,2.4c-0.1,1.1,0,2.2,0,3c-0.5,1.9-3.6,2.8-3.2,4.5
	c-1.4,1.3-0.7,2.9-1.1,4.4l-2.9,3.4c1.7,2,0.7,4.1,0.8,6.4c-1.7,1-3.6,1.9-5.3,3c-1.6,1-3.5,1.8-5.2,2.7c-1.8,0.7-3.5,1.2-5.4,1.5
	c-0.8,0.2-1.6,0.3-2.8,0.6c-3.5-0.1-7.6,0.2-11.5-1.3c-0.7,0.3-1.4,0.7-2.3,1c-1.9,0.7-3.9,0.8-5.8,0.2c-1.8-0.6-4.1,0-5.8-0.9
	l-6-0.1l-4.2-1.2l-1.6,0.3l-2.7-1.4l-4.2,0.4c-4.6-1.3-9.2-2.1-12.3-4.5l-4.2-0.1l-0.9,1.5h-1.5l-0.4-1.8l-3.3-1.5l-2.3,0.3
	c-0.2-0.8-0.4-1.5-0.6-2c-1-0.6-1.6-0.1-2.4,0c-0.3-0.4-0.6-0.7-1-1c-0.8-0.6-1.8-1.2-2.6-1.8l-1.8,0.5c-1.6-0.2-1.3-1.9-3.6-1.7
	c-1.2,0.5,0.3,1-0.1,1.6l-3.6-0.6c-0.4,0.2-0.8,0.3-0.8,0.4c0.1,1.2-1.2,1.8-3,2.2c-0.1,0.3-0.1,0.7-0.2,1.1l1.7,1.3
	c-0.2,0.3-0.5,0.5-0.8,0.6c-0.4,0.2-0.9,0.3-1.4,0.3c-3.3,0.4-6.5,1.2-9.7,2.2c-1,0.3-1.9,0.7-2.8,1.2c-1.3,0.7-2.8,1.2-4.2,1.2
	l-0.7,1.4l-2.2,0.3l-1.3,1c-1-0.1-2,0-2.9-0.2c-2.1-0.4-4.1-0.9-6.2-1.3c-0.6-0.2-1.2-0.3-1.8-0.3c-1.2,0.6-2.2-0.3-3.4,0
	c-1,0.3-1.9,0.4-2.9,0.4c-3.7-0.2-6.9,0.6-10.2,1.4l-1.3-0.3c-1.3,0-1.9,0.8-3.3,1l-6.6-1c-1,0.7-2,1.2-3.1,1.6
	c-1.5,0.4-2.8,1.1-2.8,2.3c-1.9,1.2-4.4,1.6-6.9,2.1c-0.6,0.1-1.3,0.1-1.9,0.3c-0.8,0.4-1.7,0.6-2.6,0.8c-2.4,0-4.5,0.8-6.9,0.5
	c-2.5-0.2-4.8-0.1-7.2-0.1c-1,0-1.9,0.2-3.1,0.4c-1.8-0.3-3.9-0.7-6-1.1c-1.2-0.2-2.1,0.4-3.4,0.2c-1.2,0-2.3,0.2-3.4,0.6
	c-1.2-0.1-1.4-0.9-2.1-1.6l-1.7,0.4c-1.1,0.3-2.3,0.2-3.4-0.1l-5.3-1.6c-3.6,0.1-7.5-1.7-11.3-0.3l-2.1-0.6
	c-1.4,0.4-2.9,0.5-4.4,0.5c-2-0.1-4.1,0-6.1-0.1c-1.3,0-2.6,0.1-3.9,0.5c-1.5-0.2-3-0.5-4.4-0.6s-2.9,0.2-4.4,0.3l-0.8-1.4
	c-1.1-0.4-2.3-0.4-3.4-0.1c-1,0.2-2,0.3-3,0.3c-1.4,0-2.7-0.1-4.1,0c-1.1,0.1-2.2,0.4-3.4,0.6c-0.7-0.7-1.4-1.2-2.2-1.7
	c-0.9-0.3-1.8-0.8-2.6-1.5l-6.4-0.1l-6.2-0.1l-1.9,0.5c-0.4-0.2-0.8-0.3-1.3-0.3c-1.6,0.2-3.3,0.3-4.9,0.3c-2.3,0.9-5,0.3-7.6,0.5
	c-0.4,0.7-0.8,1.3-1.3,1.8c-0.7,0.5-1.5,0.9-2.3,1.2l-6.7-1.4l-1.5,1.1l-2.3-0.6c-1.9,0-4-0.1-6-0.1c-2.1,0-4.1-0.4-5.9,0.4
	c-1.8,0-3.6,0.3-5.3,0.7c-1.8,0.4-3.8,0.6-5.8,0.9c-2.1-0.1-4.1-0.5-6.1-1.2c-0.6-0.2-1.1-0.5-1.7-0.7s-1.2-0.4-1.7-0.5l-1.9,0.2
	l-0.9-0.8c-0.3-0.1-0.6-0.1-0.9-0.1c-1.9,0.3-3.8,0.6-6,1l-2.3-1.1c-2-0.1-4.3-0.5-6.3,0.3c-3.7-0.1-7.4,0.5-11-0.6
	c-1.2-0.2-2.3-0.3-3.5-0.4l-3.1-2.3l-0.3-0.9c-0.3-0.1-0.7-0.2-1-0.3c-2.9-0.1-5.8-0.1-8.9-0.2l-5.1-1.9c-2,0-4.5-0.5-7,0.3
	c-1.2,0.4-3,0.1-4.6,0.1c-1.3,0.4-2.6,0.7-3.9,1.3c-2.1,1-4.4,1.2-6.6,0.5c-1.6-0.4-3.3-0.7-4.9-0.8c-1,0.2-2,0.7-3.2-0.1l-2.4,0.8
	c0.1,0.2,0.1,0.5,0.3,0.6c0.6,0.3,1.4,0.5,2,0.9c0.3,0.2,0.4,0.5,0.5,0.8c-1,0.3-2,0.5-3,0.4l-3.8-1.5l-1.5-1.5l-5.4-0.1
	c-2.3-0.6-3.8-1.1-5.4-1.4s-2.4-1.5-4.5-1.4c-0.4-0.1-0.8-0.2-1.2-0.5c-1-0.5-2-0.8-3-1.1c-2.9-0.4-5.7-1.5-8.3-3.4
	c-1.1,0-2.1,0-3.1-0.1s-1.9-0.4-2.9-0.6c-4.3,0.5-8.5,1-11.8,2.8l-9.1-0.2c-3.1,0.3-4.9,1.9-7.7,2.2c-2.9,0.4-4.9,1.6-8.4,2.2h-3
	l-6,1.6c-1.4,0.2-3.1-0.1-4.8,0.4c-1.3,0.2-2.7,0.2-4,0.1c-1.6-0.1-3.1,0.1-4.7,0.5l-1.7-0.4c-0.4,0.9-0.4,1.9-2.5,2.2
	c-1-0.2-2.3-0.5-3.6-0.6s-2.6-0.4-3.9-0.5c-2.8-0.5-5.7-0.5-8.5-0.1c-2.5,0.5-5,0.4-7.4-0.3c-2.1,0.5-4.2,0.7-6.4,0.4
	c-2.1-0.2-4.3,0-6.4,0.5c-2.1,0.5-4.3,0.6-6.4,0.5c-2.6-0.1-5.1-0.1-7.9-0.1c-0.5,0.4-0.9,0.9-1.5,1.4s-1.1,0.7-1.5,0.9
	c-2.2,0-2.1-1.1-3-1.6l-1.2,1.1c-3-0.6-6.2-0.8-8.9-1.9l-1.5,0.4l-3.4-1l-3,0.4l-3-1.6c-2.1-0.5-4-0.8-5.8-1.3s-3.4-0.9-5.2-1.2
	c-1.9-0.4-3.9-0.7-6-1.1l-3.2,0.8l0.8,1.7l-1.4,0.4l-2.2-1.7c-0.3-0.1-0.6-0.1-0.9-0.2c-2,0-4.1-0.1-6.1-0.1
	c-1.7,0.1-3.3-0.2-4.9-0.8c-0.4,0.5-0.8,0.8-1.1,1.1s-0.7,0.4-1.1,0.7l-2,0.1l-1.5,1c-1.5,0-1.9-0.9-3.3-1.1l-6-0.1l-4.3-1.3l-4-0.1
	l-3.8-1.2l-3-0.2l-7.5-1.8l-2.8,0.5c-3.3-1.4-7.5-1.3-11-2.2c-3.7-1.3-4.5-3.4-5.5-5.4c-0.5-1-0.4-2.3,0.2-3.2
	c0.5-0.9,0.7-1.9,0.6-3l-1.9-1.5v-1.8c0.5-0.6,0.9-1.2,1.4-1.8c0.8-0.7,0.9-1.5,0.3-2.3c-1.3-1.4-1.9-3.6-1.6-5.8
	c0-0.8,0.1-1.6,0-2.5l1-1v-2c-1.2-0.9-1.3-2.5-3.9-3.3c-0.4-0.8-0.2-1.9-1.1-2.8c-0.8-0.8-1.4-1.6-2.1-2.4l2-0.9
	c0.3-0.9-1.3-1.2-1.8-2c0.2-1.3-0.8-2.8,0.8-4.1c-0.3-0.6-0.7-1.2-0.8-1.7s0.7-1.4,0.4-2c-0.4-0.7,0.1-1.1,0.4-1.7
	c-0.3-1.5-3-2.6-1.7-4.1l-3-1.3c0-0.5-0.2-1.1,0.1-1.7s1.1-1.1,0.6-1.7c-0.8-0.8-0.2-1.5,0-2.2c0.3-1.2,0.6-2.6-0.4-4l1.7-2.1
	c0-1.3-0.4-2.8,0.9-4.2c0.2-0.2,0.2-0.6,0-0.9c-0.2-0.5-0.5-1.1-0.8-1.5l2.1-2.4c-0.1-0.6-0.3-1.4-0.5-2.2c0-0.2-0.3-0.4-0.2-0.5
	c1.4-1.9,0.3-4,0.5-5.9c0.1-1.9,0.2-3.8,0.1-5.7c-0.9-0.7-2.7-0.9-3-2c-0.4-1-1-1.8-1.6-2.6c0.3-0.5,1-0.9,2.2-0.8
	c0.7,0,1.3,0,2.1,0c-0.2-0.6-0.3-1.1-0.5-1.7c0-0.5,0-0.9,0-1.4l-3.1-2c0-0.4-0.2-0.9,0.1-1.3c0.6-0.9,1.3-1.7,2-2.5v-3.5l3-3.4
	c0.1-0.5,0.1-1,0.2-1.5l2-1.4l0.1-5.5l3.4-3.1c-0.4-0.5-0.8-1-1.1-1.4c-0.3-0.4-0.5-0.8-0.8-1.2c0.1-0.5,0.9-1,0.1-1.6
	c-0.8-0.6,0.5-1.2,0.1-1.6c-0.8-0.7-0.3-1.8-2.1-2.2c-0.6-0.1-0.8-0.8-1.1-1.2l2.6-2.4l-4.8-3.1V-77l1.8-0.7c-0.3-0.5-0.6-1-0.8-1.6
	c-0.1-0.6-0.2-1.2-0.2-1.8l-1.9-0.8c0.2-1.2-1.1-2.4-1.6-3.6c-0.5-1.2-3.1-1.9-3.6-3.2c0-1.1,0-2.2,0-3.3c0-0.5,0.1-1-0.3-1.5
	c-0.9-1.2-1-2.3,0-3.4c0.7-0.7,0.4-1.5-0.2-2.3l-1.5-1.7c0-2.2-0.4-4.5,1.3-6.6l-2-1.5c-0.1-0.2-0.2-0.4-0.2-0.6
	c0-1.3,0.1-2.6,0.1-3.9c0-0.8-0.2-1.5-0.7-2c-0.9-1-0.6-2.1,0.4-3.1l-0.8-0.7l0.5-11.6l2.9-1.8l-1.9-1.5c0.1-0.5-0.1-1.2,0.4-1.6
	c1.1-1,0.1-2.2,1.6-3.1c0-1.2,0.6-2.4-0.6-3.5c-0.4-0.4-0.2-1-0.3-1.5c0.7-0.6,1.4-1.1,2.1-1.6l-1.8-3.9c1.4-1.3,1.2-2.9-0.2-4.3
	l1.2-1.8c-0.2-0.3-0.4-0.6-0.6-1c-0.2-0.5-0.6-1.1-0.4-1.4c1.5-2.2,0.7-4.5,1.1-6.8c0-0.1,0.1-0.2,0.1-0.3l1.7-1.4
	c0.6-2.1-0.6-4.3,1.3-6.2c-1.3-0.8-3.5-1.2-3.2-2.6c0-0.1-0.4-0.4-0.6-0.4c-1.5-0.4-1.6-1.2-2.1-1.9l0.9-1.3l-1-1l1.8-2.2l-3.6-4
	c-0.1-0.6,0.1-1.3,0.5-1.7c0.7-0.6,0.9-1.9,0.5-2.9c-0.1-0.1-0.1-0.2-0.2-0.3c-0.4-0.7-0.7-1.7-0.7-2.6c0-1.1-0.2-2.1-0.7-2.9
	c-1-1.7,0.3-3.3,1.1-4.9c0.1-0.3,0.7-0.5,0.6-0.8c-0.4-1.7,1-3.3,1.1-5c0.1-1.5,0.9-2.9,1.4-4.3c0.2-0.5,0.7-1,0.6-1.4
	c-0.2-1.6,1.3-2.9,1.3-4.4c1.5-1.4,1.1-2.8-0.1-4.2c0.8-1.4,1.1-2.8,3.1-3.8c-0.3-1.7,0.6-3.3,1.5-4.9c0.5-1,0.9-2,1.2-3.1
	c0.3-0.9,0.3-1.8,0.5-2.7s1.1-1.6,1.1-2.6c-0.1-1.5-0.4-3,0.9-4.4c0.4-0.4,0.1-1,0.1-1.5c0-2.3-0.1-4.6,0.1-6.9
	c0.1-1.8-0.6-3.6,1-5.3c-0.1-1.2,0.1-2.4-0.3-3.6c-0.3-0.6-0.4-1.3-0.5-2c-0.1-1.4-0.1-2.8-0.1-4.2c-1.5-1.2-0.2-2.8-1.8-4
	C543.4-272.2,541.4-273.8,541.9-275.5z"/>
<path class="st0" d="M-24.1-277.2l-2-2.5c-0.1-1.1,0-2.2,0.1-3.2c0.4-2-0.5-3.7-1.9-5.7c0.8-0.7,1.1-1.8,1-3c-0.3-1.4,0.2-2.8,1.1-4
	c0.6-0.8,1-2,1-3.2c0-0.5,0.4-1,0.6-1.6l-1.7-1.5c0.4-0.8,0.7-1.6,1-2.5c0.2-0.8-1-1.7,0-2.6c-2-1.6-3.2-3.3-3-5.2
	c0.1-1,0.1-2,0.1-3l1.9-1.5c0.2-0.7,0.4-1.3,0.6-1.9c0.3-0.7,0.7-1.3,1.1-1.9c0.4-0.3,1.2-0.7,1.8-1.1c0.6-0.5,1.1-1,1.6-1.4
	c2.9-1.3,6.5-1.5,9.8-2.1c2,0.2,3.4-0.8,5.1-0.6c1.4-1.2,2.5-2.3,3.8-3.3s2.5-1.8,3.8-2.8L1-332.7l3-3v-3c1-1.1,2.4-1.4,3.6-1
	c0.8,0.9,1.7,1.8,2.5,2.6c0.8,0.6,1.6,1.1,2.5,1.5c1.8,0,3.7,0.4,5.1,0c2-0.5,4.4-0.2,6.3-1c2.2-0.9,5-1,7.5-1.5
	c1.8-0.2,3.5-0.2,5.3,0l4.2-1.2l4.5,0.1l3.8-2c1.4-0.5,2.2,0.2,3.1,0.3c2.3,0.1,4.6-0.1,6.9-0.7c1.7-0.5,3.5-0.8,5.3-0.9
	c1.5-0.2,2.9-0.5,4.3-1l3.8,0.1l4.1,1.2l2.4-0.6c2-1.8,5-3,8-4.5c2.4-0.2,4.8,0,7.2,0.6c1,0.2,2.1,0.2,3.1,0.1
	c3.8,1.5,5.2,3.6,5.9,5.7c0.5,1.6,1.8,3,3,4.5c4.1,0.6,7.4,1.7,8.4,4.4c3.2,0.3,6.1,1.3,9.3,1l2.7,1.2c2.1,0,4.3,0.1,6.6,0.1
	c1.8-0.1,3.7,0.1,5.5,0.6c1,0.2,2,0.3,3,0.2c3.6,0.1,7.2,0.1,10.7,0.2c1.8,0,3.6-0.2,5.4-0.5c1.7-0.3,3.4-0.7,5.1-1.3
	c1.6-0.5,3.5-0.5,5-1.2c1.9-0.7,3.9-1.3,5.8-1.7l4.9-2.6l4.1,0.1c2.9-0.5,5.8-1.5,8.5-3c0.8,0.1,1.5,0.2,2,0.4
	c1.3,0.5,2.6,0.6,3.9,0.3c2.2-0.7,4.7-0.2,6.9-0.8c1.8-0.4,3.6-0.4,5.4,0.1c1.3,0.3,2.6,0.3,3.9,0c1-0.2,2-0.2,2.9,0
	c1.7,0.7,3.7,0.4,5.4,1c1.3,0.3,2.7,0.3,4,0.2l18.1,0.3c3.3,2.1,8.2,3.2,11.2,5.5c4.1,0.6,8.4-0.3,12.3,1l3.3-0.5
	c1,0.2,1.9,0.5,2.9,0.6s2,0.1,3,0.1c1.1-0.9,2.3-1.5,3.5-1.7l5.5,0.1l4-1.1c2.4,0.2,4.8-0.2,7.1-1.1c2.2,0,4.6,0,7,0.2
	c2.3,0.2,4.6,0,6.9-0.6c2.4-0.6,4.9-0.6,7.4-0.1c1.5,0.3,3,0.4,4.5,0.4l3.9-1c3.4-0.2,6.8,0.2,10.1,1.2l2.6-0.5
	c3.1,0.3,4.9,1.9,8.1,2.5l7.7,0.1l4.3,1.3c2.8-0.2,5.9,0.5,8.9-0.3c0.8-0.1,1.7-0.2,2.5-0.1c2,0.1,4,0,6-0.3c1-0.2,2-0.2,3,0
	c2.5,0.7,5,0.5,7.5,0.6c1.2,0.1,2.4,0.1,3.6,0.1c2.2,0.2,4.3,0.1,6.5-0.4c1.1-0.2,2.2-0.2,3.3-0.1l2.4-1c1.8,0.1,3.9-0.2,5.9,0.4
	c3.1-0.7,6.2-1.7,9.1-3l5.6-0.7c0.3,0,0.6,0.1,0.9,0.2c2.3,1.4,4.8,2.3,7.3,2.6c2.7,0.5,5.3,1.3,8,1.9c2.6,0.6,5.3,1.4,7.9,2.1
	c2.1,0.4,4.4-0.1,6.5,0.9c4-1.1,7.8-0.1,11.8,0.9c2.3-0.4,4.9-1.1,7.5,0.1l4.3-1l6,1.8l8.6,0.2l4.2-2.3l2.9-0.1l2.5-1.1l10.6,0.2
	l2.1-0.9c2-0.3,3.6-0.5,5.2-0.7c1.5-0.1,2.9-0.1,4.5-0.4c1.8-0.4,4,0,5.9-0.6c2.9-0.1,5.8,0.6,8.5,1.9c2.5,0.3,5.3-0.1,7.9,0.8
	c0.5,0.1,1,0.1,1.5,0.1c2.2,0,4.4-0.1,6.5,0.6c1.1,0.2,2.1,0.2,3.2,0.1c2.1-1,4.4-1.6,6.6-1.7c2,0,3.7-0.8,5.6-1.2
	c1.9-0.4,3.7-0.4,5.6-0.2l2,1.6c0.5,0,1,0,1.5,0c1.1-0.2,2.2-0.4,3.8-0.8c0.8-0.3,1.9-1,3.2-1.4s1.7-1.5,3-1.9
	c0.4-0.2,0.7-0.4,1.1-0.6c1.4-0.5,2.8-1,4.1-1.5c0.7,0,1.5,0.3,2,0.9c0.8,0.9,1.1,1.9,2.8,2.6l8.5,0.2l6,2.5l3.5,0.2l2.4,1.1
	c2.9,0.3,6.1-0.2,9,0.9c4-1,8.1-1.3,12.2-0.9c2.4,0.8,5.4,1.6,8,2.7c1.7,0.5,3.5,0.9,5.2,1c1,0.1,2,0.1,3-0.2
	c1.5-0.5,3.3-0.1,4.8-0.7c1.3-0.3,2.6-0.2,3.9,0.2c1.1,0.3,2.3,0.4,3.9,0.6l2.7,1.5l2.5,0.5c2.3,1.4,5,2.6,6.4,4.7
	c0.2,1.5-0.3,3.1,1,4.6l3.7,4.1c1.7,1.1,3.4,1.8,5.3,2.1c1.6,0.4,3.2,1,4.8,1.8c1.1,1.1,2.2,2.2,3.5,3.5c0,0.9,0,2,0,3.1
	c0,0.4,0.2,0.9-0.1,1.2c-1.5,1.5-0.9,3.1-1,4.7c-0.1,3.4-0.1,6.8-0.1,10.3l-3,3.5c0,1.8-0.1,3.7-0.1,5.6c0,0.9-0.3,1.8,0.7,2.6
	l0.1,4.5c-1.5,1.6-0.9,3.3-1,5c0,0.8,0,1.6,0,2.4c-0.1,1,0.2,2,0.8,2.6c0.5,0.6,0.3,1.4,0.4,2.2c0.6,1,2.2,2,1.9,3.2
	c0.9,0.8,1.2,2.2,0.9,3.5s1.2,2.3,0.9,3.5c-0.2,1.2-1,2.3-0.9,3.5c0.2,1.8-1.1,3.3-1.4,5c-1.4,1.1-0.9,2.5-0.9,3.8s-0.3,2.3,0.6,3.5
	c0.8,1.1,0.8,2.3,1.2,3.5c0.5,1.4,0.1,3,0.1,4.6l-2,2.3c0,0.7,0,1.5,0,2.3c0.1,1.3,0,2.6-0.2,3.9c-0.5,1.3-1,2.5-1.7,3.7
	c-0.2,0.5-0.3,1-0.3,1.5c-0.1,1.2,0.1,2.4-0.9,3.5c-0.5,0.6-0.1,1.3,0.3,2.1c0.4,0.7,0.8,1.7,0.3,2.3c-1,1.3-0.7,2.7-0.8,4.1
	c-0.1,1.3-0.1,2.6-0.1,3.9c0.9,0.6,1.8,1.1,2.5,1.6c0.7,0.6,2,1.3,2.1,2c0.4,1.9,2.6,3.4,3.3,5.2l-1,2.2l3.1,3.1
	c0.3,1.5-0.1,3.1-1,4.1c-0.7,0.8-1.4,1.6-2.2,2.3c-0.9,0.8-1.1,1.6-0.6,2.5c1,1.8,1.3,3.5,0,5.2c-0.2,0.3-0.3,0.7-0.3,1.2
	c0,1.2-0.3,2.3-0.8,3.2c-0.5,0.8-0.2,1.8-0.2,2.7c0,1.4-0.4,2.8-1.1,3.8c-1.4,2-1.3,4-0.4,6.1c0.5,1.5,1.3,2.8,2.3,3.8
	c-0.1,1.7,0.4,3.3,1.2,4.6c1.2,1.6,1,3.1,0.2,4.6c-0.6,0.8-0.6,2.1,0,2.9s0.7,2.1,0.1,3c0,0.1-0.1,0.1-0.1,0.2
	c-0.3,0.5-0.5,1.1-0.5,1.8c-0.1,2-0.9,3.9-2.4,5.7c-0.2,0.3-0.7,0.5-0.6,0.8c0.3,1.7-1.7,3.2-1.2,4.8c-1.4,1.6-2.4,3.2-4.7,4.1
	c-1.1,1.8-1.7,3.5-1.6,5.3c0,0.5-0.5,0.9-0.6,1.4c-0.2,0.8-0.7,1.7-0.2,2.3c0.9,1.2,0.8,2.3,0.8,3.5c-2.8,2.8-4,5.8-2.5,9.3
	l-1.7,2.2c-0.1,2-0.1,4,0,6.1c0.2,2.4-0.3,4.8-1.4,6.7c-0.3,0.6,0.4,1.1-0.3,1.6s0.1,0.9,0.4,1.4c0.1,0.2,0.2,0.4,0.2,0.6
	c-0.2,3.2,1.6,6.3,3.2,9.3c1.2,2.2,2.1,4.4,1.8,6.7c0,0.4,0,0.8,0,1.2l2,2.4c-0.2,1,0.4,2.2-0.6,3.3c-0.6,0.7-0.1,1.4,0.6,2
	c-0.4,0.9-1.4,1.7-0.3,2.8c0.5,0.5,0.2,1.2,0.3,1.8c0.2,1.8-0.6,3.6,0.9,5.3c-0.2,2.2,0.6,4.3,1.9,6.4c0.3,0.5,0.1,1.2,0.1,1.8
	c0,2,0,4-0.1,6l2,2.6c0.2,1.2-0.3,2.5,1,3.7c-0.1,1.3,0.3,2.5-0.6,3.8c-1,1.3-0.8,2.6,0.1,3.8c0.4,0.5,0.6,1.3,0.5,2
	c-0.1,1.3-0.1,2.6,0,3.9c0.2,0.8,0.4,1.6,0.7,2.3l-1.7,1.4c-0.5,1.5,0.4,3-1.3,4.4c1.3,1.8,1.2,3.7,1.1,5.6c-0.1,0.8-0.1,1.6,0,2.4
	c0.2,0.9,0.6,1.7,1.1,2.3c0.6,0.6,0.9,1.6,0.8,2.6c0,1.7,0,3.4-0.1,4.9c0.8,1.7,3.4,2.5,4.2,4s1.8,2.8,2.9,4.4c0,2.3,0,4.9-0.1,7.5
	c0,0.5-0.5,0.9-0.6,1.4c-0.3,0.8-0.4,1.6-0.6,2.4c-0.1,1.1,0,2.2-0.1,3c-0.5,1.9-3.6,2.8-3.2,4.5c-1.4,1.4-0.7,2.9-1.1,4.4l-2.9,3.4
	c1.6,2,0.7,4.1,0.8,6.4c-1.7,1-3.6,2-5.3,3c-1.6,1-3.5,1.8-5.2,2.7c-1.8,0.7-3.5,1.2-5.4,1.5c-0.8,0.2-1.6,0.3-2.8,0.6
	c-3.5-0.1-7.6,0.2-11.5-1.3c-0.7,0.4-1.5,0.7-2.3,1c-1.9,0.7-3.9,0.8-5.8,0.2c-1.8-0.6-4.1,0-5.8-0.9l-6-0.1l-4.2-1.2l-1.6,0.3
	l-2.7-1.4l-4.2,0.4c-4.6-1.3-9.2-2.1-12.3-4.5l-4.2-0.1l-0.8,1.5H615l-0.4-1.8l-3.3-1.5l-2.3,0.3l-0.6-2c-1-0.6-1.6-0.1-2.4,0
	c-0.3-0.4-0.6-0.7-1-1c-0.8-0.6-1.8-1.2-2.6-1.8l-1.8,0.5c-1.6-0.2-1.3-1.9-3.6-1.7c-1.2,0.5,0.3,1-0.1,1.6l-3.6-0.6
	c-0.4,0.2-0.8,0.3-0.8,0.4c0.1,1.2-1.2,1.8-3,2.2c-0.1,0.3-0.1,0.7-0.2,1.1l1.7,1.3c-0.2,0.3-0.5,0.5-0.8,0.6
	c-0.4,0.2-0.9,0.3-1.4,0.3c-3.3,0.4-6.5,1.2-9.7,2.2c-1,0.3-1.9,0.7-2.8,1.2c-1.3,0.7-2.8,1.2-4.2,1.3c-0.3,0.5-0.4,0.9-0.7,1.4
	l-2.2,0.3l-1.3,1c-1-0.1-2,0-2.9-0.2c-2.1-0.4-4.1-0.9-6.2-1.3c-0.6-0.2-1.2-0.3-1.8-0.3c-1.2,0.6-2.2-0.3-3.4,0
	c-1,0.3-1.9,0.4-2.9,0.4c-3.7-0.2-6.9,0.6-10.2,1.4l-1.3-0.3c-1.3,0-1.9,0.8-3.3,1l-6.6-1c-1,0.7-2,1.3-3.1,1.6
	c-1.5,0.4-2.8,1.1-2.8,2.3c-1.9,1.2-4.4,1.6-6.9,2.1c-0.6,0.1-1.3,0.1-1.9,0.3c-0.8,0.4-1.7,0.7-2.6,0.8c-2.3,0-4.5,0.8-6.9,0.5
	c-2.5-0.2-4.8-0.1-7.2-0.1c-1,0-1.9,0.2-3.1,0.4c-1.8-0.4-3.9-0.7-6-1.1c-1.2-0.2-2.1,0.4-3.4,0.2c-1.2,0-2.3,0.2-3.4,0.6
	c-1.2-0.1-1.4-0.9-2.1-1.6l-1.7,0.4c-1.1,0.3-2.3,0.2-3.4-0.1c-1.7-0.5-3.3-1-5.3-1.6c-3.6,0.1-7.5-1.7-11.3-0.3l-2.1-0.6
	c-1.4,0.4-2.9,0.5-4.4,0.5c-2-0.1-4.1,0-6.1-0.1c-1.3,0-2.6,0.1-3.9,0.5c-1.5-0.2-3-0.5-4.4-0.6c-1.5,0-2.9,0.2-4.4,0.3l-0.8-1.4
	c-1.1-0.4-2.3-0.4-3.4-0.1c-1,0.2-2,0.3-3,0.3c-1.4,0-2.7-0.1-4.1,0c-1.1,0.1-2.2,0.4-3.4,0.6c-0.7-0.7-1.4-1.2-2.2-1.7
	c-0.9-0.3-1.8-0.8-2.6-1.5l-6.4-0.1l-6.2-0.1l-1.9,0.5c-0.4-0.2-0.8-0.2-1.3-0.3c-1.6,0.2-3.3,0.3-4.9,0.3c-2.3,0.9-5,0.3-7.7,0.5
	c-0.4,0.7-0.8,1.3-1.3,1.8c-0.7,0.5-1.5,0.9-2.3,1.2l-6.7-1.4l-1.3,1.1l-2.3-0.6c-1.9,0-4-0.1-6-0.1c-2.1,0-4.1-0.4-5.9,0.4
	c-1.8,0-3.6,0.3-5.3,0.7c-1.8,0.4-3.8,0.6-5.8,0.9c-2.1-0.1-4.1-0.5-6.1-1.2c-0.6-0.2-1.1-0.5-1.7-0.7s-1.2-0.4-1.8-0.5l-1.9,0.2
	l-0.9-0.8c-0.3-0.1-0.6-0.2-0.9-0.2c-1.9,0.3-3.8,0.6-6,1l-2.3-1.1c-2-0.1-4.2-0.5-6.3,0.3c-3.7-0.1-7.4,0.5-11-0.6
	c-1.2-0.2-2.3-0.3-3.5-0.4l-3.1-2.3l-0.3-0.9c-0.3-0.1-0.7-0.2-1-0.3c-2.9-0.1-5.8-0.1-8.9-0.2l-5-1.9c-2,0-4.5-0.5-7,0.3
	c-1.2,0.4-3,0.1-4.6,0.1c-1.3,0.4-2.6,0.7-3.9,1.3c-2.1,1-4.4,1.2-6.6,0.5c-1.6-0.4-3.3-0.7-4.9-0.8c-1,0.2-2,0.7-3.2-0.1l-2.4,0.8
	c0.1,0.2,0.1,0.5,0.3,0.6c0.6,0.3,1.4,0.5,2,0.9c0.3,0.2,0.4,0.5,0.5,0.8c-1,0.3-2,0.5-3,0.4l-3.8-1.5l-1.5-1.5l-5.4-0.1
	c-2.3-0.6-3.8-1.1-5.4-1.4s-2.4-1.5-4.5-1.4c-0.4-0.1-0.8-0.2-1.2-0.5c-1-0.5-2-0.8-3-1.1c-2.9-0.4-5.7-1.5-8.3-3.4
	c-1.1,0-2.1,0-3.1-0.1s-1.9-0.4-2.9-0.6c-4.3,0.5-8.5,1-11.8,2.8l-9.1-0.2c-3.1,0.3-4.9,1.9-7.7,2.2s-4.9,1.6-8.4,2.2h-3l-5.9,1.7
	c-1.4,0.2-3.1-0.1-4.8,0.4c-1.3,0.2-2.7,0.2-4,0.1c-1.6-0.1-3.1,0.1-4.7,0.5l-1.7-0.4c-0.4,0.9-0.4,1.9-2.5,2.2
	c-1-0.2-2.3-0.5-3.6-0.6s-2.6-0.4-3.9-0.5c-2.8-0.5-5.7-0.5-8.5-0.1c-2.5,0.5-5,0.4-7.4-0.3c-2.1,0.5-4.2,0.7-6.4,0.4
	c-2.2-0.2-4.3,0-6.4,0.5c-2.1,0.5-4.3,0.6-6.4,0.5c-2.6-0.1-5.1-0.1-7.9-0.1c-0.5,0.4-0.9,0.9-1.5,1.4s-1.1,0.7-1.5,0.9
	c-2.2,0-2.1-1.1-3-1.6l-1.2,1.1c-3-0.6-6.2-0.9-8.9-1.9l-1.5,0.4l-3.4-1l-3,0.4l-3-1.6c-2.1-0.5-4-0.8-5.8-1.3s-3.4-0.9-5.2-1.2
	c-1.9-0.4-3.9-0.7-6-1.1l-3.2,0.8l0.8,1.8l-1.4,0.4l-2.2-1.7c-0.3-0.1-0.6-0.1-0.8-0.2c-2,0-4.1-0.1-6.1-0.1c-1.7,0.1-3.3-0.2-5-0.8
	c-0.4,0.5-0.7,0.8-1.1,1.1c-0.3,0.3-0.7,0.5-1.1,0.7l-2,0.1l-1.5,1c-1.5,0-1.9-0.9-3.3-1.1l-6-0.1l-4.3-1.3l-4-0.1l-3.8-1.2l-3-0.2
	l-7.5-1.8l-2.8,0.5c-3.3-1.4-7.5-1.3-11-2.2c-3.7-1.3-4.5-3.4-5.5-5.4c-0.5-1-0.4-2.3,0.2-3.2c0.5-0.9,0.7-1.9,0.6-3l-1.9-1.5v-1.8
	c0.5-0.6,0.9-1.2,1.4-1.8c0.8-0.7,0.9-1.5,0.3-2.3c-1.3-1.4-1.9-3.6-1.6-5.8c0-0.8,0.1-1.6,0-2.4l1-1v-2c-1.2-0.9-1.3-2.5-3.8-3.3
	c-0.4-0.8-0.2-1.9-1.2-2.8c-0.5-0.8-1.2-1.7-1.8-2.5l2-0.9c0.3-0.9-1.3-1.1-1.8-2c0.2-1.3-0.8-2.8,0.8-4.1c-0.3-0.6-0.8-1.1-0.8-1.7
	s0.8-1.4,0.4-2s0.1-1.1,0.4-1.7c-0.3-1.5-3-2.6-1.8-4.1l-3-1.3c0-0.5-0.2-1.1,0.1-1.6c0.3-0.5,1.1-1.2,0.6-1.7
	c-0.8-0.8-0.3-1.5,0-2.2c0.3-1.2,0.6-2.6-0.4-4L-26-4c0-1.3-0.4-2.8,0.9-4.2c0.2-0.2,0.2-0.6,0-0.9c-0.2-0.5-0.5-1.1-0.8-1.5
	l2.1-2.4c-0.1-0.6-0.3-1.4-0.5-2.2c0-0.2-0.3-0.4-0.2-0.5c1.4-1.9,0.3-4,0.5-5.9c0.1-1.9,0.2-3.8,0.1-5.7c-0.9-0.7-2.7-0.9-3-2
	c-0.4-1-1-1.8-1.6-2.6c0.3-0.5,1-0.9,2.2-0.8c0.7,0,1.3,0,2.1,0c-0.2-0.6-0.3-1.1-0.5-1.7c0-0.5,0-0.9,0-1.4l-3.1-2
	c0-0.4-0.2-0.9,0.1-1.3c0.6-0.9,1.3-1.7,2-2.5v-3.5l3-3.4c0.1-0.5,0.1-1,0.2-1.5l2-1.4l0.1-5.6l3.5-3.6c-0.4-0.5-0.8-1-1.1-1.4
	c-0.3-0.4-0.5-0.8-0.8-1.2c0.1-0.5,0.9-1,0.1-1.6c-0.8-0.6,0.6-1.1,0.2-1.6c-0.8-0.7-0.3-1.8-2.1-2.3c-0.7-0.1-0.9-0.8-1.2-1.2
	l2.6-2.4l-4.8-3.1v-4.2l1.8-0.7c-0.3-0.5-0.6-1-0.8-1.6c-0.1-0.6-0.2-1.2-0.1-1.8l-1.9-0.8c0.2-1.2-1.1-2.4-1.6-3.6
	c-0.6-1.4-3.1-1.9-3.6-3.2c0-1.1,0.1-2.2,0-3.3c0-0.5,0.1-1-0.3-1.5c-0.9-1.2-1-2.3,0-3.4c0.7-0.7,0.4-1.5-0.2-2.3l-1.5-1.7
	c0.1-2.2-0.4-4.5,1.3-6.6l-2-1.5c-0.1-0.2-0.2-0.4-0.2-0.6c0-1.3,0-2.6,0.1-3.9c0-0.8-0.2-1.5-0.7-2c-0.9-1-0.6-2.1,0.4-3.1
	l-0.8-0.7l0.1-10.6l2.9-1.8l-1.9-1.5c0.1-0.5-0.1-1.2,0.4-1.6c1-1,0.1-2.3,1.6-3.1c0-1.2,0.6-2.4-0.6-3.5c-0.4-0.4-0.2-1-0.3-1.5
	l2.1-1.6c-0.6-1.3-1.1-2.5-1.8-3.9c1.4-1.3,1.2-2.8-0.2-4.3l1.2-1.8c-0.2-0.3-0.4-0.6-0.6-1c-0.2-0.5-0.6-1.1-0.4-1.4
	c1.5-2.2,0.7-4.5,1.1-6.8c0-0.1,0.1-0.2,0.1-0.3l1.7-1.4c0.6-2.1-0.6-4.3,1.3-6.2c-1.3-0.8-3.5-1.2-3.2-2.5c0-0.1-0.4-0.4-0.6-0.4
	c-1.5-0.4-1.6-1.2-2.1-1.9l0.9-1.3l-1-1l1.8-2.2l-3.7-4.1c-0.1-0.6,0.1-1.3,0.5-1.7c0.7-0.6,0.9-1.9,0.4-2.9
	c-0.1-0.1-0.1-0.2-0.2-0.3c-0.4-0.8-0.7-1.7-0.7-2.6c0-1.1-0.2-2.1-0.7-2.9c-1-1.7,0.3-3.3,1.1-4.9c0.2-0.3,0.7-0.5,0.6-0.8
	c-0.4-1.7,1-3.3,1.1-5c0.1-1.5,0.9-2.9,1.4-4.3c0.2-0.5,0.6-1,0.6-1.4c-0.2-1.6,1.3-2.9,1.3-4.4c1.5-1.4,1.1-2.8-0.1-4.2
	c0.8-1.4,1.1-2.8,3.1-3.8c-0.3-1.7,0.6-3.3,1.5-4.9c0.5-1,0.9-2,1.2-3.1c0.3-0.9,0.3-1.8,0.5-2.7c0.2-0.9,1.1-1.6,1.1-2.6
	c-0.1-1.5-0.4-3,0.9-4.4c0.4-0.4,0.1-1,0.1-1.5c0-2.3-0.1-4.6,0.1-6.9c0.1-1.8-0.6-3.6,1-5.3c-0.1-1.2,0.1-2.4-0.3-3.6
	c-0.3-0.6-0.4-1.3-0.5-2.1c-0.1-1.4-0.1-2.8-0.1-4.2c-1.5-1.2-0.2-2.8-1.8-4C-22.5-274-24.6-275.5-24.1-277.2z"/>
</svg>
