<svg id="Layer_1" data-name="Layer 1" xmlns="http://www.w3.org/2000/svg" viewBox="0 0 1250 200"><defs><style>.cls-1{fill:#e6e6e6;}</style></defs><path class="cls-1" d="M420.89,83.66c-1.06-1-1.82-1.74-2.65-2.55a13.09,13.09,0,0,1,.09-3.24c.5-2-.65-3.74-2.56-5.7a3,3,0,0,0,1.32-3c-.35-1.42.27-2.77,1.46-4A4.51,4.51,0,0,0,420,62c0-.47.47-.94.81-1.57L418.54,59a16.82,16.82,0,0,0,1.28-2.46c.29-.84-1.26-1.71,0-2.55-2.64-1.56-4.24-3.26-4-5.24a25.63,25.63,0,0,0,.07-3l2.55-1.5a14.2,14.2,0,0,1,.83-1.91,18.72,18.72,0,0,1,1.51-1.88c.56-.25,1.57-.65,2.4-1.11a23.61,23.61,0,0,0,2.15-1.44c3.82-1.33,8.58-1.49,13-2.09,2.62.23,4.55-.76,6.79-.58,1.79-1.21,3.27-2.3,5-3.33s3.34-1.82,5.08-2.77l-.87-.94,4-3,0-3a5.54,5.54,0,0,1,4.81-1c1.06.82,2.05,1.72,3.33,2.54a28.71,28.71,0,0,0,3.32,1.54c2.32,0,4.84.37,6.71,0,2.71-.5,5.78-.22,8.3-1,2.95-.88,6.65-1,10-1.49a44.17,44.17,0,0,1,7,0l5.54-1.16,6,.08,5-2c1.92-.48,2.89.22,4.17.31a39.27,39.27,0,0,0,9.09-.71,55.81,55.81,0,0,1,7-.92,36.35,36.35,0,0,0,5.74-1l5.1.08,5.41,1.25,3.12-.63c2.66-1.79,6.64-3,10.55-4.52,3,0,6.28-.19,9.54.59a20.84,20.84,0,0,0,4.14.11c5,1.47,6.9,3.57,7.76,5.72.67,1.65,2.43,3,4,4.46,5.4.57,9.77,1.69,11.08,4.39,4.23.33,8.1,1.29,12.3,1l3.54,1.24c2.83,0,5.76.06,8.69.13a32.51,32.51,0,0,1,7.26.56,20.17,20.17,0,0,0,4,.21c4.74.08,9.49.1,14.23.22a56.13,56.13,0,0,0,7.18-.46,53.64,53.64,0,0,0,6.68-1.26c2.16-.46,4.63-.49,6.67-1.24a60.32,60.32,0,0,1,7.75-1.69l6.47-2.63,5.43.08a46.55,46.55,0,0,0,11.31-3c1,.14,1.94.2,2.7.38a12.62,12.62,0,0,0,5.23.31c2.91-.69,6.2-.16,9.12-.76a19,19,0,0,1,7.21.13,13.22,13.22,0,0,0,5.13,0,10.47,10.47,0,0,1,3.88,0c2.21.66,4.84.34,7.1,1a26.24,26.24,0,0,0,5.31.24l24,.34c4.4,2.11,10.83,3.19,14.9,5.48,5.48.55,11.07-.27,16.27,1l4.4-.55c1.27.21,2.51.49,3.8.6s2.69.06,4,.07a10.4,10.4,0,0,1,4.67-1.69l7.24.11,5.34-1.13a28.48,28.48,0,0,0,9.43-1.11c2.9,0,6.08,0,9.22.16A37,37,0,0,0,864.5,26a28,28,0,0,1,9.78-.08,41.32,41.32,0,0,0,6,.4l5.18-1a48,48,0,0,1,13.44,1.27l3.48-.48c4.07.3,6.46,1.91,10.71,2.53l10.23.14L929,30.08c3.77-.15,7.86.54,11.76-.34a18.85,18.85,0,0,1,3.33-.1,42.2,42.2,0,0,0,7.95-.32,11.57,11.57,0,0,1,4,0c3.26.72,6.64.47,10,.59,1.58.06,3.17.06,4.75.07a40.92,40.92,0,0,0,8.58-.34,26.8,26.8,0,0,1,4.38-.11l3.25-1c2.42.07,5.12-.2,7.85.43a73.71,73.71,0,0,0,12.12-3l7.41-.67a5.91,5.91,0,0,1,1.25.22,31.46,31.46,0,0,0,9.68,2.63c3.61.53,7.08,1.25,10.59,1.91s7,1.34,10.46,2.09c2.75.38,5.88-.08,8.63.9,5.3-1.13,10.28-.09,15.62.88,3.1-.36,6.52-1.11,10,.08l5.73-1,8,1.8,11.46.16,5.56-2.16,3.8-.12,3.33-1.06,14,.2,2.81-.92c2.66-.28,4.77-.56,6.93-.72,2-.14,3.9-.06,5.91-.39,2.39-.4,5.34,0,7.75-.65A31.34,31.34,0,0,1,1167.21,31c3.34.32,7.07,0,10.41.78a10.75,10.75,0,0,0,2,.08c2.9,0,5.78-.11,8.55.63a22.84,22.84,0,0,0,4.27.1,28.72,28.72,0,0,1,8.77-1.7c2.68,0,4.9-.83,7.49-1.15a31.41,31.41,0,0,1,7.43-.21l2.7,1.64a16,16,0,0,0,2,0c1.47-.19,2.89-.45,5-.79,1-.35,2.49-.95,4.17-1.41s2.19-1.46,3.93-1.93c.56-.16.91-.45,1.47-.6,1.84-.52,3.73-1,5.49-1.48a4,4,0,0,1,2.68.94c1,.88,1.41,1.92,3.77,2.63l11.21.16,7.89,2.52,4.66.19,3.19,1.11c3.86.34,8.07-.22,11.9.91a61.8,61.8,0,0,1,16.18-.92c3.15.84,7.11,1.56,10.65,2.7a39.28,39.28,0,0,0,6.93,1,11.56,11.56,0,0,0,3.93-.22c1.94-.46,4.32-.09,6.4-.68a13.15,13.15,0,0,1,5.21.19c1.42.28,3,.38,5.22.65l3.57,1.45,3.34.46c2.94,1.39,6.66,2.63,8.42,4.68.26,1.5-.41,3.12,1.38,4.63l4.85,4.07a22.29,22.29,0,0,0,7,2.1,42.79,42.79,0,0,1,6.34,1.76l4.66,3.52c0,.9,0,2,0,3.09,0,.4.27.89-.13,1.19-2,1.48-1.19,3.12-1.26,4.69-.17,3.41-.14,6.82-.19,10.32l-4,3.48c0,1.76-.07,3.67-.06,5.57,0,.89-.42,1.81,1,2.62l.1,4.5c-2,1.56-1.17,3.3-1.35,5a19.43,19.43,0,0,0,0,2.41,3,3,0,0,0,1,2.63c.67.58.36,1.37.52,2.19.78,1,2.86,2,2.48,3.26a3,3,0,0,1,1.18,3.5c-.4,1.26,1.55,2.33,1.23,3.53s-1.31,2.32-1.16,3.47c.21,1.75-1.44,3.29-1.79,5-1.89,1.15-1.14,2.51-1.19,3.78s-.41,2.33.86,3.53c1.11,1.05,1,2.32,1.53,3.49.69,1.44.13,3,.1,4.63-.78.69-1.67,1.48-2.64,2.32,0,.74,0,1.55,0,2.35a13.81,13.81,0,0,1-.25,3.9c-.4,1.25-1.51,2.45-2.2,3.68a3.9,3.9,0,0,0-.38,1.47c-.19,1.18.14,2.37-1.17,3.51-.65.57-.1,1.34.37,2s1,1.7.36,2.33c-1.39,1.35-.93,2.73-1.09,4.11a35.77,35.77,0,0,0-.09,3.87c1.22.59,2.41,1.07,3.36,1.64s2.59,1.32,2.79,2c.53,1.92,3.48,3.42,4.35,5.24-.48.76-1,1.5-1.39,2.21l4.16,3.13a4.13,4.13,0,0,1-1.37,4.14,18.66,18.66,0,0,1-2.94,2.27c-1.22.81-1.46,1.61-.74,2.55,1.35,1.75,1.67,3.5-.05,5.22a1.81,1.81,0,0,0-.4,1.17,4.82,4.82,0,0,1-1.09,3.21c-.71.77-.28,1.77-.3,2.67a5.24,5.24,0,0,1-1.48,3.77c-1.88,2-1.76,4-.55,6.11a10.41,10.41,0,0,0,3,3.78,6,6,0,0,0,1.65,4.55c1.52,1.59,1.31,3.11.25,4.65a2.12,2.12,0,0,0,0,2.92,2.13,2.13,0,0,1-.08,3.18,2.76,2.76,0,0,0-.64,1.74c-.08,2-1.21,3.89-3.14,5.68-.29.27-.87.54-.82.8.38,1.73-2.23,3.22-1.64,4.84-1.8,1.61-3.15,3.2-6.25,4.11-1.51,1.8-2.29,3.52-2.1,5.34,0,.47-.64.93-.77,1.41-.22.79-.88,1.7-.24,2.35,1.19,1.19,1,2.34,1,3.55-3.77,2.79-5.3,5.79-3.33,9.28l-2.27,2.16a45.3,45.3,0,0,0,0,6.07,9,9,0,0,1-1.93,6.73c-.45.57.55,1.11-.4,1.63s.12.93.54,1.39a.76.76,0,0,1,.22.58c-.21,3.23,2.11,6.29,4.24,9.31,1.59,2.23,2.83,4.39,2.38,6.71a6.79,6.79,0,0,0,0,1.19l2.62,2.38c-.23,1,.56,2.18-.87,3.31-.85.67-.19,1.35.77,2-.57.86-1.86,1.72-.44,2.78.62.46.33,1.16.42,1.75.26,1.78-.8,3.59,1.24,5.31-.23,2.21.82,4.33,2.47,6.42.43.54.16,1.19.16,1.79,0,2,0,4-.08,6l2.61,2.56c.22,1.21-.38,2.54,1.33,3.73-.11,1.28.47,2.54-.84,3.81s-1,2.57.08,3.8a2.72,2.72,0,0,1,.69,2.05c0,1.3-.11,2.61,0,3.91a10,10,0,0,0,1,2.32l-2.23,1.41c-.62,1.45.55,3-1.72,4.43,1.77,1.78,1.59,3.67,1.5,5.56a7.17,7.17,0,0,0,0,2.4,4.44,4.44,0,0,0,1.48,2.28,2.77,2.77,0,0,1,1,2.63c0,1.7,0,3.4-.06,4.85,1,1.75,4.52,2.5,5.58,4s2.39,2.79,3.83,4.44c0,2.32,0,4.93-.14,7.53,0,.48-.61.94-.77,1.42a10.93,10.93,0,0,0-.52,2.37c-.1,1.1-.05,2.2-.06,3-.69,1.89-4.71,2.77-4.27,4.55-1.92,1.34-.94,2.91-1.42,4.36l-3.88,3.43c2.19,2.05.89,4.14,1.11,6.37-2.28,1-4.81,1.94-7,3-2.08,1-4.59,1.82-6.92,2.69a49.37,49.37,0,0,1-7.09,1.52c-1,.19-2.07.32-3.74.57-4.66-.13-10.13.18-15.28-1.31-.91.3-1.84.7-3,1a15.67,15.67,0,0,1-7.64.22c-2.35-.6-5.46,0-7.68-.94l-8-.12-5.62-1.22-2.14.34-3.61-1.43-5.6.36c-6.15-1.27-12.23-2.15-16.29-4.45l-5.55-.08-1.13,1.49-2,0-.51-1.81-4.38-1.48-3,.31c-.31-.79-.56-1.46-.79-2-1.27-.61-2.17-.1-3.19,0a10.24,10.24,0,0,0-1.32-1c-1.12-.64-2.35-1.24-3.43-1.81l-2.39.48c-2.16-.2-1.78-1.93-4.79-1.73-1.57.46.45,1-.17,1.63l-4.71-.64c-.51.19-1.11.32-1.1.44.11,1.21-1.65,1.75-4,2.2-.07.33-.15.72-.22,1.07l2.25,1.32a4.32,4.32,0,0,1-1,.62,7.9,7.9,0,0,1-1.8.33,88.59,88.59,0,0,0-12.87,2.24,25.3,25.3,0,0,0-3.74,1.18,16.28,16.28,0,0,1-5.61,1.25l-.92,1.43-2.91.33-1.71,1c-1.27-.07-2.65,0-3.9-.22-2.76-.39-5.47-.86-8.2-1.3a9.77,9.77,0,0,0-2.38-.33c-1.56.57-2.94-.32-4.44,0a17.58,17.58,0,0,1-3.85.37c-4.93-.22-9.16.62-13.52,1.41l-1.78-.33c-1.78,0-2.51.75-4.35,1l-8.69-1a16.74,16.74,0,0,1-4.09,1.6c-2,.4-3.7,1.13-3.7,2.28-2.51,1.17-5.86,1.64-9.19,2.13-.84.12-1.78.13-2.56.29a19.74,19.74,0,0,1-3.42.82c-3.12.05-5.93.75-9.19.55s-6.32-.13-9.48-.1c-1.29,0-2.57.21-4.14.35-2.42-.34-5.18-.72-7.92-1.13-1.57-.24-2.76.4-4.49.21a22.53,22.53,0,0,0-4.55.59c-1.58-.1-1.79-.89-2.83-1.57l-2.24.37a12,12,0,0,1-4.56-.12l-7.06-1.63c-4.81.14-9.9-1.74-15-.28l-2.77-.57a26,26,0,0,1-5.77.48c-2.7-.06-5.42,0-8.13-.11a23.13,23.13,0,0,0-5.13.47c-2-.21-3.91-.53-5.86-.58s-3.83.19-5.81.3l-1.08-1.4a10,10,0,0,0-4.55-.08,16.56,16.56,0,0,1-3.93.27c-1.81,0-3.64-.12-5.42,0-1.48.07-2.9.37-4.53.6a11.66,11.66,0,0,0-2.88-1.66,10.74,10.74,0,0,1-3.46-1.55l-8.54-.13-8.19-.11-2.51.52a6.71,6.71,0,0,0-1.7-.28,45.52,45.52,0,0,1-6.52.27c-3.07.89-6.57.34-10.13.46a9.71,9.71,0,0,1-1.75,1.77,19.6,19.6,0,0,1-3,1.21l-8.85-1.39L948,439l-3.06-.63c-2.55,0-5.26-.1-8-.11s-5.45-.39-7.84.43a36.64,36.64,0,0,0-7.06.73c-2.42.43-5.06.65-7.64.88a34.54,34.54,0,0,1-8.11-1.25c-.74-.23-1.47-.47-2.24-.67s-1.59-.37-2.31-.53l-2.53.22-1.15-.79a6.52,6.52,0,0,0-1.25-.15c-2.55.29-5.08.62-7.92,1l-3.11-1.1c-2.71-.09-5.64-.46-8.33.32-4.89-.09-9.84.45-14.63-.6a44.09,44.09,0,0,0-4.67-.39l-4.12-2.3-.39-.91a9.55,9.55,0,0,0-1.36-.26c-3.84-.07-7.67-.12-11.78-.18l-6.72-1.85c-2.65.05-5.9-.45-9.24.29-1.64.36-4,.1-6.08.12-1.7.39-3.48.74-5.14,1.27a15.26,15.26,0,0,1-8.73.46,53.91,53.91,0,0,0-6.54-.8c-1.27.2-2.67.67-4.23-.08l-3.24.81c.13.25.09.51.35.61.85.32,1.9.54,2.71.88.42.18.49.51.72.77a13,13,0,0,1-4,.41l-5-1.52-1.94-1.5-7.16-.1c-3-.6-5-1.13-7.11-1.38s-3.22-1.51-5.9-1.35a6.21,6.21,0,0,1-1.65-.47,25,25,0,0,0-4-1.09,29,29,0,0,1-11-3.4c-1.44,0-2.8,0-4.09-.08s-2.5-.42-3.78-.65c-5.66.45-11.26,1-15.68,2.75l-12-.17c-4.13.32-6.48,1.89-10.26,2.25s-6.52,1.63-11.11,2.22l-3.92,0-7.89,1.61c-1.91.19-4.15-.06-6.35.38a24.14,24.14,0,0,1-5.33.06,25.26,25.26,0,0,0-6.19.48l-2.19-.4c-.5.88-.47,1.87-3.32,2.21-1.32-.18-3-.47-4.71-.62s-3.48-.36-5.19-.54a46.13,46.13,0,0,0-11.32-.1,28.15,28.15,0,0,1-9.87-.31,29.42,29.42,0,0,1-8.44.4,35,35,0,0,0-8.52.47,39.4,39.4,0,0,1-8.53.5c-3.38-.06-6.76-.1-10.51-.15-.6.41-1.24.91-2,1.36s-1.48.67-2,.9c-2.85,0-2.74-1.13-4-1.62l-1.63,1.06c-4-.64-8.2-.84-11.81-1.87l-2,.41-4.51-1-4,.37-3.94-1.6c-2.74-.45-5.36-.77-7.73-1.3s-4.53-.88-6.85-1.24c-2.52-.4-5.11-.7-7.95-1.09l-4.21.82L525.8,432l-1.9.38L521,430.64a7.47,7.47,0,0,0-1.13-.16c-2.7-.05-5.41-.13-8.12-.11a22.75,22.75,0,0,1-6.55-.79c-.59.45-1,.78-1.42,1.08s-.88.44-1.42.71l-2.61.1-2,1c-2,0-2.56-.87-4.32-1.14l-8-.12-5.72-1.29-5.33-.08-5.07-1.19-3.91-.17-9.88-1.84-3.72.53c-4.4-1.35-10-1.32-14.53-2.23-4.89-1.26-6-3.4-7.34-5.37a2.67,2.67,0,0,1,.25-3.24,4.71,4.71,0,0,0,.84-3l-2.53-1.49,0-1.82a20.07,20.07,0,0,1,1.91-1.75c1-.74,1.2-1.54.41-2.28a6.21,6.21,0,0,1-2.18-5.81,22.73,22.73,0,0,0,.05-2.45l1.3-1,0-2c-1.63-.93-1.74-2.49-5.11-3.32-.47-.84-.3-1.86-1.52-2.76-1-.76-1.83-1.58-2.76-2.4l2.6-.92c.35-.87-1.68-1.16-2.35-2,.21-1.26-1.11-2.8,1-4.14-.36-.59-.95-1.16-1-1.72s.94-1.4.49-2c-.57-.71.19-1.13.58-1.66-.38-1.49-4-2.57-2.31-4.15l-3.92-1.29c0-.51-.3-1.14.11-1.66s1.47-1.15.81-1.68c-1-.82-.33-1.45,0-2.23.45-1.25.83-2.58-.52-4l2.26-2.14c0-1.29-.51-2.81,1.23-4.19.29-.23.2-.6.06-.88a12.78,12.78,0,0,0-1.1-1.55l2.81-2.4c-.18-.64-.39-1.42-.63-2.21,0-.18-.37-.4-.24-.53,1.82-1.93.38-4,.69-5.94a38.73,38.73,0,0,0,.14-5.7c-1.19-.71-3.53-.88-4-2a12.61,12.61,0,0,0-2.1-2.6c.4-.53,1.28-.88,2.85-.84.88,0,1.76,0,2.76,0a12,12,0,0,1-.6-1.73,6.12,6.12,0,0,1,0-1.42l-4.09-2.05c0-.38-.27-.91.07-1.34a25.84,25.84,0,0,1,2.65-2.46l.05-3.55,4-3.43c.09-.5.18-1,.27-1.52l2.6-1.4.08-5.55,4.5-3.09c-.52-.52-1-1-1.41-1.42s-.63-.75-1-1.21c.09-.46,1.25-1,.16-1.56s.68-1.17.08-1.63c-1-.73-.37-1.8-2.83-2.25-.78-.14-1.06-.84-1.51-1.24l3.44-2.42-6.36-3.08.06-4.16,2.43-.71a8.44,8.44,0,0,1-1.05-1.62,6.43,6.43,0,0,1-.2-1.79l-2.51-.82c.26-1.23-1.48-2.35-2.16-3.57s-4.09-1.87-4.73-3.22c0-1.1.06-2.2,0-3.3,0-.49.1-1-.34-1.47-1.23-1.19-1.3-2.29,0-3.44.88-.74.59-1.54-.26-2.3l-1.93-1.73c.06-2.16-.58-4.48,1.67-6.63l-2.62-1.53c-.1-.18-.3-.38-.3-.57,0-1.3.07-2.6.14-3.9a2.29,2.29,0,0,0-.9-2c-1.18-1-.83-2.14.59-3.11l-1-.74.15-10.59,3.78-1.84-2.47-1.5c.11-.48-.16-1.18.48-1.62,1.4-1,.14-2.25,2.18-3.07.06-1.17.82-2.35-.85-3.51-.54-.37-.29-1-.41-1.48.95-.57,1.88-1.11,2.77-1.63l-2.33-3.88c1.85-1.33,1.58-2.85-.3-4.33l1.55-1.83a9,9,0,0,1-.74-1c-.25-.48-.85-1.05-.5-1.44,2-2.2.9-4.53,1.44-6.79a1.71,1.71,0,0,1,.15-.31l2.25-1.36c.75-2.11-.86-4.28,1.68-6.25-1.74-.78-4.6-1.17-4.21-2.55,0-.12-.48-.35-.84-.41-2-.37-2.13-1.22-2.8-1.91l1.16-1.33-1.3-1,2.37-2.19L406.19,173a1.51,1.51,0,0,1,.64-1.68,2.08,2.08,0,0,0,.33-3.21,4.28,4.28,0,0,1-.92-2.63,4.84,4.84,0,0,0-.95-2.94c-1.38-1.69.36-3.3,1.49-4.89.19-.28.92-.53.85-.78-.47-1.72,1.31-3.28,1.52-5,.19-1.46,1.17-2.89,1.83-4.33.22-.47.87-1,.77-1.41-.32-1.55,1.75-2.86,1.71-4.37,2-1.4,1.49-2.83-.16-4.19,1-1.39,1.48-2.79,4.13-3.76-.46-1.74.8-3.3,2-4.89a12.1,12.1,0,0,0,1.56-3.14c.34-.88.43-1.77.7-2.65s1.49-1.61,1.4-2.57c-.13-1.47-.52-3,1.22-4.38.49-.38.18-1,.19-1.48,0-2.3-.17-4.61.07-6.91.19-1.77-.79-3.62,1.35-5.27-.1-1.2.13-2.42-.41-3.58a6,6,0,0,1-.68-2c-.07-1.4-.1-2.81-.14-4.21-2-1.21-.31-2.8-2.33-4C422.94,86.93,420.24,85.37,420.89,83.66Z"/><path class="cls-1" d="M-329,81.9l-2.66-2.54a13.69,13.69,0,0,1,.1-3.25c.5-2-.65-3.74-2.56-5.7a3,3,0,0,0,1.32-3c-.35-1.42.27-2.77,1.46-4A4.43,4.43,0,0,0-330,60.22c0-.48.47-.95.82-1.58l-2.23-1.41a17.51,17.51,0,0,0,1.29-2.47c.29-.83-1.27-1.71,0-2.55-2.64-1.56-4.25-3.26-4-5.24a27.75,27.75,0,0,0,.07-3l2.54-1.51a15.77,15.77,0,0,1,.84-1.91,17.43,17.43,0,0,1,1.51-1.87c.56-.26,1.57-.66,2.4-1.12s1.46-1,2.15-1.43c3.82-1.33,8.58-1.5,13-2.1,2.62.23,4.55-.76,6.78-.58,1.79-1.21,3.28-2.3,5-3.32s3.34-1.83,5.09-2.77l-.87-.95,4-3,0-3a5.51,5.51,0,0,1,4.81-1A39.62,39.62,0,0,0-283.44,22a30.26,30.26,0,0,0,3.31,1.55c2.32,0,4.85.36,6.71,0,2.71-.49,5.79-.21,8.31-1,2.94-.89,6.65-1,10-1.5a44.18,44.18,0,0,1,7,0l5.54-1.16,6,.09,5-2c1.91-.49,2.88.21,4.17.31a39.3,39.3,0,0,0,9.09-.72,54,54,0,0,1,7-.91,39,39,0,0,0,5.74-1l5.1.07,5.41,1.25,3.12-.63c2.66-1.79,6.64-3,10.55-4.51a40.07,40.07,0,0,1,9.54.58,20.76,20.76,0,0,0,4.13.11c5,1.47,6.91,3.57,7.77,5.72.67,1.65,2.43,3,4,4.47,5.41.57,9.78,1.68,11.09,4.38,4.23.33,8.09,1.29,12.3,1l3.54,1.23c2.83,0,5.76.06,8.69.13a32.56,32.56,0,0,1,7.26.56,19.38,19.38,0,0,0,4,.21c4.75.08,9.49.11,14.24.23A56.11,56.11,0,0,0-87.72,30,56,56,0,0,0-81,28.74c2.16-.47,4.63-.49,6.66-1.25a64.32,64.32,0,0,1,7.75-1.69l6.47-2.62,5.44.07a45.78,45.78,0,0,0,11.31-3c1,.14,1.94.2,2.7.39a12.92,12.92,0,0,0,5.22.31c2.92-.7,6.21-.17,9.13-.76a18.78,18.78,0,0,1,7.2.12,13.08,13.08,0,0,0,5.14,0,10.69,10.69,0,0,1,3.88.05c2.2.67,4.84.35,7.1,1a26.24,26.24,0,0,0,5.31.24l24,.35c4.4,2.1,10.83,3.18,14.9,5.47,5.48.56,11.07-.27,16.26,1l4.4-.55c1.28.21,2.51.49,3.81.6s2.69.06,3.95.08a10.24,10.24,0,0,1,4.66-1.69l7.25.1,5.33-1.13a28.22,28.22,0,0,0,9.43-1.11c2.91,0,6.09,0,9.22.16a37.08,37.08,0,0,0,9.14-.63,28,28,0,0,1,9.78-.08,39.88,39.88,0,0,0,6,.4l5.18-1A48,48,0,0,1,149,24.82l3.48-.48c4.08.31,6.46,1.91,10.72,2.53l10.22.15,5.66,1.3c3.77-.15,7.86.54,11.75-.33a18.88,18.88,0,0,1,3.34-.11,42.2,42.2,0,0,0,7.95-.32,11.33,11.33,0,0,1,4,.05c3.26.72,6.64.47,10,.59,1.58.06,3.16.05,4.74.07a41.67,41.67,0,0,0,8.59-.35,26.74,26.74,0,0,1,4.38-.1l3.24-1c2.43.07,5.12-.2,7.86.43a74,74,0,0,0,12.12-3l7.41-.67a5.09,5.09,0,0,1,1.24.23,31.62,31.62,0,0,0,9.69,2.62c3.6.53,7.07,1.26,10.58,1.91s7,1.35,10.47,2.09c2.75.38,5.87-.07,8.63.9,5.29-1.13,10.27-.08,15.62.88,3.1-.35,6.51-1.11,10,.08l5.73-1,8,1.81,11.45.16L361.48,31l3.8-.12,3.33-1.07,14,.2,2.81-.92c2.65-.28,4.77-.55,6.93-.71,1.95-.15,3.9-.07,5.9-.4,2.4-.39,5.35,0,7.76-.64a31.47,31.47,0,0,1,11.25,1.85c3.35.33,7.07-.05,10.42.78a10.75,10.75,0,0,0,2,.08c2.9,0,5.78-.1,8.55.63a22.64,22.64,0,0,0,4.26.11,28.26,28.26,0,0,1,8.78-1.7c2.68,0,4.89-.84,7.48-1.16a32.59,32.59,0,0,1,7.44-.21l2.7,1.64a14.26,14.26,0,0,0,2,0c1.47-.19,2.89-.45,5-.79,1-.34,2.49-1,4.18-1.41s2.19-1.46,3.92-1.93c.56-.15.92-.44,1.48-.6,1.84-.52,3.73-1,5.48-1.47a4,4,0,0,1,2.69.93c1,.89,1.41,1.93,3.77,2.63l11.21.16,7.89,2.52,4.66.19,3.19,1.11c3.85.34,8.07-.21,11.9.91a61.32,61.32,0,0,1,16.17-.91c3.16.84,7.11,1.56,10.65,2.69a39.5,39.5,0,0,0,6.94,1,12,12,0,0,0,3.92-.22c1.94-.47,4.33-.1,6.4-.69a13,13,0,0,1,5.22.2c1.42.27,3,.38,5.22.64l3.57,1.45,3.33.46c3,1.4,6.67,2.64,8.43,4.69.25,1.49-.41,3.12,1.38,4.62l4.85,4.08a22.58,22.58,0,0,0,7,2.09,43.56,43.56,0,0,1,6.33,1.76c1.45,1.09,2.94,2.21,4.66,3.52,0,.9,0,2,0,3.1,0,.4.26.88-.13,1.18-2,1.48-1.19,3.12-1.27,4.7-.16,3.4-.13,6.81-.18,10.32l-4,3.48c0,1.76-.08,3.66-.07,5.56,0,.89-.41,1.82.95,2.63l.11,4.49c-2,1.56-1.17,3.31-1.35,5a17.63,17.63,0,0,0,0,2.41,3,3,0,0,0,1,2.63c.67.58.36,1.38.52,2.2.78,1,2.85,2,2.47,3.25a3,3,0,0,1,1.18,3.51c-.39,1.26,1.56,2.32,1.24,3.52s-1.31,2.32-1.17,3.48c.22,1.75-1.44,3.28-1.79,5-1.88,1.15-1.14,2.51-1.18,3.78s-.41,2.33.86,3.54c1.11,1.05,1,2.31,1.53,3.48.68,1.45.12,3,.1,4.63l-2.64,2.33c0,.74,0,1.54,0,2.34a13.78,13.78,0,0,1-.24,3.9,23.76,23.76,0,0,1-2.21,3.68,4.37,4.37,0,0,0-.38,1.48c-.18,1.18.14,2.37-1.16,3.5-.66.57-.11,1.34.37,2.05s1,1.7.35,2.32c-1.38,1.35-.92,2.74-1.09,4.11a38.57,38.57,0,0,0-.08,3.87c1.22.59,2.41,1.08,3.35,1.64s2.6,1.32,2.8,2c.52,1.92,3.48,3.42,4.34,5.23l-1.38,2.21,4.16,3.14a4.14,4.14,0,0,1-1.37,4.14,19.28,19.28,0,0,1-2.94,2.27c-1.22.8-1.46,1.61-.74,2.54,1.34,1.75,1.67,3.5,0,5.23a1.79,1.79,0,0,0-.41,1.16,4.79,4.79,0,0,1-1.08,3.21c-.72.77-.28,1.78-.3,2.68a5.25,5.25,0,0,1-1.49,3.76c-1.87,2-1.76,4-.54,6.11a10.41,10.41,0,0,0,3,3.78,6,6,0,0,0,1.64,4.55c1.53,1.6,1.32,3.11.26,4.65a2.13,2.13,0,0,0,0,2.92,2.12,2.12,0,0,1-.07,3.18,2.71,2.71,0,0,0-.64,1.75c-.09,2-1.22,3.89-3.14,5.67-.29.27-.87.54-.82.8.38,1.74-2.23,3.22-1.65,4.84-1.79,1.61-3.15,3.21-6.24,4.11-1.51,1.8-2.29,3.52-2.1,5.34,0,.47-.64.94-.77,1.42-.22.78-.88,1.69-.24,2.34,1.19,1.19,1,2.34,1,3.55-3.77,2.8-5.3,5.79-3.32,9.29l-2.28,2.16a48.73,48.73,0,0,0,0,6.06,8.93,8.93,0,0,1-1.92,6.73c-.45.58.54,1.12-.41,1.63s.12.93.55,1.39a.82.82,0,0,1,.22.58c-.21,3.23,2.1,6.29,4.24,9.31,1.59,2.24,2.83,4.4,2.38,6.71a6,6,0,0,0,0,1.2l2.61,2.37c-.23,1,.57,2.18-.86,3.31-.85.67-.19,1.35.76,2.05-.57.86-1.85,1.71-.43,2.77.62.46.33,1.16.42,1.76.26,1.77-.8,3.59,1.24,5.3-.23,2.21.81,4.33,2.47,6.43.43.54.16,1.19.16,1.79,0,2,0,4-.08,6l2.61,2.56c.22,1.21-.39,2.54,1.33,3.73-.11,1.28.46,2.54-.84,3.82s-1,2.56.07,3.8a2.71,2.71,0,0,1,.7,2,36.42,36.42,0,0,0,0,3.91,9.29,9.29,0,0,0,.95,2.32l-2.23,1.41c-.62,1.45.55,3-1.72,4.43,1.77,1.79,1.58,3.68,1.49,5.56a7.23,7.23,0,0,0,0,2.41,4.39,4.39,0,0,0,1.48,2.27,2.77,2.77,0,0,1,1,2.63c0,1.7,0,3.41-.07,4.86,1,1.74,4.53,2.49,5.58,4s2.4,2.79,3.84,4.44c0,2.33,0,4.93-.14,7.54,0,.47-.61.94-.77,1.42A11,11,0,0,0,635,405c-.1,1.1-.06,2.2-.07,3-.68,1.88-4.71,2.76-4.26,4.54-1.92,1.35-.94,2.91-1.42,4.36l-3.88,3.44c2.18,2,.88,4.14,1.11,6.36-2.28,1-4.82,1.95-7,3s-4.59,1.82-6.92,2.7a49.42,49.42,0,0,1-7.09,1.51c-1,.19-2.08.32-3.75.58-4.65-.13-10.12.17-15.27-1.32a28.69,28.69,0,0,1-3,1,15.51,15.51,0,0,1-7.63.22c-2.35-.59-5.47,0-7.68-.94l-8-.11-5.61-1.23-2.14.34L548.78,431l-5.6.36c-6.15-1.27-12.23-2.14-16.29-4.45l-5.56-.08-1.12,1.49-2,0-.5-1.8-4.39-1.49-3,.32-.79-2.05c-1.28-.61-2.18-.09-3.2,0a10.12,10.12,0,0,0-1.31-1c-1.12-.64-2.35-1.24-3.43-1.8l-2.39.47c-2.16-.2-1.78-1.93-4.79-1.72-1.57.45.44,1-.17,1.62l-4.71-.64c-.51.2-1.11.32-1.1.44.11,1.22-1.65,1.75-4,2.21-.07.33-.15.71-.23,1.06l2.25,1.32a3.94,3.94,0,0,1-1,.62,8.37,8.37,0,0,1-1.79.34,88.38,88.38,0,0,0-12.87,2.23,25.44,25.44,0,0,0-3.75,1.18,16.28,16.28,0,0,1-5.6,1.26c-.34.51-.58.88-.92,1.43l-2.92.32-1.7,1c-1.28-.07-2.65-.05-3.9-.22-2.77-.38-5.47-.86-8.2-1.3a9.89,9.89,0,0,0-2.39-.33c-1.56.58-2.93-.32-4.44,0a17.52,17.52,0,0,1-3.85.37c-4.93-.22-9.15.63-13.51,1.41l-1.78-.33c-1.78,0-2.51.76-4.35,1l-8.7-1a16.35,16.35,0,0,1-4.09,1.6c-2,.4-3.69,1.13-3.69,2.29-2.52,1.16-5.86,1.64-9.2,2.12-.83.12-1.77.13-2.55.29a18.77,18.77,0,0,1-3.43.82c-3.11,0-5.92.75-9.18.55s-6.32-.13-9.48-.1c-1.29,0-2.57.21-4.15.36-2.41-.35-5.17-.73-7.91-1.14-1.58-.23-2.77.4-4.49.22a21.1,21.1,0,0,0-4.55.59c-1.58-.1-1.8-.9-2.83-1.57l-2.25.36a12,12,0,0,1-4.55-.12c-2.22-.5-4.42-1-7.06-1.63-4.81.15-9.91-1.74-15-.28l-2.77-.57a26,26,0,0,1-5.77.49c-2.71-.07-5.43,0-8.13-.11a22.14,22.14,0,0,0-5.14.47c-2-.21-3.91-.54-5.86-.59s-3.82.19-5.8.3l-1.08-1.4a10.06,10.06,0,0,0-4.56-.07,17.07,17.07,0,0,1-3.93.26c-1.8,0-3.64-.11-5.41,0-1.49.08-2.9.38-4.53.6a11.54,11.54,0,0,0-2.89-1.66,10.68,10.68,0,0,1-3.45-1.55l-8.54-.12-8.19-.12-2.52.52a7.09,7.09,0,0,0-1.7-.27,45.33,45.33,0,0,1-6.51.26c-3.07.9-6.57.34-10.14.47a9.67,9.67,0,0,1-1.75,1.76,19,19,0,0,1-3,1.22l-8.85-1.39-1.78,1.13-3.07-.63c-2.54,0-5.25-.1-8-.11s-5.45-.39-7.84.43a37.45,37.45,0,0,0-7.06.73c-2.42.43-5.06.65-7.64.88a34,34,0,0,1-8.11-1.25c-.74-.22-1.47-.47-2.24-.67s-1.6-.37-2.32-.53l-2.52.22-1.16-.78a5.79,5.79,0,0,0-1.25-.16c-2.54.29-5.07.62-7.92,1l-3.11-1.09c-2.71-.1-5.63-.47-8.32.31-4.89-.08-9.85.45-14.63-.59a41.78,41.78,0,0,0-4.67-.39l-4.13-2.3-.38-.92a10.1,10.1,0,0,0-1.36-.26c-3.84-.07-7.68-.12-11.78-.18L83.91,429c-2.66,0-5.9-.45-9.25.29-1.63.36-4,.1-6.07.13-1.71.39-3.48.73-5.14,1.26a15.21,15.21,0,0,1-8.74.46,55.64,55.64,0,0,0-6.53-.79c-1.28.19-2.68.66-4.23-.08l-3.24.8c.13.25.08.51.35.61.85.32,1.9.55,2.71.88.42.18.49.52.72.78a13.66,13.66,0,0,1-4,.41l-5-1.53-1.94-1.49-7.16-.11c-3-.59-5-1.13-7.11-1.38s-3.22-1.51-5.9-1.35a6.11,6.11,0,0,1-1.65-.47,25.61,25.61,0,0,0-4-1.09,28.78,28.78,0,0,1-11-3.4c-1.44,0-2.81,0-4.09-.08s-2.51-.42-3.79-.64c-5.65.45-11.25,1-15.68,2.75l-12-.17c-4.14.31-6.48,1.89-10.26,2.24s-6.52,1.63-11.11,2.22l-3.92,0L-72,430.93c-1.91.19-4.15-.06-6.36.38a24,24,0,0,1-5.32.06,25.73,25.73,0,0,0-6.19.49l-2.19-.4c-.5.87-.48,1.87-3.33,2.2-1.31-.18-3-.47-4.71-.62s-3.47-.35-5.19-.54a45.56,45.56,0,0,0-11.31-.09,28.39,28.39,0,0,1-9.87-.32,29.11,29.11,0,0,1-8.45.4,35,35,0,0,0-8.52.48,38.65,38.65,0,0,1-8.52.49c-3.38-.06-6.76-.09-10.51-.15-.61.41-1.25.91-2,1.36s-1.49.67-2,.9c-2.85,0-2.74-1.13-4-1.62l-1.64,1.07c-3.94-.65-8.19-.85-11.81-1.88l-2,.42-4.51-1-4,.37-3.94-1.61c-2.74-.45-5.35-.77-7.72-1.3s-4.53-.88-6.85-1.24c-2.53-.39-5.11-.7-7.95-1.08l-4.22.81,1.06,1.75-1.89.38-2.89-1.72a8.56,8.56,0,0,0-1.12-.16c-2.71-.05-5.42-.12-8.12-.11a22.48,22.48,0,0,1-6.56-.79c-.58.45-.95.79-1.42,1.09a15.76,15.76,0,0,1-1.42.7l-2.61.1-2,1c-2,0-2.56-.87-4.32-1.14l-8-.11-5.73-1.3-5.33-.08-5.06-1.19-3.91-.17-9.88-1.84-3.72.53c-4.4-1.35-10-1.31-14.53-2.23-4.9-1.26-6-3.39-7.34-5.37a2.67,2.67,0,0,1,.25-3.24,4.76,4.76,0,0,0,.84-3l-2.53-1.49,0-1.82a20.18,20.18,0,0,1,1.91-1.75c1-.74,1.2-1.54.41-2.27a6.21,6.21,0,0,1-2.18-5.82,22.54,22.54,0,0,0,.05-2.44l1.3-1,0-2c-1.62-.94-1.74-2.5-5.1-3.33-.48-.84-.3-1.86-1.53-2.75a35.9,35.9,0,0,1-2.75-2.41l2.59-.92c.36-.86-1.67-1.15-2.35-2,.22-1.26-1.1-2.79,1-4.14-.36-.58-1-1.15-1-1.72s1-1.4.5-2,.19-1.13.58-1.66c-.38-1.49-4-2.56-2.32-4.15l-3.91-1.29c0-.51-.3-1.14.11-1.65s1.46-1.16.81-1.69c-1-.82-.34-1.45-.05-2.23.46-1.24.84-2.58-.52-4l2.27-2.13c0-1.3-.52-2.82,1.23-4.19.29-.23.2-.6.06-.89a12.76,12.76,0,0,0-1.1-1.54l2.81-2.41c-.18-.63-.4-1.42-.63-2.21-.05-.18-.38-.39-.25-.53,1.83-1.92.39-4,.7-5.94a40.06,40.06,0,0,0,.14-5.69c-1.19-.72-3.54-.89-4-2a13.34,13.34,0,0,0-2.1-2.61c.4-.53,1.28-.88,2.85-.84.88,0,1.76,0,2.76,0a12.94,12.94,0,0,1-.61-1.73,7.48,7.48,0,0,1,0-1.42l-4.09-2.05c0-.38-.27-.91.08-1.34a25.84,25.84,0,0,1,2.65-2.46l.05-3.55,4-3.43c.09-.49.17-1,.27-1.52l2.59-1.39.08-5.56,4.51-3.08c-.53-.53-1-1-1.41-1.43s-.64-.75-1-1.2c.09-.46,1.25-1,.16-1.56s.68-1.18.08-1.63c-1-.73-.37-1.81-2.84-2.26-.77-.14-1.05-.84-1.5-1.24l3.44-2.42-6.36-3.07.06-4.17,2.43-.71a8.67,8.67,0,0,1-1.06-1.62,6.77,6.77,0,0,1-.19-1.79l-2.52-.82c.27-1.23-1.47-2.35-2.16-3.56-.77-1.37-4.09-1.88-4.73-3.23,0-1.1.07-2.2,0-3.3,0-.49.1-1-.34-1.47-1.23-1.19-1.31-2.29,0-3.44.87-.74.58-1.54-.26-2.3l-1.94-1.73c.07-2.16-.58-4.47,1.67-6.63l-2.61-1.53c-.1-.18-.3-.37-.3-.57,0-1.3.06-2.6.13-3.9a2.29,2.29,0,0,0-.89-2c-1.18-1-.83-2.14.58-3.11l-1-.73.15-10.6,3.78-1.83-2.48-1.51c.12-.48-.15-1.18.49-1.61,1.39-1,.13-2.26,2.17-3.07.06-1.18.83-2.36-.84-3.52-.54-.37-.3-1-.42-1.48l2.77-1.63c-.76-1.26-1.49-2.49-2.32-3.88,1.85-1.32,1.57-2.84-.3-4.33l1.55-1.82a7.8,7.8,0,0,1-.74-1c-.25-.48-.85-1.05-.51-1.44,2-2.19.91-4.53,1.45-6.78a1.42,1.42,0,0,1,.14-.32l2.26-1.36c.74-2.11-.86-4.28,1.68-6.25-1.74-.78-4.6-1.16-4.21-2.54,0-.13-.49-.36-.85-.42-2-.36-2.12-1.22-2.8-1.91l1.17-1.32-1.3-1,2.37-2.19-4.95-4.1a1.51,1.51,0,0,1,.64-1.69,2.08,2.08,0,0,0,.33-3.2,4.28,4.28,0,0,1-.92-2.64,4.93,4.93,0,0,0-.95-2.94c-1.38-1.69.36-3.3,1.48-4.89.2-.27.92-.53.86-.77-.47-1.73,1.3-3.29,1.52-5,.19-1.46,1.17-2.89,1.83-4.33.22-.48.86-1,.77-1.42-.33-1.55,1.75-2.86,1.71-4.36,2-1.4,1.49-2.84-.17-4.2,1-1.39,1.49-2.79,4.14-3.76-.46-1.73.8-3.3,2-4.89a11.54,11.54,0,0,0,1.57-3.14c.34-.87.42-1.77.7-2.65s1.48-1.6,1.4-2.56c-.14-1.48-.52-3,1.22-4.38.48-.39.18-1,.18-1.48,0-2.31-.16-4.62.08-6.92.18-1.76-.79-3.62,1.34-5.27-.09-1.19.13-2.41-.4-3.57a6.09,6.09,0,0,1-.68-2.06c-.08-1.4-.1-2.8-.14-4.21-2-1.2-.31-2.8-2.33-4C-327,85.17-329.67,83.61-329,81.9Z"/></svg>