<?xml version="1.0" encoding="utf-8"?>
<!-- Generator: Adobe Illustrator 25.3.1, SVG Export Plug-In . SVG Version: 6.00 Build 0)  -->
<svg version="1.1" xmlns="http://www.w3.org/2000/svg" xmlns:xlink="http://www.w3.org/1999/xlink" x="0px" y="0px"
	 viewBox="0 0 1080 1122.1" style="enable-background:new 0 0 1080 1122.1;" xml:space="preserve">
<style type="text/css">
	.st0{clip-path:url(#SVGID_2_);}
	.st1{clip-path:url(#SVGID_4_);}
	.st2{fill:#4A79BC;}
	.st3{fill:none;stroke:#8AAFDC;stroke-width:0.3682;stroke-miterlimit:10;}
	.st4{fill:none;stroke:#8AAFDC;stroke-width:1.1157;stroke-miterlimit:10;}
	.st5{fill:#FFFFFF;}
	.st6{fill:#FFE183;}
	.st7{fill:#FCB913;}
	.st8{font-family:'GoogleSans-Regular';}
	.st9{font-size:34.6603px;}
	.st10{fill:none;}
</style>
<g id="Layer_1">
</g>
<g id="Layer_2">
	<g>
		<defs>
			<rect id="SVGID_1_" x="-178" y="779.7" width="649.1" height="342.4"/>
		</defs>
		<clipPath id="SVGID_2_">
			<use xlink:href="#SVGID_1_"  style="overflow:visible;"/>
		</clipPath>
		<g class="st0">
			<g>
				<defs>
					<rect id="SVGID_3_" x="-384.5" y="661.1" width="1062.1" height="597.4"/>
				</defs>
				<use xlink:href="#SVGID_3_"  style="overflow:visible;fill:#4A79BC;"/>
				<clipPath id="SVGID_4_">
					<use xlink:href="#SVGID_3_"  style="overflow:visible;"/>
				</clipPath>
				<g class="st1">
					<g>
						<rect x="-52.6" y="661.1" class="st2" width="199.1" height="199.1"/>
						<g>
							<line class="st3" x1="-52.6" y1="679.2" x2="146.5" y2="679.2"/>
							<line class="st3" x1="-52.6" y1="697.3" x2="146.5" y2="697.3"/>
							<line class="st3" x1="-52.6" y1="661.1" x2="146.5" y2="661.1"/>
							<line class="st3" x1="-52.6" y1="715.4" x2="146.5" y2="715.4"/>
							<line class="st3" x1="-52.6" y1="733.5" x2="146.5" y2="733.5"/>
							<line class="st3" x1="-52.6" y1="751.6" x2="146.5" y2="751.6"/>
							<line class="st3" x1="-52.6" y1="769.7" x2="146.5" y2="769.7"/>
							<line class="st3" x1="1.7" y1="661.1" x2="1.7" y2="860.3"/>
							<line class="st3" x1="19.8" y1="661.1" x2="19.8" y2="860.3"/>
							<line class="st3" x1="37.9" y1="661.1" x2="37.9" y2="860.3"/>
							<line class="st3" x1="56" y1="661.1" x2="56" y2="860.3"/>
							<line class="st3" x1="74.1" y1="661.1" x2="74.1" y2="860.3"/>
							<line class="st3" x1="92.2" y1="661.1" x2="92.2" y2="860.3"/>
							<line class="st3" x1="110.3" y1="661.1" x2="110.3" y2="860.3"/>
							<line class="st3" x1="128.4" y1="661.1" x2="128.4" y2="860.3"/>
							<line class="st3" x1="146.5" y1="661.1" x2="146.5" y2="860.3"/>
							<line class="st3" x1="-52.6" y1="787.8" x2="146.5" y2="787.8"/>
							<line class="st3" x1="-52.6" y1="806" x2="146.5" y2="806"/>
							<line class="st3" x1="-52.6" y1="824.1" x2="146.5" y2="824.1"/>
							<line class="st3" x1="-52.6" y1="842.2" x2="146.5" y2="842.2"/>
							<line class="st3" x1="-52.6" y1="860.3" x2="146.5" y2="860.3"/>
						</g>
						<rect x="-52.6" y="860.3" class="st2" width="199.1" height="199.1"/>
						<g>
							<line class="st3" x1="-52.6" y1="878.4" x2="146.5" y2="878.4"/>
							<line class="st3" x1="-52.6" y1="896.5" x2="146.5" y2="896.5"/>
							<line class="st3" x1="-52.6" y1="860.3" x2="146.5" y2="860.3"/>
							<line class="st3" x1="-52.6" y1="914.6" x2="146.5" y2="914.6"/>
							<line class="st3" x1="-52.6" y1="932.7" x2="146.5" y2="932.7"/>
							<line class="st3" x1="-52.6" y1="950.8" x2="146.5" y2="950.8"/>
							<line class="st3" x1="-52.6" y1="968.9" x2="146.5" y2="968.9"/>
							<line class="st3" x1="1.7" y1="860.3" x2="1.7" y2="1059.4"/>
							<line class="st3" x1="19.8" y1="860.3" x2="19.8" y2="1059.4"/>
							<line class="st3" x1="37.9" y1="860.3" x2="37.9" y2="1059.4"/>
							<line class="st3" x1="56" y1="860.3" x2="56" y2="1059.4"/>
							<line class="st3" x1="74.1" y1="860.3" x2="74.1" y2="1059.4"/>
							<line class="st3" x1="92.2" y1="860.3" x2="92.2" y2="1059.4"/>
							<line class="st3" x1="110.3" y1="860.3" x2="110.3" y2="1059.4"/>
							<line class="st3" x1="128.4" y1="860.3" x2="128.4" y2="1059.4"/>
							<line class="st3" x1="146.5" y1="860.3" x2="146.5" y2="1059.4"/>
							<line class="st3" x1="-52.6" y1="987" x2="146.5" y2="987"/>
							<line class="st3" x1="-52.6" y1="1005.1" x2="146.5" y2="1005.1"/>
							<line class="st3" x1="-52.6" y1="1023.2" x2="146.5" y2="1023.2"/>
							<line class="st3" x1="-52.6" y1="1041.3" x2="146.5" y2="1041.3"/>
							<line class="st3" x1="-52.6" y1="1059.4" x2="146.5" y2="1059.4"/>
						</g>
						<rect x="-52.6" y="1059.4" class="st2" width="199.1" height="199.1"/>
						<g>
							<line class="st3" x1="-52.6" y1="1077.5" x2="146.5" y2="1077.5"/>
							<line class="st3" x1="-52.6" y1="1095.6" x2="146.5" y2="1095.6"/>
							<line class="st3" x1="-52.6" y1="1059.4" x2="146.5" y2="1059.4"/>
							<line class="st3" x1="-52.6" y1="1113.7" x2="146.5" y2="1113.7"/>
							<line class="st3" x1="1.7" y1="1059.4" x2="1.7" y2="1258.6"/>
							<line class="st3" x1="19.8" y1="1059.4" x2="19.8" y2="1258.6"/>
							<line class="st3" x1="37.9" y1="1059.4" x2="37.9" y2="1258.6"/>
							<line class="st3" x1="56" y1="1059.4" x2="56" y2="1258.6"/>
							<line class="st3" x1="74.1" y1="1059.4" x2="74.1" y2="1258.6"/>
							<line class="st3" x1="92.2" y1="1059.4" x2="92.2" y2="1258.6"/>
							<line class="st3" x1="110.3" y1="1059.4" x2="110.3" y2="1258.6"/>
							<line class="st3" x1="128.4" y1="1059.4" x2="128.4" y2="1258.6"/>
							<line class="st3" x1="146.5" y1="1059.4" x2="146.5" y2="1258.6"/>
						</g>
					</g>
					<rect x="345.7" y="661.1" class="st2" width="199.1" height="199.1"/>
					<g>
						<line class="st3" x1="345.7" y1="661.1" x2="345.7" y2="860.3"/>
						<line class="st3" x1="345.7" y1="679.2" x2="544.8" y2="679.2"/>
						<line class="st3" x1="345.7" y1="697.3" x2="544.8" y2="697.3"/>
						<line class="st3" x1="345.7" y1="661.1" x2="544.8" y2="661.1"/>
						<line class="st3" x1="345.7" y1="715.4" x2="544.8" y2="715.4"/>
						<line class="st3" x1="345.7" y1="733.5" x2="544.8" y2="733.5"/>
						<line class="st3" x1="345.7" y1="751.6" x2="544.8" y2="751.6"/>
						<line class="st3" x1="345.7" y1="769.7" x2="544.8" y2="769.7"/>
						<line class="st3" x1="363.8" y1="661.1" x2="363.8" y2="860.3"/>
						<line class="st3" x1="381.9" y1="661.1" x2="381.9" y2="860.3"/>
						<line class="st3" x1="400" y1="661.1" x2="400" y2="860.3"/>
						<line class="st3" x1="418.1" y1="661.1" x2="418.1" y2="860.3"/>
						<line class="st3" x1="436.2" y1="661.1" x2="436.2" y2="860.3"/>
						<line class="st3" x1="454.3" y1="661.1" x2="454.3" y2="860.3"/>
						<line class="st3" x1="472.4" y1="661.1" x2="472.4" y2="860.3"/>
						<line class="st3" x1="490.5" y1="661.1" x2="490.5" y2="860.3"/>
						<line class="st3" x1="508.6" y1="661.1" x2="508.6" y2="860.3"/>
						<line class="st3" x1="526.7" y1="661.1" x2="526.7" y2="860.3"/>
						<line class="st3" x1="544.8" y1="661.1" x2="544.8" y2="860.3"/>
						<line class="st3" x1="345.7" y1="787.8" x2="544.8" y2="787.8"/>
						<line class="st3" x1="345.7" y1="806" x2="544.8" y2="806"/>
						<line class="st3" x1="345.7" y1="824.1" x2="544.8" y2="824.1"/>
						<line class="st3" x1="345.7" y1="842.2" x2="544.8" y2="842.2"/>
						<line class="st3" x1="345.7" y1="860.3" x2="544.8" y2="860.3"/>
					</g>
					<rect x="544.8" y="661.1" class="st2" width="199.1" height="199.1"/>
					<g>
						<line class="st3" x1="544.8" y1="661.1" x2="544.8" y2="860.3"/>
						<line class="st3" x1="544.8" y1="679.2" x2="744" y2="679.2"/>
						<line class="st3" x1="544.8" y1="697.3" x2="744" y2="697.3"/>
						<line class="st3" x1="544.8" y1="661.1" x2="744" y2="661.1"/>
						<line class="st3" x1="544.8" y1="715.4" x2="744" y2="715.4"/>
						<line class="st3" x1="544.8" y1="733.5" x2="744" y2="733.5"/>
						<line class="st3" x1="544.8" y1="751.6" x2="744" y2="751.6"/>
						<line class="st3" x1="544.8" y1="769.7" x2="744" y2="769.7"/>
						<line class="st3" x1="562.9" y1="661.1" x2="562.9" y2="860.3"/>
						<line class="st3" x1="581" y1="661.1" x2="581" y2="860.3"/>
						<line class="st3" x1="599.1" y1="661.1" x2="599.1" y2="860.3"/>
						<line class="st3" x1="617.2" y1="661.1" x2="617.2" y2="860.3"/>
						<line class="st3" x1="635.4" y1="661.1" x2="635.4" y2="860.3"/>
						<line class="st3" x1="653.5" y1="661.1" x2="653.5" y2="860.3"/>
						<line class="st3" x1="671.6" y1="661.1" x2="671.6" y2="860.3"/>
						<line class="st3" x1="689.7" y1="661.1" x2="689.7" y2="860.3"/>
						<line class="st3" x1="707.8" y1="661.1" x2="707.8" y2="860.3"/>
						<line class="st3" x1="725.9" y1="661.1" x2="725.9" y2="860.3"/>
						<line class="st3" x1="744" y1="661.1" x2="744" y2="860.3"/>
						<line class="st3" x1="544.8" y1="787.8" x2="744" y2="787.8"/>
						<line class="st3" x1="544.8" y1="806" x2="744" y2="806"/>
						<line class="st3" x1="544.8" y1="824.1" x2="744" y2="824.1"/>
						<line class="st3" x1="544.8" y1="842.2" x2="744" y2="842.2"/>
						<line class="st3" x1="544.8" y1="860.3" x2="744" y2="860.3"/>
					</g>
					<rect x="345.7" y="860.3" class="st2" width="199.1" height="199.1"/>
					<g>
						<line class="st3" x1="345.7" y1="860.3" x2="345.7" y2="1059.4"/>
						<line class="st3" x1="345.7" y1="878.4" x2="544.8" y2="878.4"/>
						<line class="st3" x1="345.7" y1="896.5" x2="544.8" y2="896.5"/>
						<line class="st3" x1="345.7" y1="860.3" x2="544.8" y2="860.3"/>
						<line class="st3" x1="345.7" y1="914.6" x2="544.8" y2="914.6"/>
						<line class="st3" x1="345.7" y1="932.7" x2="544.8" y2="932.7"/>
						<line class="st3" x1="345.7" y1="950.8" x2="544.8" y2="950.8"/>
						<line class="st3" x1="345.7" y1="968.9" x2="544.8" y2="968.9"/>
						<line class="st3" x1="363.8" y1="860.3" x2="363.8" y2="1059.4"/>
						<line class="st3" x1="381.9" y1="860.3" x2="381.9" y2="1059.4"/>
						<line class="st3" x1="400" y1="860.3" x2="400" y2="1059.4"/>
						<line class="st3" x1="418.1" y1="860.3" x2="418.1" y2="1059.4"/>
						<line class="st3" x1="436.2" y1="860.3" x2="436.2" y2="1059.4"/>
						<line class="st3" x1="454.3" y1="860.3" x2="454.3" y2="1059.4"/>
						<line class="st3" x1="472.4" y1="860.3" x2="472.4" y2="1059.4"/>
						<line class="st3" x1="490.5" y1="860.3" x2="490.5" y2="1059.4"/>
						<line class="st3" x1="508.6" y1="860.3" x2="508.6" y2="1059.4"/>
						<line class="st3" x1="526.7" y1="860.3" x2="526.7" y2="1059.4"/>
						<line class="st3" x1="544.8" y1="860.3" x2="544.8" y2="1059.4"/>
						<line class="st3" x1="345.7" y1="987" x2="544.8" y2="987"/>
						<line class="st3" x1="345.7" y1="1005.1" x2="544.8" y2="1005.1"/>
						<line class="st3" x1="345.7" y1="1023.2" x2="544.8" y2="1023.2"/>
						<line class="st3" x1="345.7" y1="1041.3" x2="544.8" y2="1041.3"/>
						<line class="st3" x1="345.7" y1="1059.4" x2="544.8" y2="1059.4"/>
					</g>
					<rect x="146.5" y="661.1" class="st2" width="199.1" height="199.1"/>
					<g>
						<line class="st3" x1="146.5" y1="661.1" x2="146.5" y2="860.3"/>
						<line class="st3" x1="146.5" y1="679.2" x2="345.7" y2="679.2"/>
						<line class="st3" x1="146.5" y1="697.3" x2="345.7" y2="697.3"/>
						<line class="st3" x1="146.5" y1="661.1" x2="345.7" y2="661.1"/>
						<line class="st3" x1="146.5" y1="715.4" x2="345.7" y2="715.4"/>
						<line class="st3" x1="146.5" y1="733.5" x2="345.7" y2="733.5"/>
						<line class="st3" x1="146.5" y1="751.6" x2="345.7" y2="751.6"/>
						<line class="st3" x1="146.5" y1="769.7" x2="345.7" y2="769.7"/>
						<line class="st3" x1="164.6" y1="661.1" x2="164.6" y2="860.3"/>
						<line class="st3" x1="182.7" y1="661.1" x2="182.7" y2="860.3"/>
						<line class="st3" x1="200.8" y1="661.1" x2="200.8" y2="860.3"/>
						<line class="st3" x1="218.9" y1="661.1" x2="218.9" y2="860.3"/>
						<line class="st3" x1="237.1" y1="661.1" x2="237.1" y2="860.3"/>
						<line class="st3" x1="255.2" y1="661.1" x2="255.2" y2="860.3"/>
						<line class="st3" x1="273.3" y1="661.1" x2="273.3" y2="860.3"/>
						<line class="st3" x1="291.4" y1="661.1" x2="291.4" y2="860.3"/>
						<line class="st3" x1="309.5" y1="661.1" x2="309.5" y2="860.3"/>
						<line class="st3" x1="327.6" y1="661.1" x2="327.6" y2="860.3"/>
						<line class="st3" x1="345.7" y1="661.1" x2="345.7" y2="860.3"/>
						<line class="st3" x1="146.5" y1="787.8" x2="345.7" y2="787.8"/>
						<line class="st3" x1="146.5" y1="806" x2="345.7" y2="806"/>
						<line class="st3" x1="146.5" y1="824.1" x2="345.7" y2="824.1"/>
						<line class="st3" x1="146.5" y1="842.2" x2="345.7" y2="842.2"/>
						<line class="st3" x1="146.5" y1="860.3" x2="345.7" y2="860.3"/>
					</g>
					<rect x="146.5" y="860.3" class="st2" width="199.1" height="199.1"/>
					<g>
						<line class="st3" x1="146.5" y1="860.3" x2="146.5" y2="1059.4"/>
						<line class="st3" x1="146.5" y1="878.4" x2="345.7" y2="878.4"/>
						<line class="st3" x1="146.5" y1="896.5" x2="345.7" y2="896.5"/>
						<line class="st3" x1="146.5" y1="860.3" x2="345.7" y2="860.3"/>
						<line class="st3" x1="146.5" y1="914.6" x2="345.7" y2="914.6"/>
						<line class="st3" x1="146.5" y1="932.7" x2="345.7" y2="932.7"/>
						<line class="st3" x1="146.5" y1="950.8" x2="345.7" y2="950.8"/>
						<line class="st3" x1="146.5" y1="968.9" x2="345.7" y2="968.9"/>
						<line class="st3" x1="164.6" y1="860.3" x2="164.6" y2="1059.4"/>
						<line class="st3" x1="182.7" y1="860.3" x2="182.7" y2="1059.4"/>
						<line class="st3" x1="200.8" y1="860.3" x2="200.8" y2="1059.4"/>
						<line class="st3" x1="218.9" y1="860.3" x2="218.9" y2="1059.4"/>
						<line class="st3" x1="237.1" y1="860.3" x2="237.1" y2="1059.4"/>
						<line class="st3" x1="255.2" y1="860.3" x2="255.2" y2="1059.4"/>
						<line class="st3" x1="273.3" y1="860.3" x2="273.3" y2="1059.4"/>
						<line class="st3" x1="291.4" y1="860.3" x2="291.4" y2="1059.4"/>
						<line class="st3" x1="309.5" y1="860.3" x2="309.5" y2="1059.4"/>
						<line class="st3" x1="327.6" y1="860.3" x2="327.6" y2="1059.4"/>
						<line class="st3" x1="345.7" y1="860.3" x2="345.7" y2="1059.4"/>
						<line class="st3" x1="146.5" y1="987" x2="345.7" y2="987"/>
						<line class="st3" x1="146.5" y1="1005.1" x2="345.7" y2="1005.1"/>
						<line class="st3" x1="146.5" y1="1023.2" x2="345.7" y2="1023.2"/>
						<line class="st3" x1="146.5" y1="1041.3" x2="345.7" y2="1041.3"/>
						<line class="st3" x1="146.5" y1="1059.4" x2="345.7" y2="1059.4"/>
					</g>
					<rect x="544.8" y="860.3" class="st2" width="199.1" height="199.1"/>
					<g>
						<line class="st3" x1="544.8" y1="860.3" x2="544.8" y2="1059.4"/>
						<line class="st3" x1="544.8" y1="878.4" x2="744" y2="878.4"/>
						<line class="st3" x1="544.8" y1="896.5" x2="744" y2="896.5"/>
						<line class="st3" x1="544.8" y1="860.3" x2="744" y2="860.3"/>
						<line class="st3" x1="544.8" y1="914.6" x2="744" y2="914.6"/>
						<line class="st3" x1="544.8" y1="932.7" x2="744" y2="932.7"/>
						<line class="st3" x1="544.8" y1="950.8" x2="744" y2="950.8"/>
						<line class="st3" x1="544.8" y1="968.9" x2="744" y2="968.9"/>
						<line class="st3" x1="562.9" y1="860.3" x2="562.9" y2="1059.4"/>
						<line class="st3" x1="581" y1="860.3" x2="581" y2="1059.4"/>
						<line class="st3" x1="599.1" y1="860.3" x2="599.1" y2="1059.4"/>
						<line class="st3" x1="617.2" y1="860.3" x2="617.2" y2="1059.4"/>
						<line class="st3" x1="635.4" y1="860.3" x2="635.4" y2="1059.4"/>
						<line class="st3" x1="653.5" y1="860.3" x2="653.5" y2="1059.4"/>
						<line class="st3" x1="671.6" y1="860.3" x2="671.6" y2="1059.4"/>
						<line class="st3" x1="689.7" y1="860.3" x2="689.7" y2="1059.4"/>
						<line class="st3" x1="707.8" y1="860.3" x2="707.8" y2="1059.4"/>
						<line class="st3" x1="725.9" y1="860.3" x2="725.9" y2="1059.4"/>
						<line class="st3" x1="744" y1="860.3" x2="744" y2="1059.4"/>
						<line class="st3" x1="544.8" y1="987" x2="744" y2="987"/>
						<line class="st3" x1="544.8" y1="1005.1" x2="744" y2="1005.1"/>
						<line class="st3" x1="544.8" y1="1023.2" x2="744" y2="1023.2"/>
						<line class="st3" x1="544.8" y1="1041.3" x2="744" y2="1041.3"/>
						<line class="st3" x1="544.8" y1="1059.4" x2="744" y2="1059.4"/>
					</g>
					<rect x="345.7" y="1059.4" class="st2" width="199.1" height="199.1"/>
					<g>
						<line class="st3" x1="345.7" y1="1059.4" x2="345.7" y2="1258.6"/>
						<line class="st3" x1="345.7" y1="1077.5" x2="544.8" y2="1077.5"/>
						<line class="st3" x1="345.7" y1="1095.6" x2="544.8" y2="1095.6"/>
						<line class="st3" x1="345.7" y1="1059.4" x2="544.8" y2="1059.4"/>
						<line class="st3" x1="345.7" y1="1113.7" x2="544.8" y2="1113.7"/>
						<line class="st3" x1="363.8" y1="1059.4" x2="363.8" y2="1258.6"/>
						<line class="st3" x1="381.9" y1="1059.4" x2="381.9" y2="1258.6"/>
						<line class="st3" x1="400" y1="1059.4" x2="400" y2="1258.6"/>
						<line class="st3" x1="418.1" y1="1059.4" x2="418.1" y2="1258.6"/>
						<line class="st3" x1="436.2" y1="1059.4" x2="436.2" y2="1258.6"/>
						<line class="st3" x1="454.3" y1="1059.4" x2="454.3" y2="1258.6"/>
						<line class="st3" x1="472.4" y1="1059.4" x2="472.4" y2="1258.6"/>
						<line class="st3" x1="490.5" y1="1059.4" x2="490.5" y2="1258.6"/>
						<line class="st3" x1="508.6" y1="1059.4" x2="508.6" y2="1258.6"/>
						<line class="st3" x1="526.7" y1="1059.4" x2="526.7" y2="1258.6"/>
						<line class="st3" x1="544.8" y1="1059.4" x2="544.8" y2="1258.6"/>
					</g>
					<rect x="146.5" y="1059.4" class="st2" width="199.1" height="199.1"/>
					<g>
						<line class="st3" x1="146.5" y1="1059.4" x2="146.5" y2="1258.6"/>
						<line class="st3" x1="146.5" y1="1077.5" x2="345.7" y2="1077.5"/>
						<line class="st3" x1="146.5" y1="1095.6" x2="345.7" y2="1095.6"/>
						<line class="st3" x1="146.5" y1="1059.4" x2="345.7" y2="1059.4"/>
						<line class="st3" x1="146.5" y1="1113.7" x2="345.7" y2="1113.7"/>
						<line class="st3" x1="164.6" y1="1059.4" x2="164.6" y2="1258.6"/>
						<line class="st3" x1="182.7" y1="1059.4" x2="182.7" y2="1258.6"/>
						<line class="st3" x1="200.8" y1="1059.4" x2="200.8" y2="1258.6"/>
						<line class="st3" x1="218.9" y1="1059.4" x2="218.9" y2="1258.6"/>
						<line class="st3" x1="237.1" y1="1059.4" x2="237.1" y2="1258.6"/>
						<line class="st3" x1="255.2" y1="1059.4" x2="255.2" y2="1258.6"/>
						<line class="st3" x1="273.3" y1="1059.4" x2="273.3" y2="1258.6"/>
						<line class="st3" x1="291.4" y1="1059.4" x2="291.4" y2="1258.6"/>
						<line class="st3" x1="309.5" y1="1059.4" x2="309.5" y2="1258.6"/>
						<line class="st3" x1="327.6" y1="1059.4" x2="327.6" y2="1258.6"/>
						<line class="st3" x1="345.7" y1="1059.4" x2="345.7" y2="1258.6"/>
					</g>
					<rect x="544.8" y="1059.4" class="st2" width="199.1" height="199.1"/>
					<g>
						<line class="st3" x1="544.8" y1="1059.4" x2="544.8" y2="1258.6"/>
						<line class="st3" x1="544.8" y1="1077.5" x2="744" y2="1077.5"/>
						<line class="st3" x1="544.8" y1="1095.6" x2="744" y2="1095.6"/>
						<line class="st3" x1="544.8" y1="1059.4" x2="744" y2="1059.4"/>
						<line class="st3" x1="544.8" y1="1113.7" x2="744" y2="1113.7"/>
						<line class="st3" x1="562.9" y1="1059.4" x2="562.9" y2="1258.6"/>
						<line class="st3" x1="581" y1="1059.4" x2="581" y2="1258.6"/>
						<line class="st3" x1="599.1" y1="1059.4" x2="599.1" y2="1258.6"/>
						<line class="st3" x1="617.2" y1="1059.4" x2="617.2" y2="1258.6"/>
						<line class="st3" x1="635.4" y1="1059.4" x2="635.4" y2="1258.6"/>
						<line class="st3" x1="653.5" y1="1059.4" x2="653.5" y2="1258.6"/>
						<line class="st3" x1="671.6" y1="1059.4" x2="671.6" y2="1258.6"/>
						<line class="st3" x1="689.7" y1="1059.4" x2="689.7" y2="1258.6"/>
						<line class="st3" x1="707.8" y1="1059.4" x2="707.8" y2="1258.6"/>
						<line class="st3" x1="725.9" y1="1059.4" x2="725.9" y2="1258.6"/>
						<line class="st3" x1="744" y1="1059.4" x2="744" y2="1258.6"/>
					</g>
				</g>
			</g>
			<g>
				<line class="st4" x1="146.5" y1="661.1" x2="146.5" y2="1258.6"/>
				<line class="st4" x1="345.7" y1="661.1" x2="345.7" y2="1258.6"/>
				<line class="st4" x1="544.8" y1="661.1" x2="544.8" y2="1258.6"/>
				<line class="st4" x1="677.6" y1="1059.4" x2="-384.5" y2="1059.4"/>
				<line class="st4" x1="677.6" y1="860.3" x2="-384.5" y2="860.3"/>
			</g>
		</g>
	</g>
	<path class="st5" d="M258.5,988.8c-1.3-2.6-2.2-4.5-3.2-6.6c0-2.8-0.3-5.7,0.1-8.6c0.6-5.2-0.8-9.9-3.1-15c1.1-2.2,1.8-5,1.5-7.9
		c-0.4-3.7,0.3-7.3,1.6-10.8c1.1-2.7,1.6-5.5,1.6-8.4c0-1.3,0.5-2.5,0.9-4.2c-0.6-0.9-1.5-2.1-2.6-3.6c0.5-2,1.1-4.3,1.5-6.6
		c0.3-2.2-1.5-4.5,0-6.7c-3.1-4-5-8.5-4.8-13.7c0.1-2.6,0-5.3,0-8.1c0.9-1.3,1.9-2.6,3-4.1c0.3-1.5,0.5-3.3,0.9-5.1
		c0.4-1.5,1-2.9,1.7-5c0.7-0.7,1.8-1.8,2.8-3c1-1.2,1.7-2.6,2.5-3.9c4.5-3.7,10-4.3,15.2-6c3.1,0.5,5.3-2.2,8-1.8
		c2.1-3.3,3.8-6.2,5.8-9c1.8-2.6,3.9-5,5.9-7.5c-0.2-0.6-0.5-1.3-1-2.5c1.3-2.2,2.7-4.6,4.6-8c0-2.1,0-5.2,0-7.9
		c1.4-2.6,3-3.8,5.6-2.9c1.3,2.1,2.4,4.5,4,6.6c1.1,1.5,2.6,2.6,3.9,4c2.7,0,5.7,0.8,7.9-0.2c3.2-1.4,6.8-0.8,9.7-2.9
		c3.4-2.5,7.8-2.8,11.7-4.3c2.5-1,5.8-0.2,8.2-0.2c2.4-1.2,4.3-2.1,6.5-3.3c2,0,4.4,0,7,0c2.1-1.9,4.2-3.9,5.9-5.5
		c2.2-1.3,3.4,0.5,4.9,0.7c3.8,0.5,7.2-1,10.7-2.2c2.7-1,5.1-2.4,8.2-2.7c2.2-0.2,4.3-1.8,6.7-3c1.8,0,3.9,0,6,0
		c2.2,1.1,4.3,2.1,6.4,3.1c1.3-0.6,2.4-1.2,3.6-1.8c3.1-4.8,7.7-8.3,12.3-12.3c3.5-0.1,7.4-0.7,11.2,1.2c1.5,0.7,3.6,0.1,4.9,0.1
		c5.9,3.7,8.2,9.2,9.2,14.8c0.8,4.3,2.9,7.8,4.8,11.6c6.3,1.3,11.5,4.1,13.1,11.2c5,0.7,9.5,3.1,14.4,2.3c1.5,1.1,2.7,2.1,4.2,3.1
		c3.3,0,6.8-0.1,10.2,0c2.9,0.1,5.7-0.3,8.5,1.2c1.3,0.7,3.1,0.4,4.7,0.4c5.6,0,11.1-0.1,16.7,0.1c3,0.1,5.6-0.8,8.4-1.5
		c2.9-0.7,5.3-2.3,7.8-3.6c2.5-1.3,5.4-1.5,7.8-3.5c2.5-2.2,6-3.2,9.1-4.8c2.4-2.3,4.9-4.7,7.5-7.2c2.3,0,4.7,0,6.4,0
		c5.4-2,9.6-4.7,13.2-8.3c1.2,0.3,2.3,0.5,3.2,0.9c2,1,4.5,1.6,6.1,0.6c3.4-1.9,7.3-0.7,10.7-2.3c2.6-1.3,5.7-1.1,8.5,0.1
		c2.2,0.9,3.9,0.7,6-0.2c1.3-0.6,3.5-0.7,4.6,0c2.6,1.7,5.7,0.7,8.3,2.3c1.6,0.9,4.1,0.4,6.2,0.4c9.3,0,18.5,0,28.1,0
		c5.2,5.4,12.8,8,17.6,13.9c6.4,1.3,13-1.1,19.1,2.1c1.7-0.5,3.4-1.1,5.2-1.6c1.5,0.5,3,1.2,4.5,1.4c1.5,0.2,3.2,0.1,4.6,0.1
		c1.4-2.1,3-3.9,5.4-4.6c2.9,0,5.8,0,8.5,0c2.1-1.1,4-2,6.2-3.2c3.8,0.6,7.3-1.1,11-3.3c3.4,0,7.1-0.2,10.8,0.1
		c3.8,0.3,7.5-0.5,10.7-2c4-1.9,7.8-1.7,11.5-0.6c2.4,0.7,4.6,0.9,7.1,0.8c2.1-1,4.2-2,6.1-2.9c5.7-0.8,10.7,0.4,15.8,2.8
		c1.2-0.4,2.7-0.9,4.1-1.4c4.8,0.6,7.6,4.8,12.6,6.3c3.5,0,7.8,0,12,0c2.2,1.1,4.3,2.1,6.7,3.2c4.4-0.5,9.2,1.1,13.8-1.3
		c1.1-0.6,2.6-0.3,3.9-0.4c3.1-0.2,6.3,0.3,9.3-1.2c1.3-0.6,3.4-0.6,4.7,0c3.8,1.8,7.8,1,11.7,1.2c1.9,0.1,3.7,0,5.6,0
		c3.4,0,6.8,0.4,10.1-1.2c1.5-0.7,3.6-0.3,5.1-0.4c1.4-1,2.4-1.8,3.8-2.8c2.8,0.1,6-0.7,9.2,0.8c5.3-1.8,9.8-5.4,14.2-8.5
		c3.2-0.8,5.9-1.4,8.7-2.1c0.5,0.2,1.2,0.2,1.5,0.6c3.1,3.5,7,5.3,11.4,6.6c4.2,1.3,8.3,3,12.4,4.7c4.1,1.6,8.3,3.3,12.3,5.1
		c3.2,0.9,6.9-0.4,10.1,2c6.2-3.2,12.1-0.6,18.3,1.7c3.6-1.1,7.6-3.2,11.8-0.2c2.1-0.9,4.3-1.9,6.7-2.9c2.9,1.4,5.9,2.8,9.5,4.5
		c4,0,8.5,0,13.4,0c1.9-1.7,4-3.7,6.5-5.9c1.2-0.1,2.8-0.3,4.5-0.5c1.2-0.9,2.4-1.8,3.9-2.9c5.4,0,10.9,0,16.5,0
		c1.3-1,2.6-2,3.3-2.5c3.1-0.8,5.6-1.6,8.1-2.1c2.3-0.5,4.6-0.3,6.9-1.3c2.8-1.1,6.3-0.2,9.1-2c5-0.4,9.2,1.5,13.2,4.5
		c3.9,0.7,8.3-0.4,12.2,1.7c0.6,0.3,1.6,0.1,2.4,0.1c3.4,0,6.8-0.5,10,1.4c1.2,0.7,3.1,0.1,5,0.1c3-2.1,6-4.6,10.3-4.8
		c3.1-0.2,5.7-2.4,8.8-3.3c2.9-0.9,5.5-1.4,8.7-0.8c1,1.3,2,2.7,3.2,4.2c0.7,0,1.6,0.2,2.3,0c1.7-0.6,3.4-1.3,5.8-2.3
		c1.2-1,2.9-2.6,4.9-3.9c2.1-1.3,2.5-3.9,4.6-5.2c0.7-0.4,1.1-1.2,1.7-1.6c2.2-1.4,4.4-2.8,6.4-4.1c1.7,0.1,2.6,1.2,3.2,2.4
		c1.2,2.3,1.7,5,4.5,6.8c4.1,0,8.6,0,13.2,0c3.1,2.1,6.1,4.2,9.3,6.4c1.6,0.1,3.4,0.2,5.5,0.3c1.1,0.9,2.4,1.8,3.8,2.8
		c4.5,0.8,9.5-0.9,14,2c5.8-2.4,11.8-4.2,19-3c3.7,2.1,8.4,3.9,12.5,6.7c2.2,1.5,5.4,1.8,8.1,2.4c1.5,0.3,3.1,0.1,4.6-0.7
		c2.3-1.3,5.1-0.4,7.5-2c1.5-1,4-0.5,6.1,0.3c1.7,0.7,3.5,0.9,6.1,1.5c0.9,0.8,2.5,2.2,4.2,3.7c1.1,0.3,2.4,0.7,3.9,1.1
		c3.5,3.6,7.9,6.7,10,12.1c0.3,3.9-0.4,8.3,1.7,12.2c1.9,3.4,3.7,6.9,5.8,10.6c2.2,2.2,4.6,4.3,8.2,5.3c2.7,0.7,4.9,2.9,7.5,4.4
		c1.7,2.8,3.5,5.7,5.5,9.1c0,2.4,0,5.3,0,8.2c0,1.1,0.3,2.3-0.1,3.1c-2.3,4-1.3,8.3-1.4,12.5c-0.1,9,0,18,0,27.3
		c-1.4,2.8-2.9,5.9-4.6,9.3c0,4.7,0,9.7,0,14.7c0,2.4-0.5,4.8,1.2,6.9c0.1,4,0.1,7.9,0.2,11.9c-2.4,4.2-1.3,8.8-1.5,13.2
		c-0.1,2.1,0.1,4.2,0.1,6.4c0,2.4,0,4.6,1.2,6.9c0.8,1.5,0.5,3.6,0.6,5.8c0.9,2.6,3.4,5.1,3,8.5c1.7,2.9,1.9,6.1,1.4,9.2
		c-0.4,3.3,1.9,6.1,1.5,9.3c-0.3,3.1-1.5,6.2-1.3,9.2c0.3,4.6-1.6,8.7-2,13.2c-2.2,3.1-1.3,6.7-1.3,10c0,3.1-0.4,6.2,1.1,9.3
		c1.3,2.7,1.2,6.1,1.8,9.1c0.8,3.8,0.2,7.9,0.2,12.2c-0.9,1.9-1.9,4-3.1,6.2c0,2,0,4.1,0,6.2c0,3.4,0.2,6.9-0.2,10.3
		c-0.5,3.3-1.7,6.5-2.5,9.8c-0.3,1.3-0.3,2.6-0.4,3.9c-0.2,3.1,0.2,6.3-1.3,9.3c-0.8,1.5-0.1,3.5,0.5,5.4c0.6,1.9,1.2,4.5,0.5,6.1
		c-1.6,3.6-1,7.3-1.2,10.9c-0.2,3.4,0,6.9,0,10.2c1.4,1.5,2.8,2.7,4,4.2c1.3,1.7,3.1,3.4,3.3,5.3c0.7,5.1,4.1,8.9,5.2,13.7
		c-0.5,2-1.1,4-1.6,5.9c1.8,2.9,3.4,5.6,4.9,8.1c0.5,3.9,0,7.6-1.5,11c-0.9,2.1-2.1,4.2-3.4,6.1c-1.4,2.2-1.7,4.3-0.8,6.8
		c1.6,4.6,2,9.2,0,13.8c-0.4,0.9-0.4,2-0.5,3.1c-0.1,2.9-0.1,5.7-1.2,8.5c-0.8,2.1-0.3,4.7-0.3,7.1c0,3.4-0.3,6.7-1.7,10
		c-2.2,5.3-2,10.6-0.5,16.2c0.9,3.3,1.6,6.6,3.6,9.9c0,3.9,0.3,8.1,2,12c1.8,4.1,1.6,8.2,0.4,12.3c-0.8,2.6-1,5.2,0,7.7
		c1.2,2.8,1,5.6,0,8.4c-0.5,1.4-0.7,3.1-0.7,4.6c-0.1,5.3-1.4,10.3-3.6,15.1c-0.3,0.7-1,1.5-0.9,2.1c0.5,4.6-2.6,8.6-1.9,12.9
		c-2.1,4.3-3.6,8.6-7.3,11.1c-1.7,4.8-2.6,9.4-2.4,14.2c0.1,1.2-0.7,2.5-0.9,3.8c-0.2,2.1-1,4.5-0.2,6.2c1.4,3.1,1.2,6.2,1.2,9.3
		c-4.4,7.5-6.1,15.5-3.8,24.7c-0.6,1.4-1.5,3.3-2.6,5.8c0,4.9-0.2,10.5,0.1,16c0.3,6.1-0.2,12.1-2.1,17.9c-0.5,1.5,0.7,2.9-0.4,4.3
		c-1,1.3,0.2,2.5,0.7,3.6c0.2,0.5,0.3,1,0.3,1.5c-0.2,8.5,2.6,16.5,5.1,24.4c1.9,5.9,3.4,11.5,2.9,17.7c-0.1,1.1,0,2.1,0,3.2
		c1,1.9,1.9,3.8,3.1,6.2c-0.3,2.6,0.7,5.7-1,8.8c-1,1.8-0.2,3.6,0.9,5.4c-0.7,2.3-2.1,4.6-0.5,7.4c0.7,1.2,0.4,3.1,0.5,4.6
		c0.3,4.7-0.9,9.5,1.5,14c-0.2,5.9,1,11.4,3,16.9c0.5,1.4,0.2,3.1,0.2,4.7c0,5.3,0,10.6,0,15.9c1,2.2,2,4.4,3.1,6.7
		c0.3,3.2-0.4,6.7,1.6,9.8c-0.1,3.4,0.6,6.7-0.9,10.1c-1.4,3.1-1.2,6.8,0.1,10c0.7,1.8,0.8,3.5,0.9,5.4c0,3.4-0.1,6.9,0.1,10.3
		c0.1,1.8,0.7,3.5,1.2,6.1c-0.6,0.8-1.6,2.3-2.6,3.8c-0.7,3.8,0.7,8-1.9,11.8c2.1,4.7,1.9,9.7,1.8,14.7c0,2.1-0.3,4.3,0,6.4
		c0.3,2,0.8,4.2,1.8,6c1.3,2.3,1.2,4.5,1.2,6.9c0,4.5,0,9,0,12.8c1.3,4.6,5.3,6.4,6.6,10.3c1.2,3.7,2.9,7.3,4.6,11.6
		c0,6.1,0,13,0,19.9c0,1.3-0.7,2.5-0.9,3.8c-0.3,2.1-0.5,4.2-0.6,6.3c-0.1,2.9,0,5.8,0,7.9c-0.8,5-5.5,7.5-4.9,12.2
		c-2.2,3.6-1.1,7.7-1.6,11.6c-1.5,3.1-3,6.1-4.5,9.2c2.6,5.3,1.1,10.9,1.4,16.8c-2.7,2.7-5.6,5.3-8.2,8.3c-2.4,2.8-5.4,5-8.1,7.4
		c-2.3,2-5.5,2.9-8.3,4.3c-1.2,0.6-2.4,0.9-4.4,1.7c-5.5-0.2-11.9,0.8-17.9-2.9c-1.1,0.8-2.2,1.9-3.5,2.6c-2.8,1.6-5.7,2.6-9,0.9
		c-2.8-1.5-6.4,0.2-9-2.2c-3.2,0-6.4,0-9.4,0c-2.3-1.1-4.5-2-6.6-3c-0.8,0.3-1.5,0.6-2.5,1c-1.4-1.2-3-2.6-4.3-3.6
		c-2.5,0.4-4.8,0.9-6.6,1.2c-7.2-3.1-14.4-5.2-19.2-11.2c-2.3,0-4.4,0-6.5,0c-0.4,1.4-0.8,2.6-1.3,4c-0.6,0-1.3,0.1-2.3,0.1
		c-0.2-1.7-0.4-3.2-0.6-4.8c-1.8-1.3-3.7-2.7-5.2-3.8c-1.3,0.4-2.3,0.6-3.5,1c-0.4-2.1-0.7-3.9-1-5.4c-1.5-1.6-2.6-0.2-3.7,0.2
		c-0.5-0.9-0.9-1.9-1.6-2.7c-1.3-1.6-2.8-3.2-4-4.6c-1.2,0.6-1.9,0.9-2.8,1.3c-2.5-0.4-2.1-5-5.7-4.4c-1.8,1.3,0.5,2.7-0.2,4.3
		c-1.9-0.5-3.8-1-5.5-1.5c-0.6,0.5-1.3,0.9-1.3,1.2c0.1,3.2-1.9,4.7-4.7,6c-0.1,0.9-0.2,1.9-0.2,2.8c0.9,1.2,1.7,2.2,2.7,3.4
		c-0.4,0.5-0.7,1.3-1.2,1.7c-0.6,0.5-1.4,0.8-2.1,0.9c-5.4,1.3-10.3,3.7-15.1,6.4c-1.6,0.9-3.1,2-4.4,3.3c-1.9,1.9-4.1,3.2-6.6,3.5
		c-0.4,1.4-0.7,2.4-1.1,3.8c-1,0.3-2.2,0.6-3.4,1c-0.6,0.8-1.2,1.7-2,2.7c-1.5-0.1-3.1,0-4.6-0.4c-3.3-0.9-6.4-2.1-9.6-3.1
		c-1-0.3-2.4-1.1-2.8-0.8c-1.8,1.6-3.5-0.7-5.2,0.1c-1.4,0.6-3,1.2-4.5,1.1c-5.8-0.4-10.7,2-15.8,4.2c-0.6-0.2-1.3-0.5-2.1-0.8
		c-2.1,0-2.9,2.1-5.1,2.9c-3.1-0.7-6.6-1.5-10.2-2.3c-1.4,1.4-2.6,3.3-4.8,4.4c-2.3,1.1-4.3,3.1-4.3,6.2c-2.9,3.2-6.8,4.5-10.7,6
		c-1,0.4-2.1,0.4-3,0.9c-1.4,0.7-2.6,2.2-4,2.3c-3.7,0.2-6.9,2.2-10.8,1.8c-3.7-0.4-7.4-0.1-11.1,0.1c-1.5,0.1-3,0.7-4.9,1.1
		c-2.8-0.8-6.1-1.7-9.3-2.7c-1.8-0.6-3.2,1.2-5.3,0.7c-1.5-0.3-3.3,1-5.3,1.7c-1.9-0.2-2.1-2.3-3.3-4c-0.8,0.3-1.7,0.7-2.6,1.1
		c-1.8,0.7-3.6,0.7-5.3-0.2c-2.6-1.2-5.2-2.5-8.3-4c-5.6,0.6-11.6-4.2-17.6-0.2c-1.3-0.5-2.2-1-3.3-1.4c-2.1,1-4.3,1.5-6.8,1.5
		c-3.2-0.1-6.4,0.2-9.5,0c-2.2-0.1-4.1,0.6-6,1.4c-2.3-0.5-4.6-1.3-6.9-1.3c-2.2-0.1-4.5,0.6-6.8,1c-0.5-1.3-0.9-2.5-1.3-3.7
		c-1.8-0.9-3.7-0.9-5.3,0c-1.5,0.8-3,0.8-4.6,0.8c-2.1,0-4.3-0.2-6.4,0.1c-1.7,0.3-3.4,1.1-5.3,1.8c-1.2-1.6-2-3.4-3.4-4.3
		c-1.6-1-2.9-2.1-4.1-4c-3.2,0-6.6,0-10,0c-3.2,0-6.4,0-9.6,0c-0.9,0.4-1.8,0.9-2.9,1.5c-0.6-0.2-1.4-0.8-2-0.7
		c-2.5,0.8-5,1-7.6,0.9c-3.6,2.5-7.7,1.2-11.9,1.6c-0.6,1.5-1.1,3.3-2,4.7c-0.8,1.3-2.2,2.2-3.4,3.3c-3.6-1.2-7.1-2.3-10.4-3.3
		c-0.7,1-1.3,1.9-2.1,3.1c-1.1-0.5-2.3-1-3.6-1.6c-3,0-6.2-0.1-9.3,0c-3.1,0.1-6.4-0.8-9.2,1.4c-2.9,0-5.6,1-8.3,2.2
		c-2.8,1.2-5.9,1.9-8.9,2.6c-1.8,0.4-7.3-1.5-9.5-3c-0.9-0.6-1.7-1.2-2.6-1.7c-0.9-0.5-1.9-0.9-2.7-1.3c-1.1,0.2-2,0.5-3,0.7
		c-0.5-0.7-0.9-1.4-1.4-2c-0.5-0.1-1.1-0.5-1.5-0.4c-3,0.9-5.9,1.8-9.3,2.9c-1-0.8-2.2-1.7-3.7-2.8c-3.2-0.1-6.6-1-9.8,1.1
		c-5.7,0-11.5,1.6-17.2-1c-1.4-0.6-3.1-0.5-5.5-0.9c-1.2-1.5-2.9-3.6-4.9-5.9c-0.1-0.5-0.3-1.5-0.5-2.4c-0.7-0.3-1.1-0.6-1.6-0.6
		c-4.5,0-9,0-13.8,0c-2.3-1.4-4.8-2.8-7.9-4.7c-3.1,0.2-6.9-1-10.8,1.1c-1.9,1-4.7,0.4-7.1,0.6c-2,1.1-4.1,2.1-6,3.5
		c-2.9,2.2-6.2,3.7-10.2,1.5c-2.2-1.2-5-1.3-7.7-1.9c-1.5,0.6-3.1,1.9-5-0.1c-1.3,0.7-2.5,1.5-3.8,2.2c0.2,0.7,0.1,1.4,0.4,1.6
		c1,0.8,2.2,1.4,3.2,2.2c0.5,0.4,0.6,1.3,0.9,2c-2.2,1.1-2.2,1.1-4.7,1.2c-1.8-1.1-3.7-2.4-5.9-3.8c-0.6-1-1.4-2.3-2.3-3.9
		c-3.2,0-6.4,0-8.4,0c-3.5-1.5-5.9-2.8-8.4-3.4c-2.6-0.6-3.8-3.9-6.9-3.4c-0.6,0.1-1.3-0.8-1.9-1.2c-1.6-0.9-3-2.3-4.7-2.7
		c-5.4-1.3-9.5-4.3-12.9-8.6c-1.7,0-3.3,0.2-4.8-0.1c-1.5-0.3-2.9-1-4.4-1.6c-6.6,1.4-13.2,3.1-18.3,7.9c-4.9,0-9.6,0-14.1,0
		c-4.9,1-7.6,5.2-12,6.3c-4.4,1.1-7.6,4.6-13,6.3c-0.7,0-2.5,0.1-4.6,0.2c-2.9,1.4-5.9,2.9-9.2,4.5c-2.2,0.6-4.9,0-7.4,1.2
		c-1.8,0.8-4.2,0.6-6.2,0.4c-2.7-0.3-5.1,0.5-7.3,1.5c-1-0.4-1.7-0.6-2.6-1c-0.6,2.3-0.5,5-3.9,5.9c-1.5-0.4-3.5-1.1-5.5-1.5
		c-2.1-0.3-4.1-0.8-6.1-1.2c-4.3-0.9-9-1.3-13.3,0.2c-4,1.4-7.7,1.2-11.6-0.5c-3,1.9-6.5,1.6-9.9,1.4c-3.5-0.3-6.9,0-10,1.6
		c-3.2,1.6-6.6,1.7-10,1.6c-4,0-7.9,0-12.3,0c-0.7,1.1-1.4,2.5-2.4,3.7c-0.8,1-1.7,1.8-2.3,2.4c-3.3,0-3.2-2.9-4.7-4.1
		c-0.6,0.9-1.1,1.7-1.9,2.9c-4.6-1.6-9.6-1.9-13.9-4.5c-0.8,0.4-1.5,0.7-2.4,1.2c-1.8-0.9-3.7-1.8-5.3-2.6c-1.7,0.4-3.1,0.8-4.7,1.1
		c-1.7-1.5-3.3-2.9-4.6-4.1c-3.2-1.1-6.3-1.8-9.1-3.1c-2.6-1.2-5.3-2.1-8.1-3c-3-0.9-6-1.7-9.3-2.6c-1.4,0.7-3.1,1.4-4.9,2.3
		c0.4,1.5,0.8,3,1.3,4.6c-0.7,0.3-1.3,0.6-2.2,1.1c-1.1-1.5-2.2-2.9-3.4-4.5c-0.3-0.1-0.8-0.4-1.3-0.4c-3.2,0-6.4-0.1-9.5,0
		c-2.7,0.1-5.2-0.3-7.7-1.8c-0.7,1.2-1.1,2.1-1.6,2.9c-0.4,0.6-1,1.2-1.7,1.9c-1,0.1-2,0.2-3.1,0.4c-0.8,0.9-1.6,1.8-2.4,2.7
		c-2.4,0.2-3-2.2-5.1-2.9c-2.9,0-6,0-9.4,0c-2-1-4.2-2-6.7-3.2c-1.9,0-4.3,0-6.3,0c-2.3-1.1-4.1-2.1-6-3c-1.9-0.1-3.8-0.3-4.6-0.3
		c-4.6-1.8-8.2-3.2-11.6-4.5c-1.5,0.5-2.7,1-4.4,1.5c-5.2-3.4-11.7-3.1-17.1-5.3c-5.8-3.1-7.1-8.7-8.7-13.9c-0.8-2.6-0.7-6,0.2-8.6
		c0.9-2.7,0.8-5.1,0.9-7.9c-0.9-1.1-1.9-2.4-3-3.8c0-1.4,0-2.9,0-4.8c0.6-1.4,1.3-3.1,2.2-4.7c1.1-2,1.4-4.1,0.4-6
		c-2.4-4.9-3-10-2.7-15.3c0.1-1.8,0-3.7,0-6.5c0.2-0.4,0.8-1.5,1.5-2.7c0-1.5,0-3.1,0-5.3c-1.9-2.4-2.1-6.5-6-8.6
		c-0.6-2.2-0.4-4.9-1.8-7.2c-1.2-2-2.2-4.1-3.3-6.3c1.2-1,2.1-1.8,3-2.5c0.4-2.3-2-3-2.8-5.2c0.2-3.4-1.3-7.4,1.1-11
		c-0.4-1.5-1.1-3-1.2-4.5c-0.1-1.7,1.1-3.7,0.6-5.2c-0.7-1.9,0.2-3,0.7-4.4c-0.5-3.9-4.7-6.6-2.8-10.9c-1.8-1.3-3.1-2.2-4.6-3.3
		c0-1.3-0.4-3,0.1-4.4c0.5-1.5,1.7-3.1,0.9-4.5c-1.2-2.1-0.4-3.8-0.1-5.9c0.5-3.3,0.9-6.8-0.7-10.5c0.7-1.6,1.6-3.4,2.6-5.7
		c0-3.4-0.7-7.4,1.4-11.1c0.3-0.6,0.2-1.6,0.1-2.3c-0.3-1.3-0.8-2.5-1.3-4c0.9-1.8,2-3.9,3.3-6.5c-0.2-1.7-0.5-3.7-0.8-5.8
		c-0.1-0.5-0.4-1-0.3-1.4c2.1-5.2,0.4-10.5,0.7-15.7c0.3-5,0.1-10.1,0.1-15.1c-1.4-1.9-4.2-2.2-4.7-5c-0.4-2.3-1.6-4.4-2.5-6.8
		c0.5-1.4,1.5-2.4,3.3-2.3c1,0,2.1-0.1,3.2-0.2c-0.3-1.7-0.6-3.1-0.7-4.6c-0.1-1.3,0-2.6,0-3.8c-1.7-1.8-3.1-3.4-4.8-5.3
		c0-1-0.3-2.4,0.1-3.5c0.8-2.2,2-4.3,3.1-6.6c0-3,0-6.2,0-9.4c1.5-3.1,3.1-6.1,4.6-9.2c0.1-1.3,0.2-2.6,0.3-4c1-1.2,1.9-2.4,3-3.8
		c0-4.9,0-10,0-14.7c1.8-2.9,3.5-5.6,5.2-8.3c-0.6-1.4-1.2-2.5-1.7-3.7c-0.4-1-0.8-2-1.2-3.2c0.1-1.2,1.4-2.7,0.2-4.1
		c-1.4-1.6,0.8-3.1,0.1-4.3c-1.1-1.9-0.5-4.8-3.4-5.8c-0.9-0.3-1.3-2.2-1.8-3.2c1.4-2.3,2.7-4.4,4-6.5c-2.6-2.8-5-5.2-7.5-7.9
		c0-3.6,0-7.3,0-11c0.9-0.6,1.7-1.2,2.8-2c-0.4-1.4-1-2.8-1.3-4.2c-0.3-1.5-0.2-3.2-0.3-4.7c-0.9-0.6-1.8-1.2-3-2.1
		c0.3-3.3-1.8-6.2-2.6-9.3c-0.9-3.6-4.8-4.8-5.6-8.3c0-2.9,0-5.8,0-8.7c0-1.3,0.1-2.8-0.4-3.9c-1.5-3.1-1.6-6,0-9.1
		c1-2,0.7-4.1-0.3-6.1c-0.7-1.4-1.4-2.8-2.3-4.5c0-5.7-0.8-11.8,1.8-17.6c-1.1-1.5-2.1-2.7-3.1-3.9c-0.1-0.5-0.4-1-0.4-1.5
		c0-3.4,0-6.9,0.1-10.3c0-1.9-0.2-3.5-1.1-5.3c-1.4-2.7-1-5.6,0.6-8.2c-0.4-0.7-0.8-1.4-1.1-1.9c0-9.4,0-18.7,0-28
		c1.5-1.6,2.9-3.2,4.4-5c-0.9-1.2-1.8-2.4-2.9-3.9c0.1-1.3-0.2-3.1,0.5-4.3c1.6-2.6,0.1-6,2.5-8.2c0.1-3.1,0.9-6.3-1-9.3
		c-0.6-1-0.4-2.5-0.5-3.9c1.1-1.5,2.2-3,3.2-4.4c-0.9-3.3-1.8-6.5-2.8-10.2c2.2-3.6,1.8-7.6-0.4-11.4c0.6-1.7,1.1-3.1,1.8-4.9
		c-0.3-0.8-0.7-1.7-0.9-2.7c-0.3-1.3-1-2.8-0.6-3.8c2.3-5.9,1-12,1.6-18c0-0.3,0.1-0.5,0.2-0.8c0.9-1.2,1.8-2.5,2.6-3.7
		c0.8-5.6-1.1-11.3,1.9-16.6c-2.1-2-5.4-2.9-5-6.6c0-0.3-0.6-0.9-1-1.1c-2.3-0.9-2.5-3.1-3.3-4.9c0.5-1.3,0.9-2.5,1.3-3.5
		c-0.5-0.9-0.9-1.6-1.5-2.6c0.8-1.7,1.7-3.5,2.7-5.9c-1.7-3.1-3.6-6.5-5.9-10.7c-0.1-1-0.2-2.7,0.7-4.5c1.4-2.7,1.3-5.9,0.3-8.5
		c-0.9-2.3-1-4.6-1.1-6.9c-0.1-2.6-0.2-5.1-1.2-7.7c-1.6-4.4,0.4-8.7,1.7-13c0.2-0.7,1.1-1.4,1-2.1c-0.6-4.6,1.5-8.7,1.7-13.2
		c0.2-3.9,1.3-7.7,2.1-11.5c0.3-1.3,1-2.6,0.9-3.8c-0.4-4.1,2-7.6,1.9-11.6c2.4-3.8,1.7-7.5-0.3-11.1c1.2-3.7,1.7-7.4,4.8-10.1
		c-0.6-4.6,0.9-8.8,2.3-13c0.9-2.7,1.3-5.6,1.8-8.4c0.4-2.3,0.5-4.7,0.8-7c0.3-2.3,1.7-4.3,1.6-6.8c-0.2-3.9-0.7-7.9,1.4-11.6
		c0.6-1,0.2-2.6,0.2-3.9c0-6.1-0.3-12.2,0-18.3c0.2-4.7-1-9.5,1.5-14c-0.1-3.2,0.1-6.4-0.5-9.4c-0.4-1.8-0.8-3.6-0.8-5.4
		c-0.1-3.7-0.2-7.4-0.2-11.1c-2.4-3.1-0.4-7.4-2.8-10.5C260.9,997.3,257.7,993.3,258.5,988.8z"/>
	<g>
		<g>
			<path d="M59.4-61.1c-12,0.1-24.1,0.2-36.1,0.4c-0.1,1.7-0.1,3.4-0.2,4.7c-1.9,0.8-3.7,1-5,2.2c-4.7,4.3-9.3,4.1-14.3,0.6
				c-1-0.7-2.7,0.3-3.9,0.9C-2.2-51.1-3.2-48-4.6-46c-2.1,2.9-5.6,3.6-8.6,4.6c-2.7,0.9-5.4-1.9-7.8-2.1c-5.1-0.3-10.2-1.6-15.6,1.8
				c-3.5,2.2-7.7,5.2-12.1,3.5c-0.7-0.3-1.6-0.1-2.2,0.4c-2.9,2-5.6,4.9-8.6,6.1c-2.7,1-6.1,1.5-8.3-0.3c-2.1-1.7-3.8-1.6-5.7-1.9
				c-2.2-0.4-4.4-1.1-6.6-1.1c-4.9-0.1-9.5-4.4-14.6-2.9c-0.2,0.1-0.5-0.4-0.8-0.6c0.2-0.2,0.4-0.4,0.6-0.5
				c-1.4-3.6-2.7-7.3-4.1-10.9c-4.8,0-9.5-1-13.8,0.4c-4.8,1.7-9.6,4.8-14.2,7.6c-5.3,3.2-10,8.2-16.3,7.4c0.2,5.2-3.7,7.5-3,12.7
				c-2.7,2.3-3.4,8.4-7.8,8.1c-2.1-0.2-4.8,2.2-6.5,4.6c-2.8,4-8.1,4.4-8.3,12.4c0,0.2-0.5,0.3-0.7,0.5c-4.5,2.7-8.4,8.1-13.8,7.1
				c-0.7-0.1-1.4,1.4-2.1,1.5c-3.7,0.5-5.5,7.3-9.6,5.6c-1,4.5-1.9,8.1-4.5,10.9c-2.1,2.2-3.8,6.4-4.3,10.2
				c-0.6,4.1-0.2,8.3-3.3,10.5c-0.3,0.2-0.3,1.6-0.4,2.5c-0.3,4.2-0.9,8.5-0.7,12.6c0.4,5.8-2.2,9-4.1,12.7c-2,4.1-3.9,9-8.1,7.5
				c-0.3,2-0.5,3.5-0.7,5c-1.6,0.1-3-0.2-4.2,0.5c-1.2,0.7-2.2,2.4-3.4,3.8c-0.1,3.4,0.6,7.6-1.9,9.9c-2.1,2-4.4,4.6-6.7,4.9
				c-3.4,0.4-3.9,3-3.9,7c0,1.8,0.2,4.1-0.4,5.2c-2.5,4.5-5.4,9.1-8.4,12.1c-3.8,3.8-8,7.2-11.8,11.1c-2.1,2.1-3.6,4.4-3.5,8.9
				c0.1,2.2-0.9,5.2-2.1,6.5c-3.3,3.7-6.1,7.4-5.8,14.6c0.4,9.7,0.1,10.2-6.2,11.4c-2.2,0.4-3.5,2-4.2,4.6c-1,3.4-1.7,7.1-2.3,10.8
				c-0.6,3.8-1.1,7-3.3,9.9c-1.7,2.2-3,6.1-2.4,10.6c0.3,1.8-0.2,4-0.6,5.9c-1.8,9.5-5,18.2-6.2,28c-0.2,1.5-1.2,2.7-1.7,4.2
				c-0.7,1.8-1.2,3.6-1.8,5.5c-1.3,4.2-2.6,8.3-3.7,12.5c-1.5,5.4-2.7,10.9-4.1,16.3c-1.5,5.6,0.3,12.3-2.4,17.6
				c-1,1.9-1.5,4.5-1.7,6.9c-0.3,2.9,0.1,5.9,0,8.8c0,1.2-0.4,2.5-0.9,3.4c-1.2,2.5-1.3,4.6,0.2,7c0.5,0.8,0.7,2.3,0.8,3.5
				c1.1,7.7-2.3,14.4-1.9,21.9c0,1-1,2-1.5,3.1c-3.8,8.1-3.7,17.9-1.9,25.9c1.9,8.2,1.8,13.8-2.2,19.5c-0.8,1.1-1.7,2.7-1.6,4.1
				c0.1,1.9,1,3.7,1.5,5.6c-2.3,2.2-1.4,9.6-6,8.1c0.1,5.4,0.1,10.2,0.1,14.8c-3.3,2.5-6.4,8.2-6.1,12c0.4,6.4-2.1,11.6-2.5,17.6
				c0,0.7,0,1.6-0.2,2c-3.5,5-3.4,11.4-3.3,18c0,2.1-0.7,4.2-1.1,6.9c1.5,2.5,1.9,8.1,0.8,11.4c-0.5,1.4-1,3-1.1,4.6
				c-0.3,6.9-0.5,13.9-0.8,20.8c0,0.9,48.6,134.9,50,134.9c0.2,2.4,0.3,4.3,0.4,5.6c2.3,1.9,4.3,3.5,6.2,5c1.7,1.3,3.9,1.1,5.5,1.1
				c4.6,0.1,8.9,1.1,13,4.3c4,3.1,8.7,5,12.1,9.2c3.7,4.6,6.9,9.8,11.1,13.6c2.5,2.2,4.6,5,7.7,4.2c0.4-0.1,0.8,0.4,1.2,0.5
				c0.2,2.1,0.4,4,0.5,4.7c1.9,1.8,3.3,2.7,4.4,4.2c2,2.6,3.2,6.5,6.4,7.1c0.7,0.1,1.8,3.8,1.6,5.5c-1.2,9.4-0.8,18.6,0.7,27.3
				c2.5,1.7,4.7,3.1,6.6,4.3c0.6,2.9,0.8,5.7,1.7,7.9c2.6,6.1,6,11.3,6.6,19.3c0.3,3.1,0.7,7.5,1.9,10.2c2.7,6.3,4.2,13.5,7.5,19.3
				c2.5,4.4,4.2,9.9,6.4,15.4c3.8,2.7,8.3,6.1,13.3,6.3c3,0.2,5.5,2,7,6.1c2.6-3.5,3.2-3.6,5.6-1.4c2,1.8,4.1,3.4,6.1,5.3
				c1.6,1.6,3.1,3.4,4.4,5.5c1.1,1.8,1.6,4.8,2.9,6.2c3,3.3,4.4,7.5,4.1,12.9c-0.2,3.5,1.3,5.3,3,6.4c5.4,3.6,10.6,7.4,14.4,15.7
				c1.3-5.4,2.9-4.1,4-1.4c1.4-0.7,3.4-1.9,3.4-1.7c1,3.1,2.8,1.9,4.3,2.4c0.7,0.2,1.2,1.4,1.8,2.1c2.2,2.4,4.5,6.9,6.6,6.8
				c6.6-0.3,13.3,1.7,20.1-2c6.8-3.8,14.1,1.5,21.2,2.2c0.3,0,0.6,0.4,0.7,0.7c1.7,5.1,5.1,5.2,7.7,6.4c1,4.9,2,9.6,2.9,13.7
				c2.9,0.8,5.5,0.7,7.7,2.2c4.3,2.9,8.6,5.2,13.4,5.1c0.7,0,1.4,0.3,2.2,0.5c-2.5,4-1.8,8.3-1.5,11.7c3.6,3,7,5.1,9.7,8.4
				c1.3,1.6,1.9,4.8,4,5c2.1,0.2,4.7,1.1,6.2-0.4c4.1-4.1,8.8-2.6,13.1-3.5c4-0.8,8.3,0.4,12.4,1.1c1,0.2,2,1.2,2.8,2.3
				c1.6,2.1,3.2,3.7,5.4,3c2.2-0.6,3.8,0.4,5.3,3.3c0.9,1.8,2.9,3.3,4.3,3.2c2.4-0.2,3.8,1.7,5.3,3.7c3.8,5.2,7.8,6.1,12.4,6.2
				c4.7,0.2,8.8-2.1,13.1-3.5c3.1-1,6.5-0.2,9.5-3.7c3.4-4,7.7-5.7,12.2-5.8c4-0.2,8.4,0.4,11.9-1.8c3.3-2.2,6.4-2,9.7-2.5
				c2-0.3,4-1.2,6.5-2c2.8,3.6,6.8,2.8,10.2,0.9c1.6-0.9,3.1-1.7,4.8-1.8c9.8-0.2,19.6-0.2,29.3-0.4c1.2,0,3,0.5,3.5-0.4
				c2.1-3.9,4.8-3.3,7.6-4.1c1.5-0.4,2.8-3,4.3,0.1c0.1,0.2,0.8-0.2,1.2-0.4c1.3-0.7,2.5-2.2,3.7-2.1c2.5,0.2,4.8-0.5,6.3-3.1
				c1.6-2.8,3.5-2.4,5.5-2.7c2.9-0.4,5.8-1.2,8.7-1.8c0.6-1.7,1.1-3.2,1.8-5.1c1.2,0,2.5,0.4,3.5-0.1c2-1.1,4.6-2.1,5.6-4.4
				c2.7-6.3,7.1-7.4,11-8.9c2.9-1.2,6.4,0.6,9.6,1.1c0.3,1.8,0.4,3.1,0.6,4.1c3.9-1.5,7.6-3.6,11.4-4.2c7.1-1.1,14.3-1.2,21.5-1.7
				c0.6,0,1.4,0.3,1.8-0.2c1.9-2.6,3.7-4.2,5.7-0.1c0.1,0.2,1.2-0.7,1.8-1.1c0.7-0.5,1.5-1.3,2.2-1.4c6.1-0.8,12.3,1.5,18.2-2.8
				c2.7-2,6.5,2.3,9.1-2.7c0.1-0.1,0.7,0.5,1.1,0.8c0.7,0.5,1.5,1.6,2.2,1.6c5.4-0.2,8.4,5.7,11.5,10.6c3,4.7,2.7,5,6.9,2.2
				c1.3-0.9,4.4-0.6,4.5,0.1c0.9,4.7,3.2,3.2,5.1,3.2c4.5,0.1,9,0.1,13.5-0.1c4.9-0.3,9.8-1.4,14.7-1.1c2.8,0.2,5.3-1.8,8.1-1.1
				c3,0.8,6.2,2.2,9.2,1.6c4-0.8,7.2,3.1,11,2.9c2.3-0.1,4.6-0.8,6.7,0.1c1.9,0.8,3.4,3.4,5.3,5.5c2.4-5,6-4.1,8.7-2.2
				c1.7,1.3,3.2,1.5,4.9,1.7c3.4,0.5,6.8,1,10.2,1.2c2.2,0.1,4,1.6,6.6,0.5c4.8-2,10-1.5,15.1-2c0.7-0.1,1.8,0.4,2.2-0.2
				c3.4-4.6,7.7-3,11.4-2.4c4.6,0.7,8.3-3.9,12.7-3.5c0.4,0,0.9-1.4,0.8-1.3c2.1,0.3,4.6,1.4,4.9,0.7c2-5.8,5.5-3.5,8-2.8
				c2.8,0.7,5.1,0.6,7.5-1.3c0.1-2.4,0.2-4.6,0.3-7.7c3.2,0,6.3-0.1,9.5-0.1c0.2-2.3,0.3-4.2,0.4-5.7c4.2-1.6,8.1-3,11.8-4.3
				c0.8-1.7,1.3-3.9,2.4-5c1.8-1.9,4.1-3,4.5-7c0-0.4,0.7-1,1-0.9c3,0.7,4.1-3.1,5.9-5.5c1.8,2.4,3.5,4.6,5.7,0.7
				c0.4-0.7,2.2,0.3,3.3,0.5c1.4,0.2,3.1,1.4,4,0.5c4.9-4.8,10.3-5.5,15.9-6.4c4-0.6,7.9-1.9,11.8-3c0.3-0.1,0.5-1.1,0.8-1.3
				c0.4-0.3,1.3-0.6,1.3-0.4c1.3,3.5,3.5,1.5,5.3,1.9c3.5,1,7,1.8,10.5,2.8c0.3,0.1,0.7,0.8,0.8,1.4c1.1,4,2.8,2.9,4.5,1.4
				c2.6-2.4,7.2-2.4,10.1,0.1c2.1,1.8,6,1,7.9-1.5c2.3,1.7,4.8,2.8,6.6,5.3c1.5,2.2,3,2.6,4.7,2.3c4.7-0.8,9.6,1.6,14.2-2.5
				c1.5-1.4,4-0.9,5.8-3c1.4-1.6,3.2-2.3,4.9-3.5c2.8-2.1,6.7-3.3,8.2-6.8c1.8-4,3.6-3.4,5.8-3.7c0.4-0.1,0.8-0.5,1-0.6
				c0.9-5.7,1.7-11.1,2.5-16.4c2.4-2,4.8-4.1,7.4-6.2c0.3-6.5,2.9-10.1,9-11.7c0-1.2,0.1-2.6-0.1-3.8c-0.6-6.9-0.7-7,3.5-7.7
				c2.4-0.4,3.9-2.2,4.4-5.5c0.9-5.6,1.5-11.3,2.3-17.4c0.7-0.2,2.3-0.2,2.5-0.9c1.6-6.1,6.7-8.9,6.7-16.4c0-0.7,0.4-1.7,0.8-2
				c4-2.9,5-8.9,6-14.4c0.7-3.5,1.4-5,3.7-4.3c2.3,0.7,2.9-0.4,2.1-3.8c-0.8-3.3-0.7-6.8,1.5-9c1.6-1.5,3.5-2.4,5.3-3.6
				c-0.9-8,1.9-12.3,6.2-15.2c0.6-0.4,1.6-1.2,1.6-1.9c0.1-6.2,3.2-6.9,6.5-7.4c0-3.1-1.8-5.7-1.9-8.7c2.8-0.3,7-0.5,9.8-0.7
				c0-3.5-0.1-6.6-0.1-9.2c1.8-1.6,3.2-3.7,4.7-3.9c6.2-0.9,10.2-8.3,15.8-11c4.2-2,8-6,12.7-6c3.1-0.1,6.3-2.6,7.7-6.4
				c1.5-4.2,3.1-6.4,6.3-6c0.9-5,1.8-9.6,2.6-13.8c2.2-1.6,4.5-2.7,6.3-4.9c2-2.4,7.1-7.6,9-8.8c3.5-2.3,7.5-3.7,9.6-9.4
				c0.8-2.2,1.8-4.3,2.6-6.5c0.5-1.4,1.2-2.8,1.3-4.3c0.2-2.4,0-5,0-7.5c-0.1-7.9,2.6-13.3,8-15.5c-0.1-5.3-0.1-10.7-0.1-16.1
				c0-2.1-0.7-4.7,1.8-5.1c0.3,0,0.5-1.8,0.8-2.7c0.6-1.8,1-3.9,1.8-5.4c2.1-3.8,2.3-6.3,0.5-10.8c-0.4-1.1-0.8-2.5-0.7-3.7
				c0.5-5.7,0.6-11.8,2-17c2.2-8.2,2.6-16.3,1.5-24.7c1.4-1,2.8-2,4.2-3.1c-3.1-5.8-3.4-14.3,2.5-18c-0.7-5.6-0.1-10.7,3.6-13.8
				c-0.9-1.1-1.4-1.8-2.2-2.7c1.6-2.6,3-5.6,4.8-7.3c1.7-1.6,1.8-3.6,1.5-5.7c-0.5-3.3,0.9-5.4,2.1-6.6c1.4-1.3,2.3-2.7,3.1-4.8
				c0.5-1.4,2-2,3-3c2-1.8,4.5-3.1,5.9-5.7c1.8-3.2,3.3-7.3,4.1-11.3c0.9-4.6,2.1-9.7-0.4-14.4c-0.5-0.9-0.7-2.6-0.5-3.7
				c0.8-3.9,2.1-7.6,2.8-11.5c0.4-1.8,0-4,0-5.8c-1.4-1.2-2.5-2.2-3.7-3.1c0-2.1,0-3.9-0.1-5.7c-0.3-6.1-0.9-12.2-0.9-18.3
				c0-7.2,0.3-14.4,0.6-21.5c0.4-7.1,1.3-14.2,1.4-21.3c0.1-3.5,1.4-5.1,2.6-7c1.7-2.6,3.7-4.8,5.1-7.8c0.6-1.2,0.2-4.8-0.5-5.9
				c-3.7-5.2-4.9-11.8-5.6-18.8c-0.1-0.9-0.1-2-0.4-2.6c-2.7-5.1-4.8-10.4-3.4-17.2c-1.7-1.1-3.1-2-4.6-3c0-2.8-0.1-5.3-0.1-6.9
				c-1.8-2.5-3.1-4.6-4.7-6.3c-1.3-1.5-2.8-3.1-4.3-3.6c-3.8-1.3-5.3-3.7-5.8-9.6c-0.2-2.3-0.9-6.1-1.7-6.3
				c-5.8-1.7-5.5-13.2-11-15.1c0,0,0-0.4-0.1-0.7c-0.1-6.3-3.6-8.5-6.4-11.4c0-1.9-0.6-4.4,0-5.4c2.9-4.9,1.1-10.6,1.4-15.9
				c0.2-2.7,0.3-5.6-0.4-8c-1.7-6.6-1.8-6.5,0-14.1c0.2-0.8-0.2-2-0.4-3c-0.4-1.5-0.9-3-1.2-4.5c-0.3-1.4-0.3-3.2-0.9-4.3
				c-2.7-4.8-5.6-9.3-8.2-14.2c-1.2-2.2-1.8-5-3-8.3c-1.1-0.1-2.9,0-2.8-4.1c0.1-2.3-1.1-4-3.2-4.4c-2.4-0.4-4.3-2.3-3.4-7.3
				c0.3-1.6-0.8-4.4-1.8-5.8c-1.1-1.6-2.8-2.4-3.8-3.1c0.5-3.1,1.7-6.6,1.1-7.6c-2.2-3.4-1.5-7.9-2.6-11.6c-0.3-0.9-0.7-1.9-1.2-2.4
				c-2.2-2.5-4.4-4.7-7.5-4.2c-1.6,0.3-3.6-1.1-5-2.7c-2.3-2.7-4.3-6.1-6.4-9.2c-0.5-0.7-0.9-1.9-1.5-2.3c-4.6-2.9-9.3-5.4-13.6-9.6
				c-2-2-4.4-2.9-5-7c-0.6-3.5-1.3-6.9-1.8-10.3c-0.1-0.5,0.6-1.3,0.9-2c1.6-3.9,0.7-8.8-2.2-9.1c-2.5-0.3-3.8-2.8-5.7-4.1
				c-1.9-1.3-3.7-2.7-5.1-3.7c-1.4-3.2-2.5-8-3.9-8.2c-4.4-0.6-6.8-6.8-11-7.6c-0.9-0.2-1.9-2.5-2.4-4.2c-2-7.4-4.5-10.2-9.6-10.2
				c-1.5,0-3-0.3-4.5,0.1c-2.1,0.6-3.4-1.1-4.5-3c-1.5-2.8-2.7-6-4.2-9.6c-6.7,1.7-13.2,0-19.4-3c-1-5.9-1.9-11.7-3.1-18.6
				c-5.2,0.1-10.7,0.1-16.1,0.2c-7.6,0.2-15.1,0.4-22.7,0.7c-1.1,0.1-2.2,1.6-3.4,1.8c-1.9,0.4-3.8,0.7-5.6,0.3
				c-1.4-0.3-2.8-2.7-4.1-2.7c-6.1,0.1-12.2,0.1-18.2,1.5c-1.5,0.4-3.4,2.5-5.1,1.9c-3.6-1.2-6.9,1.6-9.3,3.8
				c-2.9,2.7-5.4,1.2-8,1.9c-2.8,0.7-5.5,0.3-7.3-4.1c-0.2-0.6-1-1.2-1.4-1.1c-3.3,0.9-7-2.1-10.1,2.4c-1.4,1.9-3.8,2.9-5.8,3
				c-9.4,0.4-18.9,0.3-28.2,0.4c-1.7-4.8-4.7-6.9-6.4-4.7c-0.3,1.5-0.6,3.1-0.8,4.6c-3,0.2-2.9-0.1-6.4-2c-1.5-0.8-4.1-1.3-4.7-0.2
				c-2.8,4.8-6.5,1.1-9.6,3.2c-1.4,1-4.2,0.1-5.4-1.5c-2.3-3.1-4.3-1.6-6.5-1.2c-0.4,0.1-0.8,0.7-1.1,0.6
				c-5.5-1.1-10.8-4.7-16.5-3.8c-0.8,0.1-1.6-0.3-2.1-0.4c0.1-3.2,0.2-5.9,0.3-8.5c-0.9-0.3-1.2-0.4-1.5-0.4
				c-8.6,0.1-17.2,0.1-25.7,0.2c-4.6,0.1-8.1-6.3-12.9-4.4c-0.1,0-0.3-0.7-0.5-1c-3.8-5.3-8.2-8.4-13.5-8.3c-0.5-5.8-3.6-4-5.7-5.5
				c-4.9-3.6-9.9-3.5-14.9-3.4c-3.1,0.1-6.2,1.3-9.3,1.3c-11.4-0.1-22.8-0.7-34.1-0.9c-8-0.1-16,0.1-23.9,0.3
				c-1.1,0-2.2,0.9-3.1,1.8c-1.4,1.2-2.7,2.6-3.9,4.1c-2,2.3-3.1,0.3-4.5-1.5c-0.5-0.7-2.2-0.7-2.6,0c-2.7,4.5-6.1,1.9-9.2,2.6
				c-1.3,0.3-3.1-0.4-3.9,0.6c-3.8,4.6-8,1.8-12,1.8c-1.4,0-3.1-2.4-5.1-2.3c-5.9,0.3-11.7,0.2-17.6,0.3c-1,0-2.6-0.4-3,0.4
				c-1.8,3.6-4.3,2.2-6.5,2.4c-5.5,0.3-10.8,0.7-16.2,3.9c-4.5,2.7-9.9,2.4-14.9,3.3c-2,0.3-3.7,0.5-5.6,2.5c-2.5,2.6-6,3.9-9.2,4.4
				c-4.6,0.7-9.3,0.2-14,0.4c-1.3,0-2.6,0.7-3.9,0.7c-1.6,0-3.9,0.4-4.6-0.9c-2.4-4.1-5.6-2.5-8.3-3.1c-4-0.8-8.3-0.2-12.3,1.3
				c-1.4,0.5-2.8,2.3-4.6,2.3c-11,0-22,0.2-33,0.3c-1,0-2.5,0.5-3.1-0.3c-3.1-4.1-6.8-3.7-10.4-3.6c-1.5,0-2.5-0.9-3.8-2.4
				c-3.5-4-7.3-6.9-12-7.2c-8.2-0.5-16.4,2.6-24.6-1.9c-3.6-2-7.8-2.6-10.7-6.6c-2.3-3.2-4.6-3.2-7.3-3.1
				C60.9-58.4,59.3-57.7,59.4-61.1z"/>
		</g>
		<g>
			<path d="M678.8-84.2c-8.8,0.1-17.5,0.2-26.3,0.3c0,1.7-0.1,3.4-0.1,4.7c-1.4,0.8-2.7,1-3.6,2.2c-3.4,4.2-6.8,4-10.4,0.6
				c-0.7-0.7-2,0.2-2.9,0.9c-1.5,1.1-2.2,4.2-3.2,6.2c-1.5,2.9-4.1,3.6-6.3,4.6c-2,0.8-4-2-5.7-2.1c-3.7-0.3-7.5-1.6-11.3,1.8
				c-2.5,2.2-5.6,5.2-8.8,3.5c-0.5-0.3-1.1-0.1-1.6,0.4c-2.1,2-4,4.9-6.2,6.1c-1.9,1-4.5,1.5-6.1-0.3c-1.5-1.7-2.8-1.6-4.2-1.9
				c-1.6-0.4-3.2-1.1-4.8-1.1c-3.6-0.1-6.9-4.4-10.6-3c-0.2,0.1-0.4-0.4-0.6-0.6c0.1-0.2,0.3-0.4,0.4-0.5c-1-3.6-2-7.3-3-10.9
				c-3.5,0-6.9-1.1-10,0.4c-3.5,1.6-7,4.8-10.3,7.6c-3.8,3.2-7.3,8.2-11.9,7.3c0.2,5.2-2.7,7.5-2.1,12.7c-2,2.3-2.5,8.4-5.6,8.1
				c-1.6-0.2-3.5,2.2-4.7,4.6c-2,4-5.9,4.4-6,12.4c0,0.2-0.4,0.3-0.5,0.5c-3.3,2.7-6.1,8-10,7.1c-0.5-0.1-1,1.4-1.6,1.5
				c-2.7,0.5-4,7.3-6.9,5.6c-0.7,4.5-1.4,8.1-3.3,10.9c-1.5,2.2-2.7,6.4-3.1,10.2c-0.4,4.1-0.1,8.3-2.4,10.5
				c-0.2,0.2-0.2,1.6-0.3,2.5c-0.2,4.2-0.7,8.5-0.5,12.6c0.3,5.8-1.6,9-2.9,12.7c-1.5,4.1-2.8,9-5.9,7.5c-0.2,2-0.3,3.5-0.5,5
				c-1.1,0.1-2.2-0.2-3.1,0.5c-0.9,0.7-1.6,2.4-2.5,3.8c-0.1,3.4,0.5,7.6-1.3,9.9c-1.5,2-3.2,4.6-4.9,4.9c-2.4,0.4-2.8,3-2.8,6.9
				c0,1.8,0.2,4.1-0.3,5.2c-1.8,4.5-3.9,9.1-6.1,12.1c-2.8,3.8-5.8,7.2-8.6,11.1c-1.5,2.1-2.6,4.4-2.5,8.9c0.1,2.2-0.6,5.2-1.5,6.5
				c-2.4,3.7-4.4,7.4-4.2,14.6c0.3,9.7,0.1,10.2-4.5,11.4c-1.6,0.4-2.5,2-3.1,4.5c-0.7,3.4-1.2,7.1-1.6,10.8c-0.4,3.8-0.8,7-2.4,9.9
				c-1.2,2.2-2.2,6.1-1.7,10.6c0.2,1.8-0.1,4-0.4,5.9c-1.3,9.5-3.6,18.2-4.5,27.9c-0.1,1.5-0.9,2.7-1.3,4.1
				c-0.5,1.8-0.9,3.6-1.3,5.5c-0.9,4.2-1.9,8.3-2.7,12.5c-1,5.4-1.9,10.9-3,16.2c-1.1,5.6,0.3,12.3-1.7,17.6
				c-0.7,1.9-1.1,4.5-1.2,6.9c-0.2,2.9,0.1,5.9,0,8.8c0,1.2-0.3,2.5-0.6,3.4c-0.9,2.5-1,4.6,0.2,7c0.4,0.8,0.5,2.3,0.6,3.5
				c0.9,7.7-1.6,14.4-1.3,21.9c0,1-0.7,2-1,3.1c-2.7,8-2.7,17.9-1.3,25.9c1.4,8.2,1.4,13.8-1.5,19.5c-0.5,1.1-1.2,2.7-1.2,4.1
				c0.1,1.9,0.7,3.7,1.1,5.6c-1.7,2.2-1,9.6-4.4,8.1c0.1,5.4,0.1,10.2,0.1,14.8c-2.4,2.5-4.6,8.2-4.4,12c0.3,6.4-1.5,11.6-1.8,17.6
				c0,0.7,0,1.6-0.2,2c-2.5,5-2.5,11.4-2.4,18c0,2.1-0.5,4.2-0.8,6.9c1.1,2.5,1.4,8.1,0.6,11.4c-0.4,1.4-0.7,3-0.8,4.6
				c-0.2,6.9-0.3,13.9-0.5,20.8c0,0.9,35.8,135,36.7,135c0.1,2.4,0.2,4.3,0.3,5.6c1.7,1.9,3.1,3.5,4.5,5c1.3,1.3,2.8,1.1,4,1.2
				c3.4,0.1,6.5,1.2,9.5,4.3c3,3.1,6.4,5,8.8,9.3c2.7,4.6,5.1,9.8,8.1,13.7c1.8,2.2,3.4,5,5.6,4.2c0.3-0.1,0.6,0.4,0.9,0.5
				c0.2,2.1,0.3,4,0.4,4.7c1.4,1.8,2.4,2.7,3.2,4.2c1.5,2.6,2.4,6.5,4.7,7.1c0.5,0.1,1.3,3.8,1.2,5.5c-0.8,9.4-0.5,18.6,0.6,27.3
				c1.9,1.7,3.4,3.1,4.8,4.3c0.4,2.9,0.6,5.7,1.3,7.9c1.9,6.1,4.4,11.3,4.9,19.3c0.2,3.1,0.5,7.5,1.4,10.2c2,6.3,3.1,13.5,5.5,19.4
				c1.8,4.4,3.1,9.9,4.7,15.4c2.8,2.7,6,6.1,9.7,6.4c2.2,0.2,4,2.1,5.1,6.1c1.9-3.5,2.3-3.6,4.1-1.4c1.5,1.8,3,3.4,4.4,5.3
				c1.2,1.6,2.3,3.4,3.2,5.5c0.8,1.8,1.2,4.8,2.1,6.2c2.2,3.4,3.2,7.5,3,12.9c-0.1,3.5,1,5.3,2.2,6.4c3.9,3.6,7.7,7.5,10.6,15.7
				c0.9-5.3,2.1-4.1,2.9-1.4c1-0.7,2.5-1.9,2.5-1.7c0.7,3.1,2,1.9,3.1,2.4c0.5,0.2,0.9,1.4,1.3,2.1c1.6,2.4,3.3,6.9,4.8,6.8
				c4.8-0.3,9.7,1.8,14.6-2c4.9-3.7,10.3,1.6,15.5,2.2c0.2,0,0.4,0.4,0.5,0.7c1.2,5.1,3.7,5.2,5.6,6.4c0.8,4.9,1.5,9.6,2.1,13.7
				c2.1,0.8,4,0.8,5.6,2.3c3.1,2.9,6.3,5.2,9.7,5.1c0.5,0,1,0.3,1.6,0.5c-1.8,4-1.3,8.3-1.1,11.7c2.6,3,5.1,5.1,7.1,8.4
				c1,1.6,1.4,4.8,2.9,5c1.5,0.2,3.4,1.1,4.5-0.4c3-4.1,6.4-2.6,9.5-3.5c2.9-0.8,6,0.5,9.1,1.1c0.7,0.2,1.5,1.2,2.1,2.3
				c1.2,2.1,2.3,3.7,4,3c1.6-0.6,2.8,0.4,3.9,3.3c0.7,1.8,2.1,3.3,3.2,3.2c1.7-0.2,2.8,1.7,3.9,3.7c2.8,5.2,5.7,6.1,9,6.3
				c3.4,0.2,6.4-2.1,9.5-3.4c2.3-1,4.7-0.2,6.9-3.7c2.5-4,5.6-5.6,8.9-5.8c2.9-0.2,6.1,0.5,8.6-1.8c2.4-2.2,4.7-1.9,7-2.4
				c1.5-0.3,2.9-1.2,4.7-1.9c2,3.6,5,2.8,7.4,0.9c1.2-0.9,2.3-1.7,3.5-1.8c7.1-0.2,14.2-0.2,21.4-0.3c0.9,0,2.2,0.5,2.5-0.4
				c1.5-3.9,3.5-3.3,5.5-4c1.1-0.4,2-3,3.1,0.1c0.1,0.2,0.6-0.2,0.9-0.4c0.9-0.7,1.8-2.2,2.7-2.1c1.8,0.2,3.5-0.5,4.6-3.1
				c1.2-2.8,2.6-2.3,4-2.6c2.1-0.4,4.3-1.2,6.3-1.8c0.4-1.7,0.8-3.2,1.3-5.1c0.8,0,1.8,0.5,2.6-0.1c1.5-1.1,3.4-2,4.1-4.4
				c1.9-6.3,5.1-7.4,8-8.9c2.1-1.1,4.7,0.6,7,1.1c0.2,1.8,0.3,3.1,0.4,4.1c2.8-1.5,5.5-3.6,8.3-4.2c5.2-1,10.4-1.2,15.6-1.7
				c0.4,0,1,0.3,1.3-0.1c1.4-2.6,2.7-4.2,4.1-0.1c0.1,0.2,0.9-0.6,1.3-1c0.5-0.5,1.1-1.3,1.6-1.4c4.4-0.8,8.9,1.5,13.2-2.8
				c2-2,4.8,2.3,6.6-2.7c0-0.1,0.5,0.5,0.8,0.8c0.5,0.5,1.1,1.6,1.6,1.6c3.9-0.2,6.1,5.8,8.4,10.6c2.2,4.7,2,5,5,2.2
				c0.9-0.9,3.2-0.6,3.3,0.1c0.7,4.7,2.4,3.2,3.7,3.2c3.3,0.1,6.6,0.1,9.9-0.1c3.6-0.2,7.1-1.3,10.7-1.1c2,0.2,3.9-1.7,5.9-1
				c2.2,0.8,4.5,2.2,6.7,1.6c2.9-0.8,5.3,3.2,8,2.9c1.6-0.1,3.4-0.8,4.9,0.2c1.4,0.8,2.5,3.4,3.9,5.5c1.7-5,4.4-4.1,6.3-2.1
				c1.3,1.3,2.3,1.5,3.5,1.7c2.5,0.5,4.9,1,7.4,1.2c1.6,0.1,2.9,1.6,4.8,0.5c3.5-2,7.3-1.4,11-1.9c0.5-0.1,1.3,0.4,1.6-0.2
				c2.5-4.6,5.6-2.9,8.3-2.4c3.4,0.7,6-3.9,9.2-3.5c0.3,0,0.7-1.4,0.6-1.3c1.5,0.3,3.4,1.4,3.6,0.7c1.4-5.8,4-3.5,5.8-2.8
				c2.1,0.7,3.7,0.6,5.5-1.3c0.1-2.4,0.1-4.6,0.2-7.7c2.3,0,4.6,0,6.9-0.1c0.1-2.3,0.2-4.2,0.3-5.7c3.1-1.5,5.9-2.9,8.6-4.3
				c0.6-1.7,1-3.8,1.7-5c1.3-1.9,3-3,3.3-7c0-0.4,0.5-1,0.8-0.9c2.2,0.7,3-3.1,4.3-5.5c1.3,2.4,2.5,4.7,4.2,0.8
				c0.3-0.7,1.6,0.3,2.4,0.5c1,0.3,2.3,1.4,2.9,0.6c3.5-4.8,7.5-5.5,11.5-6.3c2.9-0.6,5.7-1.9,8.6-3c0.2-0.1,0.3-1.1,0.6-1.3
				c0.3-0.3,0.9-0.6,1-0.4c1,3.5,2.6,1.5,3.8,1.9c2.5,1,5.1,1.8,7.7,2.8c0.2,0.1,0.5,0.8,0.6,1.4c0.8,4,2.1,2.9,3.3,1.4
				c1.9-2.3,5.2-2.3,7.4,0.2c1.5,1.8,4.4,1,5.7-1.5c1.7,1.7,3.5,2.8,4.8,5.3c1.1,2.2,2.2,2.6,3.4,2.3c3.4-0.7,7,1.6,10.3-2.5
				c1.1-1.4,2.9-0.9,4.2-3c1-1.6,2.4-2.3,3.5-3.5c2.1-2.1,4.9-3.3,6-6.8c1.3-4,2.6-3.3,4.2-3.7c0.3-0.1,0.6-0.5,0.7-0.6
				c0.6-5.7,1.2-11.1,1.8-16.4c1.7-2,3.5-4,5.4-6.2c0.2-6.5,2.1-10,6.5-11.6c0-1.2,0-2.6-0.1-3.8c-0.5-6.9-0.5-7,2.5-7.6
				c1.7-0.4,2.8-2.2,3.2-5.5c0.6-5.6,1.1-11.3,1.6-17.4c0.5-0.2,1.7-0.2,1.9-0.9c1.1-6.1,4.8-8.9,4.8-16.4c0-0.7,0.3-1.7,0.6-2
				c2.9-2.9,3.6-8.9,4.3-14.4c0.5-3.5,1-5,2.7-4.3c1.7,0.7,2.1-0.4,1.5-3.8c-0.6-3.3-0.5-6.8,1-8.9c1.2-1.5,2.5-2.4,3.9-3.6
				c-0.7-8,1.3-12.3,4.5-15.1c0.5-0.4,1.2-1.2,1.2-1.9c0.1-6.2,2.3-6.9,4.7-7.4c0-3.1-1.3-5.7-1.4-8.7c2-0.2,5.1-0.5,7.1-0.7
				c0-3.5-0.1-6.6-0.1-9.2c1.3-1.6,2.3-3.7,3.4-3.9c4.5-0.8,7.4-8.3,11.5-10.9c3.1-2,5.8-5.9,9.3-6c2.3-0.1,4.6-2.6,5.6-6.4
				c1.1-4.2,2.3-6.4,4.6-6c0.7-5,1.3-9.6,1.8-13.8c1.6-1.6,3.3-2.7,4.6-4.8c1.5-2.4,5.1-7.6,6.5-8.8c2.6-2.3,5.5-3.6,7-9.4
				c0.6-2.2,1.3-4.3,1.9-6.5c0.4-1.4,0.9-2.8,1-4.3c0.1-2.4,0-5,0-7.5c-0.1-7.9,1.9-13.3,5.8-15.4c-0.1-5.3-0.1-10.7-0.2-16.1
				c0-2.1-0.5-4.7,1.3-5.1c0.2,0,0.4-1.8,0.6-2.7c0.4-1.8,0.7-3.9,1.3-5.4c1.5-3.8,1.6-6.3,0.3-10.8c-0.3-1.1-0.6-2.5-0.5-3.7
				c0.4-5.7,0.4-11.8,1.4-17c1.6-8.2,1.8-16.3,1-24.7c1-1,2-2,3.1-3.1c-2.3-5.8-2.5-14.3,1.8-18c-0.5-5.6-0.1-10.7,2.6-13.8
				c-0.6-1.1-1-1.8-1.6-2.7c1.2-2.6,2.1-5.5,3.5-7.3c1.2-1.6,1.3-3.6,1-5.7c-0.4-3.3,0.6-5.4,1.5-6.6c1-1.3,1.6-2.7,2.2-4.8
				c0.4-1.4,1.4-2,2.2-3c1.5-1.8,3.2-3.1,4.3-5.6c1.3-3.2,2.4-7.3,2.9-11.3c0.6-4.6,1.5-9.7-0.3-14.4c-0.3-0.9-0.5-2.6-0.4-3.7
				c0.6-3.9,1.5-7.6,2-11.5c0.3-1.8,0-4,0-5.8c-1-1.2-1.9-2.2-2.7-3.1c0-2.1,0-3.9-0.1-5.7c-0.2-6.1-0.7-12.2-0.7-18.3
				c-0.1-7.2,0.2-14.3,0.4-21.5c0.3-7.1,0.9-14.2,1-21.3c0-3.5,1-5.1,1.9-7c1.2-2.6,2.7-4.8,3.7-7.8c0.4-1.2,0.2-4.8-0.4-5.9
				c-2.7-5.2-3.6-11.8-4.1-18.8c-0.1-0.9-0.1-2-0.3-2.6c-2-5.1-3.5-10.4-2.5-17.2c-1.2-1.1-2.3-2-3.4-3c0-2.8-0.1-5.3-0.1-6.9
				c-1.3-2.5-2.3-4.6-3.4-6.3c-1-1.5-2-3.1-3.1-3.6c-2.8-1.3-3.8-3.7-4.2-9.7c-0.1-2.3-0.7-6.1-1.3-6.3c-4.2-1.7-4.1-13.2-8-15.1
				c0,0,0-0.4,0-0.7c-0.1-6.3-2.6-8.5-4.7-11.4c0-1.9-0.4-4.4,0-5.4c2.1-4.9,0.8-10.6,1-15.9c0.1-2.7,0.2-5.6-0.3-8
				c-1.3-6.7-1.4-6.5-0.1-14.1c0.1-0.8-0.2-2-0.3-3c-0.3-1.5-0.6-3-0.9-4.5c-0.3-1.4-0.3-3.2-0.7-4.3c-2-4.8-4.1-9.3-6-14.2
				c-0.9-2.2-1.4-5-2.2-8.3c-0.8-0.1-2.1,0-2.1-4.2c0-2.3-0.8-4-2.4-4.4c-1.7-0.5-3.1-2.3-2.5-7.3c0.2-1.6-0.6-4.4-1.4-5.8
				c-0.8-1.6-2.1-2.4-2.8-3.1c0.3-3.1,1.2-6.6,0.8-7.6c-1.6-3.4-1.1-7.9-2-11.6c-0.2-0.9-0.5-1.9-0.8-2.4c-1.6-2.5-3.2-4.8-5.5-4.2
				c-1.2,0.3-2.6-1.1-3.6-2.7c-1.7-2.7-3.1-6.1-4.7-9.2c-0.4-0.7-0.6-1.9-1.1-2.3c-3.4-2.9-6.8-5.5-9.9-9.7c-1.5-2-3.2-2.9-3.7-7
				c-0.4-3.5-1-6.9-1.3-10.3c-0.1-0.5,0.4-1.3,0.6-2c1.1-3.9,0.5-8.8-1.6-9.1c-1.8-0.3-2.8-2.8-4.2-4.1c-1.4-1.3-2.7-2.7-3.7-3.7
				c-1-3.2-1.9-8-2.8-8.2c-3.2-0.6-5-6.8-8-7.7c-0.7-0.2-1.4-2.5-1.7-4.2c-1.5-7.4-3.3-10.2-7-10.2c-1.1,0-2.2-0.3-3.3,0.1
				c-1.5,0.6-2.5-1.1-3.3-3.1c-1.1-2.8-2-6-3.1-9.6c-4.8,1.6-9.6,0-14.1-3.1c-0.7-5.9-1.5-11.7-2.3-18.6c-3.8,0-7.8,0-11.7,0.1
				c-5.5,0.2-11,0.3-16.5,0.7c-0.8,0.1-1.6,1.6-2.5,1.8c-1.4,0.4-2.8,0.7-4.1,0.3c-1-0.3-2-2.7-3-2.7c-4.4,0.1-8.9,0-13.2,1.5
				c-1.1,0.4-2.4,2.5-3.7,1.9c-2.6-1.2-5,1.5-6.8,3.8c-2.1,2.6-3.9,1.2-5.8,1.9c-2.1,0.7-4,0.2-5.3-4.1c-0.2-0.6-0.7-1.2-1-1.1
				c-2.4,0.9-5.1-2.1-7.4,2.4c-1,1.9-2.8,2.9-4.2,3c-6.9,0.4-13.8,0.3-20.5,0.3c-1.3-4.8-3.5-6.9-4.7-4.7c-0.2,1.5-0.4,3.1-0.6,4.6
				c-2.2,0.2-2.1-0.1-4.6-2c-1.1-0.8-3-1.4-3.4-0.2c-2,4.8-4.8,1.1-7,3.2c-1,1-3.1,0.1-4-1.5c-1.6-3.1-3.1-1.6-4.8-1.2
				c-0.3,0.1-0.5,0.7-0.8,0.6c-4-1.1-7.9-4.7-12-3.9c-0.6,0.1-1.2-0.3-1.6-0.4c0.1-3.2,0.1-5.9,0.2-8.5c-0.6-0.3-0.9-0.4-1.1-0.4
				c-6.2,0-12.5,0-18.7,0.2c-3.3,0.1-5.9-6.3-9.4-4.4c-0.1,0-0.2-0.7-0.4-1c-2.8-5.3-6-8.4-9.9-8.3c-0.4-5.8-2.6-4-4.1-5.5
				c-3.6-3.6-7.2-3.5-10.9-3.5c-2.3,0.1-4.5,1.3-6.8,1.2c-8.3-0.2-16.6-0.8-24.9-1c-5.8-0.1-11.6,0-17.4,0.2c-0.8,0-1.6,0.9-2.3,1.8
				c-1,1.2-2,2.6-2.9,4.1c-1.4,2.3-2.2,0.3-3.2-1.5c-0.4-0.7-1.6-0.7-1.9,0c-1.9,4.5-4.4,1.9-6.7,2.6c-1,0.3-2.2-0.4-2.9,0.6
				c-2.7,4.6-5.8,1.7-8.7,1.8c-1,0-2.2-2.5-3.7-2.4c-4.3,0.3-8.5,0.2-12.8,0.2c-0.8,0-1.9-0.4-2.2,0.4c-1.3,3.6-3.1,2.2-4.7,2.3
				c-4,0.3-7.9,0.6-11.8,3.8c-3.3,2.7-7.2,2.4-10.8,3.2c-1.4,0.3-2.7,0.5-4,2.4c-1.8,2.6-4.4,3.8-6.7,4.3c-3.4,0.7-6.8,0.2-10.2,0.3
				c-1,0-1.9,0.7-2.9,0.7c-1.2,0-2.8,0.4-3.4-0.9c-1.8-4.1-4.1-2.5-6-3.1c-2.9-0.9-6.1-0.2-8.9,1.2c-1,0.5-2.1,2.3-3.4,2.3
				c-8,0-16,0.1-24,0.2c-0.8,0-1.8,0.5-2.2-0.3c-2.3-4.1-4.9-3.7-7.6-3.6c-1.1,0-1.8-0.9-2.7-2.4c-2.5-4-5.3-6.9-8.8-7.2
				c-5.9-0.5-11.9,2.5-17.9-2c-2.7-2-5.7-2.7-7.8-6.6c-1.7-3.2-3.4-3.2-5.3-3.2C679.9-81.5,678.7-80.8,678.8-84.2z"/>
		</g>
	</g>
	<g>
		<g>
			<g>
				<g>
					<g>
						<path class="st5" d="M382.9,384.4l-6.9,3.7l-2.2-4.8c-2.3,2.8-5.7,4.8-10.1,4.8c-8.4,0-12.8-6.9-12.8-17.7
							c0-11.7,5.2-18,13.4-18c3.9,0,6.9,1.4,8.8,4.1v-17.2h7.1v39.7L382.9,384.4z M373.2,379.7v-18.3c-1.8-1.5-4.1-2.4-6.6-2.4
							c-5.2,0-8.3,4-8.3,11.5c0,7.2,2.9,11.2,8.2,11.2C368.8,381.7,371.3,380.9,373.2,379.7z"/>
						<path class="st5" d="M418,371.1h-23.2c0.5,6,5.1,10,12.5,10c3.7,0,7.8-0.8,10.6-2.2l-2.2,7.3c-2.3,1.2-6.2,2-10.6,2
							c-10.6,0-17.5-7.1-17.5-18c0-10.9,6.6-17.6,17.2-17.6c8.7,0,14.2,5,14.2,13C418.8,367.4,418.5,369.5,418,371.1z M395.2,366.2
							h16.7c-0.3-5.1-2.8-7.5-7.3-7.5C399.7,358.7,396.3,361.5,395.2,366.2z"/>
						<path class="st5" d="M435.2,387.3l-13.4-33.9h7.8l8.7,23.7l1,2.9h0.3l1-2.9l8.7-23.7h7.7l-13.3,33.9H435.2z"/>
						<path class="st5" d="M480.1,353.4h15.3l-1,5.4h-15.3l-5.4,30.5c-1.5,8.5-7.2,11.7-15.2,11.7c-3.7,0-5.4-0.5-7.2-0.9l-0.1-5.5
							c1.8,0.3,4,0.5,7,0.5c4.8,0,7.9-1.9,8.7-5.9l5.4-30.5h-10.7l1-5.4h10.7l0.5-3.1c1.5-8.5,7.1-11.7,15.1-11.7
							c3.7,0,5.6,0.5,7.3,0.9l0.1,5.6c-1.8-0.5-4-0.7-7-0.7c-4.7,0-7.9,1.9-8.6,5.9L480.1,353.4z"/>
						<path class="st5" d="M527.1,371.1h-23.2c0.5,6,5.1,10,12.5,10c3.7,0,7.8-0.8,10.6-2.2l-2.2,7.3c-2.3,1.2-6.2,2-10.6,2
							c-10.6,0-17.5-7.1-17.5-18c0-10.9,6.6-17.6,17.2-17.6c8.7,0,14.2,5,14.2,13C528,367.4,527.6,369.5,527.1,371.1z M504.3,366.2
							H521c-0.3-5.1-2.8-7.5-7.3-7.5C508.8,358.7,505.4,361.5,504.3,366.2z"/>
						<path class="st5" d="M534.7,385.3l-0.5-7.6c3,2.1,8.5,3.9,14.3,3.9c4.4,0,7.5-1.4,7.5-4.5c0-6.4-21.1-0.5-21.1-13.6
							c0-6.1,4.6-11.3,15.5-11.3c6.7,0,11.8,1.6,11.8,5.7c0,1.2-0.5,2.3-1,3.3c-2.9-1.4-7.4-2.4-11.2-2.4c-5.2,0-8,2-8,4.1
							c0,5.7,21.4,0.7,21.4,13.5c0,7.1-6.3,11.6-15.7,11.6C541.4,388.2,536.6,386.1,534.7,385.3z"/>
						<path class="st5" d="M599.9,380.1l-1.4,6.6c-1.7,0.7-5.1,1.4-8.3,1.4c-8.5,0-12.1-4.4-12.1-10.6v-18.2h-9.6v-6h9.6V344h7.1
							v9.3h13.7v6h-13.7v16.1c0,4.4,2.3,6.4,6.3,6.4C593.8,381.7,598,381.2,599.9,380.1z"/>
					</g>
				</g>
				<g>
					<path class="st6" d="M637,384v3.3h-23.2v-3.5c10.3-8.6,17.1-13.6,17.1-20.5c0-4.9-3.3-7.1-7.8-7.1c-3.5,0-6.5,1.5-8.1,2.8
						c-0.5-0.3-1.2-1-1.2-2.1c0-2.5,4.4-4.4,9.5-4.4c7,0,11.5,3.7,11.5,10.5c0,8.4-7,13.7-16.3,21H637z"/>
					<path class="st6" d="M642.7,370.2c0-11.6,4.8-17.7,12.7-17.7c7.8,0,12.7,6.1,12.7,17.7s-4.9,17.7-12.7,17.7
						C647.5,387.9,642.7,381.9,642.7,370.2z M664,370.2c0-9.3-3-14-8.6-14c-5.6,0-8.6,4.6-8.6,14c0,9.3,3,14,8.6,14
						C660.9,384.3,664,379.6,664,370.2z M652.6,372.8v-5.3h5.4v5.3H652.6z"/>
					<path class="st6" d="M697.1,384v3.3h-23.2v-3.5c10.3-8.6,17.1-13.6,17.1-20.5c0-4.9-3.3-7.1-7.8-7.1c-3.5,0-6.5,1.5-8.1,2.8
						c-0.5-0.3-1.2-1-1.2-2.1c0-2.5,4.4-4.4,9.5-4.4c7,0,11.5,3.7,11.5,10.5c0,8.4-7,13.7-16.3,21H697.1z"/>
					<path class="st6" d="M727.1,384v3.3H704v-3.5c10.3-8.6,17.1-13.6,17.1-20.5c0-4.9-3.3-7.1-7.8-7.1c-3.5,0-6.5,1.5-8.1,2.8
						c-0.5-0.3-1.2-1-1.2-2.1c0-2.5,4.4-4.4,9.5-4.4c7,0,11.5,3.7,11.5,10.5c0,8.4-7,13.7-16.3,21H727.1z"/>
				</g>
				<g>
					<g>
						<path class="st5" d="M382.9,384.4l-6.9,3.7l-2.2-4.8c-2.3,2.8-5.7,4.8-10.1,4.8c-8.4,0-12.8-6.9-12.8-17.7
							c0-11.7,5.2-17.9,13.4-17.9c3.9,0,6.9,1.4,8.8,4.1v-17.2h7.1v39.7L382.9,384.4z M373.2,379.7v-18.3c-1.8-1.5-4.1-2.4-6.5-2.4
							c-5.2,0-8.3,4-8.3,11.5c0,7.2,2.9,11.2,8.2,11.2C368.8,381.7,371.3,380.9,373.2,379.7z"/>
						<path class="st5" d="M418,371.1h-23.2c0.5,6,5.1,10,12.4,10c3.7,0,7.8-0.8,10.5-2.2l-2.2,7.3c-2.3,1.2-6.2,2-10.6,2
							c-10.5,0-17.5-7.1-17.5-18c0-10.9,6.6-17.6,17.2-17.6c8.7,0,14.2,5,14.2,13C418.8,367.4,418.5,369.6,418,371.1z M395.2,366.2
							h16.7c-0.3-5.1-2.8-7.5-7.3-7.5C399.7,358.7,396.3,361.5,395.2,366.2z"/>
						<path class="st5" d="M435.2,387.3l-13.4-33.9h7.8l8.7,23.7l1,2.9h0.3l1-2.9l8.6-23.7h7.7l-13.3,33.9H435.2z"/>
						<path class="st5" d="M480.1,353.4h15.3l-1,5.4h-15.3l-5.4,30.5c-1.5,8.5-7.2,11.7-15.2,11.7c-3.7,0-5.4-0.5-7.2-0.9l-0.1-5.5
							c1.8,0.3,4,0.5,7,0.5c4.8,0,7.9-1.9,8.6-5.9l5.4-30.5h-10.7l1-5.4h10.7l0.5-3.1c1.5-8.4,7.1-11.7,15.1-11.7
							c3.7,0,5.6,0.5,7.3,0.9l0.1,5.6c-1.8-0.5-4-0.7-7-0.7c-4.7,0-7.9,1.9-8.6,5.9L480.1,353.4z"/>
						<path class="st5" d="M527,371.1h-23.2c0.5,6,5.1,10,12.4,10c3.7,0,7.8-0.8,10.5-2.2l-2.2,7.3c-2.3,1.2-6.2,2-10.6,2
							c-10.5,0-17.5-7.1-17.5-18c0-10.9,6.6-17.6,17.2-17.6c8.7,0,14.2,5,14.2,13C527.9,367.4,527.5,369.6,527,371.1z M504.2,366.2
							h16.7c-0.3-5.1-2.8-7.5-7.3-7.5C508.7,358.7,505.3,361.5,504.2,366.2z"/>
						<path class="st5" d="M534.6,385.3l-0.5-7.6c3,2.1,8.5,3.9,14.3,3.9c4.4,0,7.5-1.4,7.5-4.5c0-6.4-21.1-0.5-21.1-13.6
							c0-6.1,4.6-11.3,15.5-11.3c6.7,0,11.8,1.6,11.8,5.7c0,1.2-0.5,2.3-1,3.3c-2.9-1.4-7.4-2.4-11.2-2.4c-5.2,0-8,2-8,4.1
							c0,5.7,21.4,0.7,21.4,13.5c0,7.1-6.3,11.6-15.7,11.6C541.3,388.2,536.5,386.1,534.6,385.3z"/>
						<path class="st5" d="M599.8,380.1l-1.4,6.6c-1.7,0.7-5.1,1.4-8.3,1.4c-8.4,0-12.1-4.4-12.1-10.6v-18.2h-9.6v-6h9.6v-9.3h7.1
							v9.3h13.7v6h-13.7v16c0,4.4,2.3,6.4,6.3,6.4C593.7,381.7,597.9,381.2,599.8,380.1z"/>
					</g>
				</g>
				<g>
					<path class="st6" d="M636.8,384v3.3h-23.2v-3.5c10.3-8.6,17.1-13.6,17.1-20.5c0-4.9-3.3-7.1-7.8-7.1c-3.5,0-6.5,1.5-8.1,2.8
						c-0.5-0.3-1.2-1-1.2-2.1c0-2.5,4.4-4.4,9.5-4.4c7,0,11.5,3.7,11.5,10.5c0,8.4-7,13.7-16.3,21H636.8z"/>
					<path class="st6" d="M642.6,370.3c0-11.6,4.8-17.7,12.6-17.7c7.8,0,12.6,6.1,12.6,17.7s-4.9,17.7-12.6,17.7
						C647.4,387.9,642.6,381.9,642.6,370.3z M663.8,370.3c0-9.3-3-14-8.5-14c-5.6,0-8.6,4.6-8.6,14c0,9.3,3,14,8.6,14
						C660.8,384.3,663.8,379.6,663.8,370.3z M652.5,372.8v-5.3h5.4v5.3H652.5z"/>
					<path class="st6" d="M696.9,384v3.3h-23.2v-3.5c10.3-8.6,17.1-13.6,17.1-20.5c0-4.9-3.3-7.1-7.8-7.1c-3.5,0-6.5,1.5-8.1,2.8
						c-0.5-0.3-1.2-1-1.2-2.1c0-2.5,4.4-4.4,9.5-4.4c7,0,11.5,3.7,11.5,10.5c0,8.4-7,13.7-16.3,21H696.9z"/>
					<path class="st6" d="M726.9,384v3.3h-23.1v-3.5c10.3-8.6,17.1-13.6,17.1-20.5c0-4.9-3.3-7.1-7.8-7.1c-3.5,0-6.5,1.5-8.1,2.8
						c-0.5-0.3-1.2-1-1.2-2.1c0-2.5,4.4-4.4,9.5-4.4c7,0,11.5,3.7,11.5,10.5c0,8.4-7,13.7-16.3,21H726.9z"/>
				</g>
			</g>
			<g>
				<g>
					<path class="st5" d="M443.9,309.5c-1.3-0.7-2.3-1.7-3-3c-0.7-1.3-1.1-2.7-1.1-4.2s0.4-2.9,1.1-4.2c0.7-1.3,1.7-2.3,3-3
						c1.3-0.7,2.6-1.1,4.1-1.1c1.2,0,2.3,0.2,3.3,0.6c1,0.4,1.9,1,2.5,1.8l-1.4,1.4c-0.5-0.6-1.2-1.1-1.9-1.4
						c-0.8-0.3-1.6-0.5-2.5-0.5c-1.1,0-2.1,0.3-3.1,0.8c-1,0.5-1.7,1.3-2.3,2.3c-0.6,1-0.9,2.1-0.9,3.4c0,1.3,0.3,2.4,0.9,3.4
						c0.6,1,1.4,1.7,2.3,2.3c1,0.5,2,0.8,3.1,0.8c1.1,0,2-0.2,2.7-0.5c0.7-0.3,1.3-0.8,1.9-1.3c0.4-0.4,0.7-0.9,0.9-1.5
						c0.2-0.6,0.4-1.2,0.4-1.9h-5.9v-1.8h7.6c0.1,0.4,0.1,0.8,0.1,1.2c0,1-0.2,1.9-0.5,2.9c-0.3,0.9-0.8,1.7-1.5,2.4
						c-1.5,1.6-3.4,2.4-5.8,2.4C446.6,310.6,445.2,310.2,443.9,309.5z"/>
					<path class="st5" d="M460,309.8c-0.9-0.5-1.5-1.2-2-2.1c-0.5-0.9-0.7-1.9-0.7-3c0-1.1,0.2-2.1,0.7-3c0.5-0.9,1.2-1.6,2-2.1
						c0.9-0.5,1.8-0.8,2.9-0.8c1.1,0,2.1,0.3,2.9,0.8c0.9,0.5,1.5,1.2,2,2.1c0.5,0.9,0.7,1.9,0.7,3c0,1.1-0.2,2.1-0.7,3
						c-0.5,0.9-1.2,1.6-2,2.1c-0.9,0.5-1.8,0.8-2.9,0.8C461.8,310.6,460.9,310.4,460,309.8z M464.8,308.4c0.6-0.3,1-0.8,1.4-1.5
						c0.3-0.6,0.5-1.4,0.5-2.2c0-0.8-0.2-1.6-0.5-2.2c-0.3-0.6-0.8-1.1-1.4-1.5c-0.6-0.3-1.2-0.5-1.9-0.5c-0.7,0-1.3,0.2-1.8,0.5
						c-0.6,0.3-1,0.8-1.4,1.5c-0.3,0.6-0.5,1.4-0.5,2.2c0,0.8,0.2,1.6,0.5,2.2c0.3,0.6,0.8,1.1,1.4,1.5c0.6,0.3,1.2,0.5,1.8,0.5
						C463.6,308.9,464.2,308.7,464.8,308.4z"/>
					<path class="st5" d="M472.6,309.8c-0.9-0.5-1.5-1.2-2-2.1c-0.5-0.9-0.7-1.9-0.7-3c0-1.1,0.2-2.1,0.7-3c0.5-0.9,1.2-1.6,2-2.1
						c0.9-0.5,1.8-0.8,2.9-0.8s2.1,0.3,2.9,0.8c0.9,0.5,1.5,1.2,2,2.1c0.5,0.9,0.7,1.9,0.7,3c0,1.1-0.2,2.1-0.7,3
						c-0.5,0.9-1.2,1.6-2,2.1c-0.9,0.5-1.8,0.8-2.9,0.8S473.5,310.4,472.6,309.8z M477.4,308.4c0.6-0.3,1-0.8,1.4-1.5
						c0.3-0.6,0.5-1.4,0.5-2.2c0-0.8-0.2-1.6-0.5-2.2c-0.3-0.6-0.8-1.1-1.4-1.5c-0.6-0.3-1.2-0.5-1.9-0.5c-0.7,0-1.3,0.2-1.8,0.5
						c-0.6,0.3-1,0.8-1.4,1.5c-0.3,0.6-0.5,1.4-0.5,2.2c0,0.8,0.2,1.6,0.5,2.2c0.3,0.6,0.8,1.1,1.4,1.5c0.6,0.3,1.2,0.5,1.8,0.5
						C476.2,308.9,476.8,308.7,477.4,308.4z"/>
					<path class="st5" d="M484.7,314.5c-0.8-0.6-1.4-1.4-1.7-2.2l1.8-0.7c0.2,0.7,0.6,1.2,1.2,1.6c0.6,0.4,1.2,0.6,2,0.6
						c1.2,0,2.1-0.3,2.7-1c0.6-0.7,0.9-1.6,0.9-2.8v-1.2h-0.1c-0.4,0.6-0.9,1-1.5,1.4c-0.7,0.4-1.4,0.6-2.3,0.6
						c-0.9,0-1.8-0.3-2.6-0.8c-0.8-0.5-1.4-1.2-1.9-2.1c-0.5-0.9-0.7-1.9-0.7-3c0-1.1,0.2-2.1,0.7-3c0.5-0.9,1.1-1.6,1.9-2.1
						c0.8-0.5,1.7-0.8,2.6-0.8c0.8,0,1.6,0.2,2.3,0.6c0.7,0.4,1.2,0.8,1.5,1.4h0.1v-1.6h1.8v10.6c0,1.2-0.2,2.2-0.7,3.1
						c-0.5,0.8-1.1,1.5-1.9,1.9c-0.8,0.4-1.7,0.6-2.8,0.6C486.6,315.4,485.5,315.1,484.7,314.5z M489.8,308.4c0.5-0.3,1-0.8,1.3-1.4
						s0.5-1.4,0.5-2.2c0-0.8-0.2-1.6-0.5-2.2c-0.3-0.6-0.8-1.1-1.3-1.4c-0.5-0.3-1.1-0.5-1.8-0.5s-1.3,0.2-1.8,0.5
						c-0.5,0.3-1,0.8-1.3,1.4c-0.3,0.6-0.5,1.4-0.5,2.2c0,0.8,0.2,1.6,0.5,2.2c0.3,0.6,0.8,1.1,1.3,1.4c0.5,0.3,1.1,0.5,1.8,0.5
						S489.2,308.7,489.8,308.4z"/>
					<path class="st5" d="M495.6,294.4h1.9v15.9h-1.9V294.4z"/>
					<path class="st5" d="M501.9,309.9c-0.8-0.5-1.5-1.2-2-2.1c-0.5-0.9-0.7-1.9-0.7-3c0-1.1,0.2-2,0.7-2.9c0.4-0.9,1.1-1.6,1.9-2.1
						s1.8-0.8,2.8-0.8c1.1,0,2,0.2,2.8,0.7c0.8,0.5,1.4,1.2,1.9,2c0.4,0.9,0.6,1.9,0.6,3c0,0.2,0,0.4,0,0.4h-8.7
						c0,0.8,0.2,1.5,0.6,2.1c0.4,0.6,0.8,1,1.4,1.3c0.6,0.3,1.1,0.4,1.7,0.4c1.4,0,2.5-0.7,3.2-2l1.7,0.8c-0.5,0.9-1.1,1.6-2,2.1
						c-0.8,0.5-1.8,0.8-3,0.8C503.7,310.6,502.7,310.4,501.9,309.9z M507.9,303.5c0-0.4-0.2-0.9-0.4-1.3c-0.2-0.4-0.6-0.8-1.1-1.1
						c-0.5-0.3-1.1-0.5-1.9-0.5c-0.8,0-1.5,0.3-2.2,0.8c-0.6,0.5-1,1.2-1.2,2.1H507.9z"/>
					<path class="st5" d="M517.1,294.4h4.8c1.6,0,3,0.3,4.3,1c1.2,0.7,2.1,1.6,2.8,2.8c0.7,1.2,1,2.6,1,4.1c0,1.6-0.3,2.9-1,4.1
						c-0.7,1.2-1.6,2.1-2.8,2.8c-1.2,0.7-2.6,1-4.3,1h-4.8V294.4z M522,308.5c1.9,0,3.4-0.5,4.5-1.6c1.1-1.1,1.6-2.6,1.6-4.5
						c0-1.9-0.5-3.4-1.6-4.5c-1.1-1.1-2.6-1.6-4.5-1.6H519v12.3H522z"/>
					<path class="st5" d="M534.3,309.9c-0.8-0.5-1.5-1.2-2-2.1c-0.5-0.9-0.7-1.9-0.7-3c0-1.1,0.2-2,0.7-2.9c0.4-0.9,1.1-1.6,1.9-2.1
						s1.8-0.8,2.8-0.8c1.1,0,2,0.2,2.8,0.7c0.8,0.5,1.4,1.2,1.9,2c0.4,0.9,0.6,1.9,0.6,3c0,0.2,0,0.4,0,0.4h-8.7
						c0,0.8,0.2,1.5,0.6,2.1c0.4,0.6,0.8,1,1.4,1.3c0.6,0.3,1.1,0.4,1.7,0.4c1.4,0,2.5-0.7,3.2-2l1.7,0.8c-0.5,0.9-1.1,1.6-2,2.1
						c-0.8,0.5-1.8,0.8-3,0.8C536.1,310.6,535.1,310.4,534.3,309.9z M540.3,303.5c0-0.4-0.2-0.9-0.4-1.3c-0.2-0.4-0.6-0.8-1.1-1.1
						c-0.5-0.3-1.1-0.5-1.9-0.5c-0.8,0-1.5,0.3-2.2,0.8c-0.6,0.5-1,1.2-1.2,2.1H540.3z"/>
					<path class="st5" d="M542.7,299.2h2l3.4,8.8h0l3.4-8.8h2l-4.5,11h-1.9L542.7,299.2z"/>
					<path class="st5" d="M557.1,309.9c-0.8-0.5-1.5-1.2-2-2.1c-0.5-0.9-0.7-1.9-0.7-3c0-1.1,0.2-2,0.7-2.9c0.4-0.9,1.1-1.6,1.9-2.1
						s1.8-0.8,2.8-0.8c1.1,0,2,0.2,2.8,0.7c0.8,0.5,1.4,1.2,1.9,2c0.4,0.9,0.6,1.9,0.6,3c0,0.2,0,0.4,0,0.4h-8.7
						c0,0.8,0.2,1.5,0.6,2.1c0.4,0.6,0.8,1,1.4,1.3c0.6,0.3,1.1,0.4,1.7,0.4c1.4,0,2.5-0.7,3.2-2l1.7,0.8c-0.5,0.9-1.1,1.6-2,2.1
						c-0.8,0.5-1.8,0.8-3,0.8C558.9,310.6,557.9,310.4,557.1,309.9z M563.1,303.5c0-0.4-0.2-0.9-0.4-1.3c-0.2-0.4-0.6-0.8-1.1-1.1
						c-0.5-0.3-1.1-0.5-1.9-0.5c-0.8,0-1.5,0.3-2.2,0.8c-0.6,0.5-1,1.2-1.2,2.1H563.1z"/>
					<path class="st5" d="M567,294.4h1.9v15.9H567V294.4z"/>
					<path class="st5" d="M573.4,309.8c-0.9-0.5-1.5-1.2-2-2.1c-0.5-0.9-0.7-1.9-0.7-3c0-1.1,0.2-2.1,0.7-3c0.5-0.9,1.2-1.6,2-2.1
						c0.9-0.5,1.8-0.8,2.9-0.8c1.1,0,2.1,0.3,2.9,0.8c0.9,0.5,1.5,1.2,2,2.1c0.5,0.9,0.7,1.9,0.7,3c0,1.1-0.2,2.1-0.7,3
						c-0.5,0.9-1.2,1.6-2,2.1c-0.9,0.5-1.8,0.8-2.9,0.8C575.2,310.6,574.3,310.4,573.4,309.8z M578.2,308.4c0.6-0.3,1-0.8,1.4-1.5
						c0.3-0.6,0.5-1.4,0.5-2.2c0-0.8-0.2-1.6-0.5-2.2c-0.3-0.6-0.8-1.1-1.4-1.5c-0.6-0.3-1.2-0.5-1.9-0.5c-0.7,0-1.3,0.2-1.8,0.5
						c-0.6,0.3-1,0.8-1.4,1.5c-0.3,0.6-0.5,1.4-0.5,2.2c0,0.8,0.2,1.6,0.5,2.2c0.3,0.6,0.8,1.1,1.4,1.5c0.6,0.3,1.2,0.5,1.8,0.5
						C577,308.9,577.6,308.7,578.2,308.4z"/>
					<path class="st5" d="M583.7,299.2h1.8v1.6h0.1c0.4-0.6,0.9-1,1.5-1.4s1.4-0.6,2.3-0.6c0.9,0,1.8,0.3,2.6,0.8
						c0.8,0.5,1.4,1.2,1.9,2.1c0.5,0.9,0.7,1.9,0.7,3c0,1.1-0.2,2.1-0.7,3c-0.5,0.9-1.1,1.6-1.9,2.1c-0.8,0.5-1.7,0.8-2.6,0.8
						c-0.9,0-1.6-0.2-2.3-0.6s-1.2-0.9-1.5-1.4h-0.1l0.1,1.5v4.9h-1.9V299.2z M590.9,308.4c0.6-0.3,1-0.8,1.3-1.5
						c0.3-0.6,0.5-1.4,0.5-2.2c0-0.8-0.2-1.6-0.5-2.2c-0.3-0.6-0.8-1.1-1.3-1.5c-0.6-0.3-1.2-0.5-1.8-0.5c-0.7,0-1.3,0.2-1.8,0.5
						c-0.6,0.3-1,0.8-1.3,1.4c-0.3,0.6-0.5,1.4-0.5,2.2c0,0.8,0.2,1.6,0.5,2.2c0.3,0.6,0.8,1.1,1.3,1.5c0.6,0.3,1.2,0.5,1.8,0.5
						C589.8,308.9,590.4,308.7,590.9,308.4z"/>
					<path class="st5" d="M599.1,309.9c-0.8-0.5-1.5-1.2-2-2.1c-0.5-0.9-0.7-1.9-0.7-3c0-1.1,0.2-2,0.7-2.9c0.4-0.9,1.1-1.6,1.9-2.1
						c0.8-0.5,1.8-0.8,2.8-0.8c1.1,0,2,0.2,2.8,0.7c0.8,0.5,1.4,1.2,1.9,2c0.4,0.9,0.6,1.9,0.6,3c0,0.2,0,0.4,0,0.4h-8.7
						c0,0.8,0.2,1.5,0.6,2.1c0.4,0.6,0.8,1,1.4,1.3c0.6,0.3,1.1,0.4,1.7,0.4c1.4,0,2.5-0.7,3.2-2l1.7,0.8c-0.5,0.9-1.1,1.6-2,2.1
						c-0.8,0.5-1.8,0.8-3,0.8C600.8,310.6,599.9,310.4,599.1,309.9z M605.1,303.5c0-0.4-0.2-0.9-0.4-1.3c-0.2-0.4-0.6-0.8-1.1-1.1
						c-0.5-0.3-1.1-0.5-1.9-0.5c-0.8,0-1.5,0.3-2.2,0.8c-0.6,0.5-1,1.2-1.2,2.1H605.1z"/>
					<path class="st5" d="M609,299.2h1.8v1.8h0.1c0.2-0.6,0.6-1.1,1.3-1.5c0.6-0.4,1.3-0.6,1.9-0.6c0.5,0,0.9,0.1,1.3,0.2v2
						c-0.4-0.2-0.9-0.3-1.6-0.3c-0.5,0-1,0.2-1.5,0.5c-0.5,0.3-0.8,0.7-1.1,1.2c-0.3,0.5-0.4,1.1-0.4,1.6v6.1H609V299.2z"/>
					<path class="st5" d="M625.1,309.5c-1.3-0.7-2.3-1.7-3-3c-0.7-1.3-1.1-2.7-1.1-4.2s0.4-2.9,1.1-4.2c0.7-1.3,1.7-2.3,3-3
						c1.3-0.7,2.6-1.1,4.1-1.1c1.2,0,2.3,0.2,3.3,0.6c1,0.4,1.9,1,2.5,1.8l-1.4,1.4c-0.5-0.6-1.2-1.1-1.9-1.4
						c-0.8-0.3-1.6-0.5-2.5-0.5c-1.1,0-2.1,0.3-3.1,0.8c-1,0.5-1.7,1.3-2.3,2.3c-0.6,1-0.9,2.1-0.9,3.4c0,1.3,0.3,2.4,0.9,3.4
						c0.6,1,1.4,1.7,2.3,2.3c1,0.5,2,0.8,3.1,0.8c1.1,0,2-0.2,2.7-0.5c0.7-0.3,1.3-0.8,1.9-1.3c0.4-0.4,0.7-0.9,0.9-1.5
						c0.2-0.6,0.4-1.2,0.4-1.9h-5.9v-1.8h7.6c0.1,0.4,0.1,0.8,0.1,1.2c0,1-0.2,1.9-0.5,2.9c-0.3,0.9-0.8,1.7-1.5,2.4
						c-1.5,1.6-3.4,2.4-5.8,2.4C627.7,310.6,626.3,310.2,625.1,309.5z"/>
					<path class="st5" d="M639.2,299.2h1.8v1.8h0.1c0.2-0.6,0.6-1.1,1.3-1.5c0.6-0.4,1.3-0.6,1.9-0.6c0.5,0,0.9,0.1,1.3,0.2v2
						c-0.4-0.2-0.9-0.3-1.6-0.3c-0.5,0-1,0.2-1.5,0.5c-0.5,0.3-0.8,0.7-1.1,1.2c-0.3,0.5-0.4,1.1-0.4,1.6v6.1h-1.9V299.2z"/>
					<path class="st5" d="M648.5,309.8c-0.9-0.5-1.5-1.2-2-2.1c-0.5-0.9-0.7-1.9-0.7-3c0-1.1,0.2-2.1,0.7-3c0.5-0.9,1.2-1.6,2-2.1
						c0.9-0.5,1.8-0.8,2.9-0.8c1.1,0,2.1,0.3,2.9,0.8c0.9,0.5,1.5,1.2,2,2.1c0.5,0.9,0.7,1.9,0.7,3c0,1.1-0.2,2.1-0.7,3
						c-0.5,0.9-1.2,1.6-2,2.1c-0.9,0.5-1.8,0.8-2.9,0.8C650.3,310.6,649.4,310.4,648.5,309.8z M653.3,308.4c0.6-0.3,1-0.8,1.4-1.5
						c0.3-0.6,0.5-1.4,0.5-2.2c0-0.8-0.2-1.6-0.5-2.2c-0.3-0.6-0.8-1.1-1.4-1.5c-0.6-0.3-1.2-0.5-1.9-0.5c-0.7,0-1.3,0.2-1.8,0.5
						c-0.6,0.3-1,0.8-1.4,1.5c-0.3,0.6-0.5,1.4-0.5,2.2c0,0.8,0.2,1.6,0.5,2.2c0.3,0.6,0.8,1.1,1.4,1.5c0.6,0.3,1.2,0.5,1.8,0.5
						C652.1,308.9,652.7,308.7,653.3,308.4z"/>
					<path class="st5" d="M659.8,309.4c-0.7-0.8-1.1-1.9-1.1-3.3v-6.9h1.9v6.6c0,2,0.9,3,2.7,3c0.6,0,1.2-0.2,1.6-0.5
						c0.5-0.3,0.9-0.8,1.1-1.3c0.3-0.5,0.4-1.1,0.4-1.7v-6.1h1.9v11h-1.8v-1.6h-0.1c-0.3,0.6-0.8,1-1.5,1.4
						c-0.7,0.4-1.4,0.6-2.1,0.6C661.6,310.6,660.5,310.2,659.8,309.4z"/>
					<path class="st5" d="M670.8,299.2h1.8v1.6h0.1c0.4-0.6,0.9-1,1.5-1.4s1.4-0.6,2.3-0.6c0.9,0,1.8,0.3,2.6,0.8
						c0.8,0.5,1.4,1.2,1.9,2.1c0.5,0.9,0.7,1.9,0.7,3c0,1.1-0.2,2.1-0.7,3c-0.5,0.9-1.1,1.6-1.9,2.1c-0.8,0.5-1.7,0.8-2.6,0.8
						c-0.9,0-1.6-0.2-2.3-0.6s-1.2-0.9-1.5-1.4h-0.1l0.1,1.5v4.9h-1.9V299.2z M678.1,308.4c0.6-0.3,1-0.8,1.3-1.5
						c0.3-0.6,0.5-1.4,0.5-2.2c0-0.8-0.2-1.6-0.5-2.2c-0.3-0.6-0.8-1.1-1.3-1.5c-0.6-0.3-1.2-0.5-1.8-0.5c-0.7,0-1.3,0.2-1.8,0.5
						c-0.6,0.3-1,0.8-1.3,1.4c-0.3,0.6-0.5,1.4-0.5,2.2c0,0.8,0.2,1.6,0.5,2.2c0.3,0.6,0.8,1.1,1.3,1.5c0.6,0.3,1.2,0.5,1.8,0.5
						C676.9,308.9,677.5,308.7,678.1,308.4z"/>
					<path class="st5" d="M684.5,309.7c-0.8-0.6-1.4-1.3-1.7-2.2l1.7-0.7c0.3,0.7,0.7,1.2,1.3,1.6c0.5,0.4,1.1,0.6,1.8,0.6
						c0.7,0,1.3-0.2,1.8-0.5c0.5-0.3,0.7-0.7,0.7-1.1c0-0.4-0.2-0.8-0.5-1.1c-0.3-0.3-0.9-0.5-1.8-0.7l-1.5-0.4
						c-0.8-0.2-1.5-0.5-2.1-1c-0.6-0.5-0.9-1.2-0.9-2c0-0.7,0.2-1.3,0.6-1.8c0.4-0.5,0.9-0.9,1.6-1.1c0.7-0.3,1.4-0.4,2.1-0.4
						c0.9,0,1.8,0.2,2.6,0.7c0.8,0.4,1.3,1.1,1.7,1.9l-1.7,0.7c-0.2-0.5-0.6-0.9-1.1-1.2c-0.5-0.3-1-0.4-1.6-0.4
						c-0.6,0-1.1,0.1-1.6,0.4c-0.5,0.3-0.7,0.6-0.7,1.1c0,0.4,0.2,0.7,0.5,0.9c0.3,0.2,0.8,0.4,1.5,0.6l1.6,0.4
						c1.1,0.3,1.9,0.7,2.5,1.3c0.5,0.6,0.8,1.2,0.8,2c0,0.6-0.2,1.2-0.6,1.7c-0.4,0.5-0.9,0.9-1.6,1.2c-0.7,0.3-1.4,0.4-2.3,0.4
						C686.3,310.6,685.3,310.3,684.5,309.7z"/>
				</g>
				<g>
					<path class="st5" d="M403.7,306.6l-12.3-7.1c-1.7-1-3.8-0.4-4.8,1.3c-0.9,1.7-0.4,3.8,1.3,4.7l12.3,7.1
						c1.7,0.9,3.8,0.3,4.8-1.4C405.8,309.6,405.3,307.6,403.7,306.6z"/>
					<path class="st5" d="M428.3,299.5l-12.3-7.1c-1.7-0.9-3.8-0.3-4.8,1.4c-0.9,1.6-0.3,3.7,1.3,4.7l12.3,7.1
						c1.7,1,3.8,0.4,4.8-1.3C430.5,302.6,429.9,300.4,428.3,299.5z"/>
					<path class="st5" d="M424.3,306.4l-5.7-3.3l-6.1,3.5c-1.7,1-2.3,3.1-1.3,4.8s3.1,2.3,4.8,1.3l9.9-5.7
						C425.3,306.9,424.7,306.7,424.3,306.4z"/>
					<path class="st5" d="M391.9,298.6l5.7,3.3l6.1-3.5c1.6-1,2.2-3.2,1.1-4.8c-1-1.6-3-2.1-4.7-1.2l-9.9,5.7
						C390.8,298.2,391.4,298.3,391.9,298.6z"/>
				</g>
			</g>
		</g>
		<text transform="matrix(1 0 0 1 519.0322 435.998)" class="st7 st8 st9">George Town</text>
	</g>
	<rect class="st10" width="1080" height="1122.1"/>
</g>
</svg>
