<?xml version="1.0" encoding="utf-8"?>
<!-- Generator: Adobe Illustrator 25.3.1, SVG Export Plug-In . SVG Version: 6.00 Build 0)  -->
<svg version="1.1" xmlns="http://www.w3.org/2000/svg" xmlns:xlink="http://www.w3.org/1999/xlink" x="0px" y="0px"
	 viewBox="0 0 123 100" style="enable-background:new 0 0 123 100;" xml:space="preserve">
<style type="text/css">
	.st0{display:none;}
	.st1{display:inline;}
	.st2{fill-rule:evenodd;clip-rule:evenodd;fill:#FDE293;}
	.st3{fill:none;stroke:#34A853;stroke-width:2.475;}
	.st4{fill:#FDBB11;}
</style>
<g id="Layer_1" class="st0">
	<g class="st1">
		<path class="st2" d="M0,14.5C0,6.5,6.5,0,14.5,0S29,6.5,29,14.5S22.5,29,14.5,29S0,22.5,0,14.5"/>
		<path class="st3" d="M32,58.8l28.4,28.7c13.9,14,36.3,14,50.2,0c13.9-14,13.9-36.7,0-50.7L86,12 M72,20l19,19 M56,29l22,22 M14,12
			l52,52"/>
	</g>
</g>
<g id="Layer_2">
	<g>
		<g>
			<g>
				<g>
					<g>
						<path class="st4" d="M78.4,86.7C78.1,86.9,78.2,86.9,78.4,86.7L78.4,86.7L78.4,86.7z"/>
						<path class="st4" d="M78.3,86.6C78.4,86.6,78.4,86.6,78.3,86.6C78.4,86.6,78.1,86.8,78.3,86.6z"/>
						<path class="st4" d="M78.4,86.6C78.4,86.6,78.4,86.6,78.4,86.6c-0.5,0.3-0.6,0.6,0.1-0.1C78.5,86.5,78.5,86.6,78.4,86.6z"/>
						<path class="st4" d="M76.1,81.2C75.1,82,76.2,81.2,76.1,81.2L76.1,81.2z"/>
						<path class="st4" d="M74.7,80.4C74.7,80.4,74.7,80.4,74.7,80.4c-0.2,0.1-0.3,0.2-0.3,0.2C74.5,80.7,74.7,80.4,74.7,80.4z"/>
						<path class="st4" d="M77.5,84.4l0.2-0.2C77.6,84.3,77.5,84.3,77.5,84.4z"/>
						<path class="st4" d="M80.9,84.8c0.2-0.2,0.1-0.1-0.1,0c-0.2,0.1,0-0.1,0.1-0.1c0,0-1,0.8-0.8,0.5c0.3-0.3,0.6-0.6,1-0.8
							c0.3-0.2,0.6-0.6,0.3-0.4c-0.3,0.3-0.4,0.4-0.8,0.7c-0.1,0,0.5-0.5,0.5-0.5c0,0-0.2,0.1-0.4,0.3c-0.1,0,0.5-0.5,0.5-0.5
							c0-0.1,0,0,0.1-0.1c0.2-0.2-0.2,0-0.4,0.3c-0.3,0.2-0.4,0.3-0.4,0.3c0.3-0.2,0.5-0.4,0.8-0.6c0.3-0.3-0.1,0-0.2,0.1
							c-0.1,0-0.1,0-0.1,0c0,0-0.3,0.2-0.3,0.2c0-0.1,1.3-1.1,0.3-0.4c-0.3,0.2-0.1,0-0.1,0c0.2-0.2,0.1-0.1-0.1,0
							c-0.3,0.2,0,0,0.2-0.3c0.2-0.3-0.5,0.3-0.9,0.6c0.2-0.1,0.2-0.2,0.4-0.4c0.1-0.1,0.2-0.2,0.2-0.2c0.2-0.2,0-0.2,0-0.3
							c0-0.1,0.1-0.3,0-0.3c-0.1,0-0.6,0.5-0.8,0.6c0.2-0.1,0.1-0.1,0.2-0.2c0.1-0.1,0.2-0.2,0.3-0.3c0.1-0.1,0-0.1,0-0.1
							c0,0-0.2,0.1-0.2,0.1c-0.1,0,0.1-0.2,0-0.2c-0.1,0-0.7,0.5-0.6,0.3c0.1-0.2,0.7-0.7,0.5-0.6c-0.1,0-0.9,0.6-0.2,0
							c-0.1,0-0.2,0.1-0.3,0.2c1-0.8,0.5-0.6,0.3-0.7c0,0-0.1-0.2-0.4,0.1c-0.1,0,0-0.1,0.1-0.1c0-0.1,0-0.1-0.1-0.1
							c-0.1,0,0-0.2,0-0.2c0,0,0-0.1-0.3,0.1c-0.2,0.2-0.3,0.2-0.3,0.2c0,0,0-0.1,0.2-0.3c0-0.1-0.1,0-0.1-0.1c0,0,0.4-0.4,0.1-0.1
							c-0.2,0.2-0.4,0.3-0.5,0.3c0.1-0.1,0.5-0.4,0.5-0.4c0.1-0.1-0.4,0.2-0.5,0.2c-0.1,0,0-0.1,0.1-0.2c0-0.1,0.3-0.4-0.1-0.1
							c-0.3,0.2-0.4,0.3-0.7,0.5c0.2-0.2,0.5-0.5,0.6-0.6c0.2-0.2-0.7,0.5-0.8,0.6c-0.1,0,0.8-0.7,1-0.9c0.2-0.2-0.2,0.1-0.3,0
							c0,0,0.1-0.2-0.1-0.1l-0.2,0.2c0,0-0.1,0.1-0.3,0.1c-0.1,0-0.5,0.4-0.5,0.4c0,0,1-0.9,1.1-1c0.1-0.2-0.1-0.1-0.2-0.1
							c-0.1,0,0.1-0.4-0.5,0.1c0.4-0.4,0-0.3,0-0.3c0,0,0.2-0.3,0.1-0.2c-0.3,0.2-0.5,0.4-0.6,0.5c-0.6,0.4,0.6-0.7,0.5-0.6
							c0,0-1.3,1-1.2,0.9c0.1-0.1,1.6-1.3,1.1-1c-0.3,0.1-0.1-0.1-0.5,0.2c-0.2,0.1-0.5,0.2-0.4,0.1c0.4-0.3,0.7-0.7,0.2-0.3
							c1.1-0.8,0.4-0.6-0.5,0.2c0.2-0.2,0.5-0.4,0.7-0.6c0.3-0.3,0.1-0.2,0.1-0.2c0,0,0.1-0.3-0.3,0.1c0.2-0.2,0.2-0.3,0.1-0.3
							c-0.1,0-0.3,0.1-0.8,0.5c-0.1,0,0.6-0.5,0.7-0.7c-0.2,0.2-0.4,0.3-0.5,0.3c0.8-0.6,0.5-0.5,0.4-0.5c-0.1,0-1,0.6-1.2,0.8
							c-0.3,0.2-0.6,0.5-0.9,0.7c-0.2,0.2,0-0.1,0.1-0.1c0.4-0.3,0.8-0.6,1.1-0.8c0,0,0.7-0.5,0.6-0.4c0,0-0.1,0.1-0.1,0
							c0.1-0.1,0.1-0.1,0.2-0.2c0,0,0-0.1-0.2,0c-0.1,0.1-1.3,1-1.3,1.1c0.1-0.2,1.1-1,0.3-0.4c-0.2,0.2-0.7,0.6-1,0.8
							c-0.2,0.2,0.7-0.4,0.3-0.1c-0.2,0.2-0.5,0.3-0.7,0.6c-0.3,0.2,0.1,0,0.1,0c0.1,0,0.8-0.5,1.1-0.8c0.2-0.2,0.5-0.4,0.6-0.4
							c0,0,0.1,0,0,0.1c-0.1,0.1-0.4,0.3-0.6,0.3c-0.3,0.2-0.5,0.3-0.8,0.6c0.5-0.4,0.3-0.2,0.6-0.4c0.1,0-0.1,0.1-0.2,0.3
							c-0.1,0.1,0,0.1,0,0.1c0,0-0.2,0.2-0.4,0.3c-0.2,0.2-0.2,0.2-0.2,0.3c0,0-0.2,0.4,0.1,0.1c0.5-0.4,0.7-0.5,0.6-0.4
							c0,0.1-0.7,0.6-0.2,0.3c0.4-0.3-0.3,0.3,0,0.1c0.1-0.1,0.4-0.3,0.7-0.6c0.3-0.2,0.6-0.5,0.6-0.5c0,0.1-0.7,0.6-0.8,0.7
							c-0.3,0.2-0.2,0.2-0.5,0.5c0,0-0.2,0.1-0.2,0.2c0,0,0.2-0.1,0.2-0.1c0.3-0.2,0.3-0.1,0.3-0.1c0,0,0.6-0.5,0.5-0.4
							c-0.1,0.1-0.9,0.7-1,0.9c-0.2,0.2,0.3-0.1,0.6-0.4c0.3-0.3,0.2-0.2,0.3-0.2c0,0-0.1,0.2,0,0c0.3-0.2,0.5-0.4,0.3-0.2
							c-0.4,0.4-0.4,0.3-0.9,0.6c0.2,0-0.3,0.3,0,0.1c0.2-0.1,0,0.1,0.6-0.3c-0.3,0.2-0.3,0.3-0.1,0.2c0.2-0.1,0.5-0.3,0.7-0.5
							c0.5-0.3-0.2,0.3-0.4,0.4c-0.2,0.2-0.9,0.7-0.7,0.6c0.1-0.1,0.5-0.3-0.1,0.2c0.4-0.3,1.5-1.2,1.1-0.8
							c-0.2,0.2-1.1,0.9-0.7,0.7c0.1,0,0.6-0.4,0.5-0.3c-0.1,0.1-0.4,0.4-0.6,0.5c-0.1,0.1,0.2-0.1,0.2-0.1c0,0,0.4-0.3,0.6-0.4
							c0.2-0.1,0.1,0,0.4-0.2c0.1,0,0.6-0.4,0.2-0.1c-0.2,0.2-0.3,0.4-0.3,0.4c0.1,0,0.3-0.1,0.4-0.2c0.1-0.1-1,0.8-1.2,0.9
							c-0.2,0.2,0.5-0.4,0.6-0.4c0.1-0.1,0.3-0.2,0.1,0c0.1-0.1,0.8-0.6,0.7-0.6c0,0.1-1.1,0.9-1.4,1.2c0.1,0,0.6-0.5,0.7-0.4
							c-0.7,0.5-0.1,0.2-0.2,0.3c-0.1,0.1-0.4,0.3-0.4,0.4c0,0,0.1,0,0.2-0.1c0.1,0,0,0.1,0,0.1l0.2,0.1c0.1-0.1,0.5-0.5,0.7-0.6
							c0.2-0.1-0.3,0.3-0.4,0.5c-0.3,0.3-0.4,0.4-0.3,0.3c0.2-0.1,0.4-0.4,0.5-0.5c0.2-0.1,0.5-0.3,0.1,0.1
							c-0.8,0.7,0.7-0.4,0.7-0.4c-0.2,0.1-0.7,0.5-0.6,0.6c0,0,0.4-0.1,0,0.1c0,0,0.4-0.2,0.1,0c-0.1,0.1-0.5,0.5-0.3,0.3
							c0.3-0.2,0.8-0.7,0.8-0.8c0,0,0.3-0.2,0.4-0.2c0.1,0-0.3,0.3-0.5,0.4l-0.7,0.7c0.2-0.1,0.3-0.2,0.5-0.3
							c0.5-0.4,0.2-0.1-0.1,0.1c-0.6,0.6,0.6-0.2-0.1,0.4c-0.1,0.1,0.7-0.5,0.4-0.3c-0.1,0-0.8,0.7-0.5,0.5c0.2-0.1,0.6-0.5,0.7-0.5
							c0,0-0.3,0.3-0.3,0.3c0,0,0.3-0.3,0,0c-0.2,0.2-0.3,0.3-0.2,0.3c0,0,0,0.1,0.2-0.1c0.2-0.2,0.6-0.5,0.6-0.5
							c0.1-0.1,0.4-0.3,0.5-0.4c0.2-0.1-0.1,0.2-0.2,0.3c-0.2,0.2-0.6,0.6-1,0.9c0.2-0.1,0.4-0.3,0.4-0.3c0,0-0.3,0.3-0.4,0.4
							c-0.2,0.2,0.1,0.1,0.2,0c0.2-0.1,0.3-0.1,0.6-0.4c0.1-0.1,0.5-0.4,0.4-0.2c-0.1,0.1-0.3,0.3-0.5,0.4c-0.2,0.2-0.5,0.4-0.5,0.4
							c0.1,0,0.6-0.4,0.6-0.4c0,0-0.4,0.3-0.4,0.4c-0.1,0.1,0,0.1,0.2-0.1c0.1-0.1,0.3-0.1,0.5-0.3c0.3-0.1-0.2,0.2-0.5,0.5
							c-0.2,0.2,0.5-0.3,0.4-0.3c0.1,0,0.5-0.3,1-0.6c-0.3,0.2-0.6,0.4-0.9,0.7c-0.2,0.2-0.3,0.3-0.5,0.4c0.5-0.4,0.6-0.4,0.6-0.3
							c0,0.1-0.4,0.4-0.6,0.7c0.3-0.3,0.4-0.1,0.4-0.1c0.1,0,0.5-0.4,0.5-0.3c0,0-1.1,1.2-0.2,0.5c0,0-0.5,0.6-0.2,0.3
							c0.4-0.3,0.5-0.4,0.8-0.6c-0.4,0.3-0.7,0.5-1,0.8l1.1-0.7C79.8,85,79,85.6,79,85.6c0.2-0.1,1-0.7,1.3-1c0,0-0.8,0.7-1,0.9
							c-0.4,0.3,0.1,0-0.1,0.2c-0.1,0.1-0.4,0.3-0.2,0.2c0.1-0.1,0.4-0.3,0.3-0.2c0,0.1,0,0.1-0.1,0.2c-0.1,0.1-0.6,0.6-0.4,0.5
							c0,0,0.6-0.5,0.6-0.5c0.5-0.4,0.6-0.5,0.5-0.3c0,0.1,0.3-0.2,0.4-0.2C80.3,85.3,80.7,84.9,80.9,84.8z"/>
						<path class="st4" d="M78.5,84.7c-0.1,0-0.1,0.1-0.2,0.2C78.4,84.8,78.5,84.8,78.5,84.7z"/>
						<path class="st4" d="M74.5,79.3c0-0.1,0.1-0.2-0.3,0.1c-0.3,0.3-0.2,0.2-0.1,0.3L74.5,79.3C74.5,79.3,74.5,79.3,74.5,79.3z"/>
						<path class="st4" d="M76.6,78c0.3-0.3-0.3,0.1,0-0.1c0.2-0.2-0.5,0.2-0.6,0.2c0.4-0.3,0.4-0.4,0.3-0.3
							c-0.2,0.1-0.5,0.3-0.7,0.5c0.5-0.3,1.3-1.2,0.4-0.4c-0.3,0.3-0.3,0.2-0.1,0c0.3-0.3,0.6-0.5,0.5-0.5c0.2-0.3-0.9,0.7-1,0.8
							c-0.2,0.2-1.4,1-1.5,1.2c-0.1,0.1,0.4-0.3,0.2,0c-0.1,0.1-0.5,0.5-0.3,0.3c0.2-0.2,0.6-0.5,0.8-0.6c0.1-0.1,0.2-0.2,0.3-0.2
							c-0.3,0.3-0.8,0.7-0.4,0.4c0.2-0.1,0.8-0.6,1-0.7l-1.2,0.9c0.1,0,0.5-0.4,0.6-0.4c0.1-0.1,0,0.1,0,0.2c0,0.1,0.2,0-0.1,0.3
							c-0.1,0.1-0.4,0.4-0.4,0.4c0,0,0.6-0.5,0.7-0.6c0.1,0-0.4,0.4-0.7,0.6c0.2-0.2,0.5-0.3,0.6-0.4c0.1-0.1,0.2-0.1,0.6-0.4
							C76,78.6,76.4,78.3,76.6,78z"/>
						<path class="st4" d="M76.3,77.3C76.4,77.3,76.5,77.1,76.3,77.3L76.3,77.3z"/>
						<path class="st4" d="M76,77.4c0.4-0.4-0.6,0.4-0.9,0.6c0.1-0.1,1.2-1,1-0.9c-0.2,0.1-0.6,0.5-0.7,0.5c-0.1,0-0.1,0-0.1-0.1
							c0,0,0.2-0.2,0.3-0.2c0.4-0.3,0.2-0.3-0.1,0c0.3-0.2-0.5,0.3-0.3,0.1c0.2-0.2,0.5-0.4,0.7-0.5c-0.1,0-0.7,0.4-1.1,0.7
							c0.3-0.3,0.6-0.5,1-0.8c-0.3,0.2-1.3,0.9-1.3,0.9c0.3-0.2,1.1-0.9,0.8-0.8c-0.2,0.1-0.6,0.6-0.9,0.7c-0.4,0.2,0.8-0.6,0.7-0.6
							c0,0-0.6,0.4-0.3,0.1c0,0,0.3-0.2,0.3-0.2c-0.1,0.1-0.3,0.2-0.5,0.3c0.5-0.4,0.6-0.5,0.8-0.7c0.1-0.1-0.1,0-0.3,0.2
							c0.2-0.2,0.4-0.4,0.4-0.4c0,0-0.3,0.2-0.4,0.2c-0.1,0.1-0.3,0.2-0.3,0.1c0,0,0.4-0.4,0.6-0.4c-0.1,0-0.3,0.2-0.5,0.3
							c-0.1,0.1-0.1,0.1-0.2,0.1c-0.7,0.5-1,0.8-1.6,1.3c-0.7,0.5-0.3,0.3-0.2,0.4c0,0.1-0.2,0.4,0.1,0.1c0.4-0.3,0.6-0.5,0.9-0.7
							c0,0,0.1,0,0.2-0.1c0.1-0.1,0.2-0.2,0.4-0.2c0.3-0.2,0.6-0.4,0.6-0.4c-0.2,0.2-0.5,0.4-0.7,0.5c-0.1,0.1-0.3,0.3-0.3,0.3
							c-0.2,0.1-0.9,0.6-0.8,0.6c0.1,0-0.4,0.6,0.5,0c-0.1,0.1,0,0.1,0,0.1c0.1,0-0.3,0.3-0.3,0.4c0,0.1,0,0.1,0.2,0
							c0.5-0.3-0.2,0.3-0.2,0.3c0.4-0.3,0.4-0.4,0.9-0.7c0.2-0.1,0.8-0.5,0.5-0.3c-0.4,0.4-1,0.7-1.4,1c0,0,0,0.2,0.3,0
							c0.3-0.2,1.1-0.8,1.3-1C75.3,78.1,75.7,77.7,76,77.4z"/>
						<path class="st4" d="M73.2,77.7C73,77.8,72.8,78,72.8,78C72.9,78.1,73.3,77.7,73.2,77.7z"/>
						<path class="st4" d="M74.6,76.4L74.6,76.4C74.3,76.6,74,76.9,74.6,76.4z"/>
						<path class="st4" d="M73.6,77.2c0.5-0.4,1-0.9,1.5-1.3c-0.1,0-0.5,0.2-0.8,0.4c-0.4,0.3,0.1,0.1,0,0.1c-0.2,0.2-0.5,0.2-0.2,0
							c0.2-0.2,0.7-0.5,0.8-0.7c0.5-0.6-0.8,0.6-0.9,0.6c-0.1,0,0.9-0.8,0.9-0.9c0.1-0.2,0.1-0.2-0.5,0.2c-0.1,0,0.3-0.3,0.4-0.5
							c0.1-0.1,0-0.2-0.4,0.2c0.7-0.6-0.2-0.1,0-0.3c0,0,0,0,0,0c-0.2,0.2-0.9,0.7-1.3,1.1c-0.4,0.3-0.3,0.3-0.4,0.4
							c-0.1,0.1-0.8,0.6-0.4,0.4c0.2-0.1,0.3-0.3,0.4-0.3c0,0,0,0,0.1,0c0.1,0,0.6-0.4,0.8-0.5c0.6-0.4-1,0.8-1,0.8
							c-0.1,0.1,0.6-0.4,0.4-0.1c-0.3,0.2-0.7,0.6-0.6,0.6c0,0,0.5-0.2,0.6-0.4c0,0-0.2,0.1-0.1,0c0.3-0.2,0.5-0.2,0.4-0.1
							c0,0.1-0.2,0.1-0.2,0.2c-0.2,0.1-0.2,0.1-0.5,0.4c0.3-0.1,0.6-0.4,0.9-0.6c-0.1,0.1-1,0.8-0.8,0.7c0.2-0.1,0.5-0.4,0.7-0.4
							c0,0-0.2,0.2-0.2,0.2c-0.2,0.2,1.1-0.8,0,0.1c-0.4,0.4-0.5,0.5-0.1,0.2c0.5-0.3-0.6,0.5-0.1,0.2c0.5-0.3,1.3-0.9,1.8-1.3
							C75.7,75.8,73.9,77,73.6,77.2z"/>
						<path class="st4" d="M74.5,75.2C74.4,75.2,74.4,75.2,74.5,75.2C74.4,75.2,74.6,75.1,74.5,75.2z"/>
						<path class="st4" d="M71.6,75.5c-0.1,0-0.6,0.3-0.6,0.4C71.1,75.9,71.7,75.5,71.6,75.5z"/>
						<path class="st4" d="M70.9,75.4c-0.1,0.2,0.3-0.1,0.2-0.1C71.1,75.3,71,75.3,70.9,75.4z"/>
						<path class="st4" d="M72.9,76.4c0.1-0.1,0.4-0.3,0.5-0.3c0.3-0.2-0.4,0.3,0.3-0.3c0.3-0.2,0.8-0.7,0.4-0.5
							c-0.2,0.1-0.6,0.4-0.8,0.5c0.3-0.2,0.8-0.6,0.8-0.7c0,0-0.4,0.2,0.1-0.2c-0.3,0.2-0.7,0.5-0.7,0.5c0.1-0.1,0.9-0.7,0.9-0.7
							c0,0-0.6,0.4-0.7,0.5c-0.6,0.3,0.5-0.4,0.6-0.5c0,0-0.3,0.1-0.4,0.2c-0.1,0-0.5,0.3-0.6,0.4c-0.1,0,0.6-0.5,0.7-0.6
							c0.1-0.1,0-0.1,0.2-0.2c0.3-0.2,0.2-0.2,0-0.1c-0.2,0.1-0.2,0,0-0.1c0-0.1,0.5-0.5,0.3-0.3c-0.1,0.1-0.6,0.4-0.6,0.5
							c-0.1,0,0.2-0.2,0.4-0.3c0.7-0.5-0.3,0.1-0.4,0.2c0-0.1,0.5-0.4,0.4-0.4c-0.1,0-0.3,0.2-0.4,0.3c-0.2,0.1,0.4-0.5,0.5-0.5
							c0.1-0.1-0.3,0.2-0.4,0.2c-0.2,0.1-0.4,0.1-0.8,0.4c-0.2,0.1-0.5,0.3-0.3,0.1c0.2-0.2,0.8-0.6,0.7-0.6c-0.1,0,0.2-0.2,0.4-0.4
							c0.4-0.4-0.9,0.5-0.1-0.2c-0.4,0.3-0.8,0.6-0.7,0.4c0.1-0.1,0.7-0.6,0.7-0.7c0,0-1.1,0.9-1.2,1c-0.6,0.5-0.8,0.6-1.3,0.9
							c-0.4,0.3-0.2,0.3-0.1,0.3c0.1,0,0.7-0.6,0.9-0.7c-0.1,0.1-0.3,0.2-0.5,0.4c0.3-0.2,0.5-0.4,0.7-0.5c0.3-0.2-0.1,0.1-0.3,0.3
							c-0.3,0.3-0.8,0.7-0.1,0.2c0.2-0.2,0.9-0.7,0.8-0.5c-0.1,0.1-0.9,0.7-1.1,0.9c-0.3,0.2-0.1,0.2-0.1,0.2c0.1,0-0.1,0.3,0.8-0.4
							c-0.3,0.3,0.2-0.1,0.3-0.1c0,0-0.4,0.3-0.4,0.4c0,0,1.2-0.9,0.8-0.4c-0.1,0.1-0.5,0.5-0.7,0.6c-0.2,0.1,0.2-0.2,0.2-0.3
							c0.1-0.1-0.1,0-0.3,0.2c-0.3,0.2-0.2,0.2-0.3,0.1c-0.4,0.3-0.5,0.5-0.1,0.2c0.1,0-0.3,0.3-0.1,0.3c0.1,0,0.4-0.1,0.8-0.5
							c0.2-0.2,0.4-0.3,0.5-0.4c0.1-0.1,0.8-0.5,0.6-0.3c-0.3,0.2-0.6,0.5-0.9,0.7C72,75.8,71.8,76,71.8,76c0,0-0.4,0.3-0.4,0.4
							c0-0.1,3-2.2,0.5-0.3c-0.4,0.3-0.5,0.5-0.2,0.3c0.1-0.1,1.1-0.7,1.1-0.7s-0.3,0.2-0.6,0.5s-0.6,0.5-0.6,0.5
							c0.3-0.2,1.3-1,1.5-1.1c0.1,0-0.9,0.7-1.1,0.9c-0.1,0.1,0,0.1,0,0.1c0,0-0.2,0.2-0.3,0.2c-0.1,0.1,0.8-0.4,0.8-0.4
							c-0.1,0.1-0.4,0.3-0.6,0.4c-0.1,0.1,0.1,0,0.1,0c0.1-0.1,0.9-0.6,0.9-0.5c-0.1,0.1-0.7,0.6-0.9,0.8c-0.2,0.2,0.2,0,0.4-0.2
							C72.8,76.5,72.6,76.6,72.9,76.4z"/>
						<path class="st4" d="M72.1,74.2c0.3-0.2,0.8-0.6,0.5-0.5c0,0,0,0-0.1,0l-1,0.7C71.8,74.3,72,74.2,72.1,74.2
							C71.9,74.3,71.3,74.9,72.1,74.2z"/>
						<path class="st4" d="M71,74.7c-0.1,0.1-0.6,0.4-0.6,0.5C70.4,75.2,71,74.7,71,74.7z"/>
						<path class="st4" d="M73.7,72.9c0,0-0.4,0.2-0.4,0.2c-0.1,0,0.1-0.2,0-0.2c-0.1,0-0.2,0.1-0.4,0.2c-0.1,0-0.4,0.3-0.4,0.3
							s0.5-0.4,0.4-0.4c-0.2,0.1-0.8,0.6-1,0.7l-1.4,1.1c0,0,1.1-0.7,1-0.6c-0.1,0.1-1.1,0.8-1.1,0.8c0.8-0.6,0.4-0.2,0.7-0.5
							c0.4-0.2,1-0.8,1-0.7c0,0.1-0.5,0.4-0.7,0.5c-0.3,0.2-0.8,0.7-1,0.8c0,0,1.2-0.8,1.4-1c0.4-0.3,1.3-1,1.4-0.9
							C73.2,73.3,73.3,73.2,73.7,72.9z"/>
						<path class="st4" d="M73.3,72.6c0-0.1-0.1-0.1-0.4,0.1c-0.2,0.1-0.7,0.5-0.9,0.6c-0.1,0.1,1-0.8,1-0.9c0.1-0.1-0.1,0-0.1,0
							c-0.1,0-0.2,0-0.2,0c0-0.1,0.3-0.3-0.3,0c-0.1,0-1.6,1.2-1.3,0.9c0,0,0.5-0.3,0.6-0.4c0.2-0.1,0.3-0.3,0.4-0.4
							c0.3-0.3,0.3-0.4,0.2-0.5c0,0,0-0.1-0.3,0c-0.3,0.2-0.2,0.2-0.1,0.2c0.1,0-0.6,0.4-0.7,0.5c-0.3,0.2-0.8,0.6-1.1,0.8
							c-0.3,0.2,0,0.1-0.2,0.2c-0.3,0.2-0.4,0.3-0.3,0.3c0.2,0,0.3-0.1,0.9-0.5c0.2-0.1,0.6-0.5,0.4-0.4c-0.2,0.1,0.4-0.3,0.4-0.3
							c0.1-0.1,0.7-0.5,0.6-0.3c0,0-0.4,0.3-0.5,0.4c-0.3,0.2-0.5,0.4-0.7,0.6c0,0-0.5,0.5-0.7,0.6c0,0,0.1-0.2,0-0.1
							c-0.1,0.1-0.3,0.5,0.4-0.1c0.3-0.2,0.2-0.1,0.3-0.2c0.2-0.1,0.1-0.1,0.4-0.3c-0.1,0.1-0.6,0.6-0.7,0.6c-0.3,0.2-0.1,0.2,0,0.2
							c-0.3,0.4,0.8-0.6,1.2-0.9c0.1-0.1,0.1,0,0.1,0c0,0-0.3,0.3-0.4,0.3c-0.3,0.2-0.8,0.6-0.5,0.4c0.3-0.1,0.8-0.5,1.1-0.7
							c0.1,0,0.5-0.3,0.6-0.3c0.1,0-0.9,0.6-1,0.7c-0.3,0.2-0.8,0.6-0.9,0.7c-0.2,0.2,0.3-0.1,0.6-0.4c0.2-0.1,0.3-0.3,0.5-0.4
							c0.2-0.2,0.2-0.1,0.1,0C72,73.7,73.3,72.7,73.3,72.6z"/>
						<path class="st4" d="M71.8,72C72.2,71.7,71.1,72.4,71.8,72L71.8,72z"/>
						<path class="st4" d="M71.6,72.3c0-0.1,0.4-0.3,0.5-0.4c0.2-0.2-0.2,0-0.3,0.1c-0.2,0.2-1.8,1.2-1.4,1.1
							c-0.3,0.2-0.5,0.3-0.5,0.3c-0.4,0.3,0.2,0.1,0.3,0c0.3-0.2,0.8-0.5,1.5-1C72.9,71.5,71.5,72.4,71.6,72.3z"/>
						<path class="st4" d="M71.6,71c0.2-0.1,0.2-0.2,0.2-0.2l0,0C71.7,70.9,71.6,71,71.6,71z"/>
						<path class="st4" d="M70,71.2C70,71.2,70,71.2,70,71.2c-0.2,0.1-0.3,0.2-0.3,0.2c-0.2,0.2-0.5,0.3-0.4,0.3
							c0,0,0.8-0.5,0.9-0.6C70.3,71,70.1,71.1,70,71.2z"/>
						<path class="st4" d="M70,71.2c0.1-0.1-0.3,0.2-0.3,0.2L70,71.2C69.9,71.2,70,71.2,70,71.2z"/>
						<path class="st4" d="M68.7,72.1c0,0,0.1-0.2,0.1-0.2C68.3,72.2,68.7,72.1,68.7,72.1z"/>
						<path class="st4" d="M70,73.2c-0.1,0,0.7-0.6,0.6-0.5c-0.1,0-0.4,0.2-0.5,0.3c0,0-0.2,0.1-0.1,0c-0.2,0.1-0.4,0.2-0.6,0.4
							c0.4-0.3,0.7-0.5,1.1-0.8c-0.3,0.2-1.1,0.7-0.9,0.5c0.1-0.1,0.7-0.6,1-0.7c0,0,0.2-0.1,0.2-0.2c0.1-0.1-0.1,0-0.2,0.1
							c-0.1,0.1-0.5,0.3-0.7,0.4c-0.3,0.3-0.7,0.5-0.7,0.4c0-0.1,0.7-0.6,0.9-0.7c0.1-0.1-0.2,0.1-0.4,0.2c-0.2,0.2-0.4,0.3-0.6,0.4
							c-0.5,0.3-0.4,0.2,0-0.1c-0.2,0.1-0.4,0.3-0.3,0.2c0.1-0.1,0.5-0.4,0.6-0.5c0.6-0.5,1.2-0.9,1.9-1.4c-0.4,0.3-1,0.6-1.3,0.9
							c-0.2,0.1-0.4,0.3-0.6,0.5c-0.2,0.2,0.1-0.1,0.1-0.2c0.3-0.2,1.1-0.9,0.9-0.8c-0.1,0-0.9,0.8-1,0.8c-0.7,0.6-0.4,0.3-0.5,0.3
							c0,0-0.4,0.2-0.2,0c0.1-0.1,0.5-0.4,0.7-0.5c0.2-0.2,1.1-0.8,1-0.8c0,0-0.1,0-0.2,0.1c-0.1,0.1-0.2,0.2-0.4,0.3
							c-0.1,0.1-0.3,0.2-0.4,0.3C69.4,72,69.3,72,69.3,72c0,0,0.3-0.2,0.1-0.1c-0.1,0.1-0.5,0.3-0.6,0.5c-0.7,0.5,0-0.1,0.3-0.3
							c-0.3,0.2-0.9,0.6-0.4,0.2c0.5-0.4,1.4-1.1,1.9-1.5c0,0-0.3,0.2-0.4,0.2c-0.3,0.2-0.6,0.3-0.9,0.5c-0.7,0.6,0.2-0.3,0.2-0.3
							s-0.9,0.7-0.6,0.4c0.1-0.1-0.4,0.2-0.4,0.2c0,0,0.4-0.4,0.4-0.4c0,0-1.4,1-1,0.6c0.2-0.2,1.1-0.9,1.6-1.2
							c-0.2,0.1-0.5,0.3-0.7,0.4c-0.1,0.1-0.5,0.3-0.7,0.4c0,0,0.1,0,0,0.1c-0.2,0.2-0.3,0-0.3,0c0,0-0.2,0,0.2-0.3
							c1.3-0.9-0.6,0.2-0.3-0.1c0.1-0.1,0.9-0.7,1.2-0.9c0.5-0.3,1.2-0.9,1.5-1c0.3-0.1,0.1,0-0.4,0.3c-0.3,0.2-0.5,0.5-0.6,0.5
							c0.3-0.2,0.8-0.5,1.2-0.8c-0.2,0.1-1.8,1.3-1.3,1c0.4-0.3,1-0.7,1.3-0.8c0.2-0.1,0.6-0.2,0,0.2c0.5-0.4,0.3-0.1,0,0.1
							c-0.1,0.1-0.7,0.6-0.3,0.3c0.3-0.2,0.8-0.5,0.6-0.3c-0.2,0.2,0.1,0,0.2,0c-0.5,0.4,0.2,0.2,0.3,0.3c0,0,0.1,0.1-0.1,0.2
							c-0.1,0.1-0.6,0.4-0.6,0.4c0,0,0.5-0.3,0.6-0.4c0.2-0.1,0,0.1-0.1,0.2c-0.6,0.5,0,0,0.2-0.1c0.1-0.1,0.1,0,0.1,0
							c0,0-0.3,0.2-0.3,0.2c0,0,0.5-0.3,0.5-0.2c-0.1,0.1-0.6,0.6-0.8,0.8c-0.4,0.4,0.6-0.4,0.8-0.6c0.5-0.3-0.2,0.2,0.2,0
							c-0.7,0.5,0.2,0,0,0.2c-0.3,0.3-0.7,0.5-0.9,0.7l-0.3,0.3c0.3-0.2,0.6-0.5,0.9-0.8c0.1-0.1,0.4-0.3,0.4-0.3c0.1,0,0,0-0.2,0.2
							c0,0,0.2,0,0,0.1c-0.3,0.2-0.3,0.3-0.3,0.3c0.1,0,0.3-0.2,0.1,0c0.2,0,0,0,0.5-0.3c-0.2,0.1,0,0.2-0.8,0.7
							c-0.3,0.2-0.5,0.4-0.8,0.6L70.2,73C70.2,73,70.2,73,70,73.2z M70.7,71.8c0.1-0.1-0.3,0.2-0.5,0.3c-0.1,0.1-0.2,0.2-0.3,0.2
							C70.1,72.1,70.4,72,70.7,71.8z"/>
						<path class="st4" d="M69.3,69.9c0.2-0.1,0.5-0.3,0.5-0.4C69.7,69.5,68.9,70.2,69.3,69.9z"/>
						<path class="st4" d="M70.1,69.5c-0.2,0.1-0.4,0.3-0.6,0.4c-0.3,0.2,0.1-0.1,0.4-0.3c0.2-0.1,0.8-0.6,0.4-0.4
							c-0.3,0.2-0.8,0.5-1.1,0.8c-0.6,0.6-0.5,0.3-0.5,0.2c-0.2,0.1-0.4,0.3-0.6,0.5c-0.1,0-0.1,0.1-0.2,0.1
							c-0.2,0.1-0.5,0.3-0.6,0.4c-0.2,0.2,0.2,0,0.4-0.2c0.1-0.1,0.9-0.6,0.6-0.4c-0.2,0.2-0.6,0.4-0.8,0.6c-0.2,0.2,0,0.1,0.1,0
							c0.2-0.1,0.2,0,0.3,0c0.1,0,1.1-0.7,1.5-1C69.9,69.9,70.7,69.3,70.1,69.5z"/>
						<path class="st4" d="M68,70.8c0.1,0,0.1-0.1,0.2-0.1C68.3,70.6,67.7,71,68,70.8z"/>
						<path class="st4" d="M67.7,70c-0.2,0.1-1,0.7-0.8,0.6C67.1,70.5,67.7,70,67.7,70z"/>
						<path class="st4" d="M67.9,69.7c-0.3,0.2-1.2,0.8-1,0.8C67.1,70.3,68.3,69.4,67.9,69.7z"/>
						<path class="st4" d="M67.9,69.7C68.1,69.5,67.6,69.8,67.9,69.7L67.9,69.7z"/>
						<path class="st4" d="M65.6,68c-0.5,0.3-0.9,0.6-0.3,0.3C65.6,68,66,67.7,65.6,68z"/>
						<path class="st4" d="M67.5,65.2L67.5,65.2C67.2,65.3,66.8,65.7,67.5,65.2z"/>
						<path class="st4" d="M70.3,69.1c-0.1,0.1-0.7,0.3-0.1,0c0.4-0.3,0.2-0.3,0.2-0.3c-0.1,0-0.1-0.1-0.4,0c-0.3,0.1,0.1-0.3,0-0.3
							c-0.1,0-1.1,0.7-0.5,0.2c0.4-0.3-0.1-0.1,0-0.2c0.4-0.3,0-0.3,0-0.3c-0.1,0,0.1-0.2,0-0.2c0,0-0.2,0.2-0.4,0.3
							c-0.2,0.1-0.1,0-0.1,0c0,0-0.2,0.1-0.3,0.1c0,0,0.1-0.2,0.4-0.3l0.1,0c0.4-0.3,0.3-0.3,0.1-0.3c-0.2,0.1,0.2-0.2,0.1-0.2
							c-0.1,0-0.5,0.3-0.8,0.4c-0.2,0.1,0.3-0.3,0.5-0.5c0.3-0.3-0.4,0-0.3-0.1c0-0.1,0.1-0.1-0.3,0.2c-0.3,0.2,0-0.1,0-0.2
							c-0.1-0.1-0.3,0.1,0.4-0.4c0.2-0.2-0.3,0.1-0.4,0.2c-0.4,0.3-0.6,0.4-0.7,0.4c0.2-0.2-0.2,0.1-0.4,0.3c-0.2,0.1-1.3,1-1.4,0.9
							c-0.1,0,1-0.7,1.1-0.8c0.1-0.1,0.8-0.6,0.8-0.6c0.4-0.3,1.1-0.8,0.4-0.3c0.2-0.2,0.4-0.3,0.3-0.3c-0.3,0.2-0.3,0.1-0.3,0.1
							c-0.1-0.1,0.2-0.3-0.1-0.1c-0.1,0-0.2,0.1-0.4,0.2c0.3-0.2,0.7-0.5,0.7-0.6c0,0-0.3,0.2-0.5,0.4c-0.3,0.2-0.6,0.4-0.6,0.5
							c0.5-0.3,1-0.7,1-0.8c0,0,0-0.2-0.4,0.1c0.2-0.2,0.3-0.3,0.4-0.4c0-0.1-0.1,0-0.4,0.2c0,0,0.3-0.3,0.3-0.3
							c0,0-0.6,0.4-0.8,0.4c-0.1,0.1-0.5,0.3-0.4,0.3c0,0-0.2,0.2-0.1,0.2c-0.1,0-0.1-0.1,0.2-0.3c0.2-0.2,0.6-0.4,0.8-0.5
							c0.2-0.2-0.5,0.3-0.6,0.4c-0.2,0.1,0.3-0.3,0.3-0.3c0.4-0.3,0.4-0.4-0.3,0c-0.1,0.1,0-0.2,0.4-0.4c-0.2,0.1-0.5,0.3-0.5,0.3
							c0,0,0.2-0.2,0.3-0.3c0.1-0.2-0.6,0.4-0.8,0.5c0.2-0.1,0.1-0.1,0.4-0.4c0.1-0.1,0.7-0.5,0.6-0.5c-0.1,0-0.1,0.1-0.2,0.1
							l-0.1,0c0,0,0,0-0.1,0c-0.3,0.2-0.7,0.4-1.1,0.7c-0.2,0.2-0.6,0.4-0.6,0.4c0.3-0.2,0.7-0.5,1-0.7c0.3-0.2,0.1-0.1,0.2-0.2
							c0.1-0.1,0.5-0.3,0.5-0.4c0,0,0-0.1-0.1,0c-0.2,0.1-0.6,0.4-0.7,0.5c-0.2,0.1,0-0.1,0.2-0.2c0.5-0.4,0.6-0.4,0.5-0.5
							c-0.1-0.1-0.9,0.5-1.5,1c-0.4,0.3-0.8,0.6-1.2,0.9c-0.8,0.6,0.4-0.2,0.4-0.2c0,0-0.7,0.5-0.7,0.5c0,0,0.4-0.3,0.6-0.3
							c0.2-0.1,0.2,0,0.4-0.1c0.1,0,0.4-0.2,0,0.1c-0.1,0.1-0.6,0.4-0.7,0.4c0.1,0,0,0.1,0.3,0.1c0.2-0.1,0.9-0.6,1.2-0.8
							c-0.3,0.2-0.1,0.1-0.1,0.1c0,0-0.5,0.4-0.5,0.4c-0.2,0.2-1.2,0.9-0.6,0.5c0.4-0.2,0.7-0.5,1-0.7c0.2-0.2,0.5-0.3,0.3-0.1
							c0,0-0.4,0.3-0.4,0.3c0,0,0.3-0.1,0,0.1c-0.1,0.1-0.3,0.2-0.5,0.4c0.3-0.2,2.1-1.5,1.7-1.1c-0.1,0.1-2.1,1.4-2,1.4
							c0.1,0,1-0.7,1.2-0.8c-0.1,0.1-0.8,0.6-0.8,0.7c-0.3,0.3,0.7-0.5,0.6-0.4c0.2-0.1,0.2-0.1,0.3-0.1c0.3-0.2,0.2-0.1,0.2-0.1
							c-0.2,0.1-1,0.8-0.9,0.6c-0.3,0.2-0.9,0.7-0.4,0.4c0.3-0.2,1.1-0.8,1.3-0.9c0,0-0.2,0.2-0.5,0.3c-0.2,0.2-0.5,0.3-0.5,0.4
							c0,0.1,0.9-0.5,1.2-0.8c0,0-0.4,0.3-0.3,0.3c0,0,0,0.1-0.1,0.2c-0.1,0.1-0.2,0.3-0.5,0.5c-0.2,0.1-0.4,0.3-0.3,0.3
							c0,0,0.2-0.1,0.1,0c-0.1,0.1-0.2,0.1-0.1,0.1c0.1,0,0.3-0.1,0.4-0.2c0.1,0,0.5-0.3,0.4-0.1c-0.1,0-0.5,0.3-0.5,0.3
							c0.1,0,0.8-0.5,0.9-0.6c-0.2,0.2,0.3-0.1,0.2,0c-0.2,0.2-0.7,0.5-1,0.7c0.2-0.1,0.3-0.2,0.5-0.3c-0.3,0.2-0.5,0.5-0.5,0.5
							c0,0.1-0.3,0.4,0.3-0.1c0.7-0.5,0.3-0.1,0.9-0.5c0.1-0.1,0.5-0.3,0.3-0.2c-0.1,0.1-0.3,0.2-0.4,0.3c-0.3,0.2,0.3-0.1,0,0.1
							c-0.3,0.2-0.5,0.3-0.5,0.4c0,0.1-0.4,0.3-0.3,0.3c0.2-0.1,0.3-0.1,0.1,0c0.3-0.2,1.3-0.9,1.4-1c0.2-0.2,1-0.8,0.7-0.4
							c-0.8,0.6,0.4-0.3,0.4-0.2c0,0-0.3,0.2-0.5,0.4c-0.3,0.2-0.2,0-0.3,0.2c0,0-0.3,0.3-0.6,0.5c-0.3,0.2-0.6,0.4-0.6,0.4
							c0,0,0.9-0.6,0.6-0.4c-0.2,0.1-0.3,0.2-0.4,0.3c0.3-0.2,0.4-0.2,0.2,0c-0.2,0.2-0.7,0.5-0.7,0.5c0.3-0.2,0.1,0,0.3-0.2
							c0.1-0.1,0.4-0.3,0.5-0.4c0,0,0-0.1,0.1-0.1c0.3-0.2,1.1-0.6,1.3-0.8c-0.2,0.2-0.6,0.5-0.8,0.6c0.1,0-0.3,0.3-0.4,0.3
							c0,0.1,1.4-0.9,1.4-0.8c-0.1,0-1.2,0.8-1.6,1.1c-0.5,0.3-0.1,0.1,0.2-0.1c-0.3,0.2-1.4,1-0.6,0.5c1.2-0.8-0.2,0.2,0.2,0
							c0.4-0.2,0.8-0.5,0.7-0.6c-0.1,0,0.9-0.6,1.1-0.7c-0.2,0.2-0.5,0.4-0.7,0.6c-0.3,0.2-0.5,0.4-0.8,0.6
							c-0.2,0.1-0.3,0.3-0.5,0.4l0.8-0.6c0,0-0.6,0.5-0.6,0.5c-0.2,0.2,0.1,0,0.3-0.1c-0.1,0.1-0.3,0.4-0.3,0.4
							c0.5-0.3,1.1-0.8,1.6-1.1c0.2-0.1,0.2-0.1,0.2,0c0,0-0.3,0.2-0.3,0.3c-0.3,0.3,0.5-0.3,0.6-0.3c0.1,0,0.2,0,0.1,0
							c-0.1,0.1-0.5,0.2-0.8,0.5c-0.1,0.1-1,0.7-1,0.8c0.1-0.1,1.2-0.8,1.4-1c0.2-0.1,0.1,0-0.2,0.2c-0.3,0.2-1.2,0.9-1,0.8
							c0.1,0,0.3-0.1,0.2,0c0,0.1-0.3,0.2-0.3,0.2c-0.1,0.1,0.8-0.4,0.9-0.5c0.1,0-0.3,0.3-0.4,0.4c0,0-0.4,0.4,0.1,0
							c0.4-0.3,0.8-0.6,0.9-0.5c-0.4,0.3-1.6,1.1-1.2,0.9c0.1,0,1.4-1,1.7-1.2c0.1,0-1.3,1-1.3,1c0.1,0,1.3-0.9,1.6-1.1
							C69.8,69.5,70.7,68.9,70.3,69.1z"/>
						<path class="st4" d="M63.8,65.7c-0.1,0.1-0.7,0.4-0.6,0.4C63.3,66.2,63.9,65.7,63.8,65.7z"/>
						<path class="st4" d="M66.1,63.6C66.3,63.5,65.8,63.8,66.1,63.6L66.1,63.6z"/>
						<path class="st4" d="M64.7,66.6c0,0,0.9-0.6,0.9-0.6c0,0-0.3,0,0.2-0.2c0.2-0.1,0,0.1,0.2-0.1c0.4-0.3,0.9-0.6,1-0.8
							c0.2-0.2,0.1-0.2-0.2-0.1c-0.1,0.1-1,0.7-0.7,0.3c0.1-0.1,0.5-0.3,0.6-0.5c0.2-0.1,0.1-0.1,0-0.1c-0.1,0-0.3,0.2-0.5,0.2
							c-0.1,0.1,0-0.1,0.1-0.2c0.1-0.1,0.4-0.5-0.2-0.1c-0.1,0.1-0.8,0.6-0.6,0.4c0.2-0.2,0.5-0.4,0.7-0.5c-0.1,0.1-0.6,0.4-0.1-0.1
							c0.3-0.2-0.2,0.1-0.2,0.1c-0.1,0,0.3-0.3,0.4-0.4c0,0-0.4,0.3-0.3,0.2c0.2-0.2,0.4-0.3,0.3-0.4c0,0-0.4,0.2-0.4,0.2
							c0,0,0.1-0.2,0.1-0.2c0,0,0.2-0.2-0.1-0.1c-0.1,0-0.2,0.1-0.3,0.2c0,0,0.1,0,0,0.1c-0.2,0.1-0.4,0.3-0.6,0.4
							c-0.3,0.3-0.8,0.6-1.2,0.9c-0.3,0.2-0.5,0.4-0.6,0.5c-0.1,0.1,0.5-0.3,0.6-0.3c0.4-0.2-0.2,0.2-0.1,0.2c0,0,0.3-0.2,0.3-0.2
							c-0.1,0.1-0.5,0.4-0.5,0.4c0,0,1.3-0.8,1.4-0.8c0.5-0.3-0.5,0.3-0.4,0.4c0,0,0.4-0.2,0.5-0.3c0.1,0-0.1,0.1-0.3,0.2
							c-0.3,0.2-0.5,0.4-0.8,0.6c0.1-0.1,0.9-0.5,0.9-0.5c-0.3,0.3-1,0.6-1.2,0.8c-0.2,0.2,0.8-0.3,0.1,0.2l0.9-0.6
							c0.1,0-0.7,0.5-0.4,0.4c0.2-0.1,0.2-0.1,0.6-0.3c0.1-0.1,0.1,0,0.1,0c-0.1,0-1,0.6-0.5,0.3c0.1-0.1-0.2,0.2-0.3,0.2
							c0,0.1,0.2-0.1,0.3,0c0,0-0.6,0.6-0.1,0.2c0.2-0.1,0.6-0.5,0.7-0.5c0.1-0.1-0.1,0.2,0.1,0c0.1,0,0.2-0.1,0.3-0.2
							C65.6,65.8,64.8,66.5,64.7,66.6c-0.1,0,0.3-0.4-0.4,0.1c0,0-0.1,0.2-0.1,0.2c0,0,0.2,0-0.1,0.2c0,0,0,0,0.2,0
							C64.6,66.8,64.8,66.6,64.7,66.6z"/>
						<path class="st4" d="M62.7,63.8C62.9,63.6,62.7,63.7,62.7,63.8L62.7,63.8z"/>
						<path class="st4" d="M63.6,65.3c0,0,0.5-0.5,0.6-0.5c-0.3,0.3,1.1-0.7,0.7-0.4c-0.2,0.2-0.6,0.4-0.5,0.4c0,0,0,0,0.2-0.1
							c0.7-0.5,0.6-0.5,0.9-0.8c0.2-0.2,0.8-0.6,0.8-0.6c0,0-0.1-0.1-0.1,0c-0.1,0-0.4,0.2-0.3,0c0.1-0.1,0.2-0.2-0.1,0
							c0,0-0.1,0,0-0.1c-0.1,0-0.5,0.3-0.5,0.3c0.1-0.1,0.6-0.4,0.7-0.5c0,0-0.3,0.1-0.3,0.1c-0.2,0.1-0.7,0.4-0.5,0.4
							c-0.5,0.3,0,0-0.2,0.1c-0.1,0.1-0.7,0.5-0.7,0.5c-0.1,0,0.9-0.6,1.1-0.8c0.2-0.2,0.4-0.3,0.5-0.4c0.1-0.1,0.2-0.4,0.3-0.4
							c0,0-0.6,0.4-0.7,0.5c-0.1,0,0.5-0.4,0.5-0.5c0-0.1-0.2,0.1-0.5,0.2C65,63.1,65,63,65.3,62.8c0.3-0.2,0.1-0.2,0.1-0.2
							c0,0,0-0.1-0.2,0c-0.1,0.1-0.6,0.4-0.4,0.2c0.6-0.5,0.5-0.5-0.3,0.1c-0.1,0,0.5-0.3,0.6-0.4c0,0,0.3-0.3,0.2-0.2
							c-0.1,0-1,0.7-0.7,0.4c0.2-0.2,0.6-0.4,0.5-0.4c0,0-0.5,0.3-0.7,0.4c-0.1,0-0.7,0.4-0.7,0.4c0,0.1-0.1,0.2-0.6,0.5
							c-0.3,0.2-0.1-0.1-0.5,0.2c0,0-0.5,0.3-0.8,0.5c0.2-0.1,0.3-0.2,0.5-0.3c-0.3,0.2-0.5,0.4-0.5,0.4c0.1,0,0.4-0.2,0.8-0.3
							c0.3-0.1,0.9-0.6,0.6-0.3c-0.4,0.3-0.2,0.2,0.2,0c-0.2,0.2-0.5,0.4-0.4,0.4c0,0-0.5,0.2-0.5,0.3c0,0-0.1,0.2-0.1,0.2
							c0,0,1.4-0.9,1.1-0.6c-0.3,0.3-1.5,1-1.1,0.9c0.2-0.1,0.5-0.3,0.8-0.5c0.3-0.2,0.4-0.2,0.7-0.4c0,0-0.6,0.5-0.8,0.6
							c-0.3,0.2-0.5,0.3-0.8,0.5c-0.2,0.1,0.1,0,0.2-0.1c0.3-0.2,0.8-0.6,1.1-0.7c0.1,0,0,0.1-0.2,0.2c0,0-0.7,0.4-0.8,0.5
							c0,0,0.3-0.1,0.1,0c-0.2,0.2-0.1,0.1-0.1,0.1c0,0-0.3,0.2-0.2,0.2c0,0,0.6-0.1,0.8-0.2c-0.1,0.1-0.3,0.2-0.3,0.2
							c-0.1,0.1,0,0.1,0,0.1c0.1,0-0.1,0.2-0.1,0.2c0.1,0,0.7-0.4,0.5-0.3c-0.1,0.1-0.5,0.4-0.2,0.2c-0.4,0.3,0,0.2-0.1,0.3
							c-0.2,0.2,0.8-0.5,1.1-0.7C64,65.2,63.5,65.4,63.6,65.3z"/>
						<path class="st4" d="M61.7,64.4c0,0,0.1-0.1,0.2-0.1C61.9,64.3,61.8,64.3,61.7,64.4z"/>
						<path class="st4" d="M62.5,63.2L62.5,63.2c-0.2,0.1-0.2,0.2-0.2,0.2C62.5,63.2,62.6,63.2,62.5,63.2z"/>
						<path class="st4" d="M62.1,63.2L62.1,63.2C61.1,63.8,62.1,63.2,62.1,63.2z"/>
						<path class="st4" d="M65.2,62C65.2,62,65.2,61.9,65.2,62C65,62,64.6,62.2,65,61.9c-0.2,0.1-0.4,0.1-0.3,0.1
							c0.1-0.1,0.2-0.1,0.2-0.1c0.2-0.2,0-0.2,0-0.2c0-0.1,0-0.2-0.5,0.1c-0.1,0.1,0.2-0.2,0.3-0.2c-0.6,0.3,0.1-0.3,0-0.2
							c-0.1,0-1.3,0.8-1.8,1.1c0,0,0,0-0.2,0.1c-0.2,0.1-0.6,0.4-0.9,0.6c0,0,0.4-0.2,0.6-0.3c0.3-0.1-0.3,0.2-0.4,0.4
							c-0.1,0.1,0.5-0.3,0.6-0.3c0.2-0.1,0,0,0.1,0c0,0,0.3-0.2,0.5-0.3c0.2-0.1,0.4-0.2,0.2-0.1c-0.1,0.1-1,0.7-1,0.7
							c-0.8,0.5-1.1,0.7-0.8,0.6c0.1,0,0.3,0,0.5-0.1c0.4-0.2,0.1-0.2,0.1-0.2c0-0.1,0.2-0.2,0.6-0.4c0.2-0.1,0.4-0.4,0.7-0.5
							c0.1-0.1-0.2,0.2-0.2,0.2c-0.1,0.1,0.1,0,0.1,0c0,0-0.5,0.3-0.5,0.4c0,0,0.2-0.1,0.1,0c-0.1,0.1-0.9,0.7-0.8,0.7
							c0,0,0.5-0.3,0.5-0.3c0.3-0.1,0.3-0.1,0.5-0.3c0.2-0.1,0.8-0.5,0.9-0.5c0.2-0.1-0.3,0.3-0.3,0.3c0,0,0.6-0.4,0.8-0.5
							c0.2-0.1,0.3-0.2,0.5-0.3c-0.4,0.2-0.8,0.5-1.1,0.8c0,0-0.4,0.3-0.5,0.4c-0.1,0,0.1-0.1,0-0.1c-0.1,0.1-0.4,0.2-0.6,0.3
							c-0.1,0-1.1,0.7-1,0.7c0,0,0.2-0.1,0.5-0.3c0.2-0.1,0.5-0.3,0.5-0.3c-0.1,0.1-0.9,0.7-0.8,0.7c0,0,0.8-0.6,1-0.6
							c0,0,0.5-0.3,0.6-0.4C63.8,63,65.1,62.2,65.2,62z"/>
						<path class="st4" d="M62.7,62.6c0,0,0.1-0.1,0.2-0.1C62.8,62.5,62.5,62.6,62.7,62.6z"/>
						<path class="st4" d="M63.5,62c0.1-0.2,0.2-0.2,0.8-0.6c0.4-0.2,0.2-0.2,0.1-0.2c-0.1,0-0.2-0.2-1.1,0.4
							c-0.1,0,0.4-0.3,0.6-0.4c-0.1,0-0.9,0.5-1.1,0.7c-0.4,0.3-0.6,0.5,0,0.1c-0.2,0.1-1.7,1.3-1.4,1.1c0.6-0.4,1.9-1.3,2-1.2
							l-0.5,0.4c0,0,0,0,0,0s0,0,0,0c-0.4,0.2-0.8,0.5-1.2,0.8c-0.6,0.4,0.8-0.4,1.1-0.7c-0.2,0.2-0.7,0.5-0.3,0.3
							c0.3-0.2,0.5-0.4,0.8-0.5C63.2,62.2,63.5,62,63.5,62z"/>
						<path class="st4" d="M61.3,62.8c-0.4,0.3,0,0.1,0.3-0.1l0,0C61.4,62.7,61.3,62.8,61.3,62.8z"/>
					</g>
				</g>
			</g>
			<g>
				<g>
					<g>
						<path class="st4" d="M56.2,94.7C56,94.4,56,94.5,56.2,94.7C56.2,94.8,56.2,94.8,56.2,94.7C56.2,94.7,56.2,94.7,56.2,94.7z"/>
						<path class="st4" d="M56.2,94.6C56.3,94.7,56.3,94.7,56.2,94.6C56.3,94.7,56.2,94.4,56.2,94.6z"/>
						<path class="st4" d="M56.3,94.7C56.3,94.7,56.3,94.7,56.3,94.7c-0.2-0.5-0.5-0.7,0,0.1C56.3,94.8,56.3,94.8,56.3,94.7z"/>
						<path class="st4" d="M61.8,93.2C61.1,92.1,61.8,93.3,61.8,93.2L61.8,93.2z"/>
						<path class="st4" d="M62.7,92C62.7,92,62.7,91.9,62.7,92c-0.1-0.2-0.2-0.3-0.2-0.3C62.5,91.7,62.7,92,62.7,92z"/>
						<path class="st4" d="M58.6,94.1c0,0.1,0.1,0.2,0.1,0.2C58.7,94.3,58.6,94.2,58.6,94.1z"/>
						<path class="st4" d="M57.7,97.4c0.2,0.2,0.1,0.1,0-0.1c-0.1-0.2,0,0.1,0.1,0.1c0,0-0.6-1.1-0.4-0.8c0.2,0.3,0.5,0.7,0.7,1.1
							c0.2,0.3,0.5,0.7,0.3,0.3c-0.2-0.3-0.3-0.4-0.5-0.8c0-0.1,0.4,0.6,0.4,0.6c0,0-0.1-0.2-0.2-0.5c0-0.1,0.4,0.6,0.4,0.6
							c0.1,0,0,0,0.1,0.1c0.2,0.2,0-0.2-0.2-0.5c-0.2-0.3-0.2-0.4-0.2-0.5c0.2,0.3,0.3,0.6,0.5,0.8c0.2,0.4,0-0.1-0.1-0.2
							c0-0.1,0-0.1,0.1-0.1c0,0-0.1-0.4-0.1-0.4c0.1,0,0.9,1.4,0.4,0.4c-0.2-0.3,0-0.1,0-0.1c0.2,0.2,0.1,0.1,0.1-0.1
							c-0.1-0.4,0.1,0,0.3,0.2c0.3,0.3-0.3-0.6-0.5-1c0.1,0.2,0.2,0.2,0.3,0.5c0.1,0.1,0.2,0.2,0.2,0.3c0.2,0.2,0.2,0,0.3,0
							c0.1,0,0.3,0.2,0.2,0c0-0.1-0.4-0.7-0.5-0.9c0.1,0.2,0.1,0.1,0.2,0.3c0.1,0.1,0.1,0.2,0.2,0.4c0.1,0.1,0.1,0,0.1,0
							c0,0-0.1-0.2-0.1-0.2c0,0,0.2,0.1,0.2,0c0-0.1-0.4-0.8-0.2-0.6c0.2,0.2,0.6,0.8,0.6,0.6c0-0.1-0.5-0.9,0-0.2
							c0-0.1-0.1-0.2-0.2-0.3c0.7,1.1,0.6,0.5,0.6,0.4c0,0,0.2-0.1,0-0.4c0-0.1,0.1,0.1,0.1,0.1c0.1,0,0.1,0,0.1-0.1
							c0-0.1,0.2,0.1,0.2,0c0,0,0.1,0-0.1-0.3c-0.1-0.2-0.2-0.3-0.2-0.4c0,0,0.1,0,0.2,0.2c0.1,0.1,0-0.1,0.1,0c0,0,0.4,0.5,0.1,0.1
							c-0.1-0.2-0.2-0.5-0.2-0.5c0.1,0.1,0.3,0.6,0.3,0.6c0.1,0.2-0.1-0.4-0.1-0.5c0-0.1,0.1,0.1,0.2,0.1c0.1,0,0.3,0.3,0.1-0.1
							c-0.2-0.3-0.3-0.5-0.4-0.7c0.1,0.2,0.4,0.6,0.5,0.7c0.2,0.3-0.4-0.7-0.5-0.8c0-0.1,0.6,0.9,0.8,1.1c0.2,0.3,0-0.2,0-0.3
							c0,0,0.2,0.1,0.1-0.1c0-0.1-0.1-0.1-0.1-0.2c0,0,0-0.1-0.1-0.3c0-0.1-0.3-0.5-0.3-0.5c0,0,0.7,1.1,0.9,1.3
							c0.2,0.2,0.1-0.1,0.1-0.2c0-0.1,0.4,0.2,0-0.5c0.3,0.5,0.2,0.1,0.3,0.1c0,0,0.3,0.3,0.2,0.1c-0.1-0.3-0.4-0.5-0.5-0.7
							c-0.3-0.6,0.6,0.7,0.6,0.6c0,0-0.9-1.4-0.8-1.3c0.1,0.2,1.1,1.8,0.9,1.2c-0.1-0.3,0.1-0.1-0.1-0.5c-0.1-0.2-0.2-0.5,0-0.4
							c0.3,0.4,0.6,0.8,0.3,0.2c0.7,1.2,0.5,0.5-0.1-0.5c0.2,0.3,0.4,0.6,0.5,0.8c0.2,0.3,0.2,0.2,0.2,0.1c0,0,0.2,0.1,0-0.4
							c0.2,0.2,0.2,0.2,0.3,0.2c0-0.1-0.1-0.3-0.4-0.8c0,0,0.4,0.6,0.6,0.8c-0.1-0.2-0.2-0.5-0.2-0.5c0.5,0.8,0.4,0.6,0.5,0.5
							c0,0-0.5-1-0.7-1.3c-0.2-0.3-0.4-0.7-0.5-0.9c-0.1-0.2,0.1,0,0.1,0.2c0.2,0.4,0.5,0.8,0.7,1.2c0-0.1,0.4,0.7,0.4,0.6
							c0-0.1-0.1-0.2,0-0.1c0.1,0.1,0.1,0.2,0.1,0.2c0,0,0.1,0,0-0.2c-0.1-0.1-0.9-1.5-0.9-1.5c0.1,0.1,0.9,1.2,0.4,0.3
							c-0.2-0.3-0.5-0.8-0.7-1.1c-0.2-0.3,0.3,0.7,0,0.3c-0.2-0.2-0.3-0.5-0.5-0.8c-0.2-0.3,0,0.1,0,0.1c0,0.1,0.4,0.8,0.6,1.2
							c0.1,0.2,0.3,0.6,0.3,0.7c0,0,0,0.1-0.1,0c-0.1-0.2-0.2-0.5-0.3-0.6c-0.1-0.3-0.3-0.5-0.5-0.8c0.3,0.5,0.1,0.4,0.3,0.7
							c0,0.1-0.1-0.1-0.2-0.3c-0.1-0.1-0.1,0-0.1,0c0,0-0.2-0.2-0.3-0.4c-0.2-0.2-0.2-0.2-0.3-0.2c0,0-0.3-0.3-0.1,0.1
							c0.3,0.5,0.4,0.7,0.3,0.7c-0.1,0-0.5-0.7-0.3-0.3c0.2,0.5-0.3-0.3-0.1,0c0.1,0.2,0.9,1.4,0.9,1.5c-0.1,0-0.5-0.7-0.6-0.9
							c-0.2-0.3-0.2-0.2-0.4-0.6c0,0-0.1-0.2-0.1-0.2c0,0,0.1,0.2,0.1,0.2c0.2,0.3,0.1,0.3,0.1,0.3c0,0,0.5,0.6,0.3,0.6
							c-0.1-0.1-0.6-0.9-0.7-1.1c-0.2-0.2,0.1,0.3,0.3,0.7c0.2,0.4,0.1,0.3,0.1,0.3c0,0-0.2-0.1-0.1,0c0.2,0.3,0.3,0.5,0.1,0.3
							c-0.3-0.4-0.2-0.5-0.5-0.9c0,0.2-0.3-0.4-0.1,0c0.1,0.2-0.1,0,0.2,0.6c-0.2-0.3-0.3-0.4-0.1-0.1c0.1,0.2,0.3,0.5,0.4,0.8
							c0.3,0.5-0.2-0.3-0.3-0.4c-0.1-0.2-0.6-1-0.5-0.8c0,0.1,0.2,0.5-0.2-0.1c0.2,0.4,1,1.7,0.6,1.2c-0.2-0.2-0.8-1.2-0.6-0.8
							c0,0.1,0.3,0.6,0.2,0.5c-0.1-0.1-0.3-0.5-0.4-0.6C60.8,92.6,61,92.9,61,93c0,0,0.3,0.5,0.3,0.6c0.1,0.3,0,0.1,0.1,0.5
							c0,0.1,0.3,0.7,0.1,0.2c-0.2-0.2-0.3-0.4-0.3-0.3c0,0,0.1,0.3,0.1,0.4c0,0.1-0.6-1.1-0.8-1.3c-0.1-0.2,0.3,0.6,0.3,0.7
							c0.1,0.1,0.2,0.4,0,0.1c0.1,0.1,0.5,0.8,0.5,0.8c-0.1,0-0.8-1.2-1-1.6c0,0.1,0.4,0.7,0.4,0.7c-0.4-0.8-0.2-0.1-0.3-0.3
							c-0.1-0.1-0.3-0.4-0.3-0.4c0,0,0,0.1,0,0.2c0,0.1-0.1,0-0.1,0c0,0.1-0.1,0.1-0.1,0.2c0.1,0.2,0.4,0.6,0.5,0.8
							c0.1,0.2-0.3-0.4-0.4-0.5c-0.2-0.3-0.4-0.5-0.3-0.3c0.1,0.2,0.3,0.5,0.4,0.6c0.1,0.2,0.2,0.6-0.1,0.1
							c-0.5-0.9,0.3,0.8,0.3,0.8c-0.1-0.2-0.4-0.7-0.5-0.7c0,0,0.1,0.4-0.1,0c0,0,0.1,0.4-0.1,0.1c-0.1-0.1-0.4-0.5-0.3-0.3
							c0.2,0.3,0.6,0.9,0.7,1c0,0,0.2,0.4,0.2,0.4c0,0.1-0.3-0.4-0.4-0.5c-0.2-0.3-0.4-0.5-0.6-0.8c0.1,0.2,0.2,0.3,0.2,0.5
							c0.3,0.6,0.1,0.2-0.1-0.1c-0.5-0.7,0.1,0.7-0.4-0.2c-0.1-0.1,0.4,0.8,0.2,0.5c0-0.1-0.6-0.9-0.4-0.6c0.1,0.2,0.4,0.7,0.4,0.7
							c0,0-0.3-0.3-0.3-0.3c0,0,0.2,0.3,0,0c-0.2-0.2-0.3-0.3-0.3-0.3c0,0-0.1,0,0.1,0.2c0.2,0.3,0.4,0.7,0.5,0.6
							c0.1,0.1,0.3,0.4,0.3,0.5c0.1,0.2-0.1-0.1-0.2-0.2c-0.2-0.3-0.5-0.7-0.8-1.1c0.1,0.2,0.2,0.4,0.2,0.4c0,0-0.3-0.4-0.3-0.5
							c-0.2-0.2-0.1,0.1,0,0.2c0.1,0.2,0.1,0.3,0.3,0.7c0.1,0.1,0.3,0.6,0.2,0.4c-0.1-0.1-0.6-1.1-0.6-1.1c0,0.1,0.4,0.7,0.3,0.7
							c0,0-0.3-0.4-0.3-0.5c-0.1-0.1-0.1-0.1,0.1,0.2c0,0.1,0,0.3,0.2,0.6c0.1,0.3-0.2-0.2-0.5-0.6c-0.2-0.2,0.2,0.5,0.3,0.5
							c0,0.1,0.2,0.6,0.5,1.1c-0.2-0.3-0.3-0.6-0.6-1c-0.1-0.2-0.2-0.3-0.3-0.5c0.3,0.6,0.3,0.7,0.2,0.7c-0.1,0-0.4-0.5-0.6-0.7
							c0.2,0.4,0,0.4,0.1,0.4c0,0.1,0.3,0.6,0.3,0.6c0,0-1-1.3-0.4-0.3c0,0-0.5-0.6-0.3-0.3c0.2,0.4,0.3,0.6,0.5,0.9
							c-0.2-0.4-0.4-0.8-0.6-1.1c0.2,0.4,0.4,0.8,0.6,1.2c-0.1-0.1-0.6-1-0.6-1c0,0.2,0.6,1,0.8,1.5c0,0-0.6-0.9-0.7-1.1
							c-0.3-0.4,0,0.1-0.2-0.1c-0.1-0.1-0.2-0.4-0.2-0.3c0,0.1,0.2,0.4,0.1,0.4c0,0-0.1-0.1-0.2-0.1c-0.1-0.1-0.5-0.6-0.4-0.4
							c0,0,0.4,0.7,0.4,0.7c0.3,0.6,0.4,0.7,0.2,0.6c-0.1-0.1,0.1,0.3,0.2,0.4C57.2,96.8,57.6,97.2,57.7,97.4z"/>
						<path class="st4" d="M58.1,95.1c0-0.1-0.1-0.1-0.1-0.2C58,95,58,95,58.1,95.1z"/>
						<path class="st4" d="M63.8,91.9c0.1,0.1,0.1,0.1-0.1-0.3c-0.2-0.3-0.2-0.2-0.2-0.1C63.6,91.6,63.7,91.7,63.8,91.9
							C63.8,91.9,63.8,91.9,63.8,91.9z"/>
						<path class="st4" d="M64.9,94.1c0.3,0.3-0.1-0.3,0.1,0c0.2,0.2-0.1-0.5-0.1-0.7c0.3,0.4,0.3,0.5,0.3,0.3
							c0-0.2-0.2-0.5-0.4-0.8c0.2,0.5,1,1.4,0.3,0.5c-0.2-0.3-0.1-0.3,0-0.1c0.2,0.3,0.4,0.6,0.4,0.5c0.3,0.3-0.6-1-0.7-1.1
							c-0.1-0.2-0.9-1.6-1-1.7c-0.1-0.1,0.2,0.4,0,0.2c-0.1-0.1-0.4-0.6-0.3-0.3c0.2,0.3,0.4,0.6,0.5,0.8c0.1,0.2,0.1,0.2,0.2,0.4
							c-0.2-0.3-0.6-0.9-0.4-0.5c0.1,0.2,0.5,0.9,0.6,1.1c-0.3-0.4-0.5-0.9-0.8-1.3c0,0,0.3,0.5,0.4,0.7c0,0.2-0.1,0-0.2,0
							c-0.1,0,0,0.2-0.3-0.1c-0.1-0.1-0.3-0.4-0.3-0.4c0,0,0.4,0.6,0.5,0.7c0,0.1-0.3-0.4-0.5-0.7c0.2,0.3,0.3,0.5,0.3,0.6
							c0,0.1,0.1,0.2,0.3,0.6C64.3,93.4,64.7,93.9,64.9,94.1z"/>
						<path class="st4" d="M65.6,94C65.5,94,65.7,94.1,65.6,94L65.6,94z"/>
						<path class="st4" d="M65.5,93.6c0.3,0.4-0.4-0.7-0.5-0.9c0.1,0.1,0.9,1.4,0.7,1.1c-0.1-0.2-0.4-0.7-0.4-0.8
							c0-0.1,0-0.1,0.1-0.1c0,0,0.1,0.2,0.2,0.4c0.3,0.4,0.3,0.3,0-0.1c0.2,0.3-0.3-0.6,0-0.3c0.1,0.2,0.3,0.6,0.4,0.7
							c0-0.1-0.4-0.8-0.6-1.2c0.2,0.4,0.4,0.6,0.7,1.1c-0.2-0.3-0.7-1.4-0.7-1.4c0.2,0.4,0.7,1.2,0.7,0.9c0-0.2-0.5-0.6-0.6-0.9
							c-0.1-0.4,0.6,0.9,0.6,0.8c0,0-0.3-0.6-0.1-0.3c0,0,0.2,0.3,0.2,0.3c-0.1-0.1-0.2-0.3-0.3-0.5c0.3,0.5,0.4,0.7,0.6,0.9
							c0.1,0.1,0-0.1-0.2-0.3c0.2,0.3,0.3,0.4,0.4,0.4c0,0-0.1-0.3-0.2-0.5c-0.1-0.1-0.1-0.3-0.1-0.4c0,0,0.3,0.5,0.4,0.6
							c0-0.1-0.1-0.3-0.2-0.5c-0.1-0.1-0.1-0.2-0.1-0.2c-0.4-0.7-0.7-1-1.1-1.8c-0.5-0.7-0.3-0.3-0.3-0.3c-0.1,0-0.3-0.3-0.1,0.1
							c0.2,0.5,0.4,0.7,0.6,0.9c0,0,0.6,1.1,0.6,1.2c-0.1-0.2-0.3-0.5-0.5-0.8c-0.1-0.1-0.2-0.3-0.2-0.3c-0.1-0.2-0.5-0.9-0.5-0.9
							c0,0.1-0.6-0.5,0,0.4c-0.1-0.1-0.1,0-0.1,0c0,0.1-0.3-0.3-0.3-0.4c-0.1-0.1-0.1,0,0,0.2c0.2,0.5-0.2-0.3-0.3-0.2
							c0.3,0.5,0.3,0.4,0.6,1c0.1,0.2,0.4,0.9,0.2,0.6c-0.3-0.4-0.6-1.1-0.9-1.5c0,0-0.2,0,0,0.3c0.2,0.3,0.7,1.2,0.8,1.4
							C65,92.9,65.2,93.3,65.5,93.6z"/>
						<path class="st4" d="M65.5,90.8c-0.1-0.2-0.3-0.4-0.3-0.4C65.2,90.5,65.5,90.9,65.5,90.8z"/>
						<path class="st4" d="M66.6,92.4C66.6,92.4,66.6,92.4,66.6,92.4C66.5,92,66.2,91.7,66.6,92.4z"/>
						<path class="st4" d="M66,91.2c0.3,0.5,0.7,1.1,1.1,1.7c0-0.1-0.2-0.5-0.4-0.8c-0.3-0.4-0.1,0.1-0.1,0c-0.1-0.3-0.2-0.5,0-0.2
							c0.2,0.3,0.4,0.7,0.6,0.9c0.5,0.5-0.5-0.9-0.5-1c0-0.1,0.7,1,0.7,1c0.1,0.1,0.2,0.1-0.2-0.5c0-0.1,0.3,0.4,0.4,0.5
							c0.1,0.1,0.1,0-0.1-0.4c0.5,0.8,0.1-0.2,0.3,0c0,0,0,0,0,0c-0.2-0.3-0.6-1-0.9-1.5c-0.2-0.4-0.2-0.3-0.3-0.4
							c-0.1-0.1-0.5-0.8-0.3-0.5c0.1,0.2,0.2,0.4,0.2,0.4c0,0,0,0,0,0.1c0,0.1,0.3,0.6,0.4,0.8c0.3,0.6-0.7-1.1-0.6-1.1
							c-0.1-0.1,0.3,0.6,0.1,0.4c-0.2-0.3-0.5-0.8-0.5-0.7c0,0,0.1,0.5,0.3,0.7c0,0-0.1-0.3,0-0.1c0.2,0.4,0.1,0.5,0,0.4
							c-0.1-0.1-0.1-0.2-0.2-0.3c-0.1-0.2-0.1-0.2-0.3-0.6c0.1,0.3,0.3,0.6,0.5,0.9c-0.1-0.1-0.7-1.1-0.6-0.9
							c0.1,0.2,0.3,0.6,0.3,0.7c0,0-0.2-0.2-0.2-0.2c-0.2-0.2,0.7,1.1-0.1,0c-0.3-0.5-0.4-0.6-0.2-0.1c0.3,0.5-0.5-0.6-0.2-0.1
							c0.3,0.5,0.8,1.4,1.1,2C67.1,93.5,66.2,91.6,66,91.2z"/>
						<path class="st4" d="M67.9,92.4C67.8,92.3,67.8,92.3,67.9,92.4C67.8,92.3,68,92.5,67.9,92.4z"/>
						<path class="st4" d="M67.9,89.5c0,0-0.3-0.6-0.4-0.7C67.5,88.9,67.8,89.6,67.9,89.5z"/>
						<path class="st4" d="M68,88.8c-0.2-0.1,0.1,0.3,0.1,0.2C68.1,89,68,88.9,68,88.8z"/>
						<path class="st4" d="M66.8,90.6c0.1,0.1,0.2,0.4,0.3,0.5c0.2,0.3-0.2-0.5,0.3,0.3c0.2,0.3,0.6,0.8,0.4,0.5
							c-0.1-0.2-0.3-0.6-0.5-0.8c0.2,0.3,0.5,0.9,0.6,0.9c0,0-0.1-0.4,0.2,0.1c-0.2-0.3-0.4-0.7-0.4-0.8c0.1,0.1,0.6,1,0.6,0.9
							c0,0-0.3-0.7-0.4-0.8c-0.3-0.6,0.4,0.6,0.4,0.6c0,0-0.1-0.4-0.1-0.4c0-0.1-0.3-0.5-0.4-0.7c0-0.1,0.4,0.7,0.5,0.8
							c0.1,0.1,0.1,0,0.2,0.2c0.2,0.3,0.2,0.2,0.1,0c-0.1-0.2,0-0.2,0.1,0c0,0.1,0.4,0.6,0.2,0.3c-0.1-0.1-0.4-0.6-0.4-0.7
							c0-0.1,0.2,0.2,0.3,0.4c0.4,0.7-0.1-0.3-0.2-0.4c0,0,0.3,0.5,0.4,0.5c0-0.1-0.2-0.3-0.3-0.5c-0.1-0.2,0.4,0.5,0.4,0.5
							c0.1,0.1-0.1-0.3-0.2-0.4c-0.1-0.2-0.1-0.4-0.3-0.8c-0.1-0.2-0.3-0.5-0.1-0.3c0.2,0.2,0.5,0.8,0.6,0.8c0-0.1,0.2,0.3,0.4,0.5
							c0.4,0.5-0.4-1,0.2-0.1c-0.3-0.5-0.5-0.9-0.4-0.7c0.1,0.1,0.6,0.8,0.6,0.8c0,0-0.8-1.2-0.9-1.3c-0.4-0.6-0.5-0.9-0.8-1.4
							c-0.2-0.4-0.3-0.2-0.3-0.2c0,0.1,0.5,0.7,0.6,1c-0.1-0.1-0.2-0.4-0.3-0.6c0.2,0.3,0.3,0.6,0.4,0.8c0.2,0.3-0.1-0.1-0.3-0.3
							c-0.2-0.4-0.6-0.8-0.2-0.1c0.1,0.2,0.6,1,0.4,0.9c-0.1-0.1-0.6-1-0.7-1.2c-0.2-0.3-0.2-0.1-0.2-0.1c-0.1,0.1-0.3-0.2,0.3,0.8
							c-0.2-0.3,0.1,0.2,0,0.3c0,0-0.3-0.5-0.3-0.4c0,0,0.7,1.3,0.4,0.8c-0.1-0.1-0.4-0.5-0.5-0.8c-0.1-0.2,0.2,0.2,0.2,0.2
							c0.1,0.1,0-0.1-0.1-0.3c-0.2-0.3-0.1-0.3-0.1-0.3c-0.3-0.4-0.4-0.5-0.2-0.1c0,0.1-0.3-0.3-0.2-0.2c0,0.1,0.1,0.4,0.4,0.8
							c0.1,0.2,0.3,0.4,0.4,0.6c0.1,0.1,0.4,0.9,0.3,0.7c-0.2-0.4-0.4-0.7-0.6-1c-0.2-0.3-0.4-0.5-0.4-0.5c0,0-0.3-0.4-0.4-0.4
							c0.1,0,1.9,3.2,0.3,0.5c-0.3-0.5-0.4-0.6-0.3-0.3c0.1,0.1,0.6,1.2,0.6,1.2c0,0-0.8-1.4-0.8-1.3c0.2,0.3,0.9,1.4,0.9,1.6
							c0,0.1-0.6-1-0.8-1.2c-0.1-0.1-0.1,0-0.1,0c0,0-0.2-0.2-0.2-0.3c-0.1-0.1,0.3,0.9,0.3,0.9c-0.1-0.1-0.2-0.5-0.4-0.6
							c-0.1-0.1,0,0.1,0,0.1c0.1,0.1,0.5,1,0.4,0.9c-0.1-0.1-0.5-0.8-0.7-1c-0.2-0.3,0,0.2,0.2,0.5C66.7,90.6,66.6,90.3,66.8,90.6z"
							/>
						<path class="st4" d="M69,90.2c0.2,0.3,0.6,0.8,0.5,0.6c0,0,0,0,0-0.1c-0.2-0.3-0.4-0.7-0.6-1C68.9,89.8,69,90,69,90.2
							C69,89.9,68.5,89.3,69,90.2z"/>
						<path class="st4" d="M68.7,88.9c-0.1-0.1-0.4-0.7-0.4-0.6C68.2,88.3,68.6,89,68.7,88.9z"/>
						<path class="st4" d="M70.2,91.8c0,0-0.2-0.4-0.2-0.4c0-0.1,0.2,0.1,0.2,0.1c0-0.1-0.1-0.2-0.1-0.4c0-0.1-0.2-0.4-0.2-0.4
							c0,0,0.4,0.6,0.3,0.5c-0.1-0.2-0.5-0.8-0.6-1.1c-0.3-0.5-0.6-1-0.9-1.5c0,0,0.6,1.1,0.5,1c-0.1-0.1-0.7-1.2-0.7-1.1
							c0.5,0.9,0.2,0.4,0.4,0.8c0.2,0.4,0.7,1.1,0.6,1.1c-0.1,0-0.3-0.5-0.5-0.8c-0.2-0.3-0.6-0.9-0.7-1.1c0,0,0.7,1.3,0.8,1.5
							c0.2,0.4,0.8,1.4,0.8,1.4C69.9,91.3,69.9,91.4,70.2,91.8z"/>
						<path class="st4" d="M70.5,91.5c0.1,0,0.1-0.1-0.1-0.4c-0.1-0.3-0.4-0.7-0.5-0.9c-0.1-0.2,0.7,1,0.8,1.1c0.1,0.1,0-0.1,0-0.1
							c0-0.1,0-0.2,0.1-0.2c0.1,0,0.3,0.3,0-0.3c0-0.1-1-1.7-0.7-1.4c0,0,0.3,0.5,0.4,0.6c0.1,0.2,0.2,0.4,0.3,0.5
							c0.3,0.4,0.4,0.4,0.4,0.3c0,0,0.1,0,0-0.3C71,90,71,90.2,71,90.2c0,0.1-0.4-0.6-0.4-0.7c-0.2-0.3-0.5-0.8-0.7-1.2
							c-0.2-0.3-0.1,0-0.2-0.2c-0.2-0.3-0.3-0.4-0.3-0.3c0,0.2,0.1,0.3,0.4,0.9c0.1,0.2,0.4,0.6,0.3,0.4c-0.1-0.2,0.3,0.4,0.3,0.5
							c0.1,0.1,0.4,0.8,0.3,0.6c0-0.1-0.3-0.5-0.3-0.6c-0.2-0.3-0.4-0.6-0.5-0.8c0,0-0.5-0.5-0.5-0.7c0,0,0.2,0.2,0.1,0
							c-0.1-0.2-0.4-0.4,0.1,0.4c0.2,0.3,0.1,0.2,0.1,0.3c0.1,0.2,0.1,0.1,0.2,0.4c-0.1-0.1-0.5-0.7-0.6-0.8
							c-0.2-0.3-0.2-0.1-0.2-0.1c-0.3-0.3,0.5,0.9,0.7,1.3c0.1,0.1,0,0.1,0,0.1c0,0-0.2-0.4-0.3-0.4c-0.2-0.3-0.5-0.8-0.4-0.5
							c0.1,0.3,0.4,0.8,0.6,1.1c0,0.1,0.2,0.5,0.3,0.6c0,0.1-0.5-1-0.6-1.1c-0.2-0.3-0.5-0.8-0.6-0.9c-0.2-0.2,0.1,0.3,0.3,0.7
							c0.1,0.2,0.3,0.4,0.4,0.6c0.1,0.2,0.1,0.2,0,0.1C69.5,90.1,70.4,91.4,70.5,91.5z"/>
						<path class="st4" d="M71.3,90C71.5,90.5,70.9,89.3,71.3,90L71.3,90z"/>
						<path class="st4" d="M71,89.8c0.1,0,0.3,0.4,0.4,0.6c0.1,0.2,0-0.2-0.1-0.3c-0.1-0.3-1-1.9-0.9-1.5C70.2,88.2,70,88,70.1,88
							c-0.3-0.4-0.1,0.2,0,0.3c0.1,0.4,0.4,0.9,0.8,1.6C71.7,91.2,70.9,89.7,71,89.8z"/>
						<path class="st4" d="M72.2,90c0.1,0.2,0.1,0.2,0.1,0.2c0,0,0,0,0,0C72.3,90,72.2,89.9,72.2,90z"/>
						<path class="st4" d="M72.2,88.4C72.2,88.3,72.2,88.3,72.2,88.4C72.1,88.1,72,88.1,72,88c-0.1-0.3-0.2-0.5-0.3-0.4
							c0,0,0.5,0.9,0.6,1C72.3,88.6,72.3,88.5,72.2,88.4z"/>
						<path class="st4" d="M72.2,88.4C72.3,88.5,72,88,72,88C72.1,88.1,72.1,88.2,72.2,88.4C72.1,88.3,72.2,88.3,72.2,88.4z"/>
						<path class="st4" d="M71.4,87c0,0,0.2,0.2,0.2,0.1C71.3,86.6,71.4,86.9,71.4,87z"/>
						<path class="st4" d="M70.3,88.2c0-0.1,0.5,0.8,0.5,0.6c0-0.1-0.2-0.4-0.2-0.5c0,0-0.1-0.2,0-0.1c-0.1-0.2-0.2-0.4-0.4-0.6
							c0.3,0.4,0.5,0.7,0.7,1.1c-0.1-0.3-0.6-1.2-0.4-1c0.1,0.1,0.5,0.8,0.6,1c0,0.1,0.1,0.2,0.1,0.2c0.1,0.1,0-0.1,0-0.2
							c-0.1-0.2-0.2-0.5-0.4-0.7c-0.2-0.4-0.4-0.8-0.3-0.7c0.1,0,0.5,0.8,0.7,1c0.1,0.1,0-0.2-0.1-0.4c-0.1-0.2-0.3-0.4-0.4-0.6
							c-0.3-0.5-0.2-0.5,0.1,0c-0.1-0.2-0.2-0.4-0.2-0.4c0.1,0.1,0.3,0.5,0.4,0.7c0.4,0.6,0.8,1.3,1.2,2c-0.3-0.5-0.5-1-0.8-1.4
							c-0.1-0.2-0.3-0.4-0.4-0.6c-0.1-0.3,0.1,0.1,0.2,0.2c0.2,0.3,0.8,1.2,0.7,1c0-0.1-0.7-1-0.7-1.1c-0.5-0.7-0.2-0.5-0.2-0.5
							c0,0-0.1-0.4,0-0.2c0.1,0.1,0.4,0.6,0.4,0.7c0.1,0.2,0.7,1.1,0.7,1.1c0,0-0.7-1.2-0.7-1.2c0,0,0.2,0.3,0.1,0.1
							c0-0.1-0.3-0.5-0.4-0.7c-0.4-0.7,0.1,0,0.3,0.4c-0.2-0.3-0.5-0.9-0.2-0.4c0.3,0.5,1,1.5,1.3,2.1c0,0-0.1-0.4-0.2-0.4
							c-0.1-0.3-0.3-0.6-0.5-0.9C71.4,87,72.2,88,72.2,88c0,0-0.6-0.9-0.4-0.6c0.1,0.1-0.2-0.4-0.1-0.4c0,0,0.3,0.4,0.3,0.4
							c0,0-0.9-1.5-0.5-1c0.2,0.3,0.8,1.2,1.1,1.7c-0.1-0.2-0.2-0.5-0.4-0.7c-0.1-0.1-0.2-0.5-0.4-0.7c0,0,0,0.1-0.1,0
							c-0.2-0.3,0-0.3,0-0.3c0,0,0-0.2,0.2,0.2c0.8,1.4-0.2-0.6,0.1-0.3c0.1,0.2,0.6,1,0.8,1.2c0.3,0.5,0.8,1.2,0.9,1.6
							c0.1,0.3,0,0.1-0.3-0.4c-0.2-0.3-0.4-0.5-0.5-0.7c0.2,0.3,0.5,0.8,0.7,1.2c-0.1-0.2-1.2-1.9-0.9-1.4c0.2,0.4,0.6,1,0.7,1.3
							c0.1,0.2,0.2,0.6-0.2,0c0.3,0.5,0.1,0.3-0.1,0c-0.1-0.1-0.5-0.7-0.3-0.3c0.2,0.4,0.5,0.8,0.3,0.6c-0.2-0.2,0,0.1,0,0.2
							c-0.4-0.5-0.2,0.2-0.3,0.2c0,0-0.1,0-0.2-0.2c-0.1-0.1-0.3-0.6-0.3-0.6c0,0,0.3,0.6,0.3,0.7c0.1,0.2-0.1,0-0.2-0.1
							c-0.5-0.7,0,0,0.1,0.2c0,0.1,0,0.1,0,0.1c0,0-0.2-0.3-0.2-0.4c0,0,0.2,0.5,0.2,0.5c-0.1-0.1-0.5-0.6-0.7-0.9
							c-0.3-0.4,0.3,0.6,0.5,0.9c0.3,0.5-0.2-0.2,0,0.2c-0.4-0.7-0.1,0.2-0.2-0.1c-0.2-0.4-0.4-0.7-0.6-0.9
							c-0.1-0.1-0.2-0.2-0.3-0.3c0.2,0.3,0.4,0.7,0.7,1c0,0.1,0.3,0.4,0.3,0.4c0,0.1,0,0-0.1-0.2c0,0,0,0.2-0.1,0
							c-0.2-0.3-0.2-0.4-0.3-0.3c0,0.1,0.2,0.4,0,0.1c0,0.2,0,0,0.3,0.5c-0.1-0.2-0.2,0-0.6-0.8c-0.2-0.4-0.4-0.6-0.5-0.9
							c-0.1-0.1-0.2-0.3-0.3-0.4C70.4,88.4,70.4,88.4,70.3,88.2z M71.6,88.9c0.1,0.1-0.1-0.3-0.3-0.6c-0.1-0.1-0.1-0.2-0.2-0.3
							C71.2,88.4,71.4,88.7,71.6,88.9z"/>
						<path class="st4" d="M73.5,87.7c0.1,0.2,0.3,0.5,0.4,0.6C73.9,88.3,73.3,87.3,73.5,87.7z"/>
						<path class="st4" d="M73.8,88.6c-0.1-0.2-0.2-0.4-0.3-0.6c-0.1-0.4,0.1,0.1,0.3,0.4c0.1,0.2,0.6,0.8,0.3,0.4
							c-0.2-0.3-0.5-0.8-0.7-1.1c-0.5-0.7-0.2-0.5-0.2-0.5c-0.1-0.2-0.3-0.4-0.4-0.7c0-0.1-0.1-0.1-0.1-0.2
							c-0.1-0.2-0.3-0.6-0.4-0.7c-0.2-0.2,0,0.2,0.2,0.4c0,0.1,0.5,0.9,0.3,0.6c-0.2-0.2-0.4-0.6-0.6-0.9c-0.2-0.2-0.1,0,0,0.1
							c0.1,0.2,0,0.2,0,0.3c0,0.1,0.6,1.1,0.9,1.6C73.4,88.4,74,89.2,73.8,88.6z"/>
						<path class="st4" d="M72.7,86.4c0,0.1,0.1,0.1,0.1,0.2C72.9,86.8,72.5,86,72.7,86.4z"/>
						<path class="st4" d="M73.5,86.1c-0.1-0.3-0.6-1.1-0.5-0.8C73.1,85.5,73.5,86.2,73.5,86.1z"/>
						<path class="st4" d="M73.9,86.4c-0.1-0.3-0.7-1.2-0.7-1C73.2,85.5,74.1,86.9,73.9,86.4z"/>
						<path class="st4" d="M73.9,86.4C74,86.7,73.7,86.1,73.9,86.4L73.9,86.4z"/>
						<path class="st4" d="M75.7,84.3c-0.2-0.5-0.6-0.9-0.3-0.4C75.6,84.3,75.8,84.7,75.7,84.3z"/>
						<path class="st4" d="M78.2,86.4C78.2,86.4,78.2,86.4,78.2,86.4C78.1,86,77.8,85.6,78.2,86.4z"/>
						<path class="st4" d="M74.2,88.8c-0.1-0.1-0.3-0.7,0-0.1c0.2,0.4,0.2,0.2,0.2,0.2c0-0.1,0.1-0.1,0-0.4
							c-0.1-0.3,0.3,0.2,0.3,0.1c0-0.1-0.6-1.2-0.2-0.5c0.3,0.5,0.1-0.1,0.2,0c0.2,0.4,0.2,0.1,0.3,0c0-0.1,0.2,0.1,0.2,0
							c0,0-0.2-0.2-0.3-0.4c-0.1-0.2,0-0.1,0-0.1c0,0-0.1-0.2-0.1-0.3c0,0,0.2,0.2,0.3,0.4c0,0,0,0,0,0.1c0.3,0.4,0.3,0.4,0.3,0.2
							c0-0.2,0.2,0.2,0.2,0.2c0-0.1-0.2-0.5-0.3-0.8c-0.1-0.2,0.3,0.4,0.4,0.5c0.3,0.4,0-0.4,0.1-0.3c0.1,0.1,0.1,0.1-0.1-0.3
							c-0.2-0.3,0.1,0,0.2,0c0.1-0.1-0.1-0.3,0.4,0.4c0.1,0.2-0.1-0.3-0.1-0.4c-0.2-0.5-0.4-0.6-0.3-0.7c0.2,0.2-0.1-0.2-0.2-0.5
							c-0.1-0.2-0.9-1.4-0.8-1.4c0,0,0.6,1,0.7,1.2c0.1,0.1,0.5,0.9,0.5,0.9c0.2,0.4,0.7,1.1,0.3,0.4c0.1,0.2,0.3,0.4,0.3,0.3
							c-0.1-0.3-0.1-0.3-0.1-0.3c0.1,0,0.2,0.2,0.1-0.1c0-0.1-0.1-0.2-0.2-0.4c0.2,0.4,0.5,0.7,0.6,0.8c0,0-0.7-1.1-0.7-1.2
							c0.3,0.5,0.6,1,0.7,1c0,0,0.2,0-0.1-0.4c0.2,0.3,0.3,0.4,0.3,0.4c0.1,0,0-0.1-0.2-0.4c0,0,0.3,0.4,0.3,0.4
							c0,0-0.3-0.6-0.4-0.8c0-0.1-0.3-0.5-0.3-0.5c0,0-0.2-0.2-0.2-0.2c0-0.1,0.1-0.1,0.3,0.2c0.2,0.2,0.4,0.6,0.5,0.8
							c0.2,0.2-0.3-0.6-0.3-0.7c-0.1-0.2,0.3,0.3,0.3,0.4c0.3,0.4,0.4,0.4,0-0.3c-0.1-0.1,0.2,0,0.4,0.4c-0.1-0.2-0.3-0.5-0.3-0.6
							c0,0,0.2,0.2,0.3,0.3c0.1,0.2-0.4-0.6-0.5-0.8c0.1,0.2,0.1,0.1,0.3,0.5c0.1,0.1,0.4,0.7,0.4,0.6c0-0.1-0.1-0.1-0.1-0.3
							c0,0,0,0,0-0.1c0,0.1,0,0,0-0.1c-0.1-0.3-0.4-0.8-0.6-1.2c-0.1-0.3-0.4-0.6-0.4-0.6c0.2,0.4,0.4,0.7,0.7,1.1
							c0.2,0.3,0.1,0.1,0.2,0.2c0.1,0.1,0.3,0.5,0.4,0.5c0,0,0.1,0,0-0.1c-0.1-0.2-0.4-0.6-0.5-0.8c-0.1-0.2,0.1,0,0.2,0.2
							c0.4,0.5,0.4,0.6,0.4,0.5c0.1-0.1-0.4-0.9-0.9-1.6c-0.3-0.4-0.5-0.8-0.8-1.3c-0.5-0.9,0.2,0.4,0.2,0.4c0,0-0.4-0.7-0.5-0.8
							c0,0,0.2,0.4,0.3,0.6c0.1,0.2,0,0.2,0,0.4c0,0.1,0.1,0.4-0.1,0c-0.1-0.1-0.4-0.6-0.4-0.7c0,0.1-0.1,0-0.1,0.3
							c0.1,0.2,0.5,0.9,0.7,1.3c-0.2-0.4-0.1-0.1-0.1-0.1c0,0-0.3-0.5-0.3-0.5c-0.2-0.3-0.8-1.3-0.5-0.6c0.2,0.4,0.5,0.7,0.7,1
							c0.2,0.2,0.3,0.6,0.1,0.4c0,0-0.2-0.4-0.3-0.5c0,0,0.1,0.3-0.1,0c-0.1-0.2-0.2-0.3-0.3-0.5c0.2,0.3,1.4,2.2,1,1.8
							c-0.1-0.1-1.3-2.2-1.3-2.1c0,0.1,0.6,1.1,0.7,1.3c-0.1-0.1-0.6-0.8-0.6-0.9c-0.3-0.3,0.5,0.7,0.4,0.6c0.1,0.2,0,0.2,0.1,0.3
							c0.2,0.3,0.1,0.2,0.1,0.2c-0.1-0.2-0.7-1.1-0.5-0.9c-0.2-0.4-0.6-0.9-0.4-0.5c0.2,0.3,0.7,1.2,0.8,1.4c0,0-0.6-1-0.6-1
							c-0.1,0,0.5,0.9,0.7,1.2c0,0-0.2-0.4-0.3-0.4c0,0-0.1,0-0.2-0.1c-0.1-0.1-0.2-0.3-0.4-0.5c-0.1-0.2-0.3-0.4-0.3-0.3
							c0,0,0.1,0.2,0,0.1C75.1,84,75.1,84,75.1,84c0,0.1,0.1,0.3,0.2,0.4c0,0.1,0.2,0.5,0.1,0.4c0-0.1-0.3-0.5-0.3-0.5
							c0,0.1,0.5,0.9,0.5,0.9c-0.2-0.2,0.1,0.3,0,0.2c-0.2-0.2-0.5-0.7-0.6-1c0.1,0.2,0.2,0.3,0.3,0.5c-0.2-0.3-0.4-0.5-0.5-0.5
							c-0.1,0-0.3-0.3,0.1,0.3c0.4,0.7,0.1,0.3,0.5,0.9c0.1,0.1,0.3,0.5,0.1,0.3c-0.1-0.1-0.2-0.3-0.3-0.5c-0.2-0.3,0.1,0.4-0.1,0
							c-0.2-0.3-0.3-0.5-0.4-0.6c0,0-0.3-0.4-0.3-0.4c0.1,0.2,0.1,0.3,0,0.1c0.2,0.3,0.8,1.4,0.9,1.5c0.2,0.2,0.7,1.1,0.4,0.7
							c-0.6-0.8,0.2,0.5,0.1,0.4c0,0-0.2-0.3-0.3-0.5c-0.2-0.4,0-0.2-0.1-0.4c0-0.1-0.8-1.3-0.8-1.3c0,0,0.5,0.9,0.3,0.6
							c-0.1-0.2-0.2-0.3-0.3-0.4c0.2,0.3,0.1,0.4,0,0.2c-0.2-0.3-0.4-0.7-0.5-0.7c0.2,0.3,0,0.1,0.1,0.3c0.1,0.1,0.2,0.4,0.3,0.5
							c0,0,0.1,0,0.1,0.1c0.2,0.3,0.6,1.1,0.7,1.4c-0.2-0.3-0.4-0.7-0.5-0.8c0,0.1-0.3-0.4-0.3-0.4c-0.1,0,0.8,1.5,0.7,1.5
							c0-0.1-0.7-1.3-1-1.6c-0.3-0.5-0.1-0.1,0.1,0.2c-0.2-0.3-0.9-1.5-0.5-0.7c0.7,1.2-0.1-0.2,0,0.2c0.2,0.5,0.5,0.8,0.5,0.8
							c0-0.1,0.5,0.9,0.6,1.1c-0.2-0.2-0.4-0.5-0.5-0.8c-0.2-0.3-0.4-0.6-0.5-0.8c-0.1-0.2-0.3-0.4-0.4-0.5c0.2,0.3,0.3,0.5,0.5,0.8
							c0,0-0.4-0.6-0.5-0.7c-0.2-0.2,0,0.1,0.1,0.3c-0.1-0.1-0.3-0.3-0.4-0.4c0.3,0.5,0.7,1.2,1,1.7c0.1,0.2,0.1,0.2,0,0.2
							c0,0-0.2-0.3-0.2-0.4c-0.3-0.3,0.2,0.5,0.3,0.6c0,0.1,0,0.2,0,0.1c-0.1-0.1-0.2-0.5-0.4-0.8c-0.1-0.1-0.7-1-0.7-1
							c0.1,0.2,0.7,1.3,0.8,1.5c0.1,0.3-0.1,0.1-0.2-0.2c-0.2-0.3-0.8-1.2-0.7-1.1c0,0.1,0.1,0.3,0,0.2c-0.1-0.1-0.2-0.3-0.2-0.3
							c-0.1-0.1,0.4,0.8,0.4,1c0,0.1-0.3-0.3-0.4-0.4c0,0-0.4-0.5,0,0.1c0.2,0.4,0.5,0.8,0.5,0.9c-0.3-0.5-1-1.7-0.8-1.2
							c0,0.1,0.9,1.5,1,1.8c0,0.1-0.9-1.3-0.9-1.4c0,0.1,0.8,1.4,0.9,1.7C73.9,88.3,74.4,89.3,74.2,88.8z"/>
						<path class="st4" d="M77.9,82.7c-0.1-0.1-0.4-0.7-0.4-0.6C77.5,82.1,77.9,82.8,77.9,82.7z"/>
						<path class="st4" d="M79.9,85.1C80,85.3,79.8,84.8,79.9,85.1L79.9,85.1z"/>
						<path class="st4" d="M77,83.5c0,0,0.5,1,0.6,1c0,0,0-0.3,0.2,0.2c0.1,0.2-0.1,0,0.1,0.2c0.2,0.4,0.6,0.9,0.7,1.1
							c0.2,0.2,0.2,0.1,0.1-0.1c0-0.1-0.6-1.1-0.3-0.7c0.1,0.1,0.3,0.5,0.4,0.7c0.1,0.2,0.1,0.1,0.1,0c0-0.1-0.2-0.3-0.2-0.5
							c0-0.2,0.1,0,0.2,0.1c0.1,0.1,0.5,0.4,0.1-0.2c-0.1-0.1-0.5-0.9-0.3-0.6c0.2,0.2,0.3,0.5,0.5,0.8c-0.1-0.1-0.3-0.7,0.1-0.1
							c0.2,0.3-0.1-0.2-0.1-0.2c0,0,0.3,0.4,0.4,0.4c0,0-0.2-0.4-0.1-0.3c0.1,0.2,0.3,0.4,0.3,0.3c0,0-0.2-0.4-0.2-0.4
							c0,0,0.2,0.1,0.2,0.1c0,0,0.2,0.2,0.1-0.1c0-0.1-0.1-0.2-0.1-0.3c0,0,0,0.1-0.1,0c-0.1-0.2-0.3-0.4-0.4-0.6
							c-0.2-0.3-0.6-0.8-0.8-1.2c-0.2-0.3-0.3-0.5-0.4-0.7c-0.1-0.1,0.3,0.5,0.3,0.6c0.2,0.4-0.2-0.3-0.2-0.1c0,0,0.1,0.3,0.2,0.3
							c-0.1-0.2-0.4-0.5-0.4-0.5c0,0,0.7,1.3,0.8,1.5c0.2,0.6-0.3-0.5-0.3-0.5c0,0,0.2,0.4,0.2,0.5c0,0.1-0.1-0.2-0.2-0.3
							c-0.2-0.3-0.4-0.6-0.6-0.9c0,0.1,0.5,0.9,0.4,0.9c-0.3-0.3-0.6-1.1-0.7-1.3c-0.2-0.2,0.3,0.8-0.2,0.1c0.2,0.3,0.4,0.6,0.6,0.9
							c0,0.1-0.5-0.8-0.4-0.4c0.1,0.2,0.1,0.2,0.3,0.6c0,0.1,0,0.1-0.1,0.1c0-0.1-0.5-1-0.3-0.5c0.1,0.1-0.2-0.3-0.2-0.3
							c-0.1,0,0,0.2,0,0.3c0,0-0.5-0.6-0.2-0.1c0.1,0.2,0.4,0.7,0.5,0.8c0.1,0.1-0.2-0.2,0,0.1c0,0.1,0.1,0.2,0.2,0.3
							C77.8,84.5,77.2,83.6,77,83.5c0-0.1,0.4,0.4,0-0.4c0,0-0.2-0.1-0.2-0.1c0,0,0,0.2-0.2-0.1c0,0,0,0,0,0.2
							C76.8,83.4,77,83.6,77,83.5z"/>
						<path class="st4" d="M79.9,81.7C80,81.9,79.9,81.7,79.9,81.7L79.9,81.7z"/>
						<path class="st4" d="M78.3,82.4c0,0,0.5,0.5,0.4,0.6c-0.3-0.3,0.6,1.2,0.3,0.7c-0.2-0.3-0.4-0.6-0.4-0.6c0,0,0,0,0.1,0.2
							c0.4,0.7,0.5,0.6,0.7,0.9c0.2,0.2,0.5,0.9,0.6,0.9c0,0,0.1-0.1,0-0.1c0-0.1-0.2-0.4,0-0.3c0.1,0.1,0.1,0.2,0-0.1
							c0,0,0-0.1,0.1,0c0-0.1-0.3-0.5-0.2-0.5c0.1,0.1,0.3,0.6,0.4,0.7c0,0-0.1-0.3-0.1-0.3c-0.1-0.2-0.4-0.8-0.3-0.5
							c-0.3-0.5,0,0-0.1-0.3c-0.1-0.1-0.5-0.8-0.5-0.8c0-0.1,0.6,0.9,0.7,1.1c0.1,0.2,0.3,0.4,0.4,0.5c0.1,0.1,0.4,0.3,0.4,0.3
							c0,0-0.4-0.6-0.5-0.8c0-0.1,0.4,0.5,0.4,0.6c0.1,0-0.1-0.3-0.2-0.5c-0.1-0.2-0.1-0.2,0.1,0.2c0.2,0.3,0.2,0.2,0.2,0.1
							c0,0,0.1,0,0-0.2c-0.1-0.1-0.3-0.6-0.2-0.4c0.4,0.6,0.4,0.5-0.1-0.3c0,0,0.3,0.5,0.4,0.6c0,0,0.3,0.3,0.2,0.2
							c0-0.1-0.7-1.1-0.4-0.7c0.2,0.2,0.4,0.6,0.4,0.5c0,0-0.3-0.5-0.4-0.7c0-0.1-0.4-0.7-0.4-0.7c-0.1,0-0.2-0.1-0.5-0.6
							c-0.2-0.3,0.1-0.1-0.1-0.5c0,0-0.3-0.5-0.5-0.8c0.1,0.2,0.2,0.4,0.3,0.5c-0.1-0.3-0.4-0.6-0.4-0.5c0,0.1,0.2,0.5,0.3,0.8
							c0.1,0.3,0.5,0.9,0.2,0.6c-0.3-0.4-0.2-0.2,0,0.2c-0.2-0.2-0.3-0.5-0.4-0.5c0,0-0.2-0.5-0.2-0.5c0,0-0.2-0.2-0.2-0.1
							c0,0,0.9,1.5,0.6,1.1c-0.3-0.3-0.9-1.6-0.8-1.1c0,0.2,0.3,0.5,0.5,0.8c0.2,0.3,0.2,0.4,0.4,0.7c0,0-0.4-0.7-0.5-0.8
							c-0.1-0.3-0.3-0.6-0.5-0.8c-0.1-0.2,0,0.1,0.1,0.2c0.2,0.4,0.6,0.9,0.7,1.1c0,0.1-0.1,0-0.2-0.2c0,0-0.4-0.7-0.4-0.8
							c0,0,0.1,0.3,0,0.1c-0.2-0.2-0.1-0.1-0.1-0.1c0,0-0.2-0.3-0.2-0.2c0,0,0.1,0.6,0.2,0.8c-0.1-0.1-0.2-0.3-0.2-0.4
							c-0.1-0.1-0.1,0-0.1,0c0,0-0.2-0.2-0.2-0.1c0,0.1,0.4,0.8,0.2,0.5c-0.1-0.1-0.4-0.5-0.2-0.2c-0.3-0.4-0.2,0-0.3-0.1
							c-0.2-0.2,0.4,0.9,0.6,1.1C78.4,82.9,78.3,82.4,78.3,82.4z"/>
						<path class="st4" d="M79.3,80.7c0,0,0.1,0.1,0.1,0.2C79.4,80.8,79.4,80.8,79.3,80.7z"/>
						<path class="st4" d="M80.5,81.6C80.5,81.6,80.5,81.6,80.5,81.6c-0.1-0.2-0.2-0.3-0.1-0.2C80.5,81.6,80.5,81.6,80.5,81.6z"/>
						<path class="st4" d="M80.5,81.1C80.5,81.1,80.5,81.1,80.5,81.1C79.9,80.1,80.4,81.2,80.5,81.1z"/>
						<path class="st4" d="M81.5,84.3C81.6,84.3,81.6,84.3,81.5,84.3c0.1-0.1-0.1-0.5,0.1-0.2c-0.1-0.2-0.1-0.4,0-0.3
							c0.1,0.1,0.1,0.2,0.1,0.2c0.2,0.2,0.2,0,0.2,0c0.1,0,0.2,0-0.1-0.5c-0.1-0.1,0.2,0.2,0.2,0.3c-0.3-0.6,0.2,0.1,0.2,0
							c0-0.1-0.7-1.3-1-1.9c0,0,0,0-0.1-0.2c-0.1-0.2-0.3-0.6-0.5-0.9c0,0,0.2,0.4,0.3,0.6c0.1,0.3-0.2-0.3-0.3-0.4
							c-0.1-0.1,0.2,0.5,0.3,0.6c0.1,0.2,0,0,0,0.1c0,0,0.6,1.1,0.4,0.7c-0.1-0.1-0.6-1-0.6-1.1c-0.4-0.8-0.6-1.1-0.6-0.8
							c0,0.1-0.1,0.3,0.1,0.5c0.2,0.4,0.2,0.1,0.2,0.1c0.1,0,0.2,0.3,0.4,0.6c0.1,0.2,0.4,0.4,0.5,0.7c0,0.1-0.2-0.2-0.2-0.2
							c-0.1-0.1,0,0.1,0,0.1c0,0-0.3-0.5-0.3-0.5c0,0,0.1,0.2,0,0.1c-0.1-0.1-0.7-0.9-0.6-0.9c0,0,0.3,0.5,0.3,0.5
							c0.1,0.3,0.1,0.3,0.3,0.5c0.1,0.2,0.4,0.8,0.5,0.9c0.1,0.2-0.2-0.3-0.2-0.3c0,0,0.4,0.7,0.5,0.8c0.1,0.2,0.2,0.4,0.3,0.5
							c-0.2-0.4-0.5-0.8-0.7-1.1c0,0-0.3-0.4-0.4-0.5c0-0.1,0.1,0.1,0.1,0c-0.1-0.1-0.2-0.4-0.3-0.6c0-0.1-0.6-1.1-0.6-1.1
							c0,0,0.5,0.9,0.6,1c-0.1-0.2-0.6-0.9-0.6-0.9c0,0,0.5,0.9,0.6,1c0,0,0.3,0.5,0.4,0.7C80.6,82.9,81.4,84.2,81.5,84.3z"/>
						<path class="st4" d="M81.1,81.8c0,0,0.1,0.1,0.1,0.2C81.2,81.9,81,81.6,81.1,81.8z"/>
						<path class="st4" d="M81.6,82.7c0.2,0.1,0.2,0.2,0.5,0.8c0.2,0.4,0.2,0.2,0.2,0.1c0-0.1,0.2-0.2-0.4-1.1
							c0-0.1,0.3,0.5,0.4,0.6c0-0.1-0.5-0.9-0.7-1.2c-0.3-0.4-0.5-0.6-0.1,0c-0.1-0.2-1.2-1.8-1-1.5c0.4,0.6,1.2,1.9,1.1,2.1
							c-0.1-0.2-0.2-0.4-0.3-0.6c0,0,0,0,0,0c0,0,0,0,0,0c-0.2-0.4-0.4-0.8-0.7-1.2c-0.4-0.6,0.4,0.8,0.7,1.1
							c-0.2-0.2-0.5-0.7-0.3-0.3c0.2,0.3,0.3,0.6,0.4,0.8C81.5,82.3,81.6,82.6,81.6,82.7z"/>
						<path class="st4" d="M80.9,80.3c-0.3-0.4-0.1-0.1,0.1,0.3c0,0,0,0,0,0C81,80.5,80.9,80.4,80.9,80.3z"/>
					</g>
				</g>
			</g>
		</g>
		<g>
			<g>
				<g>
					<path class="st4" d="M79,86.3c0,0.4,0.4,0.3,0.4-0.1l-0.1,0L79,86.3z"/>
					<path class="st4" d="M78.7,86.3C78.7,86.3,78.8,86.3,78.7,86.3C78.8,86.2,78.6,86.6,78.7,86.3z"/>
					<path class="st4" d="M78.8,86.3C78.8,86.3,78.8,86.3,78.8,86.3c-0.4,0.6,0.3,0.9,0.1-0.1C78.8,86.1,78.8,86.2,78.8,86.3z"/>
					<path class="st4" d="M56.2,77.9C55.7,79.1,56.7,78,56.2,77.9L56.2,77.9z"/>
					<path class="st4" d="M50.6,75.8c-0.1,0-0.1,0-0.2,0c-0.1,0.1,0.1,0.4,0.1,0.4C50.6,76.2,50.6,75.8,50.6,75.8z"/>
					<path class="st4" d="M68.8,84.1c0-0.1,0.1-0.2,0.1-0.3C68.8,84,68.8,84.1,68.8,84.1z"/>
					<path class="st4" d="M79.3,83.1c-0.2-0.3-0.2-0.1-0.3,0.1c-0.1,0.2-0.1-0.1-0.1-0.1c0,0-0.1,1.3-0.2,0.9
						c-0.1-0.4-0.1-0.8-0.2-1.3c0-0.3-0.2-0.8-0.3-0.5c0,0.4,0.2,0.5,0.2,1c-0.3,0-0.2-0.7-0.4-0.7c-0.1,0-0.1,0.3-0.1,0.5
						c-0.2,0-0.2-0.7-0.3-0.7c-0.2,0-0.1,0-0.2-0.1C77.1,82,77,82.4,77,82.8c0,0.4,0,0.5-0.2,0.5c0-0.3,0-0.7,0-1
						c0-0.4-0.2,0.1-0.2,0.2c-0.1,0.1-0.3,0-0.4,0c0,0-0.3,0.4-0.3,0.4c-0.1-0.1-0.2-1.7-0.5-0.6c0,0.3-0.1,0.1-0.2,0
						c-0.1-0.3-0.3-0.2-0.4,0c-0.4,0.3-0.2,0-0.5-0.4c-0.2-0.4-0.4,0.6-0.5,1c0-0.2-0.1-0.3,0-0.6c0-0.2,0-0.3-0.1-0.3
						c-0.2-0.3-0.6-0.2-0.8-0.3c-0.2-0.1-0.5-0.4-0.8-0.3c-0.2,0.1-0.2,0.8-0.2,1c0-0.2-0.1-0.2-0.1-0.4c0-0.1,0-0.3,0.1-0.4
						c0-0.1-0.2-0.1-0.2-0.1c0.1,0-0.2,0.2-0.2,0.2c-0.2,0-0.3-0.3-0.5-0.2c-0.2,0-0.4,0.8-0.6,0.5c-0.2-0.3-0.3-1.1-0.6-1
						c-0.1,0.1-0.6,0.9-0.4,0c-0.1,0.1-0.2,0.2-0.2,0.3c0.3-1.3-0.6-1-1-1.1c-0.1,0-0.8-0.3-1,0.1c-0.1,0-0.1-0.1-0.2-0.2
						C66.9,80,66.7,80,66.5,80c-0.3-0.1-0.5-0.4-0.8-0.4c-0.1,0-0.3-0.2-0.4,0.2c0,0.2-0.2,0.3-0.3,0.3c-0.1,0-0.2-0.2-0.2-0.4
						c-0.1-0.1-0.3,0-0.4-0.2c0-0.1,0-0.6-0.2-0.2c-0.1,0.2-0.3,0.4-0.4,0.4c0-0.1,0.3-0.6,0.3-0.6c0-0.2-0.7,0.2-0.8,0.2
						c-0.2,0-0.2-0.2-0.4-0.4c-0.1-0.1-0.3-0.6-0.5-0.2c-0.2,0.3-0.3,0.5-0.4,0.7c0-0.3,0.1-0.7,0-0.9c-0.1-0.4-0.4,0.7-0.5,0.8
						c-0.3-0.1,0.3-1.1,0.3-1.4c0-0.4-0.4,0-0.6,0c-0.1,0-0.4-0.4-0.5-0.2l-0.1,0.2c-0.1,0-0.2,0.1-0.3,0.2c0,0.1-0.3,0.6-0.3,0.6
						c-0.1,0,0.4-1.3,0.3-1.5c-0.1-0.3-0.6-0.2-0.8-0.3c-0.3-0.1-0.7-0.7-1.1,0c0.1-0.5-0.6-0.5-0.7-0.6c0,0-0.2-0.5-0.2-0.3
						c-0.3,0.2-0.1,0.7-0.2,0.8c-0.4,0.6-0.2-1.1-0.4-1.1c0,0-0.2,0.4-0.4,0.7c-0.2,0.4-0.3,0.7-0.3,0.6c0-0.2,0.9-1.9,0.3-1.5
						c-0.3,0.2-0.5-0.2-0.9,0.1c-0.2,0.1-0.7,0.3-0.7,0c0.2-0.5,0-1.1-0.3-0.5c0.6-1.2-0.5-1-0.9,0.1c0.1-0.3,0.2-0.7,0.2-0.9
						c0.1-0.4-0.2-0.3-0.3-0.4c-0.2-0.1-0.5-0.5-0.7,0c0-0.3-0.2-0.4-0.4-0.5c-0.3-0.1-0.4,0.1-0.7,0.7c-0.2-0.1,0.2-0.8,0.1-1
						c-0.1,0.2-0.3,0.4-0.4,0.4c0.5-0.9,0-0.8-0.3-0.9c-0.2-0.1-0.9,0.8-1.1,1.1c-0.2,0.3-0.4,0.7-0.6,0.9c-0.2,0.2-0.1-0.1,0-0.2
						c0.2-0.4,0.5-0.8,0.7-1.2c0,0,0.5-0.7,0.4-0.6c-0.1,0-0.2,0.1-0.3,0c0.1-0.1,0.1-0.2,0.1-0.2c0,0-0.2-0.1-0.3,0
						c-0.1,0.1-0.7,1.6-0.7,1.6c-0.1-0.3,0.3-1.5-0.4-0.7c0,0.4-0.4,0.8-0.5,1.2c0,0.3,0.8-0.4,0.7,0c-0.1,0.3-0.3,0.5-0.3,0.9
						c-0.2,0.3,0.3,0.1,0.4,0.1c0.2,0.1,0.6-0.7,0.9-1.1c0.1-0.2,0.3-0.5,0.5-0.6c0.1,0,0.3,0,0.3,0.2c-0.1,0.2-0.5,0.3-0.6,0.4
						c-0.2,0.2-0.3,0.4-0.5,0.8c0.3-0.5,0.4-0.2,0.7-0.4c0.2,0.1,0,0.2,0.1,0.4c0,0.2,0.3,0.2,0.4,0.2c0.1,0.1-0.1,0.3-0.1,0.5
						c0,0.3,0.2,0.4,0.3,0.5c0.1,0.1,0.4,0.6,0.5,0.3c0.2-0.6,0.4-0.8,0.6-0.5c0.1,0.2-0.2,0.9,0.2,0.5c0.4-0.4,0.1,0.6,0.4,0.2
						c0.1-0.2,0.8-1.5,0.7-1.5c0.1,0.1-0.3,0.8-0.3,1.1c-0.1,0.3,0.2,0.4,0,0.8c-0.1,0-0.1,0.2-0.1,0.2c0.1,0,0.1-0.2,0.2-0.2
						c0.1-0.3,0.4-0.2,0.4-0.1c0,0,0.1-0.8,0.3-0.6c0.2,0.3-0.4,1.1-0.3,1.3c0.1,0.4,0.5-0.1,0.7-0.5c0.2-0.4,0.2-0.3,0.3-0.2
						c0,0,0.2,0.3,0.2,0.1c0.1-0.4,0.1-0.6,0.3-0.2c0,0.6-0.4,0.4-0.6,0.9c0.3,0,0,0.5,0.4,0.2c0.2-0.2,0.5,0.3,0.7-0.3
						c-0.1,0.3,0,0.5,0.2,0.3c0.2-0.2,0.3-0.5,0.5-0.7c0.3-0.5,0.1,0.4,0,0.6c-0.1,0.3-0.4,1.1-0.1,1c0.2-0.1,0.6-0.3,0.3,0.3
						c0.2-0.4,0.8-1.7,0.9-1.1c0.1,0.3-0.5,1.4-0.1,1.1c0.1,0,0.5-0.5,0.5-0.4c0,0.2-0.2,0.5-0.2,0.7c0,0.2,0.2-0.1,0.4-0.1
						c0.2,0.1,0.3-0.5,0.4-0.6c0.2-0.2,0.3,0.1,0.6-0.2c0.1-0.1,0.5-0.6,0.3-0.1c0,0.3,0.1,0.6,0.3,0.7c0.2,0,0.4-0.2,0.5-0.2
						c0.2-0.1-0.6,1.1-0.5,1.4c0,0.3,0.4-0.5,0.5-0.6c0.1-0.1,0.3-0.3,0.2,0c0-0.1,0.3-0.9,0.4-0.9c0.2,0.1-0.5,1.4-0.6,1.8
						c0.2,0.1,0.4-0.7,0.6-0.6c-0.4,0.8,0.2,0.3,0.2,0.5c0,0.2-0.2,0.5-0.1,0.6c0.1,0.1,0.2,0,0.3-0.1c0.2,0,0.3,0.2,0.4,0.3
						l0.6,0.2c0-0.2,0.2-0.7,0.4-0.9c0.3-0.2,0.1,0.5,0,0.7c-0.1,0.4,0,0.7,0.2,0.5c0.2-0.1,0.1-0.6,0.1-0.8c0-0.2,0.7-0.3,0.5,0.2
						c-0.4,1,0.7-0.6,0.8-0.6c-0.1,0.2-0.4,0.8-0.2,0.8c0,0,0.7-0.1,0.4,0.3c0.1,0.1,0.6-0.2,0.4,0.1c-0.1,0.2,0,0.7,0.1,0.5
						c0.2-0.4,0.1-1.1,0-1.3c0,0,0.3-0.3,0.3-0.3c0.1,0,0,0.5,0,0.7l-0.1,1c0.1-0.1,0.3-0.3,0.4-0.4c0.4-0.6,0.2-0.1,0.2,0.2
						c0.1,0.9,1.1-0.3,0.9,0.7c0,0.1,0.5-0.7,0.5-0.4c0,0.1-0.3,1.1,0,0.7c0.1-0.2,0.2-0.8,0.4-0.7c0.1,0,0.2,0.5,0.1,0.5
						c0,0-0.1-0.4-0.2-0.1c-0.1,0.3,0.2,0.5,0.3,0.5c0.1,0,0.3,0.1,0.3-0.1c0-0.3,0.1-0.8-0.1-0.8c0-0.2,0.1-0.5,0.2-0.6
						c0.2-0.2,0.2,0.3,0.2,0.4c0.1,0.4,0.1,0.9,0,1.4c0.1-0.2,0.2-0.5,0.2-0.5c0.1,0,0,0.5,0,0.6c0.1,0.3,0.4,0.1,0.6,0
						c0.3-0.1,0.4-0.2,0.7-0.6c0-0.1,0.3-0.6,0.3-0.4c0,0.2-0.3,1.2-0.3,1.2c0.1,0,0.4-0.7,0.4-0.7c-0.1,0,0,0.5,0,0.6
						c0.1,0.1,0.3,0.2,0.4-0.1c0.1-0.1,0.6-0.2,0.7-0.4c0.5-0.2,0.2,0.4,0.4,0.8c0.2,0.3,0.4-0.5,0.1-0.5c0.2,0,0.7-0.5,0.8-1.1
						c-0.1,0.4-0.2,0.7-0.2,1.1c0,0.2,0,0.4,0,0.6c0.1-0.7,0.4-0.7,0.7-0.6c0.3,0.1,0.3,0.6,0.4,1c0-0.4,0.7-0.2,0.8-0.3
						c0.2-0.1,0.2-0.6,0.4-0.6c0.1,0.1,0.9,1.7,0.9,0.5c0.1,0,0.4,0.8,0.5,0.4c0.1-0.4,0.2-0.6,0.3-1c-0.1,0.4-0.1,0.9-0.2,1.3
						c0.2-0.4,0.4-0.9,0.6-1.3c0,0.1-0.2,1.2-0.2,1.1c0.3-0.2,0.3-1.2,0.3-1.7c0.2,0,0.1,1.1,0.1,1.3c0,0.5,0.2,0,0.3,0.2
						c0.1,0.1,0,0.5,0.2,0.3c0.1-0.1,0.2-0.5,0.3-0.4c0.1,0.1,0.3,0.1,0.4,0.2c0.1,0.1,0.6,0.8,0.7,0.6c0,0,0-0.8,0-0.8
						c0-0.6,0-0.8,0.3-0.6c0.1,0.1,0.1-0.3,0.2-0.5C79.6,83.9,79.4,83.3,79.3,83.1z"/>
					<path class="st4" d="M72.9,84.5c0,0.1,0,0.2,0,0.2C72.8,84.7,72.9,84.6,72.9,84.5z"/>
					<path class="st4" d="M47.1,73.4c-0.1-0.1-0.2-0.3-0.3,0.1c-0.1,0.4,0.2,0.4,0.4,0.5L47.1,73.4C47.1,73.4,47.1,73.4,47.1,73.4z"
						/>
					<path class="st4" d="M49.2,71.7c0-0.5-0.4,0.2-0.3-0.3c-0.1-0.4-0.7,0.2-1.1,0.1c0.2-0.5,0.1-0.6-0.1-0.5
						c-0.2,0.1-0.4,0.4-0.7,0.6c0.5-0.4,0.4-1.8,0.1-0.6c0,0.5-0.3,0.2-0.3-0.1c0.1-0.4,0.3-0.7,0-0.8c-0.1-0.5-0.6,1-0.6,1.1
						c-0.1,0.3-1.1,1.4-0.9,1.7c0.1,0.2,0.4-0.3,0.4,0c0,0.2-0.2,0.8,0.1,0.6c0.1-0.3,0.3-0.7,0.4-0.9c0.1-0.1,0.2-0.2,0.3-0.3
						c-0.2,0.4-0.4,1,0,0.6c0.2-0.2,0.6-0.8,0.7-1l-0.7,1.3c0.2,0.1,0.3-0.5,0.5-0.6c0.3,0,0.2,0.2,0.4,0.3c0.2,0.2,0.5,0.1,0.5,0.6
						c0,0.1-0.1,0.6,0,0.6c-0.1,0,0.3-0.7,0.3-0.8c0.2,0.1,0,0.6-0.2,0.9c0.1-0.3,0.4-0.4,0.6-0.5c0.2,0,0.3-0.1,0.4-0.6
						C49.1,72.7,49.2,72.1,49.2,71.7z"/>
					<path class="st4" d="M46.8,70.1C47,70.2,46.7,69.8,46.8,70.1L46.8,70.1z"/>
					<path class="st4" d="M46.3,70.2c0.1-0.6-0.6,0.6-0.7,0.8c0.1-0.1,0.7-1.5,0.4-1.3c-0.2,0.2-0.3,0.7-0.6,0.7
						c-0.1,0-0.3-0.1-0.4-0.2c0-0.1,0.2-0.2,0.2-0.3c0.2-0.4-0.1-0.5-0.3-0.1c0.1-0.4-0.5,0.4-0.5,0c0-0.2,0.4-0.5,0.5-0.6
						c-0.3-0.1-0.7,0.5-1.1,0.9c0.2-0.4,0.3-0.7,0.6-1.1c-0.3,0.3-1.1,1.2-1.3,1.1c0.2-0.3,0.7-1.2,0.3-1.1c-0.2,0-0.1,0.9-0.5,1
						c-0.5,0.1,0.5-0.9,0.2-1c-0.1,0-0.5,0.5-0.4,0.1c0,0,0.2-0.3,0.2-0.4c-0.1,0.1-0.3,0.3-0.4,0.4c0.3-0.5,0.4-0.7,0.4-1.1
						c0-0.2-0.2,0-0.3,0.2c0.1-0.3,0.2-0.6,0-0.7c-0.1-0.1-0.3,0.1-0.5,0.2c-0.2,0.1-0.4,0.1-0.5,0.1c-0.1-0.1,0.3-0.5,0.4-0.6
						c-0.2,0-0.4,0.1-0.6,0.3c-0.1,0.1-0.1,0.1-0.1,0.2c-0.5,0.6-0.6,1.1-1.1,1.8c-0.5,0.7,0,0.5,0.2,0.7c0.2,0.1,0.3,0.7,0.7,0.4
						c0.4-0.3,0.4-0.6,0.5-1c0.1,0,1-0.8,1.1-0.9c-0.1,0.2-0.4,0.5-0.5,0.7c-0.1,0.1-0.1,0.4-0.1,0.4c-0.1,0.2-0.8,0.7-0.6,0.8
						c0.2,0.1,0.5,1.2,1.1,0.3c-0.1,0.1,0.3,0.3,0.4,0.3c0.2,0,0,0.5,0.1,0.6c0.1,0.2,0.3,0.3,0.6,0.2c0.6-0.3,0,0.4,0.3,0.5
						c0.3-0.5,0.1-0.6,0.5-1.1c0.1-0.1,0.8-0.7,0.7-0.3c-0.1,0.6-0.7,1-1,1.4c0.1,0.1,0.6,0.5,0.8,0.1c0.2-0.3,0.6-1.2,0.8-1.3
						C46.1,71.2,46.2,70.7,46.3,70.2z"/>
					<path class="st4" d="M39.8,68.9c-0.3,0.1-0.3,0.4-0.2,0.5C39.9,69.4,40,68.9,39.8,68.9z"/>
					<path class="st4" d="M40.4,66.9L40.4,66.9C40,66.9,39.9,67.6,40.4,66.9z"/>
					<path class="st4" d="M39.5,67.8c0.3-0.5,0.6-1.2,1-1.7c-0.2,0-0.7,0.1-0.9,0.4c-0.4,0.4,0.3,0.2,0.2,0.3
						c-0.2,0.2-0.6,0.2-0.5-0.1c0.1-0.3,0.5-0.6,0.5-0.9c-0.1-1-0.7,0.7-0.8,0.7c-0.2,0,0.5-1.1,0.4-1.3c-0.1-0.3-0.1-0.4-0.6,0.2
						c-0.2-0.1,0.1-0.5,0.1-0.8c0-0.2-0.3-0.4-0.6,0.1c0.6-0.7-0.7-0.5-0.7-0.9c0,0,0,0,0-0.1c-0.2,0.2-0.7,0.9-1,1.5
						c-0.3,0.3-0.1,0.4-0.2,0.6c-0.1,0.1-0.6,0.8-0.2,0.6c0.2-0.1,0.2-0.4,0.4-0.3c0.1,0.1,0.1,0.1,0.2,0.1c0.2,0.1,0.6-0.4,0.8-0.6
						c0.7-0.3-0.8,1-0.8,0.9c-0.1,0.1,0.7-0.3,0.6,0c-0.1,0.4-0.5,0.8-0.2,0.9c0.1,0,0.7-0.1,0.7-0.4c0-0.1-0.4,0-0.3-0.1
						c0.3-0.3,0.7,0,0.8,0.2c0,0.1-0.1,0.2-0.2,0.2c-0.3,0.1-0.2,0.1-0.5,0.5c0.3-0.1,0.6-0.4,0.9-0.6c-0.1,0.1-0.8,1-0.6,0.9
						c0.2-0.1,0.5-0.4,0.7-0.5c0.1,0-0.1,0.3-0.1,0.3c0,0.4,0.9-1,0.3,0.3c-0.2,0.6-0.2,0.8,0.4,0.5c0.5-0.3-0.2,0.8,0.2,0.5
						c0.5-0.4,1.1-1.1,1.5-1.7C41.8,66.3,39.9,67.6,39.5,67.8z"/>
					<path class="st4" d="M37.5,63.6C37.5,63.6,37.5,63.7,37.5,63.6C37.5,63.7,37.6,63.5,37.5,63.6z"/>
					<path class="st4" d="M31.6,60.8c-0.1-0.1-0.7,0.2-0.7,0.4C31.1,61.3,31.8,61,31.6,60.8z"/>
					<path class="st4" d="M30,59.5c0,0.4,0.5,0.2,0.2-0.1C30.2,59.4,30.1,59.4,30,59.5z"/>
					<path class="st4" d="M36.1,65.1c0.1-0.1,0.4-0.3,0.4-0.4c0.1-0.4-0.5,0.2,0.1-0.5c0.2-0.2,0.5-0.9,0.1-0.7
						c-0.2,0.1-0.5,0.4-0.8,0.6c0.2-0.2,0.7-0.7,0.6-0.9c-0.1-0.1-0.7,0-0.2-0.5c-0.3,0.3-0.6,0.6-0.8,0.5c0.1-0.1,0.8-0.8,0.7-0.9
						c0,0-0.7,0.4-0.8,0.4c-0.7,0.2,0.4-0.6,0.4-0.7c0-0.1-0.5,0-0.6,0c-0.2,0-0.5,0.3-0.6,0.5c-0.2-0.1,0.5-0.6,0.6-0.7
						c0.1-0.1-0.1-0.3,0-0.4c0.2-0.3,0.2-0.2-0.2-0.2c-0.2,0-0.3-0.1-0.2-0.3c0-0.1,0.4-0.6,0.1-0.4c-0.1,0.1-0.5,0.5-0.6,0.5
						c-0.1,0,0.1-0.3,0.2-0.4c0.6-0.5-0.4,0-0.5,0.1c0-0.1,0.4-0.5,0.2-0.6c-0.2-0.1-0.3,0.2-0.5,0.3c-0.2,0.1,0.2-0.7,0.3-0.7
						c0-0.2-0.4,0.1-0.5,0.1c-0.3,0-0.6-0.1-1.1,0.1c-0.2,0.1-0.6,0.2-0.5-0.1c0.1-0.2,0.7-0.8,0.6-0.9c-0.2-0.2,0.2-0.3,0.3-0.6
						c0.3-0.6-1.2,0.2-0.4-0.7c-0.4,0.3-0.8,0.5-0.8,0.2c0-0.3,0.6-0.8,0.6-0.9c-0.1-0.1-1,1-1.1,1.1c-0.6,0.5-1,0.4-1.5,0.7
						c-0.5,0.2,0.1,0.6,0.1,0.7c0.2,0.2,0.6-0.7,0.9-0.7c-0.2,0-0.4,0.1-0.6,0.3c0.3-0.2,0.6-0.4,0.8-0.4c0.4-0.1,0,0.3-0.2,0.4
						c-0.3,0.3-0.7,0.8,0,0.4c0.2-0.1,0.9-0.6,0.9-0.4c0,0.2-0.9,0.7-1.1,0.9c-0.3,0.3,0.1,0.4,0.1,0.5c0.3,0.3,0.2,0.8,1.1,0
						c-0.2,0.4,0.3,0,0.5,0.2c0,0-0.4,0.4-0.3,0.5c0.1,0.1,1.2-0.8,0.9-0.2c0,0.1-0.3,0.7-0.6,0.8c-0.3,0.1,0.1-0.3,0.1-0.4
						c0-0.2-0.2-0.1-0.4,0.1c-0.3,0.2-0.3,0.1-0.4,0c-0.4,0.3-0.2,0.8,0.1,0.5c0.2,0.1-0.1,0.5,0.2,0.6c0.2,0.1,0.6,0.1,0.9-0.3
						c0.1-0.2,0.3-0.5,0.4-0.6c0.1-0.1,1-0.3,0.8-0.2c-0.3,0.3-0.6,0.5-0.8,0.9c-0.3,0.3-0.4,0.5-0.3,0.7c0.1,0.2-0.2,0.5-0.1,0.7
						c-0.1-0.2,2.8-2.4,0.5-0.3c-0.4,0.4-0.4,0.6,0,0.5c0.1,0,0.4-0.2,0.6-0.4c0.3-0.2,0.5-0.3,0.5-0.3c0.1,0-1.2,1.1-1,1.2
						c0.3-0.3,1.1-1.3,1.4-1.1c0.3,0.1-0.8,0.9-0.9,1.2c0,0.1,0.1,0.2,0.2,0.2c0.1,0.1-0.2,0.3-0.1,0.4c0,0.2,1.1-0.2,1.1-0.2
						c-0.1,0.1-0.5,0.3-0.5,0.5c0,0.1,0.2,0.1,0.3,0.1c0.1,0,1-0.6,1-0.5c0.1,0.2-0.5,0.8-0.6,1c-0.1,0.4,0.3,0.1,0.5-0.2
						C36.2,65.3,35.9,65.4,36.1,65.1z"/>
					<path class="st4" d="M30.9,57.8c0.3-0.2,0.7-0.7,0.4-0.7c0,0,0,0-0.1,0l-1,0.7c0.2-0.1,0.4-0.2,0.5-0.2
						C30.5,57.6,30,58.4,30.9,57.8z"/>
					<path class="st4" d="M29.1,57.3c-0.2,0-0.7,0.2-0.6,0.4C28.6,57.9,29.3,57.5,29.1,57.3z"/>
					<path class="st4" d="M32.3,56.1c0,0-0.4,0.1-0.5,0.1c-0.1-0.1,0.1-0.3-0.1-0.4c-0.1-0.1-0.3-0.1-0.6-0.1
						c-0.1,0-0.5,0.2-0.5,0.2c0,0,0.5-0.5,0.4-0.5c-0.3,0.1-0.9,0.4-1.1,0.5l-1.5,0.9c0.1,0.1,1.2-0.4,1.2-0.3
						c0,0.2-1.3,0.6-1.1,0.8c0.8-0.6,0.5,0,0.9-0.2c0.4-0.2,1-0.8,1.2-0.4c0.1,0.3-0.5,0.4-0.8,0.4c-0.4,0.1-0.8,0.8-1,1
						c0.1,0.1,1.4-0.6,1.6-0.7c0.4-0.2,1.3-0.9,1.5-0.6C31.8,56.6,31.8,56.5,32.3,56.1z"/>
					<path class="st4" d="M31.2,54.8c0-0.2-0.2-0.3-0.6-0.3c-0.3,0-0.8,0.3-1,0.3c-0.2,0,1-0.9,1-0.9c0-0.1-0.1-0.2-0.2-0.3
						c-0.2-0.1-0.3-0.3-0.3-0.4c-0.1-0.2,0.2-0.5-0.5-0.5c-0.1,0-1.9,0.7-1.6,0.3c0,0,0.6-0.2,0.7-0.2c0.2-0.1,0.4-0.2,0.5-0.4
						c0.3-0.4,0.2-0.8,0.1-1C29.3,51.2,29.2,51,29,51c-0.4,0-0.2,0.3-0.1,0.3c0.1,0-0.7,0.2-0.8,0.2c-0.4,0.1-0.9,0.3-1.3,0.4
						c-0.4,0.2,0,0.2-0.2,0.4c-0.3,0.2-0.5,0.2-0.3,0.4c0.3,0.2,0.5,0.3,1.1,0.1c0.2-0.1,0.7-0.3,0.4-0.4c-0.3,0,0.4-0.2,0.5-0.2
						c0.1,0,0.9-0.1,0.7,0c0,0.1-0.5,0.1-0.6,0.2c-0.3,0.1-0.6,0.3-0.8,0.5c0,0-0.4,0.9-0.7,0.7c-0.1,0,0.1-0.3-0.1-0.3
						c-0.2,0-0.2,0.9,0.5,0.4c0.3-0.2,0.2,0,0.4,0.1c0.3,0.1,0.2,0,0.4-0.1c-0.1,0-0.6,0.7-0.7,0.8c-0.2,0.3,0,0.5,0.1,0.7
						c-0.2,0.6,0.9-0.4,1.3-0.6c0.1,0,0.1,0.1,0.2,0.1c0,0.1-0.4,0.2-0.4,0.3c-0.4,0.2-0.8,0.5-0.4,0.6c0.4,0,0.9-0.2,1.3-0.2
						c0.1,0.2,0.6-0.1,0.8,0c0.1,0-1.1,0.4-1.2,0.4c-0.3,0.1-0.9,0.4-0.9,0.6c-0.1,0.3,0.5,0.2,0.8-0.1c0.2-0.1,0.3-0.4,0.5-0.5
						c0.2-0.1,0.2,0,0.2,0.1C30,56,31.3,55.1,31.2,54.8z"/>
					<path class="st4" d="M28.4,50C28.9,50,27.6,50.1,28.4,50L28.4,50z"/>
					<path class="st4" d="M28.2,50.5c0-0.1,0.5-0.1,0.6-0.2c0.2-0.2-0.2-0.2-0.4-0.2c-0.3,0-2.2,0.3-1.7,0.5
						c-0.3,0.1-0.6,0.1-0.6-0.1c-0.5,0.2,0.3,0.6,0.4,0.6c0.5,0.2,1.1,0.2,1.9-0.1C29.8,50.5,28.1,50.8,28.2,50.5z"/>
					<path class="st4" d="M28.2,46.7c0.2,0,0.2,0,0.2-0.1l0-0.1C28.2,46.5,28.1,46.6,28.2,46.7z"/>
					<path class="st4" d="M26.5,43.5C26.5,43.5,26.5,43.5,26.5,43.5c-0.3-0.1-0.3-0.1-0.4-0.1c-0.3-0.1-0.5-0.1-0.5,0.1
						c0,0.1,1,0.1,1.1,0.1C26.8,43.6,26.7,43.5,26.5,43.5z"/>
					<path class="st4" d="M26.5,43.5c0.1,0-0.4-0.1-0.4-0.1C26.3,43.4,26.4,43.5,26.5,43.5C26.4,43.5,26.5,43.5,26.5,43.5z"/>
					<path class="st4" d="M24.9,43.5c0-0.1,0.2-0.3,0.2-0.4C24.5,42.8,24.9,43.4,24.9,43.5z"/>
					<path class="st4" d="M26.3,50.3c-0.1-0.2,0.8-0.5,0.6-0.6c-0.1-0.1-0.4-0.1-0.6-0.2c0,0-0.3-0.3-0.1-0.2c-0.2,0-0.4,0-0.7,0.1
						c0.5-0.1,0.8-0.3,1.3-0.4c-0.4-0.1-1.4-0.1-1.2-0.4c0.1-0.2,0.9-0.4,1.2-0.3c0.1,0,0.3,0.1,0.2-0.1c0.1-0.1-0.1-0.1-0.2-0.2
						c-0.2-0.1-0.6-0.2-0.9-0.1c-0.4,0.1-0.9,0.1-0.8-0.2c0-0.2,0.9-0.3,1.1-0.4c0.1-0.1-0.2-0.2-0.4-0.3c-0.2,0.1-0.4,0.2-0.7,0.2
						c-0.6,0-0.5-0.3,0-0.3c-0.2,0-0.5,0-0.4-0.1c0.1-0.1,0.6-0.2,0.8-0.2c0.7-0.1,1.5-0.2,2.3-0.3c-0.5,0.1-1.2-0.2-1.6-0.1
						c-0.2,0.1-0.5,0.2-0.8,0.2c-0.3,0,0.1-0.3,0.2-0.3c0.4-0.2,1.4-0.3,1.2-0.5c-0.1-0.1-1.2,0.4-1.2,0.4c-0.8,0.4-0.5-0.1-0.6-0.3
						c0-0.2-0.5-0.4-0.2-0.5c0.1-0.1,0.7-0.1,0.8-0.1c0.2,0,1.3-0.2,1.3-0.4c0-0.1-1.4,0.1-1.4,0.1c0,0,0.3-0.1,0.1-0.2
						c-0.1,0-0.6,0.1-0.8,0.1c-0.8-0.1,0.1-0.3,0.4-0.4c-0.4,0-1.1-0.1-0.4-0.2c0.6-0.1,1.8-0.3,2.4-0.3c0,0-0.4-0.2-0.4-0.2
						c-0.3-0.1-0.6-0.2-1-0.3c-0.9,0.2,0.3-0.4,0.3-0.4c0,0-1.1,0.2-0.7-0.1c0.1-0.1-0.4-0.3-0.4-0.4c0-0.1,0.6-0.2,0.5-0.3
						c0,0.2-1.7,0-1.1-0.3c0.3-0.2,1.4-0.1,2-0.2c-0.3-0.1-0.5-0.2-0.8-0.3c-0.2-0.1-0.5-0.3-0.8-0.2c0,0,0.1,0.2,0,0.3
						c-0.4,0.2-0.2-0.6-0.2-0.6c0-0.1-0.1-0.5,0.4-0.4c1.5,0.4-0.5-0.7-0.1-1c0.2-0.1,1.2,0.1,1.5,0.1c0.6,0.1,1.5,0.1,1.8,0.4
						c0.3,0.3,0,0.2-0.5,0.2c-0.4,0-0.7,0.3-0.8,0.2c0.3,0.2,0.9,0.3,1.4,0.3c-0.2,0-2.3-0.1-1.7,0c0.5,0.2,1.2,0.2,1.5,0.4
						c0.2,0.2,0.5,0.7-0.2,0.6c0.6,0,0.3,0.3,0,0.3c-0.1,0-0.9,0.2-0.4,0.3c0.4,0,0.9,0.1,0.7,0.3c-0.3,0.3,0.1,0.2,0.1,0.4
						c-0.7,0.3,0,1,0,1.4c0,0.1,0,0.3-0.2,0.4c-0.1,0-0.7,0-0.7,0c0,0.1,0.6,0.2,0.8,0.3c0.2,0.1,0,0.3-0.2,0.5
						c-0.8,0.3,0,0.1,0.2,0.2c0.1,0,0.1,0.2,0.1,0.2c0,0.1-0.4,0-0.4,0c-0.1,0,0.6,0.2,0.6,0.3c-0.1,0.2-0.7,0.5-1,0.7
						c-0.5,0.4,0.7,0,1,0c0.6-0.1-0.2,0.4,0.2,0.4c-0.9,0.2,0.2,0.6,0,0.6c-0.4,0.1-0.8,0.1-1.1,0.4L27,48.7
						c0.4-0.1,0.8-0.3,1.1-0.4c0.1,0,0.4-0.2,0.5-0.2c0.1,0.1,0,0.1-0.2,0.2c0,0.1,0.2,0.2,0,0.3c-0.3,0.1-0.4,0.1-0.3,0.3
						c0.1,0,0.4,0.1,0.1,0.2c0.3,0.3,0,0.1,0.6,0c-0.2,0,0,0.7-0.9,0.6c-0.4,0.1-0.6,0.3-1,0.3l-0.5,0.1
						C26.5,50.2,26.5,50.3,26.3,50.3z M26.9,47c0.1-0.2-0.4-0.2-0.6-0.1c-0.1,0-0.3,0.1-0.4,0.1C26.3,47,26.7,47.2,26.9,47z"/>
					<path class="st4" d="M27.3,37.7c0.3,0.1,0.6,0.1,0.7,0C28,37.5,26.8,37.6,27.3,37.7z"/>
					<path class="st4" d="M28.1,38.6c-0.2-0.1-0.5-0.2-0.6-0.4c-0.3-0.3,0.2-0.1,0.5,0c0.2,0,1-0.1,0.5-0.2
						c-0.3-0.1-0.9-0.2-1.3-0.2c-0.9,0.2-0.5-0.3-0.4-0.3c-0.2,0-0.5,0-0.8-0.1c-0.1,0-0.1-0.1-0.2-0.1c-0.2-0.1-0.6-0.3-0.8-0.2
						c-0.3,0.1,0.1,0.3,0.4,0.3c0.1,0,1,0.2,0.7,0.3c-0.3,0.1-0.7-0.1-1-0.1c-0.3,0.1-0.1,0.3,0,0.4c0.2,0.2,0,0.5,0.1,0.7
						c0.1,0.3,1.2,0.4,1.7,0.5C27.6,39.2,28.6,39,28.1,38.6z"/>
					<path class="st4" d="M25.8,37.3c0.1,0,0.1,0.1,0.2,0.1C26.2,37.4,25.4,37.1,25.8,37.3z"/>
					<path class="st4" d="M26.8,33.9c-0.2-0.2-1.2-0.4-0.9-0.2C26,33.9,26.8,34.1,26.8,33.9z"/>
					<path class="st4" d="M27.4,33.4C27.1,33,26,33,26.1,33.2C26.2,33.5,27.8,33.7,27.4,33.4z"/>
					<path class="st4" d="M27.4,33.4C27.6,33.5,27.2,33.1,27.4,33.4L27.4,33.4z"/>
					<path class="st4" d="M30.6,22.6c-0.4-0.4-1-0.4-0.5,0C30.5,22.8,31,22.9,30.6,22.6z"/>
					<path class="st4" d="M35.7,19.8l0-0.1C35.6,19.4,35,19.4,35.7,19.8z"/>
					<path class="st4" d="M28.6,37.6c-0.1-0.1-0.6-0.6,0-0.4c0.5,0.2,0.4-0.2,0.4-0.3c0-0.3,0.1-0.7-0.1-1.1
						c-0.2-0.4,0.4-0.5,0.4-0.8c0-0.3-1.2-0.6-0.4-0.6c0.5,0.1,0.2-0.6,0.3-0.5c0.4,0.2,0.4-0.7,0.4-0.8c0-0.3,0.3-0.4,0.4-0.7
						c-0.1,0-0.3,0.1-0.5,0c-0.2-0.1,0-0.3,0.1-0.4c0-0.1-0.2-0.1-0.2-0.3c0-0.1,0.3-0.1,0.5-0.1l0,0.2c0.5,0,0.6-0.2,0.5-0.5
						c-0.1-0.3,0.3-0.1,0.4-0.3c0-0.3-0.4-0.5-0.6-0.8C30,29.9,30.7,30,30.9,30c0.5-0.1,0-0.7,0.2-1c0.2-0.2,0.2-0.1-0.3-0.3
						c-0.3-0.1,0.3-0.3,0.3-0.4c0.1-0.3-0.1-0.4,0.7-0.2c0.3,0.1-0.2-0.4-0.3-0.5c-0.4-0.3-0.7-0.3-0.6-0.5c0.3-0.1-0.1-0.2-0.4-0.3
						c-0.2-0.1-1.6-0.5-1.5-0.7c0.1-0.2,1.2,0.4,1.3,0.5c0.1,0.1,0.9,0.4,0.9,0.5c0.4,0.2,1.2,0.4,0.5,0c0.3-0.1,0.5,0.1,0.6-0.1
						c-0.2-0.2-0.2-0.5-0.1-0.6c0.1-0.3,0.4-0.3,0.3-0.7c-0.1-0.1-0.1-0.3-0.3-0.4c0.4,0.2,0.8,0.2,1,0.1c0,0-1.2-0.5-1.3-0.6
						c0.5,0.2,1.1,0.5,1.3,0.2c0.1-0.2,0.3-0.5-0.1-0.7c0.3,0.1,0.5,0,0.6-0.1c0.2-0.2,0-0.2-0.3-0.4c0,0,0.5,0,0.6-0.1
						c0.1-0.1-0.5-0.5-0.6-0.7c-0.1-0.1-0.4-0.4-0.5-0.2c0,0.1-0.3,0.1-0.3,0.1c0.1-0.2,0.2-0.4,0.6-0.3c0.3,0,0.6,0.4,0.9,0.4
						c0.3,0-0.4-0.5-0.5-0.6c-0.2-0.2,0.5-0.1,0.6-0.1c0.5,0,0.8-0.3,0.1-0.7c-0.1-0.1,0.4-0.5,0.7-0.1c-0.1-0.1-0.5-0.4-0.4-0.5
						c0.1-0.1,0.4-0.1,0.6-0.1c0.3-0.1-0.6-0.4-0.8-0.5c0.2,0.1,0.3-0.1,0.6,0.1c0.1,0.1,0.7,0.4,0.7,0.3c0-0.1-0.1-0.1-0.2-0.2
						l0.1-0.2c0.1,0,0-0.1,0-0.1c-0.2-0.3-0.6-0.7-1-0.9c-0.2-0.2-0.6-0.3-0.6-0.5c0.4,0.2,0.7,0.4,1.1,0.6c0.3,0.1,0.2,0,0.4,0
						c0.2,0,0.5,0.3,0.6,0.3c0,0,0.2-0.2,0.1-0.3c-0.2-0.1-0.7-0.2-0.8-0.4c-0.1-0.2,0.2-0.1,0.4-0.1c0.6,0.2,0.6,0.4,0.8,0
						c0.2-0.5-0.6-0.8-1.4-1.1c-0.4-0.1-0.9-0.4-1.3-0.7c-0.9-0.5,0.2,0.5,0.2,0.5c0,0-0.7-0.4-0.8-0.4c-0.1,0.1,0.4,0.3,0.4,0.6
						c0.1,0.3-0.1,0.5-0.1,0.8c0,0.1,0.2,0.6-0.2,0.3c-0.1-0.1-0.7-0.4-0.6-0.5C32.2,18.4,32,18.7,32,19c0.1,0.3,0.9,0.6,1.2,0.8
						C32.9,19.6,33,20,33,20c0,0.1-0.6-0.2-0.6-0.2c-0.3-0.1-1.4-0.6-0.9,0c0.3,0.3,0.8,0.3,1.1,0.5c0.3,0.1,0.4,0.6,0.2,0.5
						c0,0-0.4-0.3-0.5-0.3c-0.1,0.1,0.2,0.3-0.2,0.3c-0.2,0-0.4-0.1-0.6-0.2c0.4,0.2,2.3,1.1,1.6,1.2c-0.2,0-2.2-1.2-2.2-1.1
						c0,0.3,1,0.7,1.2,0.9c-0.1-0.1-1-0.3-1.1-0.2c-0.5,0.1,0.8,0.3,0.7,0.2c0.2,0.1,0,0.3,0.1,0.4c0.3,0.2,0.2,0.2,0.1,0.3
						c-0.2-0.1-1.2-0.4-0.9-0.5c-0.4-0.2-1.1-0.3-0.8,0.1c0.3,0.2,1.2,0.6,1.3,0.8c0,0-0.3-0.1-0.5-0.3c-0.3-0.1-0.5-0.3-0.6-0.2
						c-0.2,0.3,0.8,0.7,1.2,0.8c-0.1,0.2-0.4-0.1-0.5,0c-0.1,0.1-0.1,0.2-0.3,0.3c-0.2,0.1-0.5,0.1-0.8,0.1c-0.2,0-0.5-0.2-0.5,0
						c0,0.1,0.1,0.3-0.1,0.3c-0.1-0.1-0.2-0.1-0.2,0c0,0.2,0.1,0.3,0.2,0.6c0.1,0.1,0.4,0.6,0.1,0.6c-0.1,0-0.6-0.2-0.6-0.2
						c0.1,0.1,0.8,0.6,0.9,0.6c-0.3,0,0.2,0.4,0,0.4c-0.3,0-0.9-0.3-1.2-0.4c0.2,0.1,0.3,0.2,0.5,0.3c-0.3-0.3-0.8,0.2-0.8,0.2
						c-0.1,0.2-0.6,0.4,0.1,0.5c0.8,0.3,0.2,0.3,0.9,0.7c0.1,0.1,0.5,0.4,0.3,0.4c-0.2,0-0.3-0.2-0.5-0.2c-0.3-0.1,0.2,0.5-0.2,0.3
						c-0.3-0.1-0.6-0.3-0.7-0.2c-0.1,0.1-0.5-0.2-0.5,0.1c0.1,0.2,0.2,0.3-0.1,0.3c0.3,0.1,1.5,0.6,1.7,0.5c0.3-0.1,1.3,0.3,0.7,0.3
						c-1-0.1,0.4,0.3,0.3,0.5c-0.1,0.1-0.4,0-0.6-0.1c-0.4-0.2-0.1-0.3-0.3-0.4c-0.1,0-1.5-0.3-1.5-0.3c0,0.1,0.9,0.5,0.6,0.5
						c-0.2,0-0.4,0-0.5,0c0.3,0.1,0.3,0.5,0.1,0.5c-0.3-0.1-0.7-0.3-0.9-0.2c0.4,0.1,0.1,0.2,0.3,0.3c0.1,0.1,0.4,0.2,0.6,0.2
						c0,0,0.1-0.1,0.2-0.1c0.3,0.1,1.1,0.7,1.3,0.9c-0.3-0.1-0.7-0.2-1-0.2c0,0.2-0.5,0-0.5,0.1c-0.1,0.1,1.5,0.7,1.3,1.1
						c0-0.3-1.3-0.6-1.8-0.7c-0.6-0.1-0.2,0.2,0.2,0.3c-0.4-0.1-1.7-0.5-0.9,0c1.3,0.6-0.3,0,0,0.4c0.4,0.5,0.9,0.4,0.9,0.1
						c0-0.2,1,0.4,1.2,0.5c-0.3,0-0.7,0-1,0c-0.3,0-0.7-0.2-1-0.2c-0.2,0-0.5,0.1-0.6,0l0.9,0.3c0,0-0.8-0.1-0.8-0.1
						c-0.3,0,0,0.3,0.2,0.4c-0.2,0-0.6,0.4-0.6,0.4c0.5,0.3,1.3,0.2,1.9,0.5c0.2,0.1,0.1,0.2,0.1,0.3c0,0.1-0.3-0.1-0.4,0
						c-0.5,0.1,0.4,0.4,0.6,0.5c0.1,0.1,0.1,0.4,0,0.4c-0.1,0-0.4-0.4-0.8-0.5c-0.2,0-1.2-0.1-1.2-0.2c0.1,0.1,1.4,0.6,1.6,0.6
						c0.2,0.2-0.1,0.3-0.4,0.3c-0.3-0.1-1.4-0.3-1.3,0c0,0.1,0.2,0.3,0.1,0.4c-0.1,0.1-0.3-0.1-0.4-0.1c-0.2,0.1,0.8,0.6,0.9,0.7
						c0.1,0.1-0.5,0.2-0.6,0.3c0,0.1-0.6,0.1,0,0.3c0.4,0.1,1,0.2,0.9,0.4c-0.5-0.1-1.9-0.5-1.5-0.1c0,0.3,1.7,0.4,2,0.6
						c0.1,0.1-1.6-0.1-1.6-0.2c0.1,0.2,1.5,0.5,1.8,0.6C28,37.6,29,38.1,28.6,37.6z"/>
					<path class="st4" d="M37.1,12.4c-0.1-0.1-0.5-0.6-0.6-0.5C36.4,12,37,12.5,37.1,12.4z"/>
					<path class="st4" d="M40.6,13C40.7,13.3,40.5,12.7,40.6,13L40.6,13z"/>
					<path class="st4" d="M34.1,16.7c-0.1,0.1,0.8,0.7,0.9,0.7c0,0,0.1-0.6,0.4-0.1c0.1,0.2-0.1,0.1,0.1,0.3
						c0.4,0.3,0.9,0.6,1.2,0.5c0.3,0,0.5-0.4,0.4-0.7c0-0.2-0.9-0.8-0.4-0.7c0.2,0,0.5,0.3,0.7,0.4c0.2,0.1,0.3-0.2,0.3-0.3
						c0.1-0.2-0.2-0.4-0.2-0.6c0-0.2,0.2-0.2,0.3-0.2c0.2-0.1,1.1-0.3,0.5-0.8c-0.1-0.1-0.8-0.6-0.5-0.5c0.3,0.1,0.5,0.4,0.8,0.5
						c-0.2-0.1-0.4-0.6,0.2-0.3c0.3,0.2-0.1-0.2-0.1-0.3c0.1-0.2,0.5,0.1,0.7,0c0.1-0.1-0.3-0.4-0.1-0.4c0.3,0,0.6,0.1,0.7-0.1
						c0.1-0.1-0.2-0.4-0.1-0.5c0.1-0.1,0.4-0.1,0.5-0.3c0.1-0.1,0.4,0,0.2-0.4c0-0.1-0.1-0.2-0.1-0.3c0,0,0,0.2-0.2,0.2
						c-0.2-0.1-0.4-0.2-0.7-0.3c-0.4-0.2-0.9-0.4-1.3-0.8c-0.2-0.2-0.5-0.4-0.7-0.4c-0.2,0,0.3,0.5,0.4,0.6c0.3,0.4-0.4,0-0.4,0.1
						c0,0.1,0.2,0.3,0.3,0.3c-0.2-0.1-0.6-0.3-0.7-0.2c0,0,0.9,1.2,1,1.4c0.2,0.7-0.5-0.3-0.6-0.2c0,0,0.3,0.4,0.3,0.5
						c0,0.1-0.2,0-0.4-0.1c-0.3-0.2-0.6-0.3-0.9-0.5c0.1,0.1,0.6,1,0.5,0.9c-0.5-0.1-0.7-1-1-1.1c-0.3-0.1,0.2,1.1-0.5,0.6l0.9,0.7
						c-0.1,0.2-0.7-0.5-0.7-0.1c0,0.2,0.1,0.3,0.4,0.6c0,0.1-0.1,0.3-0.2,0.4c0.2-0.3-0.7-1-0.5-0.3c0.1,0.2-0.4-0.1-0.4,0
						c-0.2,0.1,0,0.4-0.1,0.6c0,0.1-1-0.1-0.5,0.3c0.2,0.1,0.7,0.4,0.7,0.5c0.1,0.1-0.3,0.1-0.1,0.3c0.1,0,0.2,0,0.3,0.2
						c0.1,0.1-1-0.1-1.2-0.2c0.1-0.1,0.7-0.1,0-0.6c0,0-0.4,0.3-0.4,0.3c-0.1,0.1,0,0.3-0.3,0.1c0,0.1-0.1,0.1,0,0.3
						C33.7,17,34.1,16.8,34.1,16.7z"/>
					<path class="st4" d="M44.4,6.1C44.5,6.3,44.5,6,44.4,6.1L44.4,6.1z"/>
					<path class="st4" d="M38.4,10.9c0.1-0.1,0.9,0,0.7,0.3c-0.5-0.1,0.7,1.2,0.3,0.9c-0.2-0.2-0.6-0.4-0.7-0.3c0,0-0.1,0.1,0,0.3
						c0.6,0.5,0.9,0.1,1.3,0.3c0.3,0.1,0.7,0.7,0.9,0.6c0.1-0.1,0.2-0.2,0.2-0.4c0.1-0.1-0.1-0.6,0.2-0.5c0.2,0,0.2,0.1,0.1-0.3
						c0,0,0.1-0.3,0.2-0.1c0-0.1-0.3-0.5-0.3-0.5c0.1,0,0.4,0.6,0.6,0.6c0.1,0,0-0.4,0-0.4c0-0.2-0.4-0.8-0.5-0.4
						c-0.4-0.4,0.1-0.1,0-0.4c-0.1-0.1-0.7-0.6-0.7-0.6c0.1-0.2,0.8,0.7,1,0.8c0.2,0.1,0.5,0.2,0.7,0.3c0.1,0,0.8-0.2,0.8-0.1
						c0,0-0.6-0.5-0.7-0.6c0.2-0.2,0.5,0.4,0.7,0.3c0.2-0.1,0.1-0.4,0-0.7c-0.1-0.3,0-0.3,0.2,0.1c0.2,0.3,0.3,0,0.4-0.1
						c0.1-0.1,0.3-0.2,0.2-0.4c-0.1-0.1-0.4-0.6-0.1-0.4c0.6,0.5,0.7,0.4,0.1-0.4c0.1-0.1,0.4,0.4,0.5,0.5c0.1-0.1,0.5,0.1,0.5,0
						c0-0.1-0.9-1-0.3-0.8c0.3,0.1,0.4,0.5,0.6,0.3c0.1-0.1-0.2-0.5-0.2-0.8c0-0.1-0.3-0.7-0.4-0.8c-0.1,0-0.6,0.1-0.8-0.3
						c-0.2-0.3,0.4-0.3,0.2-0.7C44.5,6,44.2,5.5,44,5.3c0.1,0.2,0.2,0.4,0.2,0.5c-0.1-0.3-0.6-0.4-0.7-0.3c-0.1,0.2-0.1,0.7,0,1
						c0.1,0.3,0.5,1,0.1,0.7c-0.4-0.4-0.4,0-0.2,0.3c-0.2-0.2-0.5-0.3-0.6-0.3c0.1-0.1,0.1-0.7-0.2-0.5c-0.1,0.1-0.4,0-0.5,0.1
						c-0.1,0.1,1,1.4,0.5,1.2c-0.4-0.2-1.1-1.5-1.2-0.8c0,0.2,0.3,0.5,0.6,0.8c0.2,0.3,0.1,0.4,0.4,0.7c-0.1,0.1-0.6-0.5-0.7-0.7
						c-0.1-0.3-0.4-0.5-0.6-0.7c-0.2-0.1-0.1,0.2,0,0.3c0.3,0.3,0.9,0.6,0.8,1.1c0,0.2-0.2,0.1-0.4,0c0.1-0.1-0.3-0.8-0.4-0.8
						c0,0,0.1,0.3-0.1,0.2c-0.2-0.2-0.2-0.1-0.3,0c-0.1,0.1-0.3-0.2-0.4-0.1c-0.1,0.1-0.5,1.2-0.2,1.3c-0.1,0-0.2-0.2-0.3-0.3
						c-0.2-0.1-0.2,0.1-0.3,0.2c-0.1,0.2-0.5,0.1-0.5,0.3c-0.1,0.1,0.5,0.7,0.2,0.6c-0.2-0.1-0.7-0.2-0.4,0.1
						c-0.4-0.3-0.5,0.4-0.7,0.4c-0.4,0,0.4,0.9,0.8,1C38.3,11.6,38.4,10.9,38.4,10.9z"/>
					<path class="st4" d="M43.8,5.1c0,0,0.1,0.1,0.1,0.2C43.9,5.2,43.9,5.1,43.8,5.1z"/>
					<path class="st4" d="M46.6,4.9L46.6,4.9c0-0.2-0.2-0.3-0.2-0.1C46.5,5,46.5,5,46.6,4.9z"/>
					<path class="st4" d="M47.3,4.1L47.3,4.1C46.9,3.1,47.1,4.3,47.3,4.1z"/>
					<path class="st4" d="M46.2,8.5c0.2,0,0.3-0.1,0.4-0.3c0-0.1,0-0.6,0.2-0.2C46.8,7.7,47,7.4,47,7.5c0.1,0.1,0,0.3,0,0.3
						c0.3,0.1,0.5-0.2,0.7-0.3c0.2-0.1,0.6-0.2,0.4-0.8c0-0.1,0.2,0.2,0.3,0.3c-0.1-0.7,0.6-0.1,0.8-0.3c0.1-0.1-0.5-1.5-0.7-2.1
						c0,0,0,0-0.1-0.2c0-0.3-0.2-0.7-0.4-1c-0.1,0.1,0.1,0.5,0.1,0.7c-0.1,0.3-0.3-0.2-0.5-0.4c-0.1-0.1,0,0.7-0.1,0.8
						c0,0.3-0.2,0.1-0.3,0.2c0,0,0.5,1.2,0.2,0.8c-0.1-0.1-0.6-1-0.5-1.1c-0.3-0.9-0.5-1.2-0.8-0.7c-0.1,0.1-0.6,0.6-0.5,0.8
						c0.2,0.4,0.4,0,0.6-0.1c0.3-0.1,0.4,0.2,0.5,0.6c0,0.3,0.6,0.3,0.6,0.6c0,0.1-0.4-0.1-0.4-0.1c-0.2,0-0.1,0.2-0.2,0.2
						c-0.1,0-0.3-0.5-0.4-0.4c-0.1,0.1,0,0.2-0.2,0.2c-0.1,0-0.9-0.8-0.9-0.7c0,0,0.3,0.5,0.3,0.5c0.1,0.3,0,0.3,0.1,0.6
						c0.1,0.2,0.4,0.8,0.4,1c0,0.2-0.4-0.2-0.4-0.2c0,0,0.5,0.6,0.5,0.7c0.1,0.2,0.1,0.4,0.3,0.6c-0.2-0.4-0.5-0.8-0.8-1
						c0,0-0.5-0.2-0.4-0.5c0-0.1,0.2,0.1,0.2-0.1c0-0.2,0-0.4-0.1-0.7c0-0.1-0.5-1.2-0.6-1.1c-0.1,0.1,0.4,1,0.5,1.1
						c-0.2-0.1-0.9-0.8-1-0.7c-0.1,0.1,0.5,0.9,0.6,1C44.8,6.1,45,6.7,45,6.8C45.2,7.2,45.9,8.5,46.2,8.5z"/>
					<path class="st4" d="M48.4,4.5c0,0,0,0.1,0.1,0.2C48.5,4.7,48.4,4.3,48.4,4.5z"/>
					<path class="st4" d="M48.8,5.5c0.3,0,0.3,0.2,0.6,0.8c0.2,0.4,0.3,0.1,0.4,0.1c0.3-0.2,0.8-0.4,0.4-1.4
						c0.2-0.1,0.2,0.5,0.4,0.6c0.2-0.1-0.2-1-0.3-1.3c-0.2-0.4-0.6-0.6-0.3,0.1c-0.1-0.2-1.2-1.8-1.2-1.5c0.3,0.7,1,2.1,0.6,2.3
						c-0.1-0.2-0.2-0.4-0.2-0.6c0,0,0,0,0,0c0,0,0,0,0,0c-0.1-0.4-0.3-0.9-0.5-1.3c-0.3-0.6,0.1,0.9,0.4,1.2
						c-0.2-0.2-0.7-0.6-0.5-0.3c0.1,0.3,0.3,0.6,0.3,0.9C48.8,5.1,48.8,5.5,48.8,5.5z"/>
					<path class="st4" d="M50.1,2.3c-0.3-0.4-0.3,0-0.1,0.4l0.1-0.1C50.2,2.5,50.1,2.4,50.1,2.3z"/>
				</g>
			</g>
		</g>
	</g>
</g>
</svg>
