<?xml version="1.0" encoding="utf-8"?>
<!-- Generator: Adobe Illustrator 25.3.1, SVG Export Plug-In . SVG Version: 6.00 Build 0)  -->
<svg version="1.1" xmlns="http://www.w3.org/2000/svg" xmlns:xlink="http://www.w3.org/1999/xlink" x="0px" y="0px"
	 viewBox="0 0 130 190" style="enable-background:new 0 0 130 190;" xml:space="preserve">
<style type="text/css">
	.st0{display:none;}
	.st1{display:inline;}
	.st2{clip-path:url(#SVGID_2_);}
	.st3{clip-path:url(#SVGID_4_);fill:none;stroke:#4682FC;stroke-width:3;}
	.st4{clip-path:url(#SVGID_6_);fill:none;stroke:#4682FC;stroke-width:3;}
	.st5{clip-path:url(#SVGID_8_);fill:none;stroke:#4682FC;stroke-width:3;}
	.st6{fill:#4285F4;}
</style>
<g id="Layer_1" class="st0">
	<g class="st1">
		<g>
			<defs>
				<rect id="SVGID_1_" width="130" height="189.5"/>
			</defs>
			<clipPath id="SVGID_2_">
				<use xlink:href="#SVGID_1_"  style="overflow:visible;"/>
			</clipPath>
			<g class="st2">
				<g>
					<defs>
						<rect id="SVGID_3_" x="-0.2" y="-0.4" width="131" height="190"/>
					</defs>
					<clipPath id="SVGID_4_">
						<use xlink:href="#SVGID_3_"  style="overflow:visible;"/>
					</clipPath>
					<path class="st3" d="M127.9,187.4L46.7,99.1h46.6c19.1,0,34.6-15.5,34.6-34.6V37c0-19.1-15.5-34.6-34.6-34.6H36.2"/>
				</g>
				<g>
					<defs>
						<rect id="SVGID_5_" x="-0.2" y="-0.4" width="131" height="190"/>
					</defs>
					<clipPath id="SVGID_6_">
						<use xlink:href="#SVGID_5_"  style="overflow:visible;"/>
					</clipPath>
					<line class="st4" x1="12.6" y1="0" x2="12.6" y2="166.4"/>
				</g>
				<g>
					<defs>
						<rect id="SVGID_7_" x="-0.2" y="-0.4" width="131" height="190"/>
					</defs>
					<clipPath id="SVGID_8_">
						<use xlink:href="#SVGID_7_"  style="overflow:visible;"/>
					</clipPath>
					<circle class="st5" cx="12.6" cy="176.9" r="10.5"/>
				</g>
			</g>
		</g>
	</g>
</g>
<g id="Layer_2">
	<g>
		<g>
			<g>
				<path class="st6" d="M10.6,163.2c-0.4,0-0.3,0.4,0,0.5c0-0.1,0-0.1,0-0.2C10.7,163.4,10.6,163.3,10.6,163.2z"/>
				<path class="st6" d="M10.6,162.9C10.6,162.9,10.6,162.9,10.6,162.9C10.7,162.9,10.4,162.7,10.6,162.9z"/>
				<path class="st6" d="M10.7,163C10.7,163,10.6,162.9,10.7,163c-0.5-0.5-0.8,0.4,0.1,0.1C10.8,163,10.7,163,10.7,163z"/>
				<path class="st6" d="M12.1,131.3C10.9,131.3,12.2,132,12.1,131.3L12.1,131.3z"/>
				<path class="st6" d="M11.6,123.3c0-0.1,0-0.2-0.1-0.2c-0.1-0.1-0.3,0.3-0.3,0.4C11.2,123.5,11.6,123.4,11.6,123.3z"/>
				<path class="st6" d="M11.3,150c0.1,0,0.2,0,0.3,0C11.5,150,11.4,150,11.3,150z"/>
				<path class="st6" d="M13.6,163.9c0.3-0.2,0.1-0.3-0.1-0.5c-0.2-0.1,0.1-0.1,0.1-0.1c0,0-1.2-0.2-0.9-0.3
					c0.3-0.2,0.8-0.1,1.2-0.1c0.3,0,0.8-0.3,0.4-0.5c-0.4,0-0.5,0.3-0.9,0.2c0-0.4,0.7-0.2,0.7-0.5c0-0.2-0.2-0.2-0.5-0.1
					c0-0.3,0.6-0.2,0.7-0.5c0-0.3,0-0.2,0.1-0.3c0.3-0.3-0.1-0.4-0.5-0.4c-0.4,0-0.5,0-0.5-0.3c0.3,0,0.6,0,0.9,0
					c0.4,0-0.1-0.3-0.2-0.3c-0.1-0.2,0-0.4-0.1-0.6c0-0.1-0.4-0.4-0.4-0.3c0.1-0.2,1.6-0.4,0.5-0.7c-0.3,0-0.1-0.2,0-0.3
					c0.3-0.2,0.1-0.4-0.1-0.6c-0.3-0.5,0-0.3,0.3-0.7c0.4-0.4-0.6-0.5-1-0.4c0.2,0,0.2-0.2,0.6-0.2c0.2,0,0.3-0.1,0.3-0.2
					c0.2-0.4,0.1-0.8,0.1-1.2c0.1-0.3,0.3-0.8,0.1-1.2c-0.1-0.2-0.7,0-0.9,0c0.2,0,0.1-0.2,0.3-0.3c0.1,0,0.3-0.1,0.4-0.1
					c0.1,0,0-0.3,0-0.4c0,0.2-0.2-0.2-0.2-0.2c0-0.3,0.2-0.5,0.1-0.8c-0.1-0.2-0.8-0.3-0.6-0.6c0.2-0.3,1-0.8,0.7-1.2
					c-0.1-0.2-1-0.5-0.1-0.5c-0.1-0.1-0.2-0.1-0.4-0.1c1.2-0.1,0.7-1.2,0.6-1.8c0-0.2,0-1.3-0.4-1.2c0-0.2,0.1-0.2,0.1-0.4
					c0.1-0.3,0-0.6,0-0.8c0-0.4,0.2-0.8,0.1-1.2c0-0.1,0-0.5-0.3-0.4c-0.2,0.1-0.4,0-0.4-0.2c0-0.2,0.1-0.3,0.3-0.4
					c0.1-0.2-0.1-0.4,0-0.6c0-0.1,0.6-0.3,0.1-0.3c-0.2,0-0.5-0.1-0.5-0.3c0.1,0,0.6,0,0.6,0c0.2-0.1-0.4-0.8-0.5-0.9
					c-0.1-0.2,0.1-0.4,0.2-0.6c0.1-0.2,0.4-0.7,0-0.7c-0.3,0-0.5-0.1-0.8-0.1c0.2-0.2,0.7-0.3,0.8-0.5c0.3-0.3-0.8-0.1-0.9-0.1
					c0-0.4,1-0.3,1.3-0.5c0.3-0.2-0.2-0.5-0.2-0.7c0-0.2,0.2-0.7-0.1-0.7c-0.1,0-0.2,0-0.2,0c0-0.1-0.1-0.2-0.3-0.2
					c-0.1,0-0.6,0-0.6,0c0-0.2,1.3-0.3,1.4-0.5c0.2-0.3,0-0.8-0.1-1.1c0-0.4,0.3-1.3-0.4-1.4c0.5-0.1,0.2-1,0.2-1.2
					c0-0.1,0.4-0.5,0.2-0.5c-0.3-0.2-0.6,0.2-0.8,0.2c-0.7-0.1,0.9-0.9,0.7-1.1c0,0-1.6,0-1.4-0.1c0.2-0.1,1.9,0,1.4-0.6
					c-0.3-0.3,0-0.7-0.5-1c-0.2-0.2-0.5-0.7-0.3-0.9c0.5,0,0.9-0.6,0.3-0.6c1.3-0.1,0.6-1.2-0.5-1c0.3-0.1,0.6-0.2,0.9-0.3
					c0.4-0.2,0.2-0.4,0.2-0.6c0-0.2,0.2-0.9-0.3-0.8c0.3-0.2,0.3-0.5,0.3-0.8c0-0.5-0.3-0.4-0.9-0.4c0-0.3,0.7-0.3,0.9-0.5
					c-0.2,0-0.5-0.1-0.5-0.3c0.9,0,0.7-0.5,0.6-0.9c0-0.3-1.1-0.5-1.4-0.6c-0.3-0.1-0.7,0-1-0.1c-0.3-0.1,0.1-0.2,0.2-0.2
					c0.4,0,0.9,0.1,1.3,0.1c-0.1,0,0.8,0.1,0.7,0c0-0.1-0.1-0.2-0.1-0.3c0.1,0,0.2,0,0.2-0.1c0-0.1,0-0.3-0.1-0.3
					c-0.1,0-1.6,0.2-1.6,0.1c0.2-0.2,1.4-0.6,0.5-0.9c-0.3,0.2-0.9,0-1.2,0.2c-0.3,0.2,0.7,0.7,0.3,0.8c-0.3,0.1-0.6-0.1-0.9,0.1
					c-0.3,0,0,0.4,0.1,0.5c0,0.3,0.8,0.3,1.3,0.4c0.3,0,0.6,0.1,0.7,0.3c0,0.1,0.1,0.4-0.1,0.5c-0.2,0-0.5-0.4-0.6-0.5
					c-0.3-0.1-0.5-0.1-0.9-0.1c0.6,0,0.4,0.4,0.7,0.6c0,0.3-0.2,0.2-0.3,0.4c-0.2,0.2,0,0.4,0,0.6c0,0.2-0.3,0.1-0.4,0.2
					c-0.3,0.1-0.2,0.4-0.3,0.6c0,0.1-0.4,0.9,0,0.8c0.6-0.1,0.8,0,0.7,0.4c-0.1,0.3-0.8,0.3-0.4,0.5c0.5,0.2-0.4,0.5,0,0.6
					c0.2,0.1,1.6,0.1,1.6,0c0,0.2-0.8,0.2-1,0.3c-0.3,0.1-0.3,0.4-0.7,0.4c0-0.1-0.2,0-0.2,0c0,0.2,0.2,0.1,0.3,0.1
					c0.3,0,0.3,0.3,0.3,0.4c0,0,0.7-0.4,0.6,0c-0.1,0.4-1,0.2-1.2,0.4c-0.3,0.3,0.3,0.5,0.7,0.6c0.4,0,0.3,0,0.3,0.3
					c0,0-0.2,0.4,0,0.4c0.3-0.1,0.6-0.2,0.3,0.2c-0.5,0.3-0.5-0.3-1-0.3c0.1,0.4-0.5,0.3,0,0.7c0.2,0.2-0.1,0.8,0.6,0.7
					c-0.3,0-0.4,0.2-0.2,0.3c0.3,0.1,0.5,0.1,0.8,0.2c0.5,0.1-0.3,0.3-0.5,0.4c-0.3,0.1-1.1,0.1-0.9,0.4c0.1,0.2,0.5,0.6-0.1,0.6
					c0.5,0,1.8,0,1.3,0.5c-0.3,0.3-1.4,0.1-0.9,0.5c0.1,0.1,0.7,0.3,0.5,0.4c-0.2,0.1-0.5,0.1-0.7,0.2c-0.1,0.1,0.2,0.2,0.2,0.4
					c0,0.2,0.5,0.1,0.7,0.2c0.3,0.2,0.1,0.5,0.4,0.6c0.1,0,0.7,0.3,0.2,0.3c-0.3,0.2-0.5,0.5-0.4,0.8c0,0.2,0.3,0.3,0.4,0.5
					c0.1,0.2-1.2-0.1-1.4,0.1c-0.2,0.2,0.6,0.2,0.7,0.3c0.1,0,0.4,0.3,0.1,0.3c0.1,0,0.9-0.1,0.9-0.1c-0.1,0.3-1.4,0.2-1.7,0.2
					c0,0.3,0.7,0.1,0.8,0.4c-0.8-0.1-0.2,0.4-0.4,0.6c-0.2,0.1-0.5,0-0.5,0.2c0,0.2,0.1,0.2,0.2,0.3c0.1,0.3-0.1,0.4-0.1,0.6
					c0,0.3,0.1,0.6,0.1,0.9c0.2-0.1,0.7-0.2,0.9,0c0.2,0.2-0.4,0.4-0.6,0.4c-0.4,0-0.6,0.4-0.4,0.6c0.2,0.2,0.5-0.2,0.7-0.3
					c0.2-0.1,0.5,0.8,0,0.8c-1,0,0.8,0.6,0.8,0.7c-0.2,0-0.8,0-0.8,0.2c0,0.1,0.3,0.9-0.1,0.6c0,0.2,0.4,0.6,0.1,0.6
					c-0.2,0-0.6,0.3-0.4,0.3c0.4,0,1-0.5,1.1-0.6c0-0.1,0.4,0.2,0.4,0.2c0,0.2-0.4,0.3-0.6,0.3c-0.3,0.1-0.6,0.2-0.9,0.3
					c0.2,0.1,0.3,0.2,0.5,0.3c0.6,0.2,0.2,0.2-0.1,0.4c-0.8,0.5,0.6,1.2-0.3,1.5c-0.1,0,0.8,0.3,0.5,0.4c-0.1,0-1,0.1-0.6,0.3
					c0.2,0.1,0.8-0.1,0.8,0.2c0,0.1-0.4,0.4-0.4,0.4c0,0,0.4-0.3,0-0.3c-0.3,0-0.4,0.4-0.4,0.5c0,0.1,0,0.4,0.2,0.4
					c0.3-0.1,0.8-0.2,0.7-0.4c0.1-0.1,0.5,0,0.6,0c0.2,0.1-0.2,0.3-0.3,0.4c-0.3,0.2-0.8,0.5-1.2,0.5c0.2,0,0.5,0,0.5,0.1
					c0,0.1-0.4,0.2-0.6,0.3c-0.3,0.2,0,0.6,0.2,0.7c0.2,0.3,0.3,0.4,0.7,0.6c0.1,0,0.6,0.1,0.4,0.3c-0.1,0.1-1.2,0-1.2,0
					c0.1,0.2,0.7,0.3,0.7,0.3c0-0.1-0.5,0.1-0.5,0.2c-0.1,0.1-0.1,0.5,0.2,0.4c0.1,0.1,0.3,0.7,0.6,0.7c0.2,0.6-0.3,0.3-0.7,0.7
					c-0.3,0.3,0.5,0.4,0.5,0c0,0.3,0.6,0.8,1.1,0.8c-0.4,0-0.6-0.1-1-0.1c-0.2,0-0.4,0.1-0.6,0.2c0.6,0,0.7,0.3,0.7,0.8
					c0,0.4-0.5,0.5-0.9,0.8c0.4,0,0.3,0.9,0.4,1c0.1,0.2,0.6,0.2,0.6,0.4c0,0.2-1.5,1.3-0.4,1.3c0,0.2-0.7,0.6-0.4,0.7
					c0.4,0.1,0.6,0.2,1,0.4c-0.4-0.1-0.8-0.1-1.2-0.3c0.4,0.2,0.8,0.5,1.3,0.7c-0.1,0-1.1-0.2-1.1-0.2c0.2,0.4,1.1,0.3,1.6,0.3
					c0,0.3-1,0.2-1.3,0.2c-0.5,0,0,0.2-0.2,0.4c-0.1,0.1-0.4,0-0.3,0.2c0.1,0.2,0.4,0.2,0.4,0.4c-0.1,0.1-0.1,0.3-0.2,0.5
					c-0.1,0.1-0.8,0.7-0.6,0.8c0,0,0.7,0.1,0.8,0.1c0.6,0.1,0.7,0.1,0.6,0.4c-0.1,0.1,0.3,0.2,0.4,0.3
					C12.8,164.3,13.3,164,13.6,163.9z"/>
				<path class="st6" d="M11.8,155.3c-0.1,0-0.1,0-0.2,0C11.7,155.3,11.8,155.3,11.8,155.3z"/>
				<path class="st6" d="M12,117.7c0.1-0.2,0.1-0.5-0.3-0.3c-0.4,0.1-0.3,0.5-0.2,0.7c0.1-0.1,0.3-0.2,0.4-0.3
					C12,117.7,12,117.7,12,117.7z"/>
				<path class="st6" d="M14.3,119c0.4-0.3-0.3-0.3,0.1-0.6c0.3-0.4-0.5-0.8-0.6-1.2c0.5,0,0.5-0.2,0.4-0.5
					c-0.2-0.2-0.5-0.3-0.8-0.4c0.5,0.3,1.6-0.7,0.5-0.3c-0.4,0.3-0.3-0.3,0-0.4c0.4-0.2,0.7-0.1,0.7-0.5c0.3-0.5-1.1,0-1.2,0
					c-0.2,0.1-1.7-0.3-1.8,0.1c-0.1,0.2,0.5,0.2,0.2,0.5c-0.1,0.1-0.7,0.3-0.4,0.5c0.3,0,0.7-0.2,0.9-0.1c0.2,0,0.3,0.1,0.4,0.1
					c-0.4,0-1,0.2-0.5,0.4c0.2,0.1,1,0.2,1.2,0.2c-0.5,0-1,0-1.4,0.1c0,0.3,0.6,0,0.7,0.2c0.1,0.3-0.1,0.4-0.1,0.7
					c0,0.3,0.1,0.6-0.2,0.9c-0.1,0.1-0.5,0.3-0.5,0.4c0-0.1,0.7-0.1,0.8-0.1c0,0.3-0.5,0.3-0.8,0.3c0.3,0,0.5,0.2,0.6,0.4
					c0.1,0.2,0.2,0.2,0.7,0.2C13.5,119.6,14,119.3,14.3,119z"/>
				<path class="st6" d="M14.6,115.1C14.6,115.4,14.8,114.8,14.6,115.1L14.6,115.1z"/>
				<path class="st6" d="M14.3,114.5c0.5-0.4-0.7-0.3-1-0.3c0.1,0,1.5-0.3,1.2-0.5c-0.2-0.2-0.7,0.1-0.8-0.2c0-0.2-0.1-0.4,0-0.6
					c0-0.1,0.3,0,0.4,0c0.4-0.1,0.3-0.5-0.1-0.4c0.3-0.2-0.6-0.4-0.2-0.6c0.2-0.2,0.6,0,0.8,0.1c0-0.4-0.8-0.5-1.2-0.6
					c0.4-0.1,0.7-0.2,1.2-0.2c-0.3-0.1-1.5-0.4-1.5-0.7c0.4,0,1.3-0.1,1.1-0.5c-0.2-0.2-0.8,0.6-1,0.2c-0.4-0.5,1-0.2,0.9-0.5
					c0-0.1-0.6-0.2-0.3-0.4c0,0,0.3-0.1,0.4-0.1c-0.1-0.1-0.4-0.1-0.5-0.1c0.6,0,0.8-0.2,1.1-0.5c0.1-0.1-0.1-0.2-0.3-0.2
					c0.3-0.1,0.5-0.3,0.5-0.5c0-0.2-0.3-0.3-0.5-0.4c-0.1-0.1-0.3-0.3-0.3-0.5c0-0.1,0.5-0.1,0.7-0.1c-0.1-0.2-0.3-0.3-0.5-0.4
					c-0.1,0-0.2,0-0.2,0c-0.8-0.1-1.2,0.2-1.9,0.3c-0.8,0.1-0.4,0.4-0.4,0.8c0,0.3-0.4,0.9,0,1.1c0.5,0.2,0.7,0,1-0.2
					c0,0.1,1.2,0.5,1.3,0.5c-0.3,0-0.6-0.1-0.8-0.1c-0.1,0-0.4,0.2-0.4,0.2c-0.2,0-1-0.3-1,0c0,0.3-0.6,1.4,0.4,1.4
					c-0.1,0-0.1,0.6,0,0.7c0.1,0.2-0.4,0.3-0.5,0.5c-0.1,0.3-0.1,0.6,0.2,0.8c0.5,0.5-0.3,0.3-0.3,0.7c0.5-0.1,0.5-0.3,1.1-0.2
					c0.2,0.1,0.9,0.4,0.6,0.6c-0.5,0.3-1.2-0.1-1.6-0.1c0,0.2-0.1,1,0.3,1c0.3,0.1,1.3-0.2,1.5,0.1C13.4,115,13.8,114.8,14.3,114.5z
					"/>
				<path class="st6" d="M12,106.2c-0.2-0.2-0.5-0.1-0.5,0.2C11.6,106.7,12,106.5,12,106.2z"/>
				<path class="st6" d="M13.8,105.3c0-0.1,0-0.1,0-0.2C13.5,104.8,13,105.3,13.8,105.3z"/>
				<path class="st6" d="M12.6,105c0.6-0.1,1.3-0.4,1.9-0.4c-0.1-0.2-0.5-0.6-0.8-0.7c-0.5-0.1,0,0.5-0.1,0.5
					c-0.3-0.1-0.5-0.5-0.2-0.6c0.3-0.1,0.8,0,1-0.3c0.7-0.9-0.9-0.1-1-0.3c-0.1-0.2,1.1-0.5,1.2-0.7c0.2-0.4,0.2-0.5-0.5-0.5
					c0-0.3,0.4-0.3,0.6-0.6c0.1-0.2,0.1-0.6-0.4-0.6c0.9,0-0.1-1.2,0.2-1.6c0,0,0,0,0.1-0.1c-0.3,0-1.1,0.2-1.6,0.4
					c-0.4,0-0.3,0.3-0.5,0.3c-0.1,0-0.9,0.1-0.5,0.3c0.2,0.1,0.4-0.1,0.4,0.1c0,0.1,0,0.2,0,0.4c0.1,0.2,0.7,0.2,0.9,0.3
					c0.6,0.4-1.2,0-1.2,0c-0.1,0,0.7,0.4,0.3,0.6c-0.3,0.2-0.9,0.2-0.8,0.6c0,0.1,0.5,0.6,0.7,0.4c0.1,0-0.2-0.4-0.1-0.4
					c0.4,0.1,0.4,0.8,0.3,1c-0.1,0.1-0.2,0-0.3,0c-0.2-0.2-0.2-0.1-0.6-0.1c0.3,0.2,0.7,0.3,1,0.4c-0.2,0-1.2,0-1,0.2
					c0.2,0.2,0.6,0.1,0.7,0.3c0,0.1-0.2,0.2-0.3,0.2c-0.3,0.4,1.2,0.2,0,0.5c-0.5,0.3-0.7,0.5-0.2,0.8c0.6,0.3-0.7,0.4-0.2,0.6
					c0.6,0.2,1.5,0.3,2.1,0.3C14.9,106.3,12.9,105.2,12.6,105z"/>
				<path class="st6" d="M14.4,99.2C14.3,99.2,14.3,99.2,14.4,99.2C14.3,99.2,14.5,99.1,14.4,99.2z"/>
				<path class="st6" d="M12.1,90.9c0-0.3-0.6-0.4-0.7-0.1C11.4,91,12.1,91.2,12.1,90.9z"/>
				<path class="st6" d="M11.6,88.2c-0.2,0.4,0.3,0.6,0.2,0.1C11.8,88.3,11.7,88.2,11.6,88.2z"/>
				<path class="st6" d="M12.5,99.2c0.1,0,0.4,0.1,0.5,0c0.3-0.2-0.5-0.3,0.4-0.3c0.3,0,1-0.4,0.6-0.6c-0.2-0.1-0.6-0.2-0.9-0.2
					c0.3,0,1,0,1-0.2c0-0.2-0.4-0.7,0.2-0.7c-0.4,0-0.8,0-0.8-0.3c0.2,0,1.1,0,1.1-0.2c0-0.1-0.7-0.3-0.8-0.4
					c-0.6-0.5,0.6-0.2,0.7-0.4c0-0.1-0.3-0.5-0.4-0.6c-0.1-0.2-0.5-0.1-0.7-0.1c0-0.3,0.7-0.1,0.9-0.1c0.1,0,0.1-0.4,0.3-0.5
					c0.3-0.1,0.3-0.1,0-0.3c-0.2-0.2-0.1-0.4,0-0.5c0.1-0.1,0.7-0.3,0.3-0.4c-0.1,0-0.7,0.1-0.7-0.1c-0.1-0.1,0.2-0.2,0.4-0.3
					c0.8,0-0.3-0.4-0.4-0.3c0.1-0.1,0.6-0.2,0.5-0.4c0-0.3-0.3,0-0.5-0.1c-0.2-0.1,0.6-0.6,0.6-0.6c0.1-0.1-0.3-0.2-0.4-0.4
					c-0.2-0.4-0.4-0.6-0.8-0.8c-0.2-0.1-0.5-0.3-0.3-0.5c0.2-0.2,0.9-0.3,0.9-0.5c0-0.3,0.3-0.3,0.5-0.4c0.5-0.4-1-0.7,0-1.1
					c-0.5,0.1-0.9-0.1-0.8-0.4c0.1-0.3,0.9-0.5,0.9-0.6c0-0.2-1.3,0.4-1.5,0.5c-0.7,0.1-1-0.2-1.5-0.4c-0.5-0.1-0.3,0.7-0.3,0.8
					c0.1,0.4,0.8-0.3,1.1-0.1c-0.2-0.1-0.4-0.1-0.6-0.1c0.3,0,0.6,0,0.8,0.1c0.3,0.2-0.1,0.3-0.4,0.4c-0.4,0.1-0.9,0.4-0.2,0.5
					c0.3,0,1,0,0.9,0.3c-0.1,0.3-1.1,0.1-1.3,0.1c-0.4,0-0.2,0.5-0.2,0.6c0.1,0.6-0.3,1,0.8,0.9c-0.4,0.3,0.2,0.3,0.2,0.6
					c0,0.1-0.5,0.1-0.5,0.3c0,0.2,1.4,0.1,0.8,0.6c-0.1,0.1-0.6,0.4-0.9,0.3c-0.2-0.1,0.2-0.3,0.3-0.4c0.1-0.2-0.1-0.3-0.3-0.3
					c-0.4,0-0.3-0.1-0.3-0.3c-0.5,0-0.6,0.6-0.2,0.6c0,0.3-0.3,0.4-0.2,0.7c0.1,0.3,0.4,0.6,0.8,0.4c0.2-0.1,0.5-0.3,0.7-0.2
					c0.2,0,0.9,0.6,0.7,0.6c-0.4,0-0.7,0.1-1.1,0.2c-0.4,0.1-0.6,0.2-0.6,0.5c0,0.3-0.5,0.3-0.5,0.6c0.1-0.3,3.5,0.1,0.6,0.2
					c-0.5,0-0.7,0.3-0.4,0.5c0.2,0.1,1.2,0.3,1.2,0.4c0,0.1-1.5-0.1-1.5,0.2c0.4,0,1.6-0.2,1.7,0.2c0.1,0.4-1.1,0.1-1.3,0.3
					c-0.1,0.1,0,0.3,0,0.4c0,0.2-0.3,0.1-0.3,0.2c-0.1,0.2,0.9,0.9,0.9,0.9c-0.2,0-0.5-0.2-0.7,0c-0.1,0.1,0,0.2,0.1,0.3
					c0.1,0.1,1,0.4,1,0.5c-0.1,0.2-0.9,0.2-1.1,0.4c-0.3,0.2,0.2,0.4,0.5,0.4C12.4,99.4,12.1,99.3,12.5,99.2z"/>
				<path class="st6" d="M13.1,87c0.4,0,0.9-0.3,0.7-0.5c0,0,0,0-0.1-0.1c-0.4,0-0.8,0-1.1,0c0.2,0,0.4,0,0.5,0.1
					C13,86.5,12.2,87,13.1,87z"/>
				<path class="st6" d="M12,85.3c-0.1-0.1-0.7-0.2-0.7,0C11.3,85.5,12,85.5,12,85.3z"/>
				<path class="st6" d="M15.1,86.1c0,0-0.4-0.2-0.4-0.3c-0.1-0.2,0.2-0.4,0.1-0.6c-0.1-0.2-0.2-0.4-0.4-0.5
					c-0.1-0.1-0.5-0.1-0.5-0.1c0,0,0.7-0.2,0.5-0.3c-0.2-0.1-0.9-0.1-1.2-0.1c-0.6,0-1.1,0-1.7,0.1c0,0.2,1.2,0.3,1.1,0.4
					c-0.1,0.2-1.3-0.2-1.3,0.2c1-0.1,0.4,0.3,0.8,0.4c0.4,0.1,1.2-0.3,1.1,0.3c0,0.4-0.6,0-0.9-0.1c-0.3-0.1-1,0.3-1.2,0.4
					c0,0.2,1.4,0.3,1.6,0.3c0.5,0,1.5,0,1.5,0.4C14.5,86.3,14.6,86.2,15.1,86.1z"/>
				<path class="st6" d="M14.9,83.6c0-0.2,0-0.6-0.3-0.8c-0.3-0.2-0.8-0.1-1-0.2c-0.2-0.1,1.2-0.5,1.2-0.6c0.1-0.1,0-0.4-0.1-0.5
					c-0.1-0.3-0.1-0.5-0.1-0.8c0-0.4,0.4-0.6-0.3-1c-0.1,0-1.9-0.1-1.5-0.4c0.1,0,0.6,0.1,0.7,0.1c0.2,0,0.4-0.1,0.5-0.2
					c0.4-0.4,0.5-0.9,0.4-1.3c0-0.2,0-0.6-0.2-0.7c-0.4-0.2-0.2,0.3-0.2,0.3c0.1,0.1-0.7-0.1-0.8-0.1c-0.4,0-0.9-0.1-1.3,0
					c-0.4,0,0,0.3-0.2,0.4c-0.4,0.1-0.5,0.1-0.4,0.4c0.2,0.4,0.3,0.6,1,0.6c0.2,0,0.7-0.1,0.5-0.3c-0.3-0.1,0.5-0.1,0.5-0.1
					c0.1,0,0.8,0.3,0.6,0.4c-0.1,0-0.5-0.1-0.6-0.1c-0.3,0-0.6,0.1-0.9,0.2c0,0-0.7,0.9-0.9,0.5c0-0.1,0.2-0.3,0-0.4
					c-0.2-0.1-0.5,1,0.3,0.7c0.3,0,0.2,0.1,0.3,0.3c0.2,0.2,0.1,0.1,0.4,0.1c-0.1,0-0.8,0.5-0.9,0.6c-0.3,0.3-0.2,0.6-0.2,0.9
					c-0.4,0.6,0.9,0,1.4,0.1c0.1,0,0.1,0.2,0.1,0.2c0,0.1-0.4,0.1-0.5,0.1c-0.4,0-0.9,0.2-0.6,0.5c0.3,0.3,0.8,0.3,1.2,0.6
					c0,0.3,0.5,0.3,0.6,0.5c0,0.1-1.1-0.2-1.2-0.2c-0.3,0-0.9-0.1-1,0.2c-0.2,0.3,0.3,0.5,0.7,0.4c0.2-0.1,0.4-0.2,0.6-0.3
					c0.2,0,0.2,0.2,0.1,0.2C13.3,84.2,14.8,84,14.9,83.6z"/>
				<path class="st6" d="M14.1,75.6C14.6,75.8,13.4,75.4,14.1,75.6L14.1,75.6z"/>
				<path class="st6" d="M13.8,76.1c0.1-0.2,0.5,0.1,0.6-0.1c0.2-0.1-0.1-0.4-0.3-0.4c-0.3-0.1-2-0.4-1.7,0.1c-0.3,0-0.6,0-0.5-0.3
					c-0.5,0,0.1,0.8,0.2,1c0.3,0.4,0.9,0.7,1.7,0.7C15.2,77,13.7,76.6,13.8,76.1z"/>
				<path class="st6" d="M14.6,70.8c0.2,0,0.2,0,0.2-0.2c0-0.1,0-0.1,0-0.2C14.6,70.5,14.5,70.6,14.6,70.8z"/>
				<path class="st6" d="M13.2,66.1C13.2,66.1,13.2,66.1,13.2,66.1C13,66,12.9,66,12.9,66c-0.3-0.1-0.5-0.2-0.5,0.1
					c0,0.2,0.9,0.2,1.1,0.1C13.5,66.2,13.3,66.2,13.2,66.1z"/>
				<path class="st6" d="M13.2,66.1c0.1,0-0.4-0.1-0.3-0.1C13,66,13.1,66.1,13.2,66.1C13.1,66.1,13.2,66.1,13.2,66.1z"/>
				<path class="st6" d="M11.7,66.1c0-0.2,0.2-0.3,0.2-0.6C11.3,65.2,11.7,66,11.7,66.1z"/>
				<path class="st6" d="M12.2,75.3c0-0.3,0.9-0.4,0.7-0.6c-0.1-0.2-0.4-0.3-0.5-0.5c0,0-0.2-0.4,0-0.3c-0.2-0.1-0.4-0.1-0.7-0.1
					c0.5,0,0.8-0.1,1.3-0.2c-0.3-0.2-1.2-0.5-1-0.8c0.2-0.2,0.9-0.3,1.1-0.1c0.1,0,0.3,0.1,0.2,0c0.1-0.1-0.1-0.2-0.1-0.3
					C13,72.2,12.7,72,12.4,72c-0.4,0-0.8-0.1-0.8-0.4c0.1-0.2,0.9-0.2,1.1-0.3c0.1-0.1-0.2-0.4-0.4-0.5C12.2,70.9,12,71,11.7,71
					c-0.6-0.1-0.5-0.4,0-0.4c-0.2,0-0.5-0.1-0.4-0.2c0.1-0.1,0.5-0.2,0.7-0.2c0.7-0.1,1.4-0.1,2.2-0.1c-0.5,0-1.1-0.5-1.5-0.3
					c-0.2,0.1-0.4,0.3-0.7,0.2c-0.3,0,0.2-0.3,0.2-0.4c0.3-0.2,1.3-0.2,1.1-0.6c-0.1-0.2-1.1,0.4-1.2,0.4c-0.8,0.5-0.5-0.2-0.5-0.5
					c0-0.2-0.4-0.5-0.2-0.7c0.1-0.1,0.6-0.1,0.8-0.1c0.2,0,1.3-0.2,1.3-0.4c0-0.1-1.3,0.1-1.3,0c0,0,0.3-0.1,0.1-0.2
					c-0.1-0.1-0.5,0.1-0.7,0c-0.8-0.1,0.1-0.4,0.4-0.5c-0.4,0-1-0.1-0.4-0.3c0.6-0.2,1.7-0.4,2.3-0.3c0,0-0.4-0.3-0.4-0.3
					c-0.3-0.2-0.6-0.3-1-0.4c-0.9,0.3,0.3-0.6,0.3-0.6c0,0-1,0.4-0.7-0.1c0.1-0.1-0.4-0.4-0.4-0.5c0-0.2,0.5-0.3,0.5-0.4
					c0,0.2-1.6,0.2-1.1-0.3c0.3-0.3,1.3-0.3,1.8-0.4c-0.2-0.1-0.5-0.2-0.7-0.3c-0.1-0.1-0.5-0.3-0.8-0.2c0,0,0.1,0.3,0,0.4
					c-0.3,0.3-0.2-0.8-0.2-0.8c0-0.1-0.2-0.7,0.3-0.6c1.5,0.3-0.5-0.9-0.2-1.2c0.2-0.2,1.1-0.1,1.4-0.1c0.5,0,1.4-0.1,1.7,0.2
					c0.3,0.3,0,0.3-0.4,0.3c-0.3,0-0.6,0.6-0.8,0.5c0.3,0.2,0.9,0.2,1.3,0.2c-0.2,0-2.1,0.2-1.6,0.3c0.5,0.1,1.1,0.1,1.4,0.3
					c0.2,0.2,0.6,0.9-0.1,0.9c0.6-0.1,0.3,0.4,0,0.5c-0.1,0-0.9,0.4-0.4,0.5c0.4,0,0.9,0.1,0.6,0.4c-0.3,0.4,0.1,0.2,0.1,0.6
					c-0.6,0.4,0.1,1.5,0.1,2c0,0.2,0,0.5-0.2,0.6c-0.1,0.1-0.6,0-0.6-0.1c0,0.1,0.6,0.3,0.7,0.5c0.2,0.2,0,0.5-0.2,0.7
					c-0.8,0.3,0,0.2,0.2,0.3c0.1,0.1,0.1,0.3,0.1,0.4c0,0.1-0.3,0-0.4,0c-0.1,0,0.5,0.4,0.5,0.5c-0.1,0.3-0.8,0.6-1.1,0.9
					c-0.5,0.4,0.6,0.2,0.9,0.2c0.5,0-0.3,0.5,0.1,0.6c-0.8,0,0.1,0.9-0.2,0.9c-0.4,0-0.8-0.1-1.1,0.2c-0.1,0.1-0.3,0.3-0.4,0.4
					c0.4-0.1,0.8-0.2,1.1-0.3c0.1,0,0.4-0.2,0.5-0.1c0.1,0.1,0,0.2-0.2,0.2c0,0.1,0.1,0.4,0,0.5c-0.3,0.1-0.4,0.1-0.4,0.3
					c0.1,0.1,0.4,0.3,0,0.3c0.2,0.5,0,0.1,0.6,0.3c-0.2,0-0.1,1-1,0.5c-0.4,0-0.6,0.2-1,0c-0.2,0-0.3,0-0.5,0
					C12.4,75.2,12.4,75.2,12.2,75.3z M13.4,71c0.2-0.2-0.3-0.3-0.6-0.3c-0.1,0-0.3,0.1-0.4,0.1C12.8,70.9,13.1,71.2,13.4,71z"/>
				<path class="st6" d="M13.3,58c0.2,0,0.5,0,0.6-0.2C13.9,57.6,12.9,58,13.3,58z"/>
				<path class="st6" d="M14.2,59.1c-0.2-0.1-0.5-0.1-0.6-0.3c-0.4-0.4,0.2-0.1,0.5-0.2c0.2,0,0.9-0.3,0.5-0.4c-0.3-0.1-0.9,0-1.2,0
					c-0.8,0.6-0.5-0.3-0.5-0.3c-0.2,0.1-0.5,0.1-0.7,0.1c-0.1,0-0.1,0-0.2-0.1c-0.2-0.1-0.6-0.2-0.7-0.1c-0.2,0.2,0.2,0.3,0.4,0.3
					c0.1,0,1,0,0.7,0.2c-0.3,0.1-0.7,0-1,0.2c-0.2,0.2-0.1,0.4,0.1,0.5c0.2,0.3,0.1,0.6,0.2,0.9c0.1,0.4,1.2,0.3,1.7,0.2
					C13.8,60.1,14.8,59.6,14.2,59.1z"/>
				<path class="st6" d="M11.9,57.9c0.1,0,0.1,0.1,0.2,0.1C12.3,57.9,11.5,57.7,11.9,57.9z"/>
				<path class="st6" d="M12.1,53.2c-0.3-0.2-1.2-0.1-0.9,0.1C11.4,53.5,12.1,53.5,12.1,53.2z"/>
				<path class="st6" d="M12.4,52.3c-0.3-0.4-1.3,0-1.2,0.3C11.4,52.8,12.9,52.6,12.4,52.3z"/>
				<path class="st6" d="M12.4,52.3C12.7,52.5,12.2,52,12.4,52.3L12.4,52.3z"/>
				<path class="st6" d="M11.6,37.3c-0.5-0.3-1,0.2-0.4,0.3C11.6,37.7,12,37.6,11.6,37.3z"/>
				<path class="st6" d="M14.5,30.7c0-0.1,0-0.1,0-0.2C14.2,30.2,13.7,30.7,14.5,30.7z"/>
				<path class="st6" d="M14.6,57.6c-0.1-0.1-0.7-0.7-0.1-0.6c0.5,0.1,0.3-0.5,0.3-0.6c0-0.5,0-1-0.3-1.4c-0.3-0.5,0.3-0.8,0.2-1.3
					c-0.1-0.4-1.2-0.4-0.5-0.6c0.5,0,0-0.8,0.1-0.8c0.4,0,0.2-1,0.1-1.3c0-0.4,0.2-0.6,0.1-1.1c-0.1,0.1-0.3,0.3-0.4,0.2
					c-0.2-0.1-0.1-0.4-0.1-0.6c0-0.2-0.2,0-0.3-0.2c0-0.2,0.2-0.3,0.4-0.3c0,0.1,0,0.2,0,0.3c0.5-0.3,0.4-0.5,0.3-0.8
					c-0.2-0.4,0.3-0.3,0.2-0.6c-0.1-0.4-0.5-0.5-0.8-0.8c-0.2-0.3,0.4-0.4,0.6-0.6c0.4-0.4-0.3-1-0.1-1.5c0.1-0.3,0.1-0.3-0.3-0.2
					c-0.3,0,0.1-0.6,0.1-0.7c0-0.5-0.2-0.5,0.5-0.6c0.2-0.1-0.3-0.4-0.4-0.5c-0.5-0.2-0.7,0-0.7-0.4c0.2-0.3-0.2-0.2-0.5-0.1
					c-0.2,0-1.5,0.2-1.6-0.1c0-0.3,1.1-0.2,1.3-0.1c0.2,0,0.9,0,0.9,0.2c0.4,0.1,1.2-0.1,0.4-0.3c0.2-0.2,0.5-0.2,0.4-0.5
					c-0.3-0.2-0.3-0.5-0.3-0.7c0-0.4,0.3-0.6,0-1c-0.1-0.1-0.2-0.3-0.4-0.3c0.4,0,0.8-0.2,0.9-0.4c0-0.1-1.2,0-1.4,0
					c0.5,0,1.1-0.1,1.2-0.5c0-0.3,0.1-0.8-0.4-0.9c0.3-0.1,0.4-0.3,0.5-0.5c0.1-0.3-0.1-0.2-0.4-0.3c0,0,0.4-0.4,0.4-0.4
					c0-0.2-0.7-0.4-0.8-0.4c-0.1,0-0.5-0.2-0.5,0c0,0.2-0.2,0.3-0.2,0.4c0-0.3,0-0.5,0.3-0.8c0.3-0.2,0.7,0.1,0.9-0.1
					c0.3-0.2-0.6-0.4-0.7-0.4c-0.2-0.1,0.4-0.4,0.4-0.4c0.4-0.3,0.5-0.9-0.2-1c-0.1,0,0.1-0.8,0.5-0.6c-0.2-0.1-0.6-0.1-0.6-0.3
					c0-0.2,0.3-0.4,0.4-0.5c0.2-0.3-0.7-0.1-0.9,0c0.2,0,0.2-0.3,0.5-0.3c0.1,0,0.8,0,0.7-0.2c-0.1-0.1-0.1-0.1-0.3-0.1
					c0-0.1,0-0.2,0-0.3c0.1,0,0-0.1-0.1-0.1c-0.3-0.2-0.8-0.3-1.2-0.4c-0.3,0-0.7,0.1-0.7-0.1c0.4,0,0.8,0,1.2-0.1
					c0.3,0,0.1-0.2,0.3-0.3c0.1-0.1,0.6,0,0.6-0.2c0-0.1,0.1-0.3-0.1-0.4c-0.2,0-0.7,0.3-0.9,0.2c-0.2-0.1,0.1-0.3,0.2-0.4
					c0.6-0.3,0.7,0,0.6-0.6c-0.1-0.7-0.9-0.4-1.7-0.2c-0.4,0.2-0.9,0.2-1.4,0.2c-1,0,0.4,0.4,0.4,0.4c0,0-0.8,0.1-0.8,0.1
					c0,0.2,0.5,0.1,0.6,0.3c0.2,0.3,0.1,0.6,0.3,1c0.1,0.1,0.4,0.5,0,0.5c-0.2,0-0.7,0.1-0.7-0.1c0,0.4,0,0.8,0.2,1.2
					c0.2,0.3,1,0.2,1.4,0.1c-0.4,0-0.1,0.3-0.1,0.4c0,0.1-0.6,0.1-0.6,0.1c-0.3,0-1.4,0.3-0.8,0.5c0.4,0.1,0.8-0.1,1.1-0.2
					c0.3-0.1,0.6,0.4,0.3,0.4c0,0-0.5-0.1-0.5,0c0,0.1,0.3,0.3,0,0.4c-0.2,0.1-0.3,0.1-0.6,0.1c0.4,0,2.4-0.3,1.9,0.4
					c-0.1,0.2-2.4,0-2.3,0.1c0.1,0.3,1.1,0.2,1.4,0.4c-0.1-0.1-0.9,0.3-1,0.4c-0.4,0.4,0.8-0.2,0.7-0.1c0.2,0,0.2,0.4,0.3,0.4
					c0.3,0,0.2,0.1,0.2,0.3c-0.2,0.1-1.2,0.3-1-0.1c-0.4,0-1,0.4-0.6,0.6c0.3,0.1,1.3-0.1,1.5,0.2c0,0-1.1-0.1-1.1,0.1
					c0,0.4,1,0.3,1.3,0.3c0,0.3-0.4,0.1-0.4,0.3c0,0.2,0,0.3-0.1,0.5c-0.1,0.2-0.3,0.4-0.6,0.5c-0.2,0.1-0.5,0.1-0.4,0.3
					c0,0.1,0.2,0.3,0.1,0.5c-0.1,0-0.2,0-0.2,0.1c0.1,0.2,0.3,0.3,0.4,0.5c0.1,0.1,0.5,0.5,0.3,0.6c-0.1,0-0.6,0-0.6,0
					c0.1,0,0.9,0.3,1,0.2c-0.3,0.2,0.3,0.4,0.2,0.5c-0.2,0.2-0.8,0.1-1.1,0.1c0.2,0,0.3,0,0.5,0.1c-0.4-0.2-0.6,0.7-0.6,0.7
					c-0.1,0.3-0.4,0.8,0.3,0.5c0.8,0,0.3,0.2,1,0.4c0.1,0,0.5,0.2,0.3,0.3c-0.2,0.1-0.4-0.1-0.5-0.1c-0.3,0.1,0.3,0.5-0.1,0.5
					c-0.3,0-0.6-0.1-0.6,0.1c0,0.2-0.5,0-0.4,0.4c0.2,0.2,0.3,0.3,0,0.5c0.3,0,1.5,0.1,1.6-0.2c0.2-0.3,1.2-0.3,0.7,0.1
					c-0.9,0.3,0.5,0.2,0.4,0.6c0,0.2-0.3,0.2-0.6,0.2c-0.4,0-0.1-0.3-0.4-0.3c-0.1,0-1.4,0.4-1.4,0.3c0,0.1,1,0.2,0.7,0.3
					c-0.2,0.1-0.3,0.1-0.5,0.3c0.3,0,0.4,0.6,0.2,0.6c-0.3,0.1-0.8,0-0.8,0.2c0.4,0,0.1,0.3,0.3,0.3c0.2,0,0.4,0,0.6-0.1
					c0-0.1,0.1-0.1,0.1-0.2c0.3,0,1.2,0.5,1.4,0.6c-0.3,0-0.7,0.1-0.9,0.2c0,0.3-0.4,0.2-0.4,0.4c0,0.2,1.6,0.2,1.5,0.8
					c-0.1-0.4-1.4-0.2-1.8-0.2c-0.5,0.1-0.1,0.3,0.2,0.3c-0.4,0-1.6,0.1-0.8,0.3c1.3,0.2-0.2,0.2,0.1,0.5c0.5,0.4,0.9,0.1,0.9-0.2
					c0-0.3,1,0,1.2,0.1c-0.3,0.1-0.6,0.3-0.9,0.4c-0.3,0.1-0.6,0.1-0.9,0.1c-0.2,0.1-0.4,0.3-0.6,0.3c0.3,0,0.6,0,0.9,0
					c0,0-0.7,0.2-0.8,0.2c-0.3,0.1,0.1,0.3,0.3,0.4c-0.2,0-0.4,0.8-0.5,0.7c0.6,0.2,1.3-0.2,1.8-0.1c0.2,0,0.2,0.3,0.1,0.3
					c0,0.1-0.3,0-0.4,0.1c-0.4,0.3,0.5,0.3,0.6,0.4c0.1,0,0.2,0.5,0.1,0.5c-0.1,0-0.5-0.4-0.9-0.4c-0.2,0-1.1,0.3-1.2,0.3
					c0.2,0.1,1.4,0.3,1.6,0.2c0.3,0.1,0,0.5-0.3,0.5c-0.3,0-1.4,0.1-1.2,0.5c0.1,0.2,0.3,0.3,0.2,0.5c-0.1,0.1-0.3,0-0.3,0
					c-0.2,0.2,0.8,0.5,1,0.7c0.1,0.1-0.4,0.5-0.5,0.6c0,0.1-0.5,0.4,0.1,0.4c0.4,0,0.9-0.1,1,0.3c-0.5,0-1.8-0.1-1.4,0.4
					c0,0.4,1.6,0,2,0.2c0.1,0.1-1.5,0.3-1.5,0.2c0.1,0.2,1.5,0.2,1.8,0.3C14,57.7,15,58.1,14.6,57.6z"/>
				<path class="st6" d="M11.4,21.4c-0.1-0.1-0.7-0.2-0.7,0C10.8,21.6,11.5,21.6,11.4,21.4z"/>
				<path class="st6" d="M14.3,18.8C14.5,19,14,18.5,14.3,18.8L14.3,18.8z"/>
				<path class="st6" d="M11.7,28.2c0,0.2,1,0.2,1.1,0.1c0,0-0.2-0.7,0.3-0.4c0.2,0.1,0,0.2,0.2,0.3c0.5,0.1,1-0.1,1.2-0.4
					c0.2-0.3,0.2-0.8-0.1-1.1c-0.1-0.2-1.2-0.2-0.7-0.5c0.2-0.1,0.5,0,0.7-0.1c0.2-0.1,0.1-0.4,0.1-0.5c-0.1-0.3-0.3-0.2-0.5-0.5
					c-0.1-0.2,0-0.3,0.1-0.5c0.1-0.2,0.6-1.3-0.1-1.3c-0.1,0-1,0-0.7-0.2c0.3-0.2,0.6-0.1,0.9-0.2c-0.2,0.1-0.7-0.3,0-0.5
					c0.3-0.1-0.2-0.2-0.2-0.3c0-0.3,0.4-0.4,0.5-0.6c0-0.1-0.5-0.1-0.3-0.3c0.2-0.2,0.5-0.4,0.4-0.7c0-0.2-0.4-0.3-0.4-0.3
					c0-0.2,0.2-0.5,0.2-0.7c0-0.3,0.3-0.4-0.1-0.6c-0.1-0.1-0.2-0.2-0.3-0.2c0,0,0.1,0.2,0,0.3c-0.2,0.1-0.4,0.2-0.7,0.3
					c-0.4,0.2-0.9,0.4-1.4,0.4c-0.3,0-0.6,0.1-0.7,0.3c-0.1,0.1,0.5,0.2,0.6,0.2c0.4,0.2-0.3,0.3-0.2,0.5c0,0.1,0.3,0.1,0.4,0.1
					c-0.2,0.1-0.6,0.2-0.6,0.4c0,0,1.4,0.4,1.5,0.5c0.6,0.5-0.5,0.1-0.5,0.3c0,0,0.5,0.2,0.5,0.3c0.1,0.1-0.2,0.2-0.3,0.2
					c-0.3,0.1-0.6,0.2-1,0.2c0.1,0.1,1,0.5,0.9,0.6c-0.4,0.3-1.1-0.4-1.3-0.3c-0.3,0.1,0.8,0.9,0,1c0.3,0,0.7,0,1,0
					c0,0.3-0.8,0.1-0.5,0.5c0.2,0.2,0.2,0.3,0.6,0.3c0.1,0.1,0,0.4,0.1,0.5c-0.1-0.5-1.1-0.4-0.6,0c0.1,0.1-0.3,0.2-0.3,0.3
					c-0.1,0.3,0.2,0.4,0.2,0.7c0,0.1-0.8,0.6-0.2,0.7c0.2,0,0.7-0.1,0.8-0.1c0.1,0.1-0.2,0.4,0.1,0.4c0.1,0,0.2-0.1,0.3-0.1
					c0.1,0.1-0.9,0.6-1,0.6c0-0.2,0.5-0.6-0.3-0.6c0,0-0.2,0.6-0.2,0.7c0,0.2,0.2,0.4-0.2,0.4c0,0.1,0,0.2,0.1,0.3
					C11.5,28.9,11.7,28.4,11.7,28.2z"/>
				<path class="st6" d="M11.6,8.8C11.8,8.8,11.6,8.6,11.6,8.8L11.6,8.8z"/>
				<path class="st6" d="M11.4,18.7c0-0.2,0.6-0.9,0.7-0.4c-0.4,0.3,1.2,0.5,0.7,0.6c-0.3,0.1-0.7,0.1-0.6,0.3c0,0.1,0,0.2,0.2,0.2
					c0.7,0,0.7-0.7,1.1-0.9c0.3-0.1,1,0,1-0.3c0-0.2,0-0.4-0.1-0.6c-0.1-0.2-0.4-0.5-0.2-0.7c0.1-0.1,0.2-0.2-0.1-0.3
					c0,0.1-0.1-0.4,0.1-0.3c-0.1,0-0.5-0.2-0.5-0.2c0.1-0.1,0.7,0.2,0.8,0c0.1-0.1-0.2-0.4-0.3-0.4c-0.2-0.2-0.8-0.3-0.6,0
					c-0.5,0,0-0.2-0.2-0.3c-0.1,0-0.8,0.1-0.9,0.1c0-0.3,1-0.2,1.2-0.3c0.2-0.1,0.4-0.3,0.6-0.4c0.1-0.1,0.4-1,0.4-1
					c0,0-0.7,0.1-0.9,0.1c0-0.3,0.6-0.2,0.7-0.4c0.1-0.3-0.2-0.4-0.5-0.6c-0.3-0.2-0.2-0.3,0.2-0.2c0.3,0,0.2-0.4,0.2-0.5
					c0-0.1,0-0.5-0.2-0.6c-0.1,0-0.7-0.1-0.4-0.2c0.7-0.3,0.6-0.5-0.2-0.4c0-0.3,0.5-0.1,0.7-0.2c0-0.2,0.3-0.4,0.3-0.6
					c-0.1-0.1-1.2,0.2-0.8-0.3c0.2-0.3,0.6-0.1,0.6-0.5c0-0.3-0.5-0.2-0.8-0.4c-0.1,0-0.7-0.3-0.8-0.2C12.7,9,12.5,9.5,12,9.5
					c-0.4-0.1,0-0.7-0.5-0.7c0-0.2-0.5-0.1-0.9-0.1c0.2,0,0.4,0,0.5,0.1c-0.3-0.2-0.7,0.4-0.6,0.5c0.1,0.3,0.4,0.6,0.8,0.8
					c0.3,0.2,1,0.2,0.6,0.5c-0.5,0.2-0.3,0.4,0.2,0.5c-0.3,0.1-0.6,0.3-0.5,0.4c0-0.2-0.5-0.6-0.5-0.2c0,0.2-0.2,0.4-0.2,0.6
					c0,0.2,1.6,0.1,1.2,0.5c-0.4,0.3-1.7-0.1-1.3,0.6c0.1,0.2,0.6,0.1,0.9,0.1c0.3,0,0.4,0.2,0.8,0.1c0,0.2-0.7,0.2-0.9,0.2
					c-0.3-0.1-0.6-0.1-0.9,0c-0.2,0.1,0.1,0.2,0.2,0.2c0.4,0,1-0.3,1.2,0.1c0.1,0.2,0,0.3-0.2,0.4c0-0.2-0.8-0.4-0.8-0.2
					c0,0,0.3,0.2,0.1,0.3c-0.3,0.1-0.2,0.1-0.1,0.3c0,0.2-0.3,0.1-0.3,0.3c0,0.1,0.5,1.5,0.7,1.3c-0.1,0.1-0.3,0-0.4,0.1
					c-0.1,0.1-0.1,0.3-0.1,0.4c0,0.3-0.2,0.5-0.2,0.8c0,0.1,0.8,0.2,0.5,0.3c-0.2,0.1-0.6,0.4-0.2,0.4c-0.4,0.1-0.1,0.8-0.2,1
					c-0.3,0.3,0.9,0.5,1.2,0.3C11.8,19.6,11.4,18.8,11.4,18.7z"/>
				<path class="st6" d="M10.5,8.7c0,0,0.1,0,0.2,0C10.7,8.7,10.6,8.7,10.5,8.7z"/>
				<path class="st6" d="M11.7,5.6c0-0.1,0-0.1,0-0.2c-0.2,0.1-0.3,0.2-0.2,0.3C11.7,5.7,11.8,5.7,11.7,5.6z"/>
				<path class="st6" d="M11.4,4.2c0-0.1,0-0.1,0-0.2C10.3,4.1,11.4,4.6,11.4,4.2z"/>
				<path class="st6" d="M14.4,8.5c0.1-0.3,0.1-0.5,0-0.7c0-0.1-0.4-0.4-0.1-0.4c-0.2-0.1-0.4-0.5-0.2-0.5c0.1,0,0.3,0.2,0.2,0.3
					c0.2-0.3,0.1-0.8,0.1-1.1c0-0.4,0.1-0.9-0.5-1.1c-0.1,0,0.3-0.2,0.4-0.2c-0.6-0.3,0.2-0.9,0.1-1.2c-0.1-0.2-1.4-0.3-2-0.4
					c0,0,0,0-0.2,0C12,3,11.6,3,11.2,3c0,0.2,0.5,0.2,0.6,0.3c0.3,0.3-0.3,0.2-0.5,0.3c-0.2,0.1,0.6,0.4,0.6,0.5
					c0.2,0.2,0,0.3,0.1,0.5c0,0,1.2,0.1,0.8,0.3C12.6,5,11.7,5,11.7,4.8c-0.8-0.2-1.2-0.1-1,0.5c0,0.1,0.2,1.1,0.4,1.1
					c0.4,0,0.2-0.5,0.2-0.7c0.1-0.4,0.3-0.4,0.7-0.2c0.2,0.1,0.5-0.5,0.8-0.4c0.1,0.1-0.3,0.4-0.3,0.4c-0.1,0.2,0.1,0.3,0.1,0.4
					c0,0.1-0.5,0-0.5,0.2c0,0.2,0.2,0.2,0.1,0.3C12,6.6,11,7,11.1,7.1c0,0,0.5,0,0.6,0c0.3,0.1,0.3,0.2,0.5,0.3
					c0.2,0.1,0.8,0.2,1,0.3C13.3,7.9,12.8,8,12.8,8c0,0,0.7-0.1,0.9-0.1c0.2,0,0.4,0.1,0.6,0.1c-0.4,0-0.9,0-1.2,0.2
					c0,0-0.5,0.5-0.6,0.2c-0.1-0.1,0.2-0.2,0-0.4c-0.1-0.1-0.4-0.3-0.6-0.3c-0.1,0-1.2-0.2-1.2-0.1c0,0.1,1,0.2,1.1,0.2
					c-0.2,0.1-1,0.4-1,0.6c0,0.2,0.9,0.1,1.1,0.1c0-0.1,0.6,0.1,0.7,0.1C12.9,8.7,14.3,8.9,14.4,8.5z"/>
				<path class="st6" d="M12.2,3.1c0,0,0.1,0,0.2,0C12.4,3.1,12,3,12.2,3.1z"/>
				<path class="st6" d="M13.2,3.2c0.2-0.4,0.3-0.2,0.9-0.3c0.4,0,0.2-0.4,0.2-0.5c-0.1-0.5-0.1-1.4-1.1-1.2c0-0.3,0.5,0,0.7-0.2
					c0-0.3-0.9-0.3-1.3-0.2c-0.5,0.1-0.8,0.5,0,0.4c-0.2,0-2,0.5-1.7,0.7c0.7,0,2.1-0.1,2.2,0.5c-0.2,0-0.4,0-0.6,0c0,0,0,0,0,0
					c0,0,0,0,0,0c-0.4-0.1-0.9-0.1-1.3-0.1c-0.7,0.1,0.8,0.3,1.2,0.2c-0.2,0.2-0.8,0.5-0.4,0.5c0.3,0,0.6,0,0.9,0.2
					C12.8,3,13.1,3.3,13.2,3.2z"/>
				<path class="st6" d="M10.9,0c-0.4,0.2-0.1,0.3,0.3,0.3c0-0.1,0-0.1,0-0.2C11.1,0.1,11,0,10.9,0z"/>
			</g>
		</g>
	</g>
	<g>
		<g>
			<g>
				<path class="st6" d="M22.9,175.6c-0.4,0-0.3,0.2,0.1,0.2l0-0.1L22.9,175.6z"/>
				<path class="st6" d="M22.8,175.5C22.9,175.5,22.9,175.5,22.8,175.5C22.9,175.5,22.6,175.5,22.8,175.5z"/>
				<path class="st6" d="M22.9,175.5C22.9,175.5,22.9,175.5,22.9,175.5c-0.5-0.2-0.8,0.2,0.1,0C23,175.6,23,175.5,22.9,175.5z"/>
				<path class="st6" d="M16.6,165.5C16.2,166.7,16.9,165.5,16.6,165.5L16.6,165.5z"/>
				<path class="st6" d="M13.2,165.6C13.2,165.6,13.2,165.6,13.2,165.6c-0.1,0.2,0,0.3,0,0.3C13.3,165.9,13.3,165.6,13.2,165.6z"/>
				<path class="st6" d="M22,170.7l0.2-0.1C22.1,170.6,22.1,170.7,22,170.7z"/>
				<path class="st6" d="M25.8,175.8c0.3-0.1,0.1-0.2-0.1-0.2c-0.2-0.1,0.1,0,0.1-0.1c0,0-1.2,0-0.9-0.1c0.3-0.1,0.8-0.1,1.2-0.1
					c0.3,0,0.8-0.2,0.4-0.3c-0.4,0-0.5,0.2-0.9,0.2c0-0.2,0.7-0.2,0.7-0.3c0-0.1-0.3-0.1-0.5,0c-0.1-0.2,0.6-0.2,0.6-0.3
					c0-0.1,0-0.1,0.1-0.2c0.3-0.2-0.2-0.2-0.5-0.1c-0.4,0.1-0.5,0-0.5-0.1c0.3,0,0.6-0.1,0.9-0.1c0.4-0.1-0.2-0.1-0.3-0.1
					c-0.1-0.1-0.1-0.2-0.1-0.3c0,0-0.4-0.1-0.4-0.1c0-0.1,1.5-0.6,0.4-0.5c-0.3,0.1-0.1-0.1-0.1-0.1c0.2-0.2,0.1-0.2-0.1-0.3
					c-0.4-0.2,0-0.2,0.2-0.5c0.3-0.3-0.6,0-1,0.1c0.2-0.1,0.2-0.2,0.5-0.3c0.1-0.1,0.2-0.1,0.3-0.2c0.2-0.2-0.1-0.4-0.1-0.6
					c0-0.2,0.1-0.5-0.1-0.6c-0.1-0.1-0.7,0.3-0.9,0.4c0.2-0.1,0.1-0.1,0.2-0.2c0.1-0.1,0.2-0.1,0.3-0.2c0.1-0.1,0-0.2,0-0.2
					c0.1,0.1-0.2,0-0.2,0c-0.1-0.1,0-0.3-0.1-0.4c-0.1-0.1-0.8,0.3-0.7,0c0.1-0.2,0.6-0.8,0.3-0.9c-0.1,0-0.9,0.3-0.2-0.2
					c-0.1,0-0.2,0.1-0.3,0.1c1-0.7,0.2-0.9,0-1.1c-0.1-0.1-0.4-0.5-0.7-0.3c-0.1,0,0-0.1,0-0.2c0-0.1-0.2-0.2-0.3-0.3
					c-0.2-0.1-0.2-0.4-0.3-0.5c0,0-0.2-0.2-0.4,0.1c-0.1,0.2-0.3,0.2-0.3,0.2c-0.1,0-0.1-0.2,0.1-0.4c0-0.1-0.2-0.1-0.2-0.2
					c0,0,0.2-0.5,0-0.2c-0.2,0.2-0.4,0.3-0.4,0.3c0.1-0.1,0.4-0.5,0.4-0.5c0.1-0.2-0.6,0.1-0.6,0.1c-0.1,0-0.1-0.2-0.1-0.3
					c0-0.1,0-0.6-0.3-0.2c-0.2,0.2-0.3,0.4-0.5,0.6c0.1-0.2,0.2-0.6,0.3-0.8c0-0.3-0.5,0.6-0.5,0.7c-0.2-0.1,0.5-0.9,0.5-1.2
					c0.1-0.3-0.3,0-0.4,0c-0.1,0-0.2-0.4-0.4-0.1l-0.1,0.2c-0.1,0-0.1,0.1-0.2,0.2c0,0.1-0.3,0.5-0.3,0.5c-0.1,0,0.5-1.2,0.5-1.4
					c0-0.2-0.4-0.2-0.6-0.2c-0.2,0-0.5-0.6-0.8,0.1c0.1-0.5-0.4-0.3-0.5-0.4c0,0-0.1-0.4-0.2-0.2c-0.2,0.2-0.1,0.6-0.2,0.8
					c-0.3,0.6-0.1-1-0.3-0.9c0,0-0.4,1.5-0.4,1.3c0-0.2,0.5-1.9,0.1-1.4c-0.2,0.2-0.4-0.1-0.6,0.3c-0.1,0.1-0.4,0.4-0.5,0.2
					c0.1-0.5-0.2-0.9-0.2-0.4c0.2-1.3-0.5-0.7-0.6,0.4c0-0.3,0-0.6,0-0.9c0-0.4-0.2-0.3-0.3-0.2c-0.1,0-0.5-0.2-0.4,0.3
					c-0.1-0.3-0.2-0.3-0.4-0.3c-0.2,0-0.2,0.2-0.2,0.9c-0.1,0-0.1-0.7-0.2-0.9c0,0.2-0.1,0.5-0.1,0.5c0-0.9-0.3-0.7-0.5-0.6
					c-0.1,0-0.2,1.1-0.2,1.4c0,0.3,0.1,0.7,0,1c0,0.3-0.1-0.1-0.1-0.2c-0.1-0.4-0.1-0.9-0.1-1.3c0,0.1,0-0.8,0-0.7
					c0,0.1-0.1,0.2-0.2,0.1c0-0.1,0-0.2,0-0.2c0,0-0.2,0-0.2,0.2c0,0.1,0.3,1.6,0.2,1.6c-0.1-0.2-0.5-1.3-0.5-0.4
					c0.2,0.3,0.1,0.9,0.3,1.2c0.1,0.3,0.2-0.7,0.3-0.3c0,0.3,0,0.6,0.1,0.9c0,0.3,0.2,0,0.2-0.1c0.1,0,0.1-0.9,0.1-1.3
					c0-0.3,0-0.6,0.1-0.7c0,0,0.2-0.1,0.2,0.1c0,0.2-0.2,0.5-0.2,0.6c-0.1,0.3,0,0.5,0,0.9c0-0.6,0.1-0.4,0.2-0.7
					c0.1,0,0.1,0.2,0.2,0.3c0.1,0.1,0.2,0,0.2,0c0.1,0,0,0.3,0.1,0.4c0,0.3,0.2,0.3,0.2,0.3c0,0,0.3,0.4,0.3,0
					c0-0.6,0.1-0.8,0.2-0.7c0.1,0.1,0,0.8,0.2,0.4c0.2-0.5,0.2,0.4,0.2,0.1c0-0.1,0.1-0.5,0.1-0.9c0-0.4,0.1-0.7,0.1-0.7
					c0.1,0.1,0,0.8,0,1c0,0.3,0.1,0.3,0.1,0.7c-0.1,0,0,0.2,0,0.2c0.1,0,0.1-0.2,0.1-0.2c0-0.3,0.2-0.3,0.2-0.3c0,0,0-0.8,0.1-0.6
					c0.2,0.2-0.1,1-0.1,1.2c0.1,0.3,0.3-0.2,0.4-0.6c0.1-0.4,0.1-0.3,0.2-0.3c0,0,0.1,0.2,0.2,0c0.1-0.3,0.1-0.6,0.2-0.3
					c0,0.5-0.2,0.4-0.3,0.9c0.2-0.1,0,0.5,0.2,0.1c0.1-0.2,0.3,0.1,0.4-0.5c-0.1,0.3,0,0.4,0.1,0.2c0.1-0.2,0.2-0.5,0.3-0.8
					c0.2-0.5,0,0.4,0,0.5c-0.1,0.2-0.3,1-0.1,0.9c0.1-0.1,0.4-0.4,0.2,0.2c0.2-0.4,0.6-1.7,0.7-1.1c0,0.3-0.5,1.3-0.1,1
					c0.1-0.1,0.4-0.6,0.4-0.4c0,0.2-0.2,0.5-0.2,0.7c0,0.2,0.2-0.1,0.2-0.1c0.1,0,0.2-0.4,0.3-0.6c0.2-0.2,0.2,0,0.4-0.3
					c0-0.1,0.5-0.6,0.2-0.1c0,0.3,0,0.5,0.1,0.5c0.1,0,0.3-0.2,0.4-0.2c0.2-0.1-0.6,1-0.7,1.2c0,0.2,0.4-0.5,0.4-0.5
					c0.1-0.1,0.3-0.3,0.2-0.1c0.1-0.1,0.4-0.8,0.5-0.8c0.1,0.1-0.7,1.2-0.8,1.5c0.1,0,0.4-0.6,0.6-0.5c-0.5,0.7,0.1,0.2,0,0.4
					c-0.1,0.2-0.3,0.4-0.2,0.5c0,0.1,0.1,0,0.2-0.1c0.2,0,0.1,0.2,0.2,0.2l0.3,0.1c0.1-0.2,0.4-0.6,0.6-0.7c0.2-0.1-0.2,0.4-0.2,0.6
					c-0.2,0.3-0.2,0.5-0.1,0.4c0.2-0.1,0.3-0.5,0.4-0.6c0.1-0.2,0.6-0.2,0.3,0.2c-0.7,0.7,0.7-0.4,0.8-0.4c-0.1,0.1-0.6,0.6-0.5,0.6
					c0,0,0.5,0,0.1,0.2c0,0.1,0.5-0.1,0.2,0.1c-0.1,0.1-0.4,0.5-0.2,0.4c0.3-0.2,0.6-0.8,0.6-1c0,0,0.3-0.2,0.4-0.2
					c0.1,0-0.2,0.4-0.3,0.5l-0.6,0.7c0.2-0.1,0.3-0.2,0.5-0.2c0.5-0.4,0.2-0.1,0,0.2c-0.5,0.6,0.8,0,0.1,0.7
					c-0.1,0.1,0.7-0.4,0.5-0.1c0,0.1-0.8,0.7-0.4,0.5c0.2-0.1,0.6-0.5,0.7-0.4c0,0-0.2,0.3-0.2,0.4c0,0,0.2-0.3-0.1-0.1
					c-0.2,0.2-0.2,0.3-0.2,0.4c0,0,0.1,0.2,0.3,0c0.2-0.2,0.6-0.5,0.5-0.6c0.1-0.1,0.4-0.3,0.5-0.3c0.2-0.1-0.1,0.2-0.2,0.3
					c-0.2,0.3-0.5,0.6-0.9,0.8c0.2-0.1,0.4-0.2,0.4-0.2c0,0-0.3,0.3-0.4,0.4c-0.2,0.2,0.1,0.2,0.3,0.2c0.2,0,0.4,0,0.7-0.1
					c0.1,0,0.6-0.2,0.4-0.1c-0.1,0.1-1,0.5-1.1,0.5c0.1,0,0.7-0.2,0.7-0.2c0,0-0.4,0.3-0.4,0.3c0,0.1,0,0.2,0.3,0.1
					c0.1,0,0.4,0.2,0.6,0.1c0.3,0.1-0.2,0.3-0.5,0.5c-0.2,0.2,0.6-0.1,0.5-0.2c0.1,0.1,0.6,0.1,1.2-0.1c-0.3,0.1-0.6,0.2-1,0.3
					c-0.2,0.1-0.3,0.2-0.5,0.3c0.6-0.2,0.7-0.1,0.7,0.1c0,0.2-0.4,0.4-0.7,0.6c0.4-0.1,0.4,0.3,0.5,0.3c0.1,0.1,0.6-0.1,0.6,0
					c0,0.1-1.3,0.9-0.3,0.6c0,0.1-0.7,0.4-0.3,0.3c0.4,0,0.6,0,1,0c-0.4,0-0.8,0.1-1.2,0.1c0.4,0,0.9,0.1,1.3,0.1
					c-0.1,0-1.1,0-1.1,0.1c0.2,0.1,1.1,0,1.6-0.1c0,0.1-1,0.2-1.2,0.2c-0.5,0.1,0,0.1-0.2,0.2c-0.1,0-0.4,0.1-0.3,0.1
					c0.1,0.1,0.4,0.1,0.4,0.1c-0.1,0.1-0.1,0.1-0.2,0.2c-0.1,0.1-0.8,0.3-0.6,0.3c0,0,0.7,0,0.8,0c0.6,0,0.7,0,0.6,0.2
					c-0.1,0.1,0.3,0.1,0.4,0.1C25.1,176,25.6,175.9,25.8,175.8z"/>
				<path class="st6" d="M23.4,172.4c-0.1,0-0.1,0.1-0.2,0.1C23.3,172.4,23.4,172.4,23.4,172.4z"/>
				<path class="st6" d="M10.9,165.4c-0.1-0.1-0.2-0.1-0.1,0.3c0.1,0.3,0.3,0.2,0.3,0.1L10.9,165.4
					C10.9,165.4,10.9,165.4,10.9,165.4z"/>
				<path class="st6" d="M11.1,163c-0.2-0.4-0.1,0.3-0.3,0c-0.3-0.2-0.3,0.5-0.5,0.7c-0.1-0.5-0.2-0.5-0.3-0.3c-0.1,0.2,0,0.5,0,0.8
					c0-0.5-0.8-1.5-0.3-0.5c0.2,0.3,0,0.3-0.2,0.1c-0.2-0.3-0.3-0.6-0.4-0.5c-0.3-0.2,0.3,1,0.4,1.1c0.1,0.2,0.4,1.6,0.6,1.7
					c0.1,0.1-0.1-0.5,0.1-0.2c0.1,0.1,0.3,0.6,0.3,0.3c-0.1-0.3-0.3-0.7-0.3-0.9c0-0.2,0-0.3-0.1-0.4c0.1,0.4,0.3,0.9,0.3,0.5
					c0-0.2-0.2-1-0.2-1.2l0.4,1.4c0.1-0.1-0.1-0.6-0.1-0.7c0.1-0.2,0.2,0,0.3,0c0.1,0,0.3-0.2,0.4,0.2c0,0.1,0.2,0.5,0.2,0.5
					c0,0-0.2-0.7-0.2-0.8c0.1-0.1,0.2,0.5,0.3,0.8c-0.1-0.3,0-0.5,0.1-0.6c0.1-0.1,0.1-0.2,0-0.7C11.5,163.7,11.3,163.3,11.1,163z"
					/>
				<path class="st6" d="M9.1,163.3C9.2,163.2,8.9,163.1,9.1,163.3L9.1,163.3z"/>
				<path class="st6" d="M8.9,163.6c-0.3-0.4,0.1,0.7,0.2,1c0-0.1-0.6-1.4-0.6-1.1c0,0.2,0.3,0.7,0.2,0.8c-0.1,0.1-0.2,0.2-0.3,0.1
					c0,0-0.1-0.2-0.2-0.4c-0.2-0.4-0.3-0.2-0.2,0.2c-0.2-0.3,0.1,0.6-0.2,0.3c-0.2-0.2-0.3-0.6-0.3-0.7c-0.2,0.1,0.1,0.8,0.3,1.2
					c-0.2-0.3-0.4-0.6-0.6-1c0.1,0.3,0.5,1.4,0.4,1.5c-0.2-0.3-0.7-1.1-0.7-0.8c0,0.2,0.6,0.5,0.6,0.9c0,0.4-0.5-0.8-0.6-0.7
					c0,0.1,0.2,0.6,0,0.3c0,0-0.2-0.3-0.2-0.3c0,0.1,0.1,0.3,0.2,0.5c-0.3-0.5-0.5-0.6-0.7-0.8c-0.1-0.1,0,0.1,0.1,0.3
					c-0.2-0.2-0.4-0.4-0.5-0.3c-0.1,0,0,0.3,0.1,0.5c0,0.2,0,0.4,0,0.4c-0.1,0-0.4-0.4-0.4-0.5c0,0.1,0.1,0.3,0.1,0.6
					c0.1,0.1,0.1,0.1,0.1,0.2c0.4,0.6,0.8,0.9,1.3,1.5c0.5,0.6,0.3,0.2,0.5,0.1c0.1-0.1,0.5,0.1,0.3-0.2c-0.2-0.5-0.4-0.6-0.6-0.8
					c0,0-0.4-1.1-0.5-1.2c0.2,0.2,0.3,0.5,0.4,0.7c0.1,0.1,0.3,0.3,0.3,0.3c0.1,0.2,0.4,0.9,0.5,0.8c0.1-0.1,0.8,0.3,0.3-0.6
					c0.1,0.1,0.2,0,0.3-0.1c0.1-0.1,0.3,0.3,0.4,0.3c0.1,0,0.2,0,0.2-0.3c0-0.5,0.2,0.2,0.4,0.1c-0.2-0.5-0.3-0.4-0.5-1
					c-0.1-0.2-0.2-0.9,0-0.6c0.3,0.4,0.4,1.1,0.5,1.5c0.1,0,0.4,0,0.3-0.4c-0.1-0.3-0.5-1.2-0.5-1.4C9.4,164.4,9.2,164,8.9,163.6z"
					/>
				<path class="st6" d="M6.6,167.4c0,0.2,0.3,0.4,0.3,0.3C7,167.7,6.7,167.3,6.6,167.4z"/>
				<path class="st6" d="M5.1,166.3L5.1,166.3C5.2,166.7,5.7,166.9,5.1,166.3z"/>
				<path class="st6" d="M5.8,167.3c-0.4-0.4-0.9-0.8-1.4-1.3c0,0.1,0.1,0.6,0.3,0.9c0.3,0.4,0.2-0.2,0.2-0.1
					c0.2,0.2,0.2,0.5-0.1,0.3c-0.2-0.2-0.5-0.6-0.8-0.6c-0.8-0.2,0.6,0.7,0.6,0.8c0,0.2-0.9-0.6-1.1-0.6c-0.3,0.1-0.3,0.1,0.2,0.5
					c-0.1,0.1-0.4-0.2-0.6-0.2c-0.1,0-0.3,0.2,0.1,0.5c-0.7-0.6-0.3,0.5-0.7,0.5c0,0,0,0-0.1,0c0.2,0.2,0.9,0.6,1.4,0.9
					c0.3,0.3,0.3,0.1,0.5,0.2c0.1,0.1,0.7,0.5,0.5,0.2c-0.1-0.2-0.3-0.2-0.3-0.3c0,0,0-0.1,0.1-0.1c0-0.1-0.5-0.5-0.6-0.7
					c-0.4-0.6,0.9,0.8,0.9,0.8c0.1,0.1-0.4-0.6-0.1-0.4c0.3,0.2,0.7,0.5,0.7,0.3c0,0-0.2-0.5-0.4-0.6c-0.1,0,0,0.3,0,0.2
					c-0.3-0.3-0.1-0.6,0.1-0.5c0.1,0,0.2,0.1,0.2,0.2c0.1,0.2,0.1,0.2,0.4,0.5c-0.1-0.2-0.4-0.5-0.6-0.8c0.1,0.1,0.8,0.9,0.8,0.7
					c-0.1-0.2-0.4-0.5-0.4-0.6c0-0.1,0.2,0.1,0.3,0.1c0.3,0.1-0.8-1,0.2-0.1c0.4,0.3,0.6,0.4,0.3-0.1c-0.2-0.5,0.6,0.5,0.3,0
					c-0.3-0.5-0.8-1.2-1.2-1.7C4.8,165.1,5.6,167,5.8,167.3z"/>
				<path class="st6" d="M2.6,168.1C2.7,168.1,2.7,168.1,2.6,168.1C2.7,168.1,2.5,168,2.6,168.1z"/>
				<path class="st6" d="M2.8,172.5c0,0.1,0.5,0.4,0.7,0.3C3.5,172.7,2.8,172.4,2.8,172.5z"/>
				<path class="st6" d="M3,173.7c0.2-0.1-0.2-0.3-0.2-0.1C2.8,173.7,2.9,173.7,3,173.7z"/>
				<path class="st6" d="M4.2,169.2c-0.1-0.1-0.3-0.3-0.4-0.3c-0.3-0.1,0.3,0.4-0.4-0.1c-0.2-0.2-0.9-0.4-0.6-0.1
					c0.2,0.2,0.5,0.4,0.7,0.6c-0.2-0.2-0.8-0.6-0.9-0.5c-0.1,0.1,0.2,0.5-0.3,0.2c0.3,0.2,0.7,0.4,0.6,0.6c-0.1-0.1-0.9-0.6-0.9-0.5
					c0,0,0.5,0.5,0.6,0.6c0.4,0.5-0.6-0.3-0.7-0.2c0,0,0.2,0.4,0.2,0.4c0,0.1,0.4,0.3,0.6,0.4c0,0.1-0.7-0.3-0.8-0.4
					c-0.1,0-0.2,0.1-0.3,0.1c-0.3-0.1-0.3-0.1-0.1,0.2c0.1,0.1,0,0.2-0.1,0.2c-0.1,0-0.7-0.1-0.4,0c0.1,0.1,0.6,0.3,0.7,0.3
					c0,0.1-0.3,0-0.5-0.1c-0.7-0.3,0.1,0.3,0.3,0.3c-0.1,0-0.6-0.1-0.6,0c0,0.2,0.3,0.1,0.5,0.2c0.2,0.1-0.7,0.1-0.7,0.1
					c-0.1,0,0.3,0.2,0.3,0.3c0.2,0.2,0.2,0.4,0.6,0.7c0.2,0.1,0.5,0.3,0.2,0.3c-0.2,0-0.9-0.1-0.9,0c0,0.2-0.3,0-0.6,0.1
					c-0.6,0.1,0.9,0.6-0.2,0.6c0.5,0.1,0.9,0.2,0.7,0.4c-0.2,0.1-0.9,0.1-0.9,0.2c0,0.1,1.3,0,1.5,0c0.7,0.1,0.9,0.3,1.5,0.4
					c0.5,0.1,0.3-0.2,0.3-0.3c0-0.2-0.8-0.1-1.1-0.2c0.1,0.1,0.4,0.1,0.6,0.2c-0.3-0.1-0.6-0.1-0.8-0.2c-0.3-0.1,0.1-0.1,0.4-0.1
					c0.4,0,1,0.1,0.2-0.1c-0.2-0.1-1-0.2-0.8-0.4c0.1-0.1,1,0.2,1.3,0.3c0.4,0.1,0.2-0.2,0.2-0.2c0-0.2,0.4-0.3-0.7-0.6
					c0.4,0-0.2-0.2-0.1-0.3c0,0,0.5,0.1,0.5,0.1c0-0.1-1.3-0.5-0.7-0.5c0.1,0,0.7,0,0.9,0.2c0.2,0.1-0.3,0-0.3,0.1
					c-0.1,0,0.1,0.1,0.3,0.2c0.3,0.1,0.2,0.1,0.2,0.2c0.4,0.1,0.7,0,0.3-0.2c0-0.1,0.4,0,0.3-0.2c0-0.1-0.2-0.4-0.7-0.5
					c-0.2-0.1-0.5-0.1-0.6-0.2c-0.1-0.1-0.7-0.6-0.5-0.5c0.3,0.2,0.7,0.3,1,0.4c0.4,0.1,0.6,0.2,0.6,0.1c0.1-0.1,0.5,0.1,0.6,0
					c-0.1,0.1-3.1-1.6-0.5-0.3c0.5,0.2,0.6,0.2,0.4,0c-0.1-0.1-0.3-0.2-0.5-0.4c-0.2-0.2-0.5-0.3-0.5-0.3c0,0,1.3,0.7,1.3,0.6
					c-0.3-0.2-1.4-0.7-1.4-0.9c0-0.2,1,0.5,1.2,0.6c0.1,0,0.1-0.1,0.1-0.1c0.1-0.1,0.2,0.1,0.3,0.1c0.1,0-0.5-0.8-0.5-0.8
					c0.1,0.1,0.4,0.3,0.6,0.4c0.1,0,0-0.1,0-0.2c-0.1-0.1-0.7-0.7-0.6-0.7c0.1,0,0.8,0.5,1,0.5c0.3,0.1,0-0.2-0.3-0.4
					C4.3,169.2,4.4,169.4,4.2,169.2z"/>
				<path class="st6" d="M1.4,173.9c-0.4-0.1-0.9,0-0.7,0.1c0,0,0,0,0.1,0l1.1,0.2c-0.2,0-0.4-0.1-0.5-0.1
					C1.5,174.2,2.3,174.1,1.4,173.9z"/>
				<path class="st6" d="M2.4,174.8c0.1,0.1,0.7,0.2,0.7,0.1C3.1,174.8,2.4,174.7,2.4,174.8z"/>
				<path class="st6" d="M-0.6,174.1c0,0,0.4,0.2,0.4,0.2c0,0.1-0.2,0.2-0.2,0.3c0,0.1,0.2,0.2,0.4,0.3c0.1,0,0.5,0.1,0.5,0.1
					c0,0-0.7,0.1-0.5,0.1c0.2,0.1,0.9,0.1,1.2,0.2l1.7,0.1c0-0.1-1.2-0.2-1.1-0.3c0.1-0.1,1.3,0.2,1.3,0c-1,0-0.4-0.2-0.8-0.3
					c-0.4-0.1-1.2,0-1.1-0.3c0.1-0.2,0.6,0.1,0.8,0.1c0.3,0.1,1,0,1.3,0c0-0.1-1.4-0.3-1.6-0.4C1,174.2,0,174.1,0,173.9
					C0,174.1-0.1,174.1-0.6,174.1z"/>
				<path class="st6" d="M-0.6,175.4c0,0.1,0,0.3,0.3,0.4c0.3,0.1,0.8,0.1,1,0.1c0.2,0-1.2,0.2-1.2,0.3c-0.1,0.1,0,0.2,0.1,0.3
					c0.1,0.1,0.1,0.3,0.1,0.4c0,0.2-0.4,0.4,0.3,0.5c0.1,0,1.9-0.1,1.5,0.1c0,0-0.6,0-0.7,0c-0.2,0-0.4,0.1-0.5,0.2
					c-0.4,0.2-0.4,0.5-0.3,0.7c0,0.1,0,0.3,0.3,0.3c0.4,0,0.2-0.2,0.2-0.2c-0.1,0,0.7-0.1,0.8-0.1c0.4-0.1,0.9-0.1,1.3-0.2
					c0.4-0.1,0-0.1,0.2-0.2c0.4-0.1,0.5-0.1,0.4-0.2c-0.2-0.1-0.3-0.2-1-0.1c-0.2,0-0.7,0.1-0.5,0.2c0.3,0-0.5,0.1-0.5,0.1
					c-0.1,0-0.8,0-0.7-0.1c0.1,0,0.5,0,0.6,0c0.3,0,0.6-0.1,0.9-0.2c0,0,0.2-0.1,0.3-0.2c0.2-0.1,0.4-0.2,0.5-0.1c0,0-0.2,0.1,0,0.1
					c0.2,0,0.5-0.5-0.4-0.2c-0.3,0-0.2,0-0.3-0.1c-0.2-0.1-0.1,0-0.4,0c0.1,0,0.8-0.3,0.9-0.3c0.3-0.1,0.2-0.3,0.1-0.4
					c0.4-0.3-0.9,0-1.4,0c-0.1,0-0.1-0.1-0.1-0.1c0,0,0.4,0,0.5,0c0.4,0,0.9-0.1,0.6-0.2c-0.3-0.1-0.8-0.2-1.2-0.3
					c0-0.2-0.5-0.1-0.6-0.3c0-0.1,1.1,0.2,1.2,0.2c0.3,0,0.9,0.1,1.1,0c0.3-0.1-0.3-0.2-0.7-0.2c-0.2,0-0.4,0.1-0.6,0.1
					c-0.2,0-0.2-0.1-0.1-0.1C1,175.2-0.5,175.2-0.6,175.4z"/>
				<path class="st6" d="M0.6,179.4C0.1,179.4,1.4,179.3,0.6,179.4L0.6,179.4z"/>
				<path class="st6" d="M0.8,179.1c0,0.1-0.5,0.1-0.6,0.2c-0.2,0.1,0.2,0.2,0.4,0.1c0.3,0,2-0.3,1.6-0.4c0.3-0.1,0.5-0.1,0.5,0
					c0.5-0.1-0.2-0.3-0.3-0.3c-0.4-0.1-1-0.1-1.7,0C-0.7,179,0.9,178.8,0.8,179.1z"/>
				<path class="st6" d="M1,181.9C0.8,182,0.8,182,0.9,182l0,0.1C1,182,1.1,181.9,1,181.9z"/>
				<path class="st6" d="M3.3,183.2C3.3,183.2,3.4,183.1,3.3,183.2c0.2-0.1,0.3-0.1,0.3-0.2c0.3-0.1,0.5-0.2,0.4-0.3
					c-0.1-0.1-0.8,0.5-0.9,0.6C3.1,183.3,3.2,183.2,3.3,183.2z"/>
				<path class="st6" d="M3.3,183.2c-0.1,0.1,0.3-0.2,0.3-0.2L3.3,183.2C3.4,183.1,3.4,183.1,3.3,183.2z"/>
				<path class="st6" d="M4.6,182.3c0.1,0.1-0.1,0.2,0,0.3C5.1,182.3,4.6,182.3,4.6,182.3z"/>
				<path class="st6" d="M2.5,179.1c0.1,0.1-0.8,0.4-0.6,0.5c0.1,0.1,0.4,0,0.5,0c0,0,0.3,0.1,0.1,0.1c0.2,0,0.4-0.1,0.7-0.2
					c-0.5,0.2-0.8,0.3-1.2,0.5c0.3,0,1.2-0.2,1.1,0c-0.1,0.2-0.8,0.5-1.1,0.4c-0.1,0-0.3,0-0.2,0.1c-0.1,0.1,0.1,0.1,0.2,0.1
					c0.2,0,0.5,0,0.8-0.2c0.4-0.2,0.8-0.3,0.8-0.1c0,0.1-0.8,0.4-0.9,0.6c-0.1,0.1,0.2,0.1,0.4,0c0.2-0.1,0.4-0.3,0.6-0.4
					c0.5-0.2,0.5-0.1,0,0.2c0.2-0.1,0.4-0.2,0.4-0.1c-0.1,0.1-0.5,0.3-0.6,0.4c-0.6,0.4-1.3,0.7-1.9,1c0.5-0.2,1.1-0.3,1.4-0.5
					c0.2-0.1,0.3-0.3,0.6-0.4c0.3-0.1-0.1,0.2-0.1,0.2c-0.3,0.2-1.1,0.7-0.9,0.8c0.1,0,0.9-0.7,1-0.8c0.6-0.6,0.5-0.1,0.5-0.1
					c0.1,0.1,0.5,0,0.3,0.2c-0.1,0.1-0.5,0.4-0.6,0.5c-0.2,0.1-1,0.7-1,0.8c0,0.1,1.1-0.8,1.1-0.7c0,0-0.2,0.2-0.1,0.1
					c0.1,0,0.4-0.3,0.6-0.4c0.7-0.4,0,0.2-0.3,0.4c0.3-0.2,0.9-0.5,0.4-0.1c-0.4,0.4-1.3,1.1-1.8,1.4c0,0,0.4-0.1,0.4-0.1
					c0.3-0.1,0.6-0.2,0.9-0.4c0.6-0.6-0.1,0.4-0.1,0.4s0.7-0.8,0.6-0.4c-0.1,0.1,0.4-0.1,0.4-0.1c0.1,0-0.3,0.4-0.3,0.5
					c-0.1-0.1,1.2-1.1,0.9-0.6c-0.2,0.3-0.9,1-1.3,1.3c0.2-0.1,0.4-0.3,0.6-0.4c0.1-0.1,0.5-0.3,0.6-0.4c0,0-0.1,0-0.1-0.1
					c0.2-0.3,0.4,0.1,0.4,0.1c0,0,0.3,0.1,0,0.4c-1.1,1,0.6-0.1,0.5,0.2c-0.1,0.2-0.7,0.8-0.9,1c-0.4,0.4-0.9,1.1-1.2,1.2
					c-0.3,0.1-0.1-0.1,0.2-0.4c0.2-0.3,0.2-0.6,0.4-0.7c-0.3,0.2-0.7,0.6-1,0.8c0.2-0.2,1.5-1.5,1-1.2c-0.4,0.3-0.8,0.8-1.1,0.9
					c-0.2,0.1-0.7,0-0.2-0.4c-0.4,0.4-0.3,0-0.1-0.2c0.1-0.1,0.5-0.7,0.1-0.4c-0.3,0.2-0.7,0.5-0.6,0.2c0.1-0.3-0.1,0-0.3-0.2
					c0.4-0.5-0.5-0.6-0.6-0.8c0-0.1-0.1-0.2,0-0.4c0.1-0.1,0.5-0.3,0.6-0.3c0,0-0.6,0.2-0.7,0.2c-0.2,0-0.1-0.2,0-0.4
					c0.6-0.5-0.1-0.1-0.3-0.1c-0.1,0-0.2-0.1-0.2-0.1c0-0.1,0.3-0.2,0.3-0.2c0,0-0.6,0.1-0.6,0c0-0.2,0.5-0.6,0.8-0.9
					c0.4-0.4-0.6,0.2-0.9,0.3c-0.5,0.2,0.1-0.3-0.3-0.2c0.7-0.3-0.3-0.4,0-0.5c0.4-0.2,0.7-0.2,1-0.5l0.3-0.3
					c-0.3,0.2-0.7,0.3-1,0.5c-0.1,0-0.4,0.2-0.4,0.2c-0.1,0,0-0.1,0.2-0.2c0,0-0.2-0.2-0.1-0.2c0.3-0.1,0.4-0.2,0.3-0.3
					c-0.1,0-0.4,0-0.1-0.1c-0.2-0.2,0-0.1-0.6,0c0.2,0,0-0.5,0.9-0.5c0.4-0.1,0.6-0.3,0.9-0.3l0.5-0.1
					C2.3,179.1,2.3,179.1,2.5,179.1z M2,181.3c-0.1,0.2,0.3,0,0.6-0.1c0.1-0.1,0.2-0.1,0.3-0.2C2.6,181.1,2.3,181.1,2,181.3z"/>
				<path class="st6" d="M5.9,185.9c-0.2,0.2-0.3,0.4-0.3,0.6C5.7,186.5,6.1,185.6,5.9,185.9z"/>
				<path class="st6" d="M4.9,186.3c0.2-0.1,0.3-0.3,0.5-0.4c0.4-0.2-0.1,0.2-0.2,0.4c-0.1,0.1-0.4,0.8-0.1,0.5
					c0.2-0.3,0.5-0.7,0.7-1c0.3-0.8,0.4-0.3,0.4-0.3c0.1-0.2,0.2-0.4,0.4-0.6c0.1-0.1,0.1-0.1,0.1-0.1c0.2-0.2,0.4-0.4,0.5-0.6
					c0.1-0.3-0.2,0-0.4,0.3c0,0.1-0.6,0.8-0.5,0.5c0.1-0.2,0.4-0.6,0.5-0.8c0.1-0.2-0.1-0.1-0.2-0.1c-0.2,0.1-0.3-0.1-0.4-0.1
					c-0.2,0-0.9,0.8-1.2,1.2C4.8,185.7,4.4,186.6,4.9,186.3z"/>
				<path class="st6" d="M6.8,184.8c-0.1,0.1-0.1,0.1-0.1,0.1C6.5,185.1,7.1,184.6,6.8,184.8z"/>
				<path class="st6" d="M8.4,186c0.2-0.2,0.6-1.1,0.4-0.8C8.6,185.3,8.3,186,8.4,186z"/>
				<path class="st6" d="M8.5,186.5c0.3-0.2,0.5-1.2,0.4-1.1C8.8,185.5,8.2,186.9,8.5,186.5z"/>
				<path class="st6" d="M8.5,186.5C8.4,186.7,8.8,186.3,8.5,186.5L8.5,186.5z"/>
				<path class="st6" d="M14.8,186.6c0-0.5-0.2-1-0.2-0.4C14.7,186.6,14.8,187,14.8,186.6z"/>
				<path class="st6" d="M18.5,188.6L18.5,188.6C18.6,188.2,18.2,187.8,18.5,188.6z"/>
				<path class="st6" d="M5.3,187.1c0.1-0.1,0.7-0.4,0.3,0.1c-0.3,0.3,0,0.4,0.1,0.4c0.2,0.1,0.5,0.2,0.8,0.1
					c0.3-0.1,0.2,0.4,0.5,0.5c0.2,0,0.7-1,0.5-0.3c-0.2,0.5,0.4,0.2,0.3,0.3c-0.2,0.4,0.4,0.4,0.6,0.4c0.2,0,0.2,0.3,0.5,0.3
					c0-0.1-0.1-0.3,0-0.5c0.1-0.2,0.2,0,0.3,0c0.1,0,0.1-0.2,0.2-0.2c0.1,0,0.1,0.2,0,0.5c-0.1,0-0.1,0-0.2,0c0,0.5,0.1,0.5,0.3,0.4
					c0.2-0.1,0.1,0.3,0.2,0.3c0.2,0,0.4-0.5,0.6-0.7c0.2-0.2,0.1,0.5,0.1,0.7c0.1,0.5,0.5-0.2,0.8,0c0.1,0.1,0.1,0.2,0.2-0.3
					c0-0.3,0.3,0.1,0.3,0.1c0.3,0,0.2-0.2,0.3,0.5c0,0.2,0.3-0.3,0.3-0.4c0.1-0.5,0-0.7,0.2-0.7c0.1,0.2,0.1-0.2,0.1-0.5
					c0-0.2,0-1.5,0.1-1.6c0.1,0,0,1.1,0,1.3c0,0.2-0.1,0.9-0.1,0.9c-0.1,0.4,0,1.2,0.1,0.5c0.1,0.2,0.1,0.5,0.2,0.4
					c0.1-0.3,0.3-0.3,0.4-0.3c0.2,0,0.3,0.3,0.5,0c0.1-0.1,0.1-0.2,0.1-0.4c0,0.4,0.1,0.8,0.3,0.9c0,0-0.1-1.2-0.1-1.4
					c0.1,0.5,0.1,1.1,0.4,1.1c0.1,0,0.4,0,0.4-0.4c0.1,0.3,0.2,0.4,0.3,0.4c0.2,0,0.1-0.1,0.1-0.4c0,0,0.3,0.4,0.3,0.4
					c0.1,0,0.1-0.7,0.1-0.9c0-0.1,0-0.5-0.1-0.5c-0.1,0-0.2-0.2-0.2-0.2c0.1-0.1,0.2-0.1,0.4,0.2c0.2,0.3,0.1,0.7,0.2,0.8
					c0.1,0.3,0.1-0.6,0.1-0.7c0-0.2,0.3,0.3,0.3,0.4c0.3,0.4,0.6,0.4,0.4-0.3c0-0.1,0.4,0,0.5,0.4c0-0.2-0.1-0.6-0.1-0.6
					c0.1-0.1,0.3,0.2,0.4,0.3c0.2,0.1-0.2-0.7-0.3-0.8c0.1,0.2,0.2,0.1,0.3,0.5c0,0.1,0.3,0.7,0.3,0.6c0-0.1,0-0.2,0-0.3l0.1-0.1
					c0,0,0,0,0-0.1c0-0.3-0.1-0.8-0.3-1.2c-0.1-0.3-0.3-0.6-0.2-0.7c0.2,0.4,0.3,0.7,0.5,1.1c0.1,0.3,0.1,0.1,0.2,0.2
					c0.1,0.1,0.2,0.5,0.3,0.5c0,0,0.2,0,0.1-0.2c-0.1-0.2-0.4-0.5-0.4-0.7c0-0.2,0.2,0,0.3,0.1c0.4,0.5,0.3,0.6,0.5,0.4
					c0.3-0.2-0.2-0.9-0.7-1.6c-0.3-0.3-0.5-0.8-0.7-1.2c-0.4-0.9,0,0.4,0,0.4c0,0-0.1-0.2-0.2-0.3c-0.1-0.2-0.2-0.4-0.2-0.4
					c-0.1,0,0.2,0.4,0.2,0.6c0,0.3-0.2,0.2-0.2,0.5c0,0.1,0,0.5-0.2,0c-0.1-0.1-0.3-0.7-0.2-0.7c-0.1,0.1-0.3,0.1-0.4,0.3
					c0,0.2,0.3,1,0.4,1.3c-0.1-0.4-0.2-0.1-0.2,0c0,0-0.2-0.5-0.2-0.5c-0.1-0.3-0.5-1.3-0.4-0.7c0.1,0.4,0.3,0.7,0.4,1.1
					c0.1,0.3,0,0.6-0.1,0.4c0,0-0.1-0.5-0.1-0.5c-0.1,0,0,0.3-0.2,0c-0.1-0.2-0.1-0.3-0.2-0.5c0.1,0.4,0.7,2.3,0.3,1.9
					c-0.1-0.1-0.6-2.3-0.6-2.2c-0.1,0.2,0.2,1.1,0.2,1.4c0-0.1-0.3-0.9-0.4-0.9c-0.2-0.3,0.2,0.8,0.2,0.6c0.1,0.2-0.1,0.2-0.1,0.3
					c0.1,0.3,0,0.2-0.1,0.3c-0.1-0.2-0.3-1.2-0.1-1c-0.1-0.4-0.3-1-0.3-0.5c0,0.3,0.3,1.3,0.2,1.5c0,0,0-0.3-0.1-0.5
					c0-0.3-0.1-0.6-0.2-0.6c-0.2,0,0,1,0.1,1.3c-0.1,0-0.1-0.4-0.2-0.4c-0.1,0-0.1,0-0.2-0.1c-0.1-0.1-0.2-0.3-0.3-0.6
					c-0.1-0.2-0.1-0.5-0.2-0.4c-0.1,0-0.1,0.2-0.2,0.1c0-0.1,0-0.2,0-0.2c-0.1,0.1-0.1,0.3-0.2,0.4c0,0.1-0.2,0.5-0.3,0.4
					c0-0.1,0-0.6,0-0.6c0,0.1-0.1,0.9-0.1,1c-0.1-0.2-0.2,0.3-0.2,0.2c-0.1-0.2,0-0.8,0-1.2c0,0.2,0,0.3-0.1,0.5
					c0.1-0.3-0.2-0.6-0.3-0.6c-0.1-0.1-0.3-0.4-0.2,0.2c0,0.8-0.1,0.3-0.2,1c0,0.1-0.1,0.5-0.2,0.3c0-0.2,0.1-0.4,0.1-0.5
					c0-0.3-0.2,0.3-0.2-0.1c0-0.3,0.1-0.6,0-0.6c-0.1-0.1,0-0.5-0.1-0.5c-0.1,0.2-0.1,0.3-0.2,0c0,0.3-0.2,1.5-0.2,1.6
					c0.1,0.2,0,1.2-0.1,0.7c0-0.9-0.2,0.5-0.3,0.4c-0.1,0,0-0.3,0-0.6c0.1-0.4,0.2-0.1,0.2-0.3c0-0.1,0.1-1.4,0.1-1.4
					c0,0-0.2,1-0.2,0.6c0-0.2,0-0.3,0-0.5c-0.1,0.3-0.3,0.4-0.3,0.1c0-0.3,0.2-0.7,0.1-0.8c-0.1,0.4-0.1,0.1-0.2,0.3
					c0,0.1-0.1,0.4-0.1,0.6c0,0,0,0.1,0,0.1c-0.1,0.3-0.5,1.1-0.6,1.3c0.1-0.3,0.1-0.7,0.1-0.9c-0.1,0,0-0.4,0-0.5
					c-0.1-0.1-0.5,1.5-0.8,1.4c0.2,0,0.5-1.3,0.6-1.7c0.1-0.5-0.1-0.2-0.2,0.2c0.1-0.3,0.4-1.6,0.1-0.8c-0.5,1.2,0-0.2-0.2,0.1
					c-0.3,0.4-0.3,0.8-0.2,0.8c0.1,0-0.3,0.9-0.4,1.1c0-0.3,0-0.6,0.1-0.9c0.1-0.3,0.2-0.6,0.3-0.9c0.1-0.2,0-0.4,0.1-0.6l-0.3,0.8
					c0,0,0.2-0.7,0.2-0.7c0-0.3-0.1,0-0.2,0.2c0.1-0.1-0.1-0.5-0.1-0.5c-0.3,0.5-0.4,1.2-0.7,1.7c-0.1,0.2-0.2,0.1-0.2,0.1
					c0,0,0.1-0.3,0.1-0.4c0-0.4-0.4,0.4-0.4,0.5c0,0.1-0.3,0.1-0.2,0c0.1-0.1,0.4-0.4,0.5-0.7c0.1-0.1,0.4-1.1,0.4-1.1
					c-0.1,0.1-0.7,1.2-0.8,1.4c-0.2,0.2-0.2-0.1-0.1-0.3c0.1-0.3,0.6-1.2,0.4-1.1c-0.1,0-0.2,0.2-0.2,0c0-0.1,0.2-0.3,0.2-0.3
					c0-0.2-0.6,0.6-0.7,0.7c-0.1,0.1,0.1-0.5,0.1-0.5c-0.1,0,0.2-0.5-0.2,0c-0.2,0.3-0.5,0.8-0.6,0.7c0.3-0.4,1.1-1.5,0.7-1.2
					c-0.1-0.1-0.9,1.4-1.2,1.6c-0.1,0,0.8-1.3,0.8-1.3c-0.1,0-0.9,1.2-1.2,1.4C5.6,186.6,4.8,187.3,5.3,187.1z"/>
				<path class="st6" d="M20.4,183.7c-0.1-0.1-0.4-0.6-0.5-0.5C19.9,183.3,20.3,183.8,20.4,183.7z"/>
				<path class="st6" d="M23.2,184.8C23.4,185.1,23.1,184.6,23.2,184.8L23.2,184.8z"/>
				<path class="st6" d="M18.3,185.5c-0.1,0,0.4,0.9,0.5,0.9c0,0,0.1-0.4,0.3,0.2c0,0.2-0.1,0,0,0.3c0.2,0.4,0.5,0.9,0.7,1
					c0.2,0.1,0.5,0,0.5-0.3c0-0.2-0.5-1-0.2-0.7c0.1,0.1,0.3,0.5,0.5,0.6c0.2,0.1,0.2,0,0.3-0.1c0.1-0.1-0.1-0.4-0.1-0.5
					c0-0.2,0.1-0.1,0.3,0c0.1,0,0.9,0.1,0.4-0.5c-0.1-0.1-0.6-0.7-0.4-0.6c0.2,0.2,0.4,0.4,0.6,0.6c-0.1-0.1-0.3-0.6,0.2-0.2
					c0.2,0.2-0.1-0.2-0.1-0.3c0.1-0.1,0.4,0.2,0.6,0.2c0.1,0-0.3-0.4-0.1-0.3c0.2,0.1,0.5,0.2,0.6,0.1c0-0.1-0.2-0.4-0.2-0.4
					c0.1-0.1,0.3,0,0.4-0.2c0.1-0.1,0.3,0,0.2-0.3c0-0.1-0.1-0.2-0.2-0.3c0,0,0,0.2-0.1,0.1c-0.2-0.1-0.4-0.2-0.6-0.3
					c-0.3-0.2-0.8-0.5-1.1-0.8c-0.2-0.2-0.5-0.4-0.6-0.4c-0.1-0.1,0.3,0.4,0.4,0.5c0.3,0.4-0.3-0.1-0.3,0c0,0,0.2,0.3,0.2,0.3
					c-0.2-0.1-0.5-0.4-0.6-0.3c0,0,0.8,1.1,0.9,1.3c0.2,0.6-0.4-0.4-0.4-0.3c0,0,0.2,0.4,0.2,0.5c0,0.1-0.2-0.1-0.3-0.2
					c-0.2-0.2-0.5-0.4-0.7-0.7c0.1,0.1,0.5,0.9,0.4,0.9c-0.4-0.2-0.6-1-0.8-1.1c-0.2-0.2,0.2,0.8-0.3,0.2l0.7,0.8
					c-0.1,0.1-0.5-0.6-0.5-0.3c0,0.2,0,0.2,0.3,0.6c0,0.1-0.1,0.1-0.2,0.2c0.1-0.2-0.5-1-0.3-0.4c0,0.2-0.2-0.2-0.3-0.2
					c-0.1,0,0,0.2-0.1,0.3c0,0-0.6-0.5-0.3,0c0.1,0.2,0.4,0.6,0.4,0.7c0,0.1-0.2-0.1-0.1,0.1c0,0.1,0.1,0.1,0.2,0.3
					C19.2,186.3,18.5,185.6,18.3,185.5c0.2-0.2,0.6,0.2,0.1-0.5c0,0-0.3,0-0.3,0c0,0.1-0.1,0.2-0.2-0.1c0,0-0.1,0,0,0.2
					C18,185.4,18.3,185.6,18.3,185.5z"/>
				<path class="st6" d="M23.2,179.6C23.5,179.7,23.3,179.5,23.2,179.6L23.2,179.6z"/>
				<path class="st6" d="M21.1,182.9c0.1,0,0.7,0.1,0.6,0.3c-0.4-0.2,0.8,0.9,0.4,0.7c-0.2-0.2-0.5-0.4-0.6-0.3c0,0,0,0.1,0.1,0.2
					c0.6,0.5,0.7,0.2,1.1,0.4c0.3,0.1,0.7,0.6,0.8,0.5c0.1-0.1,0.1-0.2,0.1-0.3c0-0.1-0.2-0.5,0-0.4c0.2,0,0.2,0.1,0-0.2
					c0,0,0-0.2,0.1-0.1c0,0-0.4-0.4-0.4-0.4c0.1,0,0.5,0.4,0.6,0.4c0.1,0-0.1-0.3-0.1-0.3c-0.1-0.2-0.6-0.6-0.5-0.3
					c-0.4-0.3,0.1-0.1-0.1-0.3c-0.1-0.1-0.7-0.4-0.7-0.4c0-0.1,0.9,0.5,1.1,0.6c0.2,0.1,0.4,0.1,0.6,0.1c0.1,0,0.6-0.3,0.6-0.2
					c0,0-0.7-0.3-0.8-0.4c0.1-0.2,0.6,0.2,0.7,0.1c0.1-0.1-0.1-0.3-0.3-0.5c-0.2-0.2-0.1-0.2,0.2,0c0.3,0.1,0.3-0.1,0.3-0.1
					c0-0.1,0.2-0.2,0-0.4c-0.1-0.1-0.6-0.3-0.3-0.3c0.7,0.2,0.7,0.1-0.1-0.3c0-0.1,0.5,0.2,0.7,0.2c0-0.1,0.4-0.1,0.4-0.2
					c0-0.1-1.2-0.4-0.7-0.4c0.3,0,0.6,0.2,0.6,0c0-0.1-0.4-0.2-0.6-0.5c-0.1,0-0.6-0.4-0.7-0.3c-0.1,0-0.3,0.2-0.7,0
					c-0.3-0.1,0.1-0.3-0.3-0.4c0-0.1-0.5-0.2-0.8-0.3c0.2,0.1,0.4,0.1,0.5,0.2c-0.3-0.2-0.7-0.1-0.6,0c0,0.1,0.3,0.4,0.6,0.6
					c0.2,0.2,0.9,0.5,0.5,0.4c-0.5-0.1-0.3,0.1,0.1,0.2c-0.3-0.1-0.6-0.1-0.6-0.1c0-0.1-0.3-0.4-0.4-0.3c-0.1,0.1-0.3,0.1-0.3,0.1
					c0,0.1,1.4,0.8,1,0.7c-0.4-0.1-1.5-0.8-1.2-0.4c0.1,0.2,0.5,0.3,0.8,0.4c0.3,0.2,0.3,0.2,0.6,0.4c0,0.1-0.7-0.3-0.9-0.4
					c-0.2-0.2-0.5-0.3-0.8-0.4c-0.2-0.1,0,0.1,0.1,0.2c0.3,0.2,0.9,0.4,1.1,0.6c0,0.1-0.1,0.1-0.3,0c0-0.1-0.6-0.5-0.7-0.5
					c0,0,0.2,0.2,0,0.1c-0.2-0.1-0.2,0-0.2,0c0,0.1-0.3-0.1-0.3-0.1c0,0,0.1,0.8,0.3,0.8c-0.1,0-0.2-0.2-0.3-0.2
					c-0.1-0.1-0.1,0.1-0.1,0.1c0,0.1-0.3,0-0.3,0.1c0,0.1,0.6,0.6,0.3,0.4c-0.1-0.1-0.6-0.3-0.3,0c-0.4-0.2-0.3,0.2-0.4,0.1
					c-0.3-0.1,0.5,0.7,0.8,0.9C21.2,183.4,21.1,182.9,21.1,182.9z"/>
				<path class="st6" d="M22.2,179.2c0,0,0.1,0,0.2,0.1C22.4,179.2,22.3,179.2,22.2,179.2z"/>
				<path class="st6" d="M23.8,178.4L23.8,178.4c-0.2-0.1-0.3,0-0.2,0C23.7,178.4,23.8,178.4,23.8,178.4z"/>
				<path class="st6" d="M23.5,177.8L23.5,177.8C22.5,177.6,23.5,177.9,23.5,177.8z"/>
				<path class="st6" d="M26,180.4c0.1-0.1,0.2-0.2,0.1-0.4c0-0.1-0.4-0.3,0-0.2c-0.2-0.1-0.3-0.3-0.2-0.3c0.1,0,0.2,0.2,0.2,0.2
					c0.2-0.1,0.2-0.4,0.2-0.5c0-0.2,0.2-0.4-0.4-0.6c-0.1,0,0.3,0,0.4,0c-0.6-0.3,0.3-0.4,0.2-0.6c-0.1-0.1-1.4-0.3-2-0.4
					c0,0,0,0-0.2,0c-0.2-0.1-0.6-0.1-1-0.2c0,0.1,0.4,0.1,0.6,0.2c0.2,0.1-0.3,0.1-0.5,0.1c-0.2,0,0.5,0.3,0.6,0.3
					c0.2,0.1,0,0.1,0.1,0.2c0,0,1.2,0.3,0.8,0.3c-0.2,0-1.1-0.2-1.1-0.2c-0.8-0.2-1.2-0.3-1,0c0,0,0.1,0.4,0.3,0.5
					c0.4,0.1,0.2-0.1,0.3-0.2c0.1-0.1,0.4-0.1,0.7,0.1c0.2,0.1,0.6-0.1,0.8,0c0.1,0-0.3,0.1-0.3,0.1c-0.1,0,0.1,0.2,0,0.2
					c-0.1,0-0.5-0.1-0.6,0c0,0.1,0.2,0.1,0,0.1c-0.1,0-1.1-0.1-1,0c0,0,0.5,0.1,0.5,0.2c0.3,0.1,0.2,0.2,0.5,0.3
					c0.2,0.1,0.8,0.3,0.9,0.4c0.1,0.1-0.4,0-0.4,0c0,0,0.7,0.2,0.8,0.2c0.2,0.1,0.3,0.2,0.5,0.2c-0.4-0.1-0.8-0.3-1.2-0.3
					c0,0-0.5,0-0.6-0.1c0-0.1,0.2,0,0.1-0.2c-0.1-0.1-0.3-0.2-0.5-0.3c-0.1,0-1.1-0.4-1.1-0.4c0,0,0.9,0.4,1,0.4c-0.2,0-1-0.2-1-0.1
					c0,0.1,0.9,0.3,1,0.4c0-0.1,0.5,0.2,0.7,0.3C24.5,179.9,25.8,180.5,26,180.4z"/>
				<path class="st6" d="M24.4,177.4c0,0,0.1,0,0.2,0C24.5,177.5,24.2,177.4,24.4,177.4z"/>
				<path class="st6" d="M25.3,177.6c0.2-0.2,0.3-0.1,0.9,0c0.4,0,0.3-0.2,0.2-0.2c-0.1-0.2,0-0.7-1-0.7c0-0.2,0.5,0,0.7-0.1
					c0-0.2-0.9-0.2-1.3-0.1c-0.5,0-0.8,0.2-0.1,0.2c-0.2,0-2,0.1-1.7,0.2c0.7,0,2.1,0.1,2.2,0.4c-0.2,0-0.4,0-0.6-0.1c0,0,0,0,0,0
					c0,0,0,0,0,0c-0.4-0.1-0.9-0.1-1.3-0.2c-0.7,0,0.8,0.2,1.2,0.2c-0.2,0.1-0.8,0.1-0.4,0.2c0.3,0,0.6,0.1,0.8,0.2
					C25,177.5,25.3,177.6,25.3,177.6z"/>
				<path class="st6" d="M23.2,176.1c-0.4,0.1-0.1,0.1,0.3,0.1l0-0.1C23.4,176.1,23.3,176.1,23.2,176.1z"/>
			</g>
		</g>
	</g>
	<g>
		<g>
			<g>
				<path class="st6" d="M122.5,186.7c-0.2,0.3,0.4,0.8,0.7,0.7l-0.2-0.2L122.5,186.7z"/>
				<path class="st6" d="M122,186.3C122.1,186.3,122.1,186.3,122,186.3C122.1,186.2,121.5,186,122,186.3z"/>
				<path class="st6" d="M122.1,186.3C122.1,186.3,122.1,186.3,122.1,186.3c-1.1-0.5-0.1,1.1,0.2,0.1
					C122.3,186.3,122.2,186.3,122.1,186.3z"/>
				<path class="st6" d="M75.7,134.5C74.9,135.4,76.8,135.6,75.7,134.5L75.7,134.5z"/>
				<path class="st6" d="M63.2,122c-0.1-0.1-0.3-0.3-0.4-0.4c-0.2,0,0.3,0.7,0.3,0.8C63.3,122.6,63.4,122.2,63.2,122z"/>
				<path class="st6" d="M103.2,165.1c0.1-0.1,0.1-0.1,0.2-0.2C103.2,164.9,103.2,165,103.2,165.1z"/>
				<path class="st6" d="M125.6,185.8c-0.1-0.5-0.4-0.6-0.8-0.7c-0.3-0.1-0.1-0.2-0.1-0.3c0,0.1-1.1,0.5-1.1,0.1
					c0-0.5,0.4-0.7,0.7-1.1c0.2-0.2,0.1-1-0.4-1.1c-0.3,0.3,0,0.7-0.4,0.9c-0.6-0.6,0.1-0.9-0.2-1.2c-0.3-0.3-0.4-0.1-0.6,0.1
					c-0.5-0.5,0.1-0.8-0.3-1.2c-0.4-0.4-0.3-0.3-0.4-0.7c-0.2-0.6-0.7-0.5-0.9-0.3c-0.3,0.3-0.4,0.2-0.8-0.1
					c0.2-0.2,0.4-0.4,0.7-0.6c0.3-0.3-0.6-0.4-0.7-0.4c-0.3-0.2-0.7-0.6-0.9-0.9c-0.1-0.1-0.9-0.4-0.8-0.3c-0.2-0.3,0.5-1.8-0.7-1.5
					c-0.2,0.2-0.4-0.2-0.5-0.5c-0.1-0.5-0.5-0.7-1-0.9c-1-0.6-0.5-0.6-0.9-1.4c-0.4-1-1.1-0.3-1.4,0c0.1-0.1-0.1-0.4,0.1-0.7
					c0.1-0.1,0.1-0.3,0-0.5c-0.4-0.7-1.2-1.4-1.7-2.1c-0.5-0.6-1.1-1.5-1.7-2c-0.4-0.3-0.6,0.5-0.7,0.6c0.1-0.1-0.2-0.4-0.2-0.7
					c0-0.2,0.1-0.3,0.2-0.4c0.1-0.1-0.4-0.5-0.5-0.6c0.3,0.3-0.4-0.1-0.5-0.2c-0.4-0.4-0.7-1-1.1-1.3c-0.4-0.3-1,0.2-1.3-0.6
					c-0.3-0.7-0.5-1.9-1.2-2.4c-0.3-0.2-1.4-0.1-0.8-0.7c-0.2-0.1-0.4-0.1-0.5,0c0.7-1-1.2-2.3-2.2-3.3c-0.3-0.2-1.9-2-2.1-1.7
					c-0.3-0.2-0.3-0.4-0.5-0.7c-0.4-0.5-0.8-0.9-1.2-1.3c-0.7-0.7-1.1-1.4-1.7-2c-0.2-0.2-0.7-0.8-0.9-0.5c0,0.3-0.3,0.2-0.5,0
					c-0.3-0.2-0.5-0.6-0.4-0.9c-0.2-0.4-0.7-0.6-0.9-1c-0.1-0.1-0.1-0.9-0.4-0.6c-0.2,0.2-0.6,0.1-0.8-0.1c0.1-0.1,0.5-0.4,0.5-0.4
					c-0.1-0.4-1.4-0.9-1.7-1.1c-0.3-0.3-0.5-0.7-0.8-1.1c-0.3-0.4-0.7-1.4-1.1-1.2c-0.3,0.1-0.5,0.2-0.8,0.3c-0.1-0.4,0-1-0.1-1.3
					c-0.2-0.7-0.7,0.4-0.8,0.4c-0.6-0.6,0.4-1.1,0.3-1.6c-0.1-0.6-0.9-0.7-1.2-0.9c-0.3-0.3-1-1.3-1.1-1.1l-0.2,0.2
					c-0.2-0.2-0.4-0.2-0.6-0.2c-0.1,0-0.5,0.4-0.5,0.3c-0.3-0.2,0.5-1.3,0.3-1.8c-0.3-0.6-1.3-1.3-1.8-1.8c-0.6-0.6-1.7-2.3-2.4-1.9
					c0.2-0.6-1.3-1.7-1.7-2.1c-0.1-0.1-0.5-1-0.6-0.9c-0.5-0.1-0.1,0.8-0.3,0.9c-0.7,0.3-0.7-2.1-1.1-2.3c0,0-0.1,0.1-0.2,0.2
					c-0.1,0.1-0.2,0.2-0.4,0.3c-0.3,0.2-0.6,0.4-0.6,0.3c-0.1-0.3,1.4-1.4,0.2-1.9c-0.7-0.3-1.1-1.2-1.9-1.3
					c-0.4-0.2-1.4-0.7-1.6-1.2c0.3-0.4-0.3-1.6-0.7-1.2c0.9-1-1.3-2.4-1.9-1.3c0-0.4,0.2-0.7,0.2-1.1c0-0.5-0.4-0.8-0.8-1.2
					c-0.4-0.4-1.2-1.6-1.4-1.1c-0.1-0.5-0.5-1-0.9-1.4c-0.7-0.7-0.8-0.5-1.2,0c-0.4-0.4,0.1-1-0.1-1.4c-0.2,0.2-0.6,0.1-0.8-0.1
					c0.7-0.6-0.3-1.3-1-1.9c-0.4-0.4-1.6-0.1-1.9,0c-0.4,0.1-0.5,0.5-0.9,0.6c-0.3,0.1-0.2-0.4-0.2-0.5c0.3-0.3,0.7-0.5,1.1-0.7
					c0,0,0.8-0.3,0.6-0.4c-0.1-0.1-0.4-0.2-0.6-0.4c0.1,0,0.1-0.1,0.1-0.2c-0.1-0.1-0.5-0.5-0.6-0.5c-0.1,0.1-0.9,1.4-1,1.3
					c-0.2-0.5,0.1-2-1-1.7c0.1,0.6-0.6,0.7-0.5,1.2c0,0.5,1.5,0.6,1.4,1c-0.1,0.3-0.6,0.2-0.4,0.8c-0.2,0.3,0.6,0.6,0.8,0.8
					c0.5,0.5,1.1,0,1.5-0.2c0.2-0.1,0.5-0.3,0.9-0.1c0.1,0.1,0.8,0.6,0.6,0.8c-0.1,0.1-0.9-0.3-1.1-0.3c-0.4,0-0.6,0.1-0.8,0.4
					c0.4-0.4,0.8,0.4,1.4,0.5c0.5,0.5,0.2,0.4,0.3,0.8c0.1,0.4,0.6,0.7,0.8,1c0.3,0.3,0,0.3,0,0.6c0,0.4,0.4,0.8,0.7,1.2
					c0.1,0.2,1,1.6,1.2,1.3c0.2-0.6,0.6-0.5,1.1,0.2c0.4,0.5-0.2,1,0.5,1c0.7,0.1,0.4,1.1,0.9,1c0.3-0.1,1.2-1,1.2-1.1
					c0.3,0.3-0.3,0.8-0.4,1.1c-0.1,0.4,0.4,0.9,0.2,1.2c-0.2-0.2-0.2,0.1-0.2,0.2c0.3,0.3,0.3,0,0.4,0.1c0.2-0.2,0.7,0.3,0.9,0.5
					c0,0,0-1.1,0.4-0.5c0.5,0.8-0.5,1-0.4,1.4c0.2,0.7,1,0.7,1.3,0.4c0.3-0.3,0.3-0.1,0.7,0.3c0-0.1,0.4,0.8,0.5,0.6
					c0.2-0.3,0.1-0.7,0.6,0.2c0.2,0.9-0.8-0.1-1.1,0.2c0.6,0.5,0.2,0.8,1,1.1c0.5,0.1,1.2,1.3,1.5,0.7c-0.2,0.2,0,0.6,0.4,0.7
					c0.4,0,0.6-0.2,0.9-0.3c0.6-0.1,0.3,0.7,0.2,0.9c-0.1,0.3-0.6,0.9,0,1.2c0.3,0.2,1.3,0.6,0.7,1c0.4-0.3,1.3-1.2,1.7-0.1
					c0.2,0.6-0.8,1.1,0.1,1.5c0.2,0.1,1,0.1,1,0.3c0.1,0.3-0.2,0.5-0.2,0.8c0.1,0.3,0.5,0.2,0.8,0.5c0.4,0.4,0.4-0.3,0.7-0.2
					c0.5,0.1,0.7,0.7,1.3,0.7c0.1,0,1,0,0.7,0.4c0.1,0.5,0.4,1.1,0.9,1.6c0.4,0.4,0.7,0.3,1.1,0.6c0.5,0.3-1,0.6-0.8,1.2
					c0.2,0.5,0.8,0,0.9,0c0.1-0.1,0.7,0.2,0.5,0.3c0.1-0.1,0.5-0.8,0.6-0.7c0.4,0.5-0.7,1.3-0.9,1.6c0.4,0.4,0.6-0.4,1.2,0.2
					c-0.7,0.4,0.5,0.8,0.6,1.2c0.1,0.3-0.4,0.3,0,0.7c0.2,0.3,0.3,0.2,0.6,0.4c0.5,0.3,0.6,0.8,0.9,1.1l1.3,1.3
					c-0.1-0.4,0.2-0.7,0.7-0.6c0.5,0.2,0.2,0.9,0.2,1.1c-0.3,0.3,0.2,1,0.6,1.2c0.5,0.2,0.1-0.7,0-0.9c0-0.3,1.5,0.8,1.2,1.2
					c-0.7,0.7,1.5,0.4,1.7,0.6c-0.1,0.1-0.6,0.5-0.3,0.8c0.1,0.1,1.5,1.1,0.9,1.1c0.2,0.3,1.2,0.7,1,0.9c-0.1,0.1,0,1,0.2,0.8
					c0.3-0.2,0.1-1.4-0.1-1.8c-0.1-0.1,0.5,0,0.6,0.1c0.3,0.2,0.1,0.7,0.1,0.9l-0.2,1.2c0.3,0,0.5,0.1,0.8,0.1
					c0.7-0.2,0.4,0.2,0.5,0.7c0.2,1.3,2.3,1.6,2,2.6c0,0.1,1-0.1,0.9,0.3c0,0.1-0.5,0.9,0,0.9c0.3,0,0.4-0.6,0.8-0.2
					c0.2,0.2,0.3,0.9,0.2,0.9c0,0-0.2-0.8-0.4-0.4c-0.1,0.2,0.3,0.9,0.5,1.1c0.1,0.1,0.6,0.7,0.7,0.5c0.1-0.3,0.3-0.8-0.1-1.2
					c0-0.2,0.3-0.4,0.5-0.3c0.3,0.1,0.3,0.6,0.4,0.8c0.1,0.6,0.1,1.2-0.1,1.7c0.2-0.1,0.4-0.3,0.5-0.1c0.2,0.2,0,0.6,0,0.8
					c0.1,0.5,0.9,0.9,1.3,1.1c0.5,0.3,0.9,0.5,1.4,0.6c0.1,0,0.7-0.2,0.7,0.2c0,0.3-0.8,0.8-0.9,0.8c0.3,0.2,0.9-0.1,1,0
					c-0.1-0.1-0.2,0.5-0.1,0.7c0.1,0.2,0.6,0.8,0.8,0.6c0.3,0.2,1.3,1,1.5,0.8c1,0.7,0.3,0.8,0.6,1.6c0.2,0.7,1,0.2,0.3-0.4
					c0.5,0.5,1.6,0.9,2,0.5c-0.2,0.3-0.6,0.3-0.8,0.6c-0.1,0.2-0.1,0.5-0.2,0.7c0.5-0.4,0.9,0,1.6,0.8c0.6,0.7,0.3,1.1,0.5,1.8
					c0.3-0.3,1.5,1.2,1.8,1.4c0.4,0.3,0.7-0.1,1.1,0.3c0.2,0.3,0.9,3.1,1.6,2.3c0.3,0.3,0.3,1.4,0.7,1.3c0.5-0.1,0.7-0.1,1.3-0.1
					c-0.4,0.2-0.8,0.3-1.3,0.4l2,0.3c-0.1,0-1.1,0.4-1.1,0.4c0.7,0.5,1.3-0.2,1.6-0.5c0.4,0.4-0.5,1-0.6,1.2
					c-0.3,0.4,0.3,0.3,0.5,0.8c0.1,0.2-0.3,0.3,0.1,0.6c0.3,0.2,0.7,0.1,0.9,0.4c0.2,0.3,0.4,0.6,0.6,0.9c0.1,0.2,0.4,1.6,0.8,1.7
					c-0.1,0,0.6-0.4,0.7-0.4c0.6-0.3,0.7-0.3,1.1,0.3c0.2,0.3,0.5,0.1,0.7,0.2C125.7,186.9,125.7,186.2,125.6,185.8z"/>
				<path class="st6" d="M111.5,173.2c-0.1,0-0.1,0.1-0.2,0.2C111.4,173.3,111.5,173.3,111.5,173.2z"/>
				<path class="st6" d="M55.2,112.8c-0.2-0.3-0.6-0.9-0.7-0.3c-0.1,0.5,0.6,1,0.9,1.3l-0.2-0.8C55.2,112.8,55.2,112.7,55.2,112.8z"
					/>
				<path class="st6" d="M58.9,113.3c-0.2-0.8-0.7-0.3-0.8-1c-0.4-0.9-1.5-0.9-2.2-1.5c0.3-0.4,0.1-0.7-0.4-1
					c-0.5-0.3-0.8-0.1-1.2-0.1c0.8,0.1,0.1-2.3-0.1-0.9c0.1,0.7-0.7-0.2-0.6-0.6c0-0.5,0.3-0.7-0.3-1.3c-0.5-1-0.8,0.7-0.9,0.8
					c-0.1,0.3-1.6,0.7-1.2,1.3c0.3,0.4,0.7,0.1,0.9,0.7c0.1,0.3,0,1,0.4,1c0.2-0.2,0.3-0.8,0.5-0.9c0.2-0.1,0.3-0.1,0.4-0.1
					c-0.2,0.3-0.4,1,0.2,1c0.3,0,1-0.4,1.1-0.5l-1,1.1c0.4,0.4,0.5-0.4,0.9-0.1c0.5,0.3,0.6,0.7,0.9,1.1c0.5,0.6,1.1,1,1.2,1.7
					c0,0.2,0.1,0.8,0.2,1c-0.1-0.1,0.3-0.7,0.4-0.8c0.5,0.5,0.1,0.9-0.1,1.1c0.2-0.2,0.7,0,1,0.2c0.5,0.3,0.5,0.3,0.7-0.2
					C59.2,114.8,59.1,114,58.9,113.3z"/>
				<path class="st6" d="M53.2,106.9C53.6,107.4,52.8,106.2,53.2,106.9L53.2,106.9z"/>
				<path class="st6" d="M52.1,106.1c-0.2-0.9-0.9,0.1-1.1,0.2c0.1-0.1,0.7-1.5,0.2-1.6c-0.4-0.1-0.4,0.7-0.9,0.3
					c-0.3-0.3-0.7-0.6-0.9-0.9c-0.1-0.1,0.2-0.2,0.3-0.3c0.2-0.4-0.4-1-0.7-0.7c0-0.3-0.2-0.3-0.5-0.4c-0.2,0-0.6-0.2-0.5-0.4
					c0-0.1,0.2-0.2,0.3-0.3c0.2,0,0.2-0.2,0.4-0.1c-0.1-0.1-0.1-0.1-0.3-0.1c-0.1,0-0.2,0-0.4,0.1c-0.3,0.1-0.6,0.1-0.9,0.2
					c0.3-0.3,0.6-0.4,1.1-0.5c-0.2,0-0.7,0-1.3-0.1c-0.6-0.1-1.2-0.4-1.4-0.6c0.3,0,0.8,0.1,1.1,0.1c0.3,0,0.6,0,0.2-0.2
					c-0.2-0.1-0.5-0.2-0.8-0.1c-0.3,0-0.5,0.1-1-0.2c-1.3-0.9,1.6,0.3,1.2,0c-0.2-0.1-1.4-0.7-1-0.6c0,0,0.1,0,0.2,0
					c0,0,0.9,0.3,0.9,0.4c-0.2-0.1-0.6-0.4-1-0.5c1.3,0.6,1.8,0.8,2.5,1.1c0.3,0.1-0.1-0.1-0.4-0.3c0.5,0.3,0.9,0.5,1,0.5
					c0.1,0-0.2-0.3-0.1-0.5c0-0.1,0.2-0.3,0.4-0.3c0.2,0,0.2,0.5,0.2,0.7c0.1,0,0-0.1,0.2-0.2c0.2-0.1,0.3-0.2,0.4-0.3
					c0-0.1,0.1-0.2,0.1-0.2c0.2-0.8-0.4-1.2-0.6-1.9c-0.1-0.4-0.4-0.5-0.9-0.5c-0.5,0-1.1,0.1-1.7,0.1c-0.5,0-1.3-0.1-2-0.2
					c-0.8,0-1.4,0-1.4,0.2c0.1,0.5,1.3,0.7,2.2,1c-0.1,0,0,0.3,0.3,0.6c0.3,0.3,0.8,0.6,0.9,0.7c-0.6-0.3-0.9-0.6-1.5-0.8
					c-0.1-0.1-0.4-0.2-0.6-0.2C44,99.1,43.8,99,43.8,99c-0.2-0.1-0.5-0.4-0.8-0.6c-0.3-0.2-0.6-0.4-1-0.4c-0.2,0-0.7,0-1.3-0.1
					c0.7,0.9,1.9,2.5,3,2.6c-0.2,0,1,1.2,1.2,1.4c0.5,0.4,0.2,0.7,0.6,1.4c0.1,0.2,0.3,0.4,0.4,0.5l0.2,0.3l0.2,0.2
					c0.2,0.2,0.5,0.4,0.8,0.5c1.1,0.4,0.3,0.7,0.9,1.4c0.3-0.4-0.1-0.9,0.6-1c0.2,0,1.2,0,1.3,0.6c0.1,0.9-1,0.6-1.4,0.9
					c0.3,0.3,1.4,1.6,1.7,1.5c0.3-0.1,0.7-1.1,1.2-0.9C52.1,107.5,52.2,106.9,52.1,106.1z"/>
				<path class="st6" d="M50.3,98.5c0.5-0.2,0.1-0.5-0.4-0.5C49.3,98.1,49.8,98.5,50.3,98.5z"/>
				<path class="st6" d="M52.5,100.3l0.3,0C53.5,100,52.4,99.5,52.5,100.3z"/>
				<path class="st6" d="M53,99.1c0.3,0.6,0.8,1.3,0.8,1.9c0.5-0.1,1.4-0.5,1.5-0.8c0.2-0.5-1.1,0-1.1-0.1c0.1-0.3,1-0.5,1.4-0.2
					c0.3,0.3,0,0.8,0.6,1c2,0.7,0.1-0.9,0.6-1c0.5-0.1,1,1.1,1.6,1.2c0.9,0.2,1.1,0.2,1.1-0.5c0.7,0,0.7,0.4,1.4,0.6
					c0.4,0.1,1.4,0.1,1.3-0.4c0,0.9,2.6-0.1,3.5,0.2c0,0,0.1,0,0.1,0.1c0-0.3-0.4-1.1-0.8-1.6c0-0.4-0.6-0.3-0.7-0.5
					c0-0.1-0.3-0.9-0.6-0.5c-0.2,0.2,0.2,0.4-0.3,0.4c-0.3,0-0.5,0-0.8,0c-0.5,0.1-0.4,0.7-0.7,0.9c-0.9,0.6,0-1.2,0-1.2
					c-0.1-0.1-0.9,0.7-1.2,0.3c-0.4-0.3-0.4-0.9-1.3-0.8c-0.2,0-1.4,0.5-1,0.7c0.1,0.1,1-0.2,0.9-0.1c-0.2,0.4-1.7,0.4-2.1,0.3
					c-0.2-0.1-0.1-0.2,0-0.3c0.4-0.2,0.3-0.2,0.2-0.6c-0.4,0.3-0.6,0.7-0.9,1c0-0.2,0-1.2-0.4-1c-0.3,0.2-0.3,0.6-0.7,0.7
					c-0.2,0-0.3-0.2-0.5-0.3c-0.8-0.3-0.4,1.2-1.1,0c-0.6-0.5-1-0.7-1.7-0.2c-0.7,0.6-0.9-0.7-1.3-0.2c-0.4,0.6-0.7,1.5-0.7,2.1
					C50.2,101.4,52.6,99.5,53,99.1z"/>
				<path class="st6" d="M65.8,100.9c0,0-0.1,0-0.1-0.1C65.6,100.8,65.8,101,65.8,100.9z"/>
				<path class="st6" d="M84,98.5c0.6-0.1,0.9-0.7,0.2-0.7C83.7,97.8,83.3,98.6,84,98.5z"/>
				<path class="st6" d="M89.7,97.6c-1-0.1-1.3,0.4-0.2,0.3C89.7,97.8,89.7,97.7,89.7,97.6z"/>
				<path class="st6" d="M65.7,99c0,0.1-0.2,0.4,0,0.5c0.5,0.3,0.7-0.5,0.7,0.4c0,0.3,0.9,1,1.2,0.6c0.2-0.2,0.3-0.6,0.5-0.9
					c0,0.3-0.1,1,0.5,1c0.4,0,1.5-0.4,1.6,0.2c0-0.4,0-0.8,0.6-0.8c0,0.2-0.1,1.1,0.4,1.1c0.1,0,0.7-0.7,0.9-0.8
					c1.2-0.6,0.3,0.6,0.8,0.7c0.2,0,1-0.3,1.3-0.4c0.3-0.1,0.3-0.5,0.2-0.7c0.6,0,0.2,0.7,0.3,0.9c0,0.1,0.9,0.1,1.1,0.3
					c0.3,0.3,0.2,0.3,0.8,0c0.4-0.2,0.8-0.1,1.2,0c0.2,0.1,0.7,0.7,0.8,0.4c0.1-0.1-0.1-0.7,0.1-0.7c0.3-0.1,0.6,0.3,0.6,0.4
					c0.1,0.8,0.9-0.3,0.7-0.4c0.2,0.1,0.4,0.6,1,0.5c0.7,0,0-0.3,0.2-0.5c0.2-0.2,1.3,0.6,1.3,0.6c0.3,0.1,0.5-0.3,0.9-0.5
					c0.8-0.3,1.3-0.4,1.9-0.9c0.2-0.2,0.6-0.6,1-0.4c0.4,0.2,0.7,0.9,1.2,0.8c0.7-0.1,0.6,0.3,1,0.4c1,0.4,1.6-1.2,2.5-0.3
					c-0.2-0.5,0-0.9,0.8-0.9c0.7,0,1.1,0.7,1.6,0.6c0.5-0.1-1.2-1.2-1.2-1.3c-0.3-0.6,0.4-1,0.5-1.6c0.1-0.5-1.6,0-1.8,0
					c-0.9,0.2,0.7,0.7,0.4,1.1c0.2-0.2,0.2-0.4,0.2-0.6c0.1,0.3,0.1,0.6-0.1,0.9c-0.3,0.4-0.8,0-0.8-0.3c-0.2-0.4-1-0.8-1-0.1
					c0,0.3,0.1,1-0.6,1c-0.6,0-0.2-1.1-0.3-1.3c-0.1-0.4-1.1-0.1-1.4,0c-1.2,0.1-2.1-0.2-1.9,0.9c-0.6-0.3-0.6,0.2-1.2,0.3
					c-0.1,0-0.2-0.5-0.6-0.5c-0.3,0-0.2,1.4-1.3,0.9c-0.2-0.1-1-0.7-0.7-0.9c0.3-0.2,0.7,0.2,0.9,0.3c0.4,0.1,0.6-0.1,0.6-0.4
					c0-0.4,0.1-0.3,0.6-0.3c-0.1-0.5-1.4-0.6-1.3-0.1c-0.6,0-0.9-0.4-1.6-0.3c-0.6,0.1-1.2,0.4-0.9,0.8c0.2,0.2,0.6,0.5,0.5,0.7
					c-0.1,0.2-1.2,0.9-1.2,0.7c0-0.4-0.1-0.7-0.4-1.1c-0.3-0.4-0.4-0.6-1-0.6c-0.6,0-0.8-0.5-1.2-0.5c0.6,0.1-0.3,3.5-0.4,0.6
					c0-0.5-0.6-0.7-1.1-0.4c-0.3,0.2-0.7,1.2-0.8,1.2c-0.2,0,0.1-1.5-0.5-1.5c0,0.4,0.4,1.6-0.4,1.7c-0.9,0.1-0.3-1.1-0.7-1.3
					c-0.2-0.1-0.6,0-0.9,0c-0.4,0-0.2-0.3-0.5-0.3c-0.4-0.1-2,0.9-2,0.9c-0.1-0.2,0.4-0.5,0-0.7c-0.2-0.1-0.5,0-0.7,0.1
					c-0.2,0.1-0.9,1-1.2,1c-0.5-0.1-0.4-0.9-0.8-1.1c-0.5-0.3-0.9,0.2-0.9,0.5C65.3,98.9,65.6,98.6,65.7,99z"/>
				<path class="st6" d="M92.6,98.7c0.1,0.4,0.8,0.8,1.2,0.5c0,0,0.1,0,0.1-0.1l-0.3-1.1c0.1,0.2,0,0.4-0.2,0.6
					C93.7,98.4,92.4,97.8,92.6,98.7z"/>
				<path class="st6" d="M96,96.9c0.1-0.2,0.3-0.8-0.2-0.7C95.4,96.4,95.5,97.1,96,96.9z"/>
				<path class="st6" d="M95,100.3c0,0,0.4-0.5,0.6-0.5c0.5-0.1,0.8,0,1.3-0.2c0.4-0.2,0.8-0.4,1.1-0.7c0.1-0.1,0-0.5,0.1-0.5
					c0.1,0,0.7,0.5,0.8,0.4c0.2-0.3,0-0.9,0-1.2L98.2,96c-0.5,0.1-0.3,1.3-0.7,1.3c-0.3,0,0.1-1.4-0.7-1.1c0.5,0.9-0.5,0.5-0.7,1
					c-0.1,0.5,0.9,1-0.4,1.3c-0.9,0.2-0.2-0.6,0-0.9c0.2-0.4-0.9-0.8-1.2-1c-0.4,0.1-0.4,1.5-0.4,1.7c0,0.5,0.3,1.5-0.6,1.7
					C94.5,99.8,94.6,99.8,95,100.3z"/>
				<path class="st6" d="M100.4,98.8c0.5-0.1,1.3-0.5,1.6-0.9c0.3-0.4,0-0.8,0.1-1.1c0.1-0.2,1.4,0.8,1.6,0.7c0.4,0,0.8-0.3,1-0.5
					c0.5-0.3,1.1-0.6,1.7-0.8c0.8-0.3,1.5-0.3,1.8-1.2c0-0.1-0.7-1.8,0.1-1.7c0.1,0,0.1,0.6,0.2,0.7c0.2,0.2,0.5,0.2,0.7,0.2
					c0.9-0.1,2-0.7,2.8-1.3c0.3-0.2,1.1-0.8,1.2-1.2c0.1-0.6-0.7,0.2-0.7,0.3c-0.1,0.1-0.2-0.7-0.2-0.8c-0.2-0.3-0.4-0.8-0.7-1.1
					c-0.3-0.2-0.6,0.4-0.8,0.3c-0.3-0.2-0.4-0.3-0.9,0.1c-0.6,0.6-1,0.9-0.6,1.5c0.1,0.2,0.5,0.5,0.8,0.1c0.1-0.4,0.4,0.3,0.4,0.4
					c0,0.1-0.1,1-0.5,1c-0.1,0-0.1-0.6-0.1-0.6c-0.1-0.3-0.5-0.5-0.9-0.5c0,0-0.5,0.1-0.9,0.1c-0.4,0-0.7-0.1-0.4-0.4
					c0.1-0.1,0.6-0.1,0.7-0.4c0.1-0.2-2.1,0.6-1.1,1c0.2,0.3-0.2,0.3-0.4,0.6c-0.4,0.4-0.1,0.2,0,0.5c0-0.1-1.3-0.2-1.5-0.3
					c-0.7,0-1.3,0.3-1.9,0.6c-1.4,0.1,0.2,0.9,0.3,1.4c0,0.1-0.3,0.2-0.4,0.3c-0.2,0.1-0.3-0.3-0.3-0.4c-0.2-0.3-0.7-0.7-1.1-0.2
					c-0.4,0.4-0.4,1-0.8,1.5c-0.7,0.3-0.4,0.7-1,1c-0.2,0.1,0.2-1.2,0.2-1.3c0-0.3-0.2-0.9-0.6-0.9c-0.7,0-0.9,0.6-0.6,0.9
					c0.2,0.2,0.6,0.2,0.7,0.4c0.1,0.2-0.3,0.3-0.4,0.2c-0.5,0.2-0.6,0.6-0.4,1C99.5,98.6,99.9,98.9,100.4,98.8z"/>
				<path class="st6" d="M116,89.4C116.1,89.9,115.9,88.4,116,89.4L116,89.4z"/>
				<path class="st6" d="M114.9,89.9c0.4-0.3,0.2,0.4,0.5,0.4c0.4-0.1,0.6-0.7,0.5-0.9c0-0.4-0.7-2.1-1.2-1.1
					c-0.2-0.2-0.3-0.5,0.1-0.8c-0.4-0.3-1.3,1.3-1.4,1.5c-0.5,0.9-0.7,1.7-0.2,2.3C114.3,92.2,114.1,90.5,114.9,89.9z"/>
				<path class="st6" d="M123.2,80.8c0.2,0.1,0.2,0.1,0.4-0.2l0.1-0.3C123.6,80.3,123.3,80.5,123.2,80.8z"/>
				<path class="st6" d="M125.7,70.5C125.7,70.5,125.7,70.5,125.7,70.5c-0.2-0.2-0.3-0.3-0.3-0.3c-0.2-0.3-0.4-0.5-0.5,0.2
					c-0.1,0.4,0.8,0.6,1,0.4C125.9,70.8,125.8,70.6,125.7,70.5z"/>
				<path class="st6" d="M125.7,70.5c0.1,0.1-0.3-0.4-0.3-0.3L125.7,70.5C125.6,70.5,125.6,70.5,125.7,70.5z"/>
				<path class="st6" d="M124.2,70.2c0.1-0.4,0.4-0.7,0.4-1.1C124.3,68.3,124.3,69.9,124.2,70.2z"/>
				<path class="st6" d="M115.3,87.4c0.5-0.5,1.2,0,1.4-0.4c0.2-0.4,0.2-0.7,0.3-1.1c0,0,0.4-0.8,0.4-0.6c0-0.3-0.1-0.5-0.4-0.6
					c0.4,0.3,0.7,0.4,1.2,0.5c0-0.5-0.3-1.6,0.3-2c0.4-0.3,1.2-0.1,1,0.5c0,0,0,0.4,0.2,0.1c0.2-0.1,0.2-0.5,0.2-0.6
					c0-0.3,0-0.9-0.3-1c-0.4-0.1-0.6-0.7-0.1-1.2c0.3-0.4,0.9,0.2,1.3,0c0.2-0.1,0.3-0.8,0.2-1.1c-0.3,0.1-0.6,0.2-0.8,0
					c-0.4-0.5,0-1,0.5-0.7c-0.2-0.1-0.3-0.4-0.1-0.6c0.2-0.2,0.7-0.1,0.9-0.1c0.7,0.2,1.4,0.5,2.1,0.7c-0.5-0.2-0.5-1.4-1-1.3
					c-0.2,0-0.7,0.3-0.9,0.1c-0.2-0.2,0.5-0.6,0.5-0.6c0.5-0.2,1.4,0.1,1.5-0.8c0.1-0.5-1.4,0.4-1.5,0.4c-1.1,0.6-0.3-0.7-0.1-1.1
					c0.2-0.4,0-1.1,0.4-1.5c0.2-0.2,0.7,0,0.8,0c0.2,0,1.3,0,1.5-0.5c0.1-0.3-1.3-0.2-1.3-0.3c0-0.1,0.4-0.1,0.3-0.4
					c-0.1-0.2-0.6,0-0.7-0.1c-0.7-0.5,0.3-0.9,0.7-0.8c-0.4-0.1-0.9-0.5-0.2-0.7c0.6-0.2,1.9-0.4,2.4-0.2c0,0-0.2-0.8-0.2-0.8
					c-0.2-0.5-0.5-0.8-0.8-1.1c-0.5,0.3-0.4,0-0.1-0.4c0.3-0.4,0.6-0.8,0.6-0.8c0,0-1.2,0.6-0.6-0.3c0.2-0.3-0.2-0.8-0.2-1.2
					c0-0.4,0.6-0.5,0.6-0.9c0,0.4-1.7,0.1-1-0.7c0.4-0.5,1.4-0.5,1.9-0.7l-0.7-0.7c-0.1-0.2-0.5-0.6-0.7-0.5c0,0,0,0.6-0.1,0.8
					c-0.2,0.3-0.2-0.1-0.2-0.6c0-0.5,0.1-1,0.1-1.1c0-0.3-0.1-1.5,0.3-1.3c1.5,0.6-0.5-1.9-0.2-2.6c0.2-0.4,1.1-0.3,1.3-0.4
					c0.5-0.1,1.4-0.3,1.7,0.5c0.3,0.7,0.1,0.7-0.4,0.7c-0.3,0-0.6,1.3-0.8,1.1c0.3,0.4,0.9,0.4,1.3,0.6c-0.2,0-2.1,0.3-1.6,0.7
					c0.5,0.3,1.1,0.2,1.4,0.8c0.2,0.5,0.4,2.1-0.3,2c0.6-0.1,0.2,0.8-0.1,1c-0.1,0.1-1,0.8-0.5,1c0.4,0.1,0.9,0.3,0.5,1.1
					c-0.4,0.9,0,0.5-0.1,1.4c-0.7,0.9-0.7,3.4-1,4.5c-0.1,0.4-0.3,1-0.6,1.2c-0.1,0.1-0.6-0.3-0.6-0.3c-0.1,0.3,0.3,0.9,0.3,1.2
					c0,0.6-0.5,1-0.8,1.4c-1,0.3-0.2,0.4-0.1,0.8c0,0.2-0.1,0.6-0.2,0.8c-0.2,0.3-0.3-0.2-0.4-0.2c-0.1,0,0.1,1.1-0.1,1.3
					c-0.4,0.7-1.3,0.9-1.9,1.3c-0.9,0.6,0.4,0.7,0.6,0.8c0.5,0.3-0.8,0.9-0.6,1.3c-0.7-0.4-1.1,1.8-1.3,1.7
					c-0.4-0.1-0.5-0.6-1.2-0.2l-1,0.5c0.4,0.1,0.8,0.2,1.3,0.2c0.1,0,0.6-0.1,0.6,0.1c-0.1,0.3-0.3,0.3-0.5,0.2
					c-0.1,0.1-0.5,0.8-0.7,0.8c-0.4-0.1-0.4-0.1-0.8,0.3c-0.1,0.3-0.2,0.7-0.4,0.5c-0.6,0.9-0.2,0.2,0,0.8c-0.1-0.2-1.7,1.6-1.5,0.2
					c-0.3-0.3-0.8-0.1-0.7-0.6l-0.4-0.3C115.5,87.5,115.4,87.5,115.3,87.4z M122,80.6c0.4-0.4,0.1-0.7-0.2-0.8c-0.1-0.1-0.3,0-0.4,0
					C121.6,80.1,121.5,80.9,122,80.6z"/>
				<path class="st6" d="M126.7,52.8c0.2,0.1,0.5,0,0.7-0.3C127.4,52,126.3,52.7,126.7,52.8z"/>
				<path class="st6" d="M127.6,54.9c-0.1-0.2-0.2-0.2-0.4-0.3c-0.1-0.1-0.3-0.2-0.4-0.3l0,0c-0.1-0.2-0.1-0.4,0-0.3
					c0.1,0,0.3,0.2,0.5,0.1c0.2,0,1-0.7,0.5-0.9c-0.3-0.2-0.9,0-1.2,0c-0.9,1.2-0.4-0.8-0.4-0.8c-0.2,0.1-0.5,0.1-0.8,0.1
					c-0.1-0.1-0.1-0.1-0.2-0.2c-0.2-0.2-0.6-0.5-0.7-0.2c-0.3,0.5,0.1,0.7,0.4,0.7c0.1,0,1,0.2,0.6,0.6c-0.3,0.3-0.7-0.1-1,0.3
					c-0.1,0.1-0.1,0.2-0.1,0.3c0,0.2,0,0.3,0,0.5c0,0.1,0.1,0.3,0.1,0.4c0,0.1,0.1,0.2,0.1,0.2c0.3,0.6,0.3,1.3,0.4,1.9
					c0.2,0.9,1.3,0.6,1.7,0.4C127.4,57.1,128.3,55.9,127.6,54.9z"/>
				<path class="st6" d="M125.3,52.4c0.1,0.1,0.1,0.1,0.2,0.2C125.7,52.5,124.9,52,125.3,52.4z"/>
				<path class="st6" d="M125.7,42.3c-0.3-0.3-1.2-0.1-0.9,0.3C125.1,42.8,125.8,42.8,125.7,42.3z"/>
				<path class="st6" d="M126,40.2c-0.4-0.8-1.3,0.1-1.1,0.7C125.1,41.4,126.5,40.8,126,40.2z"/>
				<path class="st6" d="M126,40.2C126.3,40.5,125.7,39.6,126,40.2L126,40.2z"/>
				<path class="st6" d="M113.5,11.2c-0.8,0-0.4,1,0.1,0.7C114,11.8,114.1,11.3,113.5,11.2z"/>
				<path class="st6" d="M102,1.8l-0.3-0.1C100.9,1.8,101.8,2.6,102,1.8z"/>
				<path class="st6" d="M128,51.8c-0.1-0.3-0.6-1.6,0-1.3c0.4,0.2,0.4-1,0.4-1.3c0-1.1,0-2.2-0.2-3.2c-0.3-1,0.3-1.9,0.2-2.9
					c-0.1-0.9-1.3-0.8-0.5-1.4c0.5-0.1-0.1-1.9,0.1-1.8c0.5,0.1,0-2.3-0.1-2.9c-0.2-1,0.1-1.4-0.1-2.4c0,0.2-0.1,0.7-0.4,0.5
					c-0.2-0.1-0.2-1-0.3-1.2c-0.1-0.4-0.2,0-0.3-0.5c-0.1-0.3,0.1-0.7,0.3-0.8l0.1,0.7c0.3-0.7,0.3-1.2-0.1-1.9
					c-0.3-0.8,0.1-0.8-0.1-1.4c-0.2-0.8-0.8-1-1.2-1.5c-0.4-0.5,0.2-1,0.3-1.4c0.1-1.1-0.9-2-1.1-3.2c-0.2-0.7-0.1-0.7-0.5-0.4
					c-0.2,0.2-0.4-1.2-0.5-1.5c-0.4-1.1-0.6-0.9-0.1-1.5c0.2-0.2-0.7-0.8-0.9-0.8c-0.6-0.1-0.6,0.4-1-0.4c-0.1-0.8-0.4-0.4-0.6,0
					c-0.2,0.1-1.2,1-1.5,0.6c-0.3-0.5,0.8-0.8,1-0.9c0.1-0.1,0.9-0.4,1,0c0.4-0.1,1-0.8,0.1-0.9c-0.1-0.5,0.2-0.6-0.2-1.1
					c-0.5-0.2-0.9-0.8-1.2-1.3c-0.5-0.8-0.6-1.3-1.4-1.9c-0.3-0.2-0.6-0.4-0.8-0.3c0.2-0.3,0.4-0.8,0-1.3c-0.1-0.1-0.9,0.8-1,0.9
					c0.4-0.4,0.7-0.9,0.1-1.7c-0.4-0.5-1.3-1.4-1.7-1.2c0.1-0.3-0.2-0.8-0.5-1.2c-0.5-0.5-0.4-0.2-0.7-0.1c0,0-0.4-0.9-0.5-1
					c-0.3-0.2-1,0-1.3,0c-0.2,0-0.7,0.1-0.3,0.4c0.4,0.2,0.3,0.5,0.5,0.7c-0.5-0.4-1-0.7-1.2-1.3c-0.2-0.5,0.5-0.5,0.4-0.8
					c-0.2-0.5-1,0-1.2,0c-0.3,0-0.6-0.8-0.6-0.9c-0.4-0.8-1.5-1.5-2-0.9c-0.1,0.1-1.7-1-1.1-1.1c-0.3,0.1-0.4,0.4-0.8,0.3
					c-0.5-0.2-0.6-0.6-0.9-0.8C104.9,2.8,105,3.8,105,4c0.1-0.2-0.6-0.4-0.5-0.8c0-0.1,0.2-0.7-0.2-0.8c-0.2,0-0.3,0-0.4,0.1
					l-0.7-0.2c-0.1-0.1-0.2,0-0.3,0c-0.5,0.1-1,0.6-1.2,0.9c-0.2,0.2,0,0.7-0.5,0.6c0.1-0.4,0.2-0.8,0.2-1.2c0-0.3-0.3-0.2-0.5-0.4
					c-0.2-0.2,0.2-0.5-0.2-0.7c-0.1-0.1-0.8-0.2-0.8-0.1c-0.1,0.2,0.5,0.8,0.2,0.9c-0.3,0.2-0.7-0.2-0.8-0.4
					c-0.4-0.7,0.1-0.7-1.1-0.9c-1.6-0.2-1.1,0.7-0.8,1.6c0.3,0.5,0.2,1,0.2,1.5c-0.1,1,0.8-0.3,1-0.2c0.1,0,0,0.8-0.1,0.8
					c0.4,0.1,0.3-0.4,0.7-0.5c0.7-0.1,1.4,0.2,2.1,0.2c0.3,0,1.2-0.1,1.1,0.4c0,0.2-0.1,0.7-0.5,0.6c0.7,0.2,1.6,0.6,2.4,0.7
					c0.6,0.1,0.7-0.8,0.8-1.2c-0.1,0.4,0.6,0.4,0.8,0.4c0.2,0.1-0.1,0.6-0.1,0.6c-0.1,0.3,0,1.5,0.7,1.2c0.5-0.2,0.1-0.8,0.1-1.2
					c0-0.3,1-0.1,1,0.1c0,0-0.5,0.3-0.2,0.5c0.2,0.2,0.7,0,0.8,0.4c0.1,0.3,0.1,0.4,0,0.6c0.2-0.3,0.7-2.4,1.7-1.2
					c0.2,0.3-1.2,2-1,2.1c0.6,0.2,1-0.7,1.4-0.8c-0.2,0,0.1,1.2,0.2,1.3c0.5,0.8,0.2-0.9,0.1-0.7c0.1-0.2,0.7,0.3,0.8,0.2
					c0.2-0.3,0.3-0.1,0.7,0.2c0,0.3-0.3,1.3-0.8,0.6c-0.3,0.3,0,1.3,0.6,1.2c0.4-0.1,0.7-1.1,1.2-0.9c0,0-0.8,0.7-0.5,1.1
					c0.6,0.6,1.1-0.3,1.3-0.6c0.4,0.4-0.2,0.4,0.2,0.8c0.3,0.3,0.5,0.5,0.7,0.9c0.2,0.4,0.4,0.9,0.4,1.3c0,0.3-0.2,0.4,0.1,0.7
					c0.2,0.2,0.6,0.3,0.7,0.7c-0.1,0.1-0.1,0.2,0,0.3c0.4,0.3,0.6,0.4,1,0.6c0.2,0.2,1.1,0.5,1.1,0.9c0,0.1-0.5,0.3-0.5,0.3
					c0.1,0,1.1,0,1.1-0.1c0,0.5,0.7,0.6,0.7,0.9c0,0.4-0.6,0.7-0.8,0.9c0.2-0.1,0.3-0.2,0.6-0.1c-0.5-0.2,0.2,1.5,0.2,1.7
					c0.2,0.6,0.4,1.6,0.7,0.9c0.7-0.4,0.5,0.3,1.3,0.4c0.1,0,0.7,0.2,0.6,0.5c-0.1,0.3-0.4,0-0.5,0.1c-0.2,0.3,0.7,0.8,0.3,1.1
					c-0.3,0.2-0.6,0.1-0.5,0.5c0.1,0.3-0.4,0.3-0.1,0.9c0.3,0.3,0.5,0.4,0.4,0.9c0.3-0.1,1.4-0.4,1.4-0.9c-0.1-0.7,0.9-1,0.7-0.1
					c-0.6,1,0.6,0.2,0.8,1.1c0.1,0.4-0.2,0.5-0.4,0.6c-0.4,0.1-0.3-0.6-0.6-0.6c-0.1,0-1.1,1.2-1.2,1.1c0.1,0.2,1.1,0,0.8,0.5
					c-0.1,0.2-0.2,0.4-0.3,0.7c0.3-0.1,0.8,1,0.5,1.2c-0.2,0.2-0.8,0.1-0.7,0.6c0.4-0.1,0.2,0.5,0.5,0.5c0.2,0,0.4-0.1,0.5-0.3
					c0-0.1,0-0.3,0-0.4c0.3,0,1.4,0.7,1.7,1c-0.3,0.1-0.7,0.3-0.8,0.6c0.2,0.7-0.3,0.6-0.3,0.9c0.1,0.5,1.6,0.2,1.8,1.4
					c-0.2-0.8-1.4-0.3-1.8-0.1c-0.5,0.3,0,0.6,0.3,0.5c-0.3,0.1-1.6,0.5-0.6,0.8c1.4,0.3-0.2,0.4,0.3,1c0.6,0.9,0.9,0.1,0.8-0.6
					c-0.1-0.6,1,0,1.2,0.1c-0.2,0.3-0.4,0.8-0.7,1.1c-0.3,0.2-0.6,0.2-0.9,0.4c-0.2,0.2-0.4,0.7-0.5,0.7l0.9-0.2
					c0,0-0.7,0.5-0.7,0.6c-0.2,0.3,0.1,0.7,0.3,0.8c-0.2,0-0.3,1.6-0.3,1.6c0.6,0.4,1.2-0.5,1.8-0.4c0.2,0,0.2,0.6,0.2,0.8
					c0,0.2-0.3,0.1-0.4,0.3c-0.4,0.6,0.5,0.7,0.7,0.9c0.1,0.1,0.2,1.1,0.1,1.1c-0.1,0-0.5-0.9-0.9-0.9c-0.2,0-1.1,0.6-1.1,0.6
					c0.2,0.2,1.4,0.5,1.6,0.5c0.3,0.3,0.1,1-0.2,1c-0.3,0-1.4,0.2-1.2,1c0.1,0.3,0.3,0.6,0.1,1c-0.1,0.2-0.3,0-0.3,0
					c-0.2,0.4,0.8,1.2,1,1.5c0.1,0.2-0.4,1-0.5,1.2c0,0.3-0.6,0.8,0.1,0.9c0.4,0.1,0.9-0.2,0.9,0.7c-0.5,0-1.8-0.4-1.4,0.7
					c0,0.8,1.6,0.1,1.9,0.6c0.1,0.1-1.5,0.6-1.6,0.3c0.1,0.5,1.5,0.5,1.8,0.8C127.4,52.2,128.4,53,128,51.8z"/>
				<path class="st6" d="M81.2,3.6c-0.2,0.1-0.5,0.7,0.1,0.7C81.7,4.2,81.8,3.5,81.2,3.6z"/>
				<path class="st6" d="M75.6,0.7C75.9,0.5,75,1,75.6,0.7L75.6,0.7z"/>
				<path class="st6" d="M96,3.5c0.4,0,0.5-1,0.3-1c0,0-1.5,0.1-0.8-0.4c0.2-0.1,0.5,0.1,0.7-0.1c0.3-0.4-0.1-1-0.6-1.3
					c-0.7-0.3-1.9-0.4-2.6-0.2c-0.4,0.1-0.5,1.1-1.2,0.6c-0.3-0.2,0-0.5-0.3-0.7c-0.3-0.2-0.9-0.1-1.2-0.1c-0.7,0.1-0.6,0.4-1.1,0.5
					c-0.5,0.2-0.7,0-1.2-0.1c-0.2,0-1-0.1-1.7-0.1c-0.1,0-0.2,0-0.3,0c-0.1,0-0.3,0-0.4,0c-0.2,0.1-0.4,0.2-0.3,0.3
					c0,0.1,0,1-0.4,0.7c-0.3-0.3-0.1-0.6-0.4-0.9c0.1,0.2-0.6,0.7-1,0C83.4,0.5,83.2,1,82.9,1c-0.6,0-0.9-0.4-1.4-0.5
					c-0.3,0-0.3,0.5-0.6,0.3c-0.5-0.2-0.9-0.5-1.5-0.4c-0.4,0-0.7,0.4-0.8,0.4c-0.5,0-1-0.2-1.6-0.2c-0.6,0-0.9-0.3-1.3,0.1
					c-0.2,0.1-0.4,0.2-0.5,0.3c0,0,0.5-0.1,0.7,0c0.3,0.2,0.5,0.4,0.7,0.7c0.3,0.4,0.9,0.9,1,1.4c0.1,0.3,0.2,0.6,0.6,0.7
					c0.3,0.1,0.4-0.5,0.5-0.6c0.4-0.4,0.7,0.3,1,0.2c0.1,0,0.3-0.3,0.2-0.4c0.3,0.2,0.5,0.6,0.9,0.6c0,0,0.8-1.4,1.1-1.5
					c1.1-0.6,0.3,0.5,0.6,0.5c0.1,0,0.4-0.5,0.7-0.5c0.3-0.1,0.4,0.2,0.5,0.3l0.5,1c0.1-0.1,1.1-1,1.2-0.9c0.6,0.4-0.9,1.1-0.7,1.3
					c0.1,0.1,0.7-0.1,1.2-0.2c0.1,0,0.3,0,0.5-0.1c0.2,0,0.2-0.1,0.3-0.1c0.2,0,0.3,0.1,0.3,0.3l-0.2-1c0.7-0.1,0.2,0.8,1.1,0.4
					c0.4-0.2,0.6-0.2,0.5-0.6c0.2-0.1,0.9-0.1,1.2-0.1c-1.1,0.1-0.9,1.1,0.1,0.6c0.3-0.2,0.5,0.3,0.7,0.3c0.6,0.1,0.9-0.2,1.4-0.2
					c0.2,0,1.3,0.8,1.5,0.2c0.1-0.2-0.2-0.7-0.1-0.8c0.2-0.1,0.8,0.3,0.9,0c0-0.1-0.3-0.2-0.1-0.3c0.2-0.1,1.3,1,1.3,1.2
					c-0.5,0-1.3-0.7-1.3,0.2c0,0,0.3,0.1,0.7,0.2c0.3,0.1,0.7,0.2,0.8,0.2c0.4,0,0.8-0.1,0.8,0.3c0.3,0,0.3,0.1,0.6,0
					C97.5,3.9,96.4,3.4,96,3.5z"/>
				<path class="st6" d="M53.5,3.4C53.5,3.2,53.2,3.4,53.5,3.4L53.5,3.4z"/>
				<path class="st6" d="M75.4,3.6c-0.4,0-1.9-0.6-0.9-0.7c0.6,0.4,1-1.2,1.2-0.7c0.1,0.3,0.2,0.7,0.8,0.6c0.2,0,0.5,0,0.5-0.2
					c-0.1-0.7-1.6-0.7-2.1-1.1c-0.3-0.3,0-1-0.7-1c-0.4,0-0.9,0-1.3,0.1c-0.4,0.1-1.1,0.4-1.5,0.2c-0.3-0.1-0.3-0.2-0.8,0.1
					c0.2,0-0.9,0.1-0.7-0.1c-0.1,0.1-0.4,0.5-0.4,0.5c-0.2-0.1,0.3-0.7,0-0.8c-0.2-0.1-0.8,0.2-0.9,0.3c-0.4,0.2-0.7,0.8,0.1,0.6
					c0,0.5-0.5,0-0.7,0.2c-0.1,0.1,0.3,0.8,0.2,0.9c-0.7,0-0.4-1-0.6-1.2c-0.3-0.2-0.6-0.4-1-0.6c-0.1,0-0.7-0.1-1.2-0.2
					c-0.5-0.1-1-0.2-1-0.2c0,0,0.3,0.7,0.3,0.9c-0.7,0-0.5-0.6-1-0.7c-0.6-0.1-1,0.2-1.3,0.5C62,1.3,61.7,1.2,62,0.9
					c0-0.3-0.8-0.2-1-0.2c-0.3,0-1.1,0-1.3,0.2c-0.1,0.1-0.2,0.7-0.5,0.4c-0.7-0.7-1-0.6-0.8,0.2c-0.6,0-0.2-0.5-0.4-0.7
					c-0.3,0-1-0.3-1.3-0.3c-0.3,0.1,0.4,1.2-0.7,0.8c-0.6-0.2-0.2-0.6-1.1-0.6c-0.6,0-0.3,0.5-0.9,0.8c-0.1,0.1-0.6,0.7-0.4,0.8
					c0.3,0.1,1.6,0.2,1.4,0.7c-0.1,0.4-1.5,0-1.5,0.5c-0.4,0-0.3,0.5-0.3,0.9c0-0.2,0.1-0.4,0.3-0.5c-0.4,0.3,0.8,0.7,1.2,0.6
					c0.7-0.1,1.3-0.4,1.7-0.8c0.4-0.3,0.4-1,1.1-0.6c0.4,0.5,1,0.3,1-0.2c0.2,0.3,0.6,0.6,1,0.5c-0.4,0-1.4,0.5-0.5,0.5
					c0.4,0,0.9,0.2,1.3,0.2c0.4,0,0.3-1.6,1.1-1.2C62,3.2,61,4.6,62.7,4.1c0.5-0.1,0.2-0.6,0.2-0.9c0-0.3,0.4-0.4,0.3-0.8
					c0.5,0,0.4,0.7,0.4,0.9c-0.2,0.3-0.1,0.6,0,0.9c0.1,0.2,0.5-0.1,0.5-0.2c0-0.4-0.7-1,0.2-1.2c0.3-0.1,0.7,0,0.9,0.2
					c-0.4,0-1,0.8-0.5,0.8c0.1,0,0.5-0.3,0.6-0.1C65.3,4.2,65.4,4,65.9,4c0.5,0,0.2,0.3,0.7,0.3c0.3,0,3.2-0.5,2.9-0.7
					c0.1,0.1,0,0.3,0.1,0.4c0.2,0.1,0.7,0.1,0.9,0.1c0.6,0,1.1,0.2,1.7,0.2c0.3,0,0.5-0.8,0.8-0.5c0.2,0.2,0.9,0.6,0.9,0.2
					c0.2,0.4,1.8,0.1,2.2,0.2c0.7,0.3,1.1-0.9,0.6-1.2C77.2,3.2,75.6,3.6,75.4,3.6z"/>
				<path class="st6" d="M53.3,4.5c0,0,0-0.1,0-0.2C53.2,4.3,53.3,4.4,53.3,4.5z"/>
				<path class="st6" d="M46.5,3.3l-0.3,0c0.2,0.2,0.4,0.3,0.7,0.2C46.8,3.3,46.8,3.2,46.5,3.3z"/>
				<path class="st6" d="M43.5,3.6l-0.3,0C43.3,4.7,44.4,3.6,43.5,3.6z"/>
				<path class="st6" d="M52.8,0.6c-0.6-0.1-1-0.1-1.6,0c-0.2,0-0.9,0.4-1,0.1c-0.2,0.2-1.1,0.4-1.1,0.2c0-0.1,0.5-0.3,0.6-0.2
					c-0.6-0.2-1.8-0.1-2.4-0.1c-0.8,0-2.1-0.1-2.3,0.5c0,0.1-0.4-0.3-0.4-0.4c-0.8,0.6-1.9-0.2-2.6-0.1c-0.5,0.1-0.6,1.4-0.8,2
					c0,0,0,0-0.1,0.2c-0.3,0.3-0.3,0.7-0.2,1c0.4,0,0.4-0.5,0.7-0.6c0.6-0.3,0.5,0.3,0.7,0.5c0.2,0.2,1-0.6,1.1-0.6
					c0.4-0.2,0.7,0,1-0.1c-0.1,0,0.3-1.2,0.7-0.8c0.1,0.2,0.3,1.1-0.2,1.1c-0.5,0.8-0.3,1.2,1,1c0.3,0,2.3-0.2,2.4-0.4
					c0-0.4-1.1-0.2-1.5-0.2c-0.8-0.1-0.8-0.3-0.4-0.7c0.3-0.2-1.1-0.5-0.8-0.8c0.1-0.1,0.8,0.3,0.9,0.3c0.4,0.1,0.7-0.1,0.9-0.1
					c0.3,0,0,0.5,0.5,0.5c0.4,0,0.4-0.2,0.7-0.1c0.3,0.1,1.1,1.1,1.3,1c0.1,0,0.1-0.5,0.1-0.6c0.2-0.3,0.5-0.3,0.7-0.5
					c0.1-0.2,0.4-0.8,0.6-1c0.3-0.2,0.6,0.4,0.6,0.4c0,0-0.2-0.7-0.2-0.9c0-0.2,0.3-0.4,0.2-0.6c0,0.4,0,0.9,0.4,1.2
					c0,0,0.2,0.1,0.4,0.2c0.2,0.1,0.3,0.3-0.1,0.4c-0.3,0.1-0.4-0.2-0.8,0c-0.3,0.1-0.6,0.4-0.7,0.6C51,3.3,50.6,4.4,51,4.4
					c0.2,0,0.5-1,0.5-1.1c0.2,0.2,0.9,1,1.2,1c0.4,0,0.1-0.9,0.1-1.1c-0.3,0,0.3-0.6,0.3-0.7C53.3,2.1,53.7,0.7,52.8,0.6z"/>
				<path class="st6" d="M41.1,2.8c0,0,0-0.1,0.1-0.2C41.1,2.6,40.9,3,41.1,2.8z"/>
				<path class="st6" d="M41.3,1.8c-0.9-0.2-0.5-0.3-0.6-0.9c-0.1-0.4-0.8-0.2-1.2-0.2c-1,0.1-3,0.1-2.7,1.1c-0.7,0,0-0.5-0.4-0.7
					c-0.7,0-0.6,0.9-0.5,1.3c0.2,0.5,1,0.8,1,0c0,0.2,1.1,2,1.5,1.7C38.2,3.4,38,2,39.4,1.9c0,0.2,0,0.4-0.1,0.6c0,0,0,0-0.1,0
					c0,0,0,0,0.1,0C39.2,3,39,3.4,39.1,3.8c0.1,0.7,0.7-0.8,0.4-1.2c0.4,0.2,1,0.8,1,0.4c0-0.3,0-0.6,0.3-0.9
					C40.8,2.2,41.5,1.9,41.3,1.8z"/>
				<path class="st6" d="M34.2,4.1c0.4,0.4,0.7,0.1,0.6-0.3l-0.3,0C34.4,3.9,34.3,4,34.2,4.1z"/>
			</g>
		</g>
	</g>
</g>
</svg>
