<?xml version="1.0" encoding="utf-8"?>
<!-- Generator: Adobe Illustrator 25.3.1, SVG Export Plug-In . SVG Version: 6.00 Build 0)  -->
<svg version="1.1" xmlns="http://www.w3.org/2000/svg" xmlns:xlink="http://www.w3.org/1999/xlink" x="0px" y="0px"
	 viewBox="0 0 170.2 65.6" style="enable-background:new 0 0 170.2 65.6;" xml:space="preserve">
<style type="text/css">
	.st0{display:none;}
	.st1{display:inline;}
	.st2{clip-path:url(#SVGID_2_);enable-background:new    ;}
	.st3{clip-path:url(#SVGID_4_);fill:#4285F4;}
	.st4{clip-path:url(#SVGID_6_);fill:#EA4335;}
	.st5{clip-path:url(#SVGID_8_);fill:#EA4335;}
	.st6{clip-path:url(#SVGID_10_);fill:#EA4335;}
	.st7{clip-path:url(#SVGID_12_);fill:#FABB04;}
	.st8{clip-path:url(#SVGID_14_);fill:#FABB04;}
	.st9{clip-path:url(#SVGID_16_);fill:#FABB04;}
	.st10{clip-path:url(#SVGID_18_);fill:#FABB04;}
	.st11{clip-path:url(#SVGID_20_);fill:#4285F4;}
	.st12{clip-path:url(#SVGID_22_);fill:#4285F4;}
	.st13{clip-path:url(#SVGID_24_);fill:#4285F4;}
	.st14{clip-path:url(#SVGID_26_);fill:#4285F4;}
	.st15{clip-path:url(#SVGID_28_);fill:#4285F4;}
	.st16{clip-path:url(#SVGID_30_);fill:#4285F4;}
	.st17{clip-path:url(#SVGID_32_);fill:#EA4335;}
	.st18{clip-path:url(#SVGID_34_);fill:#EA4335;}
	.st19{clip-path:url(#SVGID_36_);fill:#EA4335;}
	.st20{clip-path:url(#SVGID_38_);fill:#EA4335;}
	.st21{clip-path:url(#SVGID_40_);fill:#EA4335;}
	.st22{clip-path:url(#SVGID_42_);fill:#EA4335;}
	.st23{clip-path:url(#SVGID_44_);fill:#EA4335;}
	.st24{clip-path:url(#SVGID_46_);fill:#EA4335;}
	.st25{clip-path:url(#SVGID_48_);fill:#EA4335;}
	.st26{clip-path:url(#SVGID_50_);fill:#EA4335;}
	.st27{clip-path:url(#SVGID_52_);fill:#EA4335;}
	.st28{clip-path:url(#SVGID_54_);fill:#ADCAF9;}
	.st29{clip-path:url(#SVGID_56_);fill:#ADCAF9;}
	.st30{clip-path:url(#SVGID_58_);fill:#A8DAB5;}
	.st31{clip-path:url(#SVGID_60_);fill:#A8DAB5;}
	.st32{clip-path:url(#SVGID_62_);fill:#34A852;}
	.st33{clip-path:url(#SVGID_64_);fill:#A8DAB5;}
	.st34{clip-path:url(#SVGID_66_);fill:#34A852;}
	.st35{clip-path:url(#SVGID_68_);fill:#34A852;}
	.st36{clip-path:url(#SVGID_70_);fill:#0D642C;}
	.st37{clip-path:url(#SVGID_72_);fill:#4285F4;}
	.st38{clip-path:url(#SVGID_74_);fill:#4285F4;}
	.st39{clip-path:url(#SVGID_76_);fill:#4285F4;}
	.st40{clip-path:url(#SVGID_78_);fill:#4285F4;}
	.st41{clip-path:url(#SVGID_80_);fill:#4285F4;}
	.st42{clip-path:url(#SVGID_82_);fill:#ADCAF9;}
	.st43{clip-path:url(#SVGID_84_);fill:#164EA6;}
	.st44{clip-path:url(#SVGID_86_);fill:#164EA6;}
	.st45{clip-path:url(#SVGID_88_);fill:#ADCAF9;}
	.st46{clip-path:url(#SVGID_90_);fill:#4285F4;}
	.st47{clip-path:url(#SVGID_92_);fill:#164EA6;}
	.st48{clip-path:url(#SVGID_94_);fill:#164EA6;}
	.st49{clip-path:url(#SVGID_96_);fill:#164EA6;}
	.st50{clip-path:url(#SVGID_98_);fill:#164EA6;}
	.st51{clip-path:url(#SVGID_100_);fill:#0D642C;}
	.st52{clip-path:url(#SVGID_102_);fill:#0D642C;}
	.st53{clip-path:url(#SVGID_104_);fill:#0D642C;}
	.st54{clip-path:url(#SVGID_106_);fill:#0D642C;}
	.st55{clip-path:url(#SVGID_108_);fill:#0D642C;}
	.st56{clip-path:url(#SVGID_110_);fill:#0D642C;}
	.st57{clip-path:url(#SVGID_112_);fill:#164EA6;}
	.st58{clip-path:url(#SVGID_114_);fill:#164EA6;}
	.st59{clip-path:url(#SVGID_116_);fill:#164EA6;}
	.st60{clip-path:url(#SVGID_118_);fill:#164EA6;}
	.st61{clip-path:url(#SVGID_120_);fill:#164EA6;}
	.st62{clip-path:url(#SVGID_122_);fill:#164EA6;}
	.st63{clip-path:url(#SVGID_124_);fill:#164EA6;}
	.st64{clip-path:url(#SVGID_126_);fill:#164EA6;}
	.st65{clip-path:url(#SVGID_128_);fill:#0D642C;}
	.st66{clip-path:url(#SVGID_130_);fill:#0D642C;}
	.st67{clip-path:url(#SVGID_132_);fill:#0D642C;}
	.st68{clip-path:url(#SVGID_134_);fill:#4285F4;}
	.st69{clip-path:url(#SVGID_136_);fill:#4285F4;}
	.st70{fill:#FFFFFF;}
	.st71{fill:#FFE183;}
	.st72{fill:#FCB913;}
	.st73{font-family:'GoogleSans-Regular';}
	.st74{font-size:15.1693px;}
</style>
<g id="Layer_1" class="st0">
	<g class="st1">
		<g>
			<defs>
				<rect id="SVGID_1_" width="140" height="48.9"/>
			</defs>
			<clipPath id="SVGID_2_">
				<use xlink:href="#SVGID_1_"  style="overflow:visible;"/>
			</clipPath>
			<g class="st2">
				<g>
					<g>
						<defs>
							<rect id="SVGID_3_" width="140.9" height="49"/>
						</defs>
						<clipPath id="SVGID_4_">
							<use xlink:href="#SVGID_3_"  style="overflow:visible;"/>
						</clipPath>
						<path class="st3" d="M125.2,39.6H65.5v-0.3h59.8c3,0,5.9-0.7,8.5-2c2.3-1.1,4.3-2.8,6-4.8l0.3,0.2c-1.7,2-3.8,3.7-6.1,4.8
							C131.2,39,128.3,39.6,125.2,39.6"/>
					</g>
					<g>
						<defs>
							<rect id="SVGID_5_" width="140.9" height="49"/>
						</defs>
						<clipPath id="SVGID_6_">
							<use xlink:href="#SVGID_5_"  style="overflow:visible;"/>
						</clipPath>
						<path class="st4" d="M65.5,19.9h5.1c0.6,0,1.1,0.1,1.6,0.3c0.5,0.2,0.9,0.4,1.2,0.7c0.3,0.3,0.6,0.6,0.8,1
							c0.2,0.4,0.3,0.8,0.3,1.2c0,0.7-0.2,1.3-0.5,1.7c-0.3,0.5-0.7,0.8-1.2,1V26c0.7,0.2,1.2,0.6,1.6,1.1c0.4,0.5,0.6,1.1,0.6,1.8
							c0,0.5-0.1,1-0.3,1.4c-0.2,0.4-0.5,0.8-0.9,1.1c-0.4,0.3-0.8,0.5-1.3,0.7c-0.5,0.2-1.1,0.2-1.7,0.2h-5.2
							C65.5,32.4,65.5,19.9,65.5,19.9z M70.3,24.9c0.5,0,0.9-0.1,1.1-0.3c0.3-0.2,0.4-0.5,0.4-0.9c0-0.4-0.1-0.7-0.4-0.9
							c-0.3-0.2-0.6-0.3-1.1-0.3h-2.2v2.5H70.3z M70.5,30c1.1,0,1.7-0.5,1.7-1.4c0-0.9-0.6-1.4-1.8-1.4h-2.2V30L70.5,30L70.5,30z"/>
					</g>
					<g>
						<defs>
							<rect id="SVGID_7_" width="140.9" height="49"/>
						</defs>
						<clipPath id="SVGID_8_">
							<use xlink:href="#SVGID_7_"  style="overflow:visible;"/>
						</clipPath>
						<rect x="76.7" y="19.9" class="st5" width="2.7" height="12.5"/>
					</g>
					<g>
						<defs>
							<rect id="SVGID_9_" width="140.9" height="49"/>
						</defs>
						<clipPath id="SVGID_10_">
							<use xlink:href="#SVGID_9_"  style="overflow:visible;"/>
						</clipPath>
						<polygon class="st6" points="81.2,29.7 87.4,22.5 81.5,22.5 81.5,19.9 90.6,19.9 90.6,22.6 84.5,29.8 90.7,29.8 90.7,32.4 
							81.2,32.4 						"/>
					</g>
					<g>
						<defs>
							<rect id="SVGID_11_" width="140.9" height="49"/>
						</defs>
						<clipPath id="SVGID_12_">
							<use xlink:href="#SVGID_11_"  style="overflow:visible;"/>
						</clipPath>
						<polygon class="st7" points="100.8,22.5 100.8,19.9 92.6,19.9 92.6,32.4 95.3,32.4 95.3,27.6 100.3,27.6 100.3,25 95.3,25 
							95.3,22.5 						"/>
					</g>
					<g>
						<defs>
							<rect id="SVGID_13_" width="140.9" height="49"/>
						</defs>
						<clipPath id="SVGID_14_">
							<use xlink:href="#SVGID_13_"  style="overflow:visible;"/>
						</clipPath>
						<polygon class="st8" points="105.4,22.5 105.4,24.7 110.3,24.7 110.3,27.3 105.4,27.3 105.4,29.8 110.9,29.8 110.9,32.4 
							102.6,32.4 102.6,19.9 110.9,19.9 110.9,22.5 						"/>
					</g>
					<g>
						<defs>
							<rect id="SVGID_15_" width="140.9" height="49"/>
						</defs>
						<clipPath id="SVGID_16_">
							<use xlink:href="#SVGID_15_"  style="overflow:visible;"/>
						</clipPath>
						<path class="st9" d="M114.7,28.1c0.2,0.6,0.4,1.1,0.7,1.5c0.4,0.4,0.8,0.6,1.5,0.6c0.2,0,0.4,0,0.6-0.1c0.2,0,0.4-0.1,0.5-0.2
							c0.1-0.1,0.3-0.2,0.4-0.4c0.1-0.2,0.1-0.3,0.1-0.5c0-0.2,0-0.4-0.1-0.6c-0.1-0.2-0.2-0.3-0.4-0.5c-0.2-0.1-0.4-0.3-0.7-0.4
							c-0.3-0.1-0.7-0.3-1.1-0.5l-0.8-0.3c-0.3-0.1-0.7-0.3-1-0.5c-0.3-0.2-0.7-0.4-0.9-0.7c-0.3-0.3-0.5-0.6-0.7-1
							c-0.2-0.4-0.3-0.8-0.3-1.3c0-0.5,0.1-1,0.3-1.4c0.2-0.4,0.5-0.8,0.8-1.1c0.4-0.3,0.8-0.6,1.3-0.8c0.5-0.2,1.1-0.3,1.7-0.3
							c0.7,0,1.2,0.1,1.7,0.3c0.5,0.2,0.9,0.4,1.2,0.6c0.3,0.3,0.6,0.6,0.8,0.9c0.2,0.3,0.3,0.6,0.4,0.9l-2.4,1
							c-0.1-0.4-0.3-0.7-0.6-0.9c-0.3-0.2-0.6-0.3-1.1-0.3c-0.5,0-0.8,0.1-1.1,0.3c-0.3,0.2-0.4,0.4-0.4,0.7c0,0.3,0.1,0.6,0.4,0.8
							c0.3,0.2,0.8,0.5,1.5,0.7L118,25c1.1,0.4,1.9,0.8,2.5,1.4c0.6,0.6,0.9,1.4,0.9,2.4c0,0.6-0.1,1.2-0.4,1.7
							c-0.3,0.5-0.6,0.9-1,1.2c-0.4,0.3-0.9,0.5-1.4,0.7c-0.5,0.2-1,0.2-1.5,0.2c-1.2,0-2.2-0.3-3-0.9c-0.8-0.6-1.4-1.5-1.8-2.7
							L114.7,28.1"/>
					</g>
					<g>
						<defs>
							<rect id="SVGID_17_" width="140.9" height="49"/>
						</defs>
						<clipPath id="SVGID_18_">
							<use xlink:href="#SVGID_17_"  style="overflow:visible;"/>
						</clipPath>
						<polygon class="st10" points="125.7,23.8 125.7,22.5 122.2,22.5 122.2,19.9 131.9,19.9 131.9,22.5 128.4,22.5 128.4,32.4 
							125.7,32.4 						"/>
					</g>
					<g>
						<defs>
							<rect id="SVGID_19_" width="140.9" height="49"/>
						</defs>
						<clipPath id="SVGID_20_">
							<use xlink:href="#SVGID_19_"  style="overflow:visible;"/>
						</clipPath>
						<path class="st11" d="M26.8,41.2c-2.4,0-4.4-2-4.4-4.4v-4.1c0-2.4,2-4.4,4.4-4.4c2.4,0,4.4,2,4.4,4.4v4.1
							C31.2,39.2,29.2,41.2,26.8,41.2 M26.8,29c-2.1,0-3.7,1.7-3.7,3.7v4.1c0,2.1,1.7,3.7,3.7,3.7c2.1,0,3.7-1.7,3.7-3.7v-4.1
							C30.5,30.7,28.9,29,26.8,29"/>
					</g>
					<g>
						<defs>
							<rect id="SVGID_21_" width="140.9" height="49"/>
						</defs>
						<clipPath id="SVGID_22_">
							<use xlink:href="#SVGID_21_"  style="overflow:visible;"/>
						</clipPath>
						<rect x="39.4" y="28.7" class="st12" width="0.7" height="12.2"/>
					</g>
					<g>
						<defs>
							<rect id="SVGID_23_" width="140.9" height="49"/>
						</defs>
						<clipPath id="SVGID_24_">
							<use xlink:href="#SVGID_23_"  style="overflow:visible;"/>
						</clipPath>
						<polygon class="st13" points="14.2,41.2 7.8,41.2 7.8,38.8 8.5,38.8 8.5,40.5 14.2,40.5 						"/>
					</g>
					<g>
						<defs>
							<rect id="SVGID_25_" width="140.9" height="49"/>
						</defs>
						<clipPath id="SVGID_26_">
							<use xlink:href="#SVGID_25_"  style="overflow:visible;"/>
						</clipPath>
						<path class="st14" d="M8.5,38.8H7.8c0-1.8,1.4-3.2,3.2-3.2c1.8,0,3.3-1.5,3.3-3.3c0-1.8-1.5-3.3-3.3-3.3H8.2v-0.7H11
							c2.2,0,4,1.8,4,4c0,2.2-1.8,4-4,4C9.6,36.3,8.5,37.4,8.5,38.8"/>
					</g>
					<g>
						<defs>
							<rect id="SVGID_27_" width="140.9" height="49"/>
						</defs>
						<clipPath id="SVGID_28_">
							<use xlink:href="#SVGID_27_"  style="overflow:visible;"/>
						</clipPath>
						<path class="st15" d="M52.4,41.2h-3.1v-0.7h3.1c2.1,0,3.7-1.7,3.7-3.7v-4.1c0-2.1-1.7-3.7-3.7-3.7v-0.7c2.4,0,4.4,2,4.4,4.4
							v4.1C56.8,39.2,54.8,41.2,52.4,41.2"/>
					</g>
					<g>
						<defs>
							<rect id="SVGID_29_" width="140.9" height="49"/>
						</defs>
						<clipPath id="SVGID_30_">
							<use xlink:href="#SVGID_29_"  style="overflow:visible;"/>
						</clipPath>
						<path class="st16" d="M52.4,37.1c-2.4,0-4.4-2-4.4-4.4c0-2.4,2-4.4,4.4-4.4V29c-2.1,0-3.7,1.7-3.7,3.7c0,2.1,1.7,3.7,3.7,3.7
							c2.1,0,3.7-1.7,3.7-3.7h0.7C56.8,35.2,54.8,37.1,52.4,37.1"/>
					</g>
					<g>
						<defs>
							<rect id="SVGID_31_" width="140.9" height="49"/>
						</defs>
						<clipPath id="SVGID_32_">
							<use xlink:href="#SVGID_31_"  style="overflow:visible;"/>
						</clipPath>
						<path class="st17" d="M56.5,24.2c-0.3-2.2-2.3-3.9-4.6-3.9h-38c-2.9,0-5.6-0.6-8.2-1.9c-2.2-1.1-4.2-2.7-5.7-4.5l0.3-0.2
							c1.5,1.8,3.5,3.4,5.6,4.5c2.5,1.3,5.2,1.9,8,1.9h38c2.4,0,4.5,1.8,4.9,4.2L56.5,24.2z"/>
					</g>
					<g>
						<defs>
							<rect id="SVGID_33_" width="140.9" height="49"/>
						</defs>
						<clipPath id="SVGID_34_">
							<use xlink:href="#SVGID_33_"  style="overflow:visible;"/>
						</clipPath>
						<path class="st18" d="M70,46.5h-2.1v0.4h1.7l0,0.1c0,0.5-0.2,0.9-0.6,1.1c-0.3,0.3-0.7,0.4-1.2,0.4c-0.5,0-1-0.2-1.3-0.6
							c-0.4-0.4-0.5-0.8-0.5-1.4c0-0.6,0.2-1,0.5-1.4c0.4-0.4,0.8-0.6,1.3-0.6c0.3,0,0.5,0.1,0.8,0.2c0.2,0.1,0.4,0.2,0.5,0.4
							l0.3-0.3c-0.2-0.2-0.4-0.3-0.7-0.4c-0.3-0.1-0.6-0.2-0.9-0.2c-0.6,0-1.2,0.2-1.6,0.7s-0.7,1-0.7,1.7c0,0.7,0.2,1.2,0.7,1.7
							c0.4,0.4,1,0.7,1.6,0.7c0.7,0,1.2-0.2,1.6-0.7c0.4-0.4,0.6-0.9,0.6-1.5C70,46.7,70,46.6,70,46.5"/>
					</g>
					<g>
						<defs>
							<rect id="SVGID_35_" width="140.9" height="49"/>
						</defs>
						<clipPath id="SVGID_36_">
							<use xlink:href="#SVGID_35_"  style="overflow:visible;"/>
						</clipPath>
						<polygon class="st19" points="75.9,44.8 75.9,44.4 73.3,44.4 73.3,48.8 75.9,48.8 75.9,48.4 73.8,48.4 73.8,46.8 75.7,46.8 
							75.7,46.4 73.8,46.4 73.8,44.8 						"/>
					</g>
					<g>
						<defs>
							<rect id="SVGID_37_" width="140.9" height="49"/>
						</defs>
						<clipPath id="SVGID_38_">
							<use xlink:href="#SVGID_37_"  style="overflow:visible;"/>
						</clipPath>
						<path class="st20" d="M83,44.9c-0.4-0.5-1-0.7-1.6-0.7s-1.2,0.2-1.6,0.7c-0.4,0.4-0.7,1-0.7,1.7c0,0.7,0.2,1.2,0.7,1.7
							c0.4,0.5,1,0.7,1.6,0.7c0.6,0,1.2-0.2,1.6-0.7c0.4-0.4,0.7-1,0.7-1.7C83.7,45.9,83.5,45.4,83,44.9 M82.7,48
							c-0.4,0.4-0.8,0.6-1.3,0.6c-0.5,0-1-0.2-1.3-0.6c-0.4-0.4-0.5-0.8-0.5-1.4c0-0.6,0.2-1,0.5-1.4c0.4-0.4,0.8-0.6,1.3-0.6
							c0.5,0,1,0.2,1.3,0.6c0.4,0.4,0.5,0.8,0.5,1.4C83.3,47.2,83.1,47.6,82.7,48"/>
					</g>
					<g>
						<defs>
							<rect id="SVGID_39_" width="140.9" height="49"/>
						</defs>
						<clipPath id="SVGID_40_">
							<use xlink:href="#SVGID_39_"  style="overflow:visible;"/>
						</clipPath>
						<path class="st21" d="M89.5,48.8H90L88.8,47l0.1-0.1l0,0c0.3-0.1,0.5-0.2,0.7-0.4c0.2-0.2,0.3-0.5,0.3-0.8
							c0-0.4-0.1-0.7-0.4-0.9c-0.3-0.3-0.6-0.4-1-0.4h-1.5v4.5h0.4V47h0.8L89.5,48.8z M87.5,44.8h1.1c0.3,0,0.5,0.1,0.7,0.3
							c0.2,0.2,0.3,0.4,0.3,0.6c0,0.3-0.1,0.5-0.3,0.7c-0.2,0.2-0.4,0.3-0.7,0.3h-1.1V44.8z"/>
					</g>
					<g>
						<defs>
							<rect id="SVGID_41_" width="140.9" height="49"/>
						</defs>
						<clipPath id="SVGID_42_">
							<use xlink:href="#SVGID_41_"  style="overflow:visible;"/>
						</clipPath>
						<path class="st22" d="M97.6,46.5h-2.1v0.4h1.7l0,0.1c-0.1,0.5-0.2,0.9-0.6,1.1c-0.3,0.3-0.7,0.4-1.2,0.4c-0.5,0-1-0.2-1.4-0.6
							c-0.4-0.4-0.5-0.8-0.5-1.4c0-0.6,0.2-1,0.5-1.4c0.4-0.4,0.8-0.6,1.4-0.6c0.3,0,0.5,0.1,0.8,0.2c0.2,0.1,0.4,0.2,0.5,0.4
							l0.3-0.3c-0.2-0.2-0.4-0.3-0.7-0.4c-0.3-0.1-0.6-0.2-0.9-0.2c-0.6,0-1.2,0.2-1.6,0.7c-0.4,0.4-0.7,1-0.7,1.7
							c0,0.7,0.2,1.2,0.7,1.7c0.4,0.4,1,0.7,1.6,0.7c0.7,0,1.2-0.2,1.6-0.7c0.4-0.4,0.6-0.9,0.6-1.5C97.6,46.7,97.6,46.6,97.6,46.5"
							/>
					</g>
					<g>
						<defs>
							<rect id="SVGID_43_" width="140.9" height="49"/>
						</defs>
						<clipPath id="SVGID_44_">
							<use xlink:href="#SVGID_43_"  style="overflow:visible;"/>
						</clipPath>
						<polygon class="st23" points="103.5,44.8 103.5,44.4 100.9,44.4 100.9,48.8 103.5,48.8 103.5,48.4 101.4,48.4 101.4,46.8 
							103.3,46.8 103.3,46.4 101.4,46.4 101.4,44.8 						"/>
					</g>
					<g>
						<defs>
							<rect id="SVGID_45_" width="140.9" height="49"/>
						</defs>
						<clipPath id="SVGID_46_">
							<use xlink:href="#SVGID_45_"  style="overflow:visible;"/>
						</clipPath>
						<polygon class="st24" points="109.1,44.4 106,44.4 106,44.8 107.3,44.8 107.3,48.8 107.8,48.8 107.8,44.8 109.1,44.8 						
							"/>
					</g>
					<g>
						<defs>
							<rect id="SVGID_47_" width="140.9" height="49"/>
						</defs>
						<clipPath id="SVGID_48_">
							<use xlink:href="#SVGID_47_"  style="overflow:visible;"/>
						</clipPath>
						<path class="st25" d="M116,44.9c-0.4-0.5-1-0.7-1.6-0.7c-0.6,0-1.2,0.2-1.6,0.7c-0.4,0.4-0.7,1-0.7,1.7c0,0.7,0.2,1.2,0.7,1.7
							c0.4,0.4,1,0.7,1.6,0.7c0.6,0,1.2-0.2,1.6-0.7c0.4-0.4,0.7-1,0.7-1.7C116.7,45.9,116.5,45.4,116,44.9 M115.7,48
							c-0.4,0.4-0.8,0.6-1.3,0.6c-0.5,0-1-0.2-1.3-0.6c-0.4-0.4-0.5-0.8-0.5-1.4c0-0.6,0.2-1,0.5-1.4c0.4-0.4,0.8-0.6,1.3-0.6
							c0.5,0,1,0.2,1.3,0.6c0.4,0.4,0.5,0.8,0.5,1.4C116.3,47.2,116.1,47.6,115.7,48"/>
					</g>
					<g>
						<defs>
							<rect id="SVGID_49_" width="140.9" height="49"/>
						</defs>
						<clipPath id="SVGID_50_">
							<use xlink:href="#SVGID_49_"  style="overflow:visible;"/>
						</clipPath>
						<polygon class="st26" points="124.8,44.4 123.9,48 123.8,48.3 122.7,45 122.3,45 121.3,48 121.2,48.3 120.2,44.4 119.7,44.4 
							121,48.8 121.4,48.8 122.5,45.5 123.6,48.8 124.1,48.8 125.3,44.4 						"/>
					</g>
					<g>
						<defs>
							<rect id="SVGID_51_" width="140.9" height="49"/>
						</defs>
						<clipPath id="SVGID_52_">
							<use xlink:href="#SVGID_51_"  style="overflow:visible;"/>
						</clipPath>
						<polygon class="st27" points="131.4,48.8 131.9,48.8 131.9,44.4 131.5,44.4 131.5,47 131.5,48.2 131.4,48 129.1,44.4 
							128.5,44.4 128.5,48.8 128.9,48.8 128.9,46 128.9,44.8 129.1,45 						"/>
					</g>
					<g>
						<defs>
							<rect id="SVGID_53_" width="140.9" height="49"/>
						</defs>
						<clipPath id="SVGID_54_">
							<use xlink:href="#SVGID_53_"  style="overflow:visible;"/>
						</clipPath>
						<rect x="57.6" y="0.1" class="st28" width="5.6" height="13.8"/>
					</g>
					<g>
						<defs>
							<rect id="SVGID_55_" width="140.9" height="49"/>
						</defs>
						<clipPath id="SVGID_56_">
							<use xlink:href="#SVGID_55_"  style="overflow:visible;"/>
						</clipPath>
						<rect x="101.5" y="0.1" class="st29" width="5.6" height="13.8"/>
					</g>
					<g>
						<defs>
							<rect id="SVGID_57_" width="140.9" height="49"/>
						</defs>
						<clipPath id="SVGID_58_">
							<use xlink:href="#SVGID_57_"  style="overflow:visible;"/>
						</clipPath>
						<rect x="8.1" y="0.1" class="st30" width="5.6" height="13.8"/>
					</g>
					<g>
						<defs>
							<rect id="SVGID_59_" width="140.9" height="49"/>
						</defs>
						<clipPath id="SVGID_60_">
							<use xlink:href="#SVGID_59_"  style="overflow:visible;"/>
						</clipPath>
						<path class="st31" d="M28.8,13.9V0.1c-2.7,0-4.9,2.2-4.9,4.9V9C23.9,11.7,26.1,13.9,28.8,13.9"/>
					</g>
					<g>
						<defs>
							<rect id="SVGID_61_" width="140.9" height="49"/>
						</defs>
						<clipPath id="SVGID_62_">
							<use xlink:href="#SVGID_61_"  style="overflow:visible;"/>
						</clipPath>
						<rect x="28.8" y="0.1" class="st32" width="6.2" height="13.8"/>
					</g>
					<g>
						<defs>
							<rect id="SVGID_63_" width="140.9" height="49"/>
						</defs>
						<clipPath id="SVGID_64_">
							<use xlink:href="#SVGID_63_"  style="overflow:visible;"/>
						</clipPath>
						<polygon class="st33" points="38.4,0.1 46.4,13.9 46.4,0.1 						"/>
					</g>
					<g>
						<defs>
							<rect id="SVGID_65_" width="140.9" height="49"/>
						</defs>
						<clipPath id="SVGID_66_">
							<use xlink:href="#SVGID_65_"  style="overflow:visible;"/>
						</clipPath>
						<polygon class="st34" points="54.3,0.1 46.4,0.1 46.4,13.9 						"/>
					</g>
					<g>
						<defs>
							<rect id="SVGID_67_" width="140.9" height="49"/>
						</defs>
						<clipPath id="SVGID_68_">
							<use xlink:href="#SVGID_67_"  style="overflow:visible;"/>
						</clipPath>
						<path class="st35" d="M13.7,0.1c3.8,0,6.9,3.1,6.9,6.9c0,3.8-3.1,6.9-6.9,6.9V0.1z"/>
					</g>
					<g>
						<defs>
							<rect id="SVGID_69_" width="140.9" height="49"/>
						</defs>
						<clipPath id="SVGID_70_">
							<use xlink:href="#SVGID_69_"  style="overflow:visible;"/>
						</clipPath>
						<path class="st36" d="M13.7,11.3v-0.2c2.3,0,4.2-1.9,4.2-4.2c0-2.3-1.9-4.2-4.2-4.2H11V6h-0.2V2.6h2.9c2.4,0,4.3,2,4.3,4.3
							S16.1,11.3,13.7,11.3"/>
					</g>
					<g>
						<defs>
							<rect id="SVGID_71_" width="140.9" height="49"/>
						</defs>
						<clipPath id="SVGID_72_">
							<use xlink:href="#SVGID_71_"  style="overflow:visible;"/>
						</clipPath>
						<rect x="63.1" y="0.1" class="st37" width="4.6" height="3.4"/>
					</g>
					<g>
						<defs>
							<rect id="SVGID_73_" width="140.9" height="49"/>
						</defs>
						<clipPath id="SVGID_74_">
							<use xlink:href="#SVGID_73_"  style="overflow:visible;"/>
						</clipPath>
						<rect x="97.9" y="0.1" class="st38" width="3.5" height="3.4"/>
					</g>
					<g>
						<defs>
							<rect id="SVGID_75_" width="140.9" height="49"/>
						</defs>
						<clipPath id="SVGID_76_">
							<use xlink:href="#SVGID_75_"  style="overflow:visible;"/>
						</clipPath>
						<rect x="107" y="0.1" class="st39" width="3.5" height="3.4"/>
					</g>
					<g>
						<defs>
							<rect id="SVGID_77_" width="140.9" height="49"/>
						</defs>
						<clipPath id="SVGID_78_">
							<use xlink:href="#SVGID_77_"  style="overflow:visible;"/>
						</clipPath>
						<rect x="63.1" y="7" class="st40" width="3.4" height="3.4"/>
					</g>
					<g>
						<defs>
							<rect id="SVGID_79_" width="140.9" height="49"/>
						</defs>
						<clipPath id="SVGID_80_">
							<use xlink:href="#SVGID_79_"  style="overflow:visible;"/>
						</clipPath>
						<path class="st41" d="M91,0.1c-2.8,0-5.2,2.3-5.2,5.2c0,2.8,2.3,5.2,5.2,5.2V3.6h4.6V0.1C95.6,0.1,91,0.1,91,0.1z"/>
					</g>
					<g>
						<defs>
							<rect id="SVGID_81_" width="140.9" height="49"/>
						</defs>
						<clipPath id="SVGID_82_">
							<use xlink:href="#SVGID_81_"  style="overflow:visible;"/>
						</clipPath>
						<path class="st42" d="M91,3.6v6.9h-4.6v3.4H91c2.8,0,5.2-2.3,5.2-5.2C96.2,5.9,93.9,3.6,91,3.6"/>
					</g>
					<g>
						<defs>
							<rect id="SVGID_83_" width="140.9" height="49"/>
						</defs>
						<clipPath id="SVGID_84_">
							<use xlink:href="#SVGID_83_"  style="overflow:visible;"/>
						</clipPath>
						<path class="st43" d="M88.6,7.8c-0.7-0.7-1.1-1.6-1.1-2.5c0-2,1.6-3.5,3.5-3.5h2.6v0.2H91c-1.8,0-3.3,1.5-3.3,3.3
							c0,0.9,0.4,1.8,1,2.4L88.6,7.8z"/>
					</g>
					<g>
						<defs>
							<rect id="SVGID_85_" width="140.9" height="49"/>
						</defs>
						<clipPath id="SVGID_86_">
							<use xlink:href="#SVGID_85_"  style="overflow:visible;"/>
						</clipPath>
						<rect x="99.7" y="1.8" class="st44" width="9.1" height="0.2"/>
					</g>
					<g>
						<defs>
							<rect id="SVGID_87_" width="140.9" height="49"/>
						</defs>
						<clipPath id="SVGID_88_">
							<use xlink:href="#SVGID_87_"  style="overflow:visible;"/>
						</clipPath>
						<path class="st45" d="M75.9,13.9V0.1C73.2,0.1,71,2.3,71,5V9C71,11.7,73.2,13.9,75.9,13.9"/>
					</g>
					<g>
						<defs>
							<rect id="SVGID_89_" width="140.9" height="49"/>
						</defs>
						<clipPath id="SVGID_90_">
							<use xlink:href="#SVGID_89_"  style="overflow:visible;"/>
						</clipPath>
						<rect x="75.9" y="0.1" class="st46" width="6.2" height="13.8"/>
					</g>
					<g>
						<defs>
							
								<rect id="SVGID_91_" x="45.8" y="-46" transform="matrix(7.099821e-03 -1 1 7.099821e-03 45.355 94.5825)" width="49" height="140.9"/>
						</defs>
						<clipPath id="SVGID_92_">
							<use xlink:href="#SVGID_91_"  style="overflow:visible;"/>
						</clipPath>
						
							<rect x="73.9" y="4.5" transform="matrix(7.099821e-03 -1 1 7.099821e-03 68.5086 78.8318)" class="st47" width="0.2" height="0.9"/>
					</g>
					<g>
						<defs>
							<rect id="SVGID_93_" width="140.9" height="49"/>
						</defs>
						<clipPath id="SVGID_94_">
							<use xlink:href="#SVGID_93_"  style="overflow:visible;"/>
						</clipPath>
						<rect x="76.1" y="4.8" class="st48" width="6.1" height="0.2"/>
					</g>
					<g>
						<defs>
							<rect id="SVGID_95_" width="140.9" height="49"/>
						</defs>
						<clipPath id="SVGID_96_">
							<use xlink:href="#SVGID_95_"  style="overflow:visible;"/>
						</clipPath>
						<rect x="80.3" y="9" class="st49" width="1.8" height="0.2"/>
					</g>
					<g>
						<defs>
							<rect id="SVGID_97_" width="140.9" height="49"/>
						</defs>
						<clipPath id="SVGID_98_">
							<use xlink:href="#SVGID_97_"  style="overflow:visible;"/>
						</clipPath>
						<rect x="77.3" y="9" class="st50" width="1.4" height="0.2"/>
					</g>
					<g>
						<defs>
							<rect id="SVGID_99_" width="140.9" height="49"/>
						</defs>
						<clipPath id="SVGID_100_">
							<use xlink:href="#SVGID_99_"  style="overflow:visible;"/>
						</clipPath>
						<path class="st51" d="M46.4,9.2c-0.5,0-1-0.4-1-1c0-0.5,0.4-1,1-1c0.5,0,1,0.4,1,1C47.4,8.8,46.9,9.2,46.4,9.2 M46.4,7.5
							c-0.4,0-0.8,0.3-0.8,0.8C45.6,8.7,46,9,46.4,9c0.4,0,0.8-0.3,0.8-0.8C47.2,7.8,46.8,7.5,46.4,7.5"/>
					</g>
					<g>
						<defs>
							<rect id="SVGID_101_" width="140.9" height="49"/>
						</defs>
						<clipPath id="SVGID_102_">
							<use xlink:href="#SVGID_101_"  style="overflow:visible;"/>
						</clipPath>
						<path class="st52" d="M49.4,3.9c-0.5,0-1-0.4-1-1c0-0.5,0.4-1,1-1c0.5,0,1,0.4,1,1S50,3.9,49.4,3.9 M49.4,2.2
							c-0.4,0-0.8,0.3-0.8,0.8s0.3,0.8,0.8,0.8c0.4,0,0.8-0.3,0.8-0.8S49.9,2.2,49.4,2.2"/>
					</g>
					<g>
						<defs>
							
								<rect id="SVGID_103_" x="33.5" y="-37.2" transform="matrix(0.4999 -0.8661 0.8661 0.4999 0.2327 66.8299)" width="49" height="140.9"/>
						</defs>
						<clipPath id="SVGID_104_">
							<use xlink:href="#SVGID_103_"  style="overflow:visible;"/>
						</clipPath>
						
							<rect x="45.7" y="5.5" transform="matrix(0.4999 -0.8661 0.8661 0.4999 19.1168 44.2967)" class="st53" width="4.4" height="0.2"/>
					</g>
					<g>
						<defs>
							<rect id="SVGID_105_" width="140.9" height="49"/>
						</defs>
						<clipPath id="SVGID_106_">
							<use xlink:href="#SVGID_105_"  style="overflow:visible;"/>
						</clipPath>
						<path class="st54" d="M43.3,3.9c-0.5,0-1-0.4-1-1c0-0.5,0.4-1,1-1c0.5,0,1,0.4,1,1S43.9,3.9,43.3,3.9 M43.3,2.2
							c-0.4,0-0.8,0.3-0.8,0.8s0.3,0.8,0.8,0.8c0.4,0,0.8-0.3,0.8-0.8S43.8,2.2,43.3,2.2"/>
					</g>
					<g>
						<defs>
							
								<rect id="SVGID_107_" x="16.8" y="-33.3" transform="matrix(0.866 -0.5001 0.5001 0.866 -13.0641 25.6378)" width="49" height="140.9"/>
						</defs>
						<clipPath id="SVGID_108_">
							<use xlink:href="#SVGID_107_"  style="overflow:visible;"/>
						</clipPath>
						
							<rect x="44.8" y="3.4" transform="matrix(0.866 -0.5001 0.5001 0.866 3.215 23.1846)" class="st55" width="0.2" height="4.4"/>
					</g>
					<g>
						<defs>
							<rect id="SVGID_109_" width="140.9" height="49"/>
						</defs>
						<clipPath id="SVGID_110_">
							<use xlink:href="#SVGID_109_"  style="overflow:visible;"/>
						</clipPath>
						<path class="st56" d="M10.9,8.1L9.8,7l1.1-1.1L12,7L10.9,8.1z M10,7l0.9,0.9L11.7,7l-0.9-0.9L10,7z"/>
					</g>
					<g>
						<defs>
							<rect id="SVGID_111_" width="140.9" height="49"/>
						</defs>
						<clipPath id="SVGID_112_">
							<use xlink:href="#SVGID_111_"  style="overflow:visible;"/>
						</clipPath>
						<path class="st57" d="M79.5,10l-1-1l1-1l1,1L79.5,10z M78.8,9.1l0.7,0.7l0.7-0.7l-0.7-0.7L78.8,9.1z"/>
					</g>
					<g>
						<defs>
							<rect id="SVGID_113_" width="140.9" height="49"/>
						</defs>
						<clipPath id="SVGID_114_">
							<use xlink:href="#SVGID_113_"  style="overflow:visible;"/>
						</clipPath>
						<path class="st58" d="M75.2,5.9l-1-1l1-1l1,1L75.2,5.9z M74.5,4.9l0.7,0.7l0.7-0.7l-0.7-0.7L74.5,4.9z"/>
					</g>
					<g>
						<defs>
							<rect id="SVGID_115_" width="140.9" height="49"/>
						</defs>
						<clipPath id="SVGID_116_">
							<use xlink:href="#SVGID_115_"  style="overflow:visible;"/>
						</clipPath>
						<path class="st59" d="M104.2,5.7c-0.5,0-0.9-0.4-0.9-0.9c0-0.5,0.4-0.9,0.9-0.9c0.5,0,0.9,0.4,0.9,0.9
							C105.2,5.3,104.8,5.7,104.2,5.7 M104.2,4.1c-0.4,0-0.7,0.3-0.7,0.7c0,0.4,0.3,0.7,0.7,0.7c0.4,0,0.7-0.3,0.7-0.7
							C105,4.4,104.6,4.1,104.2,4.1"/>
					</g>
					<g>
						<defs>
							<rect id="SVGID_117_" width="140.9" height="49"/>
						</defs>
						<clipPath id="SVGID_118_">
							<use xlink:href="#SVGID_117_"  style="overflow:visible;"/>
						</clipPath>
						<path class="st60" d="M104.2,8.9c-0.5,0-0.9-0.4-0.9-0.9s0.4-0.9,0.9-0.9c0.5,0,0.9,0.4,0.9,0.9
							C105.2,8.5,104.8,8.9,104.2,8.9 M104.2,7.2c-0.4,0-0.7,0.3-0.7,0.7c0,0.4,0.3,0.7,0.7,0.7c0.4,0,0.7-0.3,0.7-0.7
							C105,7.6,104.6,7.2,104.2,7.2"/>
					</g>
					<g>
						<defs>
							<rect id="SVGID_119_" width="140.9" height="49"/>
						</defs>
						<clipPath id="SVGID_120_">
							<use xlink:href="#SVGID_119_"  style="overflow:visible;"/>
						</clipPath>
						<path class="st61" d="M104.2,12.1c-0.5,0-0.9-0.4-0.9-0.9c0-0.5,0.4-0.9,0.9-0.9c0.5,0,0.9,0.4,0.9,0.9
							C105.2,11.7,104.8,12.1,104.2,12.1 M104.2,10.4c-0.4,0-0.7,0.3-0.7,0.7s0.3,0.7,0.7,0.7c0.4,0,0.7-0.3,0.7-0.7
							C105,10.8,104.6,10.4,104.2,10.4"/>
					</g>
					<g>
						<defs>
							<rect id="SVGID_121_" width="140.9" height="49"/>
						</defs>
						<clipPath id="SVGID_122_">
							<use xlink:href="#SVGID_121_"  style="overflow:visible;"/>
						</clipPath>
						<path class="st62" d="M91,12.3h-1.6v-0.2H91c1.8,0,3.3-1.5,3.3-3.3c0-1.8-1.5-3.3-3.3-3.3V5.2c1.9,0,3.5,1.6,3.5,3.5
							C94.6,10.7,93,12.3,91,12.3"/>
					</g>
					<g>
						<defs>
							<rect id="SVGID_123_" width="140.9" height="49"/>
						</defs>
						<clipPath id="SVGID_124_">
							<use xlink:href="#SVGID_123_"  style="overflow:visible;"/>
						</clipPath>
						<polygon class="st63" points="60.5,12.2 60.3,12.2 60.3,8.6 63.9,8.6 63.9,8.8 60.5,8.8 						"/>
					</g>
					<g>
						<defs>
							<rect id="SVGID_125_" width="140.9" height="49"/>
						</defs>
						<clipPath id="SVGID_126_">
							<use xlink:href="#SVGID_125_"  style="overflow:visible;"/>
						</clipPath>
						<polygon class="st64" points="60.5,6.9 60.3,6.9 60.3,1.7 65.4,1.7 65.4,1.9 60.5,1.9 						"/>
					</g>
					<g>
						<defs>
							<rect id="SVGID_127_" width="140.9" height="49"/>
						</defs>
						<clipPath id="SVGID_128_">
							<use xlink:href="#SVGID_127_"  style="overflow:visible;"/>
						</clipPath>
						<rect x="28.8" y="4.8" class="st65" width="6.3" height="0.2"/>
					</g>
					<g>
						<defs>
							<rect id="SVGID_129_" width="140.9" height="49"/>
						</defs>
						<clipPath id="SVGID_130_">
							<use xlink:href="#SVGID_129_"  style="overflow:visible;"/>
						</clipPath>
						<rect x="28.8" y="6.9" class="st66" width="6.3" height="0.2"/>
					</g>
					<g>
						<defs>
							<rect id="SVGID_131_" width="140.9" height="49"/>
						</defs>
						<clipPath id="SVGID_132_">
							<use xlink:href="#SVGID_131_"  style="overflow:visible;"/>
						</clipPath>
						<rect x="28.8" y="9" class="st67" width="6.3" height="0.2"/>
					</g>
					<g>
						<defs>
							<rect id="SVGID_133_" width="140.9" height="49"/>
						</defs>
						<clipPath id="SVGID_134_">
							<use xlink:href="#SVGID_133_"  style="overflow:visible;"/>
						</clipPath>
						<rect x="118.2" y="6.6" class="st68" width="4.8" height="0.6"/>
					</g>
					<g>
						<defs>
							<rect id="SVGID_135_" width="140.9" height="49"/>
						</defs>
						<clipPath id="SVGID_136_">
							<use xlink:href="#SVGID_135_"  style="overflow:visible;"/>
						</clipPath>
						<polygon class="st69" points="131.9,6.6 125.3,6.6 125.3,0 124.8,0 124.8,13.8 125.3,13.8 125.3,7.2 131.9,7.2 						"/>
					</g>
				</g>
			</g>
		</g>
	</g>
</g>
<g id="Layer_2">
	<g>
		<g>
			<g>
				<path class="st70" d="M16.7,29.2l-3,1.6l-1-2.1c-1,1.2-2.5,2.1-4.4,2.1c-3.7,0-5.6-3-5.6-7.7c0-5.1,2.3-7.9,5.9-7.9
					c1.7,0,3,0.6,3.9,1.8V9.5h3.1v17.4L16.7,29.2z M12.4,27.2v-8c-0.8-0.7-1.8-1.1-2.9-1.1c-2.3,0-3.6,1.7-3.6,5
					c0,3.2,1.3,4.9,3.6,4.9C10.5,28,11.6,27.7,12.4,27.2z"/>
				<path class="st70" d="M32,23.4H21.9c0.2,2.6,2.2,4.4,5.4,4.4c1.6,0,3.4-0.3,4.6-1L31,30c-1,0.5-2.7,0.9-4.6,0.9
					c-4.6,0-7.7-3.1-7.7-7.9c0-4.8,2.9-7.7,7.5-7.7c3.8,0,6.2,2.2,6.2,5.7C32.4,21.8,32.3,22.7,32,23.4z M22.1,21.2h7.3
					c-0.1-2.2-1.2-3.3-3.2-3.3C24,17.9,22.6,19.2,22.1,21.2z"/>
				<path class="st70" d="M39.6,30.5l-5.9-14.9h3.4L41,26l0.4,1.3h0.1l0.4-1.3l3.8-10.4h3.4l-5.8,14.9H39.6z"/>
				<path class="st70" d="M59.2,15.6h6.7L65.5,18h-6.7l-2.4,13.4c-0.7,3.7-3.2,5.1-6.7,5.1c-1.6,0-2.4-0.2-3.2-0.4l-0.1-2.4
					c0.8,0.1,1.7,0.2,3.1,0.2c2.1,0,3.5-0.8,3.8-2.6L55.8,18h-4.7l0.4-2.4h4.7l0.2-1.4c0.7-3.7,3.1-5.1,6.6-5.1
					c1.6,0,2.5,0.2,3.2,0.4l0.1,2.5c-0.8-0.2-1.7-0.3-3.1-0.3c-2.1,0-3.4,0.8-3.8,2.6L59.2,15.6z"/>
				<path class="st70" d="M79.8,23.4H69.6c0.2,2.6,2.2,4.4,5.4,4.4c1.6,0,3.4-0.3,4.6-1l-1,3.2c-1,0.5-2.7,0.9-4.6,0.9
					c-4.6,0-7.7-3.1-7.7-7.9c0-4.8,2.9-7.7,7.5-7.7c3.8,0,6.2,2.2,6.2,5.7C80.2,21.8,80,22.7,79.8,23.4z M69.8,21.2h7.3
					C77,19,75.9,17.9,74,17.9C71.8,17.9,70.3,19.2,69.8,21.2z"/>
				<path class="st70" d="M83.1,29.6l-0.2-3.3c1.3,0.9,3.7,1.7,6.3,1.7c1.9,0,3.3-0.6,3.3-2c0-2.8-9.2-0.2-9.2-5.9
					c0-2.7,2-4.9,6.8-4.9c2.9,0,5.2,0.7,5.2,2.5c0,0.5-0.2,1-0.5,1.4c-1.3-0.6-3.2-1-4.9-1c-2.3,0-3.5,0.9-3.5,1.8
					c0,2.5,9.3,0.3,9.3,5.9c0,3.1-2.8,5.1-6.9,5.1C86.1,30.9,84,30,83.1,29.6z"/>
				<path class="st70" d="M111.7,27.3l-0.6,2.9c-0.7,0.3-2.2,0.6-3.6,0.6c-3.7,0-5.3-1.9-5.3-4.6v-8h-4.2v-2.6h4.2v-4.1h3.1v4.1h6
					v2.6h-6v7c0,1.9,1,2.8,2.8,2.8C109,28,110.8,27.8,111.7,27.3z"/>
			</g>
		</g>
		<g>
			<path class="st71" d="M127.9,29v1.5h-10.1V29c4.5-3.8,7.5-6,7.5-9c0-2.1-1.4-3.1-3.4-3.1c-1.5,0-2.8,0.7-3.5,1.2
				c-0.2-0.1-0.5-0.4-0.5-0.9c0-1.1,1.9-1.9,4.1-1.9c3.1,0,5,1.6,5,4.6c0,3.7-3.1,6-7.1,9.2H127.9z"/>
			<path class="st71" d="M130.4,23c0-5.1,2.1-7.7,5.5-7.7c3.4,0,5.5,2.7,5.5,7.7s-2.1,7.7-5.5,7.7C132.5,30.8,130.4,28.1,130.4,23z
				 M139.7,23c0-4.1-1.3-6.1-3.7-6.1c-2.4,0-3.8,2-3.8,6.1c0,4.1,1.3,6.1,3.8,6.1C138.4,29.2,139.7,27.1,139.7,23z M134.7,24.1v-2.3
				h2.4v2.3H134.7z"/>
			<path class="st71" d="M154.2,29v1.5h-10.1V29c4.5-3.8,7.5-6,7.5-9c0-2.1-1.4-3.1-3.4-3.1c-1.5,0-2.8,0.7-3.5,1.2
				c-0.2-0.1-0.5-0.4-0.5-0.9c0-1.1,1.9-1.9,4.1-1.9c3.1,0,5,1.6,5,4.6c0,3.7-3.1,6-7.1,9.2H154.2z"/>
			<path class="st71" d="M167.3,29v1.5h-10.1V29c4.5-3.8,7.5-6,7.5-9c0-2.1-1.4-3.1-3.4-3.1c-1.5,0-2.8,0.7-3.5,1.2
				c-0.2-0.1-0.5-0.4-0.5-0.9c0-1.1,1.9-1.9,4.1-1.9c3.1,0,5,1.6,5,4.6c0,3.7-3.1,6-7.1,9.2H167.3z"/>
		</g>
		<g>
			<g>
				<path class="st70" d="M16.7,29.2l-3,1.6l-1-2.1c-1,1.2-2.5,2.1-4.4,2.1c-3.7,0-5.6-3-5.6-7.7c0-5.1,2.3-7.9,5.9-7.9
					c1.7,0,3,0.6,3.9,1.8V9.6h3.1v17.4L16.7,29.2z M12.4,27.2v-8c-0.8-0.7-1.8-1.1-2.9-1.1c-2.3,0-3.6,1.7-3.6,5
					c0,3.2,1.3,4.9,3.6,4.9C10.5,28,11.6,27.7,12.4,27.2z"/>
				<path class="st70" d="M32,23.4H21.9c0.2,2.6,2.2,4.4,5.4,4.4c1.6,0,3.4-0.3,4.6-1L31,30c-1,0.5-2.7,0.9-4.6,0.9
					c-4.6,0-7.7-3.1-7.7-7.9c0-4.8,2.9-7.7,7.5-7.7c3.8,0,6.2,2.2,6.2,5.7C32.4,21.8,32.3,22.7,32,23.4z M22.1,21.2h7.3
					C29.2,19,28.2,18,26.2,18C24,18,22.6,19.2,22.1,21.2z"/>
				<path class="st70" d="M39.6,30.5l-5.8-14.8h3.4L41,26l0.4,1.3h0.1l0.4-1.3l3.8-10.4h3.4l-5.8,14.8H39.6z"/>
				<path class="st70" d="M59.2,15.7h6.7L65.5,18h-6.7l-2.4,13.4c-0.7,3.7-3.2,5.1-6.7,5.1c-1.6,0-2.4-0.2-3.2-0.4l-0.1-2.4
					c0.8,0.1,1.7,0.2,3.1,0.2c2.1,0,3.5-0.8,3.8-2.6L55.8,18h-4.7l0.4-2.4h4.7l0.2-1.4c0.7-3.7,3.1-5.1,6.6-5.1
					c1.6,0,2.5,0.2,3.2,0.4l0.1,2.5c-0.8-0.2-1.7-0.3-3.1-0.3c-2.1,0-3.4,0.8-3.8,2.6L59.2,15.7z"/>
				<path class="st70" d="M79.8,23.4H69.6c0.2,2.6,2.2,4.4,5.4,4.4c1.6,0,3.4-0.3,4.6-1l-1,3.2c-1,0.5-2.7,0.9-4.6,0.9
					c-4.6,0-7.7-3.1-7.7-7.9c0-4.8,2.9-7.7,7.5-7.7c3.8,0,6.2,2.2,6.2,5.7C80.1,21.8,80,22.7,79.8,23.4z M69.8,21.2h7.3
					C77,19,75.9,18,73.9,18C71.8,18,70.3,19.2,69.8,21.2z"/>
				<path class="st70" d="M83.1,29.6l-0.2-3.3c1.3,0.9,3.7,1.7,6.2,1.7c1.9,0,3.3-0.6,3.3-1.9c0-2.8-9.2-0.2-9.2-5.9
					c0-2.7,2-4.9,6.8-4.9c2.9,0,5.2,0.7,5.2,2.5c0,0.5-0.2,1-0.5,1.4c-1.3-0.6-3.2-1-4.9-1c-2.3,0-3.5,0.9-3.5,1.8
					c0,2.5,9.3,0.3,9.3,5.9c0,3.1-2.8,5.1-6.9,5.1C86,30.9,83.9,30,83.1,29.6z"/>
				<path class="st70" d="M111.6,27.3l-0.6,2.9c-0.7,0.3-2.2,0.6-3.6,0.6c-3.7,0-5.3-1.9-5.3-4.6v-8h-4.2v-2.6h4.2v-4.1h3.1v4.1h6
					v2.6h-6v7c0,1.9,1,2.8,2.8,2.8C108.9,28,110.8,27.8,111.6,27.3z"/>
			</g>
		</g>
		<g>
			<path class="st71" d="M127.8,29v1.5h-10.1V29c4.5-3.8,7.5-6,7.5-9c0-2.1-1.4-3.1-3.4-3.1c-1.5,0-2.8,0.7-3.5,1.2
				c-0.2-0.1-0.5-0.4-0.5-0.9c0-1.1,1.9-1.9,4.1-1.9c3.1,0,5,1.6,5,4.6c0,3.7-3.1,6-7.1,9.2H127.8z"/>
			<path class="st71" d="M130.4,23c0-5.1,2.1-7.7,5.5-7.7c3.4,0,5.5,2.7,5.5,7.7s-2.1,7.7-5.5,7.7C132.4,30.8,130.4,28.1,130.4,23z
				 M139.6,23c0-4.1-1.3-6.1-3.7-6.1c-2.4,0-3.8,2-3.8,6.1c0,4.1,1.3,6.1,3.8,6.1C138.3,29.2,139.6,27.1,139.6,23z M134.7,24.2v-2.3
				h2.4v2.3H134.7z"/>
			<path class="st71" d="M154.1,29v1.5H144V29c4.5-3.8,7.5-6,7.5-9c0-2.1-1.4-3.1-3.4-3.1c-1.5,0-2.8,0.7-3.5,1.2
				c-0.2-0.1-0.5-0.4-0.5-0.9c0-1.1,1.9-1.9,4.1-1.9c3.1,0,5,1.6,5,4.6c0,3.7-3.1,6-7.1,9.2H154.1z"/>
			<path class="st71" d="M167.3,29v1.5h-10.1V29c4.5-3.8,7.5-6,7.5-9c0-2.1-1.4-3.1-3.4-3.1c-1.5,0-2.8,0.7-3.5,1.2
				c-0.2-0.1-0.5-0.4-0.5-0.9c0-1.1,1.9-1.9,4.1-1.9c3.1,0,5,1.6,5,4.6c0,3.7-3.1,6-7.1,9.2H167.3z"/>
		</g>
	</g>
	<text transform="matrix(1 0 0 1 76.2725 51.79)" class="st72 st73 st74">George Town</text>
</g>
</svg>
