<svg id="Layer_2" data-name="Layer 2" xmlns="http://www.w3.org/2000/svg" viewBox="0 0 40.15 54.68"><defs><style>.cls-1{fill:#fdbb11;}</style></defs><path class="cls-1" d="M31.09,15.85c.29,0,.2-.1,0-.09v0Z"/><path class="cls-1" d="M31.12,15.9h-.06S31.3,15.94,31.12,15.9Z"/><path class="cls-1" d="M31.06,15.9h.06c.36.08.6-.1-.14,0C31,15.89,31,15.9,31.06,15.9Z"/><path class="cls-1" d="M30.17,22.17c1-.06-.06-.14,0,0Z"/><path class="cls-1" d="M30.7,23.72s0,0,.05.05a.28.28,0,0,0,.22-.09A.59.59,0,0,0,30.7,23.72Z"/><path class="cls-1" d="M30.67,18.47h0Z"/><path class="cls-1" d="M28.75,15.83c-.22.05-.1.07.08.09s0,0-.1,0,.95,0,.7,0a7.25,7.25,0,0,1-1,.07c-.25,0-.61.09-.34.11s.4-.07.75-.07c0,.07-.55.07-.53.12a1,1,0,0,0,.39,0c0,.06-.5.07-.52.12s0,0-.1.07.11.07.38.06.36,0,.38,0l-.73,0c-.33,0,.11.06.19.06s0,.08.06.11a1.5,1.5,0,0,0,.29.06s-1.26.14-.39.16c.26,0,.09,0,0,.06-.21,0-.09.08.05.11s0,.07-.25.16.48.07.82,0c-.15,0-.2,0-.44.06a.6.6,0,0,0-.25,0c-.18.08-.06.17-.1.24s-.21.18-.1.24a4.18,4.18,0,0,0,.76,0c-.16,0-.11,0-.25.06l-.32,0c-.11,0,0,.06,0,.07s.16,0,.16,0-.13.11-.06.16.65,0,.47.1-.76.19-.57.25.78.06.11.1a1.21,1.21,0,0,0,.28,0c-.95.08-.55.26-.49.38a.24.24,0,0,0,.3.23s-.07,0-.09.08,0,.11,0,.16-.12.16-.08.25,0,.09.23.07a.54.54,0,0,1,.31,0s-.07.08-.25.1.09.08,0,.12-.45.08-.11.07a.84.84,0,0,1,.41,0l-.51,0c-.16,0,.33.13.37.16s-.08.09-.14.13-.35.15,0,.15.41,0,.65,0c-.18,0-.52.08-.66.12s.62,0,.71,0-.83.09-1,.14.16.09.18.13-.16.15.07.14l.19,0s.09,0,.22,0,.47,0,.47,0-1,.1-1.14.15,0,.16.05.22-.24.27.37.26c-.41.05-.14.2-.16.25s-.28.11-.12.1a4.29,4.29,0,0,0,.62-.07c.54,0-.69.21-.58.24s1.25-.06,1.12,0-1.55.07-1.13.16c.23.05,0,.15.39.18.13,0,.43.11.27.16-.37,0-.7.16-.24.14-1,.06-.5.26.39.18-.22,0-.5.06-.71.09s-.18.09-.15.14-.16.19.25.14c-.21.05-.23.11-.21.16s.21.07.7.05c0,0-.58.08-.71.13a.85.85,0,0,1,.4,0c-.73,0-.52.12-.48.2a6.14,6.14,0,0,0,1.1.07c.26,0,.58,0,.81,0s-.05,0-.14,0c-.34,0-.71,0-1.05,0a4.78,4.78,0,0,0-.54,0s.12,0,.1.06h-.18s0,.07.12.07l1.29-.09c-.15.06-1.11.18-.36.2.25-.07.69-.05,1-.1s-.56-.11-.24-.14a5.89,5.89,0,0,0,.69-.05c.27,0,0-.08-.05-.1a3.72,3.72,0,0,0-1,0,2.65,2.65,0,0,1-.55,0s-.09-.08.07-.09a3.4,3.4,0,0,1,.49.07c.24,0,.42,0,.7,0-.45,0-.28-.07-.55-.09,0-.06.13,0,.27-.09s0-.08,0-.11.2,0,.35-.06.19-.08.24-.12.29-.19,0-.16c-.47.05-.64,0-.54-.06s.64-.08.27-.11.32-.11,0-.11-1.26,0-1.27.05.65-.06.82-.09.21-.09.52-.11c0,0,.19,0,.19,0s-.16,0-.2,0c-.25,0-.24-.05-.23-.07s-.59.1-.5,0a7.53,7.53,0,0,1,1-.11c.24-.07-.21-.1-.53-.09s-.22,0-.25,0,.16-.09,0-.08-.46.06-.24,0c.37-.08.37,0,.78,0-.11-.07.36-.08,0-.14s0-.15-.47-.11c.25,0,.33-.06.14-.07s-.44,0-.67,0c-.43,0,.26-.08.4-.09s.85-.06.7-.11-.42-.1.12-.12c-.37,0-1.45.07-1-.05.22-.06,1.1-.07.75-.14-.05,0-.53,0-.43-.06s.43,0,.55-.07-.15,0-.17-.07-.39,0-.53,0,0-.09-.35-.11c-.06,0-.56,0-.17-.06.23-.06.35-.12.32-.17s-.23-.06-.32-.1.94,0,1.12-.07-.47,0-.55,0-.3,0-.11-.05l-.71.05a10.39,10.39,0,0,1,1.38-.12c0-.05-.58,0-.61-.05.65,0,.13-.09.28-.13s.39,0,.4-.06-.07,0-.13-.06.07-.09.05-.12l-.07-.17a2.35,2.35,0,0,1-.7,0c-.2,0,.35-.08.47-.1.3,0,.44-.1.29-.13a1.53,1.53,0,0,0-.54.08c-.16,0-.44-.12,0-.15.78,0-.62-.09-.64-.11a2.91,2.91,0,0,0,.64-.06s-.29-.16.05-.13c0,0-.32-.1-.05-.12s.5-.08.32-.08a3.26,3.26,0,0,0-.87.17,1.65,1.65,0,0,1-.32,0s.33-.07.46-.08l.73-.1-.4,0c-.51,0-.16,0,.1-.08.61-.12-.49-.22.24-.3.09,0-.65,0-.38-.06.06,0,.82-.07.51-.09s-.6.05-.63,0a1.31,1.31,0,0,1,.33-.09s-.29.08,0,.06.29-.1.27-.12,0-.09-.17-.07-.6.06-.58.11a2.51,2.51,0,0,1-.47,0c-.15,0,.14-.07.24-.09a8.48,8.48,0,0,1,1-.14,1.28,1.28,0,0,1-.38,0s.36,0,.45-.07,0-.11-.15-.14a1.85,1.85,0,0,0-.54-.1c-.09,0-.5,0-.33,0a8.47,8.47,0,0,1,.95,0c-.05,0-.57,0-.58,0a2.25,2.25,0,0,0,.41-.06c.06,0,.08-.09-.18-.08a1.18,1.18,0,0,0-.45-.12c-.2-.1.24-.08.53-.17s-.44-.05-.4,0a1.77,1.77,0,0,0-.9-.11c.3,0,.52,0,.84,0l.46-.05c-.51,0-.56,0-.53-.13s.42-.11.68-.18c-.31,0-.26-.15-.31-.18s-.49,0-.47-.07,1.19-.31.34-.26c0,0,.58-.14.29-.15s-.49,0-.76,0h1l-1-.09c.09,0,.87,0,.86,0a5.61,5.61,0,0,0-1.25,0,6.75,6.75,0,0,1,1-.09c.38,0,0,0,.14-.08s.35,0,.25-.06-.36,0-.3-.07.07-.07.14-.1.62-.16.45-.18c0,0-.58,0-.6,0-.48,0-.59,0-.47-.07s-.24,0-.34,0C29.35,15.72,28.91,15.79,28.75,15.83Z"/><path class="cls-1" d="M30.19,17.45h0Z"/><path class="cls-1" d="M30.4,24.83c-.07,0-.11.1.22.05s.21-.11.17-.15l-.35.08Z"/><path class="cls-1" d="M28.53,24.65c-.32.08.23.06-.05.12s.38.14.48.21c-.38,0-.42.06-.29.11a5,5,0,0,0,.64.05c-.42,0-1.3.21-.43.09.31-.07.26,0,0,.07s-.55.05-.51.13c-.26.11.85,0,1,0a12.61,12.61,0,0,0,1.44-.08c.07,0-.37,0-.15-.09s.55-.09.33-.11-.58.06-.75.06-.21,0-.32,0c.3,0,.77-.08.43-.1-.16,0-.77,0-.93,0L30.53,25c0-.05-.47,0-.56,0s.06-.08.08-.13-.1-.12.18-.19a2.67,2.67,0,0,0,.39-.1s-.56.05-.66.06.4-.08.66-.1a1.48,1.48,0,0,1-.5-.05c-.11,0-.16,0-.54,0A7.72,7.72,0,0,0,28.53,24.65Z"/><path class="cls-1" d="M28.4,25.43c0-.06-.16.07,0,0Z"/><path class="cls-1" d="M28.64,25.54c-.4.09.58,0,.79,0-.1,0-1.21.11-1,.14a4.45,4.45,0,0,1,.64,0c.05,0,.1.08.05.12a2.28,2.28,0,0,1-.31,0c-.35,0-.27.1.07.08-.26.05.46.05.19.11a2.07,2.07,0,0,1-.61,0,3.09,3.09,0,0,0,1,.07c-.32,0-.57.06-.93.08a8.34,8.34,0,0,1,1.2.08c-.3,0-1,.07-.83.14s.6-.13.84-.07-.77.07-.7.12.51,0,.22.07l-.29,0a3.22,3.22,0,0,0,.44,0,3,3,0,0,0-.84.13c-.11,0,.09,0,.27,0-.24,0-.41.07-.42.11s.25.05.38.07.26.06.27.09a3.09,3.09,0,0,1-.54.05,1.81,1.81,0,0,0,.42.06h.16c.63,0,.92-.08,1.55-.12s.28-.1.31-.17.3-.19,0-.21a2.41,2.41,0,0,0-.82.08,8.33,8.33,0,0,0-1,0c.21,0,.44,0,.67,0l.31,0a3.84,3.84,0,0,0,.76,0c0-.06.5-.31-.29-.26.09,0,.05-.11,0-.13S30.9,26,31,26s.07-.12-.13-.16c-.4-.07.25-.07.22-.15a4.76,4.76,0,0,1-.88.07c-.15,0-.74,0-.46-.09a9.7,9.7,0,0,1,1.31,0s.08-.19-.23-.19-1,.08-1.18,0A2.3,2.3,0,0,0,28.64,25.54Z"/><path class="cls-1" d="M30.53,27.07c.16.05.39,0,.37-.05S30.51,27,30.53,27.07Z"/><path class="cls-1" d="M29.1,27.33v0C29.36,27.41,29.73,27.3,29.1,27.33Z"/><path class="cls-1" d="M30.07,27.34c-.46.05-1,.11-1.49.14a2,2,0,0,0,.68.11c.39,0,0-.1.08-.1s.39.07.15.11a6.84,6.84,0,0,0-.77.09c-.52.21.74,0,.82,0s-.86.13-.93.18-.16.11.39.08c0,.06-.33.08-.46.14s-.07.13.34.1c-.7,0,.09.23-.14.33h0c.22,0,.88-.07,1.29-.13s.27-.07.41-.08.72-.06.44-.08-.32,0-.34,0l0-.07a7.09,7.09,0,0,0-.72,0c-.52-.06,1-.05.94-.05s-.53-.05-.28-.09.72-.08.62-.15a1.34,1.34,0,0,0-.56-.06s.19.08.09.08c-.31,0-.35-.13-.25-.18a.65.65,0,0,1,.24,0,2,2,0,0,0,.48,0l-.8,0c.13,0,1-.05.8-.08s-.49,0-.58,0,.18,0,.22-.06c.23-.08-1,0,0-.1.41-.07.55-.11.12-.15s.59-.11.17-.13-1.17,0-1.68,0C28.17,27.17,29.77,27.31,30.07,27.34Z"/><path class="cls-1" d="M28.7,28.55h0S28.55,28.56,28.7,28.55Z"/><path class="cls-1" d="M30.58,30.09a1,1,0,0,0,.59,0S30.56,30,30.58,30.09Z"/><path class="cls-1" d="M31,30.59c.14-.09-.24-.11-.19,0A.54.54,0,0,0,31,30.59Z"/><path class="cls-1" d="M30.2,28.46l-.42,0c-.26.06.38,0-.3.08-.24,0-.76.11-.47.13h.73a3,3,0,0,0-.81.09s.34.12-.13.14a2.13,2.13,0,0,1,.67,0,5.3,5.3,0,0,0-.84.08s.56,0,.65.06c.49.08-.51.05-.56.09s.27.08.33.1a2.78,2.78,0,0,0,.57,0c0,.06-.59.05-.69.06s-.06.08-.21.11-.22,0,0,.06.12.07,0,.11-.52.08-.27.08.55,0,.6,0-.2.06-.36.07c-.61,0,.21.07.31.05-.05,0-.45.05-.43.1s.25,0,.41,0-.47.13-.49.14.25,0,.34.06a2.48,2.48,0,0,0,.66.14c.15,0,.43,0,.25.07s-.73.1-.72.13-.25.07-.42.11c-.43.1.79.11,0,.22.4,0,.75,0,.61.05s-.72.12-.7.16a8.74,8.74,0,0,0,1.15-.14,9.71,9.71,0,0,1,1.22,0c.37,0,.22-.15.2-.17s-.65.08-.86.06a3.66,3.66,0,0,0,.47,0,5.28,5.28,0,0,1-.68,0c-.27,0,.09-.07.3-.08s.74-.11.15-.1c-.2,0-.83,0-.73,0a6.67,6.67,0,0,1,1.06-.06c.29,0,.15-.11.14-.14s.22-.2-.65-.15c.28-.06-.17,0-.2-.1a2.7,2.7,0,0,0,.41-.07s-1.09,0-.66-.08a3,3,0,0,1,.69-.1c.19,0-.19.07-.24.09s.09.05.28,0,.22,0,.22.05c.37,0,.5-.15.13-.13,0-.05.27-.09.19-.15a1.13,1.13,0,0,0-.67,0,3.78,3.78,0,0,1-.52.06c-.13,0-.73-.07-.54-.08s.57,0,.87-.07.47-.06.49-.12.36-.08.39-.13-2.78.11-.46,0c.41,0,.54-.08.28-.12s-1,0-1,0a10.88,10.88,0,0,0,1.16-.1,7,7,0,0,1-1.34,0c-.08-.07.89-.07,1.06-.11s0-.06,0-.08.21,0,.26-.06-.69-.14-.68-.14a2.27,2.27,0,0,0,.52,0c.07,0,0,0-.11-.05s-.8-.05-.76-.07.71-.08.88-.12-.13-.07-.36-.06S30.47,28.44,30.2,28.46Z"/><path class="cls-1" d="M29.77,30.89c-.3,0-.75.09-.55.13h.06l.9-.06a3.08,3.08,0,0,1-.43,0C29.93,31,30.55,30.85,29.77,30.89Z"/><path class="cls-1" d="M30.71,31.18c.12,0,.57,0,.57,0A1.34,1.34,0,0,0,30.71,31.18Z"/><path class="cls-1" d="M28.23,31.15l.34,0c.05,0-.15.07-.1.11a.78.78,0,0,0,.32.1c.07,0,.37,0,.37,0a3.79,3.79,0,0,0-.43.08c.19,0,.71,0,.94,0L31,31.38c0-.05-1,0-.88-.05a7,7,0,0,0,1-.08c-.76.06-.3,0-.65-.05s-1,.1-.92,0,.48,0,.68,0a9,9,0,0,0,1-.13,10.89,10.89,0,0,0-1.3,0,5.08,5.08,0,0,1-1.23,0C28.72,31.09,28.65,31.1,28.23,31.15Z"/><path class="cls-1" d="M28.4,31.62c0,.05,0,.11.27.14s.61,0,.77,0-.93.14-1,.16,0,.07.07.1.11.1.09.15-.29.14.22.18c.06,0,1.52-.05,1.19,0h-.56a2.58,2.58,0,0,0-.42.07c-.34.09-.37.19-.34.28s0,.12.18.13.18-.06.17-.06a5.59,5.59,0,0,1,.61,0l1,0c.29,0,0-.07.19-.08s.4,0,.3-.09-.23-.11-.77-.09c-.18,0-.57,0-.41.08s-.37,0-.41,0-.64,0-.5-.06h.48a6.36,6.36,0,0,0,.7-.07s.52-.2.68-.13-.17.06,0,.07.41-.21-.28-.12c-.28,0-.15,0-.27,0s-.11,0-.34,0c.08,0,.65-.13.71-.14.26-.07.14-.13.11-.19.34-.14-.74,0-1.09,0-.1,0-.08,0-.07,0a1.94,1.94,0,0,1,.36,0c.31,0,.72-.07.47-.11s-.68,0-.94-.08c0-.06-.41,0-.51-.08s.85,0,.94,0a4.89,4.89,0,0,0,.84-.07c.19-.07-.28-.08-.57-.05l-.51.08c-.18,0-.13,0-.07,0A3.07,3.07,0,0,0,28.4,31.62Z"/><path class="cls-1" d="M29.11,33.15c-.39,0,.6,0,0,0Z"/><path class="cls-1" d="M29.34,33.05s-.38,0-.5,0,.11.07.27.07,1.62,0,1.33-.07c.25,0,.44,0,.4,0,.39,0-.08-.17-.16-.18a4.54,4.54,0,0,0-1.36-.08C28.19,32.93,29.44,33,29.34,33.05Z"/><path class="cls-1" d="M28.79,34.13c-.17,0-.19,0-.18,0l0,0C28.76,34.18,28.84,34.15,28.79,34.13Z"/><path class="cls-1" d="M29.9,35h.26c.22,0,.41,0,.38,0a3.46,3.46,0,0,0-.84,0Z"/><path class="cls-1" d="M29.9,35h0Z"/><path class="cls-1" d="M31.11,34.93S31,35,31,35.05C31.41,35.09,31.12,35,31.11,34.93Z"/><path class="cls-1" d="M30.67,33.16c0,.06-.69.1-.59.14s.3,0,.41.07.17.08,0,.06a3.24,3.24,0,0,0,.54,0c-.39,0-.64,0-1,.09.26,0,1,0,.8.12a2.45,2.45,0,0,1-.91.06c-.05,0-.2,0-.19,0s.06,0,.12,0a3.69,3.69,0,0,0,.63,0c.32,0,.68,0,.61.06s-.71.06-.88.1.14.07.28.08a3.19,3.19,0,0,1,.53-.06c.45,0,.38.06,0,.08.15,0,.37,0,.3,0a2.89,2.89,0,0,1-.59.07L29,34.27c.41,0,.88,0,1.22,0a4.44,4.44,0,0,1,.57-.07c.23,0-.12.07-.16.08-.27,0-1.07.09-.9.15a5.73,5.73,0,0,0,.95-.13c.66-.12.4,0,.42.08s.33.08.15.13-.5,0-.63,0a7.75,7.75,0,0,0-1,.13s1.06-.07,1-.05-.24,0-.1,0,.43,0,.59,0c.63,0,0,.08-.34.1.29,0,.82,0,.32.05s-1.36.14-1.82.15l.3,0,.78,0c.68-.09-.23.13-.23.12s.82-.1.54,0c-.09,0,.3.06.32.09s-.4.08-.39.11,1.3-.09.87,0c-.25.07-1.07.11-1.47.15l.59,0a4,4,0,0,0,.61,0s-.06-.05,0-.07c.25-.07.2.14.2.14s.14.13-.22.13c-1.18,0,.44.15.15.24s-.86.06-1.08.07a7,7,0,0,1-1.36,0c-.23-.05,0-.06.35-.08s.51-.13.61-.12a9.18,9.18,0,0,0-1.05,0c.18,0,1.69-.11,1.24-.12a10.08,10.08,0,0,1-1.14,0c-.18,0-.46-.15.09-.17-.46,0-.21-.06,0-.09s.68-.12.29-.11-.72,0-.52-.06-.06,0-.1-.11c.48-.11-.05-.29-.06-.4s0-.08.18-.12h.51s-.46,0-.56-.06,0-.1.17-.14c.61-.09,0,0-.16-.06s-.1-.05-.08-.07a1.06,1.06,0,0,1,.31,0s-.44-.06-.41-.09a5.83,5.83,0,0,1,.85-.21c.39-.1-.52,0-.74,0-.44,0,.19-.11-.11-.11.64,0-.11-.17.11-.19a4,4,0,0,0,.84-.08l.32-.1-.9.09a3,3,0,0,1-.39.05c-.07,0,0,0,.17-.05,0,0-.12-.07,0-.09s.31,0,.29-.07-.29-.05,0-.06c-.14-.09,0,0-.45,0,.15,0,.1-.2.76-.14a4.16,4.16,0,0,1,.76,0l.38,0S30.49,33.17,30.67,33.16Zm-1,.89c-.12.05.26,0,.46,0a2.53,2.53,0,0,0,.3,0A2.76,2.76,0,0,0,29.72,34.05Z"/><path class="cls-1" d="M29.88,36.58a2,2,0,0,0-.5.05S30.22,36.57,29.88,36.58Z"/><path class="cls-1" d="M29.16,36.4a4.73,4.73,0,0,1,.52,0c.28.06-.14,0-.37.05s-.73.1-.36.1.69,0,1-.05c.61-.14.41.05.39.05l.59,0H31a2.67,2.67,0,0,0,.58,0c.2,0-.12-.06-.36,0-.06,0-.79,0-.53,0s.56,0,.77-.07,0-.08-.05-.1-.1-.12-.17-.17a5.43,5.43,0,0,0-1.34,0C29.46,36.2,28.7,36.33,29.16,36.4Z"/><path class="cls-1" d="M31,36.55H30.9C30.73,36.56,31.34,36.57,31,36.55Z"/><path class="cls-1" d="M30.94,37.47c.21,0,.95,0,.72-.06A2.23,2.23,0,0,0,30.94,37.47Z"/><path class="cls-1" d="M30.65,37.67c.27.06,1.06-.06.92-.1S30.26,37.63,30.65,37.67Z"/><path class="cls-1" d="M30.65,37.67c-.21,0,.21,0,0,0Z"/><path class="cls-1" d="M31.43,40.58c.42,0,.82-.07.33-.07C31.47,40.51,31.1,40.55,31.43,40.58Z"/><path class="cls-1" d="M29.18,42v0C29.44,42.07,29.81,42,29.18,42Z"/><path class="cls-1" d="M28.91,36.72c.11,0,.58.11.07.11s-.24.1-.22.13,0,.19.25.27-.19.17-.13.26,1,0,.37.11c-.39,0,0,.16-.09.16-.35,0-.12.21-.1.26s-.14.13-.09.22a.84.84,0,0,1,.35-.06c.15,0,.05.08.06.11s.19,0,.21,0-.16.07-.35.08l0-.06c-.36.08-.35.11-.19.18s-.21.07-.18.12.44.08.64.13-.34.09-.48.13c-.35.1.24.18.12.28s-.11.07.26,0-.08.11-.08.14.2.08-.39.14c-.2,0,.24.08.33.08.38,0,.54,0,.58,0-.18.08.14.05.39,0a9.32,9.32,0,0,1,1.24,0,6.8,6.8,0,0,1-1.05.08,6.06,6.06,0,0,1-.76,0c-.35,0-1,.07-.35.08-.17,0-.37,0-.34.11.24,0,.25.09.25.13s-.21.14,0,.21a1,1,0,0,0,.35,0,2.39,2.39,0,0,0-.7.12s1,0,1.08-.05c-.43,0-.91.06-.92.15s-.07.16.3.16c-.23,0-.34.07-.37.11s.1,0,.34,0l-.35.1a4.84,4.84,0,0,0,.67,0c.08,0,.41,0,.39,0s.17-.06.16-.08,0,.1-.24.16-.53,0-.7.05.47,0,.55,0-.29.09-.36.11c-.35.08-.41.19.18.18.1,0-.1.17-.39.14a2.8,2.8,0,0,1,.48,0c0,.05-.22.08-.33.12s.56,0,.69,0c-.17,0-.12.07-.42.08a3,3,0,0,0-.57.07h.21l0,.06s0,0,.06,0a9.49,9.49,0,0,0,1,0,2.36,2.36,0,0,1,.55,0c-.31,0-.64,0-.94.06s-.12,0-.23.06-.45,0-.49.05,0,.07.07.07.53-.08.69-.07-.05.07-.17.08c-.47.08-.55,0-.5.14s.74,0,1.35,0c.33,0,.75-.07,1.12-.09.78,0-.31-.06-.32-.07s.6,0,.66,0-.38,0-.5,0-.12-.12-.26-.17-.33-.09,0-.11a3.65,3.65,0,0,1,.58,0c0-.07,0-.16-.15-.22a7.09,7.09,0,0,0-1.11,0c.31,0,.1-.06.08-.08a3.14,3.14,0,0,1,.45,0c.22,0,1.12-.11.6-.13a5.22,5.22,0,0,0-.91.08c-.22,0-.46-.06-.28-.08a1.77,1.77,0,0,0,.4,0s-.22-.05,0-.09a2.81,2.81,0,0,1,.45,0c-.3,0-1.93.14-1.52,0,.1,0,1.89-.09,1.84-.11s-.91,0-1.09,0a6,6,0,0,0,.79-.11c.28-.09-.66.06-.54,0-.17,0-.14-.06-.21-.06-.27,0-.18,0-.2,0,.17,0,1-.09.77,0,.31,0,.84-.11.46-.13s-1,.06-1.17,0,.88,0,.9-.07-.77,0-1.05,0c0,0,.32,0,.34-.08s0-.07.12-.11a2.55,2.55,0,0,1,.48-.13c.16,0,.36,0,.31-.07s-.19-.05-.06-.09.15,0,.12,0-.21-.06-.34-.09S31,40,31.19,40l.45,0c-.07,0-.74,0-.79,0,.2,0-.23-.07-.13-.09a7.85,7.85,0,0,1,.91-.07,2.78,2.78,0,0,1-.41,0,.65.65,0,0,0,.49-.17c.05-.06.31-.16-.2-.09s-.23,0-.8,0c-.08,0-.43,0-.28,0a2.63,2.63,0,0,1,.39,0c.26,0-.28-.08.06-.1a1.56,1.56,0,0,0,.52-.06s.37,0,.34-.08-.24,0,0-.09a11.7,11.7,0,0,0-1.3.09c-.16.07-1,.1-.59,0,.74-.1-.39,0-.33-.1a1.25,1.25,0,0,1,.44-.06c.31,0,.12.06.29.06S31.35,39,31.35,39s-.79,0-.52,0l.38-.07c-.26,0-.34-.1-.17-.11a3.09,3.09,0,0,0,.67-.07c-.31,0-.1,0-.28,0a3.19,3.19,0,0,0-.45,0,.25.25,0,0,1-.1,0c-.26,0-.93-.05-1.14-.07a7.4,7.4,0,0,0,.75-.07c0-.06.33-.06.35-.09s-1.26,0-1.22-.09a7.25,7.25,0,0,0,1.43,0c.43,0,.11-.06-.18,0,.29,0,1.29-.08.62-.09-1.06,0,.18,0-.11-.1s-.71,0-.68.08a4.08,4.08,0,0,1-1,0l.71-.11c.24,0,.5,0,.74-.06s.33-.08.46-.08l-.72,0,.61-.07c.21,0-.07-.07-.22-.07a1.35,1.35,0,0,0,.36-.17c-.46,0-1,.09-1.46.1-.14,0-.13,0-.12-.06s.25,0,.32,0c.3-.07-.41-.05-.51-.06s-.14-.09-.07-.09.4.06.69,0c.13,0,.91-.09.93-.09s-1.1,0-1.27,0,0-.09.21-.1,1.09-.07,1-.13-.22-.05-.12-.09a1.28,1.28,0,0,1,.27,0c.12,0-.68-.08-.8-.1s.32-.1.39-.13.43-.09-.06-.08-.73.05-.77,0c.41,0,1.48,0,1.11-.12,0-.07-1.3.06-1.57,0-.06,0,1.19-.11,1.23-.1s-1.2,0-1.45,0S28.53,36.63,28.91,36.72Z"/><path class="cls-1" d="M31.73,43.7c.11,0,.57,0,.57,0S31.71,43.65,31.73,43.7Z"/><path class="cls-1" d="M29.49,44.3c-.21,0,.21.05,0,0Z"/><path class="cls-1" d="M31.49,42.37a4,4,0,0,0-.84,0s.19.12-.21.09c-.14,0,0,0-.17,0a3.35,3.35,0,0,0-1,.11c-.18.07-.15.17.05.22s.92,0,.57.08c-.14,0-.44,0-.6,0s-.08.08-.06.11.28,0,.4.07,0,.07-.11.11-.45.28.11.24c.08,0,.76,0,.53,0s-.47,0-.69.07c.12,0,.55,0,0,.09-.25,0,.19,0,.2,0s-.34.1-.4.15.38,0,.28,0-.38.1-.35.16.31.05.31.05-.14.1-.12.15-.2.1.06.12a.73.73,0,0,0,.25,0s-.09,0,0-.06.35-.06.53-.09.72-.11,1.09-.14A2.53,2.53,0,0,0,32,44c.11,0-.41,0-.49,0-.36,0,.24-.07.16-.1a1,1,0,0,0-.3,0,3.4,3.4,0,0,0,.49-.11s-1.11,0-1.23,0c-.45-.07.43,0,.42-.07a3.88,3.88,0,0,1-.42,0c-.05,0,.15,0,.26,0l.76-.09c-.09,0-.79-.06-.74-.07a9.13,9.13,0,0,1,1.07,0c.21,0-.64-.16,0-.19l-.83,0c0-.06.66,0,.41-.11a1,1,0,0,0-.48,0C31,43.06,31,43,31,43s.86.05.44,0c-.12,0,.24,0,.27-.07s-.16-.08-.18-.13.6-.15.12-.14c-.15,0-.58,0-.66,0s.16-.08,0-.08a1.56,1.56,0,0,1-.25,0,4.4,4.4,0,0,1,.82-.17s-.42.15.24.11c0,0,.14-.13.13-.14s-.12-.07.16-.09c0,0,0,0-.12,0C31.63,42.22,31.45,42.33,31.49,42.37Z"/><path class="cls-1" d="M31.73,46.17c-.19,0,0,0,0,0Z"/><path class="cls-1" d="M31.78,44.22s-.49.19-.53.1c.32-.07-1,0-.59-.08.22,0,.53,0,.5-.09s0,0-.16,0c-.6,0-.56.17-.87.22s-.76,0-.77.1,0,.08.07.12.35.07.17.12-.18,0,.09.07c0,0,.1.07-.05.06l.4,0c-.09,0-.52,0-.61,0s.2.06.25.07.63,0,.47,0c.41,0,0,0,.2.06l.68-.06a7.11,7.11,0,0,1-1,.11l-.48.1c-.07,0-.29.22-.31.22l.68-.06c0,.06-.48.07-.53.11s.19.08.4.1.15.05-.14,0-.16.08-.15.1,0,.11.16.11.52,0,.31,0c-.56.09-.51.11.21.06,0,0-.44,0-.56.06s-.27.1-.21.13,1-.09.62,0c-.18.06-.51,0-.48.12s.41,0,.61.05a4.46,4.46,0,0,0,.63,0,.78.78,0,0,1,.55-.15c.28,0,0,.13.37.11a3,3,0,0,0,.69,0H32c.24,0,.51-.09.48-.12a2,2,0,0,0-.63-.13c-.23,0-.8,0-.47-.07s.2-.1-.13-.09a1.08,1.08,0,0,0,.43-.1s.37.1.4,0,.16-.09.14-.13-1.29,0-1,0,1.39,0,1-.17a2.94,2.94,0,0,0-.71,0c-.28,0-.31,0-.61,0a4,4,0,0,1,.75-.07,5.32,5.32,0,0,0,.69,0c.17,0,0,0-.15,0a3.71,3.71,0,0,1-1,0c-.08,0,0-.06.19-.08a2.14,2.14,0,0,0,.67,0s-.22,0,0,0,.13,0,.11-.07.24,0,.24-.07a1.17,1.17,0,0,0-.6-.23c.07,0,.23,0,.32,0s0-.06,0-.08.17-.11.11-.16-.64,0-.43,0,.5-.1.17-.08c.35,0,0-.17.19-.21s-.72-.07-.94,0A.75.75,0,0,1,31.78,44.22Z"/><path class="cls-1" d="M32.59,46.15l-.17,0Z"/><path class="cls-1" d="M31.64,46.81v0c.13,0,.21-.05.16-.07S31.62,46.78,31.64,46.81Z"/><path class="cls-1" d="M32,47.06v0C32.78,47,31.91,47,32,47.06Z"/><path class="cls-1" d="M29.48,46.34s-.07.09,0,.14.36.07.07.08c.17,0,.29.09.18.1s-.2,0-.17,0c-.17.07-.07.16-.07.23s-.09.19.4.18c.09,0-.2,0-.3,0,.5,0-.16.17-.08.23s1.15,0,1.61,0h.14a6.72,6.72,0,0,0,.77,0,4.35,4.35,0,0,0-.48,0c-.2,0,.27-.06.42-.08s-.45-.07-.5-.08,0-.06-.08-.08-1,0-.63,0a4.89,4.89,0,0,1,.91,0c.68,0,1,0,.77-.12,0,0-.17-.21-.33-.2-.33,0-.15.1-.18.14s-.26.09-.54.06-.42.12-.63.1.21-.08.22-.09-.08-.05-.06-.08.42,0,.43-.06-.14,0,0-.06.84-.14.8-.16l-.45,0c-.22,0-.21,0-.44,0s-.67,0-.76,0,.3-.06.28-.06-.57,0-.68,0-.31,0-.47,0a9.25,9.25,0,0,0,1-.08,1.2,1.2,0,0,1,.48,0c.05,0-.14,0,0,.07a2.83,2.83,0,0,0,.48,0,9,9,0,0,0,.94,0,8.24,8.24,0,0,0-.88,0,6,6,0,0,0,.81-.15s-.76,0-.86,0a3.54,3.54,0,0,1-.57,0A7.36,7.36,0,0,0,29.48,46.34Z"/><path class="cls-1" d="M31.29,47.3h-.14S31.43,47.32,31.29,47.3Z"/><path class="cls-1" d="M30.53,47.33c-.14.08-.22.06-.72.09-.32,0-.19.08-.16.11s.07.27.87.21c0,.06-.4,0-.56.06a4.15,4.15,0,0,0,1,0c.38,0,.6-.12,0-.09a8.07,8.07,0,0,0,1.35-.2,6,6,0,0,1-1.76,0h.49l1.05,0c.55,0-.67,0-1,0,.18,0,.63-.12.32-.11a3.85,3.85,0,0,1-.68,0S30.56,47.3,30.53,47.33Z"/><path class="cls-1" d="M32.33,47.87c.34,0,.07-.06-.22,0l0,0Z"/><path class="cls-1" d="M17.29,37.4c-.26-.12-.21,0,0,.08V37.4Z"/><path class="cls-1" d="M17.29,37.35l0,0S17.14,37.24,17.29,37.35Z"/><path class="cls-1" d="M17.33,37.38s0,0,0,0c-.29-.22-.58-.2.12.08C17.41,37.42,17.38,37.4,17.33,37.38Z"/><path class="cls-1" d="M20.43,33.55c-.9-.42,0,.12,0,0Z"/><path class="cls-1" d="M20.52,32.25s0,0,0,0a.29.29,0,0,0-.22,0A.84.84,0,0,0,20.52,32.25Z"/><path class="cls-1" d="M18.63,35.82l.18.09Z"/><path class="cls-1" d="M19.37,38.48c.21.06.11,0,0-.1s.05,0,.1,0-.85-.43-.61-.34.59.25.89.39.57.22.34.08-.38-.14-.69-.29c0-.07.51.2.51.15s-.17-.1-.35-.18c0-.06.48.18.51.16s0,0,.12,0-.07-.11-.31-.22-.33-.16-.33-.2l.66.31c.3.14-.08-.09-.15-.12s0-.07,0-.1a1.08,1.08,0,0,0-.24-.18c.05,0,1.18.48.41.07-.24-.11-.07-.06,0,0s.11,0,0-.1,0,0,.28,0-.4-.26-.71-.4c.13.06.19.06.42.16l.23.09c.19,0,.12-.09.18-.12s.25,0,.18-.12a6.78,6.78,0,0,0-.69-.32,2.33,2.33,0,0,0,.25.07l.28.12c.11,0,.05,0,.05,0s-.13-.09-.13-.1.15,0,.12-.08-.58-.31-.39-.28.75.22.6.09-.67-.4-.06-.11a1.37,1.37,0,0,0-.25-.15c.88.39.58.08.58,0s.09-.16-.19-.29c0,0,.08,0,.12,0s.05-.07,0-.12.17,0,.16-.13.05-.05-.17-.15-.26-.13-.26-.15.08,0,.25,0,0-.09.05-.08.42.15.11,0a1.25,1.25,0,0,1-.34-.21l.46.22c.14,0-.25-.24-.28-.28s.11,0,.17,0,.37.06,0-.11L20.68,35l.63.21c.24.06-.56-.28-.64-.32a9.08,9.08,0,0,1,1,.38c.24.07-.11-.14-.12-.17s.2,0,0-.12l-.18-.08s-.07-.07-.18-.13l-.42-.2s.94.39,1.07.41,0-.12,0-.17.31-.08-.23-.34c.38.15.19-.08.23-.1s.29.05.15,0a4.07,4.07,0,0,0-.59-.24c-.47-.24.7.17.61.1s-1.13-.52-1-.48,1.41.65,1.07.4,0-.11-.28-.3c-.11-.08-.34-.27-.18-.23.33.15.68.21.26,0,.94.42.54,0-.28-.31l.66.26c.27.1.2,0,.19,0s.21-.05-.17-.21c.2.06.25,0,.24,0s-.16-.14-.61-.35a6.82,6.82,0,0,1,.69.23,1.13,1.13,0,0,1-.35-.21c.67.32.52.16.51.09a6.74,6.74,0,0,0-.95-.55l-.74-.36c-.18-.09.06,0,.15,0,.31.14.64.31.94.46,0,0,.54.27.49.23s-.09-.07-.07-.08a.67.67,0,0,0,.16.06s.05,0-.08-.09-1.21-.53-1.17-.53,1.05.38.39,0c-.25-.07-.63-.28-.9-.38s.46.33.16.21-.39-.2-.63-.28,0,.07,0,.09a5.49,5.49,0,0,0,.9.49,3.59,3.59,0,0,1,.48.26s.05.1-.09,0-.32-.22-.42-.27a6.11,6.11,0,0,0-.63-.32c.42.19.23.18.46.31,0,.06-.13,0-.27-.06s-.06,0-.07.06-.19-.07-.33-.12-.2,0-.26,0-.32,0-.05.11c.44.18.58.27.47.29s-.61-.24-.29-.06-.33-.07-.06.07,1.13.54,1.14.54-.6-.25-.76-.31a4.33,4.33,0,0,1-.51-.17s-.16-.08-.17-.08.15.08.18.11c.22.1.19.14.17.16s.56.19.46.2a8.28,8.28,0,0,1-.92-.36c-.24-.06.15.16.44.3s.2.1.21.14-.17,0,0,.05.43.17.2.13-.33-.19-.7-.36c.08.09-.34-.11-.06.08s-.09.09.38.29c-.23-.11-.32-.11-.15,0s.38.2.59.3c.38.21-.26-.06-.39-.12s-.79-.34-.67-.24.34.26-.14,0c.33.17,1.31.61.9.51-.21-.06-1-.45-.72-.25.05,0,.46.27.36.24s-.39-.16-.52-.2.13.1.13.12.35.18.47.25,0,.09.27.24c.06,0,.49.28.14.12s-.36-.09-.36,0,.19.15.25.21-.84-.41-1-.46.41.24.48.27.26.17.08.08l.65.3c-.06,0-1-.44-1.27-.55,0,0,.52.25.52.31-.58-.29-.15,0-.3,0s-.34-.17-.38-.14.06.05.1.1-.09,0-.09.06v.15A3.24,3.24,0,0,1,20,35c.16.11-.34-.1-.46-.14s-.42-.13-.31,0a2.07,2.07,0,0,0,.52.19c.15.05.34.29,0,.12-.72-.32.52.35.52.37a4.12,4.12,0,0,0-.59-.25s.2.24-.09.06c0,0,.25.22,0,.11s-.47-.17-.31-.09a4.2,4.2,0,0,0,.84.28,1.53,1.53,0,0,1,.27.17s-.32-.1-.45-.16l-.68-.26.34.21c.45.24.13.09-.11,0-.6-.2.35.37-.33.09-.08,0,.57.32.32.22-.06,0-.76-.33-.49-.18a5.33,5.33,0,0,1,.56.29,1.38,1.38,0,0,1-.33-.09s.29.08,0,0-.29-.07-.29,0-.06,0,.13.13a1.91,1.91,0,0,0,.56.19,2.61,2.61,0,0,1,.41.2c.14.09-.15,0-.24,0s-.57-.2-.93-.35l.34.17a3.83,3.83,0,0,1-.43-.15c-.21-.07,0,.09.08.16a2.68,2.68,0,0,0,.45.32c.08,0,.44.23.28.17s-.85-.39-.86-.4.5.27.5.29a2.45,2.45,0,0,0-.39-.15c-.06,0-.1,0,.14.14a1.26,1.26,0,0,0,.35.28c.14.16-.24-.05-.53-.13s.37.24.36.17a2.48,2.48,0,0,0,.77.48l-.76-.36-.43-.17c.46.21.48.27.43.32s-.42-.11-.67-.18c.28.13.17.22.2.26s.44.24.39.26-1.17-.33-.39,0c0,0-.57-.17-.32,0l.67.37-.86-.44.87.52-.76-.39a6.36,6.36,0,0,0,1.1.57,7.11,7.11,0,0,1-.92-.39c-.34-.16,0,0-.16,0s-.32-.14-.23-.07.31.18.23.18a.42.42,0,0,1-.16,0c-.06,0-.6-.17-.46-.08l.54.27c.43.21.53.26.39.25s.2.13.29.19S19.21,38.43,19.37,38.48Z"/><path class="cls-1" d="M18.68,36.73l-.17-.08Z"/><path class="cls-1" d="M21.2,31.64c.07,0,.13,0-.18-.13s-.23,0-.21,0l.34.11Z"/><path class="cls-1" d="M22.8,32.61c.31.09-.19-.14.09-.06s-.29-.26-.36-.36c.35.16.4.15.3.06s-.36-.21-.55-.33c.36.22,1.23.46.41.14-.29-.09-.21-.14,0-.07s.51.22.51.15c.27,0-.77-.36-.86-.4s-1.2-.6-1.32-.6.32.19.1.13-.52-.19-.33-.08.54.22.69.3l.28.15c-.27-.12-.71-.3-.42-.13l.84.42-1-.48c0,.05.44.21.5.28s-.08,0-.12.05,0,.13-.23,0a2.69,2.69,0,0,0-.38-.11,5.65,5.65,0,0,1,.6.25c0,.06-.38-.12-.62-.23a1.84,1.84,0,0,1,.42.26,1.4,1.4,0,0,0,.48.25A8,8,0,0,0,22.8,32.61Z"/><path class="cls-1" d="M23.2,32.14s.17,0,0,0Z"/><path class="cls-1" d="M23,32c.39.12-.51-.28-.69-.37a6.53,6.53,0,0,0,.92.36,4.9,4.9,0,0,1-.58-.3s-.05-.1,0-.1a2.8,2.8,0,0,1,.28.13c.32.14.28.05,0-.09.26.09-.38-.24-.12-.16a3,3,0,0,1,.54.27,3.75,3.75,0,0,0-.87-.49c.3.12.54.21.86.36a7.93,7.93,0,0,1-1-.6c.28.13,1,.43.79.29s-.58-.18-.77-.33.71.3.67.23-.45-.24-.17-.15l.27.12-.39-.2a4.26,4.26,0,0,0,.79.29c.11,0-.07-.06-.23-.14a.88.88,0,0,0,.41.12s-.2-.14-.31-.22-.21-.16-.21-.19a3.5,3.5,0,0,1,.5.22,2.24,2.24,0,0,0-.35-.24l-.15-.07c-.56-.27-.84-.36-1.42-.62s-.29-.06-.33,0-.34,0-.06.15a3.43,3.43,0,0,0,.77.32s.82.47.9.51l-.61-.3a2.64,2.64,0,0,0-.29-.11,4.48,4.48,0,0,0-.69-.32c0,.05-.55,0,.17.31-.08,0-.09.05-.08.08s-.31-.1-.38-.09-.09.05.07.17c.32.23-.26-.07-.25,0a8.52,8.52,0,0,1,.8.35c.14.07.65.36.38.28a12.94,12.94,0,0,1-1.18-.58s-.14.1.14.24.93.4,1.06.5A3.25,3.25,0,0,0,23,32Z"/><path class="cls-1" d="M21.9,30.06c-.12-.1-.34-.17-.34-.13S21.9,30.1,21.9,30.06Z"/><path class="cls-1" d="M23.27,30.54v0C23.07,30.37,22.69,30.27,23.27,30.54Z"/><path class="cls-1" d="M22.41,30.09c.42.18.93.38,1.38.58a2.66,2.66,0,0,0-.57-.38c-.35-.17,0,.08-.1,0s-.33-.23-.1-.15.56.26.72.29c.54.09-.67-.32-.73-.39s.82.31.9.3.18,0-.32-.23c0,0,.33.1.46.11s.11-.05-.26-.22c.64.3,0-.19.24-.15,0,0,0,0,0,0-.21-.1-.82-.35-1.21-.5a1.72,1.72,0,0,0-.39-.13c-.07,0-.67-.29-.42-.15s.3.13.3.16a.13.13,0,0,0,0,.06,6,6,0,0,0,.63.35c.44.28-.88-.41-.85-.4s.45.28.21.19-.66-.27-.6-.18a1.62,1.62,0,0,0,.48.29s-.15-.13-.06-.09c.28.14.27.25.16.23a.58.58,0,0,1-.21-.1,1.89,1.89,0,0,0-.43-.21l.69.39c-.12-.06-.88-.41-.74-.31s.43.22.51.29a2.27,2.27,0,0,1-.22-.07c-.23,0,.89.44-.05.06-.4-.14-.54-.17-.17,0s-.56-.19-.2,0,1,.54,1.5.75C24,31.07,22.67,30.25,22.41,30.09Z"/><path class="cls-1" d="M24.08,29.9h0S24.21,30,24.08,29.9Z"/><path class="cls-1" d="M23,28a1.49,1.49,0,0,0-.52-.26S23,28.06,23,28Z"/><path class="cls-1" d="M22.76,27.47c-.16,0,.18.18.17.09A.65.65,0,0,0,22.76,27.47Z"/><path class="cls-1" d="M22.7,29.27a4.11,4.11,0,0,0,.38.18c.26.08-.32-.2.3.09.22.1.72.26.46.12s-.44-.23-.64-.34a5,5,0,0,0,.75.31s-.25-.23.18,0a1.91,1.91,0,0,1-.59-.32,4.75,4.75,0,0,0,.77.33s-.48-.28-.55-.33c-.42-.28.47.2.53.19s-.22-.18-.26-.22a4.06,4.06,0,0,0-.51-.25,3.1,3.1,0,0,1,.64.28c.07,0,.08,0,.22,0s.2.08,0,0-.08-.1.05-.07.49.18.27.06A5.28,5.28,0,0,1,24.2,29s.19.05.33.12c.56.26-.16-.14-.25-.17s.42.16.42.12-.23-.11-.37-.18.47.12.49.12-.21-.13-.28-.19a2.51,2.51,0,0,0-.54-.39c-.12-.08-.37-.23-.19-.17a6.59,6.59,0,0,0,.69.24c0-.05.25.07.41.12.42.13-.67-.43.09-.14-.37-.17-.67-.33-.53-.32s.69.25.69.21a10.65,10.65,0,0,0-1.08-.42A11.66,11.66,0,0,1,23,27.36c-.33-.17-.25,0-.24,0s.6.24.79.35l-.42-.21c.22.09.46.21.61.29s-.1,0-.29-.07-.71-.27-.18,0c.19.09.76.35.64.35a9.17,9.17,0,0,1-1-.43c-.26-.12-.17,0-.17,0s-.27,0,.53.4c-.28-.08.13.11.13.16a2.92,2.92,0,0,0-.38-.14s1,.47.55.36a4.37,4.37,0,0,1-.65-.25c-.16-.1.19,0,.25.05s-.06-.07-.24-.16-.19-.1-.17-.13c-.34-.15-.51-.13-.17,0,0,.05-.28-.06-.22,0a1.44,1.44,0,0,0,.58.34,4.56,4.56,0,0,1,.49.19c.1.05.62.38.45.3s-.53-.24-.81-.35-.44-.17-.47-.14-.36-.11-.41-.1,2.53,1.2.41.22c-.37-.17-.51-.19-.29,0l.87.46s-1.08-.51-1.08-.46a8.59,8.59,0,0,1,1.21.59,9.35,9.35,0,0,1-1-.41c-.08,0,0,0,0,.05s-.2-.08-.26-.09.57.41.56.41-.35-.19-.48-.22,0,0,.08.09.7.39.65.39-.65-.27-.82-.32.09.11.3.21S22.46,29.16,22.7,29.27Z"/><path class="cls-1" d="M24,27.82c.27.13.7.29.54.17l-.05,0-.82-.37a3.15,3.15,0,0,1,.37.19C23.87,27.69,23.27,27.5,24,27.82Z"/><path class="cls-1" d="M23.25,27.2a2.43,2.43,0,0,0-.52-.24A1.52,1.52,0,0,0,23.25,27.2Z"/><path class="cls-1" d="M25.44,28.35s-.27-.16-.28-.18.16,0,.13,0a1,1,0,0,0-.25-.21l-.33-.17a3.18,3.18,0,0,0,.41.15c-.17-.1-.64-.32-.85-.42l-1.21-.55s.85.44.76.43a8.89,8.89,0,0,0-.92-.4c.7.3.25.16.56.33s.89.37.81.42-.44-.2-.61-.29a7.34,7.34,0,0,0-.93-.36s1,.52,1.17.59a7.41,7.41,0,0,1,1.09.58C25,28.17,25.05,28.2,25.44,28.35Z"/><path class="cls-1" d="M25.46,28c.05,0,0-.1-.18-.22s-.56-.27-.69-.36.88.34.93.35,0-.06,0-.1,0-.12,0-.15.31.05-.13-.22c-.06,0-1.37-.65-1.05-.56,0,0,.4.21.5.25l.4.15c.34.09.4,0,.4,0s.07-.07-.11-.17-.18,0-.17,0-.49-.25-.55-.27l-.92-.44c-.27-.12,0,0-.2,0s-.37-.15-.3-.08.16.18.66.41c.16.08.52.24.39.14s.34.15.37.16.57.31.43.27-.36-.18-.43-.21a5.34,5.34,0,0,0-.65-.27,2.32,2.32,0,0,1-.65-.23s.17,0,.05,0-.45,0,.2.21c.25.12.13.08.22.15a1,1,0,0,0,.3.15l-.68-.22c-.25-.07-.17,0-.17.07-.35-.05.67.32,1,.48.08,0,.06.06.05.06a1.88,1.88,0,0,1-.34-.14c-.28-.13-.67-.29-.46-.14s.59.33.81.48c0,.05.35.2.42.28s-.75-.39-.83-.43a5.53,5.53,0,0,0-.77-.33c-.2,0,.21.18.49.29s.32.11.48.18.11.08.05.06A4.3,4.3,0,0,0,25.46,28Z"/><path class="cls-1" d="M25.39,26.6c.35.18-.52-.29,0,0Z"/><path class="cls-1" d="M25.15,26.56c.05,0,.34.17.46.21s-.07-.1-.22-.17S24,25.85,24.19,26c-.24-.1-.41-.19-.35-.21-.36-.16,0,.15.07.2a6.33,6.33,0,0,0,1.19.67C26.13,27.16,25,26.59,25.15,26.56Z"/><path class="cls-1" d="M26,26.08c.15.07.17.08.17.06v0C26.08,26.06,26,26.05,26,26.08Z"/><path class="cls-1" d="M25.37,25l-.07,0-.17-.1c-.19-.1-.35-.19-.35-.14a6,6,0,0,0,.76.37A1,1,0,0,0,25.37,25Z"/><path class="cls-1" d="M25.37,25l-.24-.13.17.1Z"/><path class="cls-1" d="M24.26,24.48s.17,0,.17,0C24.05,24.24,24.26,24.46,24.26,24.48Z"/><path class="cls-1" d="M24,25.89c0-.06.64.24.57.17s-.25-.17-.34-.24-.12-.13,0-.06l-.48-.24.92.4c-.22-.14-.86-.48-.67-.45a3.79,3.79,0,0,1,.84.37s.17.11.17.08,0-.06-.09-.09a5.7,5.7,0,0,0-.55-.31c-.29-.12-.6-.3-.52-.31s.65.28.82.33-.09-.11-.22-.19a3,3,0,0,1-.49-.2c-.4-.2-.32-.21.06,0-.14-.06-.33-.17-.26-.16s.4.16.55.23l1.58.71c-.38-.17-.77-.43-1.08-.56a4.23,4.23,0,0,1-.54-.21c-.2-.1.13,0,.17,0,.26.09,1,.42.86.3a9,9,0,0,0-.89-.34c-.63-.21-.34-.2-.34-.24s-.27-.21-.09-.16.46.2.58.25a8.78,8.78,0,0,0,.94.37s-1-.43-1-.44.23.09.11,0-.4-.17-.54-.25c-.56-.28.07,0,.34.09-.27-.13-.73-.36-.27-.18s1.26.52,1.68.73l-.25-.17c-.2-.13-.43-.25-.68-.39-.64-.25.25,0,.25,0s-.77-.3-.49-.24c.1,0-.25-.17-.25-.2s.39.13.39.11-1.19-.53-.77-.41c.25.07,1,.42,1.36.57l-.52-.29a4.28,4.28,0,0,0-.54-.29s0,.07,0,.05c-.26-.07-.13-.19-.13-.19s-.08-.15.24,0c1.05.53-.33-.31,0-.23s.79.34,1,.44a9.73,9.73,0,0,1,1.21.6c.18.14,0,.06-.35-.11s-.5-.14-.58-.19c.24.15.63.33.94.48a11.4,11.4,0,0,0-1.15-.48c.34.18.81.39,1,.52s.36.32-.14.08c.43.19.17.14,0,.06s-.64-.23-.29-.06.64.31.43.28.05.05.05.12c-.46-.15-.06.22-.09.29s0,.06-.21,0l-.45-.22s.39.24.47.29-.06.06-.2,0c-.57-.22,0,0,.12.12s.08.08.05.08-.25-.12-.28-.13a3.43,3.43,0,0,1,.33.24,7.87,7.87,0,0,1-.83-.24c-.38-.11.46.24.66.33.39.19-.22,0,.05.13-.58-.27,0,.16-.16.07a5.62,5.62,0,0,0-.78-.32L24.85,26l.84.35a3.42,3.42,0,0,1,.36.14c.06.05,0,0-.16,0s.08.1-.05,0-.29-.12-.29-.08.24.16,0,.05c.1.12,0,0,.39.23-.12-.07-.15.09-.72-.26a5.79,5.79,0,0,1-.69-.31l-.35-.16S24.17,26,24,25.89Zm1.17-.18c.12,0-.21-.14-.4-.23l-.28-.11A3.6,3.6,0,0,0,25.18,25.71Z"/><path class="cls-1" d="M26,23.93a2.27,2.27,0,0,0,.47.19S25.65,23.78,26,23.93Z"/><path class="cls-1" d="M26.54,24.38c-.12-.08-.33-.17-.45-.26s.13,0,.34.13.69.26.37.09l-.89-.4c-.59-.19-.34-.22-.32-.21L25,23.49l-.12-.07a4.16,4.16,0,0,0-.52-.26c-.2-.05.09.1.3.2s.72.34.47.25-.51-.23-.71-.3-.06,0,0,.09.06.12.09.19a6.93,6.93,0,0,0,1.2.6C26.19,24.38,26.92,24.63,26.54,24.38Z"/><path class="cls-1" d="M24.92,23.42l.12.07C25.2,23.56,24.66,23.27,24.92,23.42Z"/><path class="cls-1" d="M25.34,22.84c-.18-.11-.85-.41-.65-.28A2.68,2.68,0,0,0,25.34,22.84Z"/><path class="cls-1" d="M25.68,22.85c-.22-.17-1-.45-.86-.36S26,23.05,25.68,22.85Z"/><path class="cls-1" d="M25.68,22.85c.17.1-.18-.13,0,0Z"/><path class="cls-1" d="M26.05,20.52c-.36-.22-.75-.32-.32-.1C26,20.55,26.33,20.69,26.05,20.52Z"/><path class="cls-1" d="M28.57,20.59v0C28.37,20.42,28,20.33,28.57,20.59Z"/><path class="cls-1" d="M26.87,24.27c-.08-.06-.47-.33,0-.1s.24,0,.24,0,0-.15-.13-.3.24,0,.22-.12-.88-.47-.29-.24c.35.16,0-.12.14-.07.31.15.18-.09.18-.13s.17,0,.16-.11a1.12,1.12,0,0,1-.33-.12c-.14-.07,0-.08,0-.1s-.17-.08-.17-.12a.89.89,0,0,1,.34.11V23c.35.12.36.08.24,0s.22,0,.21,0-.37-.25-.53-.38.34.09.48.13c.35.09-.15-.23,0-.25s.12,0-.21-.14.11,0,.11-.06-.14-.14.41.09c.18.07-.19-.16-.26-.21-.34-.18-.5-.22-.5-.29.17,0-.12-.09-.35-.18s-1.12-.5-1.12-.54a7,7,0,0,1,1,.43c.11.05.68.32.68.34.31.16.9.4.34.11.17,0,.34.13.34.08-.21-.13-.19-.17-.18-.21s.24,0,.05-.14a1.16,1.16,0,0,0-.29-.2,2.73,2.73,0,0,0,.67.24l-1-.46c.4.18.84.38.87.32s.13-.07-.2-.24a.74.74,0,0,0,.37.09c.07,0-.07-.07-.29-.18,0,0,.34.1.35.09a6.06,6.06,0,0,0-.57-.34c-.08,0-.37-.2-.36-.16s-.17,0-.17,0,0-.08.27,0,.47.23.64.28-.4-.24-.47-.28.29.07.36.09c.34.1.44.05-.09-.2-.09-.05.15-.08.4.07a2.66,2.66,0,0,1-.42-.24s.23.05.34.07-.51-.24-.63-.3c.16.08.14,0,.42.14a2.54,2.54,0,0,0,.52.21l-.18-.1v-.05c.05,0,0,0,0-.05-.21-.13-.56-.31-.86-.46a2.62,2.62,0,0,1-.48-.25l.85.39c.22.09.12,0,.23.06s.41.19.45.18.06,0,0-.08-.5-.18-.64-.26.08,0,.19,0c.44.16.5.23.49.14s-.63-.37-1.21-.61c-.31-.12-.69-.29-1-.44-.71-.33.26.18.26.19l-.6-.27s.34.17.43.25.07.13.17.24.26.2-.07,0a3.34,3.34,0,0,1-.51-.26c0,.06-.09.1.05.22a8.3,8.3,0,0,0,1,.49c-.28-.13-.11,0-.1,0a3.27,3.27,0,0,1-.41-.17c-.2-.09-1-.44-.58-.18a7.06,7.06,0,0,0,.83.35c.21.09.4.25.23.18s-.33-.17-.37-.17.18.13,0,.06a4.12,4.12,0,0,1-.42-.17c.28.12,1.77.78,1.36.7-.1,0-1.72-.8-1.68-.77a9.31,9.31,0,0,0,1,.51,7,7,0,0,0-.75-.28c-.28-.07.61.26.5.21.16.07.1.11.17.14.24.11.16.08.16.12-.16-.06-.9-.38-.69-.34-.28-.14-.79-.3-.46-.12s.93.42,1.05.52-.79-.38-.82-.36a4.58,4.58,0,0,0,.93.48s-.3-.13-.34-.1,0,0-.14,0a3.2,3.2,0,0,1-.47-.13c-.16-.06-.34-.15-.31-.1s.15.12,0,.09-.14-.06-.12,0a1.59,1.59,0,0,0,.28.22c.07,0,.36.25.21.2s-.41-.19-.41-.19.64.35.69.37c-.19-.06.19.15.09.12a8.06,8.06,0,0,1-.84-.37l.37.19a.82.82,0,0,0-.51-.11c-.06,0-.33,0,.15.16a5.64,5.64,0,0,1,.7.39c.07,0,.37.21.23.16a2.88,2.88,0,0,1-.35-.17c-.24-.11.22.17-.09,0a2.54,2.54,0,0,0-.48-.2s-.34-.15-.33-.1.19.14,0,.08c.23.1,1.07.51,1.19.53s.9.37.54.26c-.7-.27.33.19.26.21a1.34,1.34,0,0,1-.42-.16c-.28-.13-.08-.09-.24-.16s-1.06-.44-1.06-.45.7.35.45.26a3,3,0,0,0-.36-.12c.23.1.26.21.1.14a4.14,4.14,0,0,0-.61-.25c.28.13.07.07.22.15l.42.18.1,0c.23.12.81.46,1,.57a6.09,6.09,0,0,0-.69-.29c0,.05-.32-.11-.35-.1s1.13.56,1.05.61a9.11,9.11,0,0,0-1.28-.62c-.4-.17-.12,0,.14.11-.26-.12-1.17-.53-.58-.22.95.48-.17-.05.06.11s.64.32.63.26a5.43,5.43,0,0,1,.87.42L26,22.64c-.23-.09-.46-.21-.69-.3s-.32-.1-.43-.15l.66.3L25,22.26c-.21-.07,0,.07.16.14a1.7,1.7,0,0,0-.38,0c.4.22.94.4,1.34.6.12.06.1.09.08.1l-.29-.12c-.3-.09.34.22.42.27s.1.12,0,.09-.34-.22-.61-.34c-.11-.06-.84-.35-.86-.36l1.14.57c.19.11,0,.07-.22,0s-1-.45-.9-.34.18.13.08.11a1.53,1.53,0,0,1-.25-.11c-.12,0,.58.36.68.43s-.33-.08-.4-.09-.42-.14,0,.08.67.3.67.36c-.37-.17-1.32-.64-1-.42,0,.06,1.19.55,1.41.69,0,0-1.1-.46-1.13-.49s1.07.53,1.29.65S27.19,24.51,26.87,24.27Z"/><path class="cls-1" d="M26.92,18.28c-.09-.06-.5-.28-.51-.24A1.8,1.8,0,0,0,26.92,18.28Z"/><path class="cls-1" d="M29.14,18.89c.18.1-.17-.13,0,0Z"/><path class="cls-1" d="M26.65,19.28a6,6,0,0,0,.76.37s-.13-.17.22,0c.12.07-.05,0,.13.11a4.35,4.35,0,0,0,.9.36c.19,0,.2,0,0-.17s-.83-.42-.48-.31c.13,0,.4.18.55.24s.1,0,.09-.05-.23-.15-.32-.23,0,0,.14,0,.49,0,0-.22c-.08,0-.69-.32-.47-.24s.43.19.64.27c-.12-.05-.48-.28,0-.07.23.09-.16-.1-.16-.12s.34.09.41.08-.34-.18-.23-.16.37.11.37.06S29,19,29,19s.17,0,.17-.05.21,0,0-.1a1.24,1.24,0,0,0-.21-.14s.07.07,0,0l-.5-.18c-.29-.11-.68-.26-1-.41a4.74,4.74,0,0,0-.55-.21c-.12,0,.36.2.42.24.32.18-.24-.06-.17,0a2.09,2.09,0,0,0,.26.13,4,4,0,0,0-.48-.15s1,.52,1.08.59c.38.26-.4-.16-.4-.14s.32.18.36.22-.15,0-.25-.08l-.7-.29c.07,0,.67.4.63.39-.31-.1-.79-.44-.95-.5s.51.4-.08.13l.75.34c0,.06-.6-.27-.41-.11a1.16,1.16,0,0,0,.42.24c.08.06,0,.08,0,.1s-.75-.42-.4-.18c.09.06-.24-.08-.27-.07s.11.12.12.16-.6-.17-.17,0l.61.28c.08.05-.18,0,0,.07a1.78,1.78,0,0,1,.23.1,6.69,6.69,0,0,1-.8-.27s.43.1-.17-.18c0,0-.17,0-.17,0s.09.1-.17,0c0,0,0,0,.09.09S26.68,19.33,26.65,19.28Z"/><path class="cls-1" d="M27.83,16.6c.18.08,0,0,0,0Z"/><path class="cls-1" d="M27.07,17.9s.51.1.51.17c-.31-.09.86.48.5.33-.21-.09-.49-.22-.49-.17s0,0,.13.1a3.37,3.37,0,0,0,.86.24,6.63,6.63,0,0,0,.72.29.08.08,0,0,0,0-.11c0-.05-.28-.21-.1-.17s.17.06-.06-.08c0,0-.06-.1.07,0l-.36-.2a5.86,5.86,0,0,0,.57.26s-.16-.13-.2-.16-.55-.31-.43-.19c-.38-.17,0,0-.16-.13s-.62-.27-.62-.27a8.71,8.71,0,0,1,.91.37,4,4,0,0,0,.46.15c.07,0,.34,0,.36,0L29.09,18c0-.05.45.18.51.17s-.14-.14-.32-.25-.11-.1.15,0,.17,0,.16,0,.07-.06-.1-.15-.47-.23-.27-.16c.53.19.5.15-.16-.14,0,0,.41.18.52.21s.28.06.24,0-.89-.38-.54-.31c.18,0,.46.21.46.14s-.36-.19-.52-.32-.51-.28-.56-.28a1.16,1.16,0,0,1-.54-.15c-.25-.13,0-.1-.29-.25a3.87,3.87,0,0,0-.61-.31l.38.2c-.21-.12-.5-.17-.47-.13a2.29,2.29,0,0,0,.51.37c.19.12.71.36.38.26s-.21,0,.09.12a1.43,1.43,0,0,0-.42-.13s-.29-.24-.34-.2-.18,0-.18,0,1.17.57.84.48-1.25-.61-1-.35a4.85,4.85,0,0,0,.64.31c.26.11.26.15.54.27a5.32,5.32,0,0,1-.69-.29,6,6,0,0,0-.63-.29c-.15-.06,0,.05.12.09a4.94,4.94,0,0,1,.89.43c.06.06-.05,0-.2,0a2.35,2.35,0,0,0-.59-.31s.19.12,0,.05-.13,0-.12,0-.23-.09-.24-.06a1.42,1.42,0,0,0,.45.43l-.3-.13c-.1,0-.07,0-.06,0s-.2,0-.16.05.56.3.36.23-.48-.16-.18,0c-.32-.13-.11.09-.24.06s.61.37.83.43A.94.94,0,0,1,27.07,17.9Z"/><path class="cls-1" d="M27.06,16.22l.16.07Z"/><path class="cls-1" d="M28.15,16.22v0c-.13-.05-.21-.06-.17,0S28.15,16.24,28.15,16.22Z"/><path class="cls-1" d="M28,15.9v0C27.22,15.54,28,16,28,15.9Z"/><path class="cls-1" d="M29.89,17.51c.06,0,.1,0,0-.11s-.3-.21,0-.08c-.15-.09-.23-.2-.13-.15s.17.11.14.11c.17,0,.12-.08.14-.12s.15-.09-.29-.31c-.08,0,.19.06.29.1-.43-.25.21,0,.15-.12s-1-.52-1.43-.73L28.64,16A6.34,6.34,0,0,0,28,15.7a4.62,4.62,0,0,0,.4.24c.17.12-.25-.08-.39-.13s.37.24.42.28,0,0,0,.09.88.43.55.3a6.42,6.42,0,0,1-.82-.39c-.6-.32-.87-.43-.73-.27s.07.21.23.29.16,0,.2,0,.26.06.51.21.41.11.59.21-.21,0-.22,0,.05.07,0,.07-.38-.17-.41-.15.12.08,0,.06-.8-.29-.77-.26l.4.2c.2.11.17.12.38.23s.6.31.67.36-.29-.09-.28-.08l.63.28c.16.07.27.14.41.21-.3-.14-.64-.3-.89-.39a1.52,1.52,0,0,1-.45-.18s.14,0,0,0l-.41-.25a8,8,0,0,0-.85-.41s.68.36.78.41a7.45,7.45,0,0,0-.77-.27s.68.32.77.37.42.22.51.26A9.4,9.4,0,0,0,29.89,17.51Z"/><path class="cls-1" d="M28.64,16l.12.06S28.52,16,28.64,16Z"/><path class="cls-1" d="M29.33,16.37c.14,0,.21.06.66.26s.2,0,.19,0,0-.21-.7-.53c0-.06.37.17.52.21a4.81,4.81,0,0,0-.9-.46c-.35-.15-.58-.19-.06,0a11,11,0,0,0-1.28-.48,7.66,7.66,0,0,1,1.56.81L28.88,16h0l-.95-.46c-.5-.22.59.33.89.44-.18-.05-.6-.2-.33-.07a4.9,4.9,0,0,1,.61.31A1.16,1.16,0,0,0,29.33,16.37Z"/><path class="cls-1" d="M27.92,15.18c-.32-.12-.09,0,.17.13v0Z"/><path class="cls-1" d="M23.74,10.71c.29,0,.22,0,0-.09v.09Z"/><path class="cls-1" d="M23.76,10.76h-.05S23.93,10.84,23.76,10.76Z"/><path class="cls-1" d="M23.71,10.75h.05c.33.15.61.05-.13,0C23.62,10.72,23.65,10.74,23.71,10.75Z"/><path class="cls-1" d="M21.54,16c1,.16,0-.13,0,0Z"/><path class="cls-1" d="M21.74,17.48s0,0,0,.05a.31.31,0,0,0,.23,0A.63.63,0,0,0,21.74,17.48Z"/><path class="cls-1" d="M22.78,12.89l-.2,0Z"/><path class="cls-1" d="M21.47,10.17c-.22,0-.11,0,.06.1s-.05,0-.11,0,.93.2.68.18-.63-.09-1-.15-.61-.07-.35,0,.4,0,.74.1c0,.07-.55-.06-.54,0a1.1,1.1,0,0,0,.38.09c0,.07-.5-.05-.53,0s0,0-.12,0,.1.09.36.14.35.07.36.12l-.71-.14c-.33-.06.09.07.17.09s0,.08,0,.12a1.36,1.36,0,0,0,.28.11c-.05,0-1.26-.16-.42,0,.26.05.08.05,0,.06-.22,0-.11.05,0,.11s0,.06-.27.09.45.16.78.22c-.14,0-.2,0-.44-.05a1.4,1.4,0,0,0-.25,0c-.19,0-.09.14-.15.19s-.24.11-.15.18a4.69,4.69,0,0,0,.75.15c-.15,0-.11,0-.26,0l-.31,0c-.11,0,0,0,0,.06s.15.06.15.07-.14.06-.09.12.63.16.44.18-.78,0-.61.1.75.23.08.11a2.55,2.55,0,0,0,.28.08c-.95-.15-.59.1-.56.22s-.05.21.25.26c0,0-.08,0-.11.05s0,.1,0,.15-.15.11-.13.19,0,.08.21.12.28.06.29.09-.08,0-.26,0,.07.08,0,.1-.45,0-.11,0a.92.92,0,0,1,.38.13l-.5-.1c-.15,0,.3.19.34.22s-.1.06-.17.09-.37.05,0,.13l.63.14-.66,0c-.26,0,.6.13.69.15a7.81,7.81,0,0,1-1-.11c-.25,0,.15.11.16.15s-.19.1,0,.14l.19,0a.43.43,0,0,0,.2.08L21,15s-1-.14-1.15-.12,0,.15,0,.21-.29.18.3.31c-.41-.06-.17.14-.2.18s-.29,0-.14.06a4.16,4.16,0,0,0,.63.07c.52.12-.72,0-.62.09s1.23.21,1.1.21-1.53-.27-1.14-.1c.22.09,0,.13.35.24.12.06.39.19.23.21-.37-.07-.72,0-.27.06-1-.17-.54.12.35.25l-.71-.08c-.29,0-.19,0-.18.09s-.19.13.21.18c-.21,0-.24.05-.23.09s.19.11.68.19c0,.06-.59-.05-.73,0a1.16,1.16,0,0,1,.39.12c-.72-.13-.54,0-.52.08a6.8,6.8,0,0,0,1.06.29l.81.16c.2.05-.06,0-.15,0-.34-.05-.7-.13-1-.2,0,0-.59-.13-.54-.1s.11.05.09.07a.66.66,0,0,0-.17,0s0,.05.1.08l1.27.2c-.15,0-1.12-.08-.39.09.26,0,.68.11,1,.13s-.53-.22-.21-.18a4.57,4.57,0,0,0,.69.1c.26,0,0-.07,0-.1a4.81,4.81,0,0,0-1-.24,2.93,2.93,0,0,1-.53-.14s-.08-.09.08-.07.36.14.47.17.41.09.69.14c-.45-.08-.27-.12-.52-.2,0-.05.13,0,.27,0s.05-.07.06-.1.2,0,.35,0,.21,0,.26-.06.32-.1,0-.14c-.48-.06-.64-.11-.53-.16s.65.07.29,0,.34,0,0-.1-1.25-.22-1.25-.22a6.62,6.62,0,0,1,.82.1,2.57,2.57,0,0,1,.54,0s.18,0,.18,0-.16,0-.19-.06c-.24,0-.22-.1-.21-.12s-.59,0-.49-.08a5.77,5.77,0,0,1,1,.11c.24,0-.19-.13-.5-.19s-.22,0-.24-.1.17,0,0-.06-.46,0-.22-.08.36.11.76.18c-.09-.08.36,0,.05-.11s.06-.13-.44-.2c.24,0,.33,0,.14,0s-.42-.1-.64-.15c-.42-.11.26,0,.4,0s.85.13.71.06-.39-.18.14-.08c-.37-.07-1.43-.25-1-.27.22,0,1.08.18.76,0-.05,0-.51-.15-.4-.15s.42.06.55.06-.15-.06-.16-.1a3.24,3.24,0,0,0-.51-.12c-.2-.07,0-.09-.33-.17-.05,0-.53-.16-.15-.09.23,0,.37,0,.35-.08s-.21-.1-.29-.15.92.18,1.11.18-.46-.13-.53-.15-.29-.1-.1-.06c-.09,0-.72-.11-.71-.12a11.46,11.46,0,0,1,1.38.21c0-.06-.57-.12-.59-.19.64.14.15-.05.3-.05s.38.08.41,0-.07,0-.12-.08.09-.06.08-.1l0-.16a2.71,2.71,0,0,1-.69-.13c-.18-.07.36,0,.48,0,.29.06.45,0,.31,0a1.75,1.75,0,0,0-.54-.05c-.16,0-.41-.21,0-.14.77.14-.59-.22-.6-.24a2.72,2.72,0,0,0,.63.09s-.24-.2.08-.1c0,0-.29-.16,0-.11s.51,0,.34,0a3.83,3.83,0,0,0-.89,0l-.31-.1s.34,0,.47,0l.74.07L22,13.51c-.49-.12-.15-.06.11,0,.63,0-.42-.3.3-.21.09,0-.63-.16-.35-.13.05,0,.81.12.51,0a3.57,3.57,0,0,1-.61-.15,1.28,1.28,0,0,1,.34,0s-.3,0,0,.05.3,0,.3,0,0-.07-.16-.1a2,2,0,0,0-.59,0,2.55,2.55,0,0,1-.45-.09c-.15,0,.15,0,.24,0a6.69,6.69,0,0,1,1,.09,1.42,1.42,0,0,1-.36-.09s.35,0,.44,0,0-.1-.11-.15a2.23,2.23,0,0,0-.51-.21c-.08,0-.48-.12-.31-.11s.29.05.51.09l.43.09c-.05,0-.56-.15-.56-.16l.41,0c.06,0,.09-.07-.16-.11a1.16,1.16,0,0,0-.41-.21c-.18-.13.25,0,.55,0s-.42-.15-.4-.07a1.89,1.89,0,0,0-.85-.3c.29.05.5.12.82.16l.46.06c-.5-.09-.54-.15-.49-.23s.44,0,.7,0c-.31-.06-.22-.2-.26-.23s-.48-.13-.44-.16,1.22,0,.38-.16c0,0,.6,0,.32-.06l-.74-.2.95.22-1-.31.83.19a6.44,6.44,0,0,0-1.21-.28,5.45,5.45,0,0,1,1,.15c.38.06,0-.05.17-.05s.34.06.24,0-.34-.11-.27-.13a1,1,0,0,1,.16-.05c.06,0,.63,0,.47-.06l-.59-.12c-.47-.1-.57-.13-.44-.16s-.22-.08-.32-.12C22.07,10.21,21.64,10.17,21.47,10.17Z"/><path class="cls-1" d="M22.53,11.9l.19,0Z"/><path class="cls-1" d="M21.22,18.38c-.06,0-.12.06.21.09s.23,0,.2-.1h-.41Z"/><path class="cls-1" d="M19.43,17.83c-.32,0,.22.1-.07.09s.34.2.43.29c-.38-.06-.43,0-.3,0a3.52,3.52,0,0,0,.61.18c-.4-.12-1.31-.09-.43,0,.31,0,.24.09,0,.07s-.55-.07-.53,0c-.27,0,.84.15.94.16s1.31.27,1.43.23-.36-.1-.13-.11.55,0,.34,0l-.75-.1-.3-.07c.29,0,.76.09.44,0-.16,0-.76-.16-.92-.18l1.12.18c0-.05-.47-.09-.55-.14s.08-.06.11-.1-.07-.13.21-.13a2.59,2.59,0,0,0,.4,0,5.47,5.47,0,0,1-.65-.09c0-.06.4,0,.67.06A1.29,1.29,0,0,1,21,18c-.1-.06-.16-.07-.53-.12A9.23,9.23,0,0,0,19.43,17.83Z"/><path class="cls-1" d="M19.15,18.49c0-.06-.17,0,0,0Z"/><path class="cls-1" d="M19.37,18.63c-.41,0,.56.15.76.18a4.92,4.92,0,0,0-1-.09,4.82,4.82,0,0,1,.63.14s.08.09,0,.12l-.31-.06c-.34,0-.28,0,.06.09-.27,0,.44.14.16.14a2.78,2.78,0,0,1-.59-.12,3.9,3.9,0,0,0,1,.26c-.33,0-.58-.06-.93-.12a8.31,8.31,0,0,1,1.16.32c-.3,0-1-.16-.84,0s.61,0,.83.11-.77-.1-.71,0,.5.12.2.11l-.28,0a2.31,2.31,0,0,0,.43.09,3,3,0,0,0-.85-.05c-.11,0,.08,0,.26.07a.83.83,0,0,0-.43,0s.23.09.35.14.25.1.25.14-.43-.06-.53-.07a2.47,2.47,0,0,0,.4.14l.16,0c.61.11.91.11,1.54.2s.29,0,.33-.08.33-.1,0-.19a3,3,0,0,0-.82-.1s-.92-.24-1-.25l.67.12a2.32,2.32,0,0,0,.31,0,3.88,3.88,0,0,0,.75.13c0-.06.54-.17-.24-.29.09,0,.07-.09.06-.11s.32,0,.39,0,.08-.09-.11-.17c-.37-.15.27,0,.25-.08a7.52,7.52,0,0,1-.87-.12c-.15,0-.72-.19-.44-.18a8.67,8.67,0,0,1,1.29.24s.11-.15-.19-.22-1-.14-1.16-.2A2.75,2.75,0,0,0,19.37,18.63Z"/><path class="cls-1" d="M20.92,20.37c.15.06.38.07.37,0S20.91,20.32,20.92,20.37Z"/><path class="cls-1" d="M19.47,20.3v0C19.71,20.42,20.1,20.4,19.47,20.3Z"/><path class="cls-1" d="M20.42,20.5c-.46-.05-1-.09-1.48-.17a2,2,0,0,0,.64.23c.38.07,0-.09.09-.07s.37.14.13.13-.61-.1-.77-.08c-.55.08.73.13.81.18s-.87-.06-.95,0-.18.06.37.14c0,.06-.35,0-.48,0s-.09.1.31.15c-.7-.1.05.23-.19.26h0l1.3.14a1.65,1.65,0,0,0,.41,0c.08,0,.72.09.44,0s-.32,0-.33-.07a.19.19,0,0,0,0-.07s-.52-.11-.7-.17c-.5-.15.95.16.93.15s-.51-.15-.26-.14.72.08.63,0a1.28,1.28,0,0,0-.54-.16s.18.1.08.08c-.31-.06-.32-.18-.21-.2a.62.62,0,0,1,.23,0,1.67,1.67,0,0,0,.47.09l-.77-.2a5.8,5.8,0,0,0,.8.1c-.14-.05-.48-.1-.57-.15s.19,0,.23,0c.24,0-1-.19,0-.09.42,0,.56,0,.15-.11s.59,0,.19-.07-1.15-.25-1.65-.33C18.59,20,20.13,20.42,20.42,20.5Z"/><path class="cls-1" d="M18.85,21.3h0S18.7,21.28,18.85,21.3Z"/><path class="cls-1" d="M20.42,23a1.16,1.16,0,0,0,.57.11C21,23.07,20.4,23,20.42,23Z"/><path class="cls-1" d="M20.75,23.53c.16-.05-.21-.14-.19,0Z"/><path class="cls-1" d="M20.34,21.52c-.11,0-.34-.07-.41-.07-.27,0,.36.11-.31,0-.24,0-.77-.05-.49,0l.71.15a4.2,4.2,0,0,0-.81-.08s.31.17-.15.1a2.57,2.57,0,0,1,.65.15,6.8,6.8,0,0,0-.83-.09l.62.17c.47.17-.51-.05-.56,0s.25.13.3.15a4.26,4.26,0,0,0,.56.11,3.71,3.71,0,0,1-.69-.09c-.08,0-.07.06-.22,0s-.22,0,0,.06.1.08,0,.09-.53,0-.28,0a5.27,5.27,0,0,1,.58.1c.05,0-.2,0-.35,0-.61-.09.19.1.29.1s-.45,0-.44,0,.25,0,.4.08-.48,0-.5,0,.24.08.31.12a2.51,2.51,0,0,0,.63.24c.14,0,.42.12.23.12a4.79,4.79,0,0,0-.72,0c0,.06-.26,0-.44,0-.44,0,.76.25,0,.2.4,0,.73.11.59.16s-.73,0-.72,0,1.06.08,1.15.09a11.73,11.73,0,0,1,1.2.23c.37.07.24-.09.23-.11s-.65-.05-.86-.11l.46.09c-.23,0-.5-.07-.66-.11s.09,0,.3,0,.75,0,.17-.06c-.21,0-.83-.12-.71-.16a6.63,6.63,0,0,1,1.05.14c.29,0,.16-.07.16-.1s.25-.13-.62-.25c.29,0-.16-.07-.17-.12a2.84,2.84,0,0,0,.41,0s-1.07-.18-.63-.2a3.65,3.65,0,0,1,.69.05c.19,0-.19,0-.25,0s.08.06.27.09.21,0,.2.08c.37.05.53,0,.16-.08,0-.06.28,0,.21-.1a1.14,1.14,0,0,0-.65-.17l-.53,0c-.11,0-.69-.21-.51-.18s.57.08.87.1.48,0,.5,0,.37,0,.41,0-2.75-.44-.45-.1c.4.06.54,0,.3-.05s-1-.21-1-.21l.58.08a2.52,2.52,0,0,0,.58.06A9.39,9.39,0,0,1,19.78,22c-.07-.08.88.11,1.06.1s0-.05,0-.07.22,0,.27,0-.65-.26-.65-.26a4.34,4.34,0,0,0,.52.08c.07,0,0-.05-.09-.07s-.79-.2-.74-.21.71.07.89.07-.12-.09-.35-.12A2.64,2.64,0,0,0,20.34,21.52Z"/><path class="cls-1" d="M19.48,23.57c-.29,0-.75-.06-.56,0h0l.9.13a3.38,3.38,0,0,1-.42-.09C19.63,23.68,20.26,23.67,19.48,23.57Z"/><path class="cls-1" d="M20.36,24c.11,0,.56.12.56.07S20.34,24,20.36,24Z"/><path class="cls-1" d="M17.92,23.51l.33.1s-.16,0-.12.08a.75.75,0,0,0,.3.14,2.73,2.73,0,0,0,.36.07,3.36,3.36,0,0,0-.43,0c.19.05.7.12.93.15l1.31.18s-.93-.19-.85-.2a9,9,0,0,0,1,.11c-.77-.08-.29-.09-.64-.16s-1-.09-.9-.18.48.06.67.11a7,7,0,0,0,1,.06s-1.11-.21-1.29-.24a5.69,5.69,0,0,1-1.21-.25C18.42,23.55,18.34,23.54,17.92,23.51Z"/><path class="cls-1" d="M18,24s0,.11.24.17.6.11.76.15-.94-.05-1,0,0,.07.06.1.08.11.06.15-.31.07.19.2c.06,0,1.5.22,1.17.23l-.56-.09a2.14,2.14,0,0,0-.43,0c-.34,0-.39.1-.37.19s0,.1.15.15.19,0,.18,0l.6.11,1,.14c.29,0,0-.06.21,0s.39,0,.3,0-.2-.13-.74-.21c-.18,0-.57-.06-.42,0s-.37,0-.4-.05-.64-.13-.49-.14L19,25a6.38,6.38,0,0,0,.7.05,1.82,1.82,0,0,1,.69,0s-.17,0,0,.05.44-.11-.25-.15c-.28,0-.15-.05-.26-.09s-.11,0-.33-.06c.08,0,.65,0,.72,0,.26,0,.16-.08.14-.14.35-.06-.73-.11-1.08-.17-.1,0-.08,0-.07-.05a2.76,2.76,0,0,1,.37,0c.3,0,.72.07.48,0s-.66-.16-.92-.24c0-.06-.39-.1-.48-.16s.83.16.92.17a4.72,4.72,0,0,0,.83.09c.21,0-.25-.12-.55-.14s-.34,0-.5,0-.14,0-.07,0A3.33,3.33,0,0,0,18,24Z"/><path class="cls-1" d="M18.45,25.45c-.39-.07.58.13,0,0Z"/><path class="cls-1" d="M18.7,25.4c-.05,0-.38-.06-.51-.06s.1.08.26.11,1.59.29,1.32.16c.26,0,.44.07.39.11.39,0-.06-.16-.12-.19a5.53,5.53,0,0,0-1.33-.3C17.59,25.09,18.81,25.33,18.7,25.4Z"/><path class="cls-1" d="M18,26.26c-.17,0-.19,0-.18,0v0C17.94,26.3,18,26.29,18,26.26Z"/><path class="cls-1" d="M18.94,27.21H19l.19,0c.21,0,.39.08.38,0a4.64,4.64,0,0,0-.84-.11Z"/><path class="cls-1" d="M18.94,27.21l.26.05-.19,0Z"/><path class="cls-1" d="M20.14,27.36s-.16,0-.15.08C20.42,27.54,20.15,27.38,20.14,27.36Z"/><path class="cls-1" d="M20,25.72c0,.06-.69,0-.6,0s.29.09.39.13.16.1,0,.06a5.26,5.26,0,0,0,.53.09c-.39-.05-.65-.07-1-.09.26.06,1,.21.77.24a2.92,2.92,0,0,1-.9-.1c-.05,0-.2,0-.19,0s.05.05.11.06a3.91,3.91,0,0,0,.62.14c.31,0,.66.1.58.15s-.7-.06-.88-.05.13.08.27.12a3.14,3.14,0,0,1,.53,0c.44.07.36.12,0,.07.14,0,.36.06.29.07a4.59,4.59,0,0,1-.6,0l-1.72-.2c.41,0,.86.19,1.2.21.17,0,.37,0,.58,0s-.13.05-.17.05c-.28,0-1.07-.1-.92,0a6.4,6.4,0,0,0,1,0c.66,0,.38.09.39.13s.32.13.13.14-.49,0-.63-.05a6.4,6.4,0,0,0-1-.05s1.05.11,1,.12-.25,0-.11,0,.43,0,.59.06c.61.1-.06.07-.36,0,.3,0,.81.11.31.09s-1.36-.1-1.82-.16l.29.09.76.17c.69,0-.25.07-.25.07s.83,0,.54.07c-.09,0,.29.1.3.13s-.41,0-.4,0,1.3.12.86.15c-.26,0-1.08-.07-1.48-.1l.59.12a3.61,3.61,0,0,0,.6.11s-.05-.06,0-.06c.27,0,.18.15.18.15s.12.13-.24.08c-1.16-.18.41.2.12.23s-.86-.07-1.08-.1A8.11,8.11,0,0,1,17.82,28c-.22-.08,0-.06.36,0s.52,0,.61,0c-.27-.07-.7-.12-1-.17a8.13,8.13,0,0,0,1.24.09c-.37-.07-.88-.11-1.11-.19s-.44-.21.11-.14c-.46-.05-.2-.09,0-.08s.69,0,.3-.05-.71-.1-.49-.14-.06,0-.09-.11c.49,0,0-.27,0-.36s0-.08.19-.08.5.07.5.07-.45-.11-.54-.15.05-.08.19-.1c.62,0,0,0-.15-.08s-.09-.06-.07-.07a1.65,1.65,0,0,1,.31,0s-.42-.13-.39-.14a5.21,5.21,0,0,1,.87-.05c.4,0-.51-.1-.73-.12-.44-.06.21-.07-.09-.12.64.08-.08-.17.14-.15a4.44,4.44,0,0,0,.84.07l.33,0-.9-.07-.39,0c-.07,0,0,0,.17,0s-.1-.09,0-.08.32,0,.31,0-.28-.09,0-.06c-.12-.1,0,0-.44-.1.14,0,.13-.16.77,0a7.24,7.24,0,0,1,.76.09l.37.05S19.81,25.7,20,25.72Zm-1.07.63c-.13,0,.24.08.45.1a1.51,1.51,0,0,0,.3,0A4.31,4.31,0,0,0,18.91,26.35Z"/><path class="cls-1" d="M18.69,28.62a1.92,1.92,0,0,0-.5,0C18.2,28.64,19,28.66,18.69,28.62Z"/><path class="cls-1" d="M18,28.35c.13,0,.36.06.51.11s-.14,0-.37,0-.74,0-.38,0,.69.08,1,.1c.63,0,.4.11.38.11l.59,0,.13,0a4.13,4.13,0,0,0,.58.08c.2,0-.11-.08-.35-.1-.06,0-.78-.09-.52-.1s.56.06.77.06.05-.06,0-.09-.09-.12-.15-.18a6.5,6.5,0,0,0-1.32-.19C18.33,28.22,17.56,28.22,18,28.35Z"/><path class="cls-1" d="M19.83,28.77l-.13,0C19.53,28.73,20.13,28.83,19.83,28.77Z"/><path class="cls-1" d="M19.61,29.56c.21.05.95.11.72.05A2.5,2.5,0,0,0,19.61,29.56Z"/><path class="cls-1" d="M19.29,29.69c.26.09,1.06.11.93,0S18.91,29.61,19.29,29.69Z"/><path class="cls-1" d="M19.29,29.69c-.2,0,.21.08,0,0Z"/><path class="cls-1" d="M19.71,32.37c.42.08.82,0,.34,0C19.76,32.31,19.39,32.3,19.71,32.37Z"/><path class="cls-1" d="M17.32,33.38v0C17.57,33.48,18,33.41,17.32,33.38Z"/><path class="cls-1" d="M17.71,28.6c.11,0,.55.18.05.11s-.25.05-.24.08a.32.32,0,0,0,.22.28c.21.11-.22.13-.17.21s1,.17.35.16c-.39,0,0,.14-.11.13-.35,0-.15.17-.13.22s-.16.1-.12.18a1,1,0,0,1,.35,0c.15,0,0,.08.05.1s.19,0,.2.06-.16,0-.36,0l0-.06c-.37,0-.36,0-.21.13s-.22,0-.2.09.43.13.62.2-.34,0-.49.05c-.36.05.22.19.08.27s-.11.05.25.07-.09.09-.08.11.18.1-.42.08c-.19,0,.24.1.32.11.38.06.54,0,.57.12-.18,0,.14.05.39.05s1.22.08,1.24.12a7.37,7.37,0,0,1-1.06-.06,5.5,5.5,0,0,1-.75-.1c-.35,0-1-.06-.36,0-.17,0-.37,0-.35.05.24,0,.23.11.24.15s-.23.1,0,.19a1.06,1.06,0,0,0,.34.08,2.6,2.6,0,0,0-.71,0l.49,0,.6,0a2.37,2.37,0,0,0-.93,0c0,.05-.09.14.27.18a.74.74,0,0,0-.38.06c-.05.06.09,0,.34.07,0,0-.36,0-.36.06a5.44,5.44,0,0,0,.66.12c.08,0,.41.07.39,0s.17,0,.17-.05,0,.09-.26.11-.53,0-.7,0,.46.09.54.11-.3,0-.37,0c-.36,0-.43.13.15.19.1,0-.11.14-.4.08.14,0,.46,0,.47.09s-.22,0-.33.07.55,0,.69,0c-.18,0-.14.05-.44,0a2.55,2.55,0,0,0-.56,0l.21,0,0,.06s0,0,.05,0c.25,0,.64.1,1,.13a2.11,2.11,0,0,1,.54.06l-.94,0c-.24,0-.11,0-.23,0a4,4,0,0,0-.49,0s0,.06.07.07.53,0,.69,0-.06,0-.18,0c-.47,0-.55,0-.51.07s.73.12,1.35.13c.33,0,.74,0,1.12,0,.78,0-.31-.08-.31-.09l.66,0s-.38,0-.5-.08-.11-.12-.24-.18-.32-.11,0-.09a3.44,3.44,0,0,1,.58.06c0-.07,0-.14-.13-.21a6.37,6.37,0,0,0-1.1-.1c.31,0,.11-.05.09-.06a3.45,3.45,0,0,1,.45,0c.22,0,1.12,0,.61,0a7.15,7.15,0,0,0-.91,0c-.22,0-.46-.1-.27-.1a2.69,2.69,0,0,0,.4,0s-.22-.07,0-.08a3.68,3.68,0,0,1,.46,0c-.3,0-1.93-.09-1.51-.18.1,0,1.88.14,1.84.11s-.9-.1-1.08-.14a7,7,0,0,0,.8,0c.29,0-.67,0-.55,0-.16,0-.13-.08-.2-.08-.27,0-.18,0-.19-.07.17,0,1,0,.77.08.3,0,.84,0,.47-.07s-1-.06-1.17-.11l.44,0a1.77,1.77,0,0,0,.46,0c0-.07-.76-.11-1-.13,0,0,.33,0,.35,0s0-.06.12-.08a1.87,1.87,0,0,1,.5-.06c.16,0,.36,0,.32,0s-.19-.06-.05-.08.15,0,.12,0a2,2,0,0,0-.34-.12c-.08,0-.42-.12-.26-.13l.45,0c-.07,0-.73-.11-.78-.11.2,0-.22-.09-.12-.1s.66,0,.91.05a2.18,2.18,0,0,1-.41-.05.81.81,0,0,0,.52-.09c.05,0,.32-.1-.2-.11a4.22,4.22,0,0,1-.78-.13c-.08,0-.43-.07-.28-.08a3.63,3.63,0,0,1,.39,0c.26,0-.27-.1.08-.08a2.47,2.47,0,0,0,.51,0s.37,0,.35,0-.22-.06,0-.08c-.24,0-1.18-.11-1.3-.08s-1,0-.59-.07c.74,0-.38-.06-.32-.12a1.29,1.29,0,0,1,.45,0c.31,0,.11.07.28.09l.59,0,.57,0s-.79-.1-.52-.11a2.24,2.24,0,0,0,.38,0c-.25,0-.32-.12-.14-.11a3.12,3.12,0,0,0,.66,0c-.3,0-.09-.05-.26-.07a2.48,2.48,0,0,0-.46,0,.19.19,0,0,1-.1,0c-.25,0-.92-.17-1.12-.21a6.79,6.79,0,0,0,.75,0s.34,0,.36,0a9.8,9.8,0,0,1-1.2-.24,8.24,8.24,0,0,0,1.42.16c.44,0,.12,0-.17-.07.29,0,1.29.11.62,0-1.05-.13.19,0-.09-.09s-.71-.09-.68,0a5,5,0,0,1-1-.1c.22,0,.46,0,.72,0l.74.05c.18,0,.34,0,.46,0L19.52,30h.62c.21,0-.06-.06-.21-.09a1.1,1.1,0,0,0,.38-.09c-.45-.08-1-.06-1.46-.12-.14,0-.13-.06-.11-.07s.25,0,.32,0c.31,0-.4-.1-.49-.12s-.13-.1-.06-.09.38.11.68.14l.93,0-1.26-.17c-.21,0,0-.08.22-.06s1.09.1,1,0-.21-.07-.11-.09.25,0,.27,0-.66-.16-.78-.19.34-.05.41-.06.44,0,0-.08-.73-.06-.75-.13c.4,0,1.46.17,1.11,0,0-.07-1.3-.13-1.56-.2-.06,0,1.2.07,1.23.09s-1.18-.15-1.43-.2S17.34,28.47,17.71,28.6Z"/><path class="cls-1" d="M19.7,35.15a1.9,1.9,0,0,0,.57,0S19.68,35.1,19.7,35.15Z"/><path class="cls-1" d="M17.41,35.5c-.2,0,.22.06,0,0Z"/><path class="cls-1" d="M19.59,34a4.75,4.75,0,0,0-.84-.06s.18.13-.22.06c-.14,0,0,0-.17-.06a3.42,3.42,0,0,0-1,0c-.19,0-.17.14,0,.21s.92.08.55.12c-.13,0-.43,0-.59,0s-.09.06-.07.09.28.06.39.1,0,.06-.12.09-.47.21.08.23c.09,0,.76,0,.53.06s-.47,0-.69,0c.12,0,.54.07,0,.08-.25,0,.18,0,.19.06s-.35,0-.4.1.37,0,.26.06-.38.05-.36.11a1.25,1.25,0,0,0,.31.07c0,.05-.15.08-.13.13s-.21.07,0,.11a1.08,1.08,0,0,0,.26,0s-.09,0,0-.06l.54,0c.31,0,.73,0,1.1,0a3.28,3.28,0,0,0,.59,0c.11,0-.41,0-.49-.06-.36,0,.25,0,.16-.07a1.23,1.23,0,0,0-.29,0,2.51,2.51,0,0,0,.5-.06s-1.1-.11-1.22-.14c-.44-.11.43,0,.42,0s-.36,0-.41-.07.15,0,.26,0h.76c-.08,0-.78-.13-.73-.14a10.52,10.52,0,0,1,1.07.11c.21,0-.63-.2,0-.17l-.83,0c0-.06.66,0,.42-.07a1.28,1.28,0,0,0-.48-.07c-.09,0,0-.08,0-.1s.85.12.44,0c-.11,0,.25,0,.27,0s-.15-.09-.17-.13.62-.08.14-.12l-.66,0c-.09,0,.17-.06,0-.08a1,1,0,0,1-.24,0,4.59,4.59,0,0,1,.83-.06s-.43.08.23.11c0,0,.15-.1.14-.11s-.11-.07.17-.06c0,0,0,0-.12-.05C19.74,33.83,19.54,33.92,19.59,34Z"/><path class="cls-1" d="M19.52,37.34c-.19,0,0,0,0,0Z"/><path class="cls-1" d="M19.71,35.61s-.51.13-.54,0c.32,0-1-.12-.58-.12.22,0,.53,0,.51,0s0,0-.16,0a3.47,3.47,0,0,0-.88.13,5.2,5.2,0,0,0-.78,0s0,.07.06.11.34.1.16.13-.18,0,.09.06c0,0,.08.08-.06.06l.4,0c-.09,0-.52,0-.62,0s.2.08.25.09.63.08.47,0c.41,0,0,0,.2.06h.68a5.85,5.85,0,0,1-1,0,4.2,4.2,0,0,0-.48.07,3.25,3.25,0,0,0-.33.17h.68c0,.06-.48,0-.53.07s.19.08.39.12.14,0-.15,0-.16.06-.15.08,0,.1.15.11.52,0,.31.05c-.57,0-.51.07.2.07,0,0-.44,0-.56,0s-.27.07-.22.1,1,0,.61.07c-.18,0-.5,0-.47.07s.4,0,.6.09a4.44,4.44,0,0,0,.63,0,.89.89,0,0,1,.55-.1c.28,0,0,.12.37.13a3.49,3.49,0,0,0,.68,0,2.58,2.58,0,0,1-.42,0c.24,0,.52-.05.48-.08a2.28,2.28,0,0,0-.62-.15c-.23,0-.8,0-.46-.09s.21-.08-.13-.09a1.24,1.24,0,0,0,.45-.06s.36.11.39.05.16-.07.15-.1-1.3-.06-.95-.11,1.38.06,1-.08a3.41,3.41,0,0,0-.71,0c-.28,0-.3,0-.6,0a4.1,4.1,0,0,1,.75,0,5.3,5.3,0,0,0,.69,0c.17,0,0,0-.15,0a4.27,4.27,0,0,1-1-.05c-.08,0,0,0,.19-.06a2.32,2.32,0,0,0,.66.06s-.21,0,0,0,.13,0,.11-.05.24,0,.25,0a1.17,1.17,0,0,0-.58-.24H20c.11,0,.05,0,0-.07s.19-.08.13-.13-.64-.06-.42-.07.5,0,.17-.07c.35,0,.06-.13.2-.16s-.71-.12-.93-.09A.81.81,0,0,1,19.71,35.61Z"/><path class="cls-1" d="M20.38,37.37h0Z"/><path class="cls-1" d="M19.39,37.89v0c.14,0,.21,0,.17-.05S19.38,37.87,19.39,37.89Z"/><path class="cls-1" d="M19.69,38.13v0C20.51,38.16,19.66,38.06,19.69,38.13Z"/><path class="cls-1" d="M17.27,37.35c-.05,0-.08.08,0,.13s.36.08.07.08c.17,0,.28.1.18.1s-.2,0-.18,0c-.16,0-.08.14-.07.2s-.11.16.39.19a1.09,1.09,0,0,1-.31,0c.5.07-.17.15-.09.21s1.15.06,1.61.08H19c.2,0,.52,0,.77,0,0,0-.37,0-.47-.06s.27,0,.42-.05-.44-.08-.5-.09,0-.06-.07-.08l-.44,0c-.2,0-.36,0-.18,0a6.47,6.47,0,0,1,.91,0c.67,0,1,0,.77-.07,0,0-.15-.18-.32-.19-.33,0-.15.09-.19.12s-.26.06-.54,0-.42.09-.63.06.21-.06.22-.07-.07,0-.05-.07.41,0,.43,0-.14,0,0-.05.85-.08.81-.1h-.45c-.22,0-.2,0-.44-.06l-.76-.06c-.12,0,.31,0,.29,0h-.68l-.47,0c.33,0,.71,0,1,0a1.36,1.36,0,0,1,.48,0c.05,0-.14,0,0,.07a3.94,3.94,0,0,0,.47.06,7.91,7.91,0,0,0,.94,0s-.77,0-.87-.06a6.26,6.26,0,0,0,.81-.08,7.58,7.58,0,0,0-.86,0,4.8,4.8,0,0,1-.57,0A9.41,9.41,0,0,0,17.27,37.35Z"/><path class="cls-1" d="M19,38.32h0Z"/><path class="cls-1" d="M18.25,38.3c-.13.07-.22,0-.71.05-.33,0-.2.06-.18.09s.06.25.86.23c0,.06-.4,0-.56,0a4.23,4.23,0,0,0,1,0c.38,0,.61-.08,0-.08a9.1,9.1,0,0,0,1.36-.11,6.71,6.71,0,0,1-1.76-.1h.5c.34,0,.68,0,1.05,0,.54,0-.67,0-1,0,.18,0,.63-.08.32-.08a4.79,4.79,0,0,1-.68,0A.89.89,0,0,0,18.25,38.3Z"/><path class="cls-1" d="M20,38.86c.34,0,.07,0-.21,0v0Z"/><path class="cls-1" d="M4,34.15c-.25-.16-.22,0,0,.09v-.09Z"/><path class="cls-1" d="M4,34.09l0,0S3.88,34,4,34.09Z"/><path class="cls-1" d="M4.05,34.13l0,0c-.25-.28-.54-.29.1.1C4.12,34.19,4.09,34.16,4.05,34.13Z"/><path class="cls-1" d="M8.24,30c-.82-.55,0,.14,0,0Z"/><path class="cls-1" d="M8.67,28.47s0,0,0-.07a.3.3,0,0,0-.22-.06A.67.67,0,0,0,8.67,28.47Z"/><path class="cls-1" d="M5.79,32.44l.17.11Z"/><path class="cls-1" d="M5.86,35.58c.19.09.11,0,0-.12s0,0,.1,0-.76-.57-.54-.45.53.35.81.53.53.31.33.12-.35-.18-.64-.39c0-.08.48.28.49.23s-.15-.14-.31-.25c0-.06.44.26.48.23s0-.05.13,0-.05-.13-.27-.28S6.13,35,6.13,35l.61.42c.27.19-.06-.11-.12-.16s0-.08,0-.12a2.09,2.09,0,0,0-.2-.22c.05,0,1.09.65.4.12-.22-.15,0-.08,0-.06s.12,0,0-.13,0-.05.29,0-.35-.34-.62-.53c.12.08.18.09.38.22a.83.83,0,0,0,.22.12c.19.05.14-.09.22-.12s.26,0,.21-.12A4.07,4.07,0,0,0,6.94,34c.12.08.1,0,.23.1l.27.17c.09.05,0,0,0,0s-.11-.12-.11-.13.17,0,.14-.08-.51-.4-.32-.35.71.31.59.14-.59-.51,0-.13a1.23,1.23,0,0,0-.23-.18c.81.52.58.14.61,0s.14-.19-.12-.36c0,0,.09,0,.13,0s.06-.08.07-.13.19,0,.2-.14.07,0-.14-.19-.23-.17-.23-.2.09,0,.25.08,0-.11.07-.09.4.2.12,0-.31-.24-.3-.27l.41.29c.15.07-.19-.3-.21-.34s.12,0,.19,0,.36.1,0-.13l-.51-.39c.17.08.46.25.59.3s-.5-.37-.57-.42.72.43.9.52S9,31.88,9,31.84s.21,0,0-.14l-.15-.11s-.06-.08-.16-.16l-.39-.27s.87.53,1,.57.07-.14.08-.2.35-.06-.14-.41c.35.21.21-.07.25-.1s.29.09.16,0a3.75,3.75,0,0,0-.54-.32c-.43-.32.67.25.6.17s-1-.7-.91-.65,1.28.87,1,.55c-.16-.17.07-.12-.21-.37-.09-.1-.28-.34-.13-.28.31.2.66.3.28,0,.85.57.54.11-.22-.37l.62.36c.25.13.19,0,.2,0s.23-.05-.12-.26c.19.08.24.05.25,0s-.13-.18-.53-.45c0-.06.51.28.64.33-.16-.11-.31-.24-.3-.27.6.41.49.21.5.13a7.49,7.49,0,0,0-.84-.71l-.67-.47c-.17-.13.06,0,.14,0,.29.19.59.41.86.61,0,0,.48.36.44.31s-.07-.09,0-.11l.16.1s0,0-.07-.12l-1.07-.7c.14,0,1,.52.39.06-.24-.1-.57-.37-.83-.51s.39.42.12.26A4.24,4.24,0,0,0,8.75,28c-.22-.15,0,.07,0,.1a4.64,4.64,0,0,0,.8.63,2,2,0,0,1,.43.35s0,.12-.1,0a4,4,0,0,1-.36-.35,6.09,6.09,0,0,0-.57-.41c.38.25.19.22.39.4,0,.05-.12-.05-.26-.1s-.07,0-.09.07-.17-.1-.31-.17-.2-.05-.26-.05-.34,0-.08.12c.41.25.53.36.41.37s-.57-.32-.29-.08-.32-.11-.08.08l1,.71s-.55-.34-.7-.42a4.07,4.07,0,0,1-.48-.23S8.06,29,8.06,29s.13.1.15.14c.21.13.16.18.14.19s.53.28.42.28a7.53,7.53,0,0,1-.85-.5c-.23-.09.11.2.38.38s.18.13.17.19-.17,0,0,.05.4.23.17.17-.28-.25-.62-.48c0,.12-.33-.15-.09.09s-.12.1.32.37c-.21-.15-.3-.16-.16,0l.53.4c.34.27-.25-.09-.37-.17s-.72-.46-.62-.33.28.33-.16,0c.31.22,1.2.82.8.66-.2-.08-.92-.6-.68-.34,0,0,.41.35.31.3s-.36-.22-.48-.27.1.12.1.15.32.23.42.33,0,.1.22.29c0,0,.43.37.11.15s-.35-.12-.36-.07.15.18.21.27-.77-.55-1-.62.37.3.43.35.23.21.06.1c.08.05.62.39.6.4a9.73,9.73,0,0,1-1.17-.75c0,.06.47.34.46.41-.53-.38-.16,0-.3-.07s-.32-.22-.35-.2,0,.07.07.12-.11,0-.11.07l0,.17a2.74,2.74,0,0,1,.57.39c.14.15-.32-.14-.43-.2s-.41-.19-.31-.08a1.64,1.64,0,0,0,.48.26c.14.08.28.36-.05.14-.65-.44.45.45.45.47A4.5,4.5,0,0,0,7,31.81s.14.29-.12.07c0,0,.2.27,0,.12s-.45-.24-.3-.13a3.83,3.83,0,0,0,.79.4,1.55,1.55,0,0,1,.23.21c0,.05-.3-.14-.42-.21l-.64-.36.31.27c.4.31.11.11-.12,0-.57-.28.26.45-.36.08-.08,0,.5.41.26.27,0,0-.69-.44-.45-.24s.5.33.5.38a1,1,0,0,1-.31-.13s.27.11,0,0-.28-.1-.29-.07-.06,0,.11.15.52.32.52.27a2.5,2.5,0,0,1,.38.27c.12.11-.15,0-.23-.07A6.9,6.9,0,0,1,6,32.55c.14.1.3.21.29.23a4.27,4.27,0,0,1-.39-.21c-.21-.09,0,.11,0,.2a2.17,2.17,0,0,0,.38.4c.07,0,.39.3.24.23s-.25-.16-.43-.29l-.36-.26c0,.06.45.37.45.38a2.9,2.9,0,0,0-.36-.2c-.06,0-.12,0,.1.17a1.12,1.12,0,0,0,.29.36c.1.2-.24-.08-.52-.2s.32.31.34.23a2,2,0,0,0,.66.62c-.25-.16-.42-.31-.69-.48l-.4-.24c.42.29.43.36.36.41s-.4-.17-.64-.27c.25.18.12.28.14.32s.38.32.34.33-1.13-.48-.42,0c0,0-.54-.24-.32-.07s.39.31.6.49l-.78-.59.76.68c-.07,0-.69-.53-.68-.51A6.52,6.52,0,0,0,6,35a5.52,5.52,0,0,1-.84-.54c-.32-.21,0,0-.17,0s-.29-.2-.22-.11.27.24.19.23a.46.46,0,0,1-.16,0c-.07,0-.58-.25-.46-.13l.49.35c.39.29.47.35.33.33s.18.17.25.24C5.32,35.3,5.7,35.51,5.86,35.58Z"/><path class="cls-1" d="M5.6,33.49l-.15-.11Z"/><path class="cls-1" d="M9.54,27.81c.07,0,.14,0-.15-.17s-.23,0-.23,0l.33.15S9.54,27.82,9.54,27.81Z"/><path class="cls-1" d="M10.94,29.06c.29.13-.16-.18.11-.06s-.23-.33-.28-.45c.32.22.38.21.29.1a3.1,3.1,0,0,0-.48-.42c.32.28,1.16.61.39.19-.28-.13-.18-.19,0-.08s.47.29.49.21c.27.07-.7-.48-.79-.53a13.22,13.22,0,0,0-1.21-.8c-.08,0,.29.24.07.16s-.49-.26-.32-.12.5.3.64.4l.25.19c-.26-.16-.66-.39-.4-.18s.62.46.76.55l-1-.63c0,.06.39.27.44.36s-.09,0-.14.05,0,.15-.25,0a2.41,2.41,0,0,0-.37-.16,6,6,0,0,1,.56.34c0,.07-.36-.17-.58-.32a1.6,1.6,0,0,1,.37.34c.07.1.11.13.43.33A7.29,7.29,0,0,0,10.94,29.06Z"/><path class="cls-1" d="M11.48,28.55c0,.06.17,0,0,0Z"/><path class="cls-1" d="M11.34,28.33c.37.17-.45-.37-.62-.48.08,0,1,.63.86.48s-.5-.31-.52-.39,0-.12,0-.12l.25.18c.3.18.27.08,0-.11.24.12-.34-.31-.09-.2a2.49,2.49,0,0,1,.49.36c0-.08-.47-.42-.77-.64.28.17.5.29.8.49a7.67,7.67,0,0,1-.93-.77c.26.17.88.56.75.38s-.56-.25-.71-.43.65.4.63.32-.41-.32-.14-.18l.25.14-.36-.26a2.94,2.94,0,0,0,.75.4c.11,0,0-.07-.2-.17.2.12.36.19.39.16s-.17-.18-.26-.28-.18-.19-.17-.22a2.68,2.68,0,0,1,.46.28,2.06,2.06,0,0,0-.3-.3l-.13-.09c-.51-.36-.79-.48-1.32-.83S10.2,26,10.14,26s-.34-.05-.09.17a2.45,2.45,0,0,0,.7.43,10,10,0,0,0,.81.65L11,26.87a2.14,2.14,0,0,0-.28-.15c-.14-.1-.62-.48-.63-.43s-.57-.06.09.37c-.07,0-.1.06-.09.08s-.3-.13-.37-.12-.12.05,0,.19c.27.3-.25-.09-.26,0a5.29,5.29,0,0,1,.74.47c.12.09.57.47.32.34a8.48,8.48,0,0,1-1.07-.75s-.17.1.08.28.86.55,1,.67A2.57,2.57,0,0,0,11.34,28.33Z"/><path class="cls-1" d="M10.67,26.05c-.1-.13-.31-.23-.32-.18S10.67,26.09,10.67,26.05Z"/><path class="cls-1" d="M12,26.7v0C11.81,26.49,11.44,26.35,12,26.7Z"/><path class="cls-1" d="M11.19,26.12c.4.24.87.5,1.28.77a2.17,2.17,0,0,0-.49-.48c-.31-.22,0,.09-.11,0s-.28-.29-.07-.18a7.84,7.84,0,0,0,.68.4c.53.15-.61-.42-.66-.51s.77.42.85.42.19,0-.27-.29c0-.07.32.14.45.16s.13-.06-.21-.27c.58.39,0-.23.29-.17l0,0c-.19-.12-.75-.46-1.12-.67s-.25-.1-.37-.18-.62-.38-.39-.2.27.17.26.21a.08.08,0,0,0,0,.07,6,6,0,0,0,.56.45c.39.35-.8-.54-.78-.53s.39.36.17.24-.62-.37-.57-.25a1.28,1.28,0,0,0,.41.37s-.11-.17,0-.11c.25.19.21.31.1.28a.64.64,0,0,1-.19-.13,1.67,1.67,0,0,0-.39-.29c.16.15.41.34.62.51-.11-.07-.81-.54-.69-.42s.39.29.45.38-.17-.08-.21-.1c-.23-.07.81.58-.07.07-.37-.2-.51-.24-.18,0s-.54-.26-.21,0,.94.71,1.36,1C12.63,27.37,11.42,26.32,11.19,26.12Z"/><path class="cls-1" d="M13,26l0,0S13.09,26.1,13,26Z"/><path class="cls-1" d="M12.3,23.75a1,1,0,0,0-.47-.34S12.29,23.81,12.3,23.75Z"/><path class="cls-1" d="M12.24,23.12c-.17,0,.13.22.15.12A.49.49,0,0,0,12.24,23.12Z"/><path class="cls-1" d="M11.71,25.19c.09.06.28.21.35.24.24.11-.29-.26.29.12.19.13.67.36.44.18l-.58-.44a3.17,3.17,0,0,0,.71.41s-.21-.29.18,0a2.18,2.18,0,0,1-.53-.41,6.39,6.39,0,0,0,.72.44l-.49-.43c-.35-.35.44.26.51.26s-.18-.22-.21-.27a2.89,2.89,0,0,0-.47-.33c0-.06.5.31.59.37s.09,0,.23,0,.19.1,0-.05-.06-.12.06-.07.47.24.27.09-.46-.29-.49-.34.19.08.33.16c.51.34-.13-.18-.22-.22s.39.23.4.18-.21-.14-.33-.24S14,25,14,25s-.18-.17-.24-.24a2.07,2.07,0,0,0-.46-.5c-.1-.09-.32-.28-.15-.2a6,6,0,0,0,.65.32c0-.06.24.1.4.17.4.18-.58-.55.13-.16-.35-.21-.62-.42-.47-.4s.66.33.66.3a10.07,10.07,0,0,0-1-.58,11.36,11.36,0,0,1-1-.73c-.3-.22-.26,0-.26,0s.57.33.74.47l-.38-.28a6.24,6.24,0,0,1,.55.39c.21.18-.11,0-.28-.11s-.67-.36-.18,0c.17.12.69.46.57.45a7.6,7.6,0,0,1-.89-.57c-.25-.15-.18,0-.19,0s-.29,0,.45.49c-.27-.12.11.14.1.19s-.36-.21-.37-.18.89.62.48.45a3.14,3.14,0,0,1-.61-.33c-.14-.13.19.05.24.07s0-.09-.2-.19-.17-.14-.15-.17c-.31-.2-.49-.18-.18,0,0,.05-.27-.09-.23,0a1.22,1.22,0,0,0,.51.44,3.77,3.77,0,0,1,.46.26c.1.07.54.48.39.38s-.49-.31-.75-.46-.41-.24-.45-.21-.34-.14-.4-.13,2.31,1.56.37.28c-.34-.22-.48-.26-.29-.08s.78.6.78.6l-.49-.32a2.11,2.11,0,0,0-.51-.29,6.85,6.85,0,0,1,1.11.77c0,.1-.76-.47-.93-.54s0,0,0,0-.19-.11-.25-.12.48.52.48.52a2.28,2.28,0,0,0-.44-.3c-.06,0,0,.06.06.11a6.88,6.88,0,0,1,.57.51c-.09,0-.61-.37-.77-.44s.06.13.26.26S11.48,25.05,11.71,25.19Z"/><path class="cls-1" d="M13.41,23.62c.25.16.65.37.51.23s0,0,0,0l-.75-.49a3.52,3.52,0,0,1,.33.25C13.33,23.45,12.75,23.19,13.41,23.62Z"/><path class="cls-1" d="M12.81,22.85c-.09-.08-.45-.35-.48-.31S12.8,22.9,12.81,22.85Z"/><path class="cls-1" d="M14.79,24.34l-.25-.23c0-.06.17,0,.15,0a.77.77,0,0,0-.21-.26c-.05-.05-.3-.22-.3-.22a2.92,2.92,0,0,0,.39.2c-.15-.13-.58-.41-.77-.54l-1.11-.73s.76.57.68.55-.85-.6-.86-.53c.65.4.22.21.5.42s.83.49.73.55-.4-.26-.56-.38a7,7,0,0,0-.87-.49c0,.05.91.67,1.06.78a5.83,5.83,0,0,1,1,.74C14.36,24.09,14.43,24.13,14.79,24.34Z"/><path class="cls-1" d="M14.92,23.88c.05,0,0-.11-.14-.26s-.5-.36-.62-.46.83.44.88.46,0-.07,0-.12,0-.14,0-.17.31.07-.08-.26c-.05,0-1.25-.86-1-.72l.46.32a2,2,0,0,0,.38.2c.32.13.41.07.42,0s.09-.08-.06-.21-.18,0-.18,0l-.49-.36-.85-.57c-.25-.16-.06,0-.2-.05s-.34-.21-.3-.11.13.22.58.52c.15.09.48.3.37.18s.32.2.35.22.51.4.38.34-.33-.24-.39-.28c-.21-.14-.44-.27-.61-.36,0,0-.52-.16-.62-.31s.17.06.06,0-.45-.07.16.26c.23.15.11.1.19.19s.09.07.27.2a6.39,6.39,0,0,0-.65-.31c-.24-.11-.18,0-.19.07-.35-.09.61.42.9.62.08.06.05.07,0,.08a3.15,3.15,0,0,1-.31-.2c-.26-.16-.62-.37-.44-.19s.53.43.72.61c0,.07.31.27.36.36s-.68-.5-.75-.55a4.33,4.33,0,0,0-.71-.44c-.2-.07.17.22.43.37s.3.15.45.24.1.1,0,.07A3.31,3.31,0,0,0,14.92,23.88Z"/><path class="cls-1" d="M15.2,22.3Z"/><path class="cls-1" d="M15,22.25c.05,0,.31.22.43.27s-.05-.12-.18-.22-1.3-1-1.11-.72c-.22-.14-.37-.25-.31-.27-.33-.21,0,.18,0,.23a4.77,4.77,0,0,0,1.06.86C15.82,23,14.82,22.26,15,22.25Z"/><path class="cls-1" d="M16,21.76c.15.09.16.1.17.07v0C16.05,21.74,16,21.71,16,21.76Z"/><path class="cls-1" d="M15.58,20.46l-.06,0-.15-.12c-.17-.14-.32-.25-.33-.19a3.85,3.85,0,0,0,.7.47Z"/><path class="cls-1" d="M15.58,20.46l-.21-.16.15.12Z"/><path class="cls-1" d="M14.57,19.79s.17,0,.18,0C14.41,19.49,14.57,19.76,14.57,19.79Z"/><path class="cls-1" d="M13.94,21.39c0-.07.61.32.56.23s-.22-.21-.3-.29-.09-.16,0-.07a3.35,3.35,0,0,0-.44-.31c.33.21.55.34.87.52-.2-.17-.77-.62-.58-.56a3.12,3.12,0,0,1,.77.48s.15.14.15.11,0-.07-.07-.11a2.78,2.78,0,0,0-.49-.39c-.26-.17-.55-.39-.45-.4s.6.36.76.43-.07-.13-.18-.23a3,3,0,0,1-.46-.26c-.37-.26-.27-.27.07,0-.12-.09-.3-.22-.23-.2a5,5,0,0,1,.52.29l1.46.94c-.35-.22-.69-.55-1-.72a5.74,5.74,0,0,1-.51-.29c-.18-.13.14,0,.18,0,.24.12.92.56.82.41a5.91,5.91,0,0,0-.85-.46c-.6-.29-.3-.25-.29-.3s-.23-.26,0-.19.42.26.54.33a8,8,0,0,0,.88.49s-.9-.57-.88-.57.22.12.11,0-.37-.22-.5-.32c-.5-.36.09,0,.34.12-.25-.15-.67-.46-.24-.22s1.18.69,1.56,1l-.21-.22-.61-.49c-.61-.33.26.05.26.05s-.73-.4-.45-.32c.09,0-.21-.22-.21-.25s.37.18.37.15-1.1-.69-.69-.52c.24.1.93.55,1.27.75l-.46-.37a4.76,4.76,0,0,0-.49-.37s0,.08,0,.05c-.25-.09-.09-.22-.09-.22s0-.18.25,0c1,.69-.27-.37,0-.26s.73.45.92.57a7.72,7.72,0,0,1,1.11.78c.16.17,0,.07-.33-.14s-.49-.2-.56-.26c.21.18.57.42.85.61-.15-.1-1.43-.91-1.07-.63s.74.5.91.67.29.39-.17.08c.4.25.14.17-.05.06s-.62-.31-.29-.09.58.41.38.35,0,.07,0,.15c-.44-.2-.11.25-.17.33s0,.07-.21,0-.42-.29-.42-.29.35.31.42.38-.08.06-.22,0c-.54-.3,0,0,.1.14s.06.09,0,.1a2.33,2.33,0,0,1-.26-.17s.32.3.28.3a6.91,6.91,0,0,1-.8-.34c-.37-.15.42.31.6.43.37.24-.22,0,0,.15-.54-.35,0,.19-.2.08a4.66,4.66,0,0,0-.72-.44l-.32-.11.78.46a2.55,2.55,0,0,1,.34.2c.05.06,0,0-.16-.07s.06.13-.06.06-.27-.16-.28-.11.21.2,0,.06c.06.14,0,0,.34.28-.11-.08-.18.1-.69-.34a6.3,6.3,0,0,1-.63-.41l-.32-.21S14.09,21.48,13.94,21.39Zm1.26-.12c.12,0-.18-.18-.35-.3l-.26-.15A3.08,3.08,0,0,0,15.2,21.27Z"/><path class="cls-1" d="M16.48,19.27a2.15,2.15,0,0,0,.44.25C16.92,19.47,16.2,19.08,16.48,19.27Z"/><path class="cls-1" d="M17,19.83a4.23,4.23,0,0,1-.4-.34c-.2-.21.13.06.32.18s.65.35.36.13-.58-.37-.82-.53c-.58-.25-.3-.27-.29-.26l-.5-.31-.11-.09a3.82,3.82,0,0,0-.48-.33c-.19-.07.07.12.26.24s.66.45.43.33-.48-.31-.67-.4-.07,0,0,.1,0,.15,0,.23a5.18,5.18,0,0,0,1.09.77C16.61,19.8,17.3,20.15,17,19.83Z"/><path class="cls-1" d="M15.53,18.61l.11.09C15.78,18.79,15.29,18.42,15.53,18.61Z"/><path class="cls-1" d="M16.11,18c-.16-.14-.78-.53-.61-.38A2.47,2.47,0,0,0,16.11,18Z"/><path class="cls-1" d="M16.46,18c-.18-.2-.89-.58-.8-.46S16.76,18.25,16.46,18Z"/><path class="cls-1" d="M16.46,18c.16.14-.14-.16,0,0Z"/><path class="cls-1" d="M17.44,15.35c-.32-.27-.7-.42-.3-.14C17.37,15.38,17.7,15.57,17.44,15.35Z"/><path class="cls-1" d="M20.07,15.6v0C19.9,15.39,19.53,15.26,20.07,15.6Z"/><path class="cls-1" d="M17.34,19.73c-.07-.08-.4-.42,0-.12s.25.06.25,0a.32.32,0,0,0-.05-.35c-.15-.2.25,0,.25-.12s-.8-.6-.24-.3c.33.21.08-.13.16-.07.29.19.22-.09.23-.14s.19,0,.19-.11a1.12,1.12,0,0,1-.31-.16c-.12-.1,0-.1,0-.12s-.16-.1-.15-.15.16,0,.32.15v.06c.34.15.35.12.26,0s.21.07.22,0-.32-.32-.45-.47.32.13.46.18c.34.13-.1-.27.06-.28s.12,0-.19-.18.13,0,.14-.06-.12-.17.4.12c.17.1-.16-.2-.22-.25-.31-.23-.47-.29-.45-.37.18,0-.1-.12-.32-.23a9.45,9.45,0,0,1-1-.7,6.66,6.66,0,0,1,.9.56,5.84,5.84,0,0,1,.61.44c.29.2.84.52.33.15.17.06.33.17.34.11-.18-.16-.15-.21-.13-.25s.24,0,.09-.16a.88.88,0,0,0-.26-.24,2.26,2.26,0,0,0,.64.31L19,16.73l-.51-.32c.37.24.78.49.83.43s.15-.09-.15-.29a.67.67,0,0,0,.37.12c.08,0-.06-.08-.26-.22,0,0,.33.13.34.12a3.91,3.91,0,0,0-.51-.42c-.07-.06-.33-.26-.33-.22s-.17,0-.18,0,0-.09.29,0,.44.3.59.38-.35-.31-.41-.36.28.09.35.12c.33.15.44.1,0-.23-.08-.06.17-.08.39.11-.1-.09-.37-.26-.37-.3s.23.07.33.1-.46-.31-.57-.38c.15.09.14,0,.39.18a3.09,3.09,0,0,0,.5.28,1,1,0,0,0-.17-.14v-.06c.05,0,0,0,0,0-.19-.16-.5-.4-.78-.59s-.45-.27-.44-.32l.79.51c.21.12.12,0,.23.08a2.83,2.83,0,0,0,.42.24s.07,0,0-.09-.48-.25-.6-.35.08,0,.19,0c.42.21.46.3.48.19s-.57-.47-1.11-.77c-.3-.16-.65-.38-1-.58-.65-.42.23.23.23.24l-.56-.36s.31.23.39.32,0,.16.11.28.22.26-.08.07a2.9,2.9,0,0,1-.48-.34c0,.07-.11.11,0,.26a6.91,6.91,0,0,0,.92.62c-.27-.17-.12,0-.11,0a2.65,2.65,0,0,1-.39-.23c-.18-.11-1-.56-.56-.24a7.2,7.2,0,0,0,.78.46c.19.11.35.31.19.22a2.46,2.46,0,0,0-.34-.22s.15.17,0,.07a2.73,2.73,0,0,1-.4-.22c.25.16,1.65,1,1.24.88-.1,0-1.59-1-1.57-1a10.11,10.11,0,0,0,.88.64c-.07-.05-.65-.35-.71-.37-.28-.09.58.34.47.28.15.08.08.12.15.17s.13.1.13.14-.85-.48-.64-.43c-.26-.17-.74-.4-.45-.17s.87.54,1,.67l-.37-.24a1.93,1.93,0,0,0-.4-.23c-.07,0,.61.46.85.61,0,.05-.28-.16-.32-.14s-.05.05-.16,0a2.45,2.45,0,0,1-.46-.18c-.15-.08-.31-.19-.3-.13s.13.15,0,.1-.13-.08-.11-.05.15.16.23.26.31.32.17.25-.38-.24-.38-.24l.63.46c-.18-.08.15.19.06.15a7.22,7.22,0,0,1-.78-.48,1.89,1.89,0,0,1,.33.25.7.7,0,0,0-.49-.17c-.07,0-.34,0,.11.19s.17.16.63.5c.06.05.34.26.2.2s-.23-.17-.32-.22.18.22-.11,0-.39-.27-.45-.26-.31-.2-.32-.13.16.16,0,.09c.21.13,1,.65,1.11.68s.84.49.49.34c-.65-.35.31.24.22.26a1.39,1.39,0,0,1-.4-.21c-.25-.17-.06-.11-.2-.21l-.51-.3-.49-.29s.65.46.41.34l-.35-.17c.22.14.22.26.07.18a3.42,3.42,0,0,0-.57-.34c.26.17,0,.09.19.19a3.44,3.44,0,0,0,.39.24l.1,0c.22.14.73.58.89.71-.19-.12-.49-.31-.64-.38s-.31-.14-.34-.14,1,.73.94.78a8.63,8.63,0,0,0-1.18-.8c-.37-.23-.13,0,.12.14-.24-.16-1.09-.69-.55-.29.86.61-.17-.08,0,.13s.58.41.6.34a4.65,4.65,0,0,1,.79.54c-.2-.1-.42-.2-.64-.32l-.64-.39c-.15-.09-.31-.14-.41-.21l.61.39-.54-.3c-.19-.09,0,.09.14.18a1.76,1.76,0,0,0-.38-.09c.36.28.87.53,1.23.78.12.08.09.12.06.12s-.2-.13-.27-.16c-.29-.13.31.28.37.34s.07.15,0,.11-.29-.27-.54-.44l-.81-.47,1,.74c.17.14,0,.08-.22-.05s-.93-.58-.85-.46.15.17.05.14a1.14,1.14,0,0,1-.23-.15c-.12,0,.51.46.6.54s-.32-.11-.39-.13-.4-.18,0,.1.63.39.61.46c-.34-.22-1.22-.83-1-.56,0,.08,1.1.72,1.3.9,0,0-1-.61-1-.65s1,.69,1.18.84S17.61,20,17.34,19.73Z"/><path class="cls-1" d="M18.93,12.83c-.08-.07-.45-.34-.48-.3S18.93,12.88,18.93,12.83Z"/><path class="cls-1" d="M21.1,13.67c.16.13-.15-.16,0,0Z"/><path class="cls-1" d="M18.39,14a4.28,4.28,0,0,0,.7.47s-.09-.2.22.06c.11.09,0,0,.11.13a3.71,3.71,0,0,0,.85.48c.19.05.22,0,.08-.2s-.75-.53-.41-.38c.12.05.36.23.5.3s.12,0,.11,0-.2-.19-.28-.29.06,0,.15,0,.52,0,0-.25c-.07,0-.64-.41-.42-.31s.4.25.59.35c-.11-.06-.43-.34,0-.07.22.12-.13-.13-.13-.15s.33.12.4.11-.3-.22-.2-.19.36.15.37.09-.22-.22-.22-.22.17,0,.18-.05.22.05,0-.12a1.19,1.19,0,0,0-.19-.17s.05.09-.05,0l-.47-.24c-.28-.14-.66-.33-1-.52a3.11,3.11,0,0,0-.53-.28c-.11,0,.33.25.39.3.29.22-.24-.09-.18,0a.94.94,0,0,0,.24.18,3.16,3.16,0,0,0-.46-.21s.89.66,1,.75c.32.31-.38-.22-.39-.19s.29.22.33.28-.15-.06-.25-.11l-.66-.38c.06.05.6.51.56.49a9.66,9.66,0,0,1-.87-.63c-.19-.09.44.49-.11.14l.7.44c0,.06-.57-.35-.4-.15a1.06,1.06,0,0,0,.37.3c.07.07,0,.08,0,.11s-.68-.53-.38-.23c.09.08-.22-.1-.26-.1s.09.15.08.2-.58-.24-.18,0c.13.09.5.3.56.36s-.18,0,0,.08.15.07.22.12a3.94,3.94,0,0,1-.76-.35s.42.14-.14-.22a.58.58,0,0,0-.19,0s.07.13-.17,0c0,0,0,0,.07.1S18.41,14,18.39,14Z"/><path class="cls-1" d="M20.31,11c.16.1,0,0,0,0Z"/><path class="cls-1" d="M19.18,12.41s.51.14.5.23c-.31-.13.77.6.43.41s-.46-.28-.46-.23,0,0,.11.12c.5.32.55.2.83.33a5.5,5.5,0,0,0,.68.38.1.1,0,0,0,0-.13c0-.06-.24-.26-.07-.2s.17.08,0-.09c0,0,0-.12.07,0L20.93,13c.09,0,.43.31.52.33s-.13-.16-.16-.19-.5-.4-.4-.26c-.35-.21,0,0-.13-.15s-.59-.35-.59-.35a8,8,0,0,1,.86.48c.17.09.33.15.45.2s.36,0,.37,0l-.58-.35c0-.07.42.22.49.22s-.12-.17-.27-.31-.09-.12.14.05.17,0,.17,0,.08-.06-.07-.17-.43-.3-.24-.2c.51.25.48.21-.13-.17,0,0,.38.22.49.27s.28.08.25,0-.84-.49-.49-.38c.18,0,.43.25.45.18s-.33-.24-.47-.39a4.39,4.39,0,0,0-.51-.37.89.89,0,0,1-.53-.2c-.23-.16.07-.11-.24-.3a3.49,3.49,0,0,0-.56-.39,2,2,0,0,1,.34.25c-.18-.16-.47-.23-.46-.18a2,2,0,0,0,.45.45c.17.15.65.46.33.33s-.21,0,.07.14c-.19-.11-.4-.2-.42-.17s-.24-.3-.3-.25-.18,0-.19,0,1.08.72.76.59-1.16-.77-.93-.46a3.66,3.66,0,0,0,.59.4c.24.15.24.19.5.34,0,.05-.52-.29-.65-.37a4.49,4.49,0,0,0-.59-.37c-.14-.09,0,.05.11.11a4.85,4.85,0,0,1,.82.55c.05.07-.06,0-.2,0a2,2,0,0,0-.54-.39s.16.14,0,.06-.12-.06-.13,0-.21-.12-.23-.09a1.19,1.19,0,0,0,.36.52c-.07,0-.2-.13-.27-.16s-.08,0-.09,0-.2,0-.18,0,.52.38.33.29-.46-.21-.19,0c-.3-.17-.13.1-.27.05s.55.46.76.55A.82.82,0,0,1,19.18,12.41Z"/><path class="cls-1" d="M19.59,10.49l.16.09Z"/><path class="cls-1" d="M20.74,10.55v0c-.12-.07-.19-.09-.17,0S20.73,10.57,20.74,10.55Z"/><path class="cls-1" d="M20.62,10.18v0C19.94,9.71,20.61,10.25,20.62,10.18Z"/><path class="cls-1" d="M22.24,12.13c.06,0,.11,0,.06-.12s-.26-.26,0-.1c-.14-.1-.19-.24-.1-.18s.14.14.12.14c.17,0,.14-.08.17-.13s.19-.09-.22-.37c-.07-.06.19.08.27.13-.38-.32.23,0,.2-.13s-.94-.66-1.32-.92l-.11-.08a5.91,5.91,0,0,0-.64-.43s.3.23.37.3-.25-.11-.39-.17.33.3.37.34,0,.05,0,.11l.36.25c.16.11.29.21.13.13a6.27,6.27,0,0,1-.76-.5c-.54-.4-.8-.54-.69-.35,0,0,0,.25.16.34s.17,0,.22,0,.26.08.48.26.41.15.57.28-.21,0-.23,0,0,.09,0,.09-.34-.23-.38-.2.1.1,0,.07-.77-.38-.75-.34l.38.25c.18.13.15.14.34.28s.55.39.61.45-.29-.12-.27-.11l.58.36.38.27a6.38,6.38,0,0,0-.84-.5s-.35-.13-.42-.24.14.05,0,0a3.11,3.11,0,0,0-.36-.31c-.06,0-.79-.55-.79-.52s.63.45.71.51a6.41,6.41,0,0,0-.74-.35s.63.41.72.47a4.28,4.28,0,0,1,.47.33A7.62,7.62,0,0,0,22.24,12.13Z"/><path class="cls-1" d="M21.3,10.37l.11.08Z"/><path class="cls-1" d="M21.94,10.79c.15,0,.21.08.63.34s.2,0,.2,0,.09-.24-.6-.65c0-.07.34.21.49.27a4,4,0,0,0-.83-.58c-.33-.19-.56-.25-.08.05a9.09,9.09,0,0,0-1.21-.63c.47.29,1.45.9,1.43,1l-.41-.27h0c-.28-.19-.57-.39-.88-.58-.46-.28.54.41.82.56-.17-.07-.58-.27-.32-.1a4.52,4.52,0,0,1,.56.39S21.9,10.79,21.94,10.79Z"/><path class="cls-1" d="M20.76,9.34c-.3-.15-.09,0,.15.16v0S20.81,9.39,20.76,9.34Z"/><path class="cls-1" d="M11,7.3c.3,0,.22,0,0-.09V7.3Z"/><path class="cls-1" d="M11,7.35H11S11.18,7.41,11,7.35Z"/><path class="cls-1" d="M11,7.34H11c.35.13.62,0-.13,0C10.86,7.32,10.9,7.33,11,7.34Z"/><path class="cls-1" d="M9.12,12.76c1,.12,0-.13,0,0Z"/><path class="cls-1" d="M9.39,14.22s0,0,0,0a.29.29,0,0,0,.23,0A.83.83,0,0,0,9.39,14.22Z"/><path class="cls-1" d="M10.19,9.56l-.21,0Z"/><path class="cls-1" d="M8.67,6.94c-.22,0-.1,0,.07.1s-.05,0-.11,0,.95.13.69.13-.63,0-1-.08-.62,0-.35.05a6.58,6.58,0,0,1,.74,0c0,.07-.55,0-.53,0a.92.92,0,0,0,.38.06c0,.06-.5,0-.53,0s0,0-.12.05.11.08.37.11.36,0,.38.09L8,7.48c-.33,0,.1.07.18.08s0,.07,0,.11a1.52,1.52,0,0,0,.28.09s-1.26-.06-.41.08c.27,0,.09,0,0,.06S8,8,8.12,8s0,.06-.27.1.47.13.8.17c-.14,0-.2,0-.44,0H8c-.2,0-.09.14-.14.2s-.23.12-.13.19a5.71,5.71,0,0,0,.75.09c-.15,0-.11,0-.26,0l-.31,0c-.11,0,0,0,0,.06s.15.05.15.06-.14.07-.08.12.64.12.45.16-.78,0-.6.14.76.17.09.1l.28.06c-1-.09-.58.13-.54.25s0,.22.26.25c0,0-.07,0-.11.06s0,.09,0,.14-.15.12-.12.2,0,.08.22.1a.51.51,0,0,1,.29.07s-.08.05-.26.05.08.08,0,.1-.45,0-.11,0a.9.9,0,0,1,.39.1l-.5-.07c-.16,0,.3.17.34.2s-.09.07-.16.1-.36.07,0,.13l.63.11H7.8c-.25,0,.61.09.7.11a7.19,7.19,0,0,1-1,0c-.25,0,.15.1.16.14s-.18.1,0,.13l.19,0a.47.47,0,0,0,.21.07l.47.07s-1-.08-1.15-.06,0,.15,0,.21-.28.19.32.28c-.41,0-.16.15-.19.19s-.29.05-.14.07a5.6,5.6,0,0,0,.63.05c.52.08-.72.07-.62.11s1.25.16,1.11.16-1.53-.2-1.14,0c.23.08,0,.13.36.23.12.05.4.17.24.19-.37-.05-.72,0-.27.07-1-.13-.53.14.37.23l-.72,0c-.29,0-.19,0-.18.09s-.18.13.23.17c-.21,0-.24,0-.23.1s.19.1.68.17a4.74,4.74,0,0,1-.72,0,1,1,0,0,1,.39.11C6.79,13.9,7,14,7,14.1a7,7,0,0,0,1.07.26l.81.12c.2,0-.06,0-.16,0-.33,0-.7-.11-1-.17,0,0-.59-.1-.54-.08s.11.05.09.07l-.17,0s0,.06.1.08l1.28.16c-.15,0-1.12,0-.38.1.26,0,.68.09,1,.09s-.54-.19-.22-.16a4.88,4.88,0,0,0,.69.07c.27,0,0-.07,0-.09a3.89,3.89,0,0,0-1-.21A3.33,3.33,0,0,1,8,14.22s-.08-.09.08-.07a4.41,4.41,0,0,1,.47.14,4.29,4.29,0,0,0,.69.12c-.45-.06-.27-.11-.52-.17,0-.06.13,0,.27,0s.05-.07.05-.1.21,0,.36,0a.34.34,0,0,0,.26-.07s.31-.12,0-.14c-.47-.05-.63-.09-.53-.15s.65,0,.29,0,.34,0,0-.1l-1.26-.17s.65.06.82.06a4.83,4.83,0,0,1,.54,0s.18,0,.18,0-.16,0-.19,0c-.25,0-.23-.09-.22-.11s-.59,0-.49-.06a6.75,6.75,0,0,1,1,.07c.25,0-.19-.13-.51-.17s-.22,0-.23-.08.17-.05,0-.07S8.6,13,8.83,13c.38,0,.37.1.77.15-.09-.08.37,0,.05-.11s0-.14-.45-.18c.24,0,.33,0,.14,0s-.42-.07-.65-.12c-.42-.08.27,0,.41,0s.85.09.71,0-.4-.16.13-.08c-.37,0-1.44-.18-1-.22.22,0,1.09.12.76,0,0,0-.51-.12-.41-.13l.55,0c.12,0-.15-.06-.16-.1a3,3,0,0,0-.52-.09c-.2-.06,0-.09-.33-.16-.06,0-.54-.13-.16-.08s.37,0,.35-.1-.22-.09-.3-.13.92.13,1.12.12-.47-.11-.54-.12-.3-.08-.1-.06c-.1,0-.73-.07-.72-.08a13,13,0,0,1,1.39.13c0-.05-.58-.08-.6-.15.65.1.14-.06.3-.07s.38.06.41,0-.07,0-.12-.08.08-.06.07-.1l-.05-.16a2.74,2.74,0,0,1-.7-.08c-.18-.07.36,0,.48,0,.3,0,.45,0,.31-.07a2,2,0,0,0-.54,0c-.17,0-.42-.18,0-.14.78.09-.6-.18-.61-.2a2.56,2.56,0,0,0,.63,0s-.25-.18.08-.1c0,0-.3-.14,0-.11s.51,0,.33,0a4.25,4.25,0,0,0-.89,0,1.46,1.46,0,0,1-.3-.07s.33,0,.47,0l.73,0-.39-.1c-.5-.09-.15-.05.11-.05.62,0-.45-.27.28-.23.09,0-.64-.12-.36-.11.05,0,.82.07.51,0-.16,0-.6-.05-.61-.1a1.06,1.06,0,0,1,.33,0s-.3,0,0,0,.3,0,.29-.06,0-.07-.16-.08-.61,0-.59,0a2.86,2.86,0,0,1-.46-.06c-.16,0,.14,0,.24,0a8.63,8.63,0,0,1,1,0l-.37-.06a3.3,3.3,0,0,1,.45,0c.23,0,0-.1-.12-.15a3.14,3.14,0,0,0-.52-.17c-.09,0-.49-.08-.32-.09l.51.06c.22,0,.43.06.43.06s-.56-.11-.56-.13a1.81,1.81,0,0,0,.41,0C10,9.06,10,9,9.72,9A1,1,0,0,0,9.3,8.8c-.19-.12.24,0,.55-.07s-.43-.11-.4,0a2,2,0,0,0-.88-.24c.3,0,.51.08.83.1l.47,0c-.51-.06-.55-.12-.51-.19s.44,0,.7-.06c-.31,0-.24-.18-.28-.21S9.29,8,9.33,8s1.22-.1.37-.18c0,0,.59,0,.31-.09s-.48-.08-.76-.14l1,.15-1-.24.84.13a5.39,5.39,0,0,0-1.23-.19,5.93,5.93,0,0,1,1,.07c.37,0,0,0,.15-.06s.35,0,.25,0-.35-.08-.28-.11a.52.52,0,0,1,.15-.06c.07,0,.63,0,.47-.1L10,7.1C9.5,7,9.4,7,9.53,7s-.23-.06-.33-.08C9.28,6.94,8.84,6.93,8.67,6.94Z"/><path class="cls-1" d="M9.87,8.59l.19,0Z"/><path class="cls-1" d="M8.9,15.15c-.07,0-.12.06.21.08s.22-.06.2-.1H9S8.89,15.14,8.9,15.15Z"/><path class="cls-1" d="M7.09,14.65c-.32,0,.22.09-.07.09s.35.19.45.28c-.39,0-.43,0-.31,0a6,6,0,0,0,.62.16c-.41-.11-1.31-.06-.43,0,.3,0,.24.08,0,.07s-.55-.06-.53,0c-.27,0,.84.12,1,.13a14,14,0,0,0,1.43.2c.08,0-.36-.1-.13-.11s.55,0,.34,0-.58-.05-.75-.08l-.31-.06c.3,0,.76.07.44,0-.16,0-.76-.14-.92-.16L9,15.33c0-.05-.48-.07-.56-.12s.07-.06.1-.11S8.48,15,8.76,15c.08,0,.41,0,.4,0l-.65-.07c0-.06.4,0,.67,0a1.86,1.86,0,0,1-.49-.13c-.1-.06-.16-.07-.53-.11A8.3,8.3,0,0,0,7.09,14.65Z"/><path class="cls-1" d="M6.83,15.31c0-.06-.17,0,0,0Z"/><path class="cls-1" d="M7.06,15.44c-.41,0,.56.13.76.16a6,6,0,0,0-1-.06,3.93,3.93,0,0,1,.63.12s.09.09,0,.12l-.3,0c-.35,0-.28,0,.06.09-.27,0,.44.13.16.13a3.07,3.07,0,0,1-.6-.11,4,4,0,0,0,1,.24c-.33,0-.58,0-.94-.1A7.56,7.56,0,0,1,8,16.27c-.3,0-1-.13-.84,0s.61,0,.83.09-.76-.08-.7,0,.5.11.2.1l-.29,0,.43.09a3,3,0,0,0-.84,0c-.12,0,.08,0,.25.07-.24,0-.41,0-.42,0s.23.08.35.13.25.1.25.13a3.38,3.38,0,0,1-.53-.06,2.47,2.47,0,0,0,.4.14l.16,0c.61.11.91.1,1.54.19s.3,0,.33-.09.33-.1,0-.19a2.61,2.61,0,0,0-.82-.09s-.92-.22-1-.24l.67.12h.3a3.85,3.85,0,0,0,.76.12c0-.06.54-.18-.24-.29.08,0,.07-.09,0-.11s.33,0,.39,0,.08-.09-.1-.16c-.38-.14.26,0,.24-.1a5.67,5.67,0,0,1-.87-.1c-.15,0-.72-.17-.44-.16A8.9,8.9,0,0,1,9.37,16s.11-.16-.19-.21-1-.12-1.17-.18A2.85,2.85,0,0,0,7.06,15.44Z"/><path class="cls-1" d="M8.64,17.14c.15.07.38.07.37,0S8.63,17.1,8.64,17.14Z"/><path class="cls-1" d="M7.19,17.1v0C7.43,17.21,7.82,17.19,7.19,17.1Z"/><path class="cls-1" d="M8.14,17.29c-.46-.05-1-.09-1.49-.16a2.31,2.31,0,0,0,.65.22c.38.07,0-.09.09-.07s.37.14.13.13a5.92,5.92,0,0,0-.77-.07c-.54.08.73.12.81.17s-.87-.05-.95,0-.18.06.37.14c0,.06-.35,0-.48,0s-.09.1.31.15c-.69-.1.05.22-.19.26h0c.23,0,.88.11,1.3.14a2,2,0,0,0,.41,0c.08,0,.72.09.44,0s-.31,0-.32-.07l0-.07s-.52-.1-.7-.16c-.5-.15.95.15.93.15s-.51-.15-.26-.14.72.07.63,0a1.27,1.27,0,0,0-.53-.16s.17.11.07.09c-.31-.07-.32-.19-.21-.21a.62.62,0,0,1,.23,0,1.77,1.77,0,0,0,.48.09l-.78-.19c.13,0,1,.14.8.08s-.48-.09-.57-.14.19,0,.23,0c.24,0-1-.18,0-.09.42,0,.56,0,.15-.11s.59,0,.19-.08S7.92,17,7.41,17C6.3,16.78,7.85,17.21,8.14,17.29Z"/><path class="cls-1" d="M6.57,18.08h0S6.43,18.06,6.57,18.08Z"/><path class="cls-1" d="M8.13,19.8a1.06,1.06,0,0,0,.58.11S8.12,19.74,8.13,19.8Z"/><path class="cls-1" d="M8.45,20.33c.16-.06-.21-.15-.18,0A.56.56,0,0,0,8.45,20.33Z"/><path class="cls-1" d="M8.07,18.3c-.12,0-.35-.07-.42-.07-.27,0,.36.12-.31,0-.24,0-.76,0-.48,0l.71.16a3.73,3.73,0,0,0-.81-.09s.3.17-.16.1a2.09,2.09,0,0,1,.65.16,5.22,5.22,0,0,0-.83-.1l.62.17c.47.17-.51-.05-.56,0a2.73,2.73,0,0,0,.3.15,3.17,3.17,0,0,0,.56.1c0,.06-.58-.07-.69-.08s-.07.06-.22.05-.22,0,0,.05.1.08,0,.09-.53,0-.28,0,.54.08.59.11-.21,0-.36,0c-.61-.1.19.1.29.1,0,0-.45,0-.44,0s.25,0,.4.08-.48,0-.51,0,.25.08.32.12A2.43,2.43,0,0,0,7,19.7c.13.05.41.12.22.12s-.73-.06-.72,0-.26,0-.44,0c-.44,0,.76.26,0,.19.4.06.74.14.59.18s-.73-.05-.72,0a9.54,9.54,0,0,0,1.16.11,9.24,9.24,0,0,1,1.19.27c.36.07.24-.1.23-.12s-.65-.06-.86-.12l.46.1a6.43,6.43,0,0,1-.66-.13c-.26-.07.09,0,.3,0s.75.05.17-.05c-.2,0-.82-.14-.7-.18a8.33,8.33,0,0,1,1,.16c.29,0,.17-.07.16-.09s.26-.14-.61-.26c.3,0-.15-.08-.17-.13a2.88,2.88,0,0,0,.41,0s-1.07-.2-.63-.21a3.81,3.81,0,0,1,.7.06c.19.05-.2,0-.25,0s.07.06.26.09.22,0,.21.08c.37.06.52,0,.15-.08,0-.05.29,0,.22-.1A1.31,1.31,0,0,0,8,19.41a4.09,4.09,0,0,1-.53,0c-.11,0-.69-.22-.51-.19a6.68,6.68,0,0,0,.87.11c.31,0,.48.05.5,0s.37,0,.41,0-2.75-.47-.45-.11c.4.07.54,0,.3,0s-1-.22-1-.22l.58.09a3.42,3.42,0,0,0,.58.06A9.43,9.43,0,0,1,7.5,18.8c-.07-.08.88.11,1.06.11s0-.05,0-.07.22,0,.27,0-.65-.26-.65-.26a3,3,0,0,0,.52.08c.07,0,0,0-.09-.07a6.17,6.17,0,0,1-.74-.21c.09,0,.71.08.89.07s-.12-.09-.35-.12S8.33,18.34,8.07,18.3Z"/><path class="cls-1" d="M7.18,20.34c-.29-.05-.75-.08-.56,0l0,0,.89.14a2.26,2.26,0,0,1-.41-.09C7.32,20.45,8,20.46,7.18,20.34Z"/><path class="cls-1" d="M8.05,20.79a2,2,0,0,0,.56.09S8,20.74,8.05,20.79Z"/><path class="cls-1" d="M5.63,20.24s.31.09.32.11-.16,0-.12.08a1,1,0,0,0,.29.14,3.22,3.22,0,0,0,.37.08s-.53,0-.44,0,.7.13.93.17L8.29,21s-.93-.21-.85-.22a7.54,7.54,0,0,0,1,.14c-.77-.1-.29-.1-.64-.18s-1-.11-.89-.2.48.07.67.12a7,7,0,0,0,1,.09,12.61,12.61,0,0,0-1.28-.27,5.75,5.75,0,0,1-1.2-.27C6.12,20.29,6,20.29,5.63,20.24Z"/><path class="cls-1" d="M5.7,20.69s0,.1.24.17.6.13.75.17S5.76,21,5.7,21s0,.07,0,.1.09.11.06.15-.31.06.18.2c.06,0,1.49.28,1.16.28l-.55-.11a2.62,2.62,0,0,0-.43,0c-.35,0-.4.09-.38.17s0,.1.15.16.18,0,.17,0l.6.13,1,.18c.28.05,0,0,.2,0s.39.05.31,0S8,22,7.49,21.87c-.17,0-.56-.09-.41,0s-.37-.05-.4-.06-.63-.16-.49-.16.4.09.47.1a5,5,0,0,0,.7.08,1.92,1.92,0,0,1,.69,0s-.17,0,0,.06.45-.1-.24-.17c-.28,0-.15,0-.25-.09s-.11,0-.33-.07l.71,0c.27,0,.17-.08.15-.14.36-.05-.72-.13-1.07-.2-.1,0-.08,0-.06-.05a2.8,2.8,0,0,1,.36.05c.3,0,.72.09.48,0s-.66-.17-.91-.26c0-.06-.39-.11-.48-.18s.83.19.92.2a4.87,4.87,0,0,0,.83.12c.2,0-.25-.13-.55-.16l-.51,0c-.18,0-.13-.05-.06-.05A3.32,3.32,0,0,0,5.7,20.69Z"/><path class="cls-1" d="M6.09,22.17Z"/><path class="cls-1" d="M6.34,22.12a3.32,3.32,0,0,1-.5-.08c-.18,0,.1.09.25.13s1.58.35,1.31.22c.26,0,.44.08.39.12.39.06,0-.16-.12-.2A5,5,0,0,0,6.36,22C5.24,21.78,6.46,22.06,6.34,22.12Z"/><path class="cls-1" d="M5.58,22.94c-.16,0-.18,0-.18,0v0C5.55,23,5.63,23,5.58,22.94Z"/><path class="cls-1" d="M6.49,23.93l.07,0,.18.05c.22.06.39.1.38.05a3.92,3.92,0,0,0-.82-.17Z"/><path class="cls-1" d="M6.49,23.93l.25.07L6.56,24Z"/><path class="cls-1" d="M7.68,24.15s-.17,0-.16.07C7.94,24.36,7.69,24.18,7.68,24.15Z"/><path class="cls-1" d="M7.61,22.5c0,.06-.68-.05-.6,0a2.89,2.89,0,0,0,.39.15s.15.11,0,.07a3.06,3.06,0,0,0,.53.11l-1-.14c.25.08,1,.26.76.28a3.29,3.29,0,0,1-.9-.14s-.2-.06-.19,0,0,0,.11.07a3.59,3.59,0,0,0,.6.16c.32,0,.67.14.58.18s-.7-.1-.88-.1.12.09.27.14a3.07,3.07,0,0,1,.52.06c.44.09.36.14,0,.06.14,0,.35.09.28.1a5.72,5.72,0,0,1-.59-.07l-1.71-.29c.41.07.85.23,1.19.27a4.41,4.41,0,0,1,.57.07c.22.05-.13,0-.17,0-.27,0-1.07-.15-.91-.06a8.08,8.08,0,0,0,.95.1c.67,0,.38.11.39.15s.31.15.12.15-.49-.07-.62-.09a6.51,6.51,0,0,0-1-.11s1,.17,1,.18-.25,0-.11,0,.42.06.58.1c.61.13-.06.07-.35,0,.29,0,.79.16.3.11s-1.35-.18-1.81-.28l.28.12L7,24.1c.68.07-.26,0-.26,0s.83.09.54.11c-.1,0,.28.12.29.15s-.41,0-.4,0,1.28.21.84.2c-.26,0-1.07-.14-1.47-.2l.58.16a3.36,3.36,0,0,0,.59.15s0-.06,0-.06c.26,0,.17.17.17.17s.11.14-.25.06c-1.14-.26.4.23.11.24S6.86,25,6.64,25a8,8,0,0,1-1.32-.29c-.21-.09,0-.06.36,0s.52,0,.61,0c-.26-.08-.69-.16-1-.24a7.51,7.51,0,0,0,1.23.18c-.37-.09-.87-.18-1.1-.27s-.42-.24.12-.13c-.46-.08-.19-.1,0-.08s.68.06.3,0S5.15,24,5.36,24s-.05-.05-.07-.12c.48,0,0-.26,0-.35s0-.08.2-.07l.5.1s-.44-.13-.53-.17,0-.08.19-.09c.61.06,0,0-.15-.09s-.09-.06-.06-.07a1.57,1.57,0,0,1,.3.05S5.35,23,5.39,23a6.21,6.21,0,0,1,.87,0c.4,0-.51-.12-.73-.16-.43-.07.22-.05-.08-.12.63.11-.07-.17.15-.13a5.89,5.89,0,0,0,.84.11l.33,0-.9-.12a2.23,2.23,0,0,1-.39,0c-.06,0,0,0,.17,0s-.1-.09,0-.07.31,0,.3,0-.28-.1,0-.06c-.11-.11,0,0-.43-.12.14,0,.13-.15.77,0a4.64,4.64,0,0,1,.75.13l.37.06S7.44,22.48,7.61,22.5Zm-1.1.57c-.12,0,.24.1.44.14l.3,0A4.14,4.14,0,0,0,6.51,23.07Z"/><path class="cls-1" d="M6.14,25.31a2.41,2.41,0,0,0-.5-.07S6.47,25.38,6.14,25.31Z"/><path class="cls-1" d="M5.47,25c.14.05.36.09.5.15s-.14,0-.36,0-.74-.08-.38,0,.68.13,1,.18c.62,0,.38.13.36.13l.59.09.13,0a3.64,3.64,0,0,0,.57.13c.2,0-.11-.09-.34-.13-.06,0-.78-.15-.52-.14s.56.11.77.12,0-.06,0-.1-.08-.12-.13-.18A5.82,5.82,0,0,0,6.29,25C5.81,24.88,5,24.82,5.47,25Z"/><path class="cls-1" d="M7.27,25.55l-.13,0C7,25.48,7.56,25.63,7.27,25.55Z"/><path class="cls-1" d="M7,26.33c.2.06.93.19.71.11A2.29,2.29,0,0,0,7,26.33Z"/><path class="cls-1" d="M6.65,26.43c.25.12,1,.2.92.13S6.28,26.31,6.65,26.43Z"/><path class="cls-1" d="M6.65,26.43c-.19-.06.2.09,0,0Z"/><path class="cls-1" d="M6.76,29.15c.4.13.81.14.34,0C6.82,29.09,6.45,29,6.76,29.15Z"/><path class="cls-1" d="M4.26,29.81v0C4.49,29.94,4.88,29.94,4.26,29.81Z"/><path class="cls-1" d="M5.17,25.21c.1,0,.53.22,0,.11s-.25,0-.25.06a.32.32,0,0,0,.2.29c.2.12-.23.11-.19.19s1,.25.34.18c-.39-.07,0,.15-.12.13-.35-.08-.17.15-.16.2s-.16.08-.13.16a1.05,1.05,0,0,1,.35,0c.15,0,0,.08,0,.1s.18,0,.19.08-.17,0-.36,0v-.06c-.37,0-.37,0-.23.11s-.22,0-.2.06.41.17.59.26-.35,0-.49,0c-.37,0,.19.21,0,.27s-.11,0,.24.09-.09.09-.1.11.17.11-.41,0c-.2,0,.22.13.3.15.37.1.53.1.55.18-.18,0,.13.07.38.1A10.59,10.59,0,0,1,7,28.3a7.36,7.36,0,0,1-1-.19,7,7,0,0,1-.74-.19c-.34-.08-1-.18-.36,0-.17,0-.36-.05-.35,0,.23.08.22.13.22.17s-.24.07,0,.18a1.11,1.11,0,0,0,.33.13,2.41,2.41,0,0,0-.71-.07l.48.11.58.11c-.42-.08-.89-.17-.92-.1s-.11.13.25.21a.82.82,0,0,0-.39,0c-.06,0,.09.06.33.12H4.3a6,6,0,0,0,.64.21c.08,0,.4.12.39.08s.17,0,.17,0,0,.09-.27.08S4.71,29,4.54,29s.44.16.51.18-.29,0-.36,0c-.37,0-.45.07.12.2.1,0-.13.13-.4,0,.12.05.44.11.45.15s-.23,0-.34,0,.54.12.68.15a2.86,2.86,0,0,1-.44,0,3.29,3.29,0,0,0-.56-.09l.2.07,0,.06s0,0,0,0a8.53,8.53,0,0,0,.94.27,2.93,2.93,0,0,1,.53.14L5,30c-.23,0-.12,0-.23,0a2.72,2.72,0,0,0-.49-.07s0,0,.06.07.53.06.68.11-.07,0-.19,0c-.46-.05-.54-.11-.51,0s.7.23,1.31.33c.33,0,.74.12,1.11.2.76.15-.3-.13-.3-.14l.65.13s-.37-.1-.48-.16-.08-.13-.21-.22-.3-.15.06-.08a4.09,4.09,0,0,1,.56.14c0-.07.06-.13-.1-.23a7.45,7.45,0,0,0-1.07-.25c.3.06.11,0,.09-.05a3.88,3.88,0,0,1,.45.08c.21,0,1.1.18.61,0a8.16,8.16,0,0,0-.9-.16c-.22,0-.44-.16-.25-.13a1.69,1.69,0,0,0,.39.08s-.2-.09,0-.08l.45.07c-.3-.06-1.91-.35-1.48-.38.1,0,1.85.39,1.81.36a9.84,9.84,0,0,0-1-.28c.09,0,.73.09.79.09.3,0-.65-.11-.53-.09-.17,0-.12-.08-.2-.1-.26-.05-.17-.05-.18-.09.17,0,1,.15.76.18.3.07.83.1.47,0s-1-.19-1.14-.27l.43.09a1.6,1.6,0,0,0,.45.07,4.19,4.19,0,0,0-1-.26s.32.06.35,0,0-.06.14-.07a2.6,2.6,0,0,1,.49,0c.17,0,.36.07.33,0s-.18-.09,0-.09.15,0,.12,0-.2-.1-.32-.16-.4-.18-.24-.17.44.09.44.09-.71-.2-.76-.2c.2,0-.21-.12-.11-.11a8.87,8.87,0,0,1,.9.15,2,2,0,0,1-.4-.1.74.74,0,0,0,.52,0c.06,0,.34-.07-.18-.13s-.21-.09-.76-.23c-.08,0-.42-.12-.27-.11a3.23,3.23,0,0,1,.39.09c.25,0-.26-.14.08-.08A2.12,2.12,0,0,0,7,28s.36.07.35,0-.22-.09,0-.08a11.49,11.49,0,0,0-1.29-.23c-.17,0-1-.15-.57-.13.73.09-.38-.11-.3-.16a1.17,1.17,0,0,1,.44.05c.3.07.1.08.27.12l.59.09.55.09s-.77-.19-.5-.16l.38,0c-.25-.05-.3-.16-.13-.14a3.09,3.09,0,0,0,.66.1c-.3-.06-.09-.06-.26-.1l-.45-.08h-.1c-.25-.05-.9-.26-1.09-.33a5.94,5.94,0,0,0,.74.12c0-.06.33,0,.36,0s-1.23-.29-1.16-.36a8.18,8.18,0,0,0,1.39.3c.43.07.13,0-.16-.08.28.06,1.27.23.62.06-1-.24.18,0-.09-.1s-.69-.16-.67-.09a6,6,0,0,1-.94-.21c.22,0,.46,0,.71.07l.74.12c.17,0,.34,0,.46,0l-.71-.14.61.08c.21,0,0-.07-.19-.11a1.11,1.11,0,0,0,.38-.06c-.44-.12-1-.16-1.44-.25-.14,0-.12-.08-.1-.09a2.75,2.75,0,0,1,.31.05c.31,0-.39-.14-.48-.17s-.12-.11-.05-.1.37.14.67.2l.92.14c-.12,0-1.08-.26-1.25-.29s0-.08.23,0,1.08.19,1,.1-.2-.09-.1-.1a1.5,1.5,0,0,1,.26.05c.13,0-.64-.22-.76-.27a3.13,3.13,0,0,1,.41,0s.44,0,0-.08-.72-.13-.74-.2c.4.08,1.44.3,1.11.15,0-.07-1.29-.24-1.54-.33,0,0,1.19.17,1.22.19s-1.17-.25-1.41-.32S4.81,25.05,5.17,25.21Z"/><path class="cls-1" d="M6.32,31.93a1.88,1.88,0,0,0,.56.12S6.31,31.88,6.32,31.93Z"/><path class="cls-1" d="M4,31.87c-.19-.07.2.1,0,0Z"/><path class="cls-1" d="M6.41,30.72a3.76,3.76,0,0,0-.82-.19s.15.15-.23,0c-.13-.05,0,0-.15-.09a3.37,3.37,0,0,0-1-.14c-.19,0-.19.1,0,.2s.89.22.52.2c-.13,0-.42-.09-.58-.1s-.1.05-.09.08.27.1.37.16,0,.05-.13.07-.5.12,0,.23c.09,0,.75.17.51.15s-.46-.09-.68-.12c.13,0,.53.16,0,.08-.25,0,.17.06.17.09s-.35,0-.41,0,.36.1.25.11-.39,0-.37,0,.29.13.29.13-.17.05-.15.1-.22,0,0,.11a1,1,0,0,0,.24.09s-.08-.06,0-.05l.53.06c.31.05.72.1,1.09.17a4.13,4.13,0,0,0,.58.08c.12,0-.39-.12-.47-.15-.34-.1.26,0,.18,0A1.11,1.11,0,0,0,5.9,32a2.54,2.54,0,0,0,.51,0s-1.07-.3-1.18-.35c-.42-.18.42.07.42,0s-.35-.11-.4-.14.16,0,.26,0l.76.12-.7-.25a7.28,7.28,0,0,1,1,.28c.21,0-.58-.3.06-.17l-.82-.17c0-.06.66.14.43,0a1.16,1.16,0,0,0-.46-.15c-.08,0,0-.08,0-.1s.82.25.43.08c-.11-.05.25,0,.28,0s-.14-.11-.15-.16.62,0,.16-.09l-.65-.13c-.09,0,.17,0,0-.08a1.32,1.32,0,0,1-.24,0,4.19,4.19,0,0,1,.83.06s-.44,0,.21.16a.48.48,0,0,0,.16-.09s-.1-.1.17,0c0,0,0,0-.1-.07C6.58,30.62,6.37,30.68,6.41,30.72Z"/><path class="cls-1" d="M5.72,34.07c-.19,0,0,0,0,0Z"/><path class="cls-1" d="M6.25,32.39s-.53,0-.55,0c.33,0-.93-.29-.54-.22.22,0,.52.1.51.05s0,0-.15-.07a2.77,2.77,0,0,0-.89,0A6.83,6.83,0,0,0,3.86,32s0,.07,0,.12.32.16.13.15-.18,0,.07.08c0,0,.08.09-.06,0l.39.12c-.1,0-.51-.14-.61-.13s.18.1.22.12.61.2.47.1c.4.09,0,0,.18.1s.67.13.67.13a6.08,6.08,0,0,1-1-.17l-.48,0c-.08,0-.33.11-.35.1l.66.13c0,.06-.47-.07-.53,0s.17.12.36.19.13.08-.15,0-.17,0-.16,0,0,.09.13.14.5.13.29.11c-.56-.08-.52,0,.18.11,0,0-.43-.09-.55-.1s-.28,0-.24.05,1,.18.59.19c-.19,0-.5-.1-.48,0s.39.11.57.21.56.17.6.17a.89.89,0,0,1,.57,0c.27.08,0,.12.33.2a3.93,3.93,0,0,0,.66.18L6,34.13c.23.09.52.06.49,0a1.76,1.76,0,0,0-.57-.27c-.22-.09-.77-.22-.43-.19s.22,0-.11-.11a1,1,0,0,0,.45,0s.33.19.37.13.18,0,.17-.07-1.26-.31-.92-.3,1.35.34,1,.12a4.93,4.93,0,0,0-.69-.17c-.28-.06-.29-.1-.59-.15a4.44,4.44,0,0,1,.74.13,5.15,5.15,0,0,0,.68.15c.16,0,0,0-.14-.07a4.84,4.84,0,0,1-1-.23c-.07,0,0,0,.2,0a2.16,2.16,0,0,0,.64.18s-.2-.08,0,0,.13,0,.12,0,.24,0,.25,0a1.26,1.26,0,0,0-.52-.36,2.84,2.84,0,0,0,.31.06c.11,0,.06,0,.06-.06s.2-.05.15-.11-.61-.17-.4-.15.5,0,.18,0c.34.06.09-.13.23-.13s-.67-.24-.9-.26A.9.9,0,0,1,6.25,32.39Z"/><path class="cls-1" d="M6.56,34.29l-.18,0Z"/><path class="cls-1" d="M5.47,34.59v0c.13,0,.21,0,.17,0S5.46,34.57,5.47,34.59Z"/><path class="cls-1" d="M5.71,34.89v0C6.51,35.1,5.69,34.82,5.71,34.89Z"/><path class="cls-1" d="M3.51,33.62s-.09.06,0,.12.34.16,0,.09c.16.05.26.16.16.13s-.19-.08-.16-.08c-.18,0-.11.12-.12.17s-.14.14.34.27l-.31,0c.47.17-.2.1-.13.18s1.11.31,1.55.43l.13,0c.19.07.5.14.74.2,0,0-.35-.12-.44-.17s.27,0,.42,0-.41-.17-.47-.2,0,0,0-.09l-.42-.12c-.2-.05-.35-.1-.17-.08a5.51,5.51,0,0,1,.88.23c.65.19.93.24.77.1s-.11-.22-.27-.27c-.33-.07-.17.06-.21.08s-.27,0-.53-.09-.43,0-.63-.08.21,0,.23,0-.06-.07,0-.09.41.1.43.06-.12-.06,0-.06.85.11.81.08l-.44-.11c-.21-.07-.19-.09-.41-.16L4.46,34c-.12,0,.31,0,.29,0l-.67-.14-.45-.12c.32.07.69.16,1,.19a1.26,1.26,0,0,1,.48.08s-.15,0,0,.06a4,4,0,0,0,.45.17,7,7,0,0,0,.91.22s-.74-.21-.84-.24a6.55,6.55,0,0,0,.81.09,7.51,7.51,0,0,0-.84-.2S5.09,34,5,33.94A7.91,7.91,0,0,0,3.51,33.62Z"/><path class="cls-1" d="M5,34.93l-.13,0Z"/><path class="cls-1" d="M4.27,34.74c-.15,0-.22,0-.71-.11-.31-.07-.2,0-.18,0s0,.24.78.41c0,.06-.39-.09-.55-.1a4.47,4.47,0,0,0,1,.28c.37.07.6.06,0-.07A9.81,9.81,0,0,0,6,35.4a6.33,6.33,0,0,1-1.69-.5l.47.12h0c.33.09.66.19,1,.26.54.12-.63-.21-1-.25.19,0,.63.06.33,0a6.59,6.59,0,0,1-.65-.18A1,1,0,0,0,4.27,34.74Z"/><path class="cls-1" d="M5.87,35.7c.34,0,.08,0-.19-.1v0Z"/></svg>