<?xml version="1.0" encoding="utf-8"?>
<!-- Generator: Adobe Illustrator 25.3.1, SVG Export Plug-In . SVG Version: 6.00 Build 0)  -->
<svg version="1.1" xmlns="http://www.w3.org/2000/svg" xmlns:xlink="http://www.w3.org/1999/xlink" x="0px" y="0px"
	 viewBox="0 0 59 73" style="enable-background:new 0 0 59 73;" xml:space="preserve">
<style type="text/css">
	.st0{display:none;}
	.st1{display:inline;}
	.st2{fill:#DF7600;}
	.st3{display:inline;fill:#DF7600;}
	.st4{fill:#FCB713;}
</style>
<g id="Layer_1" class="st0">
	<g class="st1">
		<path class="st2" d="M50.5,49.5h-45v-11l0.4-0.1c1.7-0.2,3-1.5,3-3c0-1.5-1.3-2.8-3-3l-0.4-0.1v-11h45v11L50,32.5
			c-1.7,0.2-3,1.5-3,3c0,1.5,1.3,2.8,3,3l0.4,0.1V49.5z M6.5,48.5h43v-9.1c-0.1,0-0.2,0-0.3-0.1l0.3,0.1v9.1H6.5z M7.5,47.5h41v-7.3
			c-2.1-0.8-3.5-2.6-3.5-4.7c0-2.1,1.4-3.9,3.5-4.7v-7.3h-41v7.3c2.1,0.8,3.5,2.6,3.5,4.7c0,2.1-1.4,3.9-3.5,4.7V47.5z M6.5,39.4
			L6.5,39.4l0.3-0.1C6.7,39.4,6.6,39.4,6.5,39.4z M9.9,35.5c0,1.6-1.2,3.1-2.8,3.7C8.8,38.6,9.9,37.2,9.9,35.5z M46,35.5
			c0,1.6,1,3,2.6,3.6C47.1,38.5,46,37.1,46,35.5z M46,35.5C46,35.5,46,35.5,46,35.5C46,35.5,46,35.5,46,35.5z M9.9,35.5
			C9.9,35.5,9.9,35.5,9.9,35.5C9.9,35.5,9.9,35.5,9.9,35.5z M46,35.5C46,35.5,46,35.5,46,35.5C46,35.5,46,35.5,46,35.5z M9.9,35.5
			C9.9,35.5,9.9,35.5,9.9,35.5C9.9,35.5,9.9,35.5,9.9,35.5z M9.9,35.5C9.9,35.5,9.9,35.5,9.9,35.5C9.9,35.5,9.9,35.5,9.9,35.5z
			 M46,35.5C46,35.5,46,35.5,46,35.5C46,35.5,46,35.5,46,35.5z M46,35.5C46,35.5,46,35.5,46,35.5C46,35.5,46,35.5,46,35.5z
			 M9.9,35.5C9.9,35.5,9.9,35.5,9.9,35.5C9.9,35.5,9.9,35.5,9.9,35.5z M46,35.5C46,35.5,46,35.5,46,35.5C46,35.5,46,35.5,46,35.5z
			 M9.9,35.5C9.9,35.5,9.9,35.5,9.9,35.5C9.9,35.5,9.9,35.5,9.9,35.5z M46,35.5C46,35.5,46,35.5,46,35.5C46,35.5,46,35.5,46,35.5z
			 M9.9,35.5C9.9,35.5,9.9,35.5,9.9,35.5C9.9,35.5,9.9,35.5,9.9,35.5z M49.5,22.5v9.1l-0.4,0.1c-1.9,0.5-3.1,2.1-3.1,3.8
			c0-1.9,1.5-3.5,3.5-3.9V22.5z M6.5,31.6c2,0.4,3.5,2,3.5,3.9c0-1.7-1.3-3.3-3.1-3.8L6.5,31.6L6.5,31.6z"/>
	</g>
	<rect x="36.2" y="22.6" class="st3" width="1" height="2"/>
	<rect x="36.2" y="26.6" class="st3" width="1" height="2"/>
	<rect x="36.2" y="30.6" class="st3" width="1" height="2"/>
	<rect x="36.2" y="34.6" class="st3" width="1" height="2"/>
	<rect x="36.2" y="38.6" class="st3" width="1" height="2"/>
	<rect x="36.2" y="42.6" class="st3" width="1" height="2"/>
	<rect x="36.2" y="46.6" class="st3" width="1" height="2"/>
</g>
<g id="Layer_2">
	<g>
		<g>
			<g>
				<path class="st4" d="M46.8,36.3c0.2-0.1,0.1-0.3-0.1-0.3c0,0,0,0.1,0,0.1L46.8,36.3z"/>
				<path class="st4" d="M46.9,36.5C46.8,36.5,46.8,36.5,46.9,36.5C46.8,36.5,47,36.6,46.9,36.5z"/>
				<path class="st4" d="M46.8,36.5C46.8,36.5,46.8,36.5,46.8,36.5C47.2,36.7,47.1,36.2,46.8,36.5C46.8,36.5,46.8,36.5,46.8,36.5z"
					/>
				<path class="st4" d="M35.6,49.4C35.6,50,36.2,49.3,35.6,49.4L35.6,49.4z"/>
				<path class="st4" d="M28.4,49.7c-0.1,0-0.1,0-0.2,0c-0.1,0.1,0.3,0.1,0.3,0.1C28.6,49.8,28.5,49.7,28.4,49.7z"/>
				<path class="st4" d="M50.1,46.3c0,0-0.1,0-0.1,0C50.1,46.3,50.1,46.3,50.1,46.3z"/>
				<path class="st4" d="M45.2,36.1c-0.1,0.2,0,0.3,0.1,0.5c0.1,0.1,0,0.1,0,0.1c0,0,0.6,0,0.5,0.2c-0.1,0.2-0.3,0.3-0.5,0.4
					c-0.1,0.1-0.2,0.4,0,0.5c0.1-0.1,0.1-0.4,0.3-0.4c0.2,0.3-0.2,0.4,0,0.6c0.1,0.2,0.2,0.1,0.3,0c0.2,0.3-0.1,0.4,0.1,0.6
					c0.2,0.2,0.1,0.1,0.2,0.3c0.1,0.3,0.4,0.2,0.5,0.1c0.1-0.1,0.2-0.2,0.4,0c-0.1,0.1-0.2,0.3-0.3,0.4c-0.1,0.2,0.3,0.1,0.4,0.1
					c0.2,0,0.4,0.2,0.6,0.2c0.1,0,0.5,0,0.4,0c0,0,0.1,0.1,0.1,0.2c0,0.1,0.1,0.2,0.1,0.2c0,0.1,0,0.2,0.2-0.1c0.1-0.1,0.1,0,0.1,0
					c0,0,0,0.1,0,0.1c0,0,0.1,0,0.1,0c0.2,0.1,0,0.2-0.2,0.3c0,0,0,0.1,0,0.2c0,0.1,0.1,0.1,0.1,0.1c0.1,0,0.3,0,0.4,0
					c-0.1,0-0.1,0.1-0.3,0.2c-0.1,0-0.1,0.1-0.2,0.1c-0.1,0.3,0,0.8-0.1,1.1c0,0.3-0.1,0.8-0.1,1c0,0.2,0.4,0,0.5,0
					c-0.1,0-0.1,0.2-0.2,0.2c-0.1,0-0.1,0.1-0.2,0.1c-0.1,0,0,0.3,0,0.3c0-0.2,0.1,0.2,0.1,0.2c0,0.2-0.1,0.5,0,0.7
					c0,0.2,0.4,0.2,0.3,0.5c-0.1,0.3-0.5,0.7-0.4,1.1c0.1,0.2,0.5,0.4,0.1,0.5c0,0.1,0.1,0.1,0.2,0.1c-0.3,0.1-0.4,0.3-0.4,0.6
					c0,0.1,0,0.4,0,0.5c0,0,0,0.1,0,0.1c0,0,0,0.1,0,0.2c0,0-0.1,0.1,0,0.2c0,0-0.1,0-0.2-0.1c-0.1,0-0.1,0-0.4,0
					c-0.4,0-0.7-0.1-1.1-0.1c-0.1,0-0.4,0-0.4,0.1c0.1,0.1,0,0.2-0.2,0.2c-0.1,0-0.3,0-0.4-0.2c-0.2,0-0.4,0.1-0.5,0
					c-0.1,0-0.3-0.3-0.3-0.1c0,0.1-0.1,0.2-0.3,0.3c0-0.1,0-0.3,0-0.3c-0.1-0.1-0.7,0.2-0.8,0.2c-0.2,0-0.4-0.1-0.6-0.1
					c-0.2,0-0.6-0.2-0.7,0c0,0.2-0.1,0.3-0.1,0.4c-0.1-0.1-0.3-0.3-0.4-0.4c-0.3-0.2-0.1,0.4-0.1,0.4c-0.3,0-0.2-0.5-0.4-0.6
					c-0.2-0.2-0.4,0.1-0.6,0.1c-0.2,0-0.7-0.1-0.7,0l0,0.1c-0.1,0-0.2,0.1-0.2,0.1c0,0,0,0.3,0,0.3c-0.1,0-0.2-0.6-0.4-0.7
					c-0.3-0.1-0.7,0-1,0c-0.3,0-1.2-0.2-1.3,0.2c-0.1-0.3-0.9-0.1-1.1-0.1c-0.1,0-0.4-0.2-0.4-0.1c-0.2,0.1,0.2,0.3,0.2,0.4
					c-0.1,0.3-0.8-0.4-1-0.4c0,0,0,0.8-0.1,0.7c-0.1-0.1,0-1-0.5-0.7c-0.3,0.1-0.7,0-0.9,0.2c-0.2,0.1-0.6,0.3-0.8,0.2
					c0-0.2-0.6-0.4-0.6-0.2c0-0.6-1.1-0.3-0.9,0.2c-0.1-0.1-0.2-0.3-0.3-0.4c-0.1-0.2-0.4-0.1-0.6-0.1c-0.2,0-0.8-0.1-0.7,0.2
					c-0.2-0.1-0.5-0.1-0.7-0.1c-0.4,0-0.4,0.1-0.4,0.4c-0.2,0-0.3-0.4-0.4-0.5c0,0.1-0.1,0.2-0.3,0.3c0-0.5-0.5-0.3-0.8-0.3
					c-0.2,0-0.5,0.5-0.5,0.7c-0.1,0.2,0,0.4-0.1,0.5c-0.1,0.1-0.2,0-0.2-0.1c0-0.2,0-0.4,0.1-0.7c0,0,0.1-0.4,0-0.3
					c-0.1,0-0.2,0.1-0.3,0.1c0-0.1,0-0.1,0-0.1c-0.1,0-0.3,0-0.3,0.1c0,0.1,0.2,0.8,0.1,0.8c-0.2-0.1-0.6-0.7-0.8-0.2
					c0.2,0.2,0,0.4,0.2,0.6c0.1,0.1,0.6-0.3,0.7-0.1c0,0.1-0.1,0.3,0.1,0.4c0,0.2,0.4,0,0.5,0c0.3,0,0.3-0.4,0.4-0.6
					c0-0.1,0.1-0.3,0.2-0.3c0.1,0,0.4-0.1,0.4,0c0,0.1-0.3,0.2-0.4,0.3c-0.1,0.1-0.1,0.3-0.1,0.4c0-0.3,0.4-0.2,0.5-0.3
					c0.3,0,0.2,0.1,0.3,0.2c0.1,0.1,0.4,0,0.5,0c0.2,0,0.1,0.1,0.2,0.2c0.1,0.1,0.4,0.1,0.5,0.2c0.1,0,0.8,0.2,0.7,0
					c-0.1-0.3,0-0.4,0.4-0.3c0.2,0,0.2,0.4,0.4,0.2c0.2-0.2,0.4,0.2,0.5,0c0.1-0.1,0-0.8,0-0.8c0.2,0,0.2,0.4,0.2,0.5
					c0.1,0.2,0.4,0.1,0.4,0.3c-0.1,0,0,0.1,0,0.1c0.1,0,0.1-0.1,0.1-0.1c0-0.2,0.3-0.1,0.4-0.1c0,0-0.3-0.4,0-0.3
					c0.4,0.1,0.2,0.5,0.3,0.6c0.3,0.1,0.5-0.1,0.5-0.3c0-0.2,0-0.1,0.3-0.2c0,0,0.4,0.1,0.3,0c-0.1-0.2-0.2-0.3,0.2-0.1
					c0.3,0.2-0.3,0.2-0.2,0.5c0.3-0.1,0.3,0.2,0.6,0c0.2-0.1,0.7,0,0.6-0.3c0,0.2,0.2,0.2,0.3,0.1c0.1-0.1,0.1-0.3,0.2-0.4
					c0.1-0.3,0.3,0.2,0.3,0.2c0,0.1,0.1,0.5,0.4,0.4c0.1-0.1,0.5-0.3,0.5,0.1c0-0.2,0-0.9,0.5-0.6c0.2,0.1,0.1,0.7,0.5,0.5
					c0.1,0,0.3-0.3,0.4-0.3c0.1,0.1,0.1,0.3,0.2,0.3c0.1,0.1,0.2-0.1,0.4-0.1c0.2,0,0-0.2,0.2-0.3c0.2-0.1,0.4,0,0.6-0.2
					c0,0,0.3-0.3,0.3-0.1c0.2,0.1,0.5,0.2,0.7,0.2c0.2,0,0.3-0.1,0.5-0.2c0.2-0.1-0.1,0.6,0.1,0.7c0.2,0.1,0.2-0.3,0.2-0.3
					c0-0.1,0.2-0.2,0.2-0.1c0-0.1-0.1-0.5-0.1-0.4c0.3,0,0.2,0.7,0.2,0.9c0.3,0,0-0.4,0.4-0.4c-0.1,0.4,0.4,0.1,0.5,0.2
					c0.1,0.1,0,0.2,0.2,0.3c0.1,0,0.2,0,0.3-0.1c0.2-0.1,0.4,0,0.6,0l0.8,0c-0.1-0.1-0.2-0.3,0-0.4c0.2-0.1,0.3,0.2,0.4,0.3
					c0,0.2,0.4,0.3,0.5,0.2c0.2-0.1-0.2-0.3-0.3-0.3c-0.1-0.1,0.7-0.3,0.7,0c0,0.5,0.5-0.4,0.6-0.4c0,0.1,0,0.4,0.2,0.4
					c0.1,0,0.8-0.2,0.6,0c0.1,0,0.5-0.2,0.5,0c0,0.1,0.3,0.3,0.3,0.2c0-0.2-0.4-0.5-0.6-0.6c-0.1,0,0.2-0.2,0.2-0.2
					c0.2,0,0.3,0.2,0.3,0.3l0.3,0.5c0.1-0.1,0.2-0.2,0.3-0.3c0.1-0.3,0.1-0.1,0.4,0.1c0.3,0.2,0.7,0.1,0.9,0.1
					c-0.1-0.4-0.2-0.7,0.1-0.8c0.1,0-0.4-0.5-0.2-0.5c0,0,0.5-0.1,0.3-0.3c-0.1-0.1-0.4,0.1-0.4-0.2c0-0.1,0.2-0.3,0.2-0.3
					c0,0-0.2,0.3,0,0.2c0.1,0,0.2-0.4,0.2-0.5c0-0.1,0-0.4-0.1-0.3c-0.1,0.1-0.4,0.2-0.4,0.4c-0.1,0.1-0.2,0-0.3,0
					c-0.1-0.1,0.1-0.3,0.1-0.4c0.2-0.2,0.4-0.4,0.6-0.5c-0.1,0-0.2,0-0.2-0.1c0-0.1,0.2-0.2,0.3-0.2c0.1-0.2,0-0.5-0.1-0.7
					c-0.1-0.2-0.2-0.4-0.3-0.6c-0.1,0-0.3-0.1-0.2-0.2c0.1-0.1,0.6,0,0.6,0c0-0.1-0.4-0.2-0.4-0.3c0,0.1,0.2-0.1,0.3-0.2
					c0-0.1,0.1-0.4-0.1-0.4c-0.1-0.1-0.1-0.7-0.3-0.7c-0.1-0.5,0.2-0.3,0.3-0.6c0.1-0.3-0.3-0.3-0.3,0c0-0.3-0.3-0.7-0.6-0.7
					c0.2,0,0.3,0.1,0.5,0c0.1,0,0.2-0.1,0.3-0.1c-0.3,0-0.3-0.3-0.3-0.7c0-0.4,0.3-0.4,0.4-0.8c-0.2,0-0.2-1-0.2-1.1c0,0,0,0,0,0
					c-0.3,0.1-0.5,0.3-0.6,0.2c0,0-0.3-0.2-0.5-0.4c-0.2-0.2-0.4-0.3-0.5-0.1c-0.1-0.1-0.2-0.5-0.4-0.4c-0.2,0.1-0.3,0.2-0.5,0.2
					c0.2-0.1,0.3-0.2,0.5-0.4c-0.3,0.1-0.6,0.1-0.9,0.1c0.1,0,0.5-0.3,0.5-0.3c-0.3-0.1-0.6,0.2-0.7,0.4c-0.2-0.2,0.3-0.5,0.3-0.6
					c0.2-0.2-0.1-0.1-0.1-0.3c0-0.1,0.2-0.1,0-0.2c-0.1-0.1-0.3,0-0.3-0.2c0-0.1-0.1-0.3-0.1-0.4c0-0.1,0.2-0.6,0.1-0.7
					c0,0-0.4,0-0.4,0c-0.3,0-0.4,0-0.3-0.3c0-0.1-0.2-0.2-0.2-0.3C45.6,35.7,45.3,36,45.2,36.1z"/>
				<path class="st4" d="M49.9,41.6c0,0,0.1,0,0.1,0C49.9,41.6,49.9,41.6,49.9,41.6z"/>
				<path class="st4" d="M23.4,49.4c-0.2,0-0.4-0.1-0.3,0.1c0.1,0.2,0.5,0.1,0.7,0.1L23.4,49.4C23.4,49.4,23.4,49.4,23.4,49.4z"/>
				<path class="st4" d="M24.6,48.3c-0.3-0.2-0.3,0.1-0.5,0c-0.4-0.1-0.7,0.2-1.1,0.3c0-0.2-0.2-0.3-0.4-0.2
					c-0.2,0.1-0.2,0.3-0.4,0.4c0.3-0.3-0.7-0.8-0.3-0.3c0.2,0.2-0.2,0.2-0.4,0c-0.2-0.2-0.1-0.3-0.5-0.3c-0.4-0.2,0,0.5,0,0.6
					c0.1,0.1-0.2,0.8,0.1,0.9c0.2,0,0.2-0.2,0.5-0.1c0.1,0.1,0.3,0.3,0.4,0.2c0-0.1-0.2-0.4-0.1-0.5c0-0.1,0.1-0.1,0.1-0.2
					c0,0.2,0.2,0.5,0.4,0.3c0.1-0.1,0.2-0.5,0.2-0.6l0.1,0.7c0.2,0,0-0.3,0.2-0.4c0.2-0.1,0.4,0,0.6,0.1c0.3,0,0.6-0.1,0.8,0.1
					c0.1,0,0.3,0.3,0.3,0.2c-0.1,0-0.1-0.4-0.1-0.4c0.3,0,0.3,0.2,0.3,0.4c0-0.1,0.2-0.3,0.3-0.3c0.2-0.1,0.2-0.1,0.1-0.3
					C25.1,48.7,24.8,48.4,24.6,48.3z"/>
				<path class="st4" d="M21.1,48.2C21.3,48.1,20.8,48.1,21.1,48.2L21.1,48.2z"/>
				<path class="st4" d="M20.5,48.3c-0.3-0.3-0.2,0.4-0.2,0.5c0-0.1-0.2-0.8-0.4-0.6c-0.1,0.1,0.1,0.4-0.2,0.4c-0.2,0-0.4,0.1-0.5,0
					c-0.1,0,0-0.1,0-0.2c-0.1-0.2-0.4-0.2-0.4,0c-0.2-0.2-0.3,0.3-0.6,0.1c-0.1-0.1,0-0.3,0.1-0.4c-0.4,0-0.4,0.4-0.5,0.6
					c-0.1-0.2-0.2-0.4-0.2-0.6c-0.1,0.2-0.4,0.7-0.6,0.8c0-0.2-0.1-0.7-0.5-0.5c-0.2,0.1,0.5,0.4,0.2,0.5c-0.4,0.2-0.2-0.5-0.4-0.4
					c-0.1,0-0.2,0.3-0.4,0.1c0,0-0.1-0.2-0.1-0.2c-0.1,0.1-0.1,0.2-0.1,0.3c0-0.3-0.1-0.4-0.4-0.5c-0.1-0.1-0.2,0.1-0.2,0.2
					c-0.1-0.2-0.2-0.3-0.4-0.3c-0.2,0-0.3,0.2-0.4,0.2c-0.1,0.1-0.3,0.2-0.5,0.2c-0.1,0-0.1-0.3-0.1-0.3c-0.2,0-0.3,0.2-0.4,0.3
					c0,0.1,0,0.1,0,0.1c-0.1,0.4,0.2,0.6,0.2,1c0.1,0.4,0.4,0.2,0.7,0.2c0.2,0,0.8,0.2,0.9,0c0.2-0.2,0-0.4-0.2-0.5
					c0.1,0,0.5-0.6,0.4-0.6c0,0.1-0.1,0.3-0.1,0.4c0,0.1,0.1,0.2,0.1,0.2c0,0.1-0.3,0.5,0,0.5c0.3,0,1.3,0.3,1.3-0.2
					c0,0.1,0.5,0,0.6,0c0.2,0,0.3,0.2,0.5,0.2c0.2,0,0.5,0,0.7-0.1c0.4-0.2,0.3,0.2,0.6,0.1c-0.1-0.3-0.3-0.3-0.1-0.5
					c0.1-0.1,0.3-0.5,0.5-0.3c0.3,0.3-0.1,0.6-0.1,0.8c0.2,0,0.9,0.1,0.9-0.1c0.1-0.2-0.1-0.6,0-0.7C21,48.7,20.8,48.5,20.5,48.3z"
					/>
				<path class="st4" d="M13.2,49.5c-0.2,0.1-0.1,0.2,0.2,0.2C13.6,49.7,13.4,49.4,13.2,49.5z"/>
				<path class="st4" d="M12.3,48.5l-0.1,0C11.9,48.7,12.3,48.9,12.3,48.5z"/>
				<path class="st4" d="M12.1,49.2c-0.1-0.3-0.3-0.6-0.3-0.9c-0.2,0-0.6,0.2-0.6,0.4c-0.1,0.2,0.5,0,0.4,0
					c-0.1,0.1-0.4,0.2-0.6,0.1c-0.1-0.1,0-0.4-0.2-0.5c-0.8-0.3,0,0.5-0.2,0.5c-0.2,0.1-0.4-0.5-0.6-0.6c-0.4-0.1-0.5-0.1-0.4,0.2
					c-0.3,0-0.3-0.2-0.6-0.3c-0.2-0.1-0.6,0-0.5,0.2c0-0.1-0.1-0.2-0.2-0.2c-0.1,0-0.1,0-0.2,0c0,0-0.1,0-0.1,0l0,0
					c-0.1,0-0.3,0.1-0.3,0.1c0,0,0,0,0,0c-0.1,0.1-0.4,0.6-0.4,0.8c-0.1,0.2,0.2,0.2,0.2,0.3c0,0,0,0.5,0.3,0.3
					c0.1-0.1-0.1-0.2,0.2-0.2c0.1,0,0.2,0,0.3,0c0.2,0,0.1-0.3,0.3-0.4c0.4-0.3,0,0.6,0,0.6c0,0.1,0.4-0.3,0.5-0.2
					c0.2,0.2,0.2,0.4,0.5,0.4c0.1,0,0.6-0.2,0.4-0.3c0,0-0.4,0.1-0.4,0.1c0.1-0.2,0.7-0.2,0.9-0.1c0.1,0,0,0.1,0,0.1
					c-0.2,0.1-0.1,0.1-0.1,0.3c0.2-0.1,0.3-0.3,0.4-0.5c0,0.1,0,0.6,0.2,0.5c0.1-0.1,0.1-0.3,0.3-0.4c0.1,0,0.1,0.1,0.2,0.1
					c0.3,0.1,0.1-0.6,0.4,0c0.2,0.3,0.4,0.3,0.7,0.1c0.3-0.3,0.4,0.4,0.5,0.1c0.2-0.3,0.3-0.7,0.3-1.1C13.2,48,12.2,49,12.1,49.2z"
					/>
				<path class="st4" d="M7.6,48.3C7.5,48.3,7.5,48.3,7.6,48.3C7.6,48.3,7.6,48.2,7.6,48.3z"/>
				<path class="st4" d="M6.4,41.9c0-0.2-0.3-0.4-0.4-0.1C6,42,6.4,42.2,6.4,41.9z"/>
				<path class="st4" d="M6.1,39.2c-0.1,0.5,0.1,0.8,0.1,0.2C6.2,39.3,6.2,39.2,6.1,39.2z"/>
				<path class="st4" d="M6.8,49.2c0-0.1,0.2-0.2,0.2-0.3c0-0.1-0.4,0.2-0.2-0.1c0,0,0.1-0.1,0.1-0.1c0.1-0.2,0.5-0.6,0.3-0.5
					c-0.1,0-0.3,0.1-0.5,0.1C7,48.3,7.3,48.1,7.4,48c0-0.1,0-0.1-0.1-0.2c0-0.1,0-0.3,0.1-0.3c-0.2,0-0.4,0-0.4-0.2
					c0.1,0,0.5,0,0.5-0.2c0,0-0.3-0.3-0.4-0.4c-0.3-0.5,0.3-0.1,0.4-0.3c0-0.1-0.2-0.4-0.2-0.5c0-0.1-0.3-0.1-0.4-0.1
					c0-0.3,0.4-0.1,0.4-0.1c0.1,0,0-0.4,0.1-0.4c0.2-0.1,0.1-0.1,0-0.3c-0.1-0.1-0.1-0.3,0-0.5c0-0.1,0.3-0.3,0.2-0.3
					c-0.1,0-0.3,0.1-0.4-0.1c0-0.1,0.1-0.2,0.2-0.2c0.4,0-0.1-0.4-0.2-0.3c0-0.1,0.3-0.2,0.3-0.4c0-0.3-0.2,0-0.3-0.1
					c-0.1-0.1,0.3-0.5,0.3-0.5c0.1-0.1-0.2-0.2-0.2-0.4c-0.1-0.3-0.2-0.5-0.4-0.8c-0.1-0.1-0.3-0.3-0.2-0.4c0.1-0.1,0.5-0.3,0.5-0.4
					c0-0.2,0.2-0.3,0.3-0.3c0.1,0,0,0-0.1-0.1c-0.1-0.1-0.2-0.2,0.1,0c-0.1-0.1-0.2-0.2-0.2-0.2c-0.1-0.1-0.1-0.2,0.1-0.1
					c0.1,0,0.2,0.1,0.3,0.2c0.1,0.1,0.1,0.2,0.2,0.1c0.1,0-0.1-0.2-0.2-0.3c-0.1-0.2-0.3-0.3-0.3-0.3c-0.3-0.3-0.1-0.5,0-0.8
					c0.1-0.2-1,0-1.1,0c-0.1,0-0.1,0-0.1,0c0,0.1,0.1,0.1,0.1,0.1c0.2,0.1,0.6,0.3,0.6,0.3c0-0.1,0-0.2-0.1-0.3
					C6.9,39.1,7,39.3,7,39.4c0,0.1-0.1,0.1-0.2,0c-0.1-0.1-0.2-0.1-0.2-0.1c-0.2-0.1-0.5,0.1-0.1,0.4c0.1,0.1,0.5,0.3,0.5,0.4
					c-0.1,0.2-0.5,0-0.7-0.1c-0.1,0-0.1,0.2-0.1,0.3c0,0.1,0,0.3,0,0.3c0,0.5-0.1,0.9,0.4,0.8c-0.2,0.2,0.1,0.2,0.1,0.5
					c0,0.1-0.3,0.1-0.3,0.2c0,0.1,0.7,0.1,0.4,0.5c-0.1,0.1-0.3,0.4-0.4,0.3c-0.1-0.1,0.1-0.3,0.2-0.4c0.1-0.1-0.1-0.2-0.2-0.2
					c-0.2,0-0.1-0.1-0.1-0.3c-0.2,0-0.3,0.6-0.1,0.5C6.2,43,6,43.1,6,43.4c0,0.2,0.2,0.5,0.4,0.4c0.1-0.1,0.2-0.2,0.3-0.2
					c0.1,0,0.5,0.5,0.3,0.5c-0.2,0-0.4,0.1-0.5,0.2c-0.2,0.1-0.3,0.2-0.3,0.4C6.3,44.9,6,45,6,45.2c0-0.3,1.7,0.1,0.3,0.2
					c-0.3,0-0.3,0.3-0.2,0.5c0.1,0.1,0.6,0.3,0.6,0.3C6.7,46.2,6,46,6,46.3c0.2,0,0.8-0.2,0.8,0.1c0,0.3-0.6,0.1-0.7,0.3
					c-0.1,0.1,0,0.3,0,0.4c0,0.2-0.1,0.1-0.2,0.2c0,0.1,0.1,0.3,0.2,0.5c0.1,0.2,0.2,0.4,0.2,0.4c-0.1,0.1-0.2-0.2-0.3,0.1
					c0,0.1,0,0.3,0.1,0.4c0.1,0.1,0.5,0.2,0.5,0.3c0,0.2-0.3,0.5-0.5,0.7c0,0,0,0.1,0,0.1c0.2,0.2,0.6-0.1,0.7-0.2
					C6.9,49.3,6.7,49.4,6.8,49.2z"/>
				<path class="st4" d="M7.6,39.4c0,0.2,0.4,0.4,0.6,0.2c0,0,0,0,0-0.1L7.9,39c0,0.1,0,0.2,0,0.3C8,39.2,7.4,39,7.6,39.4z"/>
				<path class="st4" d="M8.6,38.2c0-0.1-0.1-0.4-0.2-0.3C8.3,38.1,8.5,38.4,8.6,38.2z"/>
				<path class="st4" d="M8.8,39.9c0,0,0.1-0.3,0.2-0.3c0.2-0.2,0.4-0.1,0.6-0.3c0.2-0.2,0.3-0.4,0.3-0.6c0-0.1-0.1-0.2-0.1-0.2
					c0,0,0.4,0,0.4-0.1c0-0.2-0.3-0.4-0.4-0.5l-0.7-0.5c-0.1,0.1,0.3,0.6,0.2,0.6c-0.1,0.1-0.4-0.6-0.5-0.4c0.4,0.3,0,0.3,0,0.5
					c0,0.2,0.6,0.3,0.1,0.6c-0.4,0.2-0.2-0.2-0.2-0.4c0-0.2-0.5-0.2-0.6-0.3c-0.1,0.1,0.1,0.7,0.1,0.8c0.1,0.2,0.4,0.7-0.1,0.9
					C8.5,39.8,8.6,39.8,8.8,39.9z"/>
				<path class="st4" d="M10.8,37.9c0.2-0.2,0.3-0.6,0.2-0.9c-0.1-0.2-0.3-0.2-0.4-0.4c-0.1-0.1,0.7-0.3,0.7-0.5
					c0.1-0.2,0-0.4,0-0.6c0-0.4-0.1-0.6-0.1-0.9c-0.1-0.4,0-0.8-0.4-1c-0.1,0-0.9,0.3-0.9-0.1c0,0,0.3,0,0.3-0.1
					c0.1-0.1,0.1-0.2,0.1-0.3c0-0.5-0.4-1-0.8-1.3c-0.1-0.1-0.5-0.4-0.7-0.4c-0.3,0,0.2,0.3,0.2,0.3c0.1,0-0.3,0.2-0.3,0.2
					c-0.1,0.1-0.3,0.3-0.4,0.5c-0.1,0.2,0.2,0.2,0.2,0.3c-0.1,0.2-0.1,0.2,0.1,0.3c0.3,0.2,0.4,0.3,0.7,0.1c0.1-0.1,0.3-0.3,0-0.4
					c-0.2,0,0.1-0.2,0.2-0.2c0.1,0,0.5,0,0.5,0.1c0,0.1-0.3,0.1-0.3,0.1c-0.1,0.1-0.2,0.3-0.2,0.4c0,0,0.1,0.8-0.2,0.6
					c0,0,0-0.2-0.1-0.2c-0.1,0,0.1,0.8,0.4,0.4c0.2-0.1,0.1,0.1,0.2,0.2c0.2,0.2,0.1,0,0.2,0c0,0-0.3,0.5-0.3,0.6
					c-0.1,0.2,0,0.5,0,0.7c-0.2,0.5,0.5,0.1,0.7,0.1c0.1,0,0,0.2,0,0.2c0,0.1-0.2,0.1-0.2,0.1c-0.2,0-0.5,0.1-0.4,0.3
					c0.1,0.2,0.3,0.4,0.4,0.7c-0.1,0.3,0.1,0.3,0.1,0.6c0,0.1-0.4-0.5-0.4-0.5C9.9,37,9.7,36.9,9.5,37c-0.2,0.2-0.1,0.4,0.2,0.4
					c0.1,0,0.3-0.1,0.4,0c0.1,0,0,0.2-0.1,0.2C9.8,38,10.5,38.3,10.8,37.9z"/>
				<path class="st4" d="M7.6,31.1C7.8,30.9,7.3,31.4,7.6,31.1L7.6,31.1z"/>
				<path class="st4" d="M7.8,31.3c-0.2-0.1,0.1-0.2,0-0.3c0,0-0.1-0.1-0.1-0.1c0,0,0,0,0,0c0,0-0.1,0.1-0.1,0.1
					c0,0.1-1,0.8-0.4,0.8c-0.1,0.2-0.2,0.3-0.5,0.2c-0.1,0.1,0.2,0.1,0.5,0.1c0.3,0,0.4,0,0.5,0c0.4,0,0.8-0.1,1-0.5
					C9,31.1,8.3,31.5,7.8,31.3z"/>
				<path class="st4" d="M7.6,28c0.1,0,0.1,0,0.1-0.1l0-0.1C7.6,27.7,7.6,27.8,7.6,28z"/>
				<path class="st4" d="M6.9,23.8C6.9,23.8,6.9,23.8,6.9,23.8c-0.1-0.1-0.2-0.1-0.2-0.1c-0.1-0.1-0.3-0.2-0.2,0.1
					C6.5,24,7,24,7.1,23.9C7.1,23.9,7,23.8,6.9,23.8z"/>
				<path class="st4" d="M6.9,23.8c0.1,0-0.2-0.1-0.2-0.1C6.8,23.8,6.8,23.8,6.9,23.8C6.9,23.8,6.9,23.8,6.9,23.8z"/>
				<path class="st4" d="M6.2,23.8c0-0.2,0.1-0.4,0.1-0.6C6,22.6,6.2,23.6,6.2,23.8z"/>
				<path class="st4" d="M6.7,31.9c-0.1,0-0.2-0.1-0.2-0.1c0-0.2,0.3-0.4,0.2-0.5c0-0.1-0.2-0.2-0.3-0.3c0,0-0.1-0.4,0-0.3
					c-0.1-0.1-0.2-0.1-0.3-0.1c0.2,0,0.4-0.1,0.6-0.2c-0.2-0.2-0.6-0.4-0.5-0.7c0.1-0.2,0.5-0.3,0.6-0.1c0,0,0.1,0.1,0.1,0
					c0.1-0.1,0-0.2-0.1-0.3c-0.1-0.1-0.3-0.3-0.4-0.3c-0.2,0-0.4-0.1-0.4-0.4c0-0.2,0.4-0.1,0.6-0.3c0.1-0.1-0.1-0.3-0.2-0.4
					c-0.1,0.1-0.2,0.2-0.3,0.2c-0.3-0.1-0.2-0.4,0-0.4c-0.1,0-0.2-0.1-0.2-0.2c0-0.1,0.3-0.2,0.4-0.2c0.4-0.1,0.7-0.1,1.1-0.1
					c-0.3,0-0.5-0.4-0.8-0.3c-0.1,0-0.2,0.2-0.4,0.2c-0.1,0,0.1-0.3,0.1-0.3c0.2-0.2,0.7-0.2,0.6-0.5c-0.1-0.2-0.6,0.4-0.6,0.4
					c-0.4,0.4-0.2-0.2-0.3-0.4c0-0.2-0.2-0.4-0.1-0.6c0.1-0.1,0.3-0.1,0.4-0.1c0.1,0,0.6-0.2,0.6-0.4c0-0.1-0.7,0.1-0.7,0
					c0,0,0.2-0.1,0.1-0.2c-0.1-0.1-0.3,0.1-0.4,0c-0.4-0.1,0-0.4,0.2-0.4c-0.2,0-0.5-0.1-0.2-0.3C6.4,24.2,7,24,7.3,24.1
					c0,0-0.2-0.3-0.2-0.3c-0.1-0.1-0.3-0.2-0.5-0.4c-0.2,0.1-0.2-0.1-0.1-0.2C6.6,23.1,6.8,23,6.8,23c0,0-0.5,0-0.3-0.3
					c0-0.1,0-0.2-0.1-0.4c0-0.1,0.1-0.1,0.2-0.1c0.2,0,0.5,0.3,0.6,0.2c-0.2,0-0.7-0.8,0.1-0.5c0.4,0.2,0.5,0.7,0.6,0.9l0.2-0.4
					c0.1-0.1,0.2-0.3,0.2-0.4c0,0-0.2,0-0.3,0c-0.3-0.2,0.7-0.1,0.7-0.1c0.1,0,0.6-0.1,0.5,0.1C9,22.8,10,21.8,10.3,22
					c0.2,0.1,0.1,0.5,0.1,0.7c0,0.3,0.1,0.7-0.2,0.8c-0.3,0.1-0.3,0-0.3-0.2c0-0.2-0.5-0.3-0.4-0.4c-0.2,0.2-0.2,0.4-0.2,0.7
					c0-0.1-0.1-1.1-0.3-0.8c-0.1,0.2-0.1,0.6-0.3,0.7c-0.2,0.1-0.8,0.3-0.8-0.1c0,0.3-0.1,0.1-0.2,0c0,0-0.4-0.4-0.2-0.2
					c0.1,0.2,0.3,0.4,0.1,0.3c0,0,0,0,0,0c-0.1,0,0.1,0.1,0.1,0.2c-0.1,0-0.1,0-0.1,0c0,0,0,0,0,0.1c0,0,0,0,0,0.1
					c0,0.3,0.1,0.7,0.1,0.9c0,0.2,0,0.4-0.1,0.5c-0.1,0.1-0.3,0-0.3-0.1c0,0.1,0.3,0.3,0.3,0.4c0.1,0.2,0,0.4-0.1,0.6
					c-0.4,0.3,0,0.2,0.1,0.3c0.1,0.1,0.1,0.2,0,0.3c0,0.1-0.2,0-0.2,0c0,0,0.3,0.4,0.2,0.5c-0.1,0.3-0.4,0.6-0.5,0.8
					c-0.2,0.4,0.3,0.1,0.5,0.1c0.3,0-0.1,0.5,0.1,0.5c-0.4,0,0.1,0.8-0.1,0.8c-0.2,0-0.4-0.1-0.5,0.2l-0.2,0.4
					c0.2-0.1,0.4-0.1,0.6-0.2c0,0,0.2-0.2,0.2-0.1c0,0.1,0,0.2-0.1,0.2c0,0.1,0.1,0.4,0,0.4c-0.1,0-0.1,0-0.2,0.1c0,0,0,0.1,0,0.1
					c0,0,0.2,0,0,0.1c0.1,0.1,0,0.1,0.3-0.1c0,0-0.1,0.1-0.1,0.2c0,0.1-0.1,0.1-0.3,0.3c-0.2,0.2-0.1,0.3-0.4,0.4l-0.2,0.2
					C6.8,31.8,6.8,31.8,6.7,31.9z M7,28.1c0.1-0.2-0.2-0.3-0.3-0.3c-0.1,0-0.1,0-0.2,0.1C6.7,28,6.9,28.3,7,28.1z"/>
				<path class="st4" d="M12.6,23c0,0.1,0,0.3,0.2,0.3C13,23.3,12.7,22.7,12.6,23z"/>
				<path class="st4" d="M11.7,23.4c0.1-0.1,0.1-0.2,0.3-0.3c0.3-0.2,0.1,0.1,0.2,0.2c0,0.1,0.3,0.5,0.4,0.2c0.1-0.2,0-0.4,0-0.6
					c-0.5-0.4,0.3-0.3,0.3-0.2c0-0.1-0.1-0.2-0.1-0.4c0,0,0-0.1,0.1-0.1c0.1-0.1,0.2-0.3,0.1-0.4c-0.2-0.1-0.3,0.1-0.3,0.2
					c0,0,0,0.5-0.2,0.3c-0.1-0.1,0-0.4-0.2-0.5c-0.1-0.1-0.3,0-0.5,0c-0.3,0.1-0.5,0.1-0.8,0.1c-0.4,0.1-0.3,0.6-0.2,0.8
					C10.8,23.2,11.3,23.7,11.7,23.4z"/>
				<path class="st4" d="M12.8,22.2C12.8,22.3,12.7,22.3,12.8,22.2C12.7,22.4,12.9,22,12.8,22.2z"/>
				<path class="st4" d="M16.9,22.3c0.1-0.1,0.1-0.6-0.1-0.4C16.7,22,16.7,22.3,16.9,22.3z"/>
				<path class="st4" d="M17.8,22.5c0.3-0.2,0-0.7-0.2-0.6C17.3,22,17.5,22.7,17.8,22.5z"/>
				<path class="st4" d="M17.8,22.5C17.6,22.6,18,22.4,17.8,22.5L17.8,22.5z"/>
				<path class="st4" d="M31.2,22.1c0.3-0.3-0.1-0.5-0.3-0.2C30.9,22.1,31,22.3,31.2,22.1z"/>
				<path class="st4" d="M37.1,23.5l0.1,0C37.5,23.4,37.1,23.1,37.1,23.5z"/>
				<path class="st4" d="M13.1,23.6c0.1-0.1,0.6-0.4,0.5,0c-0.1,0.2,0.4,0.1,0.5,0.1c0.4,0,0.9,0,1.3-0.2c0.4-0.1,0.7,0.1,1.2,0.1
					c0.3,0,0.3-0.6,0.6-0.2c0,0.2,0.7,0,0.7,0.1c0,0.2,0.9,0.1,1.2,0.1c0.4,0,0.6,0.1,1,0.1c-0.1,0-0.3-0.1-0.2-0.2
					c0.1-0.1,0.4,0,0.5,0c0.2,0,0-0.1,0.2-0.1c0.1,0,0.3,0.1,0.3,0.2l-0.3,0c0.3,0.2,0.4,0.2,0.8,0.1c0.3-0.1,0.3,0.1,0.5,0.1
					c0.3,0,0.4-0.3,0.7-0.4c0.2-0.1,0.3,0.2,0.5,0.3c0.4,0.2,0.9-0.1,1.3-0.1c0.3,0,0.3,0.1,0.2-0.2c0-0.1,0.5,0.1,0.6,0
					c0.4,0,0.4-0.1,0.6,0.3c0.1,0.1,0.4-0.2,0.4-0.2c0.1-0.2,0-0.3,0.3-0.4c0.3,0.1,0.2-0.1,0.1-0.2c0-0.1-0.1-0.8,0.1-0.8
					c0.2,0,0.1,0.6,0.1,0.7c0,0.1,0,0.5-0.2,0.5c0,0.2,0.1,0.6,0.3,0.2c0.2,0.1,0.2,0.2,0.4,0.2c0.1-0.2,0.4-0.2,0.7-0.2
					c0.4,0,0.6,0.1,0.9,0c0.1,0,0.3-0.1,0.3-0.2c0,0.2,0.2,0.4,0.4,0.4c0,0,0-0.6,0-0.7c0,0.3,0.1,0.6,0.5,0.6c0.2,0,0.7,0,0.8-0.2
					c0.1,0.1,0.3,0.2,0.5,0.2c0.3,0,0.2-0.1,0.2-0.2c0,0,0.3,0.2,0.4,0.2c0.1,0,0.3-0.3,0.4-0.4c0-0.1,0.2-0.3,0-0.2
					c-0.2,0-0.2-0.1-0.3-0.1c0.3,0,0.5,0,0.7,0.2c0.2,0.1-0.1,0.3,0.1,0.4c0.2,0.1,0.3-0.3,0.4-0.3c0.1-0.1,0.3,0.2,0.4,0.2
					c0.3,0.2,0.8,0.3,0.9-0.1c0-0.1,0.8,0.1,0.6,0.2c0.1-0.1,0.1-0.3,0.2-0.3c0.2,0,0.3,0.1,0.5,0.2c0.2,0.1,0-0.3,0-0.4
					c0,0.1,0.3,0.1,0.3,0.3c0,0.1,0,0.4,0.2,0.4c0.1,0,0.1-0.1,0.1-0.1l0.3,0c0,0,0.1,0,0.1,0c0.2-0.2,0.3-0.4,0.4-0.6
					c0-0.1-0.1-0.3,0.1-0.3c0,0.2,0,0.4,0,0.6c0,0.2,0.1,0.1,0.2,0.1c0.1,0.1,0,0.3,0.1,0.3c0.1,0,0.3,0,0.3,0
					c0-0.1-0.3-0.3-0.2-0.4c0.1-0.1,0.3,0,0.3,0.1c0.2,0.3,0,0.3,0.5,0.3c0.6,0,0.4-0.5,0.2-0.8c-0.1-0.2-0.2-0.5-0.2-0.7
					c0-0.5-0.3,0.2-0.4,0.2c0,0,0-0.4,0-0.4c-0.2,0-0.1,0.2-0.3,0.3c-0.3,0.1-0.6,0.1-0.9,0.2c-0.1,0-0.5,0.2-0.5,0
					c0-0.1,0-0.4,0.1-0.4c-0.3,0-0.7,0-1,0.1c-0.3,0.1-0.1,0.5-0.1,0.7c0-0.2-0.3-0.1-0.4-0.1c-0.1,0-0.1-0.3-0.1-0.3
					c0-0.1-0.3-0.7-0.5-0.4c-0.1,0.2,0.1,0.4,0.2,0.6c0,0.1-0.4,0.3-0.4,0.2c0,0,0.1-0.2,0-0.3c-0.1,0-0.3,0.1-0.4,0
					c-0.1-0.1-0.1-0.2-0.1-0.3c0,0.2,0.2,1.2-0.4,1c-0.1-0.1,0-1.2-0.1-1.2c-0.3,0.1-0.2,0.6-0.3,0.7c0.1-0.1-0.3-0.5-0.4-0.5
					c-0.4-0.2,0.1,0.4,0.1,0.3c0,0.1-0.3,0.1-0.3,0.1c0,0.2-0.1,0.1-0.3,0.1c-0.1-0.1-0.2-0.6,0.1-0.5c0-0.2-0.3-0.5-0.5-0.3
					c-0.1,0.2,0.1,0.6-0.2,0.7c0,0,0.1-0.5-0.1-0.6c-0.4,0-0.3,0.5-0.3,0.7c-0.2,0-0.1-0.2-0.3-0.2c-0.2,0-0.3,0-0.5-0.1
					c-0.2-0.1-0.4-0.2-0.5-0.3C30,22,30,21.9,29.8,21.9c-0.1,0-0.3,0.1-0.4,0c0-0.1,0-0.1-0.1-0.1c-0.2,0-0.3,0.1-0.5,0.2
					c-0.1,0.1-0.5,0.3-0.6,0.2c0,0,0-0.3,0-0.3c0,0-0.3,0.5-0.2,0.5c-0.2-0.1-0.4,0.1-0.5,0.1c-0.2-0.1-0.1-0.4-0.1-0.6
					c0,0.1,0,0.2-0.1,0.3c0.2-0.2-0.6-0.3-0.7-0.3c-0.3,0-0.7-0.2-0.5,0.1c0,0.4-0.2,0.1-0.4,0.5c0,0.1-0.2,0.3-0.3,0.2
					c-0.1-0.1,0.1-0.2,0.1-0.2c-0.1-0.2-0.4,0.2-0.5,0c0-0.2,0.1-0.3-0.1-0.3c-0.1,0,0-0.2-0.3-0.2c-0.2,0.1-0.2,0.1-0.4,0
					c0,0.2-0.1,0.7,0.1,0.8c0.3,0.1,0.3,0.6-0.1,0.4c-0.3-0.5-0.2,0.2-0.5,0.2c-0.2,0-0.2-0.2-0.2-0.3c0-0.2,0.3-0.1,0.3-0.2
					c0,0-0.3-0.7-0.3-0.7c-0.1,0-0.1,0.5-0.3,0.3c-0.1-0.1-0.1-0.2-0.2-0.2c0,0.2-0.5,0.2-0.5,0.1c0-0.1,0-0.4-0.2-0.4
					c0,0.2-0.2,0.1-0.3,0.2c0,0.1,0,0.2,0.1,0.3c0.1,0,0.1,0,0.2,0.1c0,0.2-0.4,0.6-0.5,0.7c0-0.1-0.1-0.4-0.2-0.5
					c-0.3,0-0.2-0.2-0.3-0.2c-0.2,0-0.2,0.8-0.7,0.8c0.3,0,0.2-0.7,0.1-0.9c-0.1-0.3-0.3-0.1-0.2,0.1c0-0.2-0.1-0.8-0.3-0.4
					c-0.2,0.7-0.1-0.1-0.4,0.1c-0.4,0.2-0.1,0.4,0.2,0.4c0.3,0,0,0.5-0.1,0.6c-0.1-0.1-0.3-0.3-0.4-0.4c-0.1-0.2,0-0.3-0.1-0.5
					c-0.1-0.1-0.3-0.2-0.3-0.3l0,0.5c0,0-0.2-0.4-0.2-0.4c-0.1-0.1-0.3,0-0.4,0.1c0-0.1-0.7-0.2-0.7-0.2c-0.2,0.3,0.2,0.6,0.1,0.9
					c0,0.1-0.2,0.1-0.3,0.1c-0.1,0,0-0.2-0.1-0.2c-0.3-0.2-0.3,0.3-0.4,0.3c0,0-0.4,0.1-0.4,0c0-0.1,0.4-0.2,0.4-0.4
					c0-0.1-0.2-0.6-0.2-0.6c-0.1,0.1-0.2,0.7-0.2,0.8c-0.1,0.1-0.4,0-0.4-0.1c0-0.2-0.1-0.7-0.4-0.6c-0.1,0-0.3,0.1-0.4,0.1
					c-0.1,0,0-0.2,0-0.2c-0.2-0.1-0.5,0.4-0.6,0.5c-0.1,0-0.4-0.2-0.5-0.2c-0.1,0-0.3-0.3-0.4,0c0,0.2,0.1,0.5-0.3,0.5
					c0-0.3,0.1-0.9-0.3-0.7c-0.3,0,0,0.8-0.2,1c0,0-0.3-0.7-0.2-0.8c-0.2,0-0.2,0.7-0.3,0.9C12.9,23.3,12.6,23.8,13.1,23.6z"/>
				<path class="st4" d="M45.4,22c0.1-0.1,0.2-0.4,0-0.4C45.2,21.7,45.2,22,45.4,22z"/>
				<path class="st4" d="M47.7,23.4C47.6,23.5,48,23.3,47.7,23.4L47.7,23.4z"/>
				<path class="st4" d="M39.3,22.1c-0.2,0-0.2,0.5-0.1,0.5c0,0,0.6-0.1,0.3,0.1c-0.1,0.1-0.2,0-0.3,0.1c-0.1,0.2,0.1,0.5,0.3,0.6
					c0.3,0.1,0.7,0.1,1,0c0.1-0.1,0.2-0.6,0.5-0.3c0.1,0.1,0,0.3,0.1,0.4c0.1,0.1,0.4,0.1,0.5,0c0.3,0,0.2-0.2,0.4-0.2
					c0.2-0.1,0.3,0,0.5,0.1c0.2,0.1,1.2,0.3,1.1-0.1c0-0.1,0-0.5,0.1-0.3c0.1,0.1,0.1,0.3,0.1,0.4c-0.1-0.1,0.2-0.3,0.4,0
					c0.1,0.2,0.1-0.1,0.3-0.1c0.2,0,0.4,0.2,0.6,0.3c0.1,0,0.1-0.2,0.3-0.2c0.2,0.1,0.3,0.2,0.6,0.2c0.1,0,0.3-0.2,0.3-0.2
					c0.2,0,0.4,0.1,0.7,0.1c0.2,0,0.4,0.1,0.5,0c0.1,0,0.2-0.1,0.2-0.2c0,0-0.2,0.1-0.3,0c-0.1-0.1-0.2-0.2-0.3-0.3
					c-0.1-0.2-0.4-0.5-0.4-0.7c0-0.1-0.1-0.3-0.2-0.4c-0.1-0.1-0.2,0.3-0.2,0.3c-0.2,0.2-0.3-0.2-0.4-0.1c0,0-0.1,0.2-0.1,0.2
					c-0.1-0.1-0.2-0.3-0.4-0.3c0,0-0.3,0.7-0.5,0.8c-0.4,0.3-0.1-0.3-0.2-0.3c0,0-0.2,0.2-0.3,0.3c-0.1,0-0.2-0.1-0.2-0.2l-0.2-0.5
					c-0.1,0.1-0.5,0.5-0.5,0.5c-0.3-0.2,0.4-0.6,0.3-0.7c-0.1-0.1-0.8,0.4-0.9,0l0,0.5c-0.3,0-0.1-0.4-0.4-0.3
					c-0.2,0.1-0.3,0.1-0.2,0.3c-0.1,0.1-0.4,0-0.5,0c0.4,0,0.4-0.5,0-0.3c-0.1,0.1-0.2-0.2-0.3-0.2c-0.2,0-0.4,0.1-0.6,0.1
					c-0.1,0-0.6-0.4-0.6-0.1c0,0.1,0.1,0.4,0,0.4c-0.1,0.1-0.3-0.1-0.4,0c0,0,0.1,0.1,0.1,0.2c-0.1,0.1-0.6-0.4-0.6-0.5
					c0.2,0,0.6,0.3,0.5-0.1c0,0-0.5-0.1-0.6-0.1c-0.2,0-0.3,0.1-0.3-0.1c-0.1,0-0.1,0-0.2,0.1C38.7,22,39.2,22.1,39.3,22.1z"/>
				<path class="st4" d="M50,29.8C49.9,29.8,50,30,50,29.8L50,29.8z"/>
				<path class="st4" d="M47.8,22c0.1,0,0.3,0.1,0.4,0.2c0.1,0.1,0.2,0.2,0,0.2c-0.3-0.2-0.4,0.6-0.5,0.4c0-0.1-0.1-0.3-0.3-0.3
					c-0.1,0-0.2,0-0.2,0.1c0,0.4,0.6,0.4,0.8,0.5c0.1,0.1,0,0.5,0.3,0.5c0,0,0.1,0,0.2,0c0,0,0.3-0.2,0.3-0.1l0,0
					c-0.1,0.1-0.1,0.1,0.1,0c0,0,0.1,0.1,0,0.1c0,0,0.3-0.1,0.3,0c-0.1,0.1-0.3,0.1-0.4,0.2c0,0,0.1,0.1,0.2,0.1
					c0,0,0.1,0.1,0.2,0.1c0.1,0,0.1,0,0.1-0.1c0.3,0,0,0.1,0.1,0.2c0.1,0,0.4-0.1,0.4-0.1c0,0.3-0.5,0.2-0.6,0.3
					c-0.1,0.1-0.2,0.2-0.3,0.4c0,0.1-0.2,0.9-0.2,0.9c0,0,0.4-0.1,0.4-0.1c0,0.3-0.3,0.2-0.3,0.4c0,0.2,0.1,0.4,0.2,0.5
					c0.1,0.2,0.1,0.2-0.1,0.2c-0.2,0-0.1,0.3-0.1,0.4c0,0.1,0,0.5,0.1,0.5c0.1,0,0.3,0.1,0.2,0.2c-0.4,0.3-0.3,0.4,0.1,0.3
					c0,0.2-0.3,0.1-0.3,0.2c0,0.1-0.2,0.4-0.1,0.5c0,0.1,0.6-0.2,0.4,0.3c-0.1,0.2-0.3,0.1-0.3,0.4c0,0.2,0.3,0.1,0.4,0.4
					c0,0,0.4,0.2,0.4,0.2c0-0.1,0.1-0.6,0.3-0.6c0.2,0.1,0,0.6,0.2,0.6c0,0.1,0.3,0.1,0.4,0.1c-0.1,0-0.2,0-0.3-0.1
					c0.2,0.2,0.3-0.3,0.3-0.5c0-0.3-0.2-0.5-0.4-0.7c-0.1-0.2-0.5-0.2-0.3-0.4c0.3-0.2,0.1-0.4-0.1-0.4c0.1-0.1,0.3-0.3,0.3-0.4
					c0,0.2,0.2,0.6,0.2,0.2c0-0.2,0.1-0.4,0.1-0.5c0-0.2-0.8-0.1-0.6-0.4c0.2-0.3,0.9,0.1,0.6-0.6c-0.1-0.2-0.3-0.1-0.4-0.1
					c-0.2,0-0.2-0.2-0.4-0.1c0-0.2,0.4-0.2,0.5-0.2c0.1,0.1,0.3,0.1,0.4,0c0.1-0.1,0-0.2-0.1-0.2c-0.2,0-0.5,0.3-0.6-0.1
					c0-0.1,0-0.3,0.1-0.4c0,0.2,0.4,0.4,0.4,0.2c0,0-0.1-0.2,0-0.2c0.1,0,0.1-0.1,0.1-0.3c0-0.2,0.1-0.1,0.2-0.3
					c0-0.1-0.1-0.4-0.1-0.7c-0.1-0.5-0.2-0.9-0.2-0.7c0-0.1,0.1-0.1,0.2-0.2c0.1-0.2,0-0.5,0-0.7c0-0.2,0-0.3,0-0.5
					c-0.2,0-0.4-0.1-0.7,0c-0.3,0-0.6,0.4-0.7,0.3c0-0.1-0.5-0.3-0.5-0.1c0-0.1-0.1-0.1-0.3-0.1c-0.1,0-0.2,0-0.3,0
					c-0.2,0-0.4,0-0.5,0c-0.3-0.1-0.4,0.4-0.3,0.6C47.1,22.2,47.7,22,47.8,22z"/>
				<path class="st4" d="M50.5,29.9c0,0-0.1,0-0.1,0C50.5,29.9,50.5,29.9,50.5,29.9z"/>
				<path class="st4" d="M48.6,32.3l-0.1,0c0.1,0.1,0.1,0.1,0.3,0C48.8,32.2,48.7,32.2,48.6,32.3z"/>
				<path class="st4" d="M47.7,32.8C47.7,32.9,47.7,32.9,47.7,32.8C47.9,33.3,48,32.7,47.7,32.8z"/>
				<path class="st4" d="M48.6,30.1c0,0.1,0,0.2,0,0.3c0,0.1,0,0.2,0,0.2c0,0,0.2,0.2,0,0.1c0.1,0.1,0.2,0.3,0.1,0.2
					c-0.1-0.1-0.1-0.2-0.1-0.2c0,0,0,0-0.1,0.1c-0.1,0-0.1,0-0.2,0c0,0-0.1,0-0.1,0c-0.1,0-0.2,0.1-0.3,0.1
					c-0.2,0.1-0.4,0.2-0.3,0.4c0,0.1-0.2,0-0.2-0.1c-0.2,0.4-0.8,0.4-1.1,0.7c-0.2,0.2,0.3,0.7,0.4,1c0,0,0,0,0,0.1
					c0,0.2,0.2,0.3,0.3,0.4c0.1-0.1-0.1-0.3-0.1-0.4c0.1-0.2,0.3,0,0.4,0c0.1,0,0.1-0.4,0.1-0.5c0.1-0.2,0.2-0.1,0.3-0.2
					c0,0-0.2-0.6,0.1-0.5c0.1,0.1,0.3,0.5,0.2,0.6c0,0.5,0.2,0.6,0.5,0.3c0,0,0.1,0,0.1-0.1c0,0,0,0,0.1-0.1c0.1,0,0.2-0.1,0.3-0.1
					c0.4-0.1,0.7-0.1,0.7-0.2c-0.2-0.2-0.8-0.1-1.1,0c-0.3,0-0.3-0.1-0.2-0.3c0.1-0.1-0.5-0.1-0.4-0.3c0-0.1,0.4,0,0.4,0
					c0.2,0,0.3-0.1,0.4-0.1c0.1,0,0.1,0.3,0.4,0.2c0.2,0,0.1-0.1,0.3,0c0,0,0.1,0,0.3,0.1c0.2,0,0.4-0.2,0.4-0.3
					c0-0.1-0.3-0.2-0.3-0.2c-0.1-0.2-0.1-0.3-0.3-0.5c-0.1-0.1-0.4-0.3-0.5-0.3c-0.1-0.1,0.2-0.2,0.2-0.2c0,0-0.4,0.1-0.4,0.1
					c-0.1,0-0.2-0.1-0.3-0.1c0.2,0,0.4,0,0.6-0.2c0,0,0.2-0.4,0.3-0.1c0,0.1-0.1,0.2,0,0.3c0.1,0.1,0.2,0.2,0.3,0.4
					c0,0,0.6,0.4,0.6,0.2c0-0.2-0.5-0.4-0.5-0.4c0.1-0.1,0.5-0.4,0.5-0.5c0-0.1-0.5,0-0.5,0c0,0.1-0.3-0.1-0.4-0.1
					C49.3,29.9,48.6,29.7,48.6,30.1z"/>
				<path class="st4" d="M46.8,33.1C46.8,33.1,46.8,33,46.8,33.1C46.8,33,46.8,33.2,46.8,33.1z"/>
				<path class="st4" d="M46.5,32.7c-0.3,0.2-0.3,0.1-0.5-0.1c-0.2-0.1-0.3,0.2-0.4,0.4c-0.3,0.4-0.6,1.4,0,1.4
					c-0.1,0.3-0.2-0.1-0.4,0.1c-0.1,0.3,0.4,0.4,0.6,0.3c0.2,0,0.5-0.3,0.1-0.4c0.1,0,1.1-0.1,1-0.2c-0.3-0.1-1-0.3-0.8-0.9
					c0.1,0,0.2,0.1,0.2,0.2c0,0,0,0,0,0c0,0,0,0,0,0c0.2,0.2,0.3,0.3,0.5,0.4c0.3,0.1-0.2-0.4-0.5-0.4c0.2-0.1,0.6-0.1,0.4-0.2
					c-0.1-0.1-0.2-0.2-0.2-0.4C46.5,33,46.6,32.7,46.5,32.7z"/>
				<path class="st4" d="M46.5,35.5c0.2-0.1,0.1-0.2-0.1-0.2l0,0.1C46.4,35.4,46.5,35.5,46.5,35.5z"/>
			</g>
		</g>
	</g>
	<g>
		<circle class="st4" cx="31.9" cy="29.7" r="0.6"/>
		<g>
			<g>
				<polygon class="st4" points="31.9,29.7 31.9,29.7 31.9,29.7 				"/>
				<path class="st4" d="M31.9,29.7L31.9,29.7L31.9,29.7z"/>
				<polygon class="st4" points="31.9,29.7 31.9,29.7 31.9,29.7 				"/>
				<path class="st4" d="M32.1,29.4C31.9,30,32.1,29.4,32.1,29.4L32.1,29.4z"/>
				<path class="st4" d="M31.9,29.7C31.9,29.7,31.9,29.7,31.9,29.7C31.9,29.7,31.9,29.8,31.9,29.7L31.9,29.7z"/>
				<path class="st4" d="M31.9,29.7L31.9,29.7C32,29.7,32,29.7,31.9,29.7z"/>
				<path class="st4" d="M33,29.7C33.2,29.7,33.1,29.7,33,29.7C32.9,29.7,33,29.7,33,29.7c0,0-0.6,0-0.4,0c0.2,0,0.4,0,0.6,0
					c0.2,0,0.4,0,0.2,0C33.2,29.6,33.2,29.6,33,29.7c-0.1-0.1,0.3-0.1,0.3-0.1C33.3,29.6,33.2,29.6,33,29.7c0-0.1,0.3-0.1,0.3-0.1
					c0,0,0,0,0.1,0c0.1,0-0.1,0-0.2,0c-0.2,0-0.2,0-0.2,0c0.2,0,0.3,0,0.5-0.1c0.2,0-0.1,0-0.1,0c-0.1,0,0,0,0,0c0,0-0.2,0-0.2,0
					c0,0,0.8-0.2,0.2-0.1c-0.2,0-0.1,0,0,0c0.1,0,0.1,0,0,0c-0.2,0,0,0,0.1-0.1c0.2-0.1-0.3,0.1-0.5,0.1c0.1,0,0.1,0,0.3-0.1
					c0.1,0,0.1,0,0.1-0.1c0.1-0.1,0-0.1,0-0.1c0,0,0.1-0.1,0-0.1c0,0-0.3,0.1-0.4,0.2c0.1,0,0.1,0,0.1-0.1c0.1,0,0.1-0.1,0.2-0.1
					c0.1,0,0,0,0,0c0,0-0.1,0-0.1,0c0,0,0.1-0.1,0-0.1c0,0-0.4,0.2-0.3,0.1c0.1-0.1,0.4-0.3,0.3-0.2c0,0-0.4,0.2-0.1,0
					c0,0-0.1,0.1-0.2,0.1c0.5-0.3,0.3-0.3,0.2-0.3c0,0,0-0.1-0.2,0.1c0,0,0,0,0-0.1c0,0,0,0,0,0c0,0,0-0.1,0-0.1c0,0,0,0-0.1,0.1
					c-0.1,0.1-0.1,0.1-0.1,0.1c0,0,0,0,0.1-0.1c0,0-0.1,0,0,0c0,0,0.2-0.2,0-0.1c-0.1,0.1-0.2,0.2-0.2,0.2c0,0,0.2-0.2,0.2-0.2
					c0.1-0.1-0.2,0.1-0.2,0.1c0,0,0-0.1,0-0.1c0,0,0.1-0.2,0,0c-0.1,0.1-0.1,0.2-0.2,0.3c0.1-0.1,0.2-0.3,0.2-0.4
					c0.1-0.1-0.2,0.3-0.2,0.4c0,0,0.3-0.4,0.3-0.6c0.1-0.1-0.1,0.1-0.1,0.1c0,0,0-0.1-0.1,0l-0.1,0.1c0,0,0,0-0.1,0.1
					c0,0-0.1,0.3-0.1,0.3s0.3-0.6,0.3-0.6c0-0.1,0,0-0.1,0c0,0,0-0.2-0.2,0.2c0.1-0.2,0-0.1,0-0.1c0,0,0-0.2,0-0.1
					c-0.1,0.1-0.1,0.3-0.1,0.4c-0.1,0.3,0.1-0.4,0.1-0.4c0,0-0.2,0.6-0.2,0.7c0-0.1,0.3-0.9,0.2-0.7c-0.1,0.1,0,0-0.1,0.2
					c0,0.1-0.1,0.3-0.1,0.2c0-0.2,0-0.4,0-0.2c0.1-0.6,0-0.3-0.1,0.2c0-0.1,0-0.3,0-0.4c0-0.2,0-0.1,0-0.1c0,0,0-0.1-0.1,0.1
					c0-0.1,0-0.1,0-0.1c0,0,0,0.1,0,0.4c0,0,0-0.4,0-0.5c0,0.1,0,0.2,0,0.3c0-0.5,0-0.3-0.1-0.3c0,0,0,0.5,0,0.7c0,0.2,0,0.4,0,0.5
					c0,0.1,0,0,0-0.1c0-0.2,0-0.4,0-0.7c0,0,0-0.3,0-0.3c0,0,0,0.1,0,0.1c0-0.1,0-0.1,0-0.1c0,0,0,0,0,0.1c0,0.1,0.1,0.8,0.1,0.8
					c0-0.1-0.1-0.7-0.1-0.2c0,0.2,0.1,0.4,0.1,0.6c0,0.1,0-0.3,0-0.2c0,0.1,0,0.3,0,0.4l0,0c0,0,0-0.4,0-0.6c0-0.1,0-0.3,0-0.3
					c0,0,0-0.1,0,0c0,0.1,0,0.2,0,0.3c0,0.1,0,0.3,0,0.4c0-0.3,0-0.2,0-0.3c0,0,0,0.1,0,0.2c0,0.1,0,0,0,0s0,0.1,0,0.2
					c0,0.1,0,0.1,0,0.1l0,0c0-0.2,0-0.4,0-0.3c0,0,0,0.4,0,0.2c0-0.2,0,0.2,0,0c0-0.1,0.1-0.8,0.1-0.8c0,0,0,0.4-0.1,0.5
					c0,0.2,0,0.1,0,0.3c0,0,0,0,0,0l0,0c0,0,0,0,0-0.1c0-0.2,0-0.1,0-0.1c0,0,0.1-0.4,0.1-0.3c0,0,0,0.2,0,0.3c0,0.1,0,0.1,0,0.2
					c0,0,0,0,0,0c0-0.1,0-0.1,0-0.2c0-0.2,0-0.1,0-0.1c0,0,0,0.1,0,0c0-0.2,0.1-0.3,0-0.1C32,29.5,32,29.5,32,29.7c0,0,0,0,0,0
					c0,0,0,0,0,0c0-0.1,0,0,0.1-0.3c0,0.2-0.1,0.2,0,0.1c0-0.1,0.1-0.3,0.1-0.4c0.1-0.3,0,0.2-0.1,0.2c0,0.1-0.1,0.3-0.1,0.4
					c0,0,0,0,0,0c0,0,0,0,0,0c0,0,0,0.1,0,0.1c0-0.1,0.1-0.2,0.1-0.4c0.1-0.2,0.1-0.2,0.1-0.1c0,0.1-0.3,0.6-0.2,0.4
					c0,0,0.1-0.3,0.1-0.2c0,0.1-0.1,0.2-0.1,0.3l0,0c0,0,0-0.1,0-0.1c0,0,0.1-0.2,0.1-0.3c0.1-0.1,0,0,0.1-0.2c0,0,0.2-0.3,0.1-0.1
					c-0.1,0.1-0.1,0.2-0.1,0.2c0,0,0.1-0.1,0.1-0.2c0,0.1-0.3,0.5-0.4,0.6c0.1-0.1,0.2-0.3,0.2-0.3c0-0.1,0.1-0.2,0-0.1
					c0,0,0.2-0.4,0.2-0.4c0,0-0.4,0.6-0.5,0.7c0,0,0.2-0.3,0.2-0.3c-0.2,0.3,0,0.1-0.1,0.2c0,0.1-0.1,0.2-0.1,0.2c0,0,0,0,0,0
					c0-0.1,0,0,0,0l0,0c0.1-0.1,0.2-0.3,0.3-0.3c0.1-0.1-0.1,0.2-0.2,0.2c-0.1,0.1-0.1,0.1-0.1,0.1c0.1-0.1,0.2-0.2,0.2-0.3
					c0.1-0.1,0.2-0.2,0,0c-0.3,0.4,0.3-0.3,0.3-0.3c-0.1,0.1-0.3,0.3-0.3,0.3s0.1-0.1,0,0c0,0,0.1-0.1,0,0c-0.1,0.1-0.2,0.2-0.1,0.1
					c0.1-0.1,0.4-0.4,0.4-0.4c0,0,0.1-0.1,0.1-0.1c0,0-0.1,0.1-0.2,0.2L32,29.7c0.1-0.1,0.1-0.1,0.2-0.2c0.2-0.2,0.1-0.1,0,0
					c-0.3,0.2,0.2-0.2-0.1,0.1c0,0,0.3-0.2,0.2-0.1c0,0-0.4,0.3-0.3,0.2c0.1-0.1,0.3-0.2,0.3-0.2c0,0-0.1,0.1-0.2,0.1
					c0,0,0.1-0.1,0,0c-0.1,0.1-0.1,0.1-0.1,0.1c0,0,0,0,0.1-0.1c0.1-0.1,0.3-0.2,0.3-0.2c0.1,0,0.2-0.1,0.2-0.2
					c0.1-0.1-0.1,0.1-0.1,0.1c-0.1,0.1-0.3,0.2-0.5,0.3c0.1-0.1,0.2-0.1,0.2-0.1c0,0-0.2,0.1-0.2,0.1c-0.1,0,0,0,0,0
					c0,0,0.1,0,0.1-0.1c0.1,0,0.1-0.1,0.3-0.2c0,0,0.3-0.1,0.2-0.1c-0.1,0-0.5,0.3-0.5,0.3c0,0,0.3-0.2,0.3-0.2s-0.2,0.1-0.2,0.1
					c0,0,0,0,0.1,0c0.1,0,0.1-0.1,0.3-0.1c0.1,0-0.1,0.1-0.3,0.1c-0.1,0.1,0.3-0.1,0.2-0.1c0,0,0.3-0.1,0.5-0.2
					c-0.2,0.1-0.3,0.1-0.5,0.2c-0.1,0-0.2,0.1-0.3,0.1c0.3-0.1,0.3-0.1,0.3-0.1c0,0-0.3,0.1-0.4,0.1c0.2-0.1,0.2,0,0.2,0
					c0,0,0.3-0.1,0.3-0.1c0,0-0.7,0.2-0.2,0.1c0,0-0.4,0.1-0.2,0c0.2,0,0.3,0,0.5-0.1c-0.2,0-0.4,0.1-0.6,0.1c0.2,0,0.4-0.1,0.6-0.1
					c-0.1,0-0.5,0.1-0.5,0.1c0.1,0,0.5-0.1,0.8-0.1c0,0-0.5,0.1-0.6,0.1c-0.2,0,0,0-0.1,0c-0.1,0-0.2,0-0.2,0c0.1,0,0.2,0,0.2,0
					c0,0,0,0-0.1,0c0,0-0.1,0-0.2,0c0,0,0.2,0,0.3,0c0.3,0,0.4,0,0.3,0c0,0,0.1,0,0.2,0C32.6,29.7,32.9,29.7,33,29.7z"/>
				<path class="st4" d="M32.2,29.7c0,0-0.1,0-0.1,0C32.1,29.7,32.1,29.7,32.2,29.7z"/>
				<path class="st4" d="M31.9,29.4c0,0,0-0.1,0,0.1c0,0.2,0,0.1,0,0.1L31.9,29.4C31.9,29.4,31.9,29.4,31.9,29.4z"/>
				<path class="st4" d="M31.7,28.3C31.7,28.1,31.7,28.4,31.7,28.3c-0.1-0.2,0,0.2,0,0.3c-0.1-0.2-0.1-0.3-0.1-0.2
					c0,0.1,0.1,0.3,0.1,0.4c-0.1-0.3-0.3-0.8-0.1-0.3c0.1,0.2,0,0.2,0,0c-0.1-0.2-0.1-0.3-0.1-0.3c-0.1-0.1,0.2,0.5,0.2,0.6
					c0,0.1,0.3,0.8,0.3,0.9c0,0-0.1-0.2,0-0.1c0,0,0,0.1,0,0.1c0-0.1-0.1-0.3-0.1-0.4c0-0.1,0-0.1-0.1-0.2c0.1,0.2,0.1,0.5,0.1,0.3
					c0-0.1-0.1-0.5-0.1-0.6l0.2,0.7c0,0-0.1-0.3-0.1-0.3c0-0.1,0,0,0,0.1c0,0,0-0.1,0,0.1c0,0,0,0.2,0,0.2c0,0-0.1-0.3-0.1-0.4
					c0,0,0,0.2,0.1,0.4c0-0.1,0-0.3,0-0.3c0-0.1,0-0.1,0-0.3C31.8,28.7,31.7,28.4,31.7,28.3z"/>
				<path class="st4" d="M31.5,28.2C31.5,28.2,31.4,28.2,31.5,28.2L31.5,28.2z"/>
				<path class="st4" d="M31.5,28.4c-0.1-0.2,0.1,0.3,0.2,0.5c0-0.1-0.3-0.7-0.2-0.6c0,0.1,0.1,0.3,0.1,0.4c0,0,0,0.1,0,0
					c0,0-0.1-0.1-0.1-0.2c-0.1-0.2-0.1-0.1,0,0.1c-0.1-0.2,0.1,0.3,0,0.1c-0.1-0.1-0.1-0.3-0.2-0.3c0,0,0.1,0.4,0.2,0.6
					c-0.1-0.2-0.2-0.3-0.3-0.5c0.1,0.2,0.3,0.7,0.3,0.7c-0.1-0.2-0.3-0.6-0.3-0.5c0,0.1,0.2,0.3,0.3,0.5c0.1,0.2-0.2-0.4-0.2-0.4
					c0,0,0.2,0.3,0.1,0.1c0,0-0.1-0.1-0.1-0.2c0,0.1,0.1,0.2,0.1,0.2c-0.2-0.3-0.2-0.3-0.3-0.4c0-0.1,0,0,0.1,0.1
					c-0.1-0.1-0.2-0.2-0.2-0.2c0,0,0.1,0.1,0.1,0.2c0,0.1,0.1,0.1,0.1,0.2c0,0-0.2-0.2-0.2-0.3c0,0,0.1,0.1,0.1,0.2
					c0,0,0,0.1,0.1,0.1c0.2,0.3,0.3,0.5,0.6,0.8c0.1,0.1,0.1,0.1,0.1,0.2l0,0l0,0l0,0c-0.1-0.2-0.2-0.3-0.3-0.4c0,0-0.3-0.5-0.3-0.6
					c0.1,0.1,0.1,0.2,0.2,0.4c0,0.1,0.1,0.2,0.1,0.2c0.1,0.1,0.2,0.4,0.2,0.4c0,0,0,0,0,0.1c0,0,0,0-0.1-0.2c0,0,0,0,0,0
					c0,0,0.1,0.2,0.1,0.2c0,0,0,0,0-0.1c-0.1-0.2,0.1,0.2,0,0.1c-0.1-0.2-0.1-0.2-0.2-0.4c0-0.1-0.2-0.4-0.1-0.3
					c0.1,0.2,0.2,0.5,0.3,0.7c0,0,0,0,0-0.1c-0.1-0.2-0.2-0.6-0.2-0.7C31.6,28.8,31.6,28.6,31.5,28.4z"/>
				<path class="st4" d="M31.8,29.5c0.1,0.1,0.1,0.2,0.1,0.2C31.9,29.7,31.8,29.5,31.8,29.5z"/>
				<path class="st4" d="M31.2,28.8L31.2,28.8C31.3,29,31.4,29.1,31.2,28.8z"/>
				<path class="st4" d="M31.6,29.3c-0.2-0.2-0.4-0.5-0.6-0.7c0,0,0.1,0.2,0.3,0.3c0.2,0.2,0,0,0,0c0.1,0.1,0.2,0.2,0,0.1
					c-0.1-0.1-0.3-0.3-0.3-0.3c-0.3-0.2,0.3,0.3,0.3,0.4c0,0-0.4-0.4-0.4-0.4c-0.1,0-0.1,0,0.2,0.2c0,0-0.2-0.1-0.2-0.2
					c0,0-0.1,0,0.1,0.2c-0.3-0.3,0,0.1-0.1,0c0,0,0,0,0,0c0.1,0.1,0.4,0.3,0.7,0.5c0.2,0.1,0.1,0.1,0.2,0.2c0,0,0.4,0.3,0.2,0.2
					c-0.1-0.1-0.2-0.1-0.2-0.1c0,0,0,0,0,0c0,0-0.2-0.2-0.3-0.3c-0.2-0.2,0.5,0.4,0.4,0.4c0,0-0.2-0.2-0.1-0.1
					c0.1,0.1,0.2,0.2,0.3,0.3c0,0-0.2-0.2-0.2-0.2c0,0,0.1,0.1,0,0c-0.1-0.1-0.1-0.2-0.1-0.1c0,0,0.1,0.1,0.1,0.1
					c0.1,0.1,0.1,0.1,0.2,0.2C31.9,29.6,31.7,29.5,31.6,29.3c0.1,0.1,0.3,0.4,0.4,0.4c-0.1-0.1-0.2-0.2-0.2-0.3c0,0,0.1,0.1,0.1,0.1
					c0.1,0.1-0.4-0.5,0,0c0.1,0.1,0.2,0.2,0.1,0.2c0,0,0,0-0.1-0.1c-0.1-0.1,0,0,0,0c0.1,0.1,0,0,0,0c-0.2-0.2-0.4-0.6-0.6-0.8
					C30.9,28.3,31.4,29.2,31.6,29.3z"/>
				<path class="st4" d="M30.8,28.9C30.8,28.9,30.8,28.9,30.8,28.9C30.8,28.9,30.7,28.8,30.8,28.9z"/>
				<path class="st4" d="M31.6,29.6c0,0,0.3,0.1,0.3,0.1C31.9,29.7,31.6,29.6,31.6,29.6z"/>
				<path class="st4" d="M31.9,29.7c0.1,0-0.1,0-0.1,0C31.8,29.7,31.8,29.7,31.9,29.7z"/>
				<path class="st4" d="M31.5,29.4c-0.1,0-0.2-0.1-0.2-0.2c-0.1-0.1,0.2,0.1-0.2-0.1c-0.1-0.1-0.4-0.3-0.3-0.2
					c0.1,0.1,0.3,0.2,0.4,0.3c-0.1-0.1-0.4-0.3-0.4-0.3c0,0,0.2,0.1-0.1,0c0.1,0.1,0.3,0.2,0.3,0.2c-0.1,0-0.5-0.3-0.5-0.3
					c0,0,0.3,0.2,0.3,0.2c0.3,0.2-0.3-0.2-0.3-0.2c0,0,0.1,0.1,0.2,0.1c0,0,0.2,0.1,0.3,0.2c0,0-0.3-0.2-0.4-0.2c0,0,0,0-0.1,0
					c-0.1-0.1-0.1-0.1,0,0c0.1,0,0.1,0,0,0c0,0-0.3-0.1-0.2-0.1c0.1,0,0.3,0.1,0.3,0.2c0,0-0.1,0-0.2-0.1c-0.4-0.2,0.1,0.1,0.2,0.1
					c0,0-0.3-0.1-0.3-0.1c0,0,0.1,0.1,0.2,0.1c0.1,0-0.3-0.1-0.3-0.1c-0.1,0,0.1,0.1,0.2,0.1c0.1,0.1,0.2,0.1,0.4,0.2
					c0.1,0,0.3,0.1,0.1,0.1c-0.1,0-0.4-0.1-0.4-0.1c0,0-0.2,0-0.3,0c-0.3,0,0.5,0.2,0,0.1c0.2,0.1,0.5,0.1,0.4,0.1
					c-0.1,0-0.5-0.1-0.4,0c0,0,0.7,0.1,0.7,0.1c0.3,0.1,0.5,0.1,0.7,0.1c0.2,0,0.1,0,0.1,0c0,0-0.4-0.1-0.5-0.1c0.1,0,0.2,0,0.3,0.1
					c-0.1,0-0.3-0.1-0.4-0.1c-0.2,0,0.1,0,0.2,0c0.2,0,0.5,0.1,0.1,0c-0.1,0-0.5-0.1-0.4-0.1c0.1,0,0.5,0.1,0.6,0.2
					c0.2,0,0.1,0,0.1,0c0,0,0.1,0-0.4-0.1c0.2,0.1-0.1,0-0.1,0c0,0,0.2,0.1,0.2,0.1c0,0-0.6-0.2-0.4-0.2c0.1,0,0.3,0.1,0.4,0.2
					c0.1,0-0.1,0-0.1,0c-0.1,0,0,0,0.2,0.1c0.2,0.1,0.1,0,0.1,0c0.2,0.1,0.3,0.1,0.1,0c0,0,0.2,0.1,0.1,0c0,0-0.2-0.1-0.4-0.2
					c-0.1,0-0.2-0.1-0.3-0.1c-0.1,0-0.4-0.2-0.3-0.2C31.1,29.4,31.3,29.4,31.5,29.4c0.1,0.2,0.2,0.2,0.2,0.2c0,0,0.2,0.1,0.2,0.1
					c0,0-1.6-0.8-0.3-0.1c0.2,0.1,0.3,0.2,0.2,0.1c-0.1,0-0.5-0.3-0.5-0.3s0.6,0.3,0.6,0.4c-0.1-0.1-0.7-0.4-0.7-0.4
					c0,0,0.5,0.3,0.6,0.3c0,0,0,0,0,0c0,0,0.1,0.1,0.1,0.1C31.9,29.7,31.6,29.5,31.5,29.4c0.1,0.1,0.3,0.2,0.4,0.3c0,0,0,0-0.1,0
					C31.8,29.6,31.4,29.4,31.5,29.4c0,0,0.3,0.2,0.4,0.3c0.1,0.1-0.1,0-0.2-0.1C31.6,29.5,31.7,29.5,31.5,29.4z"/>
				<path class="st4" d="M31.1,29.6c-0.2,0-0.5-0.1-0.3,0c0,0,0,0,0,0l0.6,0.1C31.2,29.6,31.2,29.6,31.1,29.6
					C31.2,29.6,31.6,29.7,31.1,29.6z"/>
				<path class="st4" d="M31.7,29.7c0.1,0,0.4,0,0.3,0C31.9,29.7,31.7,29.7,31.7,29.7z"/>
				<path class="st4" d="M30.1,29.5c0,0,0.2,0,0.2,0c0,0-0.1,0-0.1,0c0,0,0.1,0,0.2,0.1c0,0,0.2,0,0.2,0s-0.3,0-0.3,0
					c0.1,0,0.4,0,0.6,0.1l0.8,0.1c0,0-0.5,0-0.5-0.1c0,0,0.6,0.1,0.6,0.1c-0.5,0-0.2,0-0.4,0c-0.2,0-0.6-0.1-0.6-0.1
					c0,0,0.3,0,0.4,0.1c0.2,0,0.5,0.1,0.6,0.1c0,0-0.7-0.1-0.8-0.1c-0.2,0-0.7-0.1-0.8-0.1C30.4,29.5,30.4,29.5,30.1,29.5z"/>
				<path class="st4" d="M30.2,29.7c0,0,0,0,0.2,0.1c0.1,0,0.4,0,0.5,0c-0.1,0-0.6,0-0.6,0c0,0,0,0,0,0c0.1,0,0.1,0,0.1,0
					c0,0-0.2,0.1,0.1,0c0,0,0.9-0.1,0.7-0.1c0,0-0.3,0-0.3,0c-0.1,0-0.2,0-0.3,0c-0.2,0-0.2,0.1-0.2,0.1c0,0,0,0,0.1,0
					c0.2,0,0.1,0,0.1,0c0,0,0.3-0.1,0.4-0.1c0.2,0,0.5-0.1,0.6-0.1c0.2,0,0,0,0.1,0c0.2,0,0.2,0,0.2,0c-0.1,0-0.1,0-0.5,0.1
					c-0.1,0-0.4,0-0.3,0c0.1,0-0.2,0-0.3,0c-0.1,0-0.4,0-0.3,0c0,0,0.3,0,0.3,0c0.2,0,0.3,0,0.4-0.1c0,0,0.3-0.1,0.4-0.1
					c0,0-0.1,0,0,0c0.1,0,0.3,0-0.2,0c-0.2,0-0.1,0-0.2,0c-0.1,0-0.1,0-0.2,0c0,0,0.4,0,0.4,0c0.2,0,0.1,0,0.1,0c0.2,0-0.5,0-0.7,0
					c-0.1,0,0,0,0,0c0,0,0.2,0,0.2,0c0.2,0,0.4,0,0.3,0c-0.1,0-0.4,0-0.6,0c0,0-0.3,0-0.3,0c0,0,0.5,0,0.6,0c0.1,0,0.4,0,0.5,0
					c0.1,0-0.2,0-0.4,0c-0.1,0-0.2,0-0.3,0c-0.1,0-0.1,0,0,0C31,29.7,30.2,29.6,30.2,29.7z"/>
				<path class="st4" d="M30.6,30.1C30.4,30.1,31,30,30.6,30.1L30.6,30.1z"/>
				<path class="st4" d="M30.8,30c0,0-0.2,0.1-0.3,0.1c-0.1,0,0.1,0,0.2,0c0.1,0,1-0.2,0.8-0.2c0.2,0,0.3-0.1,0.2-0.1
					c0.2-0.1,0,0-0.1,0C31.4,29.9,31.2,29.9,30.8,30C30.1,30.1,30.8,30,30.8,30z"/>
				<path class="st4" d="M30.5,30.4C30.4,30.5,30.4,30.5,30.5,30.4L30.5,30.4C30.5,30.4,30.6,30.4,30.5,30.4z"/>
				<path class="st4" d="M31.2,30.3C31.2,30.3,31.2,30.3,31.2,30.3c0.1-0.1,0.1-0.1,0.1-0.1c0.1-0.1,0.2-0.1,0.2-0.1
					c0,0-0.4,0.3-0.4,0.3C31.1,30.3,31.2,30.3,31.2,30.3z"/>
				<path class="st4" d="M31.2,30.3c-0.1,0,0.2-0.1,0.1-0.1L31.2,30.3C31.3,30.2,31.2,30.2,31.2,30.3z"/>
				<path class="st4" d="M31.8,29.8C31.8,29.8,31.8,29.9,31.8,29.8C32,29.7,31.8,29.8,31.8,29.8z"/>
				<path class="st4" d="M31.6,29.8c0,0-0.4,0.1-0.4,0.1c0,0,0.2,0,0.2-0.1C31.5,29.9,31.6,29.9,31.6,29.8c0,0,0.1,0,0.2-0.1
					c-0.2,0.1-0.4,0.1-0.6,0.2c0.2,0,0.6-0.2,0.5-0.2c-0.1,0-0.4,0.2-0.5,0.2c0,0-0.1,0-0.1,0c-0.1,0,0,0,0.1,0
					C31.2,30,31.4,30,31.6,29.8c0.1,0,0.2,0,0.3-0.1c0,0-0.4,0.2-0.5,0.2c0,0,0.1,0,0.2-0.1c0.1,0,0.2-0.1,0.3-0.1
					c0.1,0,0.1-0.1,0.1-0.1c0,0,0,0-0.2,0.1c0.1,0,0.1-0.1,0.2-0.1C31.9,29.8,31.7,29.9,31.6,29.8c-0.3,0.2-0.6,0.4-0.9,0.6
					c0.2-0.1,0.5-0.2,0.7-0.3C31.4,30,31.5,30,31.6,29.8c0.2,0,0,0.1,0,0.1c-0.1,0.1-0.6,0.3-0.5,0.3C31.1,30.2,31.6,29.9,31.6,29.8
					c0.4-0.1,0.2,0,0.2,0c0,0,0.2-0.1,0.1,0c0,0-0.3,0.2-0.3,0.2C31.5,30,31,30.3,31,30.3s0.5-0.3,0.6-0.3c0,0-0.1,0.1-0.1,0
					c0,0,0.2-0.1,0.3-0.2c0.1,0,0.1-0.1,0.1-0.1c0,0,0,0,0,0C31.9,29.8,31.8,29.9,31.6,29.8c0.2,0,0.5-0.2,0.3,0
					c-0.2,0.2-0.7,0.5-0.9,0.7c0,0,0.2-0.1,0.2-0.1c0.1-0.1,0.3-0.2,0.4-0.3c0.3-0.3-0.1,0.1-0.1,0.1s0.4-0.3,0.3-0.2
					c0,0,0.2-0.1,0.2-0.1c0,0-0.2,0.2-0.2,0.2c0,0,0.2-0.2,0.4-0.3c-0.1,0.1-0.5,0.4-0.6,0.6l0.3-0.2c0.1,0,0.2-0.2,0.3-0.3
					c0,0,0,0,0,0c0.1-0.1,0.1-0.1,0.1-0.1s0,0-0.1,0.1c-0.5,0.5,0.2-0.2,0.1-0.1c-0.1,0.1-0.4,0.4-0.5,0.5c-0.2,0.2-0.5,0.5-0.6,0.6
					c-0.1,0.1,0,0,0.1-0.2c0.1-0.1,0.2-0.2,0.3-0.3c-0.1,0.1-0.3,0.3-0.5,0.5c0.1-0.1,0.7-0.7,0.5-0.6c-0.2,0.2-0.4,0.4-0.5,0.5
					c-0.1,0.1-0.3,0.2,0-0.1c-0.2,0.2-0.1,0.1,0,0c0,0,0.3-0.3,0.1-0.1c-0.2,0.1-0.3,0.3-0.3,0.2c0.1-0.1,0,0-0.1,0
					c0.2-0.2-0.1-0.1-0.1-0.1c0,0,0,0,0.1-0.1c0,0,0.3-0.2,0.3-0.2c0,0-0.3,0.1-0.3,0.2c-0.1,0,0,0,0.1-0.1c0.3-0.2,0,0-0.1,0
					c-0.1,0-0.1,0-0.1,0c0,0,0.2-0.1,0.2-0.1c0,0-0.3,0.1-0.2,0.1c0,0,0.3-0.2,0.5-0.3c0.2-0.1-0.3,0.1-0.4,0.2
					c-0.3,0.1,0.1-0.1-0.1,0c0.4-0.2-0.1,0,0-0.1c0.2-0.1,0.4-0.1,0.5-0.2l0.2-0.1c-0.2,0.1-0.4,0.1-0.5,0.2c0,0-0.2,0.1-0.2,0.1
					c0,0,0,0,0.1,0c0,0-0.1,0,0,0c0.2-0.1,0.2-0.1,0.2-0.1c0,0-0.2,0,0,0c-0.1,0,0,0-0.3,0.1c0.1,0,0-0.1,0.5-0.2
					c0.2-0.1,0.3-0.1,0.5-0.1l0.2-0.1C31.5,29.9,31.5,29.9,31.6,29.8z M31,30.2c-0.1,0,0.1-0.1,0.3-0.1c0.1,0,0.1-0.1,0.2-0.1
					C31.3,30,31.2,30.1,31,30.2z"/>
				<path class="st4" d="M31.4,30.5c-0.1,0.1-0.2,0.2-0.2,0.3C31.2,30.8,31.5,30.3,31.4,30.5z"/>
				<path class="st4" d="M31.1,30.8c0.1-0.1,0.2-0.2,0.2-0.2C31.4,30.5,31.2,30.7,31.1,30.8c0,0-0.2,0.3,0,0.1
					c0.1-0.1,0.3-0.3,0.4-0.5c0.2-0.3,0.2-0.2,0.2-0.2c0.1-0.1,0.1-0.2,0.2-0.3c0,0,0-0.1,0.1-0.1c0-0.1,0.1-0.2,0.1-0.2l0,0l0,0
					l-0.1,0.1c0,0-0.3,0.4-0.2,0.3c0.1-0.1,0.2-0.3,0.3-0.3l0,0c-0.1,0.1,0,0-0.1,0.1c0,0-0.4,0.5-0.6,0.6
					C31.1,30.6,30.9,31,31.1,30.8z"/>
				<path class="st4" d="M31.8,29.9C31.8,30,31.8,30,31.8,29.9C31.7,30.1,31.9,29.8,31.8,29.9z"/>
				<path class="st4" d="M31.8,30c0-0.1,0.1-0.2,0.1-0.3l0,0c0,0,0,0.1-0.1,0.1C31.8,30,31.8,30,31.8,30z"/>
				<path class="st4" d="M31.7,30.2c0.1-0.1,0.2-0.4,0.2-0.5c0-0.1-0.1,0.2-0.1,0.3C31.7,30.2,31.7,30.3,31.7,30.2z"/>
				<path class="st4" d="M31.7,30.2C31.7,30.3,31.8,30.1,31.7,30.2L31.7,30.2z"/>
				<path class="st4" d="M32,29.8c0-0.1,0,0,0-0.1C31.9,29.7,32,29.8,32,29.8C32,29.9,32,30,32,29.8z"/>
				<path class="st4" d="M32.6,31.2L32.6,31.2C32.5,31,32.4,30.8,32.6,31.2z"/>
				<path class="st4" d="M31,31C31.1,31,31.3,30.7,31,31c-0.1,0.2,0,0.1,0,0.1c0,0,0.1,0,0.2-0.1c0.1-0.1,0,0.1,0,0.1
					c0,0,0.3-0.5,0.1-0.2c-0.1,0.2,0,0,0,0.1c-0.1,0.2,0,0.1,0,0.1c0,0,0,0.1,0,0.1c0,0,0-0.1,0.1-0.2c0-0.1,0,0,0,0
					c0,0,0-0.1,0.1-0.1c0,0,0,0.1-0.1,0.2l0,0c-0.1,0.2,0,0.2,0,0.1c0-0.1,0,0.1,0,0.1c0,0,0.1-0.3,0.1-0.4c0-0.1,0,0.2,0,0.3
					c0,0.2,0.1-0.1,0.1-0.1c0,0,0,0.1,0-0.2c0-0.1,0,0.1,0,0.1c0,0,0-0.1,0,0.3c0,0.1,0-0.1,0-0.2c0-0.2,0-0.3,0-0.4
					c0,0.1,0-0.1,0-0.2c0-0.1,0-0.8,0-0.8c0,0,0,0.6,0,0.7c0,0.1,0,0.5,0,0.5c0,0.2,0,0.6,0,0.2c0,0.1,0,0.2,0,0.2
					c0-0.1,0-0.2,0-0.2c0,0,0,0.1,0.1,0c0,0,0-0.1,0-0.2c0,0.2,0,0.4,0.1,0.4c0,0,0-0.6-0.1-0.7c0,0.3,0,0.6,0.1,0.6
					c0,0,0.1,0,0-0.2c0,0.1,0,0.2,0.1,0.2c0,0,0-0.1,0-0.2c0,0,0.1,0.2,0.1,0.2c0,0,0-0.3-0.1-0.4c0-0.1,0-0.3,0-0.2
					c0,0,0-0.1,0-0.1c0,0,0,0,0.1,0.1c0,0.1,0.1,0.3,0.1,0.4c0,0.1,0-0.3-0.1-0.3c0-0.1,0.1,0.2,0.1,0.2c0.1,0.2,0.1,0.2,0-0.1
					c0-0.1,0.1,0,0.1,0.2c0-0.1-0.1-0.3-0.1-0.3c0,0,0.1,0.1,0.1,0.2c0,0.1-0.1-0.3-0.1-0.4c0,0.1,0,0.1,0.1,0.2
					c0,0,0.1,0.4,0.1,0.3c0,0,0-0.1,0-0.1l0,0c0,0,0,0,0,0c0-0.1-0.1-0.4-0.2-0.6c-0.1-0.1-0.1-0.3-0.1-0.3c0.1,0.2,0.2,0.4,0.2,0.5
					c0.1,0.1,0,0.1,0.1,0.1c0,0.1,0.1,0.3,0.1,0.3c0,0,0,0,0,0c0-0.1-0.1-0.3-0.2-0.4c0-0.1,0,0,0.1,0.1c0.1,0.3,0.1,0.3,0.2,0.3
					c0-0.1-0.2-0.4-0.4-0.8c-0.1-0.2-0.2-0.4-0.3-0.6c0,0.1,0.1,0.1,0.1,0.1s0-0.1-0.1-0.1l0,0c0,0.1,0,0.1,0.1,0.1c0,0,0.1,0.2,0,0
					c0,0,0-0.1-0.1-0.1l0,0l0,0c0,0.1,0.1,0.4,0.2,0.5c-0.1-0.2,0-0.1,0,0c0,0-0.1-0.3-0.1-0.3c0-0.1,0-0.1-0.1-0.2
					c0,0.1,0.1,0.3,0.1,0.4c0,0.1,0.1,0.3,0,0.2c0,0-0.1-0.2-0.1-0.2c0,0,0,0.1,0,0c0-0.1,0-0.2-0.1-0.3c0,0.2,0.3,1.2,0.2,0.9
					c0-0.1-0.2-1-0.2-1l0,0c0,0.1,0,0.1,0,0.2c0,0.1,0.1,0.3,0.1,0.3c0-0.1-0.1-0.4-0.1-0.5c0-0.2,0.1,0.4,0.1,0.3
					c0,0.1,0,0.1,0,0.1c0,0.2,0,0.1,0,0.1c0-0.1-0.1-0.6-0.1-0.5c0-0.1,0-0.1,0-0.2c0,0.1,0.1,0.5,0.1,0.6c0,0-0.1-0.5-0.1-0.6
					c0,0,0.1,0.5,0.1,0.6c0,0,0-0.2,0-0.2c0,0,0,0,0-0.1c0-0.1,0-0.2,0-0.3c0-0.1,0-0.1,0-0.1l0,0l0,0c0,0,0,0,0,0.1
					c0,0.1,0,0.3,0,0.2c0,0,0-0.3,0-0.3c0,0,0,0.4,0,0.5c0-0.1,0,0.1,0,0.1c0-0.1,0-0.4,0-0.5c0,0.1,0,0.2,0,0.2c0-0.1,0-0.2,0-0.2
					c0,0,0,0,0,0s0,0,0,0c0,0.4,0,0.1,0,0.5c0,0,0,0.3,0,0.2c0-0.1,0-0.2,0-0.2c0-0.2,0,0.2,0,0c0-0.2,0-0.3,0-0.3c0,0,0-0.1,0-0.1
					l0,0l0,0c0,0.1-0.1,0.6-0.1,0.7c0,0.1-0.1,0.6-0.1,0.4c0.1-0.5,0,0.2-0.1,0.2c0,0,0-0.2,0-0.3c0-0.2,0-0.1,0-0.2
					c0,0,0.1-0.7,0.1-0.7s-0.1,0.5-0.1,0.3c0-0.1,0-0.2,0-0.2c0,0.2,0,0.2,0,0.1c0-0.1,0.1-0.3,0.1-0.3c0,0.1,0,0,0,0
					c0,0.1-0.1,0.2-0.1,0.3c0,0,0,0,0,0.1c0,0.2-0.1,0.6-0.2,0.7c0-0.1,0.1-0.4,0.1-0.5c0,0,0-0.2,0.1-0.2c0,0-0.2,0.8-0.2,0.7
					c0,0,0.2-0.7,0.3-0.9c0.1-0.3,0-0.1,0,0.1c0-0.1,0.1-0.3,0.1-0.4c0,0,0,0,0,0c-0.2,0.6,0-0.1,0,0.1c-0.1,0.2-0.1,0.4-0.1,0.4
					c0,0-0.2,0.5-0.2,0.6c0-0.1,0.1-0.3,0.1-0.4c0.1-0.1,0.1-0.3,0.2-0.4c0-0.1,0-0.1,0.1-0.2l-0.1,0.3c0,0,0.1-0.3,0.1-0.3
					c0,0.1,0,0.1,0,0.1c0,0,0-0.1,0-0.1c-0.1,0.2-0.2,0.5-0.3,0.7c0,0.1,0,0.1,0,0.1c0,0,0.1-0.1,0.1-0.2c0.1-0.2-0.1,0.2-0.1,0.3
					c0,0-0.1,0.1,0,0c0-0.1,0.1-0.2,0.2-0.4c0-0.1,0.2-0.5,0.2-0.5c0,0.1-0.3,0.6-0.4,0.7c-0.1,0.1,0,0,0-0.1
					c0.1-0.1,0.2-0.5,0.3-0.5c0,0-0.1,0.1,0,0.1c0,0,0.1-0.1,0.1-0.1c0,0.1-0.2,0.3-0.2,0.4c0,0,0.1-0.2,0.1-0.2c0,0,0.1-0.2,0,0
					c-0.1,0.2-0.2,0.4-0.3,0.4c0.1-0.2,0.5-0.8,0.4-0.6c0,0-0.5,0.7-0.6,0.8c0,0,0.4-0.6,0.4-0.6c0,0-0.4,0.6-0.5,0.7
					C31.2,30.8,30.9,31.2,31,31z"/>
				<path class="st4" d="M32,29.8L32,29.8L32,29.8z"/>
				<path class="st4" d="M33,30.7C33.1,30.8,32.9,30.6,33,30.7L33,30.7z"/>
				<path class="st4" d="M32,29.9c0,0,0.2,0.5,0.2,0.5c0,0,0-0.1,0.1,0.1c0,0.1,0,0,0,0.1c0.1,0.2,0.2,0.4,0.3,0.5
					c0.1,0.1,0.1,0.1,0-0.1c0-0.1-0.3-0.5-0.2-0.3c0,0.1,0.2,0.2,0.2,0.3c0.1,0.1,0,0,0,0c0,0-0.1-0.2-0.1-0.2c0-0.1,0,0,0.1,0
					c0,0,0.2,0.2,0-0.1c0,0-0.3-0.4-0.2-0.3c0.1,0.1,0.2,0.2,0.3,0.3c-0.1-0.1-0.2-0.3,0,0c0.1,0.1-0.1-0.1-0.1-0.1
					c0,0,0.2,0.1,0.2,0.2c0,0-0.2-0.2-0.1-0.1c0.1,0.1,0.2,0.2,0.2,0.1c0,0-0.1-0.2-0.1-0.2c0,0,0.1,0,0.1,0c0,0,0.1,0.1,0,0
					c0,0-0.1-0.1-0.1-0.1c0,0,0,0,0,0c-0.1-0.1-0.2-0.1-0.3-0.2c-0.1-0.1-0.3-0.3-0.5-0.5C32.1,29.9,32,29.8,32,29.9
					c-0.1-0.1,0-0.1-0.1-0.1C32,29.8,32.1,29.8,32,29.9C32.2,30,32,29.8,32,29.9c0,0,0.1,0.1,0.1,0.1c-0.1-0.1-0.2-0.2-0.2-0.2
					c0,0,0.4,0.5,0.5,0.5c0.2,0.2-0.2-0.2-0.2-0.2c0,0,0.1,0.2,0.2,0.2c0,0-0.1-0.1-0.1-0.1L32,29.9c0,0,0.3,0.3,0.3,0.3
					c-0.1-0.1-0.3-0.4-0.3-0.4l0,0C31.9,29.7,32,29.8,32,29.9c0-0.1-0.1-0.1-0.1-0.1l0.2,0.3C32.2,30.1,31.9,29.7,32,29.9
					c0.1,0,0.1,0.1,0.2,0.2c0,0,0,0,0,0C32.2,30.1,31.9,29.7,32,29.9c0.1,0.1,0-0.1-0.1-0.1C31.9,29.7,32,29.8,32,29.9
					c0,0,0-0.1-0.1-0.1C32,29.8,31.9,29.7,32,29.9c0,0,0.1,0.2,0.2,0.3c0,0.1-0.1-0.1,0,0c0,0,0.1,0.1,0.1,0.1
					C32.3,30.3,32,29.9,32,29.9c0,0,0.1,0.2-0.1-0.1l0,0l0,0l0,0C31.9,29.7,32,29.9,32,29.9z"/>
				<path class="st4" d="M32,29.8C32.1,29.8,32,29.8,32,29.8L32,29.8z"/>
				<path class="st4" d="M31.9,29.7c0,0,0.2,0.2,0.3,0.2c-0.2-0.1,0.5,0.4,0.3,0.2c-0.1-0.1-0.3-0.2-0.2-0.2c0,0,0,0,0.1,0.1
					c0.3,0.3,0.3,0.2,0.4,0.3c0.1,0.1,0.4,0.3,0.4,0.3c0,0,0,0,0-0.1c0,0-0.2-0.2-0.1-0.1c0.1,0,0.1,0.1,0,0c0,0,0,0,0,0
					c0,0-0.2-0.2-0.2-0.2c0.1,0,0.3,0.2,0.3,0.2c0,0-0.1-0.1-0.1-0.1c-0.1-0.1-0.3-0.2-0.2-0.2c-0.2-0.1,0,0-0.1-0.1
					c-0.1,0-0.4-0.2-0.4-0.2c0,0,0.4,0.3,0.5,0.3c0.1,0.1,0.2,0.1,0.3,0.1c0,0,0.2,0,0.2,0.1c0,0-0.3-0.2-0.4-0.2
					c0,0,0.3,0.1,0.3,0.1c0,0-0.1-0.1-0.2-0.1c-0.1-0.1-0.1-0.1,0.1,0c0.1,0.1,0.1,0,0.1,0c0,0,0,0-0.1-0.1c0,0-0.3-0.1-0.2-0.1
					c0.3,0.1,0.3,0.1-0.1-0.1c0,0,0.3,0.1,0.3,0.1c0,0,0.2,0,0.1,0c0,0-0.6-0.2-0.4-0.2c0.1,0,0.3,0.1,0.3,0.1c0,0-0.2-0.1-0.3-0.1
					c0,0-0.3-0.1-0.4-0.1c0,0-0.1,0-0.3-0.1C32.1,29.8,32.2,29.8,31.9,29.7C32,29.8,32,29.8,31.9,29.7L31.9,29.7L31.9,29.7
					C32,29.7,31.9,29.7,31.9,29.7c0.1,0.1,0.5,0.2,0.3,0.1c-0.2-0.1-0.1,0,0.1,0C32.2,29.8,32,29.8,31.9,29.7
					C32,29.8,32,29.7,31.9,29.7L31.9,29.7L31.9,29.7c0,0,0.1,0,0.1,0.1c0.2,0.1,0.3,0.1,0.2,0.1C32.2,29.9,32,29.8,31.9,29.7
					c0,0-0.1,0,0.2,0.1c0.2,0.1,0.2,0.1,0.3,0.2C32.4,30,32.1,29.8,31.9,29.7L31.9,29.7L31.9,29.7c0.1,0.1,0.2,0.1,0.3,0.2
					c0,0,0,0-0.1-0.1C32.1,29.9,32,29.7,31.9,29.7L31.9,29.7L31.9,29.7L31.9,29.7L31.9,29.7L31.9,29.7L31.9,29.7L31.9,29.7
					L31.9,29.7L31.9,29.7L31.9,29.7L31.9,29.7c0.1,0.1,0.2,0.2,0.2,0.2C32.1,29.9,32,29.7,31.9,29.7z"/>
				<path class="st4" d="M32,29.7L32,29.7L32,29.7z"/>
				<path class="st4" d="M32.1,29.8L32.1,29.8c-0.1,0-0.1,0-0.1,0C32.1,29.8,32.1,29.8,32.1,29.8z"/>
				<path class="st4" d="M31.9,29.7L31.9,29.7L31.9,29.7z"/>
				<path class="st4" d="M33.4,30.2C33.4,30.2,33.4,30.2,33.4,30.2C33.3,30.2,33.2,30.1,33.4,30.2c-0.1-0.1-0.2-0.2-0.1-0.1
					C33.3,30.1,33.4,30.1,33.4,30.2c0.1-0.1,0-0.1,0-0.1c0,0,0.1,0-0.2-0.1c-0.1,0,0.1,0,0.2,0c-0.3-0.1,0.1,0,0.1-0.1
					c0,0-0.7-0.1-1-0.1c0,0,0,0-0.1,0c-0.1,0-0.3,0-0.4,0c0,0,0.2,0,0.2,0c0.1,0-0.2,0-0.2,0c0.1,0,0.2,0,0.3,0c0.1,0,0,0,0,0
					c0,0,0.6,0.1,0.4,0.1c-0.1,0-0.6-0.1-0.6-0.1c0,0-0.1,0-0.1,0l0,0l0,0l0,0l0,0c0,0,0.1,0,0.3,0.1c0.1,0,0.3,0,0.4,0.1
					c0.1,0-0.1,0-0.1,0c0,0,0,0,0,0c0,0-0.3-0.1-0.3-0.1c0,0,0.1,0,0,0c0,0-0.2,0-0.3-0.1c-0.1,0,0,0-0.1,0c0,0,0.1,0,0.1,0
					c0.1,0,0.1,0,0.3,0.1c0.1,0,0.4,0.1,0.5,0.1c0.1,0-0.2,0-0.2,0c0,0,0.3,0.1,0.4,0.1C33.1,30.1,33.2,30.1,33.4,30.2
					c-0.3-0.1-0.5-0.2-0.7-0.2c0,0-0.2-0.1-0.3-0.1c0,0,0.1,0,0,0c-0.1,0-0.2-0.1-0.3-0.1c0,0-0.1,0-0.2-0.1l0,0c0,0,0.1,0,0.1,0
					c0,0-0.1,0-0.1,0l0,0c0.1,0,0.2,0.1,0.2,0.1c0,0,0.3,0.1,0.3,0.1C32.6,30,33.3,30.2,33.4,30.2z"/>
				<path class="st4" d="M32.3,29.8C32.4,29.8,32.4,29.8,32.3,29.8C32.4,29.8,32.3,29.8,32.3,29.8z"/>
				<path class="st4" d="M32.8,29.8c0.1,0,0.1,0,0.4,0c0.2,0,0.1,0,0.1,0C33.3,29.8,33.3,29.8,32.8,29.8c0-0.1,0.3-0.1,0.4-0.1
					c0,0-0.5,0-0.6,0c-0.2,0-0.4,0,0,0c-0.1,0-0.3,0-0.5,0c-0.1,0-0.1,0-0.1,0l0,0l0,0c0,0-0.1,0,0.1,0c0.1,0,0.2,0,0.4,0
					C32.6,29.8,32.8,29.8,32.8,29.8l-0.3-0.1l0,0c0,0,0,0,0,0c-0.2,0-0.3,0-0.5,0c0.2,0,0.4,0,0.5,0c-0.1,0-0.4,0-0.2,0
					c0.2,0,0.3,0,0.4,0C32.7,29.8,32.8,29.8,32.8,29.8z"/>
				<polygon class="st4" points="31.9,29.7 31.9,29.7 31.9,29.7 				"/>
			</g>
		</g>
	</g>
	<g>
		<circle class="st4" cx="31.9" cy="35.9" r="0.6"/>
		<g>
			<g>
				<polygon class="st4" points="31.9,35.9 31.9,35.9 31.9,35.9 				"/>
				<path class="st4" d="M31.9,35.9L31.9,35.9L31.9,35.9z"/>
				<polygon class="st4" points="31.9,35.9 31.9,35.9 31.9,35.9 				"/>
				<path class="st4" d="M32.1,35.6C31.9,36.2,32.1,35.6,32.1,35.6L32.1,35.6z"/>
				<path class="st4" d="M31.9,35.9C31.9,35.9,31.9,35.9,31.9,35.9C31.9,35.9,31.9,36,31.9,35.9L31.9,35.9z"/>
				<path class="st4" d="M31.9,35.9L31.9,35.9C32,35.9,32,35.9,31.9,35.9z"/>
				<path class="st4" d="M33,35.9C33.2,35.9,33.1,35.9,33,35.9C32.9,35.9,33,35.9,33,35.9c0,0-0.6,0-0.4,0c0.2,0,0.4,0,0.6,0
					c0.2,0,0.4,0,0.2,0C33.2,35.8,33.2,35.8,33,35.9c-0.1-0.1,0.3-0.1,0.3-0.1C33.3,35.8,33.2,35.8,33,35.9c0-0.1,0.3-0.1,0.3-0.1
					c0,0,0,0,0.1,0c0.1,0-0.1,0-0.2,0c-0.2,0-0.2,0-0.2,0c0.2,0,0.3,0,0.5-0.1c0.2,0-0.1,0-0.1,0c-0.1,0,0,0,0,0c0,0-0.2,0-0.2,0
					c0,0,0.8-0.2,0.2-0.1c-0.2,0-0.1,0,0,0c0.1,0,0.1,0,0,0c-0.2,0,0,0,0.1-0.1c0.2-0.1-0.3,0.1-0.5,0.1c0.1,0,0.1,0,0.3-0.1
					c0.1,0,0.1,0,0.1-0.1c0.1-0.1,0-0.1,0-0.1c0,0,0.1-0.1,0-0.1c0,0-0.3,0.1-0.4,0.2c0.1,0,0.1,0,0.1-0.1c0.1,0,0.1-0.1,0.2-0.1
					c0.1,0,0,0,0,0c0,0-0.1,0-0.1,0c0,0,0.1-0.1,0-0.1c0,0-0.4,0.2-0.3,0.1c0.1-0.1,0.4-0.3,0.3-0.2c0,0-0.4,0.2-0.1,0
					c0,0-0.1,0.1-0.2,0.1c0.5-0.3,0.3-0.3,0.2-0.3c0,0,0-0.1-0.2,0.1c0,0,0,0,0-0.1c0,0,0,0,0,0c0,0,0-0.1,0-0.1c0,0,0,0-0.1,0.1
					c-0.1,0.1-0.1,0.1-0.1,0.1c0,0,0,0,0.1-0.1c0,0-0.1,0,0,0c0,0,0.2-0.2,0-0.1c-0.1,0.1-0.2,0.2-0.2,0.2c0,0,0.2-0.2,0.2-0.2
					c0.1-0.1-0.2,0.1-0.2,0.1c0,0,0-0.1,0-0.1c0,0,0.1-0.2,0,0c-0.1,0.1-0.1,0.2-0.2,0.3c0.1-0.1,0.2-0.3,0.2-0.4
					c0.1-0.1-0.2,0.3-0.2,0.4c0,0,0.3-0.4,0.3-0.6c0.1-0.1-0.1,0.1-0.1,0.1c0,0,0-0.1-0.1,0l-0.1,0.1c0,0,0,0-0.1,0.1
					c0,0-0.1,0.3-0.1,0.3s0.3-0.6,0.3-0.6c0-0.1,0,0-0.1,0c0,0,0-0.2-0.2,0.2c0.1-0.2,0-0.1,0-0.1c0,0,0-0.2,0-0.1
					c-0.1,0.1-0.1,0.3-0.1,0.4c-0.1,0.3,0.1-0.4,0.1-0.4c0,0-0.2,0.6-0.2,0.7c0-0.1,0.3-0.9,0.2-0.7c-0.1,0.1,0,0-0.1,0.2
					c0,0.1-0.1,0.3-0.1,0.2c0-0.2,0-0.4,0-0.2c0.1-0.6,0-0.3-0.1,0.2c0-0.1,0-0.3,0-0.4c0-0.2,0-0.1,0-0.1c0,0,0-0.1-0.1,0.1
					c0-0.1,0-0.1,0-0.1c0,0,0,0.1,0,0.4c0,0,0-0.4,0-0.5c0,0.1,0,0.2,0,0.3c0-0.5,0-0.3-0.1-0.3c0,0,0,0.5,0,0.7c0,0.2,0,0.4,0,0.5
					c0,0.1,0,0,0-0.1c0-0.2,0-0.4,0-0.7c0,0,0-0.3,0-0.3c0,0,0,0.1,0,0.1c0-0.1,0-0.1,0-0.1c0,0,0,0,0,0.1c0,0.1,0.1,0.8,0.1,0.8
					c0-0.1-0.1-0.7-0.1-0.2c0,0.2,0.1,0.4,0.1,0.6c0,0.1,0-0.3,0-0.2c0,0.1,0,0.3,0,0.4l0,0c0,0,0-0.4,0-0.6c0-0.1,0-0.3,0-0.3
					c0,0,0-0.1,0,0c0,0.1,0,0.2,0,0.3c0,0.1,0,0.3,0,0.4c0-0.3,0-0.2,0-0.3c0,0,0,0.1,0,0.2c0,0.1,0,0,0,0s0,0.1,0,0.2
					c0,0.1,0,0.1,0,0.1l0,0c0-0.2,0-0.4,0-0.3c0,0,0,0.4,0,0.2c0-0.2,0,0.2,0,0c0-0.1,0.1-0.8,0.1-0.8c0,0,0,0.4-0.1,0.5
					c0,0.2,0,0.1,0,0.3c0,0,0,0,0,0l0,0c0,0,0,0,0-0.1c0-0.2,0-0.1,0-0.1c0,0,0.1-0.4,0.1-0.3c0,0,0,0.2,0,0.3c0,0.1,0,0.1,0,0.2
					c0,0,0,0,0,0c0-0.1,0-0.1,0-0.2c0-0.2,0-0.1,0-0.1c0,0,0,0.1,0,0c0-0.2,0.1-0.3,0-0.1C32,35.7,32,35.7,32,35.9c0,0,0,0,0,0
					c0,0,0,0,0,0c0-0.1,0,0,0.1-0.3c0,0.2-0.1,0.2,0,0.1c0-0.1,0.1-0.3,0.1-0.4c0.1-0.3,0,0.2-0.1,0.2c0,0.1-0.1,0.3-0.1,0.4
					c0,0,0,0,0,0c0,0,0,0,0,0c0,0,0,0.1,0,0.1c0-0.1,0.1-0.2,0.1-0.4c0.1-0.2,0.1-0.2,0.1-0.1c0,0.1-0.3,0.6-0.2,0.4
					c0,0,0.1-0.3,0.1-0.2c0,0.1-0.1,0.2-0.1,0.3l0,0c0,0,0-0.1,0-0.1c0,0,0.1-0.2,0.1-0.3c0.1-0.1,0,0,0.1-0.2c0,0,0.2-0.3,0.1-0.1
					c-0.1,0.1-0.1,0.2-0.1,0.2c0,0,0.1-0.1,0.1-0.2c0,0.1-0.3,0.5-0.4,0.6c0.1-0.1,0.2-0.3,0.2-0.3c0-0.1,0.1-0.2,0-0.1
					c0,0,0.2-0.4,0.2-0.4c0,0-0.4,0.6-0.5,0.7c0,0,0.2-0.3,0.2-0.3c-0.2,0.3,0,0.1-0.1,0.2c0,0.1-0.1,0.2-0.1,0.2c0,0,0,0,0,0
					c0-0.1,0,0,0,0l0,0c0.1-0.1,0.2-0.3,0.3-0.3c0.1-0.1-0.1,0.2-0.2,0.2c-0.1,0.1-0.1,0.1-0.1,0.1c0.1-0.1,0.2-0.2,0.2-0.3
					c0.1-0.1,0.2-0.2,0,0c-0.3,0.4,0.3-0.3,0.3-0.3c-0.1,0.1-0.3,0.3-0.3,0.3s0.1-0.1,0,0c0,0,0.1-0.1,0,0c-0.1,0.1-0.2,0.2-0.1,0.1
					c0.1-0.1,0.4-0.4,0.4-0.4c0,0,0.1-0.1,0.1-0.1c0,0-0.1,0.1-0.2,0.2L32,35.9c0.1-0.1,0.1-0.1,0.2-0.2c0.2-0.2,0.1-0.1,0,0
					c-0.3,0.2,0.2-0.2-0.1,0.1c0,0,0.3-0.2,0.2-0.1c0,0-0.4,0.3-0.3,0.2c0.1-0.1,0.3-0.2,0.3-0.2c0,0-0.1,0.1-0.2,0.1
					c0,0,0.1-0.1,0,0c-0.1,0.1-0.1,0.1-0.1,0.1c0,0,0,0,0.1-0.1c0.1-0.1,0.3-0.2,0.3-0.2c0.1,0,0.2-0.1,0.2-0.2
					c0.1-0.1-0.1,0.1-0.1,0.1c-0.1,0.1-0.3,0.2-0.5,0.3c0.1-0.1,0.2-0.1,0.2-0.1c0,0-0.2,0.1-0.2,0.1c-0.1,0,0,0,0,0
					c0,0,0.1,0,0.1-0.1c0.1,0,0.1-0.1,0.3-0.2c0,0,0.3-0.1,0.2-0.1c-0.1,0-0.5,0.3-0.5,0.3c0,0,0.3-0.2,0.3-0.2s-0.2,0.1-0.2,0.1
					c0,0,0,0,0.1,0c0.1,0,0.1-0.1,0.3-0.1c0.1,0-0.1,0.1-0.3,0.1c-0.1,0.1,0.3-0.1,0.2-0.1c0,0,0.3-0.1,0.5-0.2
					c-0.2,0.1-0.3,0.1-0.5,0.2c-0.1,0-0.2,0.1-0.3,0.1c0.3-0.1,0.3-0.1,0.3-0.1c0,0-0.3,0.1-0.4,0.1c0.2-0.1,0.2,0,0.2,0
					c0,0,0.3-0.1,0.3-0.1c0,0-0.7,0.2-0.2,0.1c0,0-0.4,0.1-0.2,0c0.2,0,0.3,0,0.5-0.1c-0.2,0-0.4,0.1-0.6,0.1c0.2,0,0.4-0.1,0.6-0.1
					c-0.1,0-0.5,0.1-0.5,0.1c0.1,0,0.5-0.1,0.8-0.1c0,0-0.5,0.1-0.6,0.1c-0.2,0,0,0-0.1,0c-0.1,0-0.2,0-0.2,0c0.1,0,0.2,0,0.2,0
					c0,0,0,0-0.1,0c0,0-0.1,0-0.2,0c0,0,0.2,0,0.3,0c0.3,0,0.4,0,0.3,0c0,0,0.1,0,0.2,0C32.6,35.9,32.9,35.9,33,35.9z"/>
				<path class="st4" d="M32.2,35.9c0,0-0.1,0-0.1,0C32.1,35.9,32.1,35.9,32.2,35.9z"/>
				<path class="st4" d="M31.9,35.6c0,0,0-0.1,0,0.1c0,0.2,0,0.1,0,0.1L31.9,35.6C31.9,35.6,31.9,35.6,31.9,35.6z"/>
				<path class="st4" d="M31.7,34.5C31.7,34.3,31.7,34.6,31.7,34.5c-0.1-0.2,0,0.2,0,0.3c-0.1-0.2-0.1-0.3-0.1-0.2
					c0,0.1,0.1,0.3,0.1,0.4c-0.1-0.3-0.3-0.8-0.1-0.3c0.1,0.2,0,0.2,0,0c-0.1-0.2-0.1-0.3-0.1-0.3c-0.1-0.1,0.2,0.5,0.2,0.6
					c0,0.1,0.3,0.8,0.3,0.9c0,0-0.1-0.2,0-0.1c0,0,0,0.1,0,0.1c0-0.1-0.1-0.3-0.1-0.4c0-0.1,0-0.1-0.1-0.2c0.1,0.2,0.1,0.5,0.1,0.3
					c0-0.1-0.1-0.5-0.1-0.6l0.2,0.7c0,0-0.1-0.3-0.1-0.3c0-0.1,0,0,0,0.1c0,0,0-0.1,0,0.1c0,0,0,0.2,0,0.2c0,0-0.1-0.3-0.1-0.4
					c0,0,0,0.2,0.1,0.4c0-0.1,0-0.3,0-0.3c0-0.1,0-0.1,0-0.3C31.8,34.9,31.7,34.7,31.7,34.5z"/>
				<path class="st4" d="M31.5,34.5C31.5,34.4,31.4,34.4,31.5,34.5L31.5,34.5z"/>
				<path class="st4" d="M31.5,34.6c-0.1-0.2,0.1,0.3,0.2,0.5c0-0.1-0.3-0.7-0.2-0.6c0,0.1,0.1,0.3,0.1,0.4c0,0,0,0.1,0,0
					c0,0-0.1-0.1-0.1-0.2c-0.1-0.2-0.1-0.1,0,0.1c-0.1-0.2,0.1,0.3,0,0.1c-0.1-0.1-0.1-0.3-0.2-0.3c0,0,0.1,0.4,0.2,0.6
					c-0.1-0.2-0.2-0.3-0.3-0.5c0.1,0.2,0.3,0.7,0.3,0.7c-0.1-0.2-0.3-0.6-0.3-0.5c0,0.1,0.2,0.3,0.3,0.5c0.1,0.2-0.2-0.4-0.2-0.4
					c0,0,0.2,0.3,0.1,0.1c0,0-0.1-0.1-0.1-0.2c0,0.1,0.1,0.2,0.1,0.2c-0.2-0.3-0.2-0.3-0.3-0.4c0-0.1,0,0,0.1,0.1
					c-0.1-0.1-0.2-0.2-0.2-0.2c0,0,0.1,0.1,0.1,0.2c0,0.1,0.1,0.1,0.1,0.2c0,0-0.2-0.2-0.2-0.3c0,0,0.1,0.1,0.1,0.2
					c0,0,0,0.1,0.1,0.1c0.2,0.3,0.3,0.5,0.6,0.8c0.1,0.1,0.1,0.1,0.1,0.2l0,0l0,0l0,0c-0.1-0.2-0.2-0.3-0.3-0.4c0,0-0.3-0.5-0.3-0.6
					c0.1,0.1,0.1,0.2,0.2,0.4c0,0.1,0.1,0.2,0.1,0.2c0.1,0.1,0.2,0.4,0.2,0.4c0,0,0,0,0,0.1c0,0,0,0-0.1-0.2c0,0,0,0,0,0
					c0,0,0.1,0.2,0.1,0.2c0,0,0,0,0-0.1c-0.1-0.2,0.1,0.2,0,0.1c-0.1-0.2-0.1-0.2-0.2-0.4c0-0.1-0.2-0.4-0.1-0.3
					c0.1,0.2,0.2,0.5,0.3,0.7c0,0,0,0,0-0.1c-0.1-0.2-0.2-0.6-0.2-0.7C31.6,35,31.6,34.8,31.5,34.6z"/>
				<path class="st4" d="M31.8,35.7c0.1,0.1,0.1,0.2,0.1,0.2C31.9,35.9,31.8,35.7,31.8,35.7z"/>
				<path class="st4" d="M31.2,35L31.2,35C31.3,35.2,31.4,35.3,31.2,35z"/>
				<path class="st4" d="M31.6,35.5c-0.2-0.2-0.4-0.5-0.6-0.7c0,0,0.1,0.2,0.3,0.3c0.2,0.2,0,0,0,0c0.1,0.1,0.2,0.2,0,0.1
					C31.2,35.1,31,35,31,34.9c-0.3-0.2,0.3,0.3,0.3,0.4c0,0-0.4-0.4-0.4-0.4c-0.1,0-0.1,0,0.2,0.2c0,0-0.2-0.1-0.2-0.2
					c0,0-0.1,0,0.1,0.2c-0.3-0.3,0,0.1-0.1,0c0,0,0,0,0,0c0.1,0.1,0.4,0.3,0.7,0.5c0.2,0.1,0.1,0.1,0.2,0.2c0,0,0.4,0.3,0.2,0.2
					c-0.1-0.1-0.2-0.1-0.2-0.1c0,0,0,0,0,0c0,0-0.2-0.2-0.3-0.3c-0.2-0.2,0.5,0.4,0.4,0.4c0,0-0.2-0.2-0.1-0.1
					c0.1,0.1,0.2,0.2,0.3,0.3c0,0-0.2-0.2-0.2-0.2c0,0,0.1,0.1,0,0c-0.1-0.1-0.1-0.2-0.1-0.1c0,0,0.1,0.1,0.1,0.1
					c0.1,0.1,0.1,0.1,0.2,0.2C31.9,35.8,31.7,35.7,31.6,35.5c0.1,0.1,0.3,0.4,0.4,0.4c-0.1-0.1-0.2-0.2-0.2-0.3c0,0,0.1,0.1,0.1,0.1
					c0.1,0.1-0.4-0.5,0,0c0.1,0.1,0.2,0.2,0.1,0.2c0,0,0,0-0.1-0.1c-0.1-0.1,0,0,0,0c0.1,0.1,0,0,0,0c-0.2-0.2-0.4-0.6-0.6-0.8
					C30.9,34.5,31.4,35.4,31.6,35.5z"/>
				<path class="st4" d="M30.8,35.1C30.8,35.1,30.8,35.1,30.8,35.1C30.8,35.1,30.7,35,30.8,35.1z"/>
				<path class="st4" d="M31.6,35.8c0,0,0.3,0.1,0.3,0.1C31.9,35.9,31.6,35.8,31.6,35.8z"/>
				<path class="st4" d="M31.9,35.9c0.1,0-0.1,0-0.1,0C31.8,35.9,31.8,35.9,31.9,35.9z"/>
				<path class="st4" d="M31.5,35.6c-0.1,0-0.2-0.1-0.2-0.2c-0.1-0.1,0.2,0.1-0.2-0.1c-0.1-0.1-0.4-0.3-0.3-0.2
					c0.1,0.1,0.3,0.2,0.4,0.3c-0.1-0.1-0.4-0.3-0.4-0.3c0,0,0.2,0.1-0.1,0c0.1,0.1,0.3,0.2,0.3,0.2c-0.1,0-0.5-0.3-0.5-0.3
					c0,0,0.3,0.2,0.3,0.2c0.3,0.2-0.3-0.2-0.3-0.2c0,0,0.1,0.1,0.2,0.1c0,0,0.2,0.1,0.3,0.2c0,0-0.3-0.2-0.4-0.2c0,0,0,0-0.1,0
					c-0.1-0.1-0.1-0.1,0,0c0.1,0,0.1,0,0,0c0,0-0.3-0.1-0.2-0.1c0.1,0,0.3,0.1,0.3,0.2c0,0-0.1,0-0.2-0.1c-0.4-0.2,0.1,0.1,0.2,0.1
					c0,0-0.3-0.1-0.3-0.1c0,0,0.1,0.1,0.2,0.1c0.1,0-0.3-0.1-0.3-0.1c-0.1,0,0.1,0.1,0.2,0.1c0.1,0.1,0.2,0.1,0.4,0.2
					c0.1,0,0.3,0.1,0.1,0.1c-0.1,0-0.4-0.1-0.4-0.1c0,0-0.2,0-0.3,0c-0.3,0,0.5,0.2,0,0.1c0.2,0.1,0.5,0.1,0.4,0.1
					c-0.1,0-0.5-0.1-0.4,0c0,0,0.7,0.1,0.7,0.1c0.3,0.1,0.5,0.1,0.7,0.1c0.2,0,0.1,0,0.1,0c0,0-0.4-0.1-0.5-0.1c0.1,0,0.2,0,0.3,0.1
					c-0.1,0-0.3-0.1-0.4-0.1c-0.2,0,0.1,0,0.2,0c0.2,0,0.5,0.1,0.1,0c-0.1,0-0.5-0.1-0.4-0.1c0.1,0,0.5,0.1,0.6,0.2
					c0.2,0,0.1,0,0.1,0c0,0,0.1,0-0.4-0.1c0.2,0.1-0.1,0-0.1,0c0,0,0.2,0.1,0.2,0.1c0,0-0.6-0.2-0.4-0.2c0.1,0,0.3,0.1,0.4,0.2
					c0.1,0-0.1,0-0.1,0c-0.1,0,0,0,0.2,0.1c0.2,0.1,0.1,0,0.1,0c0.2,0.1,0.3,0.1,0.1,0c0,0,0.2,0.1,0.1,0c0,0-0.2-0.1-0.4-0.2
					c-0.1,0-0.2-0.1-0.3-0.1c-0.1,0-0.4-0.2-0.3-0.2C31.1,35.6,31.3,35.6,31.5,35.6c0.1,0.2,0.2,0.2,0.2,0.2c0,0,0.2,0.1,0.2,0.1
					c0,0-1.6-0.8-0.3-0.1c0.2,0.1,0.3,0.2,0.2,0.1c-0.1,0-0.5-0.3-0.5-0.3s0.6,0.3,0.6,0.4c-0.1-0.1-0.7-0.4-0.7-0.4
					c0,0,0.5,0.3,0.6,0.3c0,0,0,0,0,0c0,0,0.1,0.1,0.1,0.1C31.9,35.9,31.6,35.7,31.5,35.6c0.1,0.1,0.3,0.2,0.4,0.3c0,0,0,0-0.1,0
					C31.8,35.8,31.4,35.6,31.5,35.6c0,0,0.3,0.2,0.4,0.3c0.1,0.1-0.1,0-0.2-0.1C31.6,35.7,31.7,35.7,31.5,35.6z"/>
				<path class="st4" d="M31.1,35.8c-0.2,0-0.5-0.1-0.3,0c0,0,0,0,0,0l0.6,0.1C31.2,35.8,31.2,35.8,31.1,35.8
					C31.2,35.8,31.6,35.9,31.1,35.8z"/>
				<path class="st4" d="M31.7,35.9c0.1,0,0.4,0,0.3,0C31.9,35.9,31.7,35.9,31.7,35.9z"/>
				<path class="st4" d="M30.1,35.7c0,0,0.2,0,0.2,0c0,0-0.1,0-0.1,0c0,0,0.1,0,0.2,0.1c0,0,0.2,0,0.2,0s-0.3,0-0.3,0
					c0.1,0,0.4,0,0.6,0.1l0.8,0.1c0,0-0.5,0-0.5-0.1c0,0,0.6,0.1,0.6,0.1c-0.5,0-0.2,0-0.4,0c-0.2,0-0.6-0.1-0.6-0.1
					c0,0,0.3,0,0.4,0.1c0.2,0,0.5,0.1,0.6,0.1c0,0-0.7-0.1-0.8-0.1c-0.2,0-0.7-0.1-0.8-0.1C30.4,35.7,30.4,35.7,30.1,35.7z"/>
				<path class="st4" d="M30.2,35.9c0,0,0,0,0.2,0.1c0.1,0,0.4,0,0.5,0c-0.1,0-0.6,0-0.6,0c0,0,0,0,0,0c0.1,0,0.1,0,0.1,0
					c0,0-0.2,0.1,0.1,0c0,0,0.9-0.1,0.7-0.1c0,0-0.3,0-0.3,0c-0.1,0-0.2,0-0.3,0c-0.2,0-0.2,0.1-0.2,0.1c0,0,0,0,0.1,0
					c0.2,0,0.1,0,0.1,0c0,0,0.3-0.1,0.4-0.1c0.2,0,0.5-0.1,0.6-0.1c0.2,0,0,0,0.1,0c0.2,0,0.2,0,0.2,0c-0.1,0-0.1,0-0.5,0.1
					c-0.1,0-0.4,0-0.3,0c0.1,0-0.2,0-0.3,0c-0.1,0-0.4,0-0.3,0c0,0,0.3,0,0.3,0c0.2,0,0.3,0,0.4-0.1c0,0,0.3-0.1,0.4-0.1
					c0,0-0.1,0,0,0c0.1,0,0.3,0-0.2,0c-0.2,0-0.1,0-0.2,0c-0.1,0-0.1,0-0.2,0c0,0,0.4,0,0.4,0c0.2,0,0.1,0,0.1,0c0.2,0-0.5,0-0.7,0
					c-0.1,0,0,0,0,0c0,0,0.2,0,0.2,0c0.2,0,0.4,0,0.3,0c-0.1,0-0.4,0-0.6,0c0,0-0.3,0-0.3,0c0,0,0.5,0,0.6,0c0.1,0,0.4,0,0.5,0
					c0.1,0-0.2,0-0.4,0c-0.1,0-0.2,0-0.3,0c-0.1,0-0.1,0,0,0C31,35.9,30.2,35.8,30.2,35.9z"/>
				<path class="st4" d="M30.6,36.3C30.4,36.3,31,36.2,30.6,36.3L30.6,36.3z"/>
				<path class="st4" d="M30.8,36.2c0,0-0.2,0.1-0.3,0.1c-0.1,0,0.1,0,0.2,0c0.1,0,1-0.2,0.8-0.2c0.2,0,0.3-0.1,0.2-0.1
					c0.2-0.1,0,0-0.1,0C31.4,36.1,31.2,36.1,30.8,36.2C30.1,36.3,30.8,36.2,30.8,36.2z"/>
				<path class="st4" d="M30.5,36.6C30.4,36.7,30.4,36.7,30.5,36.6L30.5,36.6C30.5,36.6,30.6,36.6,30.5,36.6z"/>
				<path class="st4" d="M31.2,36.5C31.2,36.5,31.2,36.5,31.2,36.5c0.1-0.1,0.1-0.1,0.1-0.1c0.1-0.1,0.2-0.1,0.2-0.1
					c0,0-0.4,0.3-0.4,0.3C31.1,36.5,31.2,36.5,31.2,36.5z"/>
				<path class="st4" d="M31.2,36.5c-0.1,0,0.2-0.1,0.1-0.1L31.2,36.5C31.3,36.4,31.2,36.4,31.2,36.5z"/>
				<path class="st4" d="M31.8,36C31.8,36,31.8,36.1,31.8,36C32,35.9,31.8,36,31.8,36z"/>
				<path class="st4" d="M31.6,36c0,0-0.4,0.1-0.4,0.1c0,0,0.2,0,0.2-0.1C31.5,36.1,31.6,36.1,31.6,36c0,0,0.1,0,0.2-0.1
					c-0.2,0.1-0.4,0.1-0.6,0.2c0.2,0,0.6-0.2,0.5-0.2c-0.1,0-0.4,0.2-0.5,0.2c0,0-0.1,0-0.1,0c-0.1,0,0,0,0.1,0
					C31.2,36.2,31.4,36.2,31.6,36c0.1,0,0.2,0,0.3-0.1c0,0-0.4,0.2-0.5,0.2c0,0,0.1,0,0.2-0.1c0.1,0,0.2-0.1,0.3-0.1
					c0.1,0,0.1-0.1,0.1-0.1c0,0,0,0-0.2,0.1c0.1,0,0.1-0.1,0.2-0.1C31.9,36,31.7,36.1,31.6,36c-0.3,0.2-0.6,0.4-0.9,0.6
					c0.2-0.1,0.5-0.2,0.7-0.3C31.4,36.2,31.5,36.2,31.6,36c0.2,0,0,0.1,0,0.1c-0.1,0.1-0.6,0.3-0.5,0.3C31.1,36.4,31.6,36.2,31.6,36
					c0.4-0.1,0.2,0,0.2,0c0,0,0.2-0.1,0.1,0c0,0-0.3,0.2-0.3,0.2c-0.1,0.1-0.5,0.3-0.5,0.3s0.5-0.3,0.6-0.3c0,0-0.1,0.1-0.1,0
					c0,0,0.2-0.1,0.3-0.2c0.1,0,0.1-0.1,0.1-0.1c0,0,0,0,0,0C31.9,36,31.8,36.1,31.6,36c0.2,0,0.5-0.2,0.3,0
					c-0.2,0.2-0.7,0.5-0.9,0.7c0,0,0.2-0.1,0.2-0.1c0.1-0.1,0.3-0.2,0.4-0.3c0.3-0.3-0.1,0.1-0.1,0.1s0.4-0.3,0.3-0.2
					c0,0,0.2-0.1,0.2-0.1c0,0-0.2,0.2-0.2,0.2c0,0,0.2-0.2,0.4-0.3c-0.1,0.1-0.5,0.4-0.6,0.6l0.3-0.2c0.1,0,0.2-0.2,0.3-0.3
					c0,0,0,0,0,0c0.1-0.1,0.1-0.1,0.1-0.1s0,0-0.1,0.1c-0.5,0.5,0.2-0.2,0.1-0.1c-0.1,0.1-0.4,0.4-0.5,0.5c-0.2,0.2-0.5,0.5-0.6,0.6
					c-0.1,0.1,0,0,0.1-0.2c0.1-0.1,0.2-0.2,0.3-0.3c-0.1,0.1-0.3,0.3-0.5,0.5c0.1-0.1,0.7-0.7,0.5-0.6c-0.2,0.2-0.4,0.4-0.5,0.5
					c-0.1,0.1-0.3,0.2,0-0.1c-0.2,0.2-0.1,0.1,0,0c0,0,0.3-0.3,0.1-0.1c-0.2,0.1-0.3,0.3-0.3,0.2c0.1-0.1,0,0-0.1,0
					c0.2-0.2-0.1-0.1-0.1-0.1c0,0,0,0,0.1-0.1c0,0,0.3-0.2,0.3-0.2c0,0-0.3,0.1-0.3,0.2c-0.1,0,0,0,0.1-0.1c0.3-0.2,0,0-0.1,0
					c-0.1,0-0.1,0-0.1,0c0,0,0.2-0.1,0.2-0.1c0,0-0.3,0.1-0.2,0.1c0,0,0.3-0.2,0.5-0.3c0.2-0.1-0.3,0.1-0.4,0.2
					c-0.3,0.1,0.1-0.1-0.1,0c0.4-0.2-0.1,0,0-0.1c0.2-0.1,0.4-0.1,0.5-0.2l0.2-0.1c-0.2,0.1-0.4,0.1-0.5,0.2c0,0-0.2,0.1-0.2,0.1
					c0,0,0,0,0.1,0c0,0-0.1,0,0,0c0.2-0.1,0.2-0.1,0.2-0.1c0,0-0.2,0,0,0c-0.1,0,0,0-0.3,0.1c0.1,0,0-0.1,0.5-0.2
					c0.2-0.1,0.3-0.1,0.5-0.1l0.2-0.1C31.5,36.1,31.5,36.1,31.6,36z M31,36.4c-0.1,0,0.1-0.1,0.3-0.1c0.1,0,0.1-0.1,0.2-0.1
					C31.3,36.2,31.2,36.3,31,36.4z"/>
				<path class="st4" d="M31.4,36.7c-0.1,0.1-0.2,0.2-0.2,0.3C31.2,37,31.5,36.5,31.4,36.7z"/>
				<path class="st4" d="M31.1,37c0.1-0.1,0.2-0.2,0.2-0.2C31.4,36.7,31.2,36.9,31.1,37c0,0-0.2,0.3,0,0.1c0.1-0.1,0.3-0.3,0.4-0.5
					c0.2-0.3,0.2-0.2,0.2-0.2c0.1-0.1,0.1-0.2,0.2-0.3c0,0,0-0.1,0.1-0.1c0-0.1,0.1-0.2,0.1-0.2l0,0l0,0L31.9,36
					c0,0-0.3,0.4-0.2,0.3c0.1-0.1,0.2-0.3,0.3-0.3l0,0c-0.1,0.1,0,0-0.1,0.1c0,0-0.4,0.5-0.6,0.6C31.1,36.8,30.9,37.2,31.1,37z"/>
				<path class="st4" d="M31.8,36.1C31.8,36.2,31.8,36.2,31.8,36.1C31.7,36.3,31.9,36,31.8,36.1z"/>
				<path class="st4" d="M31.8,36.2c0-0.1,0.1-0.2,0.1-0.3l0,0c0,0,0,0.1-0.1,0.1C31.8,36.2,31.8,36.2,31.8,36.2z"/>
				<path class="st4" d="M31.7,36.4c0.1-0.1,0.2-0.4,0.2-0.5c0-0.1-0.1,0.2-0.1,0.3C31.7,36.4,31.7,36.5,31.7,36.4z"/>
				<path class="st4" d="M31.7,36.4C31.7,36.5,31.8,36.3,31.7,36.4L31.7,36.4z"/>
				<path class="st4" d="M32,36.1c0-0.1,0,0,0-0.1C31.9,35.9,32,36,32,36.1C32,36.1,32,36.2,32,36.1z"/>
				<path class="st4" d="M32.6,37.4L32.6,37.4C32.5,37.2,32.4,37,32.6,37.4z"/>
				<path class="st4" d="M31,37.2C31.1,37.2,31.3,36.9,31,37.2c-0.1,0.2,0,0.1,0,0.1c0,0,0.1,0,0.2-0.1c0.1-0.1,0,0.1,0,0.1
					c0,0,0.3-0.5,0.1-0.2c-0.1,0.2,0,0,0,0.1c-0.1,0.2,0,0.1,0,0.1c0,0,0,0.1,0,0.1c0,0,0-0.1,0.1-0.2c0-0.1,0,0,0,0
					c0,0,0-0.1,0.1-0.1c0,0,0,0.1-0.1,0.2l0,0c-0.1,0.2,0,0.2,0,0.1c0-0.1,0,0.1,0,0.1c0,0,0.1-0.3,0.1-0.4c0-0.1,0,0.2,0,0.3
					c0,0.2,0.1-0.1,0.1-0.1c0,0,0,0.1,0-0.2c0-0.1,0,0.1,0,0.1c0,0,0-0.1,0,0.3c0,0.1,0-0.1,0-0.2c0-0.2,0-0.3,0-0.4
					c0,0.1,0-0.1,0-0.2c0-0.1,0-0.8,0-0.8c0,0,0,0.6,0,0.7c0,0.1,0,0.5,0,0.5c0,0.2,0,0.6,0,0.2c0,0.1,0,0.2,0,0.2
					c0-0.1,0-0.2,0-0.2c0,0,0,0.1,0.1,0c0,0,0-0.1,0-0.2c0,0.2,0,0.4,0.1,0.4c0,0,0-0.6-0.1-0.7c0,0.3,0,0.6,0.1,0.6
					c0,0,0.1,0,0-0.2c0,0.1,0,0.2,0.1,0.2c0,0,0-0.1,0-0.2c0,0,0.1,0.2,0.1,0.2c0,0,0-0.3-0.1-0.4c0-0.1,0-0.3,0-0.2
					c0,0,0-0.1,0-0.1c0,0,0,0,0.1,0.1c0,0.1,0.1,0.3,0.1,0.4c0,0.1,0-0.3-0.1-0.3c0-0.1,0.1,0.2,0.1,0.2c0.1,0.2,0.1,0.2,0-0.1
					c0-0.1,0.1,0,0.1,0.2c0-0.1-0.1-0.3-0.1-0.3c0,0,0.1,0.1,0.1,0.2c0,0.1-0.1-0.3-0.1-0.4c0,0.1,0,0.1,0.1,0.2
					c0,0,0.1,0.4,0.1,0.3c0,0,0-0.1,0-0.1l0,0c0,0,0,0,0,0c0-0.1-0.1-0.4-0.2-0.6c-0.1-0.1-0.1-0.3-0.1-0.3c0.1,0.2,0.2,0.4,0.2,0.5
					c0.1,0.1,0,0.1,0.1,0.1c0,0.1,0.1,0.3,0.1,0.3c0,0,0,0,0,0c0-0.1-0.1-0.3-0.2-0.4c0-0.1,0,0,0.1,0.1c0.1,0.3,0.1,0.3,0.2,0.3
					c0-0.1-0.2-0.4-0.4-0.8c-0.1-0.2-0.2-0.4-0.3-0.6c0,0.1,0.1,0.1,0.1,0.1s0-0.1-0.1-0.1l0,0c0,0.1,0,0.1,0.1,0.1c0,0,0.1,0.2,0,0
					c0,0,0-0.1-0.1-0.1l0,0l0,0c0,0.1,0.1,0.4,0.2,0.5c-0.1-0.2,0-0.1,0,0c0,0-0.1-0.3-0.1-0.3c0-0.1,0-0.1-0.1-0.2
					c0,0.1,0.1,0.3,0.1,0.4c0,0.1,0.1,0.3,0,0.2c0,0-0.1-0.2-0.1-0.2c0,0,0,0.1,0,0c0-0.1,0-0.2-0.1-0.3c0,0.2,0.3,1.2,0.2,0.9
					c0-0.1-0.2-1-0.2-1l0,0c0,0.1,0,0.1,0,0.2c0,0.1,0.1,0.3,0.1,0.3c0-0.1-0.1-0.4-0.1-0.5c0-0.2,0.1,0.4,0.1,0.3
					c0,0.1,0,0.1,0,0.1c0,0.2,0,0.1,0,0.1c0-0.1-0.1-0.6-0.1-0.5c0-0.1,0-0.1,0-0.2c0,0.1,0.1,0.5,0.1,0.6c0,0-0.1-0.5-0.1-0.6
					c0,0,0.1,0.5,0.1,0.6c0,0,0-0.2,0-0.2c0,0,0,0,0-0.1c0-0.1,0-0.2,0-0.3c0-0.1,0-0.1,0-0.1l0,0l0,0c0,0,0,0,0,0.1
					c0,0.1,0,0.3,0,0.2c0,0,0-0.3,0-0.3c0,0,0,0.4,0,0.5c0-0.1,0,0.1,0,0.1c0-0.1,0-0.4,0-0.5c0,0.1,0,0.2,0,0.2c0-0.1,0-0.2,0-0.2
					c0,0,0,0,0,0s0,0,0,0c0,0.4,0,0.1,0,0.5c0,0,0,0.3,0,0.2c0-0.1,0-0.2,0-0.2c0-0.2,0,0.2,0,0c0-0.2,0-0.3,0-0.3c0,0,0-0.1,0-0.1
					l0,0l0,0c0,0.1-0.1,0.6-0.1,0.7c0,0.1-0.1,0.6-0.1,0.4c0.1-0.5,0,0.2-0.1,0.2c0,0,0-0.2,0-0.3c0-0.2,0-0.1,0-0.2
					c0,0,0.1-0.7,0.1-0.7s-0.1,0.5-0.1,0.3c0-0.1,0-0.2,0-0.2c0,0.2,0,0.2,0,0.1c0-0.1,0.1-0.3,0.1-0.3c0,0.1,0,0,0,0
					c0,0.1-0.1,0.2-0.1,0.3c0,0,0,0,0,0.1c0,0.2-0.1,0.6-0.2,0.7c0-0.1,0.1-0.4,0.1-0.5c0,0,0-0.2,0.1-0.2c0,0-0.2,0.8-0.2,0.7
					c0,0,0.2-0.7,0.3-0.9c0.1-0.3,0-0.1,0,0.1c0-0.1,0.1-0.3,0.1-0.4c0,0,0,0,0,0c-0.2,0.6,0-0.1,0,0.1c-0.1,0.2-0.1,0.4-0.1,0.4
					c0,0-0.2,0.5-0.2,0.6c0-0.1,0.1-0.3,0.1-0.4c0.1-0.1,0.1-0.3,0.2-0.4c0-0.1,0-0.1,0.1-0.2l-0.1,0.3c0,0,0.1-0.3,0.1-0.3
					c0,0.1,0,0.1,0,0.1c0,0,0-0.1,0-0.1c-0.1,0.2-0.2,0.5-0.3,0.7c0,0.1,0,0.1,0,0.1c0,0,0.1-0.1,0.1-0.2c0.1-0.2-0.1,0.2-0.1,0.3
					c0,0-0.1,0.1,0,0c0-0.1,0.1-0.2,0.2-0.4c0-0.1,0.2-0.5,0.2-0.5c0,0.1-0.3,0.6-0.4,0.7c-0.1,0.1,0,0,0-0.1
					c0.1-0.1,0.2-0.5,0.3-0.5c0,0-0.1,0.1,0,0.1c0,0,0.1-0.1,0.1-0.1c0,0.1-0.2,0.3-0.2,0.4c0,0,0.1-0.2,0.1-0.2c0,0,0.1-0.2,0,0
					c-0.1,0.2-0.2,0.4-0.3,0.4c0.1-0.2,0.5-0.8,0.4-0.6c0,0-0.5,0.7-0.6,0.8c0,0,0.4-0.6,0.4-0.6c0,0-0.4,0.6-0.5,0.7
					C31.2,37,30.9,37.4,31,37.2z"/>
				<path class="st4" d="M32,36L32,36L32,36z"/>
				<path class="st4" d="M33,36.9C33.1,37,32.9,36.8,33,36.9L33,36.9z"/>
				<path class="st4" d="M32,36.1c0,0,0.2,0.5,0.2,0.5c0,0,0-0.1,0.1,0.1c0,0.1,0,0,0,0.1c0.1,0.2,0.2,0.4,0.3,0.5
					c0.1,0.1,0.1,0.1,0-0.1c0-0.1-0.3-0.5-0.2-0.3c0,0.1,0.2,0.2,0.2,0.3c0.1,0.1,0,0,0,0c0,0-0.1-0.2-0.1-0.2c0-0.1,0,0,0.1,0
					c0,0,0.2,0.2,0-0.1c0,0-0.3-0.4-0.2-0.3c0.1,0.1,0.2,0.2,0.3,0.3c-0.1-0.1-0.2-0.3,0,0c0.1,0.1-0.1-0.1-0.1-0.1
					c0,0,0.2,0.1,0.2,0.2c0,0-0.2-0.2-0.1-0.1c0.1,0.1,0.2,0.2,0.2,0.1c0,0-0.1-0.2-0.1-0.2c0,0,0.1,0,0.1,0c0,0,0.1,0.1,0,0
					c0,0-0.1-0.1-0.1-0.1c0,0,0,0,0,0c-0.1-0.1-0.2-0.1-0.3-0.2c-0.1-0.1-0.3-0.3-0.5-0.5C32.1,36.1,32,36,32,36.1
					c-0.1-0.1,0-0.1-0.1-0.1C32,36,32.1,36.1,32,36.1C32.2,36.2,32,36,32,36.1c0,0,0.1,0.1,0.1,0.1c-0.1-0.1-0.2-0.2-0.2-0.2
					c0,0,0.4,0.5,0.5,0.5c0.2,0.2-0.2-0.2-0.2-0.2c0,0,0.1,0.2,0.2,0.2c0,0-0.1-0.1-0.1-0.1L32,36.1c0,0,0.3,0.3,0.3,0.3
					c-0.1-0.1-0.3-0.4-0.3-0.4l0,0C31.9,35.9,32,36,32,36.1c0-0.1-0.1-0.1-0.1-0.1l0.2,0.3C32.2,36.3,31.9,35.9,32,36.1
					c0.1,0,0.1,0.1,0.2,0.2c0,0,0,0,0,0C32.2,36.3,31.9,35.9,32,36.1c0.1,0.1,0-0.1-0.1-0.1C31.9,35.9,32,36,32,36.1
					c0,0,0-0.1-0.1-0.1C32,36,31.9,35.9,32,36.1c0,0,0.1,0.2,0.2,0.3c0,0.1-0.1-0.1,0,0c0,0,0.1,0.1,0.1,0.1
					C32.3,36.5,32,36.1,32,36.1c0,0,0.1,0.2-0.1-0.1l0,0l0,0l0,0C31.9,35.9,32,36.1,32,36.1z"/>
				<path class="st4" d="M32,36C32.1,36,32,36,32,36L32,36z"/>
				<path class="st4" d="M31.9,35.9c0,0,0.2,0.2,0.3,0.2c-0.2-0.1,0.5,0.4,0.3,0.2c-0.1-0.1-0.3-0.2-0.2-0.2c0,0,0,0,0.1,0.1
					c0.3,0.3,0.3,0.2,0.4,0.3c0.1,0.1,0.4,0.3,0.4,0.3c0,0,0,0,0-0.1c0,0-0.2-0.2-0.1-0.1c0.1,0,0.1,0.1,0,0c0,0,0,0,0,0
					c0,0-0.2-0.2-0.2-0.2c0.1,0,0.3,0.2,0.3,0.2c0,0-0.1-0.1-0.1-0.1c-0.1-0.1-0.3-0.2-0.2-0.2c-0.2-0.1,0,0-0.1-0.1
					c-0.1,0-0.4-0.2-0.4-0.2c0,0,0.4,0.3,0.5,0.3c0.1,0.1,0.2,0.1,0.3,0.1c0,0,0.2,0,0.2,0.1c0,0-0.3-0.2-0.4-0.2
					c0,0,0.3,0.1,0.3,0.1c0,0-0.1-0.1-0.2-0.1c-0.1-0.1-0.1-0.1,0.1,0c0.1,0.1,0.1,0,0.1,0c0,0,0,0-0.1-0.1c0,0-0.3-0.1-0.2-0.1
					c0.3,0.1,0.3,0.1-0.1-0.1c0,0,0.3,0.1,0.3,0.1c0,0,0.2,0,0.1,0c0,0-0.6-0.2-0.4-0.2c0.1,0,0.3,0.1,0.3,0.1c0,0-0.2-0.1-0.3-0.1
					c0,0-0.3-0.1-0.4-0.1c0,0-0.1,0-0.3-0.1C32.1,36,32.2,36,31.9,35.9C32,36,32,36,31.9,35.9L31.9,35.9L31.9,35.9
					C32,35.9,31.9,35.9,31.9,35.9c0.1,0.1,0.5,0.2,0.3,0.1c-0.2-0.1-0.1,0,0.1,0C32.2,36,32,36,31.9,35.9C32,36,32,35.9,31.9,35.9
					L31.9,35.9L31.9,35.9c0,0,0.1,0,0.1,0.1c0.2,0.1,0.3,0.1,0.2,0.1C32.2,36.1,32,36,31.9,35.9c0,0-0.1,0,0.2,0.1
					c0.2,0.1,0.2,0.1,0.3,0.2C32.4,36.2,32.1,36,31.9,35.9L31.9,35.9L31.9,35.9c0.1,0.1,0.2,0.1,0.3,0.2c0,0,0,0-0.1-0.1
					C32.1,36.1,32,36,31.9,35.9L31.9,35.9L31.9,35.9L31.9,35.9L31.9,35.9L31.9,35.9L31.9,35.9L31.9,35.9L31.9,35.9L31.9,35.9
					L31.9,35.9L31.9,35.9c0.1,0.1,0.2,0.2,0.2,0.2C32.1,36.1,32,35.9,31.9,35.9z"/>
				<path class="st4" d="M32,35.9L32,35.9L32,35.9z"/>
				<path class="st4" d="M32.1,36L32.1,36c-0.1,0-0.1,0-0.1,0C32.1,36,32.1,36,32.1,36z"/>
				<path class="st4" d="M31.9,35.9L31.9,35.9L31.9,35.9z"/>
				<path class="st4" d="M33.4,36.4C33.4,36.4,33.4,36.4,33.4,36.4C33.3,36.4,33.2,36.3,33.4,36.4c-0.1-0.1-0.2-0.2-0.1-0.1
					C33.3,36.3,33.4,36.3,33.4,36.4c0.1-0.1,0-0.1,0-0.1c0,0,0.1,0-0.2-0.1c-0.1,0,0.1,0,0.2,0c-0.3-0.1,0.1,0,0.1-0.1
					c0,0-0.7-0.1-1-0.1c0,0,0,0-0.1,0c-0.1,0-0.3,0-0.4,0c0,0,0.2,0,0.2,0c0.1,0-0.2,0-0.2,0c0.1,0,0.2,0,0.3,0c0.1,0,0,0,0,0
					c0,0,0.6,0.1,0.4,0.1c-0.1,0-0.6-0.1-0.6-0.1c0,0-0.1,0-0.1,0l0,0l0,0l0,0l0,0c0,0,0.1,0,0.3,0.1c0.1,0,0.3,0,0.4,0.1
					c0.1,0-0.1,0-0.1,0c0,0,0,0,0,0c0,0-0.3-0.1-0.3-0.1c0,0,0.1,0,0,0c0,0-0.2,0-0.3-0.1c-0.1,0,0,0-0.1,0c0,0,0.1,0,0.1,0
					c0.1,0,0.1,0,0.3,0.1c0.1,0,0.4,0.1,0.5,0.1c0.1,0-0.2,0-0.2,0c0,0,0.3,0.1,0.4,0.1C33.1,36.3,33.2,36.3,33.4,36.4
					c-0.3-0.1-0.5-0.2-0.7-0.2c0,0-0.2-0.1-0.3-0.1c0,0,0.1,0,0,0c-0.1,0-0.2-0.1-0.3-0.1c0,0-0.1,0-0.2-0.1l0,0c0,0,0.1,0,0.1,0
					c0,0-0.1,0-0.1,0l0,0c0.1,0,0.2,0.1,0.2,0.1c0,0,0.3,0.1,0.3,0.1C32.6,36.2,33.3,36.4,33.4,36.4z"/>
				<path class="st4" d="M32.3,36C32.4,36,32.4,36,32.3,36C32.4,36,32.3,36,32.3,36z"/>
				<path class="st4" d="M32.8,36c0.1,0,0.1,0,0.4,0c0.2,0,0.1,0,0.1,0C33.3,36,33.3,36,32.8,36c0-0.1,0.3-0.1,0.4-0.1
					c0,0-0.5,0-0.6,0c-0.2,0-0.4,0,0,0c-0.1,0-0.3,0-0.5,0c-0.1,0-0.1,0-0.1,0l0,0l0,0c0,0-0.1,0,0.1,0c0.1,0,0.2,0,0.4,0
					C32.6,36,32.8,36,32.8,36L32.5,36l0,0c0,0,0,0,0,0c-0.2,0-0.3,0-0.5,0c0.2,0,0.4,0,0.5,0c-0.1,0-0.4,0-0.2,0c0.2,0,0.3,0,0.4,0
					C32.7,36,32.8,36,32.8,36z"/>
				<polygon class="st4" points="31.9,35.9 31.9,35.9 31.9,35.9 				"/>
			</g>
		</g>
	</g>
	<g>
		<circle class="st4" cx="31.9" cy="42" r="0.6"/>
		<g>
			<g>
				<polygon class="st4" points="31.9,42 31.9,42 31.9,42 				"/>
				<path class="st4" d="M31.9,42L31.9,42L31.9,42z"/>
				<polygon class="st4" points="31.9,42 31.9,42 31.9,42 				"/>
				<path class="st4" d="M32.1,41.7C31.9,42.3,32.1,41.7,32.1,41.7L32.1,41.7z"/>
				<path class="st4" d="M31.9,42C31.9,42,31.9,42,31.9,42C31.9,42,31.9,42.1,31.9,42L31.9,42z"/>
				<path class="st4" d="M31.9,42L31.9,42C32,42,32,42,31.9,42z"/>
				<path class="st4" d="M33,42C33.2,42,33.1,42,33,42C32.9,42,33,42,33,42c0,0-0.6,0-0.4,0c0.2,0,0.4,0,0.6,0c0.2,0,0.4,0,0.2,0
					C33.2,41.9,33.2,41.9,33,42c-0.1-0.1,0.3-0.1,0.3-0.1C33.3,41.9,33.2,41.9,33,42c0-0.1,0.3-0.1,0.3-0.1c0,0,0,0,0.1,0
					c0.1,0-0.1,0-0.2,0c-0.2,0-0.2,0-0.2,0c0.2,0,0.3,0,0.5-0.1c0.2,0-0.1,0-0.1,0c-0.1,0,0,0,0,0c0,0-0.2,0-0.2,0
					c0,0,0.8-0.2,0.2-0.1c-0.2,0-0.1,0,0,0c0.1,0,0.1,0,0,0c-0.2,0,0,0,0.1-0.1c0.2-0.1-0.3,0.1-0.5,0.1c0.1,0,0.1,0,0.3-0.1
					c0.1,0,0.1,0,0.1-0.1c0.1-0.1,0-0.1,0-0.1c0,0,0.1-0.1,0-0.1c0,0-0.3,0.1-0.4,0.2c0.1,0,0.1,0,0.1-0.1c0.1,0,0.1-0.1,0.2-0.1
					c0.1,0,0,0,0,0c0,0-0.1,0-0.1,0c0,0,0.1-0.1,0-0.1c0,0-0.4,0.2-0.3,0.1c0.1-0.1,0.4-0.3,0.3-0.2c0,0-0.4,0.2-0.1,0
					c0,0-0.1,0.1-0.2,0.1c0.5-0.3,0.3-0.3,0.2-0.3c0,0,0-0.1-0.2,0.1c0,0,0,0,0-0.1c0,0,0,0,0,0c0,0,0-0.1,0-0.1c0,0,0,0-0.1,0.1
					c-0.1,0.1-0.1,0.1-0.1,0.1c0,0,0,0,0.1-0.1c0,0-0.1,0,0,0c0,0,0.2-0.2,0-0.1c-0.1,0.1-0.2,0.2-0.2,0.2c0,0,0.2-0.2,0.2-0.2
					c0.1-0.1-0.2,0.1-0.2,0.1c0,0,0-0.1,0-0.1c0,0,0.1-0.2,0,0c-0.1,0.1-0.1,0.2-0.2,0.3c0.1-0.1,0.2-0.3,0.2-0.4
					c0.1-0.1-0.2,0.3-0.2,0.4c0,0,0.3-0.4,0.3-0.6c0.1-0.1-0.1,0.1-0.1,0.1c0,0,0-0.1-0.1,0L32.6,41c0,0,0,0-0.1,0.1
					c0,0-0.1,0.3-0.1,0.3s0.3-0.6,0.3-0.6c0-0.1,0,0-0.1,0c0,0,0-0.2-0.2,0.2c0.1-0.2,0-0.1,0-0.1c0,0,0-0.2,0-0.1
					c-0.1,0.1-0.1,0.3-0.1,0.4c-0.1,0.3,0.1-0.4,0.1-0.4c0,0-0.2,0.6-0.2,0.7c0-0.1,0.3-0.9,0.2-0.7c-0.1,0.1,0,0-0.1,0.2
					c0,0.1-0.1,0.3-0.1,0.2c0-0.2,0-0.4,0-0.2c0.1-0.6,0-0.3-0.1,0.2c0-0.1,0-0.3,0-0.4c0-0.2,0-0.1,0-0.1c0,0,0-0.1-0.1,0.1
					c0-0.1,0-0.1,0-0.1c0,0,0,0.1,0,0.4c0,0,0-0.4,0-0.5c0,0.1,0,0.2,0,0.3c0-0.5,0-0.3-0.1-0.3c0,0,0,0.5,0,0.7c0,0.2,0,0.4,0,0.5
					c0,0.1,0,0,0-0.1c0-0.2,0-0.4,0-0.7c0,0,0-0.3,0-0.3c0,0,0,0.1,0,0.1c0-0.1,0-0.1,0-0.1c0,0,0,0,0,0.1c0,0.1,0.1,0.8,0.1,0.8
					c0-0.1-0.1-0.7-0.1-0.2c0,0.2,0.1,0.4,0.1,0.6c0,0.1,0-0.3,0-0.2c0,0.1,0,0.3,0,0.4l0,0c0,0,0-0.4,0-0.6c0-0.1,0-0.3,0-0.3
					c0,0,0-0.1,0,0c0,0.1,0,0.2,0,0.3c0,0.1,0,0.3,0,0.4c0-0.3,0-0.2,0-0.3c0,0,0,0.1,0,0.2c0,0.1,0,0,0,0s0,0.1,0,0.2
					c0,0.1,0,0.1,0,0.1l0,0c0-0.2,0-0.4,0-0.3c0,0,0,0.4,0,0.2c0-0.2,0,0.2,0,0c0-0.1,0.1-0.8,0.1-0.8c0,0,0,0.4-0.1,0.5
					c0,0.2,0,0.1,0,0.3c0,0,0,0,0,0l0,0c0,0,0,0,0-0.1c0-0.2,0-0.1,0-0.1c0,0,0.1-0.4,0.1-0.3c0,0,0,0.2,0,0.3c0,0.1,0,0.1,0,0.2
					c0,0,0,0,0,0c0-0.1,0-0.1,0-0.2c0-0.2,0-0.1,0-0.1c0,0,0,0.1,0,0c0-0.2,0.1-0.3,0-0.1C32,41.8,32,41.8,32,42c0,0,0,0,0,0
					c0,0,0,0,0,0c0-0.1,0,0,0.1-0.3c0,0.2-0.1,0.2,0,0.1c0-0.1,0.1-0.3,0.1-0.4c0.1-0.3,0,0.2-0.1,0.2c0,0.1-0.1,0.3-0.1,0.4
					c0,0,0,0,0,0c0,0,0,0,0,0c0,0,0,0.1,0,0.1c0-0.1,0.1-0.2,0.1-0.4c0.1-0.2,0.1-0.2,0.1-0.1c0,0.1-0.3,0.6-0.2,0.4
					c0,0,0.1-0.3,0.1-0.2c0,0.1-0.1,0.2-0.1,0.3l0,0c0,0,0-0.1,0-0.1c0,0,0.1-0.2,0.1-0.3c0.1-0.1,0,0,0.1-0.2c0,0,0.2-0.3,0.1-0.1
					c-0.1,0.1-0.1,0.2-0.1,0.2c0,0,0.1-0.1,0.1-0.2c0,0.1-0.3,0.5-0.4,0.6c0.1-0.1,0.2-0.3,0.2-0.3c0-0.1,0.1-0.2,0-0.1
					c0,0,0.2-0.4,0.2-0.4c0,0-0.4,0.6-0.5,0.7c0,0,0.2-0.3,0.2-0.3c-0.2,0.3,0,0.1-0.1,0.2c0,0.1-0.1,0.2-0.1,0.2c0,0,0,0,0,0
					c0-0.1,0,0,0,0l0,0c0.1-0.1,0.2-0.3,0.3-0.3c0.1-0.1-0.1,0.2-0.2,0.2C32,42,32,42,31.9,42c0.1-0.1,0.2-0.2,0.2-0.3
					c0.1-0.1,0.2-0.2,0,0c-0.3,0.4,0.3-0.3,0.3-0.3c-0.1,0.1-0.3,0.3-0.3,0.3s0.1-0.1,0,0c0,0,0.1-0.1,0,0C32.1,41.9,32,42,32,42
					c0.1-0.1,0.4-0.4,0.4-0.4c0,0,0.1-0.1,0.1-0.1c0,0-0.1,0.1-0.2,0.2L32,42c0.1-0.1,0.1-0.1,0.2-0.2c0.2-0.2,0.1-0.1,0,0
					c-0.3,0.2,0.2-0.2-0.1,0.1c0,0,0.3-0.2,0.2-0.1c0,0-0.4,0.3-0.3,0.2c0.1-0.1,0.3-0.2,0.3-0.2c0,0-0.1,0.1-0.2,0.1
					c0,0,0.1-0.1,0,0C32.1,42,32,42,32,42c0,0,0,0,0.1-0.1c0.1-0.1,0.3-0.2,0.3-0.2c0.1,0,0.2-0.1,0.2-0.2c0.1-0.1-0.1,0.1-0.1,0.1
					c-0.1,0.1-0.3,0.2-0.5,0.3c0.1-0.1,0.2-0.1,0.2-0.1c0,0-0.2,0.1-0.2,0.1c-0.1,0,0,0,0,0c0,0,0.1,0,0.1-0.1
					c0.1,0,0.1-0.1,0.3-0.2c0,0,0.3-0.1,0.2-0.1C32.5,41.8,32,42,32,42c0,0,0.3-0.2,0.3-0.2S32.1,42,32.1,42c0,0,0,0,0.1,0
					c0.1,0,0.1-0.1,0.3-0.1c0.1,0-0.1,0.1-0.3,0.1c-0.1,0.1,0.3-0.1,0.2-0.1c0,0,0.3-0.1,0.5-0.2c-0.2,0.1-0.3,0.1-0.5,0.2
					c-0.1,0-0.2,0.1-0.3,0.1c0.3-0.1,0.3-0.1,0.3-0.1c0,0-0.3,0.1-0.4,0.1c0.2-0.1,0.2,0,0.2,0c0,0,0.3-0.1,0.3-0.1
					c0,0-0.7,0.2-0.2,0.1c0,0-0.4,0.1-0.2,0c0.2,0,0.3,0,0.5-0.1C32.4,42,32.2,42,32,42c0.2,0,0.4-0.1,0.6-0.1
					c-0.1,0-0.5,0.1-0.5,0.1c0.1,0,0.5-0.1,0.8-0.1c0,0-0.5,0.1-0.6,0.1c-0.2,0,0,0-0.1,0c-0.1,0-0.2,0-0.2,0c0.1,0,0.2,0,0.2,0
					c0,0,0,0-0.1,0c0,0-0.1,0-0.2,0c0,0,0.2,0,0.3,0c0.3,0,0.4,0,0.3,0c0,0,0.1,0,0.2,0C32.6,42,32.9,42,33,42z"/>
				<path class="st4" d="M32.2,42c0,0-0.1,0-0.1,0C32.1,42,32.1,42,32.2,42z"/>
				<path class="st4" d="M31.9,41.8c0,0,0-0.1,0,0.1c0,0.2,0,0.1,0,0.1L31.9,41.8C31.9,41.8,31.9,41.8,31.9,41.8z"/>
				<path class="st4" d="M31.7,40.6C31.7,40.4,31.7,40.7,31.7,40.6c-0.1-0.2,0,0.2,0,0.3c-0.1-0.2-0.1-0.3-0.1-0.2
					c0,0.1,0.1,0.3,0.1,0.4c-0.1-0.3-0.3-0.8-0.1-0.3c0.1,0.2,0,0.2,0,0c-0.1-0.2-0.1-0.3-0.1-0.3c-0.1-0.1,0.2,0.5,0.2,0.6
					c0,0.1,0.3,0.8,0.3,0.9c0,0-0.1-0.2,0-0.1c0,0,0,0.1,0,0.1c0-0.1-0.1-0.3-0.1-0.4c0-0.1,0-0.1-0.1-0.2c0.1,0.2,0.1,0.5,0.1,0.3
					c0-0.1-0.1-0.5-0.1-0.6l0.2,0.7c0,0-0.1-0.3-0.1-0.3c0-0.1,0,0,0,0.1c0,0,0-0.1,0,0.1c0,0,0,0.2,0,0.2c0,0-0.1-0.3-0.1-0.4
					c0,0,0,0.2,0.1,0.4c0-0.1,0-0.3,0-0.3c0-0.1,0-0.1,0-0.3C31.8,41,31.7,40.8,31.7,40.6z"/>
				<path class="st4" d="M31.5,40.6C31.5,40.5,31.4,40.5,31.5,40.6L31.5,40.6z"/>
				<path class="st4" d="M31.5,40.7c-0.1-0.2,0.1,0.3,0.2,0.5c0-0.1-0.3-0.7-0.2-0.6c0,0.1,0.1,0.3,0.1,0.4c0,0,0,0.1,0,0
					c0,0-0.1-0.1-0.1-0.2c-0.1-0.2-0.1-0.1,0,0.1c-0.1-0.2,0.1,0.3,0,0.1c-0.1-0.1-0.1-0.3-0.2-0.3c0,0,0.1,0.4,0.2,0.6
					c-0.1-0.2-0.2-0.3-0.3-0.5c0.1,0.2,0.3,0.7,0.3,0.7c-0.1-0.2-0.3-0.6-0.3-0.5c0,0.1,0.2,0.3,0.3,0.5c0.1,0.2-0.2-0.4-0.2-0.4
					c0,0,0.2,0.3,0.1,0.1c0,0-0.1-0.1-0.1-0.2c0,0.1,0.1,0.2,0.1,0.2c-0.2-0.3-0.2-0.3-0.3-0.4c0-0.1,0,0,0.1,0.1
					c-0.1-0.1-0.2-0.2-0.2-0.2c0,0,0.1,0.1,0.1,0.2c0,0.1,0.1,0.1,0.1,0.2c0,0-0.2-0.2-0.2-0.3c0,0,0.1,0.1,0.1,0.2
					c0,0,0,0.1,0.1,0.1c0.2,0.3,0.3,0.5,0.6,0.8C31.9,42,31.9,42,32,42l0,0l0,0l0,0c-0.1-0.2-0.2-0.3-0.3-0.4c0,0-0.3-0.5-0.3-0.6
					c0.1,0.1,0.1,0.2,0.2,0.4c0,0.1,0.1,0.2,0.1,0.2c0.1,0.1,0.2,0.4,0.2,0.4c0,0,0,0,0,0.1c0,0,0,0-0.1-0.2c0,0,0,0,0,0
					c0,0,0.1,0.2,0.1,0.2c0,0,0,0,0-0.1c-0.1-0.2,0.1,0.2,0,0.1c-0.1-0.2-0.1-0.2-0.2-0.4c0-0.1-0.2-0.4-0.1-0.3
					c0.1,0.2,0.2,0.5,0.3,0.7c0,0,0,0,0-0.1c-0.1-0.2-0.2-0.6-0.2-0.7C31.6,41.1,31.6,40.9,31.5,40.7z"/>
				<path class="st4" d="M31.8,41.8c0.1,0.1,0.1,0.2,0.1,0.2C31.9,42,31.8,41.8,31.8,41.8z"/>
				<path class="st4" d="M31.2,41.1L31.2,41.1C31.3,41.3,31.4,41.4,31.2,41.1z"/>
				<path class="st4" d="M31.6,41.6c-0.2-0.2-0.4-0.5-0.6-0.7c0,0,0.1,0.2,0.3,0.3c0.2,0.2,0,0,0,0c0.1,0.1,0.2,0.2,0,0.1
					C31.2,41.2,31,41.1,31,41c-0.3-0.2,0.3,0.3,0.3,0.4c0,0-0.4-0.4-0.4-0.4c-0.1,0-0.1,0,0.2,0.2c0,0-0.2-0.1-0.2-0.2
					c0,0-0.1,0,0.1,0.2c-0.3-0.3,0,0.1-0.1,0c0,0,0,0,0,0c0.1,0.1,0.4,0.3,0.7,0.5c0.2,0.1,0.1,0.1,0.2,0.2c0,0,0.4,0.3,0.2,0.2
					c-0.1-0.1-0.2-0.1-0.2-0.1c0,0,0,0,0,0c0,0-0.2-0.2-0.3-0.3c-0.2-0.2,0.5,0.4,0.4,0.4c0,0-0.2-0.2-0.1-0.1
					c0.1,0.1,0.2,0.2,0.3,0.3c0,0-0.2-0.2-0.2-0.2c0,0,0.1,0.1,0,0c-0.1-0.1-0.1-0.2-0.1-0.1c0,0,0.1,0.1,0.1,0.1
					c0.1,0.1,0.1,0.1,0.2,0.2C31.9,42,31.7,41.8,31.6,41.6c0.1,0.1,0.3,0.4,0.4,0.4c-0.1-0.1-0.2-0.2-0.2-0.3c0,0,0.1,0.1,0.1,0.1
					c0.1,0.1-0.4-0.5,0,0C31.9,42,32,42.1,32,42c0,0,0,0-0.1-0.1c-0.1-0.1,0,0,0,0c0.1,0.1,0,0,0,0c-0.2-0.2-0.4-0.6-0.6-0.8
					C30.9,40.7,31.4,41.5,31.6,41.6z"/>
				<path class="st4" d="M30.8,41.2C30.8,41.2,30.8,41.2,30.8,41.2C30.8,41.2,30.7,41.1,30.8,41.2z"/>
				<path class="st4" d="M31.6,41.9c0,0,0.3,0.1,0.3,0.1C31.9,42,31.6,41.9,31.6,41.9z"/>
				<path class="st4" d="M31.9,42c0.1,0-0.1,0-0.1,0C31.8,42,31.8,42,31.9,42z"/>
				<path class="st4" d="M31.5,41.7c-0.1,0-0.2-0.1-0.2-0.2c-0.1-0.1,0.2,0.1-0.2-0.1c-0.1-0.1-0.4-0.3-0.3-0.2
					c0.1,0.1,0.3,0.2,0.4,0.3c-0.1-0.1-0.4-0.3-0.4-0.3c0,0,0.2,0.1-0.1,0c0.1,0.1,0.3,0.2,0.3,0.2c-0.1,0-0.5-0.3-0.5-0.3
					c0,0,0.3,0.2,0.3,0.2c0.3,0.2-0.3-0.2-0.3-0.2c0,0,0.1,0.1,0.2,0.1c0,0,0.2,0.1,0.3,0.2c0,0-0.3-0.2-0.4-0.2c0,0,0,0-0.1,0
					c-0.1-0.1-0.1-0.1,0,0c0.1,0,0.1,0,0,0c0,0-0.3-0.1-0.2-0.1c0.1,0,0.3,0.1,0.3,0.2c0,0-0.1,0-0.2-0.1c-0.4-0.2,0.1,0.1,0.2,0.1
					c0,0-0.3-0.1-0.3-0.1c0,0,0.1,0.1,0.2,0.1c0.1,0-0.3-0.1-0.3-0.1c-0.1,0,0.1,0.1,0.2,0.1c0.1,0.1,0.2,0.1,0.4,0.2
					c0.1,0,0.3,0.1,0.1,0.1c-0.1,0-0.4-0.1-0.4-0.1c0,0-0.2,0-0.3,0c-0.3,0,0.5,0.2,0,0.1c0.2,0.1,0.5,0.1,0.4,0.1
					c-0.1,0-0.5-0.1-0.4,0c0,0,0.7,0.1,0.7,0.1c0.3,0.1,0.5,0.1,0.7,0.1c0.2,0,0.1,0,0.1,0c0,0-0.4-0.1-0.5-0.1c0.1,0,0.2,0,0.3,0.1
					c-0.1,0-0.3-0.1-0.4-0.1c-0.2,0,0.1,0,0.2,0c0.2,0,0.5,0.1,0.1,0c-0.1,0-0.5-0.1-0.4-0.1c0.1,0,0.5,0.1,0.6,0.2
					c0.2,0,0.1,0,0.1,0c0,0,0.1,0-0.4-0.1c0.2,0.1-0.1,0-0.1,0c0,0,0.2,0.1,0.2,0.1c0,0-0.6-0.2-0.4-0.2c0.1,0,0.3,0.1,0.4,0.2
					c0.1,0-0.1,0-0.1,0c-0.1,0,0,0,0.2,0.1c0.2,0.1,0.1,0,0.1,0c0.2,0.1,0.3,0.1,0.1,0c0,0,0.2,0.1,0.1,0c0,0-0.2-0.1-0.4-0.2
					c-0.1,0-0.2-0.1-0.3-0.1c-0.1,0-0.4-0.2-0.3-0.2C31.1,41.7,31.3,41.7,31.5,41.7c0.1,0.2,0.2,0.2,0.2,0.2c0,0,0.2,0.1,0.2,0.1
					c0,0-1.6-0.8-0.3-0.1c0.2,0.1,0.3,0.2,0.2,0.1c-0.1,0-0.5-0.3-0.5-0.3s0.6,0.3,0.6,0.4c-0.1-0.1-0.7-0.4-0.7-0.4
					c0,0,0.5,0.3,0.6,0.3c0,0,0,0,0,0c0,0,0.1,0.1,0.1,0.1C31.9,42,31.6,41.8,31.5,41.7c0.1,0.1,0.3,0.2,0.4,0.3c0,0,0,0-0.1,0
					C31.8,41.9,31.4,41.7,31.5,41.7c0,0,0.3,0.2,0.4,0.3c0.1,0.1-0.1,0-0.2-0.1C31.6,41.8,31.7,41.8,31.5,41.7z"/>
				<path class="st4" d="M31.1,41.9c-0.2,0-0.5-0.1-0.3,0c0,0,0,0,0,0l0.6,0.1C31.2,41.9,31.2,41.9,31.1,41.9
					C31.2,41.9,31.6,42,31.1,41.9z"/>
				<path class="st4" d="M31.7,42c0.1,0,0.4,0,0.3,0C31.9,42,31.7,42,31.7,42z"/>
				<path class="st4" d="M30.1,41.8c0,0,0.2,0,0.2,0c0,0-0.1,0-0.1,0c0,0,0.1,0,0.2,0.1c0,0,0.2,0,0.2,0s-0.3,0-0.3,0
					c0.1,0,0.4,0,0.6,0.1l0.8,0.1c0,0-0.5,0-0.5-0.1c0,0,0.6,0.1,0.6,0.1c-0.5,0-0.2,0-0.4,0c-0.2,0-0.6-0.1-0.6-0.1
					c0,0,0.3,0,0.4,0.1c0.2,0,0.5,0.1,0.6,0.1c0,0-0.7-0.1-0.8-0.1c-0.2,0-0.7-0.1-0.8-0.1C30.4,41.8,30.4,41.8,30.1,41.8z"/>
				<path class="st4" d="M30.2,42c0,0,0,0,0.2,0.1c0.1,0,0.4,0,0.5,0c-0.1,0-0.6,0-0.6,0c0,0,0,0,0,0c0.1,0,0.1,0,0.1,0
					c0,0-0.2,0.1,0.1,0c0,0,0.9-0.1,0.7-0.1c0,0-0.3,0-0.3,0c-0.1,0-0.2,0-0.3,0c-0.2,0-0.2,0.1-0.2,0.1c0,0,0,0,0.1,0
					c0.2,0,0.1,0,0.1,0c0,0,0.3-0.1,0.4-0.1c0.2,0,0.5-0.1,0.6-0.1c0.2,0,0,0,0.1,0c0.2,0,0.2,0,0.2,0c-0.1,0-0.1,0-0.5,0.1
					c-0.1,0-0.4,0-0.3,0c0.1,0-0.2,0-0.3,0c-0.1,0-0.4,0-0.3,0c0,0,0.3,0,0.3,0c0.2,0,0.3,0,0.4-0.1c0,0,0.3-0.1,0.4-0.1
					c0,0-0.1,0,0,0c0.1,0,0.3,0-0.2,0c-0.2,0-0.1,0-0.2,0c-0.1,0-0.1,0-0.2,0c0,0,0.4,0,0.4,0c0.2,0,0.1,0,0.1,0c0.2,0-0.5,0-0.7,0
					c-0.1,0,0,0,0,0c0,0,0.2,0,0.2,0c0.2,0,0.4,0,0.3,0c-0.1,0-0.4,0-0.6,0c0,0-0.3,0-0.3,0c0,0,0.5,0,0.6,0c0.1,0,0.4,0,0.5,0
					c0.1,0-0.2,0-0.4,0c-0.1,0-0.2,0-0.3,0c-0.1,0-0.1,0,0,0C31,42,30.2,41.9,30.2,42z"/>
				<path class="st4" d="M30.6,42.4C30.4,42.4,31,42.3,30.6,42.4L30.6,42.4z"/>
				<path class="st4" d="M30.8,42.3c0,0-0.2,0.1-0.3,0.1c-0.1,0,0.1,0,0.2,0c0.1,0,1-0.2,0.8-0.2c0.2,0,0.3-0.1,0.2-0.1
					c0.2-0.1,0,0-0.1,0C31.4,42.2,31.2,42.2,30.8,42.3C30.1,42.4,30.8,42.3,30.8,42.3z"/>
				<path class="st4" d="M30.5,42.7C30.4,42.8,30.4,42.8,30.5,42.7L30.5,42.7C30.5,42.7,30.6,42.7,30.5,42.7z"/>
				<path class="st4" d="M31.2,42.6C31.2,42.6,31.2,42.6,31.2,42.6c0.1-0.1,0.1-0.1,0.1-0.1c0.1-0.1,0.2-0.1,0.2-0.1
					c0,0-0.4,0.3-0.4,0.3C31.1,42.6,31.2,42.6,31.2,42.6z"/>
				<path class="st4" d="M31.2,42.6c-0.1,0,0.2-0.1,0.1-0.1L31.2,42.6C31.3,42.5,31.2,42.6,31.2,42.6z"/>
				<path class="st4" d="M31.8,42.1C31.8,42.1,31.8,42.2,31.8,42.1C32,42,31.8,42.1,31.8,42.1z"/>
				<path class="st4" d="M31.6,42.1c0,0-0.4,0.1-0.4,0.1c0,0,0.2,0,0.2-0.1C31.5,42.2,31.6,42.2,31.6,42.1c0,0,0.1,0,0.2-0.1
					c-0.2,0.1-0.4,0.1-0.6,0.2c0.2,0,0.6-0.2,0.5-0.2c-0.1,0-0.4,0.2-0.5,0.2c0,0-0.1,0-0.1,0c-0.1,0,0,0,0.1,0
					C31.2,42.3,31.4,42.3,31.6,42.1c0.1,0,0.2,0,0.3-0.1c0,0-0.4,0.2-0.5,0.2c0,0,0.1,0,0.2-0.1c0.1,0,0.2-0.1,0.3-0.1
					c0.1,0,0.1-0.1,0.1-0.1c0,0,0,0-0.2,0.1c0.1,0,0.1-0.1,0.2-0.1C31.9,42.1,31.7,42.2,31.6,42.1c-0.3,0.2-0.6,0.4-0.9,0.6
					c0.2-0.1,0.5-0.2,0.7-0.3C31.4,42.3,31.5,42.3,31.6,42.1c0.2,0,0,0.1,0,0.1c-0.1,0.1-0.6,0.3-0.5,0.3
					C31.1,42.5,31.6,42.3,31.6,42.1c0.4-0.1,0.2,0,0.2,0c0,0,0.2-0.1,0.1,0c0,0-0.3,0.2-0.3,0.2c-0.1,0.1-0.5,0.3-0.5,0.3
					s0.5-0.3,0.6-0.3c0,0-0.1,0.1-0.1,0c0,0,0.2-0.1,0.3-0.2c0.1,0,0.1-0.1,0.1-0.1c0,0,0,0,0,0C31.9,42.1,31.8,42.2,31.6,42.1
					c0.2,0,0.5-0.2,0.3,0c-0.2,0.2-0.7,0.5-0.9,0.7c0,0,0.2-0.1,0.2-0.1c0.1-0.1,0.3-0.2,0.4-0.3c0.3-0.3-0.1,0.1-0.1,0.1
					s0.4-0.3,0.3-0.2c0,0,0.2-0.1,0.2-0.1c0,0-0.2,0.2-0.2,0.2c0,0,0.2-0.2,0.4-0.3c-0.1,0.1-0.5,0.4-0.6,0.6l0.3-0.2
					c0.1,0,0.2-0.2,0.3-0.3c0,0,0,0,0,0C32,42,32,42,32,42s0,0-0.1,0.1c-0.5,0.5,0.2-0.2,0.1-0.1c-0.1,0.1-0.4,0.4-0.5,0.5
					c-0.2,0.2-0.5,0.5-0.6,0.6c-0.1,0.1,0,0,0.1-0.2c0.1-0.1,0.2-0.2,0.3-0.3c-0.1,0.1-0.3,0.3-0.5,0.5c0.1-0.1,0.7-0.7,0.5-0.6
					c-0.2,0.2-0.4,0.4-0.5,0.5c-0.1,0.1-0.3,0.2,0-0.1c-0.2,0.2-0.1,0.1,0,0c0,0,0.3-0.3,0.1-0.1c-0.2,0.1-0.3,0.3-0.3,0.2
					c0.1-0.1,0,0-0.1,0c0.2-0.2-0.1-0.1-0.1-0.1c0,0,0,0,0.1-0.1c0,0,0.3-0.2,0.3-0.2c0,0-0.3,0.1-0.3,0.2c-0.1,0,0,0,0.1-0.1
					c0.3-0.2,0,0-0.1,0c-0.1,0-0.1,0-0.1,0c0,0,0.2-0.1,0.2-0.1c0,0-0.3,0.1-0.2,0.1c0,0,0.3-0.2,0.5-0.3c0.2-0.1-0.3,0.1-0.4,0.2
					c-0.3,0.1,0.1-0.1-0.1,0c0.4-0.2-0.1,0,0-0.1c0.2-0.1,0.4-0.1,0.5-0.2l0.2-0.1c-0.2,0.1-0.4,0.1-0.5,0.2c0,0-0.2,0.1-0.2,0.1
					c0,0,0,0,0.1,0c0,0-0.1,0,0,0c0.2-0.1,0.2-0.1,0.2-0.1c0,0-0.2,0,0,0c-0.1,0,0,0-0.3,0.1c0.1,0,0-0.1,0.5-0.2
					c0.2-0.1,0.3-0.1,0.5-0.1l0.2-0.1C31.5,42.2,31.5,42.2,31.6,42.1z M31,42.5c-0.1,0,0.1-0.1,0.3-0.1c0.1,0,0.1-0.1,0.2-0.1
					C31.3,42.3,31.2,42.4,31,42.5z"/>
				<path class="st4" d="M31.4,42.8c-0.1,0.1-0.2,0.2-0.2,0.3C31.2,43.1,31.5,42.6,31.4,42.8z"/>
				<path class="st4" d="M31.1,43.1c0.1-0.1,0.2-0.2,0.2-0.2C31.4,42.8,31.2,43,31.1,43.1c0,0-0.2,0.3,0,0.1
					c0.1-0.1,0.3-0.3,0.4-0.5c0.2-0.3,0.2-0.2,0.2-0.2c0.1-0.1,0.1-0.2,0.2-0.3c0,0,0-0.1,0.1-0.1c0-0.1,0.1-0.2,0.1-0.2l0,0l0,0
					l-0.1,0.1c0,0-0.3,0.4-0.2,0.3c0.1-0.1,0.2-0.3,0.3-0.3l0,0c-0.1,0.1,0,0-0.1,0.1c0,0-0.4,0.5-0.6,0.6
					C31.1,43,30.9,43.3,31.1,43.1z"/>
				<path class="st4" d="M31.8,42.2C31.8,42.3,31.8,42.3,31.8,42.2C31.7,42.4,31.9,42.1,31.8,42.2z"/>
				<path class="st4" d="M31.8,42.3c0-0.1,0.1-0.2,0.1-0.3l0,0c0,0,0,0.1-0.1,0.1C31.8,42.3,31.8,42.3,31.8,42.3z"/>
				<path class="st4" d="M31.7,42.5c0.1-0.1,0.2-0.4,0.2-0.5c0-0.1-0.1,0.2-0.1,0.3C31.7,42.5,31.7,42.6,31.7,42.5z"/>
				<path class="st4" d="M31.7,42.5C31.7,42.6,31.8,42.4,31.7,42.5L31.7,42.5z"/>
				<path class="st4" d="M32,42.2c0-0.1,0,0,0-0.1C31.9,42,32,42.1,32,42.2C32,42.3,32,42.3,32,42.2z"/>
				<path class="st4" d="M32.6,43.5L32.6,43.5C32.5,43.3,32.4,43.1,32.6,43.5z"/>
				<path class="st4" d="M31,43.3C31.1,43.3,31.3,43.1,31,43.3c-0.1,0.2,0,0.1,0,0.1c0,0,0.1,0,0.2-0.1c0.1-0.1,0,0.1,0,0.1
					c0,0,0.3-0.5,0.1-0.2c-0.1,0.2,0,0,0,0.1c-0.1,0.2,0,0.1,0,0.1c0,0,0,0.1,0,0.1c0,0,0-0.1,0.1-0.2c0-0.1,0,0,0,0
					c0,0,0-0.1,0.1-0.1c0,0,0,0.1-0.1,0.2l0,0c-0.1,0.2,0,0.2,0,0.1c0-0.1,0,0.1,0,0.1c0,0,0.1-0.3,0.1-0.4c0-0.1,0,0.2,0,0.3
					c0,0.2,0.1-0.1,0.1-0.1c0,0,0,0.1,0-0.2c0-0.1,0,0.1,0,0.1c0,0,0-0.1,0,0.3c0,0.1,0-0.1,0-0.2c0-0.2,0-0.3,0-0.4
					c0,0.1,0-0.1,0-0.2c0-0.1,0-0.8,0-0.8c0,0,0,0.6,0,0.7c0,0.1,0,0.5,0,0.5c0,0.2,0,0.6,0,0.2c0,0.1,0,0.2,0,0.2
					c0-0.1,0-0.2,0-0.2c0,0,0,0.1,0.1,0c0,0,0-0.1,0-0.2c0,0.2,0,0.4,0.1,0.4c0,0,0-0.6-0.1-0.7c0,0.3,0,0.6,0.1,0.6
					c0,0,0.1,0,0-0.2c0,0.1,0,0.2,0.1,0.2c0,0,0-0.1,0-0.2c0,0,0.1,0.2,0.1,0.2c0,0,0-0.3-0.1-0.4c0-0.1,0-0.3,0-0.2
					c0,0,0-0.1,0-0.1c0,0,0,0,0.1,0.1c0,0.1,0.1,0.3,0.1,0.4c0,0.1,0-0.3-0.1-0.3c0-0.1,0.1,0.2,0.1,0.2c0.1,0.2,0.1,0.2,0-0.1
					c0-0.1,0.1,0,0.1,0.2c0-0.1-0.1-0.3-0.1-0.3c0,0,0.1,0.1,0.1,0.2c0,0.1-0.1-0.3-0.1-0.4c0,0.1,0,0.1,0.1,0.2
					c0,0,0.1,0.4,0.1,0.3c0,0,0-0.1,0-0.1l0,0c0,0,0,0,0,0c0-0.1-0.1-0.4-0.2-0.6c-0.1-0.1-0.1-0.3-0.1-0.3c0.1,0.2,0.2,0.4,0.2,0.5
					c0.1,0.1,0,0.1,0.1,0.1c0,0.1,0.1,0.3,0.1,0.3c0,0,0,0,0,0c0-0.1-0.1-0.3-0.2-0.4c0-0.1,0,0,0.1,0.1c0.1,0.3,0.1,0.3,0.2,0.3
					c0-0.1-0.2-0.4-0.4-0.8c-0.1-0.2-0.2-0.4-0.3-0.6c0,0.1,0.1,0.1,0.1,0.1s0-0.1-0.1-0.1l0,0c0,0.1,0,0.1,0.1,0.1c0,0,0.1,0.2,0,0
					c0,0,0-0.1-0.1-0.1l0,0l0,0c0,0.1,0.1,0.4,0.2,0.5c-0.1-0.2,0-0.1,0,0c0,0-0.1-0.3-0.1-0.3c0-0.1,0-0.1-0.1-0.2
					c0,0.1,0.1,0.3,0.1,0.4c0,0.1,0.1,0.3,0,0.2c0,0-0.1-0.2-0.1-0.2c0,0,0,0.1,0,0c0-0.1,0-0.2-0.1-0.3c0,0.2,0.3,1.2,0.2,0.9
					c0-0.1-0.2-1-0.2-1l0,0c0,0.1,0,0.1,0,0.2c0,0.1,0.1,0.3,0.1,0.3c0-0.1-0.1-0.4-0.1-0.5c0-0.2,0.1,0.4,0.1,0.3
					c0,0.1,0,0.1,0,0.1c0,0.2,0,0.1,0,0.1c0-0.1-0.1-0.6-0.1-0.5c0-0.1,0-0.1,0-0.2c0,0.1,0.1,0.5,0.1,0.6c0,0-0.1-0.5-0.1-0.6
					c0,0,0.1,0.5,0.1,0.6c0,0,0-0.2,0-0.2c0,0,0,0,0-0.1c0-0.1,0-0.2,0-0.3c0-0.1,0-0.1,0-0.1l0,0l0,0c0,0,0,0,0,0.1
					c0,0.1,0,0.3,0,0.2c0,0,0-0.3,0-0.3c0,0,0,0.4,0,0.5c0-0.1,0,0.1,0,0.1c0-0.1,0-0.4,0-0.5c0,0.1,0,0.2,0,0.2c0-0.1,0-0.2,0-0.2
					c0,0,0,0,0,0s0,0,0,0c0,0.4,0,0.1,0,0.5c0,0,0,0.3,0,0.2c0-0.1,0-0.2,0-0.2c0-0.2,0,0.2,0,0c0-0.2,0-0.3,0-0.3c0,0,0-0.1,0-0.1
					l0,0l0,0c0,0.1-0.1,0.6-0.1,0.7c0,0.1-0.1,0.6-0.1,0.4c0.1-0.5,0,0.2-0.1,0.2c0,0,0-0.2,0-0.3c0-0.2,0-0.1,0-0.2
					c0,0,0.1-0.7,0.1-0.7s-0.1,0.5-0.1,0.3c0-0.1,0-0.2,0-0.2c0,0.2,0,0.2,0,0.1c0-0.1,0.1-0.3,0.1-0.3c0,0.1,0,0,0,0
					c0,0.1-0.1,0.2-0.1,0.3c0,0,0,0,0,0.1c0,0.2-0.1,0.6-0.2,0.7c0-0.1,0.1-0.4,0.1-0.5c0,0,0-0.2,0.1-0.2c0,0-0.2,0.8-0.2,0.7
					c0,0,0.2-0.7,0.3-0.9c0.1-0.3,0-0.1,0,0.1c0-0.1,0.1-0.3,0.1-0.4c0,0,0,0,0,0c-0.2,0.6,0-0.1,0,0.1c-0.1,0.2-0.1,0.4-0.1,0.4
					c0,0-0.2,0.5-0.2,0.6c0-0.1,0.1-0.3,0.1-0.4c0.1-0.1,0.1-0.3,0.2-0.4c0-0.1,0-0.1,0.1-0.2l-0.1,0.3c0,0,0.1-0.3,0.1-0.3
					c0,0.1,0,0.1,0,0.1c0,0,0-0.1,0-0.1c-0.1,0.2-0.2,0.5-0.3,0.7c0,0.1,0,0.1,0,0.1c0,0,0.1-0.1,0.1-0.2c0.1-0.2-0.1,0.2-0.1,0.3
					c0,0-0.1,0.1,0,0c0-0.1,0.1-0.2,0.2-0.4c0-0.1,0.2-0.5,0.2-0.5c0,0.1-0.3,0.6-0.4,0.7c-0.1,0.1,0,0,0-0.1
					c0.1-0.1,0.2-0.5,0.3-0.5c0,0-0.1,0.1,0,0.1c0,0,0.1-0.1,0.1-0.1c0,0.1-0.2,0.3-0.2,0.4c0,0,0.1-0.2,0.1-0.2c0,0,0.1-0.2,0,0
					c-0.1,0.2-0.2,0.4-0.3,0.4c0.1-0.2,0.5-0.8,0.4-0.6c0,0-0.5,0.7-0.6,0.8c0,0,0.4-0.6,0.4-0.6c0,0-0.4,0.6-0.5,0.7
					C31.2,43.1,30.9,43.5,31,43.3z"/>
				<path class="st4" d="M32,42.1L32,42.1L32,42.1z"/>
				<path class="st4" d="M33,43C33.1,43.1,32.9,42.9,33,43L33,43z"/>
				<path class="st4" d="M32,42.2c0,0,0.2,0.5,0.2,0.5c0,0,0-0.1,0.1,0.1c0,0.1,0,0,0,0.1c0.1,0.2,0.2,0.4,0.3,0.5
					c0.1,0.1,0.1,0.1,0-0.1c0-0.1-0.3-0.5-0.2-0.3c0,0.1,0.2,0.2,0.2,0.3c0.1,0.1,0,0,0,0c0,0-0.1-0.2-0.1-0.2c0-0.1,0,0,0.1,0
					c0,0,0.2,0.2,0-0.1c0,0-0.3-0.4-0.2-0.3c0.1,0.1,0.2,0.2,0.3,0.3c-0.1-0.1-0.2-0.3,0,0c0.1,0.1-0.1-0.1-0.1-0.1
					c0,0,0.2,0.1,0.2,0.2c0,0-0.2-0.2-0.1-0.1c0.1,0.1,0.2,0.2,0.2,0.1c0,0-0.1-0.2-0.1-0.2c0,0,0.1,0,0.1,0c0,0,0.1,0.1,0,0
					c0,0-0.1-0.1-0.1-0.1c0,0,0,0,0,0c-0.1-0.1-0.2-0.1-0.3-0.2c-0.1-0.1-0.3-0.3-0.5-0.5C32.1,42.2,32,42.1,32,42.2
					c-0.1-0.1,0-0.1-0.1-0.1C32,42.1,32.1,42.2,32,42.2C32.2,42.3,32,42.1,32,42.2c0,0,0.1,0.1,0.1,0.1c-0.1-0.1-0.2-0.2-0.2-0.2
					c0,0,0.4,0.5,0.5,0.5c0.2,0.2-0.2-0.2-0.2-0.2c0,0,0.1,0.2,0.2,0.2c0,0-0.1-0.1-0.1-0.1L32,42.2c0,0,0.3,0.3,0.3,0.3
					c-0.1-0.1-0.3-0.4-0.3-0.4l0,0C31.9,42,32,42.1,32,42.2c0-0.1-0.1-0.1-0.1-0.1l0.2,0.3C32.2,42.4,31.9,42,32,42.2
					c0.1,0,0.1,0.1,0.2,0.2c0,0,0,0,0,0C32.2,42.4,31.9,42,32,42.2c0.1,0.1,0-0.1-0.1-0.1C31.9,42,32,42.1,32,42.2
					c0,0,0-0.1-0.1-0.1C32,42.1,31.9,42,32,42.2c0,0,0.1,0.2,0.2,0.3c0,0.1-0.1-0.1,0,0c0,0,0.1,0.1,0.1,0.1
					C32.3,42.6,32,42.2,32,42.2c0,0,0.1,0.2-0.1-0.1l0,0l0,0l0,0C31.9,42,32,42.2,32,42.2z"/>
				<path class="st4" d="M32,42.1C32.1,42.1,32,42.1,32,42.1L32,42.1z"/>
				<path class="st4" d="M31.9,42c0,0,0.2,0.2,0.3,0.2c-0.2-0.1,0.5,0.4,0.3,0.2c-0.1-0.1-0.3-0.2-0.2-0.2c0,0,0,0,0.1,0.1
					c0.3,0.3,0.3,0.2,0.4,0.3c0.1,0.1,0.4,0.3,0.4,0.3c0,0,0,0,0-0.1c0,0-0.2-0.2-0.1-0.1c0.1,0,0.1,0.1,0,0c0,0,0,0,0,0
					c0,0-0.2-0.2-0.2-0.2c0.1,0,0.3,0.2,0.3,0.2c0,0-0.1-0.1-0.1-0.1c-0.1-0.1-0.3-0.2-0.2-0.2c-0.2-0.1,0,0-0.1-0.1
					c-0.1,0-0.4-0.2-0.4-0.2c0,0,0.4,0.3,0.5,0.3c0.1,0.1,0.2,0.1,0.3,0.1c0,0,0.2,0,0.2,0.1c0,0-0.3-0.2-0.4-0.2
					c0,0,0.3,0.1,0.3,0.1c0,0-0.1-0.1-0.2-0.1c-0.1-0.1-0.1-0.1,0.1,0c0.1,0.1,0.1,0,0.1,0c0,0,0,0-0.1-0.1c0,0-0.3-0.1-0.2-0.1
					c0.3,0.1,0.3,0.1-0.1-0.1c0,0,0.3,0.1,0.3,0.1c0,0,0.2,0,0.1,0c0,0-0.6-0.2-0.4-0.2c0.1,0,0.3,0.1,0.3,0.1c0,0-0.2-0.1-0.3-0.1
					c0,0-0.3-0.1-0.4-0.1c0,0-0.1,0-0.3-0.1C32.1,42.1,32.2,42.2,31.9,42C32,42.1,32,42.1,31.9,42L31.9,42L31.9,42
					C32,42,31.9,42,31.9,42c0.1,0.1,0.5,0.2,0.3,0.1c-0.2-0.1-0.1,0,0.1,0C32.2,42.1,32,42.1,31.9,42C32,42.1,32,42.1,31.9,42
					L31.9,42L31.9,42c0,0,0.1,0,0.1,0.1c0.2,0.1,0.3,0.1,0.2,0.1C32.2,42.2,32,42.1,31.9,42c0,0-0.1,0,0.2,0.1
					c0.2,0.1,0.2,0.1,0.3,0.2C32.4,42.3,32.1,42.1,31.9,42L31.9,42L31.9,42c0.1,0.1,0.2,0.1,0.3,0.2c0,0,0,0-0.1-0.1
					C32.1,42.2,32,42.1,31.9,42L31.9,42L31.9,42L31.9,42L31.9,42L31.9,42L31.9,42L31.9,42L31.9,42L31.9,42L31.9,42L31.9,42
					c0.1,0.1,0.2,0.2,0.2,0.2C32.1,42.2,32,42.1,31.9,42z"/>
				<path class="st4" d="M32,42L32,42L32,42z"/>
				<path class="st4" d="M32.1,42.1L32.1,42.1c-0.1,0-0.1,0-0.1,0C32.1,42.1,32.1,42.1,32.1,42.1z"/>
				<path class="st4" d="M31.9,42L31.9,42L31.9,42z"/>
				<path class="st4" d="M33.4,42.5C33.4,42.5,33.4,42.5,33.4,42.5C33.3,42.5,33.2,42.4,33.4,42.5c-0.1-0.1-0.2-0.2-0.1-0.1
					C33.3,42.4,33.4,42.4,33.4,42.5c0.1-0.1,0-0.1,0-0.1c0,0,0.1,0-0.2-0.1c-0.1,0,0.1,0,0.2,0c-0.3-0.1,0.1,0,0.1-0.1
					c0,0-0.7-0.1-1-0.1c0,0,0,0-0.1,0c-0.1,0-0.3,0-0.4,0c0,0,0.2,0,0.2,0c0.1,0-0.2,0-0.2,0c0.1,0,0.2,0,0.3,0c0.1,0,0,0,0,0
					c0,0,0.6,0.1,0.4,0.1c-0.1,0-0.6-0.1-0.6-0.1c0,0-0.1,0-0.1,0l0,0l0,0l0,0l0,0c0,0,0.1,0,0.3,0.1c0.1,0,0.3,0,0.4,0.1
					c0.1,0-0.1,0-0.1,0c0,0,0,0,0,0c0,0-0.3-0.1-0.3-0.1c0,0,0.1,0,0,0c0,0-0.2,0-0.3-0.1c-0.1,0,0,0-0.1,0c0,0,0.1,0,0.1,0
					c0.1,0,0.1,0,0.3,0.1c0.1,0,0.4,0.1,0.5,0.1c0.1,0-0.2,0-0.2,0c0,0,0.3,0.1,0.4,0.1C33.1,42.4,33.2,42.4,33.4,42.5
					c-0.3-0.1-0.5-0.2-0.7-0.2c0,0-0.2-0.1-0.3-0.1c0,0,0.1,0,0,0c-0.1,0-0.2-0.1-0.3-0.1c0,0-0.1,0-0.2-0.1l0,0c0,0,0.1,0,0.1,0
					c0,0-0.1,0-0.1,0l0,0c0.1,0,0.2,0.1,0.2,0.1c0,0,0.3,0.1,0.3,0.1C32.6,42.3,33.3,42.5,33.4,42.5z"/>
				<path class="st4" d="M32.3,42.1C32.4,42.1,32.4,42.1,32.3,42.1C32.4,42.1,32.3,42.1,32.3,42.1z"/>
				<path class="st4" d="M32.8,42.2c0.1,0,0.1,0,0.4,0c0.2,0,0.1,0,0.1,0C33.3,42.1,33.3,42.1,32.8,42.2c0-0.1,0.3-0.1,0.4-0.1
					c0,0-0.5,0-0.6,0c-0.2,0-0.4,0,0,0c-0.1,0-0.3,0-0.5,0c-0.1,0-0.1,0-0.1,0l0,0l0,0c0,0-0.1,0,0.1,0c0.1,0,0.2,0,0.4,0
					C32.6,42.1,32.8,42.1,32.8,42.2l-0.3-0.1l0,0c0,0,0,0,0,0c-0.2,0-0.3,0-0.5,0c0.2,0,0.4,0,0.5,0c-0.1,0-0.4,0-0.2,0
					c0.2,0,0.3,0,0.4,0C32.7,42.1,32.8,42.1,32.8,42.2z"/>
				<polygon class="st4" points="31.9,42 31.9,42 31.9,42 				"/>
			</g>
		</g>
	</g>
</g>
</svg>
